<?xml version="1.0" encoding="utf-8"?>
<svg viewBox="0 0 132.08 18" xmlns="http://www.w3.org/2000/svg" xmlns:bx="https://boxy-svg.com">
  <path d="M 11.925 13.769 C 11.225 13.769 10.585 13.699 10.005 13.559 C 9.425 13.419 8.982 13.249 8.675 13.049 L 8.885 11.009 C 9.185 11.296 9.605 11.539 10.145 11.739 C 10.678 11.939 11.285 12.039 11.965 12.039 C 13.132 12.039 13.715 11.686 13.715 10.979 C 13.715 10.772 13.668 10.589 13.575 10.429 C 13.475 10.262 13.348 10.119 13.195 9.999 C 13.042 9.879 12.872 9.776 12.685 9.689 C 12.505 9.609 12.325 9.539 12.145 9.479 L 10.835 9.019 L 10.275 8.779 C 9.688 8.539 9.258 8.249 8.985 7.909 C 8.712 7.576 8.562 7.109 8.535 6.509 C 8.535 6.136 8.605 5.776 8.745 5.429 C 8.885 5.076 9.102 4.762 9.395 4.489 C 9.682 4.216 10.048 3.996 10.495 3.829 C 10.942 3.656 11.468 3.569 12.075 3.569 C 12.388 3.569 12.698 3.592 13.005 3.639 C 13.318 3.686 13.615 3.746 13.895 3.819 C 14.175 3.886 14.428 3.966 14.655 4.059 C 14.882 4.152 15.065 4.242 15.205 4.329 L 15.015 6.159 C 13.935 5.572 12.978 5.279 12.145 5.279 C 11.905 5.279 11.678 5.299 11.465 5.339 C 11.252 5.372 11.062 5.432 10.895 5.519 C 10.735 5.606 10.605 5.712 10.505 5.839 C 10.405 5.972 10.355 6.132 10.355 6.319 C 10.355 6.559 10.415 6.746 10.535 6.879 C 10.648 7.019 10.818 7.139 11.045 7.239 C 11.278 7.346 11.568 7.452 11.915 7.559 C 12.255 7.666 12.655 7.806 13.115 7.979 L 13.875 8.279 C 14.068 8.352 14.272 8.459 14.485 8.599 C 14.698 8.739 14.898 8.912 15.085 9.119 C 15.265 9.326 15.415 9.566 15.535 9.839 C 15.655 10.112 15.715 10.422 15.715 10.769 C 15.715 11.069 15.678 11.392 15.605 11.739 C 15.532 12.079 15.365 12.402 15.105 12.709 C 14.845 13.009 14.462 13.262 13.955 13.469 C 13.448 13.669 12.772 13.769 11.925 13.769 ZM 17.094 9.369 L 17.094 3.769 L 18.884 3.769 L 18.884 8.769 C 18.884 9.289 18.921 9.752 18.994 10.159 C 19.068 10.566 19.191 10.909 19.364 11.189 C 19.538 11.469 19.768 11.682 20.054 11.829 C 20.348 11.969 20.714 12.039 21.154 12.039 C 21.581 12.039 21.941 11.969 22.234 11.829 C 22.528 11.682 22.761 11.469 22.934 11.189 C 23.108 10.909 23.231 10.566 23.304 10.159 C 23.378 9.752 23.414 9.289 23.414 8.769 L 23.414 3.769 L 25.214 3.769 L 25.214 9.369 C 25.214 10.742 24.871 11.819 24.184 12.599 C 23.504 13.379 22.494 13.769 21.154 13.769 C 19.808 13.769 18.794 13.379 18.114 12.599 C 17.434 11.819 17.094 10.742 17.094 9.369 ZM 30.795 10.349 L 29.045 10.349 L 29.045 13.569 L 27.255 13.569 L 27.255 3.769 L 30.025 3.769 C 30.732 3.769 31.352 3.809 31.885 3.889 C 32.412 3.969 32.845 4.122 33.185 4.349 C 33.532 4.576 33.792 4.892 33.965 5.299 C 34.139 5.706 34.225 6.232 34.225 6.879 C 34.225 7.559 34.119 8.122 33.905 8.569 C 33.692 9.009 33.415 9.362 33.075 9.629 C 32.742 9.896 32.372 10.082 31.965 10.189 C 31.559 10.296 31.169 10.349 30.795 10.349 M 30.515 5.269 L 29.045 5.269 L 29.045 8.669 L 30.555 8.669 C 31.222 8.669 31.695 8.536 31.975 8.269 C 32.262 8.002 32.405 7.542 32.405 6.889 C 32.405 6.602 32.375 6.356 32.315 6.149 C 32.255 5.942 32.152 5.776 32.005 5.649 C 31.859 5.516 31.665 5.419 31.425 5.359 C 31.185 5.299 30.882 5.269 30.515 5.269 ZM 42.008 13.569 L 35.598 13.569 L 35.598 3.769 L 41.868 3.769 L 41.868 5.509 L 37.428 5.509 L 37.428 7.589 L 40.878 7.589 L 40.878 9.329 L 37.428 9.329 L 37.428 11.829 L 42.008 11.829 L 42.008 13.569 ZM 51.05 13.569 L 49.19 13.569 L 47.16 9.929 L 45.34 9.929 L 45.34 13.569 L 43.55 13.569 L 43.55 3.769 L 47.13 3.769 C 49.383 3.769 50.51 4.712 50.51 6.599 C 50.51 7.299 50.363 7.869 50.07 8.309 C 49.783 8.742 49.373 9.122 48.84 9.449 L 51.05 13.569 M 46.73 5.269 L 45.34 5.269 L 45.34 8.249 L 46.66 8.249 C 47.413 8.249 47.93 8.119 48.21 7.859 C 48.49 7.606 48.63 7.226 48.63 6.719 C 48.63 6.226 48.493 5.859 48.22 5.619 C 47.953 5.386 47.456 5.269 46.73 5.269 ZM 61.493 5.509 L 57.253 5.509 L 57.253 7.589 L 60.533 7.589 L 60.533 9.329 L 57.253 9.329 L 57.253 13.569 L 55.463 13.569 L 55.463 3.769 L 61.493 3.769 L 61.493 5.509 ZM 69.7 13.569 L 67.84 13.569 L 67 11.199 L 63.73 11.199 L 62.89 13.569 L 61.03 13.569 L 64.52 3.769 L 66.21 3.769 L 69.7 13.569 M 66.38 9.469 L 65.36 6.599 L 64.35 9.469 L 66.38 9.469 ZM 80.789 13.569 L 78.919 13.569 L 78.079 6.999 L 75.579 11.509 L 73.059 7.019 L 72.219 13.569 L 70.359 13.569 L 71.709 3.769 L 73.179 3.769 L 75.579 8.239 L 77.959 3.769 L 79.429 3.769 L 80.789 13.569 ZM 84.2 13.569 L 82.41 13.569 L 82.41 3.769 L 84.2 3.769 L 84.2 13.569 ZM 90.598 13.769 C 89.898 13.769 89.251 13.646 88.658 13.399 C 88.064 13.159 87.554 12.816 87.128 12.369 C 86.694 11.916 86.361 11.379 86.128 10.759 C 85.888 10.132 85.768 9.436 85.768 8.669 C 85.768 7.902 85.888 7.206 86.128 6.579 C 86.374 5.959 86.708 5.422 87.128 4.969 C 87.554 4.522 88.064 4.179 88.658 3.939 C 89.251 3.692 89.898 3.569 90.598 3.569 C 91.664 3.569 92.594 3.762 93.388 4.149 L 93.188 5.859 C 92.261 5.486 91.398 5.299 90.598 5.299 C 90.131 5.299 89.721 5.379 89.368 5.539 C 89.014 5.706 88.714 5.936 88.468 6.229 C 88.228 6.522 88.044 6.876 87.918 7.289 C 87.791 7.702 87.728 8.162 87.728 8.669 C 87.728 9.176 87.791 9.636 87.918 10.049 C 88.044 10.462 88.228 10.816 88.468 11.109 C 88.714 11.402 89.014 11.632 89.368 11.799 C 89.721 11.959 90.131 12.039 90.598 12.039 C 91.398 12.039 92.261 11.852 93.188 11.479 L 93.388 13.189 C 92.594 13.576 91.664 13.769 90.598 13.769 ZM 102.467 12.369 C 101.573 13.302 100.417 13.769 98.997 13.769 C 98.297 13.769 97.65 13.646 97.057 13.399 C 96.463 13.159 95.953 12.816 95.527 12.369 C 95.093 11.916 94.76 11.379 94.527 10.759 C 94.287 10.132 94.167 9.436 94.167 8.669 C 94.167 7.902 94.287 7.206 94.527 6.579 C 94.773 5.959 95.107 5.422 95.527 4.969 C 95.953 4.522 96.463 4.179 97.057 3.939 C 97.65 3.692 98.297 3.569 98.997 3.569 C 99.697 3.569 100.343 3.692 100.937 3.939 C 101.53 4.192 102.04 4.542 102.467 4.989 C 102.9 5.436 103.233 5.972 103.467 6.599 C 103.707 7.226 103.827 7.916 103.827 8.669 C 103.827 10.202 103.373 11.436 102.467 12.369 M 101.127 6.219 C 100.633 5.606 99.923 5.299 98.997 5.299 C 98.53 5.299 98.12 5.379 97.767 5.539 C 97.413 5.706 97.113 5.936 96.867 6.229 C 96.627 6.522 96.443 6.876 96.317 7.289 C 96.19 7.702 96.127 8.162 96.127 8.669 C 96.127 9.176 96.19 9.636 96.317 10.049 C 96.443 10.462 96.627 10.816 96.867 11.109 C 97.113 11.402 97.413 11.632 97.767 11.799 C 98.12 11.959 98.53 12.039 98.997 12.039 C 99.463 12.039 99.873 11.959 100.227 11.799 C 100.58 11.632 100.88 11.402 101.127 11.109 C 101.367 10.816 101.55 10.462 101.677 10.049 C 101.803 9.636 101.867 9.176 101.867 8.669 C 101.867 7.662 101.62 6.846 101.127 6.219 ZM 115.282 13.569 L 113.412 13.569 L 112.572 6.999 L 110.072 11.509 L 107.552 7.019 L 106.712 13.569 L 104.852 13.569 L 106.202 3.769 L 107.672 3.769 L 110.072 8.239 L 112.452 3.769 L 113.922 3.769 L 115.282 13.569 Z" transform="matrix(1, 0, 0, 1, 0, 0)" style="fill: rgb(255, 255, 255); white-space: pre;"/>
  <path d="M 0 18 L 3.869 0" style="fill: none; stroke-linecap: round; stroke: rgb(134, 119, 64);" bx:origin="0 0.5"/>
  <g transform="matrix(0.094122, 0, 0, 0.094122, 118.03582, 3.568995)">
    <path id="path2842" fill="#01954B" d="M62.849,63.997C62.85,72.779,48.614,79.9,31.047,79.9&#10;&#9;&#9;&#9;c-17.563,0.001-31.803-7.118-31.804-15.9c0,0,0,0,0-0.002c-0.001-8.782,14.236-15.902,31.8-15.902&#10;&#9;&#9;&#9;c17.563,0,31.804,7.119,31.805,15.899C62.849,63.997,62.849,63.997,62.849,63.997z"/>
    <path id="path3624" fill="#F9EC2B" d="M117.618,89.127c0.003,8.779-14.233,15.902-31.798,15.902&#10;&#9;&#9;&#9;c-17.563,0-31.803-7.119-31.806-15.9c0-0.002,0-0.002,0-0.002c-0.002-8.783,14.235-15.902,31.8-15.902s31.802,7.115,31.804,15.898&#10;&#9;&#9;&#9;C117.618,89.126,117.618,89.126,117.618,89.127z"/>
    <path id="path3644" fill="#323B98" d="M64.017,0C47.987,0,34.96,12.812,34.58,28.766c0.666-0.047,1.329-0.075,2.006-0.075&#10;&#9;&#9;&#9;c16.269,0,29.457,13.202,29.457,29.485c0,0.242-0.012,0.479-0.018,0.72c15.335-1.029,27.448-13.801,27.448-29.411&#10;&#9;&#9;&#9;C93.473,13.202,80.286,0,64.017,0L64.017,0z"/>
    <path id="path3897" fill="#EB2D2F" d="M119.779,25.827c-16.264,0-29.447,13.192-29.447,29.464c0,0.363,0.005,0.73,0.019,1.087&#10;&#9;&#9;&#9;c0.392-0.014,0.78-0.035,1.177-0.035c15.897,0,28.853,12.611,29.429,28.378c15.72-0.615,28.268-13.547,28.268-29.427&#10;&#9;&#9;&#9;C149.227,39.019,136.043,25.827,119.779,25.827L119.779,25.827z"/>
  </g>
</svg>