<?xml version="1.0" encoding="UTF-8" standalone="no"?>
<svg width="77px" height="18px" viewBox="0 0 77 18" version="1.1" xmlns="http://www.w3.org/2000/svg" xmlns:xlink="http://www.w3.org/1999/xlink">
    <!-- Generator: Sketch 45 (43475) - http://www.bohemiancoding.com/sketch -->
    <title>system</title>
    <desc>Created with Sketch.</desc>
    <defs></defs>
    <g id="Page-1" stroke="none" stroke-width="1" fill="none" fill-rule="evenodd">
        <path d="M12.62,10.78 L10.87,10.78 L10.87,14 L9.078,14 L9.078,4.2 L11.85,4.2 C12.587337,4.2 13.1916643,4.23733296 13.663,4.312 C14.1343357,4.38666704 14.5636647,4.53133226 14.951,4.746 C15.3383353,4.96066774 15.6183325,5.27566459 15.791,5.691 C15.9636675,6.10633541 16.05,6.64533002 16.05,7.308 C16.05,7.97066998 15.9403344,8.54233093 15.721,9.023 C15.5016656,9.50366907 15.2100018,9.86533212 14.846,10.108 C14.4819982,10.3506679 14.1180018,10.5233328 13.754,10.626 C13.3899982,10.7286672 13.012002,10.78 12.62,10.78 Z M12.34,5.698 L10.87,5.698 L10.87,9.1 L12.382,9.1 C13.04467,9.1 13.5183319,8.96700133 13.803,8.701 C14.0876681,8.43499867 14.23,7.9753366 14.23,7.322 C14.23,6.74333044 14.0970013,6.32800126 13.831,6.076 C13.5649987,5.82399874 13.0680036,5.698 12.34,5.698 Z M21.664,14.196 C20.2453262,14.196 19.0856712,13.7270047 18.185,12.789 C17.2843288,11.8509953 16.834,10.6213409 16.834,9.1 C16.834,7.57865906 17.2843288,6.34900469 18.185,5.411 C19.0856712,4.47299531 20.2453262,4.004 21.664,4.004 C22.7373387,4.004 23.6659961,4.19533142 24.45,4.578 L24.254,6.286 C23.3113286,5.9126648 22.4480039,5.726 21.664,5.726 C20.7399954,5.726 20.0306691,6.03399692 19.536,6.65 C19.0413309,7.26600308 18.794,8.08266158 18.794,9.1 C18.794,10.1173384 19.0413309,10.9339969 19.536,11.55 C20.0306691,12.1660031 20.7399954,12.474 21.664,12.474 C22.4480039,12.474 23.3113286,12.2873352 24.254,11.914 L24.45,13.622 C23.6659961,14.0046686 22.7373387,14.196 21.664,14.196 Z M35.51,14 L29.098,14 L29.098,4.2 L35.37,4.2 L35.37,5.936 L30.932,5.936 L30.932,8.022 L34.376,8.022 L34.376,9.758 L30.932,9.758 L30.932,12.264 L35.51,12.264 L35.51,14 Z M44.792,14 L43.322,14 L38.842,7.28 L38.842,14 L37.05,14 L37.05,4.2 L38.814,4.2 L43,10.528 L43,4.2 L44.792,4.2 L44.792,14 Z M51.148,14.196 C49.7573264,14.196 48.6116712,13.7270047 47.711,12.789 C46.8103288,11.8509953 46.36,10.6166743 46.36,9.086 C46.36,7.56465906 46.8126621,6.337338 47.718,5.404 C48.6233379,4.470662 49.7993261,4.004 51.246,4.004 C51.7406691,4.004 52.2679972,4.05766613 52.828,4.165 C53.3880028,4.27233387 53.8406649,4.40999916 54.186,4.578 L53.99,6.286 C53.0753288,5.9126648 52.1746711,5.726 51.288,5.726 C50.3079951,5.726 49.5683358,6.03166361 49.069,6.643 C48.5696642,7.25433639 48.32,8.05932834 48.32,9.058 C48.32,10.0940052 48.5813307,10.9223302 49.104,11.543 C49.6266693,12.1636698 50.3826617,12.474 51.372,12.474 C51.7733353,12.474 52.2213309,12.4226672 52.716,12.32 L52.716,10.57 L51.638,10.57 L51.638,9.086 L54.508,9.086 L54.508,13.454 C54.1533316,13.6593344 53.64467,13.8343326 52.982,13.979 C52.31933,14.1236674 51.7080028,14.196 51.148,14.196 Z M58.036,14 L56.244,14 L56.244,4.2 L58.036,4.2 L58.036,14 Z M67.934,14 L66.464,14 L61.984,7.28 L61.984,14 L60.192,14 L60.192,4.2 L61.956,4.2 L66.142,10.528 L66.142,4.2 L67.934,4.2 L67.934,14 Z M76.502,14 L70.09,14 L70.09,4.2 L76.362,4.2 L76.362,5.936 L71.924,5.936 L71.924,8.022 L75.368,8.022 L75.368,9.758 L71.924,9.758 L71.924,12.264 L76.502,12.264 L76.502,14 Z" id="PC-ENGINE-Copy" fill="#FFFFFF"></path>
        <g id="system" stroke="#867740" stroke-linecap="round">
            <path d="M0.5,17.5 L4.5,0.5" id="Shape"></path>
        </g>
    </g>
</svg>