<?xml version="1.0" encoding="utf-8"?>
<svg viewBox="0 0 76.5 18" xmlns="http://www.w3.org/2000/svg" xmlns:bx="https://boxy-svg.com">
  <path d="M 12.625 10.349 L 10.875 10.349 L 10.875 13.569 L 9.085 13.569 L 9.085 3.769 L 11.855 3.769 C 12.562 3.769 13.182 3.809 13.715 3.889 C 14.242 3.969 14.675 4.122 15.015 4.349 C 15.362 4.576 15.622 4.892 15.795 5.299 C 15.968 5.706 16.055 6.232 16.055 6.879 C 16.055 7.559 15.948 8.122 15.735 8.569 C 15.522 9.009 15.245 9.362 14.905 9.629 C 14.572 9.896 14.202 10.082 13.795 10.189 C 13.388 10.296 12.998 10.349 12.625 10.349 M 12.345 5.269 L 10.875 5.269 L 10.875 8.669 L 12.385 8.669 C 13.052 8.669 13.525 8.536 13.805 8.269 C 14.092 8.002 14.235 7.542 14.235 6.889 C 14.235 6.602 14.205 6.356 14.145 6.149 C 14.085 5.942 13.982 5.776 13.835 5.649 C 13.688 5.516 13.495 5.419 13.255 5.359 C 13.015 5.299 12.712 5.269 12.345 5.269 ZM 21.668 13.769 C 20.968 13.769 20.322 13.646 19.728 13.399 C 19.135 13.159 18.625 12.816 18.198 12.369 C 17.765 11.916 17.432 11.379 17.198 10.759 C 16.958 10.132 16.838 9.436 16.838 8.669 C 16.838 7.902 16.958 7.206 17.198 6.579 C 17.445 5.959 17.778 5.422 18.198 4.969 C 18.625 4.522 19.135 4.179 19.728 3.939 C 20.322 3.692 20.968 3.569 21.668 3.569 C 22.735 3.569 23.665 3.762 24.458 4.149 L 24.258 5.859 C 23.332 5.486 22.468 5.299 21.668 5.299 C 21.202 5.299 20.792 5.379 20.438 5.539 C 20.085 5.706 19.785 5.936 19.538 6.229 C 19.298 6.522 19.115 6.876 18.988 7.289 C 18.862 7.702 18.798 8.162 18.798 8.669 C 18.798 9.176 18.862 9.636 18.988 10.049 C 19.115 10.462 19.298 10.816 19.538 11.109 C 19.785 11.402 20.085 11.632 20.438 11.799 C 20.792 11.959 21.202 12.039 21.668 12.039 C 22.468 12.039 23.332 11.852 24.258 11.479 L 24.458 13.189 C 23.665 13.576 22.735 13.769 21.668 13.769 ZM 35.513 13.569 L 29.103 13.569 L 29.103 3.769 L 35.373 3.769 L 35.373 5.509 L 30.933 5.509 L 30.933 7.589 L 34.383 7.589 L 34.383 9.329 L 30.933 9.329 L 30.933 11.829 L 35.513 11.829 L 35.513 13.569 ZM 44.794 13.569 L 43.324 13.569 L 38.844 6.849 L 38.844 13.569 L 37.054 13.569 L 37.054 3.769 L 38.814 3.769 L 43.004 10.099 L 43.004 3.769 L 44.794 3.769 L 44.794 13.569 ZM 51.151 13.769 C 50.458 13.769 49.818 13.646 49.231 13.399 C 48.645 13.159 48.138 12.816 47.711 12.369 C 47.285 11.916 46.955 11.376 46.721 10.749 C 46.481 10.116 46.361 9.419 46.361 8.659 C 46.361 7.899 46.481 7.206 46.721 6.579 C 46.955 5.959 47.288 5.426 47.721 4.979 C 48.148 4.539 48.665 4.192 49.271 3.939 C 49.871 3.692 50.531 3.569 51.251 3.569 C 51.485 3.569 51.738 3.586 52.011 3.619 C 52.285 3.646 52.555 3.682 52.821 3.729 C 53.088 3.782 53.341 3.846 53.581 3.919 C 53.815 3.986 54.018 4.062 54.191 4.149 L 53.991 5.859 C 53.098 5.486 52.198 5.299 51.291 5.299 C 50.798 5.299 50.365 5.376 49.991 5.529 C 49.625 5.689 49.318 5.916 49.071 6.209 C 48.825 6.502 48.638 6.852 48.511 7.259 C 48.385 7.666 48.321 8.122 48.321 8.629 C 48.321 9.149 48.388 9.619 48.521 10.039 C 48.648 10.459 48.841 10.816 49.101 11.109 C 49.368 11.402 49.688 11.632 50.061 11.799 C 50.441 11.959 50.878 12.039 51.371 12.039 C 51.758 12.039 52.208 11.989 52.721 11.889 L 52.721 10.139 L 51.641 10.139 L 51.641 8.659 L 54.511 8.659 L 54.511 13.019 C 54.345 13.126 54.125 13.222 53.851 13.309 C 53.578 13.396 53.288 13.476 52.981 13.549 C 52.668 13.616 52.348 13.669 52.021 13.709 C 51.701 13.749 51.411 13.769 51.151 13.769 ZM 58.036 13.569 L 56.246 13.569 L 56.246 3.769 L 58.036 3.769 L 58.036 13.569 ZM 67.934 13.569 L 66.464 13.569 L 61.984 6.849 L 61.984 13.569 L 60.194 13.569 L 60.194 3.769 L 61.954 3.769 L 66.144 10.099 L 66.144 3.769 L 67.934 3.769 L 67.934 13.569 ZM 76.501 13.569 L 70.091 13.569 L 70.091 3.769 L 76.361 3.769 L 76.361 5.509 L 71.921 5.509 L 71.921 7.589 L 75.371 7.589 L 75.371 9.329 L 71.921 9.329 L 71.921 11.829 L 76.501 11.829 L 76.501 13.569 Z" transform="matrix(1, 0, 0, 1, 0, 0)" style="fill: rgb(255, 255, 255); white-space: pre;"/>
  <path d="M 0 18 L 3.869 0" style="fill: none; stroke-linecap: round; stroke: rgb(134, 119, 64);" bx:origin="0 0.5"/>
</svg>