<?xml version="1.0" encoding="UTF-8"?>
<svg width="95px" height="18px" viewBox="0 0 95 18" version="1.1" xmlns="http://www.w3.org/2000/svg" xmlns:xlink="http://www.w3.org/1999/xlink">
    <!-- Generator: Sketch 45.1 (43504) - http://www.bohemiancoding.com/sketch -->
    <title>system</title>
    <desc>Created with Sketch.</desc>
    <defs></defs>
    <g id="Page-1" stroke="none" stroke-width="1" fill="none" fill-rule="evenodd">
        <g id="system">
            <path d="M0.5,17.5 L4.5,0.5" id="Shape" stroke="#867740" stroke-linecap="round"></path>
            <path d="M16.708,14 L14.846,14 L14.006,11.634 L10.744,11.634 L9.904,14 L8.042,14 L11.528,4.2 L13.222,4.2 L16.708,14 Z M13.39,9.898 L12.368,7.028 L11.36,9.898 L13.39,9.898 Z M23.652,14 L17.828,14 L17.828,4.2 L19.62,4.2 L19.62,12.264 L23.652,12.264 L23.652,14 Z M30.652,14 L24.828,14 L24.828,4.2 L26.62,4.2 L26.62,12.264 L30.652,12.264 L30.652,14 Z M39.178,14.196 C37.7873264,14.196 36.6416712,13.7270047 35.741,12.789 C34.8403288,11.8509953 34.39,10.6166743 34.39,9.086 C34.39,7.56465906 34.8426621,6.337338 35.748,5.404 C36.6533379,4.470662 37.8293261,4.004 39.276,4.004 C39.7706691,4.004 40.2979972,4.05766613 40.858,4.165 C41.4180028,4.27233387 41.8706649,4.40999916 42.216,4.578 L42.02,6.286 C41.1053288,5.9126648 40.2046711,5.726 39.318,5.726 C38.3379951,5.726 37.5983358,6.03166361 37.099,6.643 C36.5996642,7.25433639 36.35,8.05932834 36.35,9.058 C36.35,10.0940052 36.6113307,10.9223302 37.134,11.543 C37.6566693,12.1636698 38.4126617,12.474 39.402,12.474 C39.8033353,12.474 40.2513309,12.4226672 40.746,12.32 L40.746,10.57 L39.668,10.57 L39.668,9.086 L42.538,9.086 L42.538,13.454 C42.1833316,13.6593344 41.67467,13.8343326 41.012,13.979 C40.34933,14.1236674 39.7380028,14.196 39.178,14.196 Z M51.904,14 L50.042,14 L49.202,11.634 L45.94,11.634 L45.1,14 L43.238,14 L46.724,4.2 L48.418,4.2 L51.904,14 Z M48.586,9.898 L47.564,7.028 L46.556,9.898 L48.586,9.898 Z M62.992,14 L61.13,14 L60.29,7.434 L57.784,11.942 L55.264,7.448 L54.424,14 L52.562,14 L53.92,4.2 L55.39,4.2 L57.784,8.666 L60.164,4.2 L61.634,4.2 L62.992,14 Z M71.028,14 L64.616,14 L64.616,4.2 L70.888,4.2 L70.888,5.936 L66.45,5.936 L66.45,8.022 L69.894,8.022 L69.894,9.758 L66.45,9.758 L66.45,12.264 L71.028,12.264 L71.028,14 Z M75.41,14.196 C74.7099965,14.196 74.0706696,14.1260007 73.492,13.986 C72.9133304,13.8459993 72.4700015,13.678001 72.162,13.482 L72.372,11.438 C72.6706682,11.7273348 73.0883307,11.9723323 73.625,12.173 C74.1616694,12.3736677 74.7706633,12.474 75.452,12.474 C76.6186725,12.474 77.202,12.1193369 77.202,11.41 C77.202,11.213999 77.1553338,11.0366675 77.062,10.878 C76.9686662,10.7193325 76.8683339,10.5886672 76.761,10.486 C76.6536661,10.3833328 76.4740013,10.2736672 76.222,10.157 C75.9699987,10.0403328 75.7740007,9.95633359 75.634,9.905 C75.4939993,9.85366641 75.2560017,9.77200056 74.92,9.66 C74.6306652,9.5666662 74.4300006,9.4966669 74.318,9.45 L73.758,9.212 C73.4966654,9.10933282 73.3053339,9.01833373 73.184,8.939 C73.0626661,8.85966627 72.9133342,8.74766739 72.736,8.603 C72.5586658,8.45833261 72.4280004,8.31133408 72.344,8.162 C72.2599996,8.01266592 72.1853337,7.83300105 72.12,7.623 C72.0546663,7.41299895 72.022,7.18666788 72.022,6.944 C72.022,6.17866284 72.3113304,5.49733632 72.89,4.9 C73.4686696,4.30266368 74.359994,4.004 75.564,4.004 C76.1893365,4.004 76.7936638,4.08333254 77.377,4.242 C77.9603363,4.40066746 78.3966652,4.5733324 78.686,4.76 L78.504,6.594 C77.4306613,6.00599706 76.4740042,5.712 75.634,5.712 C75.1579976,5.712 74.7403351,5.79133254 74.381,5.95 C74.0216649,6.10866746 73.842,6.3746648 73.842,6.748 C73.842,7.10266844 74.0053317,7.37566571 74.332,7.567 C74.6586683,7.75833429 75.15333,7.95666564 75.816,8.162 C76.1613351,8.26466718 76.4249991,8.34866634 76.607,8.414 C76.7890009,8.47933366 77.0386651,8.57733268 77.356,8.708 C77.6733349,8.83866732 77.9206658,8.97633261 78.098,9.121 C78.2753342,9.26566739 78.4596657,9.44299895 78.651,9.653 C78.8423343,9.86300105 78.9823329,10.1103319 79.071,10.395 C79.1596671,10.6796681 79.204,10.9946649 79.204,11.34 C79.204,11.6013346 79.1806669,11.8463322 79.134,12.075 C79.0873331,12.3036678 78.9823341,12.553332 78.819,12.824 C78.6556658,13.094668 78.4410013,13.3256657 78.175,13.517 C77.9089987,13.7083343 77.5403357,13.8693327 77.069,14 C76.5976643,14.1306673 76.0446698,14.196 75.41,14.196 Z" id="ALL-GAMES-Copy" fill="#FFFFFF"></path>
            <path d="M94.4939186,10.5695947 C94.4211577,10.2924357 94.2611005,10.0837958 94.0134361,9.94384478 L91.8658426,8.70054579 L94.0134361,7.45719025 C94.2611005,7.31723922 94.4212425,7.10874076 94.4939186,6.8314969 C94.5664816,6.55428133 94.5329149,6.29188376 94.3929073,6.04433249 L93.8762281,5.15626986 C93.7363054,4.90863375 93.5278635,4.74852005 93.2505065,4.67584393 C92.9733192,4.6033092 92.7111762,4.63693251 92.4634269,4.77696837 L90.3158334,6.01209483 L90.3158334,3.53347143 C90.3158334,3.2535411 90.2134364,3.01133449 90.0088687,2.80679504 C89.8043858,2.60225559 89.5621226,2.5 89.2822771,2.5 L88.2489754,2.5 C87.9690168,2.5 87.7268384,2.60234042 87.522299,2.80679504 C87.3177878,3.01130621 87.2154756,3.2535411 87.2154756,3.53347143 L87.2154756,6.01209483 L85.0678538,4.77688353 C84.8202177,4.63684767 84.5578201,4.60311125 84.2806611,4.67575909 C84.0034455,4.74852005 83.7948622,4.90854891 83.6549112,5.15618503 L83.1382321,6.04427593 C82.9981962,6.29182721 82.9646012,6.55422477 83.037249,6.83144035 C83.1100382,7.10859936 83.2700388,7.31721094 83.5176749,7.45713369 L85.6652968,8.70060235 L83.5176749,9.94390134 C83.2700388,10.0838524 83.1099251,10.2923791 83.037249,10.5696512 C82.9646294,10.8468103 82.9983093,11.1090664 83.1382321,11.3566177 L83.6549395,12.2447934 C83.794834,12.4925427 84.0033324,12.6525998 84.2806328,12.725389 C84.557905,12.7978389 84.8201894,12.7642722 85.0678255,12.6241515 L87.2154474,11.3889119 L87.2154474,13.8676767 C87.2154474,14.1473808 87.3177312,14.3898702 87.5222707,14.5942683 C87.7268101,14.798836 87.9690733,14.901035 88.2489471,14.901035 L89.2822488,14.901035 C89.5620943,14.901035 89.8044423,14.7988643 90.0088121,14.5942683 C90.213493,14.3898419 90.3157768,14.1473525 90.3157768,13.8676767 L90.3157768,11.3891099 L92.4633704,12.6243494 C92.7111196,12.7642722 92.9732627,12.7980652 93.25045,12.725389 C93.5276938,12.6525998 93.7362488,12.4926558 93.8761716,12.2449066 L94.3928507,11.3568157 C94.5329149,11.1090947 94.5665099,10.8467537 94.4939186,10.5695947 Z" id="path4676" fill="#BBA358" fill-rule="nonzero"></path>
        </g>
    </g>
</svg>