<?xml version="1.0" encoding="UTF-8" standalone="no"?>
<svg width="33px" height="18px" viewBox="0 0 33 18" version="1.1" xmlns="http://www.w3.org/2000/svg" xmlns:xlink="http://www.w3.org/1999/xlink">
    <!-- Generator: Sketch 45 (43475) - http://www.bohemiancoding.com/sketch -->
    <title>system</title>
    <desc>Created with Sketch.</desc>
    <defs></defs>
    <g id="Page-1" stroke="none" stroke-width="1" fill="none" fill-rule="evenodd">
        <path d="M12.62,10.78 L10.87,10.78 L10.87,14 L9.078,14 L9.078,4.2 L11.85,4.2 C12.587337,4.2 13.1916643,4.23733296 13.663,4.312 C14.1343357,4.38666704 14.5636647,4.53133226 14.951,4.746 C15.3383353,4.96066774 15.6183325,5.27566459 15.791,5.691 C15.9636675,6.10633541 16.05,6.64533002 16.05,7.308 C16.05,7.97066998 15.9403344,8.54233093 15.721,9.023 C15.5016656,9.50366907 15.2100018,9.86533212 14.846,10.108 C14.4819982,10.3506679 14.1180018,10.5233328 13.754,10.626 C13.3899982,10.7286672 13.012002,10.78 12.62,10.78 Z M12.34,5.698 L10.87,5.698 L10.87,9.1 L12.382,9.1 C13.04467,9.1 13.5183319,8.96700133 13.803,8.701 C14.0876681,8.43499867 14.23,7.9753366 14.23,7.322 C14.23,6.74333044 14.0970013,6.32800126 13.831,6.076 C13.5649987,5.82399874 13.0680036,5.698 12.34,5.698 Z M20.264,14.196 C19.5639965,14.196 18.9246696,14.1260007 18.346,13.986 C17.7673304,13.8459993 17.3240015,13.678001 17.016,13.482 L17.226,11.438 C17.5246682,11.7273348 17.9423306,11.9723323 18.479,12.173 C19.0156693,12.3736677 19.6246633,12.474 20.306,12.474 C21.4726725,12.474 22.056,12.1193369 22.056,11.41 C22.056,11.213999 22.0093338,11.0366675 21.916,10.878 C21.8226662,10.7193325 21.7223339,10.5886672 21.615,10.486 C21.5076661,10.3833328 21.3280013,10.2736672 21.076,10.157 C20.8239987,10.0403328 20.6280007,9.95633359 20.488,9.905 C20.3479993,9.85366641 20.1100017,9.77200056 19.774,9.66 C19.4846652,9.5666662 19.2840006,9.4966669 19.172,9.45 L18.612,9.212 C18.3506654,9.10933282 18.1593339,9.01833373 18.038,8.939 C17.9166661,8.85966627 17.7673342,8.74766739 17.59,8.603 C17.4126658,8.45833261 17.2820004,8.31133408 17.198,8.162 C17.1139996,8.01266592 17.0393337,7.83300105 16.974,7.623 C16.9086663,7.41299895 16.876,7.18666788 16.876,6.944 C16.876,6.17866284 17.1653304,5.49733632 17.744,4.9 C18.3226696,4.30266368 19.213994,4.004 20.418,4.004 C21.0433365,4.004 21.6476637,4.08333254 22.231,4.242 C22.8143363,4.40066746 23.2506652,4.5733324 23.54,4.76 L23.358,6.594 C22.2846613,6.00599706 21.3280042,5.712 20.488,5.712 C20.0119976,5.712 19.5943351,5.79133254 19.235,5.95 C18.8756649,6.10866746 18.696,6.3746648 18.696,6.748 C18.696,7.10266844 18.8593317,7.37566571 19.186,7.567 C19.5126683,7.75833429 20.00733,7.95666564 20.67,8.162 C21.0153351,8.26466718 21.2789991,8.34866634 21.461,8.414 C21.6430009,8.47933366 21.8926651,8.57733268 22.21,8.708 C22.5273349,8.83866732 22.7746658,8.97633261 22.952,9.121 C23.1293342,9.26566739 23.3136657,9.44299895 23.505,9.653 C23.6963343,9.86300105 23.8363329,10.1103319 23.925,10.395 C24.0136671,10.6796681 24.058,10.9946649 24.058,11.34 C24.058,11.6013346 24.0346669,11.8463322 23.988,12.075 C23.9413331,12.3036678 23.8363341,12.553332 23.673,12.824 C23.5096658,13.094668 23.2950013,13.3256657 23.029,13.517 C22.7629987,13.7083343 22.3943357,13.8693327 21.923,14 C21.4516643,14.1306673 20.8986698,14.196 20.264,14.196 Z M29.084,10.78 L27.334,10.78 L27.334,14 L25.542,14 L25.542,4.2 L28.314,4.2 C29.051337,4.2 29.6556643,4.23733296 30.127,4.312 C30.5983357,4.38666704 31.0276647,4.53133226 31.415,4.746 C31.8023353,4.96066774 32.0823325,5.27566459 32.255,5.691 C32.4276675,6.10633541 32.514,6.64533002 32.514,7.308 C32.514,7.97066998 32.4043344,8.54233093 32.185,9.023 C31.9656656,9.50366907 31.6740018,9.86533212 31.31,10.108 C30.9459982,10.3506679 30.5820018,10.5233328 30.218,10.626 C29.8539982,10.7286672 29.476002,10.78 29.084,10.78 Z M28.804,5.698 L27.334,5.698 L27.334,9.1 L28.846,9.1 C29.50867,9.1 29.9823319,8.96700133 30.267,8.701 C30.5516681,8.43499867 30.694,7.9753366 30.694,7.322 C30.694,6.74333044 30.5610013,6.32800126 30.295,6.076 C30.0289987,5.82399874 29.5320036,5.698 28.804,5.698 Z" id="PSP-Copy" fill="#FFFFFF"></path>
        <g id="system" stroke="#867740" stroke-linecap="round">
            <path d="M0.5,17.5 L4.5,0.5" id="Shape"></path>
        </g>
    </g>
</svg>