<?xml version="1.0" encoding="utf-8"?>
<svg viewBox="0 0 32.52 18" xmlns="http://www.w3.org/2000/svg" xmlns:bx="https://boxy-svg.com">
  <path d="M 12.625 10.349 L 10.875 10.349 L 10.875 13.569 L 9.085 13.569 L 9.085 3.769 L 11.855 3.769 C 12.562 3.769 13.182 3.809 13.715 3.889 C 14.242 3.969 14.675 4.122 15.015 4.349 C 15.362 4.576 15.622 4.892 15.795 5.299 C 15.968 5.706 16.055 6.232 16.055 6.879 C 16.055 7.559 15.948 8.122 15.735 8.569 C 15.522 9.009 15.245 9.362 14.905 9.629 C 14.572 9.896 14.202 10.082 13.795 10.189 C 13.388 10.296 12.998 10.349 12.625 10.349 M 12.345 5.269 L 10.875 5.269 L 10.875 8.669 L 12.385 8.669 C 13.052 8.669 13.525 8.536 13.805 8.269 C 14.092 8.002 14.235 7.542 14.235 6.889 C 14.235 6.602 14.205 6.356 14.145 6.149 C 14.085 5.942 13.982 5.776 13.835 5.649 C 13.688 5.516 13.495 5.419 13.255 5.359 C 13.015 5.299 12.712 5.269 12.345 5.269 ZM 20.268 13.769 C 19.568 13.769 18.928 13.699 18.348 13.559 C 17.768 13.419 17.325 13.249 17.018 13.049 L 17.228 11.009 C 17.528 11.296 17.948 11.539 18.488 11.739 C 19.022 11.939 19.628 12.039 20.308 12.039 C 21.475 12.039 22.058 11.686 22.058 10.979 C 22.058 10.772 22.012 10.589 21.918 10.429 C 21.818 10.262 21.692 10.119 21.538 9.999 C 21.385 9.879 21.215 9.776 21.028 9.689 C 20.848 9.609 20.668 9.539 20.488 9.479 L 19.178 9.019 L 18.618 8.779 C 18.032 8.539 17.602 8.249 17.328 7.909 C 17.055 7.576 16.905 7.109 16.878 6.509 C 16.878 6.136 16.948 5.776 17.088 5.429 C 17.228 5.076 17.445 4.762 17.738 4.489 C 18.025 4.216 18.392 3.996 18.838 3.829 C 19.285 3.656 19.812 3.569 20.418 3.569 C 20.732 3.569 21.042 3.592 21.348 3.639 C 21.662 3.686 21.958 3.746 22.238 3.819 C 22.518 3.886 22.772 3.966 22.998 4.059 C 23.225 4.152 23.408 4.242 23.548 4.329 L 23.358 6.159 C 22.278 5.572 21.322 5.279 20.488 5.279 C 20.248 5.279 20.022 5.299 19.808 5.339 C 19.595 5.372 19.405 5.432 19.238 5.519 C 19.078 5.606 18.948 5.712 18.848 5.839 C 18.748 5.972 18.698 6.132 18.698 6.319 C 18.698 6.559 18.758 6.746 18.878 6.879 C 18.992 7.019 19.162 7.139 19.388 7.239 C 19.622 7.346 19.912 7.452 20.258 7.559 C 20.598 7.666 20.998 7.806 21.458 7.979 L 22.218 8.279 C 22.412 8.352 22.615 8.459 22.828 8.599 C 23.042 8.739 23.242 8.912 23.428 9.119 C 23.608 9.326 23.758 9.566 23.878 9.839 C 23.998 10.112 24.058 10.422 24.058 10.769 C 24.058 11.069 24.022 11.392 23.948 11.739 C 23.875 12.079 23.708 12.402 23.448 12.709 C 23.188 13.009 22.805 13.262 22.298 13.469 C 21.792 13.669 21.115 13.769 20.268 13.769 ZM 29.087 10.349 L 27.337 10.349 L 27.337 13.569 L 25.547 13.569 L 25.547 3.769 L 28.317 3.769 C 29.024 3.769 29.644 3.809 30.177 3.889 C 30.704 3.969 31.137 4.122 31.477 4.349 C 31.824 4.576 32.084 4.892 32.257 5.299 C 32.431 5.706 32.517 6.232 32.517 6.879 C 32.517 7.559 32.411 8.122 32.197 8.569 C 31.984 9.009 31.707 9.362 31.367 9.629 C 31.034 9.896 30.664 10.082 30.257 10.189 C 29.851 10.296 29.461 10.349 29.087 10.349 M 28.807 5.269 L 27.337 5.269 L 27.337 8.669 L 28.847 8.669 C 29.514 8.669 29.987 8.536 30.267 8.269 C 30.554 8.002 30.697 7.542 30.697 6.889 C 30.697 6.602 30.667 6.356 30.607 6.149 C 30.547 5.942 30.444 5.776 30.297 5.649 C 30.151 5.516 29.957 5.419 29.717 5.359 C 29.477 5.299 29.174 5.269 28.807 5.269 Z" transform="matrix(1, 0, 0, 1, 0, 0)" style="fill: rgb(255, 255, 255); white-space: pre;"/>
  <path d="M 0 18 L 3.869 0" style="fill: none; stroke-linecap: round; stroke: rgb(134, 119, 64);" bx:origin="0 0.5"/>
</svg>