<?xml version="1.0" encoding="utf-8"?>
<svg viewBox="0 0 124 18" xmlns="http://www.w3.org/2000/svg" xmlns:bx="https://boxy-svg.com">
  <path d="M 11.925 13.769 C 11.225 13.769 10.585 13.699 10.005 13.559 C 9.425 13.419 8.982 13.249 8.675 13.049 L 8.885 11.009 C 9.185 11.296 9.605 11.539 10.145 11.739 C 10.678 11.939 11.285 12.039 11.965 12.039 C 13.132 12.039 13.715 11.686 13.715 10.979 C 13.715 10.772 13.668 10.589 13.575 10.429 C 13.475 10.262 13.348 10.119 13.195 9.999 C 13.042 9.879 12.872 9.776 12.685 9.689 C 12.505 9.609 12.325 9.539 12.145 9.479 L 10.835 9.019 L 10.275 8.779 C 9.688 8.539 9.258 8.249 8.985 7.909 C 8.712 7.576 8.562 7.109 8.535 6.509 C 8.535 6.136 8.605 5.776 8.745 5.429 C 8.885 5.076 9.102 4.762 9.395 4.489 C 9.682 4.216 10.048 3.996 10.495 3.829 C 10.942 3.656 11.468 3.569 12.075 3.569 C 12.388 3.569 12.698 3.592 13.005 3.639 C 13.318 3.686 13.615 3.746 13.895 3.819 C 14.175 3.886 14.428 3.966 14.655 4.059 C 14.882 4.152 15.065 4.242 15.205 4.329 L 15.015 6.159 C 13.935 5.572 12.978 5.279 12.145 5.279 C 11.905 5.279 11.678 5.299 11.465 5.339 C 11.252 5.372 11.062 5.432 10.895 5.519 C 10.735 5.606 10.605 5.712 10.505 5.839 C 10.405 5.972 10.355 6.132 10.355 6.319 C 10.355 6.559 10.415 6.746 10.535 6.879 C 10.648 7.019 10.818 7.139 11.045 7.239 C 11.278 7.346 11.568 7.452 11.915 7.559 C 12.255 7.666 12.655 7.806 13.115 7.979 L 13.875 8.279 C 14.068 8.352 14.272 8.459 14.485 8.599 C 14.698 8.739 14.898 8.912 15.085 9.119 C 15.265 9.326 15.415 9.566 15.535 9.839 C 15.655 10.112 15.715 10.422 15.715 10.769 C 15.715 11.069 15.678 11.392 15.605 11.739 C 15.532 12.079 15.365 12.402 15.105 12.709 C 14.845 13.009 14.462 13.262 13.955 13.469 C 13.448 13.669 12.772 13.769 11.925 13.769 ZM 17.095 9.369 L 17.095 3.769 L 18.885 3.769 L 18.885 8.769 C 18.885 9.289 18.921 9.752 18.995 10.159 C 19.068 10.566 19.191 10.909 19.365 11.189 C 19.538 11.469 19.768 11.682 20.055 11.829 C 20.348 11.969 20.715 12.039 21.155 12.039 C 21.581 12.039 21.941 11.969 22.235 11.829 C 22.528 11.682 22.761 11.469 22.935 11.189 C 23.108 10.909 23.231 10.566 23.305 10.159 C 23.378 9.752 23.415 9.289 23.415 8.769 L 23.415 3.769 L 25.215 3.769 L 25.215 9.369 C 25.215 10.742 24.871 11.819 24.185 12.599 C 23.505 13.379 22.495 13.769 21.155 13.769 C 19.808 13.769 18.795 13.379 18.115 12.599 C 17.435 11.819 17.095 10.742 17.095 9.369 ZM 30.796 10.349 L 29.046 10.349 L 29.046 13.569 L 27.256 13.569 L 27.256 3.769 L 30.026 3.769 C 30.733 3.769 31.353 3.809 31.886 3.889 C 32.413 3.969 32.846 4.122 33.186 4.349 C 33.533 4.576 33.793 4.892 33.966 5.299 C 34.14 5.706 34.226 6.232 34.226 6.879 C 34.226 7.559 34.12 8.122 33.906 8.569 C 33.693 9.009 33.416 9.362 33.076 9.629 C 32.743 9.896 32.373 10.082 31.966 10.189 C 31.56 10.296 31.17 10.349 30.796 10.349 M 30.516 5.269 L 29.046 5.269 L 29.046 8.669 L 30.556 8.669 C 31.223 8.669 31.696 8.536 31.976 8.269 C 32.263 8.002 32.406 7.542 32.406 6.889 C 32.406 6.602 32.376 6.356 32.316 6.149 C 32.256 5.942 32.153 5.776 32.006 5.649 C 31.86 5.516 31.666 5.419 31.426 5.359 C 31.186 5.299 30.883 5.269 30.516 5.269 ZM 42.01 13.569 L 35.6 13.569 L 35.6 3.769 L 41.87 3.769 L 41.87 5.509 L 37.43 5.509 L 37.43 7.589 L 40.88 7.589 L 40.88 9.329 L 37.43 9.329 L 37.43 11.829 L 42.01 11.829 L 42.01 13.569 ZM 51.052 13.569 L 49.192 13.569 L 47.162 9.929 L 45.342 9.929 L 45.342 13.569 L 43.552 13.569 L 43.552 3.769 L 47.132 3.769 C 49.385 3.769 50.512 4.712 50.512 6.599 C 50.512 7.299 50.365 7.869 50.072 8.309 C 49.785 8.742 49.375 9.122 48.842 9.449 L 51.052 13.569 M 46.732 5.269 L 45.342 5.269 L 45.342 8.249 L 46.662 8.249 C 47.415 8.249 47.932 8.119 48.212 7.859 C 48.492 7.606 48.632 7.226 48.632 6.719 C 48.632 6.226 48.495 5.859 48.222 5.619 C 47.955 5.386 47.459 5.269 46.732 5.269 ZM 63.205 13.569 L 61.735 13.569 L 57.255 6.849 L 57.255 13.569 L 55.465 13.569 L 55.465 3.769 L 57.225 3.769 L 61.415 10.099 L 61.415 3.769 L 63.205 3.769 L 63.205 13.569 ZM 67.153 13.569 L 65.363 13.569 L 65.363 3.769 L 67.153 3.769 L 67.153 13.569 ZM 77.051 13.569 L 75.581 13.569 L 71.101 6.849 L 71.101 13.569 L 69.311 13.569 L 69.311 3.769 L 71.071 3.769 L 75.261 10.099 L 75.261 3.769 L 77.051 3.769 L 77.051 13.569 ZM 85.679 5.509 L 82.899 5.509 L 82.899 13.569 L 81.109 13.569 L 81.109 5.509 L 78.339 5.509 L 78.339 3.769 L 85.679 3.769 L 85.679 5.509 ZM 93.374 13.569 L 86.964 13.569 L 86.964 3.769 L 93.234 3.769 L 93.234 5.509 L 88.794 5.509 L 88.794 7.589 L 92.244 7.589 L 92.244 9.329 L 88.794 9.329 L 88.794 11.829 L 93.374 11.829 L 93.374 13.569 ZM 102.656 13.569 L 101.186 13.569 L 96.706 6.849 L 96.706 13.569 L 94.916 13.569 L 94.916 3.769 L 96.676 3.769 L 100.866 10.099 L 100.866 3.769 L 102.656 3.769 L 102.656 13.569 ZM 108.484 13.569 L 104.814 13.569 L 104.814 3.769 L 108.484 3.769 C 109.191 3.769 109.841 3.882 110.434 4.109 C 111.027 4.342 111.534 4.669 111.954 5.089 C 112.381 5.516 112.714 6.029 112.954 6.629 C 113.194 7.236 113.314 7.916 113.314 8.669 C 113.314 9.422 113.194 10.102 112.954 10.709 C 112.714 11.316 112.381 11.829 111.954 12.249 C 111.534 12.669 111.027 12.996 110.434 13.229 C 109.841 13.456 109.191 13.569 108.484 13.569 M 108.484 5.489 L 106.604 5.489 L 106.604 11.849 L 108.484 11.849 C 109.417 11.849 110.127 11.569 110.614 11.009 C 111.107 10.456 111.354 9.676 111.354 8.669 C 111.354 7.662 111.107 6.879 110.614 6.319 C 110.127 5.766 109.417 5.489 108.484 5.489 ZM 122.604 12.369 C 121.71 13.302 120.554 13.769 119.134 13.769 C 118.434 13.769 117.787 13.646 117.194 13.399 C 116.6 13.159 116.09 12.816 115.664 12.369 C 115.23 11.916 114.897 11.379 114.664 10.759 C 114.424 10.132 114.304 9.436 114.304 8.669 C 114.304 7.902 114.424 7.206 114.664 6.579 C 114.91 5.959 115.244 5.422 115.664 4.969 C 116.09 4.522 116.6 4.179 117.194 3.939 C 117.787 3.692 118.434 3.569 119.134 3.569 C 119.834 3.569 120.48 3.692 121.074 3.939 C 121.667 4.192 122.177 4.542 122.604 4.989 C 123.037 5.436 123.37 5.972 123.604 6.599 C 123.844 7.226 123.964 7.916 123.964 8.669 C 123.964 10.202 123.51 11.436 122.604 12.369 M 121.264 6.219 C 120.77 5.606 120.06 5.299 119.134 5.299 C 118.667 5.299 118.257 5.379 117.904 5.539 C 117.55 5.706 117.25 5.936 117.004 6.229 C 116.764 6.522 116.58 6.876 116.454 7.289 C 116.327 7.702 116.264 8.162 116.264 8.669 C 116.264 9.176 116.327 9.636 116.454 10.049 C 116.58 10.462 116.764 10.816 117.004 11.109 C 117.25 11.402 117.55 11.632 117.904 11.799 C 118.257 11.959 118.667 12.039 119.134 12.039 C 119.6 12.039 120.01 11.959 120.364 11.799 C 120.717 11.632 121.017 11.402 121.264 11.109 C 121.504 10.816 121.687 10.462 121.814 10.049 C 121.94 9.636 122.004 9.176 122.004 8.669 C 122.004 7.662 121.757 6.846 121.264 6.219 Z" transform="matrix(1, 0, 0, 1, 0, 0)" style="fill: rgb(255, 255, 255); white-space: pre;"/>
  <path d="M 0 18 L 3.869 0" style="fill: none; stroke-linecap: round; stroke: rgb(134, 119, 64);" bx:origin="0 0.5"/>
</svg>