<?xml version="1.0" encoding="UTF-8" standalone="no"?>
<svg width="125px" height="18px" viewBox="0 0 125 18" version="1.1" xmlns="http://www.w3.org/2000/svg" xmlns:xlink="http://www.w3.org/1999/xlink">
    <!-- Generator: Sketch 45 (43475) - http://www.bohemiancoding.com/sketch -->
    <title>system</title>
    <desc>Created with Sketch.</desc>
    <defs></defs>
    <g id="Page-1" stroke="none" stroke-width="1" fill="none" fill-rule="evenodd">
        <path d="M11.92,14.196 C11.2199965,14.196 10.5806696,14.1260007 10.002,13.986 C9.42333044,13.8459993 8.98000154,13.678001 8.672,13.482 L8.882,11.438 C9.18066816,11.7273348 9.59833065,11.9723323 10.135,12.173 C10.6716694,12.3736677 11.2806633,12.474 11.962,12.474 C13.1286725,12.474 13.712,12.1193369 13.712,11.41 C13.712,11.213999 13.6653338,11.0366675 13.572,10.878 C13.4786662,10.7193325 13.3783339,10.5886672 13.271,10.486 C13.1636661,10.3833328 12.9840013,10.2736672 12.732,10.157 C12.4799987,10.0403328 12.2840007,9.95633359 12.144,9.905 C12.0039993,9.85366641 11.7660017,9.77200056 11.43,9.66 C11.1406652,9.5666662 10.9400006,9.4966669 10.828,9.45 L10.268,9.212 C10.0066654,9.10933282 9.81533394,9.01833373 9.694,8.939 C9.57266606,8.85966627 9.42333422,8.74766739 9.246,8.603 C9.06866578,8.45833261 8.93800042,8.31133408 8.854,8.162 C8.76999958,8.01266592 8.69533366,7.83300105 8.63,7.623 C8.56466634,7.41299895 8.532,7.18666788 8.532,6.944 C8.532,6.17866284 8.82133044,5.49733632 9.4,4.9 C9.97866956,4.30266368 10.869994,4.004 12.074,4.004 C12.6993365,4.004 13.3036638,4.08333254 13.887,4.242 C14.4703362,4.40066746 14.9066652,4.5733324 15.196,4.76 L15.014,6.594 C13.9406613,6.00599706 12.9840042,5.712 12.144,5.712 C11.6679976,5.712 11.2503351,5.79133254 10.891,5.95 C10.5316649,6.10866746 10.352,6.3746648 10.352,6.748 C10.352,7.10266844 10.5153317,7.37566571 10.842,7.567 C11.1686683,7.75833429 11.66333,7.95666564 12.326,8.162 C12.6713351,8.26466718 12.9349991,8.34866634 13.117,8.414 C13.2990009,8.47933366 13.5486651,8.57733268 13.866,8.708 C14.1833349,8.83866732 14.4306658,8.97633261 14.608,9.121 C14.7853342,9.26566739 14.9696657,9.44299895 15.161,9.653 C15.3523343,9.86300105 15.4923329,10.1103319 15.581,10.395 C15.6696671,10.6796681 15.714,10.9946649 15.714,11.34 C15.714,11.6013346 15.6906669,11.8463322 15.644,12.075 C15.5973331,12.3036678 15.4923341,12.553332 15.329,12.824 C15.1656658,13.094668 14.9510013,13.3256657 14.685,13.517 C14.4189987,13.7083343 14.0503357,13.8693327 13.579,14 C13.1076643,14.1306673 12.5546698,14.196 11.92,14.196 Z M21.146,14.196 C19.8019933,14.196 18.7893367,13.8063372 18.108,13.027 C17.4266633,12.2476628 17.086,11.1720069 17.086,9.8 L17.086,4.2 L18.878,4.2 L18.878,9.198 C18.878,10.2340052 19.0389984,11.0389971 19.361,11.613 C19.6830016,12.1870029 20.2779957,12.474 21.146,12.474 C22.0140043,12.474 22.6089984,12.1870029 22.931,11.613 C23.2530016,11.0389971 23.414,10.2340052 23.414,9.198 L23.414,4.2 L25.206,4.2 L25.206,9.8 C25.206,11.1720069 24.8653367,12.2476628 24.184,13.027 C23.5026633,13.8063372 22.4900067,14.196 21.146,14.196 Z M30.792,10.78 L29.042,10.78 L29.042,14 L27.25,14 L27.25,4.2 L30.022,4.2 C30.759337,4.2 31.3636643,4.23733296 31.835,4.312 C32.3063357,4.38666704 32.7356647,4.53133226 33.123,4.746 C33.5103353,4.96066774 33.7903325,5.27566459 33.963,5.691 C34.1356675,6.10633541 34.222,6.64533002 34.222,7.308 C34.222,7.97066998 34.1123344,8.54233093 33.893,9.023 C33.6736656,9.50366907 33.3820018,9.86533212 33.018,10.108 C32.6539982,10.3506679 32.2900018,10.5233328 31.926,10.626 C31.5619982,10.7286672 31.184002,10.78 30.792,10.78 Z M30.512,5.698 L29.042,5.698 L29.042,9.1 L30.554,9.1 C31.21667,9.1 31.6903319,8.96700133 31.975,8.701 C32.2596681,8.43499867 32.402,7.9753366 32.402,7.322 C32.402,6.74333044 32.2690013,6.32800126 32.003,6.076 C31.7369987,5.82399874 31.2400036,5.698 30.512,5.698 Z M42.006,14 L35.594,14 L35.594,4.2 L41.866,4.2 L41.866,5.936 L37.428,5.936 L37.428,8.022 L40.872,8.022 L40.872,9.758 L37.428,9.758 L37.428,12.264 L42.006,12.264 L42.006,14 Z M51.05,14 L49.188,14 L47.158,10.36 L45.338,10.36 L45.338,14 L43.546,14 L43.546,4.2 L47.13,4.2 C49.3793446,4.2 50.504,5.14265724 50.504,7.028 C50.504,7.7280035 50.3593348,8.29733114 50.07,8.736 C49.7806652,9.17466886 49.3700027,9.5573317 48.838,9.884 L51.05,14 Z M46.724,5.698 L45.338,5.698 L45.338,8.68 L46.654,8.68 C47.4100038,8.68 47.9279986,8.54933464 48.208,8.288 C48.4880014,8.02666536 48.628,7.64866914 48.628,7.154 C48.628,6.65933086 48.492668,6.29300119 48.222,6.055 C47.951332,5.81699881 47.4520036,5.698 46.724,5.698 Z M63.202,14 L61.732,14 L57.252,7.28 L57.252,14 L55.46,14 L55.46,4.2 L57.224,4.2 L61.41,10.528 L61.41,4.2 L63.202,4.2 L63.202,14 Z M67.15,14 L65.358,14 L65.358,4.2 L67.15,4.2 L67.15,14 Z M77.048,14 L75.578,14 L71.098,7.28 L71.098,14 L69.306,14 L69.306,4.2 L71.07,4.2 L75.256,10.528 L75.256,4.2 L77.048,4.2 L77.048,14 Z M85.672,5.936 L82.9,5.936 L82.9,14 L81.108,14 L81.108,5.936 L78.336,5.936 L78.336,4.2 L85.672,4.2 L85.672,5.936 Z M93.372,14 L86.96,14 L86.96,4.2 L93.232,4.2 L93.232,5.936 L88.794,5.936 L88.794,8.022 L92.238,8.022 L92.238,9.758 L88.794,9.758 L88.794,12.264 L93.372,12.264 L93.372,14 Z M102.654,14 L101.184,14 L96.704,7.28 L96.704,14 L94.912,14 L94.912,4.2 L96.676,4.2 L100.862,10.528 L100.862,4.2 L102.654,4.2 L102.654,14 Z M108.478,14 L104.81,14 L104.81,4.2 L108.478,4.2 C109.906007,4.2 111.067996,4.63866228 111.964,5.516 C112.860004,6.39333772 113.308,7.58799244 113.308,9.1 C113.308,10.6120076 112.860004,11.8066623 111.964,12.684 C111.067996,13.5613377 109.906007,14 108.478,14 Z M108.478,5.922 L106.602,5.922 L106.602,12.278 L108.478,12.278 C109.411338,12.278 110.122998,11.9980028 110.613,11.438 C111.103002,10.8779972 111.348,10.0986717 111.348,9.1 C111.348,8.10132834 111.103002,7.3220028 110.613,6.762 C110.122998,6.2019972 109.411338,5.922 108.478,5.922 Z M119.132,14.196 C117.713326,14.196 116.553671,13.7270047 115.653,12.789 C114.752329,11.8509953 114.302,10.6213409 114.302,9.1 C114.302,7.57865906 114.752329,6.34900469 115.653,5.411 C116.553671,4.47299531 117.713326,4.004 119.132,4.004 C120.550674,4.004 121.710329,4.47299531 122.611,5.411 C123.511671,6.34900469 123.962,7.57865906 123.962,9.1 C123.962,10.6213409 123.511671,11.8509953 122.611,12.789 C121.710329,13.7270047 120.550674,14.196 119.132,14.196 Z M119.132,5.726 C118.207995,5.726 117.498669,6.03399692 117.004,6.65 C116.509331,7.26600308 116.262,8.08266158 116.262,9.1 C116.262,10.1173384 116.509331,10.9339969 117.004,11.55 C117.498669,12.1660031 118.207995,12.474 119.132,12.474 C120.056005,12.474 120.765331,12.1660031 121.26,11.55 C121.754669,10.9339969 122.002,10.1173384 122.002,9.1 C122.002,8.08266158 121.754669,7.26600308 121.26,6.65 C120.765331,6.03399692 120.056005,5.726 119.132,5.726 Z" id="SUPER-NINTENDO-Copy" fill="#FFFFFF"></path>
        <g id="system" stroke="#867740" stroke-linecap="round">
            <path d="M0.5,17.5 L4.5,0.5" id="Shape"></path>
        </g>
    </g>
</svg>