<?xml version="1.0" encoding="utf-8"?>
<svg viewBox="0 0 51.12 18" xmlns="http://www.w3.org/2000/svg" xmlns:bx="https://boxy-svg.com">
  <path d="M 12.625 10.349 L 10.875 10.349 L 10.875 13.569 L 9.085 13.569 L 9.085 3.769 L 11.855 3.769 C 12.562 3.769 13.182 3.809 13.715 3.889 C 14.242 3.969 14.675 4.122 15.015 4.349 C 15.362 4.576 15.622 4.892 15.795 5.299 C 15.968 5.706 16.055 6.232 16.055 6.879 C 16.055 7.559 15.948 8.122 15.735 8.569 C 15.522 9.009 15.245 9.362 14.905 9.629 C 14.572 9.896 14.202 10.082 13.795 10.189 C 13.388 10.296 12.998 10.349 12.625 10.349 M 12.345 5.269 L 10.875 5.269 L 10.875 8.669 L 12.385 8.669 C 13.052 8.669 13.525 8.536 13.805 8.269 C 14.092 8.002 14.235 7.542 14.235 6.889 C 14.235 6.602 14.205 6.356 14.145 6.149 C 14.085 5.942 13.982 5.776 13.835 5.649 C 13.688 5.516 13.495 5.419 13.255 5.359 C 13.015 5.299 12.712 5.269 12.345 5.269 ZM 25.138 12.369 C 24.245 13.302 23.088 13.769 21.668 13.769 C 20.968 13.769 20.322 13.646 19.728 13.399 C 19.135 13.159 18.625 12.816 18.198 12.369 C 17.765 11.916 17.432 11.379 17.198 10.759 C 16.958 10.132 16.838 9.436 16.838 8.669 C 16.838 7.902 16.958 7.206 17.198 6.579 C 17.445 5.959 17.778 5.422 18.198 4.969 C 18.625 4.522 19.135 4.179 19.728 3.939 C 20.322 3.692 20.968 3.569 21.668 3.569 C 22.368 3.569 23.015 3.692 23.608 3.939 C 24.202 4.192 24.712 4.542 25.138 4.989 C 25.572 5.436 25.905 5.972 26.138 6.599 C 26.378 7.226 26.498 7.916 26.498 8.669 C 26.498 10.202 26.045 11.436 25.138 12.369 M 23.798 6.219 C 23.305 5.606 22.595 5.299 21.668 5.299 C 21.202 5.299 20.792 5.379 20.438 5.539 C 20.085 5.706 19.785 5.936 19.538 6.229 C 19.298 6.522 19.115 6.876 18.988 7.289 C 18.862 7.702 18.798 8.162 18.798 8.669 C 18.798 9.176 18.862 9.636 18.988 10.049 C 19.115 10.462 19.298 10.816 19.538 11.109 C 19.785 11.402 20.085 11.632 20.438 11.799 C 20.792 11.959 21.202 12.039 21.668 12.039 C 22.135 12.039 22.545 11.959 22.898 11.799 C 23.252 11.632 23.552 11.402 23.798 11.109 C 24.038 10.816 24.222 10.462 24.348 10.049 C 24.475 9.636 24.538 9.176 24.538 8.669 C 24.538 7.662 24.292 6.846 23.798 6.219 ZM 35.567 13.569 L 33.707 13.569 L 31.677 9.929 L 29.857 9.929 L 29.857 13.569 L 28.067 13.569 L 28.067 3.769 L 31.647 3.769 C 33.901 3.769 35.027 4.712 35.027 6.599 C 35.027 7.299 34.881 7.869 34.587 8.309 C 34.301 8.742 33.891 9.122 33.357 9.449 L 35.567 13.569 M 31.247 5.269 L 29.857 5.269 L 29.857 8.249 L 31.177 8.249 C 31.931 8.249 32.447 8.119 32.727 7.859 C 33.007 7.606 33.147 7.226 33.147 6.719 C 33.147 6.226 33.011 5.859 32.737 5.619 C 32.471 5.386 31.974 5.269 31.247 5.269 ZM 43.202 5.509 L 40.422 5.509 L 40.422 13.569 L 38.632 13.569 L 38.632 5.509 L 35.862 5.509 L 35.862 3.769 L 43.202 3.769 L 43.202 5.509 ZM 47.328 13.769 C 46.628 13.769 45.988 13.699 45.408 13.559 C 44.828 13.419 44.384 13.249 44.078 13.049 L 44.288 11.009 C 44.588 11.296 45.008 11.539 45.548 11.739 C 46.081 11.939 46.688 12.039 47.368 12.039 C 48.534 12.039 49.118 11.686 49.118 10.979 C 49.118 10.772 49.071 10.589 48.978 10.429 C 48.878 10.262 48.751 10.119 48.598 9.999 C 48.444 9.879 48.274 9.776 48.088 9.689 C 47.908 9.609 47.728 9.539 47.548 9.479 L 46.238 9.019 L 45.678 8.779 C 45.091 8.539 44.661 8.249 44.388 7.909 C 44.114 7.576 43.964 7.109 43.938 6.509 C 43.938 6.136 44.008 5.776 44.148 5.429 C 44.288 5.076 44.504 4.762 44.798 4.489 C 45.084 4.216 45.451 3.996 45.898 3.829 C 46.344 3.656 46.871 3.569 47.478 3.569 C 47.791 3.569 48.101 3.592 48.408 3.639 C 48.721 3.686 49.018 3.746 49.298 3.819 C 49.578 3.886 49.831 3.966 50.058 4.059 C 50.284 4.152 50.468 4.242 50.608 4.329 L 50.418 6.159 C 49.338 5.572 48.381 5.279 47.548 5.279 C 47.308 5.279 47.081 5.299 46.868 5.339 C 46.654 5.372 46.464 5.432 46.298 5.519 C 46.138 5.606 46.008 5.712 45.908 5.839 C 45.808 5.972 45.758 6.132 45.758 6.319 C 45.758 6.559 45.818 6.746 45.938 6.879 C 46.051 7.019 46.221 7.139 46.448 7.239 C 46.681 7.346 46.971 7.452 47.318 7.559 C 47.658 7.666 48.058 7.806 48.518 7.979 L 49.278 8.279 C 49.471 8.352 49.674 8.459 49.888 8.599 C 50.101 8.739 50.301 8.912 50.488 9.119 C 50.668 9.326 50.818 9.566 50.938 9.839 C 51.058 10.112 51.118 10.422 51.118 10.769 C 51.118 11.069 51.081 11.392 51.008 11.739 C 50.934 12.079 50.768 12.402 50.508 12.709 C 50.248 13.009 49.864 13.262 49.358 13.469 C 48.851 13.669 48.174 13.769 47.328 13.769 Z" transform="matrix(1, 0, 0, 1, 0, 0)" style="fill: rgb(255, 255, 255); white-space: pre;"/>
  <path d="M 0 18 L 3.869 0" style="fill: none; stroke-linecap: round; stroke: rgb(134, 119, 64);" bx:origin="0 0.5"/>
</svg>