<?xml version="1.0" encoding="UTF-8" standalone="no"?>
<svg width="52px" height="18px" viewBox="0 0 52 18" version="1.1" xmlns="http://www.w3.org/2000/svg" xmlns:xlink="http://www.w3.org/1999/xlink">
    <!-- Generator: Sketch 45 (43475) - http://www.bohemiancoding.com/sketch -->
    <title>system</title>
    <desc>Created with Sketch.</desc>
    <defs></defs>
    <g id="Page-1" stroke="none" stroke-width="1" fill="none" fill-rule="evenodd">
        <path d="M12.62,10.78 L10.87,10.78 L10.87,14 L9.078,14 L9.078,4.2 L11.85,4.2 C12.587337,4.2 13.1916643,4.23733296 13.663,4.312 C14.1343357,4.38666704 14.5636647,4.53133226 14.951,4.746 C15.3383353,4.96066774 15.6183325,5.27566459 15.791,5.691 C15.9636675,6.10633541 16.05,6.64533002 16.05,7.308 C16.05,7.97066998 15.9403344,8.54233093 15.721,9.023 C15.5016656,9.50366907 15.2100018,9.86533212 14.846,10.108 C14.4819982,10.3506679 14.1180018,10.5233328 13.754,10.626 C13.3899982,10.7286672 13.012002,10.78 12.62,10.78 Z M12.34,5.698 L10.87,5.698 L10.87,9.1 L12.382,9.1 C13.04467,9.1 13.5183319,8.96700133 13.803,8.701 C14.0876681,8.43499867 14.23,7.9753366 14.23,7.322 C14.23,6.74333044 14.0970013,6.32800126 13.831,6.076 C13.5649987,5.82399874 13.0680036,5.698 12.34,5.698 Z M21.664,14.196 C20.2453262,14.196 19.0856712,13.7270047 18.185,12.789 C17.2843288,11.8509953 16.834,10.6213409 16.834,9.1 C16.834,7.57865906 17.2843288,6.34900469 18.185,5.411 C19.0856712,4.47299531 20.2453262,4.004 21.664,4.004 C23.0826738,4.004 24.2423288,4.47299531 25.143,5.411 C26.0436712,6.34900469 26.494,7.57865906 26.494,9.1 C26.494,10.6213409 26.0436712,11.8509953 25.143,12.789 C24.2423288,13.7270047 23.0826738,14.196 21.664,14.196 Z M21.664,5.726 C20.7399954,5.726 20.0306691,6.03399692 19.536,6.65 C19.0413309,7.26600308 18.794,8.08266158 18.794,9.1 C18.794,10.1173384 19.0413309,10.9339969 19.536,11.55 C20.0306691,12.1660031 20.7399954,12.474 21.664,12.474 C22.5880046,12.474 23.2973309,12.1660031 23.792,11.55 C24.2866691,10.9339969 24.534,10.1173384 24.534,9.1 C24.534,8.08266158 24.2866691,7.26600308 23.792,6.65 C23.2973309,6.03399692 22.5880046,5.726 21.664,5.726 Z M35.566,14 L33.704,14 L31.674,10.36 L29.854,10.36 L29.854,14 L28.062,14 L28.062,4.2 L31.646,4.2 C33.8953446,4.2 35.02,5.14265724 35.02,7.028 C35.02,7.7280035 34.8753348,8.29733114 34.586,8.736 C34.2966652,9.17466886 33.8860027,9.5573317 33.354,9.884 L35.566,14 Z M31.24,5.698 L29.854,5.698 L29.854,8.68 L31.17,8.68 C31.9260038,8.68 32.4439986,8.54933464 32.724,8.288 C33.0040014,8.02666536 33.144,7.64866914 33.144,7.154 C33.144,6.65933086 33.008668,6.29300119 32.738,6.055 C32.467332,5.81699881 31.9680036,5.698 31.24,5.698 Z M43.196,5.936 L40.424,5.936 L40.424,14 L38.632,14 L38.632,5.936 L35.86,5.936 L35.86,4.2 L43.196,4.2 L43.196,5.936 Z M47.326,14.196 C46.6259965,14.196 45.9866696,14.1260007 45.408,13.986 C44.8293304,13.8459993 44.3860015,13.678001 44.078,13.482 L44.288,11.438 C44.5866682,11.7273348 45.0043306,11.9723323 45.541,12.173 C46.0776693,12.3736677 46.6866633,12.474 47.368,12.474 C48.5346725,12.474 49.118,12.1193369 49.118,11.41 C49.118,11.213999 49.0713338,11.0366675 48.978,10.878 C48.8846662,10.7193325 48.7843339,10.5886672 48.677,10.486 C48.5696661,10.3833328 48.3900013,10.2736672 48.138,10.157 C47.8859987,10.0403328 47.6900007,9.95633359 47.55,9.905 C47.4099993,9.85366641 47.1720017,9.77200056 46.836,9.66 C46.5466652,9.5666662 46.3460006,9.4966669 46.234,9.45 L45.674,9.212 C45.4126654,9.10933282 45.2213339,9.01833373 45.1,8.939 C44.9786661,8.85966627 44.8293342,8.74766739 44.652,8.603 C44.4746658,8.45833261 44.3440004,8.31133408 44.26,8.162 C44.1759996,8.01266592 44.1013337,7.83300105 44.036,7.623 C43.9706663,7.41299895 43.938,7.18666788 43.938,6.944 C43.938,6.17866284 44.2273304,5.49733632 44.806,4.9 C45.3846696,4.30266368 46.275994,4.004 47.48,4.004 C48.1053365,4.004 48.7096638,4.08333254 49.293,4.242 C49.8763363,4.40066746 50.3126652,4.5733324 50.602,4.76 L50.42,6.594 C49.3466613,6.00599706 48.3900042,5.712 47.55,5.712 C47.0739976,5.712 46.6563351,5.79133254 46.297,5.95 C45.9376649,6.10866746 45.758,6.3746648 45.758,6.748 C45.758,7.10266844 45.9213317,7.37566571 46.248,7.567 C46.5746683,7.75833429 47.06933,7.95666564 47.732,8.162 C48.0773351,8.26466718 48.3409991,8.34866634 48.523,8.414 C48.7050009,8.47933366 48.9546651,8.57733268 49.272,8.708 C49.5893349,8.83866732 49.8366658,8.97633261 50.014,9.121 C50.1913342,9.26566739 50.3756657,9.44299895 50.567,9.653 C50.7583343,9.86300105 50.8983329,10.1103319 50.987,10.395 C51.0756671,10.6796681 51.12,10.9946649 51.12,11.34 C51.12,11.6013346 51.0966669,11.8463322 51.05,12.075 C51.0033331,12.3036678 50.8983341,12.553332 50.735,12.824 C50.5716659,13.094668 50.3570013,13.3256657 50.091,13.517 C49.8249987,13.7083343 49.4563357,13.8693327 48.985,14 C48.5136643,14.1306673 47.9606698,14.196 47.326,14.196 Z" id="PORTS-Copy" fill="#FFFFFF"></path>
        <g id="system" stroke="#867740" stroke-linecap="round">
            <path d="M0.5,17.5 L4.5,0.5" id="Shape"></path>
        </g>
    </g>
</svg>