<?xml version="1.0" encoding="UTF-8" standalone="no"?>
<svg width="113px" height="18px" viewBox="0 0 113 18" version="1.1" xmlns="http://www.w3.org/2000/svg" xmlns:xlink="http://www.w3.org/1999/xlink">
    <!-- Generator: Sketch 45 (43475) - http://www.bohemiancoding.com/sketch -->
    <title>system</title>
    <desc>Created with Sketch.</desc>
    <defs></defs>
    <g id="Page-1" stroke="none" stroke-width="1" fill="none" fill-rule="evenodd">
        <g id="system">
            <path d="M0.5,17.5 L4.5,0.5" id="Shape" stroke="#867740" stroke-linecap="round"></path>
            <path d="M13.32,14.196 C11.9013262,14.196 10.7416712,13.7270047 9.841,12.789 C8.94032883,11.8509953 8.49,10.6213409 8.49,9.1 C8.49,7.57865906 8.94032883,6.34900469 9.841,5.411 C10.7416712,4.47299531 11.9013262,4.004 13.32,4.004 C14.3933387,4.004 15.3219961,4.19533142 16.106,4.578 L15.91,6.286 C14.9673286,5.9126648 14.1040039,5.726 13.32,5.726 C12.3959954,5.726 11.6866691,6.03399692 11.192,6.65 C10.6973309,7.26600308 10.45,8.08266158 10.45,9.1 C10.45,10.1173384 10.6973309,10.9339969 11.192,11.55 C11.6866691,12.1660031 12.3959954,12.474 13.32,12.474 C14.1040039,12.474 14.9673286,12.2873352 15.91,11.914 L16.106,13.622 C15.3219961,14.0046686 14.3933387,14.196 13.32,14.196 Z M21.72,14.196 C20.3013262,14.196 19.1416712,13.7270047 18.241,12.789 C17.3403288,11.8509953 16.89,10.6213409 16.89,9.1 C16.89,7.57865906 17.3403288,6.34900469 18.241,5.411 C19.1416712,4.47299531 20.3013262,4.004 21.72,4.004 C23.1386738,4.004 24.2983288,4.47299531 25.199,5.411 C26.0996712,6.34900469 26.55,7.57865906 26.55,9.1 C26.55,10.6213409 26.0996712,11.8509953 25.199,12.789 C24.2983288,13.7270047 23.1386738,14.196 21.72,14.196 Z M21.72,5.726 C20.7959954,5.726 20.0866691,6.03399692 19.592,6.65 C19.0973309,7.26600308 18.85,8.08266158 18.85,9.1 C18.85,10.1173384 19.0973309,10.9339969 19.592,11.55 C20.0866691,12.1660031 20.7959954,12.474 21.72,12.474 C22.6440046,12.474 23.3533309,12.1660031 23.848,11.55 C24.3426691,10.9339969 24.59,10.1173384 24.59,9.1 C24.59,8.08266158 24.3426691,7.26600308 23.848,6.65 C23.3533309,6.03399692 22.6440046,5.726 21.72,5.726 Z M33.942,14 L28.118,14 L28.118,4.2 L29.91,4.2 L29.91,12.264 L33.942,12.264 L33.942,14 Z M40.942,14 L35.118,14 L35.118,4.2 L36.91,4.2 L36.91,12.264 L40.942,12.264 L40.942,14 Z M48.53,14 L42.118,14 L42.118,4.2 L48.39,4.2 L48.39,5.936 L43.952,5.936 L43.952,8.022 L47.396,8.022 L47.396,9.758 L43.952,9.758 L43.952,12.264 L48.53,12.264 L48.53,14 Z M54.186,14.196 C52.7673262,14.196 51.6076712,13.7270047 50.707,12.789 C49.8063288,11.8509953 49.356,10.6213409 49.356,9.1 C49.356,7.57865906 49.8063288,6.34900469 50.707,5.411 C51.6076712,4.47299531 52.7673262,4.004 54.186,4.004 C55.2593387,4.004 56.1879961,4.19533142 56.972,4.578 L56.776,6.286 C55.8333286,5.9126648 54.9700039,5.726 54.186,5.726 C53.2619954,5.726 52.5526691,6.03399692 52.058,6.65 C51.5633309,7.26600308 51.316,8.08266158 51.316,9.1 C51.316,10.1173384 51.5633309,10.9339969 52.058,11.55 C52.5526691,12.1660031 53.2619954,12.474 54.186,12.474 C54.9700039,12.474 55.8333286,12.2873352 56.776,11.914 L56.972,13.622 C56.1879961,14.0046686 55.2593387,14.196 54.186,14.196 Z M64.938,5.936 L62.166,5.936 L62.166,14 L60.374,14 L60.374,5.936 L57.602,5.936 L57.602,4.2 L64.938,4.2 L64.938,5.936 Z M68.018,14 L66.226,14 L66.226,4.2 L68.018,4.2 L68.018,14 Z M74.416,14.196 C72.9973262,14.196 71.8376712,13.7270047 70.937,12.789 C70.0363288,11.8509953 69.586,10.6213409 69.586,9.1 C69.586,7.57865906 70.0363288,6.34900469 70.937,5.411 C71.8376712,4.47299531 72.9973262,4.004 74.416,4.004 C75.8346738,4.004 76.9943288,4.47299531 77.895,5.411 C78.7956712,6.34900469 79.246,7.57865906 79.246,9.1 C79.246,10.6213409 78.7956712,11.8509953 77.895,12.789 C76.9943288,13.7270047 75.8346738,14.196 74.416,14.196 Z M74.416,5.726 C73.4919954,5.726 72.7826691,6.03399692 72.288,6.65 C71.7933309,7.26600308 71.546,8.08266158 71.546,9.1 C71.546,10.1173384 71.7933309,10.9339969 72.288,11.55 C72.7826691,12.1660031 73.4919954,12.474 74.416,12.474 C75.3400046,12.474 76.0493309,12.1660031 76.544,11.55 C77.0386691,10.9339969 77.286,10.1173384 77.286,9.1 C77.286,8.08266158 77.0386691,7.26600308 76.544,6.65 C76.0493309,6.03399692 75.3400046,5.726 74.416,5.726 Z M88.556,14 L87.086,14 L82.606,7.28 L82.606,14 L80.814,14 L80.814,4.2 L82.578,4.2 L86.764,10.528 L86.764,4.2 L88.556,4.2 L88.556,14 Z M93.554,14.196 C92.8539965,14.196 92.2146696,14.1260007 91.636,13.986 C91.0573304,13.8459993 90.6140015,13.678001 90.306,13.482 L90.516,11.438 C90.8146682,11.7273348 91.2323306,11.9723323 91.769,12.173 C92.3056693,12.3736677 92.9146633,12.474 93.596,12.474 C94.7626725,12.474 95.346,12.1193369 95.346,11.41 C95.346,11.213999 95.2993338,11.0366675 95.206,10.878 C95.1126662,10.7193325 95.0123339,10.5886672 94.905,10.486 C94.7976661,10.3833328 94.6180013,10.2736672 94.366,10.157 C94.1139987,10.0403328 93.9180007,9.95633359 93.778,9.905 C93.6379993,9.85366641 93.4000017,9.77200056 93.064,9.66 C92.7746652,9.5666662 92.5740006,9.4966669 92.462,9.45 L91.902,9.212 C91.6406654,9.10933282 91.4493339,9.01833373 91.328,8.939 C91.2066661,8.85966627 91.0573342,8.74766739 90.88,8.603 C90.7026658,8.45833261 90.5720004,8.31133408 90.488,8.162 C90.4039996,8.01266592 90.3293337,7.83300105 90.264,7.623 C90.1986663,7.41299895 90.166,7.18666788 90.166,6.944 C90.166,6.17866284 90.4553304,5.49733632 91.034,4.9 C91.6126696,4.30266368 92.503994,4.004 93.708,4.004 C94.3333365,4.004 94.9376637,4.08333254 95.521,4.242 C96.1043362,4.40066746 96.5406652,4.5733324 96.83,4.76 L96.648,6.594 C95.5746613,6.00599706 94.6180042,5.712 93.778,5.712 C93.3019976,5.712 92.8843351,5.79133254 92.525,5.95 C92.1656649,6.10866746 91.986,6.3746648 91.986,6.748 C91.986,7.10266844 92.1493317,7.37566571 92.476,7.567 C92.8026683,7.75833429 93.29733,7.95666564 93.96,8.162 C94.3053351,8.26466718 94.5689991,8.34866634 94.751,8.414 C94.9330009,8.47933366 95.1826651,8.57733268 95.5,8.708 C95.8173349,8.83866732 96.0646658,8.97633261 96.242,9.121 C96.4193342,9.26566739 96.6036657,9.44299895 96.795,9.653 C96.9863343,9.86300105 97.1263329,10.1103319 97.215,10.395 C97.3036671,10.6796681 97.348,10.9946649 97.348,11.34 C97.348,11.6013346 97.3246669,11.8463322 97.278,12.075 C97.2313331,12.3036678 97.1263341,12.553332 96.963,12.824 C96.7996658,13.094668 96.5850013,13.3256657 96.319,13.517 C96.0529987,13.7083343 95.6843357,13.8693327 95.213,14 C94.7416643,14.1306673 94.1886698,14.196 93.554,14.196 Z" id="COLLECTIONS-Copy" fill="#FFFFFF"></path>
            <path d="M102.124029,3 C101.501327,3 101,3.50132778 101,4.12402948 L101,13.8986307 C101,14.5213326 101.501327,15.0226594 102.124029,15.0226594 L111.89863,15.0226594 C112.521332,15.0226594 113.022615,14.5213326 113.022615,13.8986307 L113.022615,4.12402948 C113.022615,3.50132778 112.521332,3 111.89863,3 L102.124029,3 Z M102.40264,4.40259398 L111.620066,4.40259398 L111.620066,13.6200197 L102.40264,13.6200197 L102.40264,4.40259398 Z" id="rect7847" fill="#BBA358" fill-rule="nonzero"></path>
            <polygon id="path7858" fill="#BBA358" points="104.183417 8.0900604 106.096202 10.0736926 109.890964 5.82767881 111.038301 6.84884035 106.308741 12.2226278 103.120759 9.12910593"></polygon>
        </g>
    </g>
</svg>