<?xml version="1.0" encoding="utf-8"?>
<svg viewBox="0 0 29.81 18" xmlns="http://www.w3.org/2000/svg" xmlns:bx="https://boxy-svg.com">
  <path d="M 11.145 13.769 C 10.878 13.769 10.605 13.742 10.325 13.689 C 10.038 13.636 9.772 13.572 9.525 13.499 C 9.278 13.426 9.062 13.342 8.875 13.249 C 8.688 13.162 8.565 13.082 8.505 13.009 L 8.945 11.359 C 9.152 11.552 9.455 11.716 9.855 11.849 C 10.262 11.976 10.668 12.039 11.075 12.039 C 12.335 12.039 12.965 11.566 12.965 10.619 C 12.965 10.366 12.935 10.132 12.875 9.919 C 12.808 9.712 12.705 9.536 12.565 9.389 C 12.425 9.242 12.242 9.132 12.015 9.059 C 11.788 8.979 11.505 8.939 11.165 8.939 L 9.905 8.939 L 10.065 7.549 L 10.705 7.549 C 11.945 7.549 12.565 7.119 12.565 6.259 C 12.565 5.479 12.085 5.089 11.125 5.089 C 10.325 5.089 9.752 5.246 9.405 5.559 L 9.125 4.219 C 9.292 4.052 9.575 3.902 9.975 3.769 C 10.382 3.636 10.835 3.569 11.335 3.569 C 11.935 3.569 12.432 3.652 12.825 3.819 C 13.212 3.979 13.522 4.186 13.755 4.439 C 13.988 4.692 14.152 4.972 14.245 5.279 C 14.332 5.586 14.375 5.886 14.375 6.179 C 14.375 7.026 14.062 7.679 13.435 8.139 C 14.295 8.659 14.725 9.456 14.725 10.529 C 14.725 11.042 14.628 11.499 14.435 11.899 C 14.248 12.306 13.992 12.646 13.665 12.919 C 13.338 13.192 12.955 13.402 12.515 13.549 C 12.082 13.696 11.625 13.769 11.145 13.769 ZM 22.161 13.569 L 16.171 13.569 C 16.784 12.682 17.307 11.906 17.741 11.239 C 18.174 10.572 18.537 9.996 18.831 9.509 C 19.124 9.022 19.357 8.612 19.531 8.279 C 19.697 7.939 19.824 7.656 19.911 7.429 C 19.997 7.202 20.054 7.012 20.081 6.859 C 20.101 6.712 20.111 6.582 20.111 6.469 C 20.111 6.022 19.994 5.679 19.761 5.439 C 19.521 5.192 19.187 5.069 18.761 5.069 C 17.921 5.069 17.167 5.569 16.501 6.569 L 16.281 4.959 C 16.374 4.792 16.507 4.626 16.681 4.459 C 16.854 4.299 17.061 4.152 17.301 4.019 C 17.541 3.892 17.817 3.786 18.131 3.699 C 18.437 3.612 18.767 3.569 19.121 3.569 C 19.587 3.569 19.991 3.642 20.331 3.789 C 20.671 3.936 20.951 4.129 21.171 4.369 C 21.391 4.616 21.551 4.896 21.651 5.209 C 21.757 5.529 21.811 5.862 21.811 6.209 C 21.811 6.536 21.764 6.879 21.671 7.239 C 21.577 7.606 21.427 8.012 21.221 8.459 C 21.014 8.906 20.747 9.406 20.421 9.959 C 20.094 10.506 19.704 11.129 19.251 11.829 L 22.161 11.829 L 22.161 13.569 ZM 29.686 13.569 L 27.616 13.569 L 26.346 11.599 L 25.166 13.569 L 23.096 13.569 L 25.346 10.069 L 23.096 6.569 L 25.166 6.569 L 26.446 8.539 L 27.616 6.569 L 29.686 6.569 L 27.426 10.069 L 29.686 13.569 Z" transform="matrix(1, 0, 0, 1, 0, 0)" style="fill: rgb(255, 255, 255); white-space: pre;"/>
  <path d="M 0 18 L 3.869 0" style="fill: none; stroke-linecap: round; stroke: rgb(134, 119, 64);" bx:origin="0 0.5"/>
</svg>