<?xml version="1.0" encoding="UTF-8" standalone="no"?>
<svg width="30px" height="18px" viewBox="0 0 30 18" version="1.1" xmlns="http://www.w3.org/2000/svg" xmlns:xlink="http://www.w3.org/1999/xlink">
    <!-- Generator: Sketch 45 (43475) - http://www.bohemiancoding.com/sketch -->
    <title>system</title>
    <desc>Created with Sketch.</desc>
    <defs></defs>
    <g id="Page-1" stroke="none" stroke-width="1" fill="none" fill-rule="evenodd">
        <path d="M11.136,14.196 C10.5759972,14.196 10.0276694,14.1073342 9.491,13.93 C8.95433065,13.7526658 8.62533394,13.5893341 8.504,13.44 L8.938,11.788 C9.14333436,11.984001 9.44899797,12.1473327 9.855,12.278 C10.261002,12.4086673 10.6646647,12.474 11.066,12.474 C12.3260063,12.474 12.956,11.9980048 12.956,11.046 C12.956,10.5326641 12.827668,10.1243349 12.571,9.821 C12.3143321,9.51766515 11.8453367,9.366 11.164,9.366 L9.904,9.366 L10.058,7.98 L10.702,7.98 C11.9433395,7.98 12.564,7.55067096 12.564,6.692 C12.564,5.90799608 12.0833381,5.516 11.122,5.516 C10.3286627,5.516 9.75466844,5.67466508 9.4,5.992 L9.12,4.648 C9.28800084,4.47999916 9.57499797,4.33066732 9.981,4.2 C10.387002,4.06933268 10.8373309,4.004 11.332,4.004 C11.9293363,4.004 12.4403312,4.08799916 12.865,4.256 C13.2896688,4.42400084 13.6046656,4.64566529 13.81,4.921 C14.0153344,5.19633471 14.1599996,5.47166529 14.244,5.747 C14.3280004,6.02233471 14.37,6.30933184 14.37,6.608 C14.37,7.45733758 14.0573365,8.11066438 13.432,8.568 C14.290671,9.0813359 14.72,9.87932792 14.72,10.962 C14.72,11.9886718 14.3676702,12.7843305 13.663,13.349 C12.9583298,13.9136695 12.1160049,14.196 11.136,14.196 Z M22.154,14 L16.162,14 C17.3006724,12.3573251 18.1756636,11.0203385 18.787,9.989 C19.3983364,8.95766151 19.771666,8.25766851 19.907,7.889 C20.042334,7.52033149 20.11,7.19133478 20.11,6.902 C20.11,6.46333114 19.9910012,6.12033457 19.753,5.873 C19.5149988,5.62566543 19.1813355,5.502 18.752,5.502 C17.9026624,5.502 17.1513366,6.00132834 16.498,7 L16.274,5.39 C16.4513342,5.0633317 16.7896642,4.75066816 17.289,4.452 C17.7883358,4.15333184 18.3973297,4.004 19.116,4.004 C20.049338,4.004 20.7306645,4.26766403 21.16,4.795 C21.5893355,5.32233597 21.804,5.9359965 21.804,6.636 C21.804,7.27066984 21.6056686,8.02199566 21.209,8.89 C20.8123314,9.75800434 20.1566712,10.8826598 19.242,12.264 L22.154,12.264 L22.154,14 Z M29.686,14 L27.614,14 L26.34,12.026 L25.164,14 L23.092,14 L25.346,10.5 L23.092,7 L25.164,7 L26.438,8.974 L27.614,7 L29.686,7 L27.418,10.5 L29.686,14 Z" id="32x-copy" fill="#FFFFFF"></path>
        <g id="system" stroke="#867740" stroke-linecap="round">
            <path d="M0.5,17.5 L4.5,0.5" id="Shape"></path>
        </g>
    </g>
</svg>