<?xml version="1.0" encoding="UTF-8" standalone="no"?>
<svg width="81px" height="18px" viewBox="0 0 81 18" version="1.1" xmlns="http://www.w3.org/2000/svg" xmlns:xlink="http://www.w3.org/1999/xlink">
    <!-- Generator: Sketch 45 (43475) - http://www.bohemiancoding.com/sketch -->
    <title>system</title>
    <desc>Created with Sketch.</desc>
    <defs></defs>
    <g id="Page-1" stroke="none" stroke-width="1" fill="none" fill-rule="evenodd">
        <path d="M13.278,14.196 C11.8873264,14.196 10.7416712,13.7270047 9.841,12.789 C8.94032883,11.8509953 8.49,10.6166743 8.49,9.086 C8.49,7.56465906 8.94266214,6.337338 9.848,5.404 C10.7533379,4.470662 11.9293261,4.004 13.376,4.004 C13.8706691,4.004 14.3979972,4.05766613 14.958,4.165 C15.5180028,4.27233387 15.9706649,4.40999916 16.316,4.578 L16.12,6.286 C15.2053288,5.9126648 14.3046711,5.726 13.418,5.726 C12.4379951,5.726 11.6983358,6.03166361 11.199,6.643 C10.6996642,7.25433639 10.45,8.05932834 10.45,9.058 C10.45,10.0940052 10.7113307,10.9223302 11.234,11.543 C11.7566693,12.1636698 12.5126617,12.474 13.502,12.474 C13.9033353,12.474 14.3513309,12.4226672 14.846,12.32 L14.846,10.57 L13.768,10.57 L13.768,9.086 L16.638,9.086 L16.638,13.454 C16.2833316,13.6593344 15.77467,13.8343326 15.112,13.979 C14.44933,14.1236674 13.8380028,14.196 13.278,14.196 Z M26.004,14 L24.142,14 L23.302,11.634 L20.04,11.634 L19.2,14 L17.338,14 L20.824,4.2 L22.518,4.2 L26.004,14 Z M22.686,9.898 L21.664,7.028 L20.656,9.898 L22.686,9.898 Z M37.092,14 L35.23,14 L34.39,7.434 L31.884,11.942 L29.364,7.448 L28.524,14 L26.662,14 L28.02,4.2 L29.49,4.2 L31.884,8.666 L34.264,4.2 L35.734,4.2 L37.092,14 Z M45.128,14 L38.716,14 L38.716,4.2 L44.988,4.2 L44.988,5.936 L40.55,5.936 L40.55,8.022 L43.994,8.022 L43.994,9.758 L40.55,9.758 L40.55,12.264 L45.128,12.264 L45.128,14 Z M50.742,14.196 C49.3513264,14.196 48.2056712,13.7270047 47.305,12.789 C46.4043288,11.8509953 45.954,10.6166743 45.954,9.086 C45.954,7.56465906 46.4066621,6.337338 47.312,5.404 C48.2173379,4.470662 49.3933261,4.004 50.84,4.004 C51.3346691,4.004 51.8619972,4.05766613 52.422,4.165 C52.9820028,4.27233387 53.4346649,4.40999916 53.78,4.578 L53.584,6.286 C52.6693288,5.9126648 51.7686711,5.726 50.882,5.726 C49.9019951,5.726 49.1623358,6.03166361 48.663,6.643 C48.1636642,7.25433639 47.914,8.05932834 47.914,9.058 C47.914,10.0940052 48.1753307,10.9223302 48.698,11.543 C49.2206693,12.1636698 49.9766617,12.474 50.966,12.474 C51.3673353,12.474 51.8153309,12.4226672 52.31,12.32 L52.31,10.57 L51.232,10.57 L51.232,9.086 L54.102,9.086 L54.102,13.454 C53.7473316,13.6593344 53.23867,13.8343326 52.576,13.979 C51.91333,14.1236674 51.3020028,14.196 50.742,14.196 Z M62.25,14 L55.838,14 L55.838,4.2 L62.11,4.2 L62.11,5.936 L57.672,5.936 L57.672,8.022 L61.116,8.022 L61.116,9.758 L57.672,9.758 L57.672,12.264 L62.25,12.264 L62.25,14 Z M71.42,14 L69.558,14 L68.718,11.634 L65.456,11.634 L64.616,14 L62.754,14 L66.24,4.2 L67.934,4.2 L71.42,14 Z M68.102,9.898 L67.08,7.028 L66.072,9.898 L68.102,9.898 Z M80.044,14 L78.182,14 L76.152,10.36 L74.332,10.36 L74.332,14 L72.54,14 L72.54,4.2 L76.124,4.2 C78.3733446,4.2 79.498,5.14265724 79.498,7.028 C79.498,7.7280035 79.3533348,8.29733114 79.064,8.736 C78.7746652,9.17466886 78.3640027,9.5573317 77.832,9.884 L80.044,14 Z M75.718,5.698 L74.332,5.698 L74.332,8.68 L75.648,8.68 C76.4040038,8.68 76.9219986,8.54933464 77.202,8.288 C77.4820014,8.02666536 77.622,7.64866914 77.622,7.154 C77.622,6.65933086 77.486668,6.29300119 77.216,6.055 C76.945332,5.81699881 76.4460036,5.698 75.718,5.698 Z" id="GAMEGEAR-Copy" fill="#FFFFFF"></path>
        <g id="system" stroke="#867740" stroke-linecap="round">
            <path d="M0.5,17.5 L4.5,0.5" id="Shape"></path>
        </g>
    </g>
</svg>