<?xml version="1.0" encoding="utf-8"?>
<svg viewBox="0 0 81 18" xmlns="http://www.w3.org/2000/svg" xmlns:bx="https://boxy-svg.com">
  <path d="M 13.285 13.769 C 12.592 13.769 11.952 13.646 11.365 13.399 C 10.778 13.159 10.272 12.816 9.845 12.369 C 9.418 11.916 9.088 11.376 8.855 10.749 C 8.615 10.116 8.495 9.419 8.495 8.659 C 8.495 7.899 8.615 7.206 8.855 6.579 C 9.088 5.959 9.422 5.426 9.855 4.979 C 10.282 4.539 10.798 4.192 11.405 3.939 C 12.005 3.692 12.665 3.569 13.385 3.569 C 13.618 3.569 13.872 3.586 14.145 3.619 C 14.418 3.646 14.688 3.682 14.955 3.729 C 15.222 3.782 15.475 3.846 15.715 3.919 C 15.948 3.986 16.152 4.062 16.325 4.149 L 16.125 5.859 C 15.232 5.486 14.332 5.299 13.425 5.299 C 12.932 5.299 12.498 5.376 12.125 5.529 C 11.758 5.689 11.452 5.916 11.205 6.209 C 10.958 6.502 10.772 6.852 10.645 7.259 C 10.518 7.666 10.455 8.122 10.455 8.629 C 10.455 9.149 10.522 9.619 10.655 10.039 C 10.782 10.459 10.975 10.816 11.235 11.109 C 11.502 11.402 11.822 11.632 12.195 11.799 C 12.575 11.959 13.012 12.039 13.505 12.039 C 13.892 12.039 14.342 11.989 14.855 11.889 L 14.855 10.139 L 13.775 10.139 L 13.775 8.659 L 16.645 8.659 L 16.645 13.019 C 16.478 13.126 16.258 13.222 15.985 13.309 C 15.712 13.396 15.422 13.476 15.115 13.549 C 14.802 13.616 14.482 13.669 14.155 13.709 C 13.835 13.749 13.545 13.769 13.285 13.769 ZM 26.01 13.569 L 24.15 13.569 L 23.31 11.199 L 20.04 11.199 L 19.2 13.569 L 17.34 13.569 L 20.83 3.769 L 22.52 3.769 L 26.01 13.569 M 22.69 9.469 L 21.67 6.599 L 20.66 9.469 L 22.69 9.469 ZM 37.099 13.569 L 35.229 13.569 L 34.389 6.999 L 31.889 11.509 L 29.369 7.019 L 28.529 13.569 L 26.669 13.569 L 28.019 3.769 L 29.489 3.769 L 31.889 8.239 L 34.269 3.769 L 35.739 3.769 L 37.099 13.569 ZM 45.13 13.569 L 38.72 13.569 L 38.72 3.769 L 44.99 3.769 L 44.99 5.509 L 40.55 5.509 L 40.55 7.589 L 44 7.589 L 44 9.329 L 40.55 9.329 L 40.55 11.829 L 45.13 11.829 L 45.13 13.569 ZM 50.745 13.769 C 50.052 13.769 49.412 13.646 48.825 13.399 C 48.239 13.159 47.732 12.816 47.305 12.369 C 46.879 11.916 46.549 11.376 46.315 10.749 C 46.075 10.116 45.955 9.419 45.955 8.659 C 45.955 7.899 46.075 7.206 46.315 6.579 C 46.549 5.959 46.882 5.426 47.315 4.979 C 47.742 4.539 48.259 4.192 48.865 3.939 C 49.465 3.692 50.125 3.569 50.845 3.569 C 51.079 3.569 51.332 3.586 51.605 3.619 C 51.879 3.646 52.149 3.682 52.415 3.729 C 52.682 3.782 52.935 3.846 53.175 3.919 C 53.409 3.986 53.612 4.062 53.785 4.149 L 53.585 5.859 C 52.692 5.486 51.792 5.299 50.885 5.299 C 50.392 5.299 49.959 5.376 49.585 5.529 C 49.219 5.689 48.912 5.916 48.665 6.209 C 48.419 6.502 48.232 6.852 48.105 7.259 C 47.979 7.666 47.915 8.122 47.915 8.629 C 47.915 9.149 47.982 9.619 48.115 10.039 C 48.242 10.459 48.435 10.816 48.695 11.109 C 48.962 11.402 49.282 11.632 49.655 11.799 C 50.035 11.959 50.472 12.039 50.965 12.039 C 51.352 12.039 51.802 11.989 52.315 11.889 L 52.315 10.139 L 51.235 10.139 L 51.235 8.659 L 54.105 8.659 L 54.105 13.019 C 53.939 13.126 53.719 13.222 53.445 13.309 C 53.172 13.396 52.882 13.476 52.575 13.549 C 52.262 13.616 51.942 13.669 51.615 13.709 C 51.295 13.749 51.005 13.769 50.745 13.769 ZM 62.251 13.569 L 55.841 13.569 L 55.841 3.769 L 62.111 3.769 L 62.111 5.509 L 57.671 5.509 L 57.671 7.589 L 61.121 7.589 L 61.121 9.329 L 57.671 9.329 L 57.671 11.829 L 62.251 11.829 L 62.251 13.569 ZM 71.422 13.569 L 69.562 13.569 L 68.722 11.199 L 65.452 11.199 L 64.612 13.569 L 62.752 13.569 L 66.242 3.769 L 67.932 3.769 L 71.422 13.569 M 68.102 9.469 L 67.082 6.599 L 66.072 9.469 L 68.102 9.469 ZM 80.041 13.569 L 78.181 13.569 L 76.151 9.929 L 74.331 9.929 L 74.331 13.569 L 72.541 13.569 L 72.541 3.769 L 76.121 3.769 C 78.374 3.769 79.501 4.712 79.501 6.599 C 79.501 7.299 79.354 7.869 79.061 8.309 C 78.774 8.742 78.364 9.122 77.831 9.449 L 80.041 13.569 M 75.721 5.269 L 74.331 5.269 L 74.331 8.249 L 75.651 8.249 C 76.404 8.249 76.921 8.119 77.201 7.859 C 77.481 7.606 77.621 7.226 77.621 6.719 C 77.621 6.226 77.484 5.859 77.211 5.619 C 76.944 5.386 76.448 5.269 75.721 5.269 Z" transform="matrix(1, 0, 0, 1, 0, 0)" style="fill: rgb(255, 255, 255); white-space: pre;"/>
  <path d="M 0 18 L 3.869 0" style="fill: none; stroke-linecap: round; stroke: rgb(134, 119, 64);" bx:origin="0 0.5"/>
</svg>