<?xml version="1.0" encoding="utf-8"?>
<svg viewBox="0 0 108 18" xmlns="http://www.w3.org/2000/svg" xmlns:bx="https://boxy-svg.com">
  <path d="M 13.285 13.769 C 12.592 13.769 11.952 13.646 11.365 13.399 C 10.778 13.159 10.272 12.816 9.845 12.369 C 9.418 11.916 9.088 11.376 8.855 10.749 C 8.615 10.116 8.495 9.419 8.495 8.659 C 8.495 7.899 8.615 7.206 8.855 6.579 C 9.088 5.959 9.422 5.426 9.855 4.979 C 10.282 4.539 10.798 4.192 11.405 3.939 C 12.005 3.692 12.665 3.569 13.385 3.569 C 13.618 3.569 13.872 3.586 14.145 3.619 C 14.418 3.646 14.688 3.682 14.955 3.729 C 15.222 3.782 15.475 3.846 15.715 3.919 C 15.948 3.986 16.152 4.062 16.325 4.149 L 16.125 5.859 C 15.232 5.486 14.332 5.299 13.425 5.299 C 12.932 5.299 12.498 5.376 12.125 5.529 C 11.758 5.689 11.452 5.916 11.205 6.209 C 10.958 6.502 10.772 6.852 10.645 7.259 C 10.518 7.666 10.455 8.122 10.455 8.629 C 10.455 9.149 10.522 9.619 10.655 10.039 C 10.782 10.459 10.975 10.816 11.235 11.109 C 11.502 11.402 11.822 11.632 12.195 11.799 C 12.575 11.959 13.012 12.039 13.505 12.039 C 13.892 12.039 14.342 11.989 14.855 11.889 L 14.855 10.139 L 13.775 10.139 L 13.775 8.659 L 16.645 8.659 L 16.645 13.019 C 16.478 13.126 16.258 13.222 15.985 13.309 C 15.712 13.396 15.422 13.476 15.115 13.549 C 14.802 13.616 14.482 13.669 14.155 13.709 C 13.835 13.749 13.545 13.769 13.285 13.769 ZM 26.01 13.569 L 24.15 13.569 L 23.31 11.199 L 20.04 11.199 L 19.2 13.569 L 17.34 13.569 L 20.83 3.769 L 22.52 3.769 L 26.01 13.569 M 22.69 9.469 L 21.67 6.599 L 20.66 9.469 L 22.69 9.469 ZM 37.099 13.569 L 35.229 13.569 L 34.389 6.999 L 31.889 11.509 L 29.369 7.019 L 28.529 13.569 L 26.669 13.569 L 28.019 3.769 L 29.489 3.769 L 31.889 8.239 L 34.269 3.769 L 35.739 3.769 L 37.099 13.569 ZM 45.13 13.569 L 38.72 13.569 L 38.72 3.769 L 44.99 3.769 L 44.99 5.509 L 40.55 5.509 L 40.55 7.589 L 44 7.589 L 44 9.329 L 40.55 9.329 L 40.55 11.829 L 45.13 11.829 L 45.13 13.569 ZM 57.481 13.569 L 55.461 13.569 L 55.031 13.089 C 54.344 13.636 53.484 13.909 52.451 13.909 C 51.911 13.909 51.438 13.839 51.031 13.699 C 50.624 13.559 50.284 13.366 50.011 13.119 C 49.731 12.879 49.524 12.596 49.391 12.269 C 49.258 11.942 49.191 11.592 49.191 11.219 C 49.191 10.632 49.341 10.119 49.641 9.679 C 49.948 9.239 50.368 8.822 50.901 8.429 C 50.201 7.556 49.851 6.759 49.851 6.039 C 49.851 5.686 49.928 5.366 50.081 5.079 C 50.234 4.792 50.441 4.549 50.701 4.349 C 50.961 4.149 51.261 3.996 51.601 3.889 C 51.941 3.782 52.304 3.729 52.691 3.729 C 53.391 3.729 53.938 3.909 54.331 4.269 C 54.718 4.629 54.911 5.116 54.911 5.729 C 54.911 6.009 54.864 6.262 54.771 6.489 C 54.678 6.722 54.548 6.939 54.381 7.139 C 54.214 7.346 54.008 7.549 53.761 7.749 C 53.514 7.949 53.238 8.159 52.931 8.379 L 54.891 10.619 C 54.924 10.432 54.954 10.176 54.981 9.849 C 55.001 9.522 55.018 9.119 55.031 8.639 L 56.691 8.639 C 56.691 9.946 56.464 11.029 56.011 11.889 L 57.481 13.569 M 52.601 5.109 C 52.294 5.109 52.044 5.196 51.851 5.369 C 51.651 5.542 51.551 5.789 51.551 6.109 C 51.551 6.509 51.768 6.979 52.201 7.519 C 52.994 6.959 53.391 6.429 53.391 5.929 C 53.391 5.382 53.128 5.109 52.601 5.109 M 54.141 12.099 L 51.721 9.369 C 51.234 9.882 50.991 10.446 50.991 11.059 C 50.991 11.492 51.121 11.852 51.381 12.139 C 51.634 12.432 52.071 12.579 52.691 12.579 C 53.304 12.579 53.788 12.419 54.141 12.099 ZM 74.068 3.769 L 71.198 13.569 L 69.618 13.569 L 67.428 7.029 L 65.258 13.569 L 63.568 13.569 L 60.808 3.769 L 62.668 3.769 L 64.628 10.729 L 66.818 3.769 L 68.058 3.769 L 70.328 10.549 L 72.208 3.769 L 74.068 3.769 ZM 82.355 13.569 L 80.495 13.569 L 79.655 11.199 L 76.385 11.199 L 75.545 13.569 L 73.685 13.569 L 77.175 3.769 L 78.865 3.769 L 82.355 13.569 M 79.035 9.469 L 78.015 6.599 L 77.005 9.469 L 79.035 9.469 ZM 89.202 5.509 L 86.422 5.509 L 86.422 13.569 L 84.632 13.569 L 84.632 5.509 L 81.862 5.509 L 81.862 3.769 L 89.202 3.769 L 89.202 5.509 ZM 94.545 13.769 C 93.845 13.769 93.199 13.646 92.605 13.399 C 92.012 13.159 91.502 12.816 91.075 12.369 C 90.642 11.916 90.309 11.379 90.075 10.759 C 89.835 10.132 89.715 9.436 89.715 8.669 C 89.715 7.902 89.835 7.206 90.075 6.579 C 90.322 5.959 90.655 5.422 91.075 4.969 C 91.502 4.522 92.012 4.179 92.605 3.939 C 93.199 3.692 93.845 3.569 94.545 3.569 C 95.612 3.569 96.542 3.762 97.335 4.149 L 97.135 5.859 C 96.209 5.486 95.345 5.299 94.545 5.299 C 94.079 5.299 93.669 5.379 93.315 5.539 C 92.962 5.706 92.662 5.936 92.415 6.229 C 92.175 6.522 91.992 6.876 91.865 7.289 C 91.739 7.702 91.675 8.162 91.675 8.669 C 91.675 9.176 91.739 9.636 91.865 10.049 C 91.992 10.462 92.175 10.816 92.415 11.109 C 92.662 11.402 92.962 11.632 93.315 11.799 C 93.669 11.959 94.079 12.039 94.545 12.039 C 95.345 12.039 96.209 11.852 97.135 11.479 L 97.335 13.189 C 96.542 13.576 95.612 13.769 94.545 13.769 ZM 107.03 13.569 L 105.24 13.569 L 105.24 9.329 L 100.62 9.329 L 100.62 13.569 L 98.83 13.569 L 98.83 3.769 L 100.62 3.769 L 100.62 7.589 L 105.24 7.589 L 105.24 3.769 L 107.03 3.769 L 107.03 13.569 Z" transform="matrix(1, 0, 0, 1, 0, 0)" style="white-space: pre; fill: rgb(255, 255, 255);"/>
  <path d="M 0 18 L 3.869 0" style="fill: none; stroke-linecap: round; stroke: rgb(134, 119, 64);" bx:origin="0 0.5"/>
</svg>