<?xml version="1.0" encoding="UTF-8" standalone="no"?>
<svg width="109px" height="18px" viewBox="0 0 109 18" version="1.1" xmlns="http://www.w3.org/2000/svg" xmlns:xlink="http://www.w3.org/1999/xlink">
    <!-- Generator: Sketch 45 (43475) - http://www.bohemiancoding.com/sketch -->
    <title>system</title>
    <desc>Created with Sketch.</desc>
    <defs></defs>
    <g id="Page-1" stroke="none" stroke-width="1" fill="none" fill-rule="evenodd">
        <path d="M13.278,14.196 C11.8873264,14.196 10.7416712,13.7270047 9.841,12.789 C8.94032883,11.8509953 8.49,10.6166743 8.49,9.086 C8.49,7.56465906 8.94266214,6.337338 9.848,5.404 C10.7533379,4.470662 11.9293261,4.004 13.376,4.004 C13.8706691,4.004 14.3979972,4.05766613 14.958,4.165 C15.5180028,4.27233387 15.9706649,4.40999916 16.316,4.578 L16.12,6.286 C15.2053288,5.9126648 14.3046711,5.726 13.418,5.726 C12.4379951,5.726 11.6983358,6.03166361 11.199,6.643 C10.6996642,7.25433639 10.45,8.05932834 10.45,9.058 C10.45,10.0940052 10.7113307,10.9223302 11.234,11.543 C11.7566693,12.1636698 12.5126617,12.474 13.502,12.474 C13.9033353,12.474 14.3513309,12.4226672 14.846,12.32 L14.846,10.57 L13.768,10.57 L13.768,9.086 L16.638,9.086 L16.638,13.454 C16.2833316,13.6593344 15.77467,13.8343326 15.112,13.979 C14.44933,14.1236674 13.8380028,14.196 13.278,14.196 Z M26.004,14 L24.142,14 L23.302,11.634 L20.04,11.634 L19.2,14 L17.338,14 L20.824,4.2 L22.518,4.2 L26.004,14 Z M22.686,9.898 L21.664,7.028 L20.656,9.898 L22.686,9.898 Z M37.092,14 L35.23,14 L34.39,7.434 L31.884,11.942 L29.364,7.448 L28.524,14 L26.662,14 L28.02,4.2 L29.49,4.2 L31.884,8.666 L34.264,4.2 L35.734,4.2 L37.092,14 Z M45.128,14 L38.716,14 L38.716,4.2 L44.988,4.2 L44.988,5.936 L40.55,5.936 L40.55,8.022 L43.994,8.022 L43.994,9.758 L40.55,9.758 L40.55,12.264 L45.128,12.264 L45.128,14 Z M57.476,14 L55.46,14 L55.026,13.524 C54.3446633,14.065336 53.4860052,14.336 52.45,14.336 C51.3766613,14.336 50.5646694,14.0770026 50.014,13.559 C49.4633306,13.0409974 49.188,12.4040038 49.188,11.648 C49.188,11.0599971 49.3396651,10.5466689 49.643,10.108 C49.9463348,9.66933114 50.3639973,9.25400196 50.896,8.862 C50.1959965,7.98466228 49.846,7.18667026 49.846,6.468 C49.846,5.7679965 50.1259972,5.2080021 50.686,4.788 C51.2460028,4.3679979 51.9133295,4.158 52.688,4.158 C53.3880035,4.158 53.933998,4.33999818 54.326,4.704 C54.718002,5.06800182 54.914,5.5533303 54.914,6.16 C54.914,6.44933478 54.8650005,6.71999874 54.767,6.972 C54.6689995,7.22400126 54.5033345,7.4666655 54.27,7.7 C54.0366655,7.9333345 53.8383341,8.11533268 53.675,8.246 C53.5116658,8.37666732 53.2620017,8.56333212 52.926,8.806 L54.886,11.046 C54.960667,10.6726648 55.0073332,10.0146714 55.026,9.072 L56.692,9.072 C56.692,10.3693398 56.4633356,11.4519957 56.006,12.32 L57.476,14 Z M52.604,5.544 C52.2959985,5.544 52.044001,5.63033247 51.848,5.803 C51.651999,5.97566753 51.554,6.22066508 51.554,6.538 C51.554,6.93933534 51.7686645,7.41066396 52.198,7.952 C52.9913373,7.3919972 53.388,6.86000252 53.388,6.356 C53.388,5.81466396 53.1266693,5.544 52.604,5.544 Z M54.144,12.53 L51.722,9.8 C51.2366642,10.3133359 50.994,10.8779969 50.994,11.494 C50.994,11.9233355 51.122332,12.2826652 51.379,12.572 C51.6356679,12.8613348 52.0719969,13.006 52.688,13.006 C53.2946697,13.006 53.7799982,12.8473349 54.144,12.53 Z M74.066,4.2 L71.196,14 L69.614,14 L67.43,7.462 L65.26,14 L63.566,14 L60.808,4.2 L62.67,4.2 L64.63,11.158 L66.814,4.2 L68.06,4.2 L70.328,10.976 L72.204,4.2 L74.066,4.2 Z M82.354,14 L80.492,14 L79.652,11.634 L76.39,11.634 L75.55,14 L73.688,14 L77.174,4.2 L78.868,4.2 L82.354,14 Z M79.036,9.898 L78.014,7.028 L77.006,9.898 L79.036,9.898 Z M89.2,5.936 L86.428,5.936 L86.428,14 L84.636,14 L84.636,5.936 L81.864,5.936 L81.864,4.2 L89.2,4.2 L89.2,5.936 Z M94.548,14.196 C93.1293262,14.196 91.9696712,13.7270047 91.069,12.789 C90.1683288,11.8509953 89.718,10.6213409 89.718,9.1 C89.718,7.57865906 90.1683288,6.34900469 91.069,5.411 C91.9696712,4.47299531 93.1293262,4.004 94.548,4.004 C95.6213387,4.004 96.5499961,4.19533142 97.334,4.578 L97.138,6.286 C96.1953286,5.9126648 95.3320039,5.726 94.548,5.726 C93.6239954,5.726 92.9146691,6.03399692 92.42,6.65 C91.9253309,7.26600308 91.678,8.08266158 91.678,9.1 C91.678,10.1173384 91.9253309,10.9339969 92.42,11.55 C92.9146691,12.1660031 93.6239954,12.474 94.548,12.474 C95.3320039,12.474 96.1953286,12.2873352 97.138,11.914 L97.334,13.622 C96.5499961,14.0046686 95.6213387,14.196 94.548,14.196 Z M107.036,14 L105.244,14 L105.244,9.758 L100.624,9.758 L100.624,14 L98.832,14 L98.832,4.2 L100.624,4.2 L100.624,8.022 L105.244,8.022 L105.244,4.2 L107.036,4.2 L107.036,14 Z" id="GAME-&amp;-WATCH-Copy" fill="#FFFFFF"></path>
        <g id="system" stroke="#867740" stroke-linecap="round">
            <path d="M0.5,17.5 L4.5,0.5" id="Shape"></path>
        </g>
    </g>
</svg>