<?xml version="1.0" encoding="UTF-8" standalone="no"?>
<svg width="117px" height="18px" viewBox="0 0 117 18" version="1.1" xmlns="http://www.w3.org/2000/svg" xmlns:xlink="http://www.w3.org/1999/xlink">
    <!-- Generator: Sketch 45 (43475) - http://www.bohemiancoding.com/sketch -->
    <title>system</title>
    <desc>Created with Sketch.</desc>
    <defs></defs>
    <g id="Page-1" stroke="none" stroke-width="1" fill="none" fill-rule="evenodd">
        <path d="M19.046,14 L17.184,14 L16.344,7.434 L13.838,11.942 L11.318,7.448 L10.478,14 L8.616,14 L9.974,4.2 L11.444,4.2 L13.838,8.666 L16.218,4.2 L17.688,4.2 L19.046,14 Z M28.37,14 L26.508,14 L25.668,11.634 L22.406,11.634 L21.566,14 L19.704,14 L23.19,4.2 L24.884,4.2 L28.37,14 Z M25.052,9.898 L24.03,7.028 L23.022,9.898 L25.052,9.898 Z M32.332,14.196 C31.6319965,14.196 30.9926696,14.1260007 30.414,13.986 C29.8353304,13.8459993 29.3920015,13.678001 29.084,13.482 L29.294,11.438 C29.5926682,11.7273348 30.0103306,11.9723323 30.547,12.173 C31.0836693,12.3736677 31.6926633,12.474 32.374,12.474 C33.5406725,12.474 34.124,12.1193369 34.124,11.41 C34.124,11.213999 34.0773338,11.0366675 33.984,10.878 C33.8906662,10.7193325 33.7903339,10.5886672 33.683,10.486 C33.5756661,10.3833328 33.3960013,10.2736672 33.144,10.157 C32.8919987,10.0403328 32.6960007,9.95633359 32.556,9.905 C32.4159993,9.85366641 32.1780017,9.77200056 31.842,9.66 C31.5526652,9.5666662 31.3520006,9.4966669 31.24,9.45 L30.68,9.212 C30.4186654,9.10933282 30.2273339,9.01833373 30.106,8.939 C29.9846661,8.85966627 29.8353342,8.74766739 29.658,8.603 C29.4806658,8.45833261 29.3500004,8.31133408 29.266,8.162 C29.1819996,8.01266592 29.1073337,7.83300105 29.042,7.623 C28.9766663,7.41299895 28.944,7.18666788 28.944,6.944 C28.944,6.17866284 29.2333304,5.49733632 29.812,4.9 C30.3906696,4.30266368 31.281994,4.004 32.486,4.004 C33.1113365,4.004 33.7156638,4.08333254 34.299,4.242 C34.8823362,4.40066746 35.3186652,4.5733324 35.608,4.76 L35.426,6.594 C34.3526613,6.00599706 33.3960042,5.712 32.556,5.712 C32.0799976,5.712 31.6623351,5.79133254 31.303,5.95 C30.9436649,6.10866746 30.764,6.3746648 30.764,6.748 C30.764,7.10266844 30.9273317,7.37566571 31.254,7.567 C31.5806683,7.75833429 32.07533,7.95666564 32.738,8.162 C33.0833351,8.26466718 33.3469991,8.34866634 33.529,8.414 C33.7110009,8.47933366 33.9606651,8.57733268 34.278,8.708 C34.5953349,8.83866732 34.8426658,8.97633261 35.02,9.121 C35.1973342,9.26566739 35.3816657,9.44299895 35.573,9.653 C35.7643343,9.86300105 35.9043329,10.1103319 35.993,10.395 C36.0816671,10.6796681 36.126,10.9946649 36.126,11.34 C36.126,11.6013346 36.1026669,11.8463322 36.056,12.075 C36.0093331,12.3036678 35.9043341,12.553332 35.741,12.824 C35.5776658,13.094668 35.3630013,13.3256657 35.097,13.517 C34.8309987,13.7083343 34.4623357,13.8693327 33.991,14 C33.5196643,14.1306673 32.9666698,14.196 32.332,14.196 Z M44.078,5.936 L41.306,5.936 L41.306,14 L39.514,14 L39.514,5.936 L36.742,5.936 L36.742,4.2 L44.078,4.2 L44.078,5.936 Z M51.778,14 L45.366,14 L45.366,4.2 L51.638,4.2 L51.638,5.936 L47.2,5.936 L47.2,8.022 L50.644,8.022 L50.644,9.758 L47.2,9.758 L47.2,12.264 L51.778,12.264 L51.778,14 Z M60.822,14 L58.96,14 L56.93,10.36 L55.11,10.36 L55.11,14 L53.318,14 L53.318,4.2 L56.902,4.2 C59.1513446,4.2 60.276,5.14265724 60.276,7.028 C60.276,7.7280035 60.1313348,8.29733114 59.842,8.736 C59.5526652,9.17466886 59.1420027,9.5573317 58.61,9.884 L60.822,14 Z M56.496,5.698 L55.11,5.698 L55.11,8.68 L56.426,8.68 C57.1820038,8.68 57.6999986,8.54933464 57.98,8.288 C58.2600014,8.02666536 58.4,7.64866914 58.4,7.154 C58.4,6.65933086 58.264668,6.29300119 57.994,6.055 C57.723332,5.81699881 57.2240036,5.698 56.496,5.698 Z M68.074,14.196 C67.3739965,14.196 66.7346696,14.1260007 66.156,13.986 C65.5773304,13.8459993 65.1340015,13.678001 64.826,13.482 L65.036,11.438 C65.3346682,11.7273348 65.7523307,11.9723323 66.289,12.173 C66.8256693,12.3736677 67.4346633,12.474 68.116,12.474 C69.2826725,12.474 69.866,12.1193369 69.866,11.41 C69.866,11.213999 69.8193338,11.0366675 69.726,10.878 C69.6326662,10.7193325 69.5323339,10.5886672 69.425,10.486 C69.3176661,10.3833328 69.1380013,10.2736672 68.886,10.157 C68.6339987,10.0403328 68.4380007,9.95633359 68.298,9.905 C68.1579993,9.85366641 67.9200017,9.77200056 67.584,9.66 C67.2946652,9.5666662 67.0940006,9.4966669 66.982,9.45 L66.422,9.212 C66.1606654,9.10933282 65.9693339,9.01833373 65.848,8.939 C65.7266661,8.85966627 65.5773342,8.74766739 65.4,8.603 C65.2226658,8.45833261 65.0920004,8.31133408 65.008,8.162 C64.9239996,8.01266592 64.8493337,7.83300105 64.784,7.623 C64.7186663,7.41299895 64.686,7.18666788 64.686,6.944 C64.686,6.17866284 64.9753304,5.49733632 65.554,4.9 C66.1326696,4.30266368 67.023994,4.004 68.228,4.004 C68.8533365,4.004 69.4576637,4.08333254 70.041,4.242 C70.6243362,4.40066746 71.0606652,4.5733324 71.35,4.76 L71.168,6.594 C70.0946613,6.00599706 69.1380042,5.712 68.298,5.712 C67.8219976,5.712 67.4043351,5.79133254 67.045,5.95 C66.6856649,6.10866746 66.506,6.3746648 66.506,6.748 C66.506,7.10266844 66.6693317,7.37566571 66.996,7.567 C67.3226683,7.75833429 67.81733,7.95666564 68.48,8.162 C68.8253351,8.26466718 69.0889991,8.34866634 69.271,8.414 C69.4530009,8.47933366 69.7026651,8.57733268 70.02,8.708 C70.3373349,8.83866732 70.5846658,8.97633261 70.762,9.121 C70.9393342,9.26566739 71.1236657,9.44299895 71.315,9.653 C71.5063343,9.86300105 71.6463329,10.1103319 71.735,10.395 C71.8236671,10.6796681 71.868,10.9946649 71.868,11.34 C71.868,11.6013346 71.8446669,11.8463322 71.798,12.075 C71.7513331,12.3036678 71.6463342,12.553332 71.483,12.824 C71.3196659,13.094668 71.1050013,13.3256657 70.839,13.517 C70.5729987,13.7083343 70.2043357,13.8693327 69.733,14 C69.2616643,14.1306673 68.7086698,14.196 68.074,14.196 Z M80.744,4.2 L77.356,9.66 L77.356,14 L75.564,14 L75.564,9.66 L72.176,4.2 L74.08,4.2 L76.46,8.064 L78.84,4.2 L80.744,4.2 Z M84.496,14.196 C83.7959965,14.196 83.1566696,14.1260007 82.578,13.986 C81.9993304,13.8459993 81.5560015,13.678001 81.248,13.482 L81.458,11.438 C81.7566682,11.7273348 82.1743307,11.9723323 82.711,12.173 C83.2476693,12.3736677 83.8566633,12.474 84.538,12.474 C85.7046725,12.474 86.288,12.1193369 86.288,11.41 C86.288,11.213999 86.2413338,11.0366675 86.148,10.878 C86.0546662,10.7193325 85.9543339,10.5886672 85.847,10.486 C85.7396661,10.3833328 85.5600013,10.2736672 85.308,10.157 C85.0559987,10.0403328 84.8600007,9.95633359 84.72,9.905 C84.5799993,9.85366641 84.3420017,9.77200056 84.006,9.66 C83.7166652,9.5666662 83.5160006,9.4966669 83.404,9.45 L82.844,9.212 C82.5826654,9.10933282 82.3913339,9.01833373 82.27,8.939 C82.1486661,8.85966627 81.9993342,8.74766739 81.822,8.603 C81.6446658,8.45833261 81.5140004,8.31133408 81.43,8.162 C81.3459996,8.01266592 81.2713337,7.83300105 81.206,7.623 C81.1406663,7.41299895 81.108,7.18666788 81.108,6.944 C81.108,6.17866284 81.3973304,5.49733632 81.976,4.9 C82.5546696,4.30266368 83.445994,4.004 84.65,4.004 C85.2753365,4.004 85.8796637,4.08333254 86.463,4.242 C87.0463362,4.40066746 87.4826652,4.5733324 87.772,4.76 L87.59,6.594 C86.5166613,6.00599706 85.5600042,5.712 84.72,5.712 C84.2439976,5.712 83.8263351,5.79133254 83.467,5.95 C83.1076649,6.10866746 82.928,6.3746648 82.928,6.748 C82.928,7.10266844 83.0913317,7.37566571 83.418,7.567 C83.7446683,7.75833429 84.23933,7.95666564 84.902,8.162 C85.2473351,8.26466718 85.5109991,8.34866634 85.693,8.414 C85.8750009,8.47933366 86.1246651,8.57733268 86.442,8.708 C86.7593349,8.83866732 87.0066658,8.97633261 87.184,9.121 C87.3613342,9.26566739 87.5456657,9.44299895 87.737,9.653 C87.9283343,9.86300105 88.0683329,10.1103319 88.157,10.395 C88.2456671,10.6796681 88.29,10.9946649 88.29,11.34 C88.29,11.6013346 88.2666669,11.8463322 88.22,12.075 C88.1733331,12.3036678 88.0683341,12.553332 87.905,12.824 C87.7416658,13.094668 87.5270013,13.3256657 87.261,13.517 C86.9949987,13.7083343 86.6263357,13.8693327 86.155,14 C85.6836643,14.1306673 85.1306698,14.196 84.496,14.196 Z M96.242,5.936 L93.47,5.936 L93.47,14 L91.678,14 L91.678,5.936 L88.906,5.936 L88.906,4.2 L96.242,4.2 L96.242,5.936 Z M103.942,14 L97.53,14 L97.53,4.2 L103.802,4.2 L103.802,5.936 L99.364,5.936 L99.364,8.022 L102.808,8.022 L102.808,9.758 L99.364,9.758 L99.364,12.264 L103.942,12.264 L103.942,14 Z M115.45,14 L113.588,14 L112.748,7.434 L110.242,11.942 L107.722,7.448 L106.882,14 L105.02,14 L106.378,4.2 L107.848,4.2 L110.242,8.666 L112.622,4.2 L114.092,4.2 L115.45,14 Z" id="MASTER-SYSTEM-Copy" fill="#FFFFFF"></path>
        <g id="system" stroke="#867740" stroke-linecap="round">
            <path d="M0.5,17.5 L4.5,0.5" id="Shape"></path>
        </g>
    </g>
</svg>