<?xml version="1.0" encoding="utf-8"?>
<svg viewBox="0 0 116 18" xmlns="http://www.w3.org/2000/svg" xmlns:bx="https://boxy-svg.com">
  <path d="M 19.055 13.569 L 17.185 13.569 L 16.345 6.999 L 13.845 11.509 L 11.325 7.019 L 10.485 13.569 L 8.625 13.569 L 9.975 3.769 L 11.445 3.769 L 13.845 8.239 L 16.225 3.769 L 17.695 3.769 L 19.055 13.569 ZM 28.377 13.569 L 26.517 13.569 L 25.677 11.199 L 22.407 11.199 L 21.567 13.569 L 19.707 13.569 L 23.197 3.769 L 24.887 3.769 L 28.377 13.569 M 25.057 9.469 L 24.037 6.599 L 23.027 9.469 L 25.057 9.469 ZM 32.336 13.769 C 31.636 13.769 30.996 13.699 30.416 13.559 C 29.836 13.419 29.393 13.249 29.086 13.049 L 29.296 11.009 C 29.596 11.296 30.016 11.539 30.556 11.739 C 31.09 11.939 31.696 12.039 32.376 12.039 C 33.543 12.039 34.126 11.686 34.126 10.979 C 34.126 10.772 34.08 10.589 33.986 10.429 C 33.886 10.262 33.76 10.119 33.606 9.999 C 33.453 9.879 33.283 9.776 33.096 9.689 C 32.916 9.609 32.736 9.539 32.556 9.479 L 31.246 9.019 L 30.686 8.779 C 30.1 8.539 29.67 8.249 29.396 7.909 C 29.123 7.576 28.973 7.109 28.946 6.509 C 28.946 6.136 29.016 5.776 29.156 5.429 C 29.296 5.076 29.513 4.762 29.806 4.489 C 30.093 4.216 30.46 3.996 30.906 3.829 C 31.353 3.656 31.88 3.569 32.486 3.569 C 32.8 3.569 33.11 3.592 33.416 3.639 C 33.73 3.686 34.026 3.746 34.306 3.819 C 34.586 3.886 34.84 3.966 35.066 4.059 C 35.293 4.152 35.476 4.242 35.616 4.329 L 35.426 6.159 C 34.346 5.572 33.39 5.279 32.556 5.279 C 32.316 5.279 32.09 5.299 31.876 5.339 C 31.663 5.372 31.473 5.432 31.306 5.519 C 31.146 5.606 31.016 5.712 30.916 5.839 C 30.816 5.972 30.766 6.132 30.766 6.319 C 30.766 6.559 30.826 6.746 30.946 6.879 C 31.06 7.019 31.23 7.139 31.456 7.239 C 31.69 7.346 31.98 7.452 32.326 7.559 C 32.666 7.666 33.066 7.806 33.526 7.979 L 34.286 8.279 C 34.48 8.352 34.683 8.459 34.896 8.599 C 35.11 8.739 35.31 8.912 35.496 9.119 C 35.676 9.326 35.826 9.566 35.946 9.839 C 36.066 10.112 36.126 10.422 36.126 10.769 C 36.126 11.069 36.09 11.392 36.016 11.739 C 35.943 12.079 35.776 12.402 35.516 12.709 C 35.256 13.009 34.873 13.262 34.366 13.469 C 33.86 13.669 33.183 13.769 32.336 13.769 ZM 44.086 5.509 L 41.306 5.509 L 41.306 13.569 L 39.516 13.569 L 39.516 5.509 L 36.746 5.509 L 36.746 3.769 L 44.086 3.769 L 44.086 5.509 ZM 51.782 13.569 L 45.372 13.569 L 45.372 3.769 L 51.642 3.769 L 51.642 5.509 L 47.202 5.509 L 47.202 7.589 L 50.652 7.589 L 50.652 9.329 L 47.202 9.329 L 47.202 11.829 L 51.782 11.829 L 51.782 13.569 ZM 60.824 13.569 L 58.964 13.569 L 56.934 9.929 L 55.114 9.929 L 55.114 13.569 L 53.324 13.569 L 53.324 3.769 L 56.904 3.769 C 59.157 3.769 60.284 4.712 60.284 6.599 C 60.284 7.299 60.137 7.869 59.844 8.309 C 59.557 8.742 59.147 9.122 58.614 9.449 L 60.824 13.569 M 56.504 5.269 L 55.114 5.269 L 55.114 8.249 L 56.434 8.249 C 57.187 8.249 57.704 8.119 57.984 7.859 C 58.264 7.606 58.404 7.226 58.404 6.719 C 58.404 6.226 58.267 5.859 57.994 5.619 C 57.727 5.386 57.23 5.269 56.504 5.269 ZM 68.077 13.769 C 67.377 13.769 66.737 13.699 66.157 13.559 C 65.577 13.419 65.134 13.249 64.827 13.049 L 65.037 11.009 C 65.337 11.296 65.757 11.539 66.297 11.739 C 66.83 11.939 67.437 12.039 68.117 12.039 C 69.284 12.039 69.867 11.686 69.867 10.979 C 69.867 10.772 69.82 10.589 69.727 10.429 C 69.627 10.262 69.5 10.119 69.347 9.999 C 69.194 9.879 69.024 9.776 68.837 9.689 C 68.657 9.609 68.477 9.539 68.297 9.479 L 66.987 9.019 L 66.427 8.779 C 65.84 8.539 65.41 8.249 65.137 7.909 C 64.864 7.576 64.714 7.109 64.687 6.509 C 64.687 6.136 64.757 5.776 64.897 5.429 C 65.037 5.076 65.254 4.762 65.547 4.489 C 65.834 4.216 66.2 3.996 66.647 3.829 C 67.094 3.656 67.62 3.569 68.227 3.569 C 68.54 3.569 68.85 3.592 69.157 3.639 C 69.47 3.686 69.767 3.746 70.047 3.819 C 70.327 3.886 70.58 3.966 70.807 4.059 C 71.034 4.152 71.217 4.242 71.357 4.329 L 71.167 6.159 C 70.087 5.572 69.13 5.279 68.297 5.279 C 68.057 5.279 67.83 5.299 67.617 5.339 C 67.404 5.372 67.214 5.432 67.047 5.519 C 66.887 5.606 66.757 5.712 66.657 5.839 C 66.557 5.972 66.507 6.132 66.507 6.319 C 66.507 6.559 66.567 6.746 66.687 6.879 C 66.8 7.019 66.97 7.139 67.197 7.239 C 67.43 7.346 67.72 7.452 68.067 7.559 C 68.407 7.666 68.807 7.806 69.267 7.979 L 70.027 8.279 C 70.22 8.352 70.424 8.459 70.637 8.599 C 70.85 8.739 71.05 8.912 71.237 9.119 C 71.417 9.326 71.567 9.566 71.687 9.839 C 71.807 10.112 71.867 10.422 71.867 10.769 C 71.867 11.069 71.83 11.392 71.757 11.739 C 71.684 12.079 71.517 12.402 71.257 12.709 C 70.997 13.009 70.614 13.262 70.107 13.469 C 69.6 13.669 68.924 13.769 68.077 13.769 ZM 80.747 3.769 L 77.357 9.229 L 77.357 13.569 L 75.567 13.569 L 75.567 9.229 L 72.177 3.769 L 74.087 3.769 L 76.467 7.629 L 78.847 3.769 L 80.747 3.769 ZM 84.499 13.769 C 83.799 13.769 83.159 13.699 82.579 13.559 C 81.999 13.419 81.555 13.249 81.249 13.049 L 81.459 11.009 C 81.759 11.296 82.179 11.539 82.719 11.739 C 83.252 11.939 83.859 12.039 84.539 12.039 C 85.705 12.039 86.289 11.686 86.289 10.979 C 86.289 10.772 86.242 10.589 86.149 10.429 C 86.049 10.262 85.922 10.119 85.769 9.999 C 85.615 9.879 85.445 9.776 85.259 9.689 C 85.079 9.609 84.899 9.539 84.719 9.479 L 83.409 9.019 L 82.849 8.779 C 82.262 8.539 81.832 8.249 81.559 7.909 C 81.285 7.576 81.135 7.109 81.109 6.509 C 81.109 6.136 81.179 5.776 81.319 5.429 C 81.459 5.076 81.675 4.762 81.969 4.489 C 82.255 4.216 82.622 3.996 83.069 3.829 C 83.515 3.656 84.042 3.569 84.649 3.569 C 84.962 3.569 85.272 3.592 85.579 3.639 C 85.892 3.686 86.189 3.746 86.469 3.819 C 86.749 3.886 87.002 3.966 87.229 4.059 C 87.455 4.152 87.639 4.242 87.779 4.329 L 87.589 6.159 C 86.509 5.572 85.552 5.279 84.719 5.279 C 84.479 5.279 84.252 5.299 84.039 5.339 C 83.825 5.372 83.635 5.432 83.469 5.519 C 83.309 5.606 83.179 5.712 83.079 5.839 C 82.979 5.972 82.929 6.132 82.929 6.319 C 82.929 6.559 82.989 6.746 83.109 6.879 C 83.222 7.019 83.392 7.139 83.619 7.239 C 83.852 7.346 84.142 7.452 84.489 7.559 C 84.829 7.666 85.229 7.806 85.689 7.979 L 86.449 8.279 C 86.642 8.352 86.845 8.459 87.059 8.599 C 87.272 8.739 87.472 8.912 87.659 9.119 C 87.839 9.326 87.989 9.566 88.109 9.839 C 88.229 10.112 88.289 10.422 88.289 10.769 C 88.289 11.069 88.252 11.392 88.179 11.739 C 88.105 12.079 87.939 12.402 87.679 12.709 C 87.419 13.009 87.035 13.262 86.529 13.469 C 86.022 13.669 85.345 13.769 84.499 13.769 ZM 96.248 5.509 L 93.468 5.509 L 93.468 13.569 L 91.678 13.569 L 91.678 5.509 L 88.908 5.509 L 88.908 3.769 L 96.248 3.769 L 96.248 5.509 ZM 103.944 13.569 L 97.534 13.569 L 97.534 3.769 L 103.804 3.769 L 103.804 5.509 L 99.364 5.509 L 99.364 7.589 L 102.814 7.589 L 102.814 9.329 L 99.364 9.329 L 99.364 11.829 L 103.944 11.829 L 103.944 13.569 ZM 115.456 13.569 L 113.586 13.569 L 112.746 6.999 L 110.246 11.509 L 107.726 7.019 L 106.886 13.569 L 105.026 13.569 L 106.376 3.769 L 107.846 3.769 L 110.246 8.239 L 112.626 3.769 L 114.096 3.769 L 115.456 13.569 Z" transform="matrix(1, 0, 0, 1, 0, 0)" style="fill: rgb(255, 255, 255); white-space: pre;"/>
  <path d="M 0 18 L 3.869 0" style="fill: none; stroke-linecap: round; stroke: rgb(134, 119, 64);" bx:origin="0 0.5"/>
</svg>