<svg height="65" width="224" xmlns="http://www.w3.org/2000/svg"><g fill="none" stroke="#f4f4f4" stroke-width="1.4"><path d="m202 4v7h6v-7z"/><path d="m196 11v6h6v-6z"/><path d="m202 11v6h-6v6h6v6h6v-6h6v-6h-6v-6z"/><path d="m208 11v6h6v-6z"/><path d="m190 17v6h6v-6z"/><path d="m214 17v6h6v-6z"/><path d="m196 23v6h6v-6z"/><path d="m208 23v6h6v-6z"/><path d="m11 29v7h-7v25h13v-13h18v-19zm30 0v7h7v18h-7v7h25v-7h-6v-18h6v-7zm37 0v7h-6v25h25v-7h-12v-18h12v-7zm31 0v7h-6v25h25v-7h6v-25zm56 0v13h-6v19h31v-32zm-148 7h6v6h-6zm99 0h6v18h-6zm55 0h12v6h-12zm0 12h12v6h-12z"/><path d="m202 29v7h6v-7z"/><path d="m140 42v6h13v-6z"/></g></svg>