<svg height="18" viewBox="0 0 52 18" width="52" xmlns="http://www.w3.org/2000/svg"><path d="m.5 17.5 4-17" fill="none" stroke="#867740" stroke-linecap="round"/><g fill="#fff" stroke-width=".35"><path d="m10.884 10.78h-1.7500001v3.22h-1.792v-9.8h2.7720001q1.106 0 1.806.112.714.112 1.288.434.588.322.84.952.266.616.266 1.61 0 .994-.336 1.722-.322.714-.868 1.078-.546.364-1.092.518-.546.154-1.134.154zm-.28-5.082h-1.4700001v3.402h1.5120001q.994 0 1.414-.392.434-.406.434-1.386 0-.868-.406-1.246-.392-.378-1.484-.378z"/><path d="m17.473844 14h-1.792v-9.8h1.792z"/><path d="m23.861344 14.196q-2.128 0-3.486-1.4-1.344-1.414-1.344-3.696 0-2.282 1.344-3.682 1.358-1.414 3.486-1.414 1.61 0 2.786.574l-.196 1.708q-1.414-.56-2.59-.56-1.386 0-2.128.924-.742.924-.742 2.45 0 1.526.742 2.45.742.924 2.128.924 1.176 0 2.59-.56l.196 1.708q-1.176.574-2.786.574z"/><path d="m35.727875 12.796q-1.344 1.4-3.472 1.4-2.128 0-3.486-1.4-1.344-1.414-1.344-3.696 0-2.282 1.344-3.682 1.358-1.414 3.486-1.414 2.128 0 3.472 1.414 1.358 1.4 1.358 3.682 0 2.282-1.358 3.696zm-1.344-6.146q-.742-.924-2.128-.924-1.386 0-2.128.924-.742.924-.742 2.45 0 1.526.742 2.45.742.924 2.128.924 1.386 0 2.128-.924.742-.924.742-2.45 0-1.526-.742-2.45z"/><path d="m42.668594 10.78h-4.34v-1.316h4.34z"/><path d="m47.498156 14.196q-1.61 0-2.45-.812-.84-.812-.84-1.974 0-1.582 1.512-2.688-.966-.77-.966-2.24 0-1.078.686-1.778.7-.7 2.254-.7 1.484 0 2.156.644.686.63.686 1.624 0 1.316-1.204 2.324.784.364 1.26 1.036.476.672.476 1.512 0 1.19-.924 2.128-.91.924-2.646.924zm.126-8.792q-.686 0-.994.35-.308.336-.308.896 0 1.064 1.232 1.4 1.33-.364 1.33-1.47 0-.518-.308-.84-.294-.336-.952-.336zm.056 3.948q-.714.112-1.246.616-.518.504-.518 1.302 0 .714.434 1.106.448.392 1.218.392.812 0 1.274-.42.462-.434.462-1.148 0-.742-.462-1.218-.462-.476-1.162-.63z"/></g></svg>