<?xml version="1.0" encoding="UTF-8" standalone="no"?>
<svg
   xmlns:dc="http://purl.org/dc/elements/1.1/"
   xmlns:cc="http://creativecommons.org/ns#"
   xmlns:rdf="http://www.w3.org/1999/02/22-rdf-syntax-ns#"
   xmlns:svg="http://www.w3.org/2000/svg"
   xmlns="http://www.w3.org/2000/svg"
   xmlns:sodipodi="http://sodipodi.sourceforge.net/DTD/sodipodi-0.dtd"
   xmlns:inkscape="http://www.inkscape.org/namespaces/inkscape"
   inkscape:version="1.0alpha2 (0c7b077, 2019-09-04)"
   sodipodi:docname="system.svg"
   id="svg34"
   version="1.1"
   width="52"
   viewBox="0 0 52 18"
   height="18">
  <metadata
     id="metadata40">
    <rdf:RDF>
      <cc:Work
         rdf:about="">
        <dc:format>image/svg+xml</dc:format>
        <dc:type
           rdf:resource="http://purl.org/dc/dcmitype/StillImage" />
        <dc:title></dc:title>
      </cc:Work>
    </rdf:RDF>
  </metadata>
  <defs
     id="defs38" />
  <sodipodi:namedview
     inkscape:current-layer="svg34"
     inkscape:window-maximized="0"
     inkscape:window-y="34"
     inkscape:window-x="12"
     inkscape:cy="43.545494"
     inkscape:cx="17.596103"
     inkscape:zoom="4.7740774"
     showgrid="false"
     id="namedview36"
     inkscape:window-height="982"
     inkscape:window-width="1656"
     inkscape:pageshadow="2"
     inkscape:pageopacity="0"
     guidetolerance="10"
     gridtolerance="10"
     objecttolerance="10"
     borderopacity="1"
     inkscape:document-rotation="0"
     bordercolor="#666666"
     pagecolor="#979797" />
  <path
     inkscape:connector-curvature="0"
     id="path10"
     stroke-linecap="round"
     stroke="#867740"
     fill="none"
     d="m 0.5,17.5 4,-17" />
  <g
     style="font-style:normal;font-variant:normal;font-weight:bold;font-stretch:normal;font-size:14px;font-family:Cabin;-inkscape-font-specification:'Cabin Bold';font-variant-ligatures:normal;font-variant-caps:normal;font-variant-numeric:normal;font-variant-east-asian:normal;fill:#ffffff;fill-opacity:1;stroke:none;stroke-width:0.35"
     id="text44"
     aria-label="PICO-8">
    <path
       id="path46"
       style="fill:#ffffff;stroke-width:0.35"
       d="M 10.884,10.78 H 9.1339999 V 14 h -1.792 V 4.2 H 10.114 q 1.106,0 1.806,0.112 0.714,0.112 1.288,0.434 0.588,0.322 0.84,0.952 0.266,0.616 0.266,1.61 0,0.994 -0.336,1.722 -0.322,0.714 -0.868,1.078 -0.546,0.364 -1.092,0.518 -0.546,0.154 -1.134,0.154 z M 10.604,5.698 H 9.1339999 V 9.1 H 10.646 q 0.994,0 1.414,-0.392 0.434,-0.406 0.434,-1.386 0,-0.868 -0.406,-1.246 -0.392,-0.378 -1.484,-0.378 z" />
    <path
       id="path48"
       style="fill:#ffffff;stroke-width:0.35"
       d="m 17.473844,14 h -1.792 V 4.2 h 1.792 z" />
    <path
       id="path50"
       style="fill:#ffffff;stroke-width:0.35"
       d="m 23.861344,14.196 q -2.128,0 -3.486,-1.4 -1.344,-1.414 -1.344,-3.696 0,-2.282 1.344,-3.682 1.358,-1.414 3.486,-1.414 1.61,0 2.786,0.574 l -0.196,1.708 q -1.414,-0.56 -2.59,-0.56 -1.386,0 -2.128,0.924 -0.742,0.924 -0.742,2.45 0,1.526 0.742,2.45 0.742,0.924 2.128,0.924 1.176,0 2.59,-0.56 l 0.196,1.708 q -1.176,0.574 -2.786,0.574 z" />
    <path
       id="path52"
       style="fill:#ffffff;stroke-width:0.35"
       d="m 35.727875,12.796 q -1.344,1.4 -3.472,1.4 -2.128,0 -3.486,-1.4 -1.344,-1.414 -1.344,-3.696 0,-2.282 1.344,-3.682 1.358,-1.414 3.486,-1.414 2.128,0 3.472,1.414 1.358,1.4 1.358,3.682 0,2.282 -1.358,3.696 z m -1.344,-6.146 q -0.742,-0.924 -2.128,-0.924 -1.386,0 -2.128,0.924 -0.742,0.924 -0.742,2.45 0,1.526 0.742,2.45 0.742,0.924 2.128,0.924 1.386,0 2.128,-0.924 0.742,-0.924 0.742,-2.45 0,-1.526 -0.742,-2.45 z" />
    <path
       id="path54"
       style="fill:#ffffff;stroke-width:0.35"
       d="m 42.668594,10.78 h -4.34 V 9.464 h 4.34 z" />
    <path
       id="path56"
       style="fill:#ffffff;stroke-width:0.35"
       d="m 47.498156,14.196 q -1.61,0 -2.45,-0.812 -0.84,-0.812 -0.84,-1.974 0,-1.582 1.512,-2.688 -0.966,-0.77 -0.966,-2.24 0,-1.078 0.686,-1.778 0.7,-0.7 2.254,-0.7 1.484,0 2.156,0.644 0.686,0.63 0.686,1.624 0,1.316 -1.204,2.324 0.784,0.364 1.26,1.036 0.476,0.672 0.476,1.512 0,1.19 -0.924,2.128 -0.91,0.924 -2.646,0.924 z m 0.126,-8.792 q -0.686,0 -0.994,0.35 -0.308,0.336 -0.308,0.896 0,1.064 1.232,1.4 1.33,-0.364 1.33,-1.47 0,-0.518 -0.308,-0.84 -0.294,-0.336 -0.952,-0.336 z m 0.056,3.948 q -0.714,0.112 -1.246,0.616 -0.518,0.504 -0.518,1.302 0,0.714 0.434,1.106 0.448,0.392 1.218,0.392 0.812,0 1.274,-0.42 0.462,-0.434 0.462,-1.148 0,-0.742 -0.462,-1.218 -0.462,-0.476 -1.162,-0.63 z" />
  </g>
</svg>
