<svg height="350.26" viewBox="0 0 598.189 350.26" width="598.189" xmlns="http://www.w3.org/2000/svg"><path d="m214.28571 51.42857v14.285714h-14.28571v199.999996h14.28571v14.28572h71.42858v-14.28572h14.28571v14.28572h71.42857v-14.28572h14.28572v-14.28571h14.28571v-57.14286h14.28571v-14.28571h14.28572v-71.42857h-28.57143v-42.857146h-14.28571v-14.285714zm14.28572 14.285714h142.85714v14.285715h14.28572v85.714281h14.28571v-42.85714h14.28571v42.85714h-14.28571v14.28572h-14.28571v57.14286h-14.28572v14.28571h-14.28571v14.28571h-42.85715v-14.28571h-42.85714v14.28571h-42.85714v-14.28571h-14.28572v-171.428571h14.28572zm0 42.857146v71.42857h128.57143v-71.42857zm28.57143 14.28571h14.28571v42.85714h-14.28571zm57.14285 0h14.28572v42.85714h-14.28572zm-57.14285 71.42857v14.28572h14.28571v-14.28572zm14.28571 14.28572v14.28571h42.85714v-14.28571zm42.85714 0h14.28572v-14.28572h-14.28572z" fill="none" stroke="#f4f4f4" stroke-width="1.5"/></svg>