<?xml version="1.0" encoding="UTF-8" standalone="no"?>
<svg
   xmlns:dc="http://purl.org/dc/elements/1.1/"
   xmlns:cc="http://creativecommons.org/ns#"
   xmlns:rdf="http://www.w3.org/1999/02/22-rdf-syntax-ns#"
   xmlns:svg="http://www.w3.org/2000/svg"
   xmlns="http://www.w3.org/2000/svg"
   xmlns:sodipodi="http://sodipodi.sourceforge.net/DTD/sodipodi-0.dtd"
   xmlns:inkscape="http://www.inkscape.org/namespaces/inkscape"
   height="18"
   viewBox="0 0 52 18"
   width="52"
   version="1.1"
   id="svg26"
   sodipodi:docname="system.svg"
   inkscape:version="1.0beta2 (2b71d25, 2019-12-03)">
  <metadata
     id="metadata32">
    <rdf:RDF>
      <cc:Work
         rdf:about="">
        <dc:format>image/svg+xml</dc:format>
        <dc:type
           rdf:resource="http://purl.org/dc/dcmitype/StillImage" />
        <dc:title></dc:title>
      </cc:Work>
    </rdf:RDF>
  </metadata>
  <defs
     id="defs30" />
  <sodipodi:namedview
     pagecolor="#818282"
     bordercolor="#666666"
     inkscape:document-rotation="0"
     borderopacity="1"
     objecttolerance="10"
     gridtolerance="10"
     guidetolerance="10"
     inkscape:pageopacity="0"
     inkscape:pageshadow="2"
     inkscape:window-width="1656"
     inkscape:window-height="982"
     id="namedview28"
     showgrid="false"
     inkscape:zoom="12.327537"
     inkscape:cx="29.65087"
     inkscape:cy="11.77141"
     inkscape:window-x="12"
     inkscape:window-y="34"
     inkscape:window-maximized="0"
     inkscape:current-layer="svg26" />
  <path
     d="m.5 17.5 4-17"
     fill="none"
     stroke="#867740"
     stroke-linecap="round"
     id="path10" />
  <g
     style="font-style:normal;font-weight:normal;font-size:14.0258px;line-height:1.25;font-family:sans-serif;fill:#ffffff;fill-opacity:1;stroke:none;stroke-width:0.350646"
     id="text36"
     aria-label="TIC-80">
    <path
       id="path1327"
       style="font-style:normal;font-variant:normal;font-weight:normal;font-stretch:normal;font-family:Cabin;-inkscape-font-specification:Cabin;fill:#ffffff;stroke-width:0.350646"
       d="M 14.372953,5.9348446 H 11.595845 V 14.013705 H 9.8005423 V 5.9348446 H 7.0234339 V 4.1956454 h 7.3495191 z" />
    <path
       id="path1329"
       style="font-style:normal;font-variant:normal;font-weight:normal;font-stretch:normal;font-family:Cabin;-inkscape-font-specification:Cabin;fill:#ffffff;stroke-width:0.350646"
       d="M 17.468272,14.013705 H 15.672969 V 4.1956454 h 1.795303 z" />
    <path
       id="path1331"
       style="font-style:normal;font-variant:normal;font-weight:normal;font-stretch:normal;font-family:Cabin;-inkscape-font-specification:Cabin;fill:#ffffff;stroke-width:0.350646"
       d="m 23.867543,14.210066 q -2.131921,0 -3.492424,-1.40258 -1.346477,-1.416605 -1.346477,-3.7028107 0,-2.2862053 1.346477,-3.6887853 1.360503,-1.4166058 3.492424,-1.4166058 1.612967,0 2.791134,0.5750578 l -0.196361,1.7111476 q -1.416606,-0.561032 -2.594773,-0.561032 -1.388554,0 -2.131921,0.9257028 -0.743368,0.9257028 -0.743368,2.4545149 0,1.5288127 0.743368,2.4545147 0.743367,0.925703 2.131921,0.925703 1.178167,0 2.594773,-0.561032 l 0.196361,1.711148 q -1.178167,0.575057 -2.791134,0.575057 z" />
    <path
       id="path1333"
       style="font-style:normal;font-variant:normal;font-weight:normal;font-stretch:normal;font-family:Cabin;-inkscape-font-specification:Cabin;fill:#ffffff;stroke-width:0.350646"
       d="M 31.587431,10.787771 H 27.239433 V 9.4693461 h 4.347998 z" />
    <path
       id="path1335"
       style="font-style:normal;font-variant:normal;font-weight:normal;font-stretch:normal;font-family:Cabin;-inkscape-font-specification:Cabin;fill:#ffffff;stroke-width:0.350646"
       d="m 36.425894,14.210066 q -1.612967,0 -2.454515,-0.813496 -0.841548,-0.813496 -0.841548,-1.977638 0,-1.5849151 1.514787,-2.6929533 -0.96778,-0.7714189 -0.96778,-2.2441279 0,-1.0799866 0.687264,-1.7812766 0.70129,-0.70129 2.258154,-0.70129 1.486734,0 2.159973,0.6451868 0.687264,0.631161 0.687264,1.6269928 0,1.3184252 -1.206219,2.3282827 0.785445,0.3646708 1.262322,1.0379092 0.476877,0.6732383 0.476877,1.5147863 0,1.192193 -0.925703,2.131922 -0.911677,0.925702 -2.650876,0.925702 z m 0.126233,-8.8082018 q -0.687265,0 -0.995832,0.350645 -0.308568,0.3366192 -0.308568,0.8976512 0,1.0659608 1.234271,1.40258 1.33245,-0.3646708 1.33245,-1.472709 0,-0.5189546 -0.308567,-0.841548 -0.294542,-0.3366192 -0.953754,-0.3366192 z m 0.0561,3.9552755 q -0.715316,0.1122064 -1.248296,0.6171352 -0.518955,0.5049291 -0.518955,1.3043991 0,0.715316 0.4348,1.108038 0.448825,0.392723 1.220244,0.392723 0.813497,0 1.276348,-0.420774 0.462851,-0.4348 0.462851,-1.150116 0,-0.743367 -0.462851,-1.2202443 Q 37.30952,9.5114235 36.60823,9.3571397 Z" />
    <path
       id="path1337"
       style="font-style:normal;font-variant:normal;font-weight:normal;font-stretch:normal;font-family:Cabin;-inkscape-font-specification:Cabin;fill:#ffffff;stroke-width:0.350646"
       d="m 45.648734,14.210066 q -1.823354,0 -2.931392,-1.360502 -1.108038,-1.360503 -1.108038,-3.5906049 0,-2.3142569 1.206219,-3.7869659 1.206218,-1.472709 3.001521,-1.472709 1.753225,0 2.889315,1.4166058 1.150115,1.40258 1.150115,3.6046305 0,2.3423085 -1.150115,3.7729405 -1.150116,1.416605 -3.057625,1.416605 z m 0.140258,-8.6258664 q -0.981806,0 -1.683096,0.9537544 -0.70129,0.9537544 -0.70129,2.7210051 0,1.6830959 0.617135,2.5106179 0.631161,0.827522 1.655045,0.827522 1.094012,0 1.753225,-0.869599 0.659212,-0.883625 0.659212,-2.7069795 0,-1.6550443 -0.673238,-2.5386697 -0.659213,-0.8976512 -1.626993,-0.8976512 z" />
  </g>
</svg>
