<svg height="18" viewBox="0 0 52 18" width="52" xmlns="http://www.w3.org/2000/svg"><path d="m.5 17.5 4-17" fill="none" stroke="#867740" stroke-linecap="round"/><g fill="#fff" stroke-width=".350646"><path d="m14.372953 5.9348446h-2.777108v8.0788604h-1.7953027v-8.0788604h-2.7771084v-1.7391992h7.3495191z"/><path d="m17.468272 14.013705h-1.795303v-9.8180596h1.795303z"/><path d="m23.867543 14.210066q-2.131921 0-3.492424-1.40258-1.346477-1.416605-1.346477-3.7028107 0-2.2862053 1.346477-3.6887853 1.360503-1.4166058 3.492424-1.4166058 1.612967 0 2.791134.5750578l-.196361 1.7111476q-1.416606-.561032-2.594773-.561032-1.388554 0-2.131921.9257028-.743368.9257028-.743368 2.4545149 0 1.5288127.743368 2.4545147.743367.925703 2.131921.925703 1.178167 0 2.594773-.561032l.196361 1.711148q-1.178167.575057-2.791134.575057z"/><path d="m31.587431 10.787771h-4.347998v-1.3184249h4.347998z"/><path d="m36.425894 14.210066q-1.612967 0-2.454515-.813496-.841548-.813496-.841548-1.977638 0-1.5849151 1.514787-2.6929533-.96778-.7714189-.96778-2.2441279 0-1.0799866.687264-1.7812766.70129-.70129 2.258154-.70129 1.486734 0 2.159973.6451868.687264.631161.687264 1.6269928 0 1.3184252-1.206219 2.3282827.785445.3646708 1.262322 1.0379092.476877.6732383.476877 1.5147863 0 1.192193-.925703 2.131922-.911677.925702-2.650876.925702zm.126233-8.8082018q-.687265 0-.995832.350645-.308568.3366192-.308568.8976512 0 1.0659608 1.234271 1.40258 1.33245-.3646708 1.33245-1.472709 0-.5189546-.308567-.841548-.294542-.3366192-.953754-.3366192zm.0561 3.9552755q-.715316.1122064-1.248296.6171352-.518955.5049291-.518955 1.3043991 0 .715316.4348 1.108038.448825.392723 1.220244.392723.813497 0 1.276348-.420774.462851-.4348.462851-1.150116 0-.743367-.462851-1.2202443-.462848-.4768772-1.164138-.631161z"/><path d="m45.648734 14.210066q-1.823354 0-2.931392-1.360502-1.108038-1.360503-1.108038-3.5906049 0-2.3142569 1.206219-3.7869659 1.206218-1.472709 3.001521-1.472709 1.753225 0 2.889315 1.4166058 1.150115 1.40258 1.150115 3.6046305 0 2.3423085-1.150115 3.7729405-1.150116 1.416605-3.057625 1.416605zm.140258-8.6258664q-.981806 0-1.683096.9537544-.70129.9537544-.70129 2.7210051 0 1.6830959.617135 2.5106179.631161.827522 1.655045.827522 1.094012 0 1.753225-.869599.659212-.883625.659212-2.7069795 0-1.6550443-.673238-2.5386697-.659213-.8976512-1.626993-.8976512z"/></g></svg>