<?xml version="1.0" encoding="UTF-8" standalone="no"?>
<svg width="132px" height="18px" viewBox="0 0 132 18" version="1.1" xmlns="http://www.w3.org/2000/svg" xmlns:xlink="http://www.w3.org/1999/xlink">
    <!-- Generator: Sketch 45 (43475) - http://www.bohemiancoding.com/sketch -->
    <title>system</title>
    <desc>Created with Sketch.</desc>
    <defs></defs>
    <g id="Page-1" stroke="none" stroke-width="1" fill="none" fill-rule="evenodd">
        <path d="M15.112,5.936 L10.87,5.936 L10.87,8.022 L14.146,8.022 L14.146,9.758 L10.87,9.758 L10.87,14 L9.078,14 L9.078,4.2 L15.112,4.2 L15.112,5.936 Z M18.22,14 L16.428,14 L16.428,4.2 L18.22,4.2 L18.22,14 Z M28.118,14 L26.648,14 L22.168,7.28 L22.168,14 L20.376,14 L20.376,4.2 L22.14,4.2 L26.326,10.528 L26.326,4.2 L28.118,4.2 L28.118,14 Z M37.904,14 L36.042,14 L35.202,11.634 L31.94,11.634 L31.1,14 L29.238,14 L32.724,4.2 L34.418,4.2 L37.904,14 Z M34.586,9.898 L33.564,7.028 L32.556,9.898 L34.586,9.898 Z M44.848,14 L39.024,14 L39.024,4.2 L40.816,4.2 L40.816,12.264 L44.848,12.264 L44.848,14 Z M52.954,14 L49.174,14 L49.174,4.2 L51.82,4.2 C52.3146691,4.2 52.7369982,4.21866648 53.087,4.256 C53.4370017,4.29333352 53.777665,4.36333282 54.109,4.466 C54.440335,4.56866718 54.7063323,4.71099909 54.907,4.893 C55.1076677,5.07500091 55.2686661,5.31766515 55.39,5.621 C55.5113339,5.92433485 55.572,6.29066452 55.572,6.72 C55.572,7.62533786 55.2966694,8.30666438 54.746,8.764 C55.3246696,8.98800112 55.7539986,9.28433149 56.034,9.653 C56.3140014,10.0216685 56.454,10.5093303 56.454,11.116 C56.454,11.657336 56.3513344,12.123998 56.146,12.516 C55.9406656,12.908002 55.6630017,13.2066656 55.313,13.412 C54.9629982,13.6173344 54.5943353,13.7666662 54.207,13.86 C53.8196647,13.9533338 53.4020022,14 52.954,14 Z M52.548,5.726 L50.966,5.726 L50.966,8.134 L52.716,8.134 C53.0333349,8.134 53.3109988,8.04766753 53.549,7.875 C53.7870012,7.70233247 53.906,7.4060021 53.906,6.986 C53.906,6.50999762 53.7916678,6.18100091 53.563,5.999 C53.3343322,5.81699909 52.9960022,5.726 52.548,5.726 Z M52.828,9.548 L50.966,9.548 L50.966,12.474 L52.73,12.474 C53.3366697,12.474 53.8009984,12.3620011 54.123,12.138 C54.4450016,11.9139989 54.606,11.5406693 54.606,11.018 C54.606,10.0379951 54.0133393,9.548 52.828,9.548 Z M61.886,14.196 C60.5419933,14.196 59.5293367,13.8063372 58.848,13.027 C58.1666633,12.2476628 57.826,11.1720069 57.826,9.8 L57.826,4.2 L59.618,4.2 L59.618,9.198 C59.618,10.2340052 59.7789984,11.0389971 60.101,11.613 C60.4230016,12.1870029 61.0179957,12.474 61.886,12.474 C62.7540043,12.474 63.3489984,12.1870029 63.671,11.613 C63.9930016,11.0389971 64.154,10.2340052 64.154,9.198 L64.154,4.2 L65.946,4.2 L65.946,9.8 C65.946,11.1720069 65.6053367,12.2476628 64.924,13.027 C64.2426633,13.8063372 63.2300067,14.196 61.886,14.196 Z M75.494,14 L73.632,14 L71.602,10.36 L69.782,10.36 L69.782,14 L67.99,14 L67.99,4.2 L71.574,4.2 C73.8233446,4.2 74.948,5.14265724 74.948,7.028 C74.948,7.7280035 74.8033348,8.29733114 74.514,8.736 C74.2246652,9.17466886 73.8140027,9.5573317 73.282,9.884 L75.494,14 Z M71.168,5.698 L69.782,5.698 L69.782,8.68 L71.098,8.68 C71.8540038,8.68 72.3719986,8.54933464 72.652,8.288 C72.9320014,8.02666536 73.072,7.64866914 73.072,7.154 C73.072,6.65933086 72.936668,6.29300119 72.666,6.055 C72.395332,5.81699881 71.8960036,5.698 71.168,5.698 Z M84.496,14 L83.026,14 L78.546,7.28 L78.546,14 L76.754,14 L76.754,4.2 L78.518,4.2 L82.704,10.528 L82.704,4.2 L84.496,4.2 L84.496,14 Z M97.432,14 L95.57,14 L94.73,11.634 L91.468,11.634 L90.628,14 L88.766,14 L92.252,4.2 L93.946,4.2 L97.432,14 Z M94.114,9.898 L93.092,7.028 L92.084,9.898 L94.114,9.898 Z M104.376,14 L98.552,14 L98.552,4.2 L100.344,4.2 L100.344,12.264 L104.376,12.264 L104.376,14 Z M109.094,10.78 L107.344,10.78 L107.344,14 L105.552,14 L105.552,4.2 L108.324,4.2 C109.061337,4.2 109.665664,4.23733296 110.137,4.312 C110.608336,4.38666704 111.037665,4.53133226 111.425,4.746 C111.812335,4.96066774 112.092332,5.27566459 112.265,5.691 C112.437668,6.10633541 112.524,6.64533002 112.524,7.308 C112.524,7.97066998 112.414334,8.54233093 112.195,9.023 C111.975666,9.50366907 111.684002,9.86533212 111.32,10.108 C110.955998,10.3506679 110.592002,10.5233328 110.228,10.626 C109.863998,10.7286672 109.486002,10.78 109.094,10.78 Z M108.814,5.698 L107.344,5.698 L107.344,9.1 L108.856,9.1 C109.51867,9.1 109.992332,8.96700133 110.277,8.701 C110.561668,8.43499867 110.704,7.9753366 110.704,7.322 C110.704,6.74333044 110.571001,6.32800126 110.305,6.076 C110.038999,5.82399874 109.542004,5.698 108.814,5.698 Z M122.1,14 L120.308,14 L120.308,9.758 L115.688,9.758 L115.688,14 L113.896,14 L113.896,4.2 L115.688,4.2 L115.688,8.022 L120.308,8.022 L120.308,4.2 L122.1,4.2 L122.1,14 Z M131.886,14 L130.024,14 L129.184,11.634 L125.922,11.634 L125.082,14 L123.22,14 L126.706,4.2 L128.4,4.2 L131.886,14 Z M128.568,9.898 L127.546,7.028 L126.538,9.898 L128.568,9.898 Z" id="FINAL-BURN-ALPHA-Copy" fill="#FFFFFF"></path>
        <g id="system" stroke="#867740" stroke-linecap="round">
            <path d="M0.5,17.5 L4.5,0.5" id="Shape"></path>
        </g>
    </g>
</svg>