<?xml version="1.0" encoding="utf-8"?>
<svg viewBox="0 0 132 18" xmlns="http://www.w3.org/2000/svg" xmlns:bx="https://boxy-svg.com">
  <path d="M 15.115 5.509 L 10.875 5.509 L 10.875 7.589 L 14.155 7.589 L 14.155 9.329 L 10.875 9.329 L 10.875 13.569 L 9.085 13.569 L 9.085 3.769 L 15.115 3.769 L 15.115 5.509 ZM 18.225 13.569 L 16.435 13.569 L 16.435 3.769 L 18.225 3.769 L 18.225 13.569 ZM 28.123 13.569 L 26.653 13.569 L 22.173 6.849 L 22.173 13.569 L 20.383 13.569 L 20.383 3.769 L 22.143 3.769 L 26.333 10.099 L 26.333 3.769 L 28.123 3.769 L 28.123 13.569 ZM 37.91 13.569 L 36.05 13.569 L 35.21 11.199 L 31.94 11.199 L 31.1 13.569 L 29.24 13.569 L 32.73 3.769 L 34.42 3.769 L 37.91 13.569 M 34.59 9.469 L 33.57 6.599 L 32.56 9.469 L 34.59 9.469 ZM 44.85 13.569 L 39.03 13.569 L 39.03 3.769 L 40.82 3.769 L 40.82 11.829 L 44.85 11.829 L 44.85 13.569 ZM 52.96 13.569 L 49.18 13.569 L 49.18 3.769 L 51.82 3.769 C 52.393 3.769 52.91 3.799 53.37 3.859 C 53.83 3.919 54.223 4.039 54.55 4.219 C 54.877 4.406 55.13 4.662 55.31 4.989 C 55.49 5.316 55.58 5.749 55.58 6.289 C 55.58 7.182 55.303 7.862 54.75 8.329 C 55.337 8.556 55.77 8.852 56.05 9.219 C 56.323 9.579 56.46 10.069 56.46 10.689 C 56.46 11.229 56.36 11.682 56.16 12.049 C 55.96 12.416 55.697 12.712 55.37 12.939 C 55.043 13.166 54.67 13.326 54.25 13.419 C 53.83 13.519 53.4 13.569 52.96 13.569 M 52.55 5.299 L 50.97 5.299 L 50.97 7.699 L 52.72 7.699 C 53.04 7.699 53.317 7.612 53.55 7.439 C 53.79 7.272 53.91 6.979 53.91 6.559 C 53.91 6.079 53.797 5.749 53.57 5.569 C 53.337 5.389 52.997 5.299 52.55 5.299 M 52.83 9.119 L 50.97 9.119 L 50.97 12.039 L 52.73 12.039 C 53.35 12.039 53.817 11.932 54.13 11.719 C 54.45 11.499 54.61 11.122 54.61 10.589 C 54.61 9.609 54.017 9.119 52.83 9.119 ZM 57.834 9.369 L 57.834 3.769 L 59.624 3.769 L 59.624 8.769 C 59.624 9.289 59.66 9.752 59.734 10.159 C 59.807 10.566 59.93 10.909 60.104 11.189 C 60.277 11.469 60.507 11.682 60.794 11.829 C 61.087 11.969 61.454 12.039 61.894 12.039 C 62.32 12.039 62.68 11.969 62.974 11.829 C 63.267 11.682 63.5 11.469 63.674 11.189 C 63.847 10.909 63.97 10.566 64.044 10.159 C 64.117 9.752 64.154 9.289 64.154 8.769 L 64.154 3.769 L 65.954 3.769 L 65.954 9.369 C 65.954 10.742 65.61 11.819 64.924 12.599 C 64.244 13.379 63.234 13.769 61.894 13.769 C 60.547 13.769 59.534 13.379 58.854 12.599 C 58.174 11.819 57.834 10.742 57.834 9.369 ZM 75.495 13.569 L 73.635 13.569 L 71.605 9.929 L 69.785 9.929 L 69.785 13.569 L 67.995 13.569 L 67.995 3.769 L 71.575 3.769 C 73.829 3.769 74.955 4.712 74.955 6.599 C 74.955 7.299 74.809 7.869 74.515 8.309 C 74.229 8.742 73.819 9.122 73.285 9.449 L 75.495 13.569 M 71.175 5.269 L 69.785 5.269 L 69.785 8.249 L 71.105 8.249 C 71.859 8.249 72.375 8.119 72.655 7.859 C 72.935 7.606 73.075 7.226 73.075 6.719 C 73.075 6.226 72.939 5.859 72.665 5.619 C 72.399 5.386 71.902 5.269 71.175 5.269 ZM 84.499 13.569 L 83.029 13.569 L 78.549 6.849 L 78.549 13.569 L 76.759 13.569 L 76.759 3.769 L 78.519 3.769 L 82.709 10.099 L 82.709 3.769 L 84.499 3.769 L 84.499 13.569 ZM 97.437 13.569 L 95.577 13.569 L 94.737 11.199 L 91.467 11.199 L 90.627 13.569 L 88.767 13.569 L 92.257 3.769 L 93.947 3.769 L 97.437 13.569 M 94.117 9.469 L 93.097 6.599 L 92.087 9.469 L 94.117 9.469 ZM 104.377 13.569 L 98.557 13.569 L 98.557 3.769 L 100.347 3.769 L 100.347 11.829 L 104.377 11.829 L 104.377 13.569 ZM 109.097 10.349 L 107.347 10.349 L 107.347 13.569 L 105.557 13.569 L 105.557 3.769 L 108.327 3.769 C 109.033 3.769 109.653 3.809 110.187 3.889 C 110.713 3.969 111.147 4.122 111.487 4.349 C 111.833 4.576 112.093 4.892 112.267 5.299 C 112.44 5.706 112.527 6.232 112.527 6.879 C 112.527 7.559 112.42 8.122 112.207 8.569 C 111.993 9.009 111.717 9.362 111.377 9.629 C 111.043 9.896 110.673 10.082 110.267 10.189 C 109.86 10.296 109.47 10.349 109.097 10.349 M 108.817 5.269 L 107.347 5.269 L 107.347 8.669 L 108.857 8.669 C 109.523 8.669 109.997 8.536 110.277 8.269 C 110.563 8.002 110.707 7.542 110.707 6.889 C 110.707 6.602 110.677 6.356 110.617 6.149 C 110.557 5.942 110.453 5.776 110.307 5.649 C 110.16 5.516 109.967 5.419 109.727 5.359 C 109.487 5.299 109.183 5.269 108.817 5.269 ZM 122.1 13.569 L 120.31 13.569 L 120.31 9.329 L 115.69 9.329 L 115.69 13.569 L 113.9 13.569 L 113.9 3.769 L 115.69 3.769 L 115.69 7.589 L 120.31 7.589 L 120.31 3.769 L 122.1 3.769 L 122.1 13.569 ZM 131.89 13.569 L 130.03 13.569 L 129.19 11.199 L 125.92 11.199 L 125.08 13.569 L 123.22 13.569 L 126.71 3.769 L 128.4 3.769 L 131.89 13.569 M 128.57 9.469 L 127.55 6.599 L 126.54 9.469 L 128.57 9.469 Z" transform="matrix(1, 0, 0, 1, 0, 0)" style="fill: rgb(255, 255, 255); white-space: pre;"/>
  <path d="M 0 18 L 3.869 0" style="fill: none; stroke-linecap: round; stroke: rgb(134, 119, 64);" bx:origin="0 0.5"/>
</svg>