<?xml version="1.0" encoding="utf-8"?>
<svg viewBox="0 0 47.5 18" xmlns="http://www.w3.org/2000/svg" xmlns:bx="https://boxy-svg.com">
  <path d="M 19.055 13.569 L 17.185 13.569 L 16.345 6.999 L 13.845 11.509 L 11.325 7.019 L 10.485 13.569 L 8.625 13.569 L 9.975 3.769 L 11.445 3.769 L 13.845 8.239 L 16.225 3.769 L 17.695 3.769 L 19.055 13.569 ZM 28.376 13.569 L 26.516 13.569 L 25.676 11.199 L 22.406 11.199 L 21.566 13.569 L 19.706 13.569 L 23.196 3.769 L 24.886 3.769 L 28.376 13.569 M 25.056 9.469 L 24.036 6.599 L 23.026 9.469 L 25.056 9.469 ZM 39.465 13.569 L 37.595 13.569 L 36.755 6.999 L 34.255 11.509 L 31.735 7.019 L 30.895 13.569 L 29.035 13.569 L 30.385 3.769 L 31.855 3.769 L 34.255 8.239 L 36.635 3.769 L 38.105 3.769 L 39.465 13.569 ZM 47.496 13.569 L 41.086 13.569 L 41.086 3.769 L 47.356 3.769 L 47.356 5.509 L 42.916 5.509 L 42.916 7.589 L 46.366 7.589 L 46.366 9.329 L 42.916 9.329 L 42.916 11.829 L 47.496 11.829 L 47.496 13.569 Z" transform="matrix(1, 0, 0, 1, 0, 0)" style="fill: rgb(255, 255, 255); white-space: pre;"/>
  <path d="M 0 18 L 3.869 0" style="fill: none; stroke-linecap: round; stroke: rgb(134, 119, 64);" bx:origin="0 0.5"/>
</svg>