<?xml version="1.0" encoding="UTF-8" standalone="no"?>
<svg width="61px" height="18px" viewBox="0 0 61 18" version="1.1" xmlns="http://www.w3.org/2000/svg" xmlns:xlink="http://www.w3.org/1999/xlink">
    <!-- Generator: Sketch 45 (43475) - http://www.bohemiancoding.com/sketch -->
    <title>system</title>
    <desc>Created with Sketch.</desc>
    <defs></defs>
    <g id="Page-1" stroke="none" stroke-width="1" fill="none" fill-rule="evenodd">
        <path d="M16.708,14 L14.846,14 L14.006,11.634 L10.744,11.634 L9.904,14 L8.042,14 L11.528,4.2 L13.222,4.2 L16.708,14 Z M13.39,9.898 L12.368,7.028 L11.36,9.898 L13.39,9.898 Z M25.332,14 L23.47,14 L21.44,10.36 L19.62,10.36 L19.62,14 L17.828,14 L17.828,4.2 L21.412,4.2 C23.6613446,4.2 24.786,5.14265724 24.786,7.028 C24.786,7.7280035 24.6413348,8.29733114 24.352,8.736 C24.0626652,9.17466886 23.6520027,9.5573317 23.12,9.884 L25.332,14 Z M21.006,5.698 L19.62,5.698 L19.62,8.68 L20.936,8.68 C21.6920038,8.68 22.2099986,8.54933464 22.49,8.288 C22.7700014,8.02666536 22.91,7.64866914 22.91,7.154 C22.91,6.65933086 22.774668,6.29300119 22.504,6.055 C22.233332,5.81699881 21.7340036,5.698 21.006,5.698 Z M30.834,14.196 C29.4153262,14.196 28.2556712,13.7270047 27.355,12.789 C26.4543288,11.8509953 26.004,10.6213409 26.004,9.1 C26.004,7.57865906 26.4543288,6.34900469 27.355,5.411 C28.2556712,4.47299531 29.4153262,4.004 30.834,4.004 C31.9073387,4.004 32.8359961,4.19533142 33.62,4.578 L33.424,6.286 C32.4813286,5.9126648 31.6180039,5.726 30.834,5.726 C29.9099954,5.726 29.2006691,6.03399692 28.706,6.65 C28.2113309,7.26600308 27.964,8.08266158 27.964,9.1 C27.964,10.1173384 28.2113309,10.9339969 28.706,11.55 C29.2006691,12.1660031 29.9099954,12.474 30.834,12.474 C31.6180039,12.474 32.4813286,12.2873352 33.424,11.914 L33.62,13.622 C32.8359961,14.0046686 31.9073387,14.196 30.834,14.196 Z M42.748,14 L40.886,14 L40.046,11.634 L36.784,11.634 L35.944,14 L34.082,14 L37.568,4.2 L39.262,4.2 L42.748,14 Z M39.43,9.898 L38.408,7.028 L37.4,9.898 L39.43,9.898 Z M47.536,14 L43.868,14 L43.868,4.2 L47.536,4.2 C48.9640071,4.2 50.1259955,4.63866228 51.022,5.516 C51.9180045,6.39333772 52.366,7.58799244 52.366,9.1 C52.366,10.6120076 51.9180045,11.8066623 51.022,12.684 C50.1259955,13.5613377 48.9640071,14 47.536,14 Z M47.536,5.922 L45.66,5.922 L45.66,12.278 L47.536,12.278 C48.469338,12.278 49.1809975,11.9980028 49.671,11.438 C50.1610024,10.8779972 50.406,10.0986717 50.406,9.1 C50.406,8.10132834 50.1610024,7.3220028 49.671,6.762 C49.1809975,6.2019972 48.469338,5.922 47.536,5.922 Z M60.36,14 L53.948,14 L53.948,4.2 L60.22,4.2 L60.22,5.936 L55.782,5.936 L55.782,8.022 L59.226,8.022 L59.226,9.758 L55.782,9.758 L55.782,12.264 L60.36,12.264 L60.36,14 Z" id="ARCADE-Copy" fill="#FFFFFF"></path>
        <g id="system" stroke="#867740" stroke-linecap="round">
            <path d="M0.5,17.5 L4.5,0.5" id="Shape"></path>
        </g>
    </g>
</svg>