<?xml version="1.0" encoding="utf-8"?>
<svg viewBox="0 0 61 18" xmlns="http://www.w3.org/2000/svg" xmlns:bx="https://boxy-svg.com">
  <path d="M 16.715 13.569 L 14.855 13.569 L 14.015 11.199 L 10.745 11.199 L 9.905 13.569 L 8.045 13.569 L 11.535 3.769 L 13.225 3.769 L 16.715 13.569 M 13.395 9.469 L 12.375 6.599 L 11.365 9.469 L 13.395 9.469 ZM 25.335 13.569 L 23.475 13.569 L 21.445 9.929 L 19.625 9.929 L 19.625 13.569 L 17.835 13.569 L 17.835 3.769 L 21.415 3.769 C 23.668 3.769 24.795 4.712 24.795 6.599 C 24.795 7.299 24.648 7.869 24.355 8.309 C 24.068 8.742 23.658 9.122 23.125 9.449 L 25.335 13.569 M 21.015 5.269 L 19.625 5.269 L 19.625 8.249 L 20.945 8.249 C 21.698 8.249 22.215 8.119 22.495 7.859 C 22.775 7.606 22.915 7.226 22.915 6.719 C 22.915 6.226 22.778 5.859 22.505 5.619 C 22.238 5.386 21.741 5.269 21.015 5.269 ZM 30.838 13.769 C 30.138 13.769 29.492 13.646 28.898 13.399 C 28.305 13.159 27.795 12.816 27.368 12.369 C 26.935 11.916 26.602 11.379 26.368 10.759 C 26.128 10.132 26.008 9.436 26.008 8.669 C 26.008 7.902 26.128 7.206 26.368 6.579 C 26.615 5.959 26.948 5.422 27.368 4.969 C 27.795 4.522 28.305 4.179 28.898 3.939 C 29.492 3.692 30.138 3.569 30.838 3.569 C 31.905 3.569 32.835 3.762 33.628 4.149 L 33.428 5.859 C 32.502 5.486 31.638 5.299 30.838 5.299 C 30.372 5.299 29.962 5.379 29.608 5.539 C 29.255 5.706 28.955 5.936 28.708 6.229 C 28.468 6.522 28.285 6.876 28.158 7.289 C 28.032 7.702 27.968 8.162 27.968 8.669 C 27.968 9.176 28.032 9.636 28.158 10.049 C 28.285 10.462 28.468 10.816 28.708 11.109 C 28.955 11.402 29.255 11.632 29.608 11.799 C 29.962 11.959 30.372 12.039 30.838 12.039 C 31.638 12.039 32.502 11.852 33.428 11.479 L 33.628 13.189 C 32.835 13.576 31.905 13.769 30.838 13.769 ZM 42.754 13.569 L 40.894 13.569 L 40.054 11.199 L 36.784 11.199 L 35.944 13.569 L 34.084 13.569 L 37.574 3.769 L 39.264 3.769 L 42.754 13.569 M 39.434 9.469 L 38.414 6.599 L 37.404 9.469 L 39.434 9.469 ZM 47.544 13.569 L 43.874 13.569 L 43.874 3.769 L 47.544 3.769 C 48.251 3.769 48.901 3.882 49.494 4.109 C 50.087 4.342 50.594 4.669 51.014 5.089 C 51.441 5.516 51.774 6.029 52.014 6.629 C 52.254 7.236 52.374 7.916 52.374 8.669 C 52.374 9.422 52.254 10.102 52.014 10.709 C 51.774 11.316 51.441 11.829 51.014 12.249 C 50.594 12.669 50.087 12.996 49.494 13.229 C 48.901 13.456 48.251 13.569 47.544 13.569 M 47.544 5.489 L 45.664 5.489 L 45.664 11.849 L 47.544 11.849 C 48.477 11.849 49.187 11.569 49.674 11.009 C 50.167 10.456 50.414 9.676 50.414 8.669 C 50.414 7.662 50.167 6.879 49.674 6.319 C 49.187 5.766 48.477 5.489 47.544 5.489 ZM 60.364 13.569 L 53.954 13.569 L 53.954 3.769 L 60.224 3.769 L 60.224 5.509 L 55.784 5.509 L 55.784 7.589 L 59.234 7.589 L 59.234 9.329 L 55.784 9.329 L 55.784 11.829 L 60.364 11.829 L 60.364 13.569 Z" transform="matrix(1, 0, 0, 1, 0, 0)" style="fill: rgb(255, 255, 255); white-space: pre;"/>
  <path d="M 0 18 L 3.869 0" style="fill: none; stroke-linecap: round; stroke: rgb(134, 119, 64);" bx:origin="0 0.5"/>
</svg>