<?xml version="1.0" encoding="utf-8"?>
<svg viewBox="0 0 71.66 18" xmlns="http://www.w3.org/2000/svg" xmlns:bx="https://boxy-svg.com">
  <path d="M 16.585 13.569 L 14.725 13.569 L 12.695 9.929 L 10.875 9.929 L 10.875 13.569 L 9.085 13.569 L 9.085 3.769 L 12.665 3.769 C 14.918 3.769 16.045 4.712 16.045 6.599 C 16.045 7.299 15.898 7.869 15.605 8.309 C 15.318 8.742 14.908 9.122 14.375 9.449 L 16.585 13.569 M 12.265 5.269 L 10.875 5.269 L 10.875 8.249 L 12.195 8.249 C 12.948 8.249 13.465 8.119 13.745 7.859 C 14.025 7.606 14.165 7.226 14.165 6.719 C 14.165 6.226 14.028 5.859 13.755 5.619 C 13.488 5.386 12.992 5.269 12.265 5.269 ZM 24.258 13.569 L 17.848 13.569 L 17.848 3.769 L 24.118 3.769 L 24.118 5.509 L 19.678 5.509 L 19.678 7.589 L 23.128 7.589 L 23.128 9.329 L 19.678 9.329 L 19.678 11.829 L 24.258 11.829 L 24.258 13.569 ZM 32.269 5.509 L 29.489 5.509 L 29.489 13.569 L 27.699 13.569 L 27.699 5.509 L 24.929 5.509 L 24.929 3.769 L 32.269 3.769 L 32.269 5.509 ZM 41.055 13.569 L 39.195 13.569 L 37.165 9.929 L 35.345 9.929 L 35.345 13.569 L 33.555 13.569 L 33.555 3.769 L 37.135 3.769 C 39.388 3.769 40.515 4.712 40.515 6.599 C 40.515 7.299 40.368 7.869 40.075 8.309 C 39.788 8.742 39.378 9.122 38.845 9.449 L 41.055 13.569 M 36.735 5.269 L 35.345 5.269 L 35.345 8.249 L 36.665 8.249 C 37.418 8.249 37.935 8.119 38.215 7.859 C 38.495 7.606 38.635 7.226 38.635 6.719 C 38.635 6.226 38.498 5.859 38.225 5.619 C 37.958 5.386 37.461 5.269 36.735 5.269 ZM 50.028 12.369 C 49.134 13.302 47.978 13.769 46.558 13.769 C 45.858 13.769 45.211 13.646 44.618 13.399 C 44.024 13.159 43.514 12.816 43.088 12.369 C 42.654 11.916 42.321 11.379 42.088 10.759 C 41.848 10.132 41.728 9.436 41.728 8.669 C 41.728 7.902 41.848 7.206 42.088 6.579 C 42.334 5.959 42.668 5.422 43.088 4.969 C 43.514 4.522 44.024 4.179 44.618 3.939 C 45.211 3.692 45.858 3.569 46.558 3.569 C 47.258 3.569 47.904 3.692 48.498 3.939 C 49.091 4.192 49.601 4.542 50.028 4.989 C 50.461 5.436 50.794 5.972 51.028 6.599 C 51.268 7.226 51.388 7.916 51.388 8.669 C 51.388 10.202 50.934 11.436 50.028 12.369 M 48.688 6.219 C 48.194 5.606 47.484 5.299 46.558 5.299 C 46.091 5.299 45.681 5.379 45.328 5.539 C 44.974 5.706 44.674 5.936 44.428 6.229 C 44.188 6.522 44.004 6.876 43.878 7.289 C 43.751 7.702 43.688 8.162 43.688 8.669 C 43.688 9.176 43.751 9.636 43.878 10.049 C 44.004 10.462 44.188 10.816 44.428 11.109 C 44.674 11.402 44.974 11.632 45.328 11.799 C 45.681 11.959 46.091 12.039 46.558 12.039 C 47.024 12.039 47.434 11.959 47.788 11.799 C 48.141 11.632 48.441 11.402 48.688 11.109 C 48.928 10.816 49.111 10.462 49.238 10.049 C 49.364 9.636 49.428 9.176 49.428 8.669 C 49.428 7.662 49.181 6.846 48.688 6.219 ZM 56.497 10.349 L 54.747 10.349 L 54.747 13.569 L 52.957 13.569 L 52.957 3.769 L 55.727 3.769 C 56.433 3.769 57.053 3.809 57.587 3.889 C 58.113 3.969 58.547 4.122 58.887 4.349 C 59.233 4.576 59.493 4.892 59.667 5.299 C 59.84 5.706 59.927 6.232 59.927 6.879 C 59.927 7.559 59.82 8.122 59.607 8.569 C 59.393 9.009 59.117 9.362 58.777 9.629 C 58.443 9.896 58.073 10.082 57.667 10.189 C 57.26 10.296 56.87 10.349 56.497 10.349 M 56.217 5.269 L 54.747 5.269 L 54.747 8.669 L 56.257 8.669 C 56.923 8.669 57.397 8.536 57.677 8.269 C 57.963 8.002 58.107 7.542 58.107 6.889 C 58.107 6.602 58.077 6.356 58.017 6.149 C 57.957 5.942 57.853 5.776 57.707 5.649 C 57.56 5.516 57.367 5.419 57.127 5.359 C 56.887 5.299 56.583 5.269 56.217 5.269 ZM 63.09 13.569 L 61.3 13.569 L 61.3 3.769 L 63.09 3.769 L 63.09 13.569 ZM 71.658 13.569 L 65.248 13.569 L 65.248 3.769 L 71.518 3.769 L 71.518 5.509 L 67.078 5.509 L 67.078 7.589 L 70.528 7.589 L 70.528 9.329 L 67.078 9.329 L 67.078 11.829 L 71.658 11.829 L 71.658 13.569 Z" transform="matrix(1, 0, 0, 1, 0, 0)" style="fill: rgb(255, 255, 255); white-space: pre;"/>
  <path d="M 0 18 L 3.869 0" style="fill: none; stroke-linecap: round; stroke: rgb(134, 119, 64);" bx:origin="0 0.5"/>
</svg>