<?xml version="1.0" encoding="UTF-8" standalone="no"?>
<svg width="73px" height="18px" viewBox="0 0 73 18" version="1.1" xmlns="http://www.w3.org/2000/svg" xmlns:xlink="http://www.w3.org/1999/xlink">
    <!-- Generator: Sketch 45 (43475) - http://www.bohemiancoding.com/sketch -->
    <title>system</title>
    <desc>Created with Sketch.</desc>
    <defs></defs>
    <g id="Page-1" stroke="none" stroke-width="1" fill="none" fill-rule="evenodd">
        <path d="M16.582,14 L14.72,14 L12.69,10.36 L10.87,10.36 L10.87,14 L9.078,14 L9.078,4.2 L12.662,4.2 C14.9113446,4.2 16.036,5.14265724 16.036,7.028 C16.036,7.7280035 15.8913348,8.29733114 15.602,8.736 C15.3126652,9.17466886 14.9020027,9.5573317 14.37,9.884 L16.582,14 Z M12.256,5.698 L10.87,5.698 L10.87,8.68 L12.186,8.68 C12.9420038,8.68 13.4599986,8.54933464 13.74,8.288 C14.0200014,8.02666536 14.16,7.64866914 14.16,7.154 C14.16,6.65933086 14.024668,6.29300119 13.754,6.055 C13.483332,5.81699881 12.9840036,5.698 12.256,5.698 Z M24.254,14 L17.842,14 L17.842,4.2 L24.114,4.2 L24.114,5.936 L19.676,5.936 L19.676,8.022 L23.12,8.022 L23.12,9.758 L19.676,9.758 L19.676,12.264 L24.254,12.264 L24.254,14 Z M32.262,5.936 L29.49,5.936 L29.49,14 L27.698,14 L27.698,5.936 L24.926,5.936 L24.926,4.2 L32.262,4.2 L32.262,5.936 Z M41.054,14 L39.192,14 L37.162,10.36 L35.342,10.36 L35.342,14 L33.55,14 L33.55,4.2 L37.134,4.2 C39.3833446,4.2 40.508,5.14265724 40.508,7.028 C40.508,7.7280035 40.3633348,8.29733114 40.074,8.736 C39.7846652,9.17466886 39.3740027,9.5573317 38.842,9.884 L41.054,14 Z M36.728,5.698 L35.342,5.698 L35.342,8.68 L36.658,8.68 C37.4140038,8.68 37.9319986,8.54933464 38.212,8.288 C38.4920014,8.02666536 38.632,7.64866914 38.632,7.154 C38.632,6.65933086 38.496668,6.29300119 38.226,6.055 C37.955332,5.81699881 37.4560036,5.698 36.728,5.698 Z M46.556,14.196 C45.1373262,14.196 43.9776712,13.7270047 43.077,12.789 C42.1763288,11.8509953 41.726,10.6213409 41.726,9.1 C41.726,7.57865906 42.1763288,6.34900469 43.077,5.411 C43.9776712,4.47299531 45.1373262,4.004 46.556,4.004 C47.9746738,4.004 49.1343288,4.47299531 50.035,5.411 C50.9356712,6.34900469 51.386,7.57865906 51.386,9.1 C51.386,10.6213409 50.9356712,11.8509953 50.035,12.789 C49.1343288,13.7270047 47.9746738,14.196 46.556,14.196 Z M46.556,5.726 C45.6319954,5.726 44.9226691,6.03399692 44.428,6.65 C43.9333309,7.26600308 43.686,8.08266158 43.686,9.1 C43.686,10.1173384 43.9333309,10.9339969 44.428,11.55 C44.9226691,12.1660031 45.6319954,12.474 46.556,12.474 C47.4800046,12.474 48.1893309,12.1660031 48.684,11.55 C49.1786691,10.9339969 49.426,10.1173384 49.426,9.1 C49.426,8.08266158 49.1786691,7.26600308 48.684,6.65 C48.1893309,6.03399692 47.4800046,5.726 46.556,5.726 Z M56.496,10.78 L54.746,10.78 L54.746,14 L52.954,14 L52.954,4.2 L55.726,4.2 C56.463337,4.2 57.0676643,4.23733296 57.539,4.312 C58.0103357,4.38666704 58.4396647,4.53133226 58.827,4.746 C59.2143353,4.96066774 59.4943325,5.27566459 59.667,5.691 C59.8396675,6.10633541 59.926,6.64533002 59.926,7.308 C59.926,7.97066998 59.8163344,8.54233093 59.597,9.023 C59.3776656,9.50366907 59.0860018,9.86533212 58.722,10.108 C58.3579982,10.3506679 57.9940018,10.5233328 57.63,10.626 C57.2659982,10.7286672 56.888002,10.78 56.496,10.78 Z M56.216,5.698 L54.746,5.698 L54.746,9.1 L56.258,9.1 C56.92067,9.1 57.3943319,8.96700133 57.679,8.701 C57.9636681,8.43499867 58.106,7.9753366 58.106,7.322 C58.106,6.74333044 57.9730013,6.32800126 57.707,6.076 C57.4409987,5.82399874 56.9440036,5.698 56.216,5.698 Z M63.09,14 L61.298,14 L61.298,4.2 L63.09,4.2 L63.09,14 Z M71.658,14 L65.246,14 L65.246,4.2 L71.518,4.2 L71.518,5.936 L67.08,5.936 L67.08,8.022 L70.524,8.022 L70.524,9.758 L67.08,9.758 L67.08,12.264 L71.658,12.264 L71.658,14 Z" id="RETROPIE-Copy" fill="#FFFFFF"></path>
        <g id="system" stroke="#867740" stroke-linecap="round">
            <path d="M0.5,17.5 L4.5,0.5" id="Shape"></path>
        </g>
    </g>
</svg>