<?xml version="1.0" encoding="utf-8"?>
<svg viewBox="0 0 34 18" xmlns="http://www.w3.org/2000/svg" xmlns:bx="https://boxy-svg.com">
  <path d="M 16.825 13.569 L 15.355 13.569 L 10.875 6.849 L 10.875 13.569 L 9.085 13.569 L 9.085 3.769 L 10.845 3.769 L 15.035 10.099 L 15.035 3.769 L 16.825 3.769 L 16.825 13.569 ZM 25.393 13.569 L 18.983 13.569 L 18.983 3.769 L 25.253 3.769 L 25.253 5.509 L 20.813 5.509 L 20.813 7.589 L 24.263 7.589 L 24.263 9.329 L 20.813 9.329 L 20.813 11.829 L 25.393 11.829 L 25.393 13.569 ZM 29.774 13.769 C 29.074 13.769 28.434 13.699 27.854 13.559 C 27.274 13.419 26.831 13.249 26.524 13.049 L 26.734 11.009 C 27.034 11.296 27.454 11.539 27.994 11.739 C 28.528 11.939 29.134 12.039 29.814 12.039 C 30.981 12.039 31.564 11.686 31.564 10.979 C 31.564 10.772 31.518 10.589 31.424 10.429 C 31.324 10.262 31.198 10.119 31.044 9.999 C 30.891 9.879 30.721 9.776 30.534 9.689 C 30.354 9.609 30.174 9.539 29.994 9.479 L 28.684 9.019 L 28.124 8.779 C 27.538 8.539 27.108 8.249 26.834 7.909 C 26.561 7.576 26.411 7.109 26.384 6.509 C 26.384 6.136 26.454 5.776 26.594 5.429 C 26.734 5.076 26.951 4.762 27.244 4.489 C 27.531 4.216 27.898 3.996 28.344 3.829 C 28.791 3.656 29.318 3.569 29.924 3.569 C 30.238 3.569 30.548 3.592 30.854 3.639 C 31.168 3.686 31.464 3.746 31.744 3.819 C 32.024 3.886 32.278 3.966 32.504 4.059 C 32.731 4.152 32.914 4.242 33.054 4.329 L 32.864 6.159 C 31.784 5.572 30.828 5.279 29.994 5.279 C 29.754 5.279 29.528 5.299 29.314 5.339 C 29.101 5.372 28.911 5.432 28.744 5.519 C 28.584 5.606 28.454 5.712 28.354 5.839 C 28.254 5.972 28.204 6.132 28.204 6.319 C 28.204 6.559 28.264 6.746 28.384 6.879 C 28.498 7.019 28.668 7.139 28.894 7.239 C 29.128 7.346 29.418 7.452 29.764 7.559 C 30.104 7.666 30.504 7.806 30.964 7.979 L 31.724 8.279 C 31.918 8.352 32.121 8.459 32.334 8.599 C 32.548 8.739 32.748 8.912 32.934 9.119 C 33.114 9.326 33.264 9.566 33.384 9.839 C 33.504 10.112 33.564 10.422 33.564 10.769 C 33.564 11.069 33.528 11.392 33.454 11.739 C 33.381 12.079 33.214 12.402 32.954 12.709 C 32.694 13.009 32.311 13.262 31.804 13.469 C 31.298 13.669 30.621 13.769 29.774 13.769 Z" transform="matrix(1, 0, 0, 1, 0, 0)" style="fill: rgb(255, 255, 255); white-space: pre;"/>
  <path d="M 0 18 L 3.869 0" style="fill: none; stroke-linecap: round; stroke: rgb(134, 119, 64);" bx:origin="0 0.5"/>
</svg>