<?xml version="1.0" encoding="UTF-8" standalone="no"?>
<svg width="79px" height="18px" viewBox="0 0 79 18" version="1.1" xmlns="http://www.w3.org/2000/svg" xmlns:xlink="http://www.w3.org/1999/xlink">
    <!-- Generator: Sketch 45 (43475) - http://www.bohemiancoding.com/sketch -->
    <title>system</title>
    <desc>Created with Sketch.</desc>
    <defs></defs>
    <g id="Page-1" stroke="none" stroke-width="1" fill="none" fill-rule="evenodd">
        <path d="M16.82,14 L15.35,14 L10.87,7.28 L10.87,14 L9.078,14 L9.078,4.2 L10.842,4.2 L15.028,10.528 L15.028,4.2 L16.82,4.2 L16.82,14 Z M20.768,14 L18.976,14 L18.976,4.2 L20.768,4.2 L20.768,14 Z M30.666,14 L29.196,14 L24.716,7.28 L24.716,14 L22.924,14 L22.924,4.2 L24.688,4.2 L28.874,10.528 L28.874,4.2 L30.666,4.2 L30.666,14 Z M39.29,5.936 L36.518,5.936 L36.518,14 L34.726,14 L34.726,5.936 L31.954,5.936 L31.954,4.2 L39.29,4.2 L39.29,5.936 Z M46.99,14 L40.578,14 L40.578,4.2 L46.85,4.2 L46.85,5.936 L42.412,5.936 L42.412,8.022 L45.856,8.022 L45.856,9.758 L42.412,9.758 L42.412,12.264 L46.99,12.264 L46.99,14 Z M56.272,14 L54.802,14 L50.322,7.28 L50.322,14 L48.53,14 L48.53,4.2 L50.294,4.2 L54.48,10.528 L54.48,4.2 L56.272,4.2 L56.272,14 Z M62.096,14 L58.428,14 L58.428,4.2 L62.096,4.2 C63.5240071,4.2 64.6859955,4.63866228 65.582,5.516 C66.4780045,6.39333772 66.926,7.58799244 66.926,9.1 C66.926,10.6120076 66.4780045,11.8066623 65.582,12.684 C64.6859955,13.5613377 63.5240071,14 62.096,14 Z M62.096,5.922 L60.22,5.922 L60.22,12.278 L62.096,12.278 C63.029338,12.278 63.7409976,11.9980028 64.231,11.438 C64.7210024,10.8779972 64.966,10.0986717 64.966,9.1 C64.966,8.10132834 64.7210024,7.3220028 64.231,6.762 C63.7409976,6.2019972 63.029338,5.922 62.096,5.922 Z M72.75,14.196 C71.3313262,14.196 70.1716712,13.7270047 69.271,12.789 C68.3703288,11.8509953 67.92,10.6213409 67.92,9.1 C67.92,7.57865906 68.3703288,6.34900469 69.271,5.411 C70.1716712,4.47299531 71.3313262,4.004 72.75,4.004 C74.1686738,4.004 75.3283288,4.47299531 76.229,5.411 C77.1296712,6.34900469 77.58,7.57865906 77.58,9.1 C77.58,10.6213409 77.1296712,11.8509953 76.229,12.789 C75.3283288,13.7270047 74.1686738,14.196 72.75,14.196 Z M72.75,5.726 C71.8259954,5.726 71.1166691,6.03399692 70.622,6.65 C70.1273309,7.26600308 69.88,8.08266158 69.88,9.1 C69.88,10.1173384 70.1273309,10.9339969 70.622,11.55 C71.1166691,12.1660031 71.8259954,12.474 72.75,12.474 C73.6740046,12.474 74.3833309,12.1660031 74.878,11.55 C75.3726691,10.9339969 75.62,10.1173384 75.62,9.1 C75.62,8.08266158 75.3726691,7.26600308 74.878,6.65 C74.3833309,6.03399692 73.6740046,5.726 72.75,5.726 Z" id="NINTENDO-Copy" fill="#FFFFFF"></path>
        <g id="system" stroke="#867740" stroke-linecap="round">
            <path d="M0.5,17.5 L4.5,0.5" id="Shape"></path>
        </g>
    </g>
</svg>