<?xml version="1.0" encoding="UTF-8" standalone="no"?>
<svg width="102px" height="18px" viewBox="0 0 102 18" version="1.1" xmlns="http://www.w3.org/2000/svg" xmlns:xlink="http://www.w3.org/1999/xlink">
    <!-- Generator: Sketch 45 (43475) - http://www.bohemiancoding.com/sketch -->
    <title>system</title>
    <desc>Created with Sketch.</desc>
    <defs></defs>
    <g id="Page-1" stroke="none" stroke-width="1" fill="none" fill-rule="evenodd">
        <path d="M10.87,14 L9.078,14 L9.078,4.2 L10.87,4.2 L10.87,14 Z M20.768,14 L19.298,14 L14.818,7.28 L14.818,14 L13.026,14 L13.026,4.2 L14.79,4.2 L18.976,10.528 L18.976,4.2 L20.768,4.2 L20.768,14 Z M29.392,5.936 L26.62,5.936 L26.62,14 L24.828,14 L24.828,5.936 L22.056,5.936 L22.056,4.2 L29.392,4.2 L29.392,5.936 Z M37.092,14 L30.68,14 L30.68,4.2 L36.952,4.2 L36.952,5.936 L32.514,5.936 L32.514,8.022 L35.958,8.022 L35.958,9.758 L32.514,9.758 L32.514,12.264 L37.092,12.264 L37.092,14 Z M44.456,14 L38.632,14 L38.632,4.2 L40.424,4.2 L40.424,12.264 L44.456,12.264 L44.456,14 Z M51.456,14 L45.632,14 L45.632,4.2 L47.424,4.2 L47.424,12.264 L51.456,12.264 L51.456,14 Z M54.424,14 L52.632,14 L52.632,4.2 L54.424,4.2 L54.424,14 Z M64.658,4.2 L61.214,14 L59.03,14 L55.502,4.2 L57.364,4.2 L60.108,11.634 L62.81,4.2 L64.658,4.2 Z M67.57,14 L65.778,14 L65.778,4.2 L67.57,4.2 L67.57,14 Z M72.568,14.196 C71.8679965,14.196 71.2286696,14.1260007 70.65,13.986 C70.0713304,13.8459993 69.6280015,13.678001 69.32,13.482 L69.53,11.438 C69.8286682,11.7273348 70.2463306,11.9723323 70.783,12.173 C71.3196693,12.3736677 71.9286633,12.474 72.61,12.474 C73.7766725,12.474 74.36,12.1193369 74.36,11.41 C74.36,11.213999 74.3133338,11.0366675 74.22,10.878 C74.1266662,10.7193325 74.0263339,10.5886672 73.919,10.486 C73.8116661,10.3833328 73.6320013,10.2736672 73.38,10.157 C73.1279987,10.0403328 72.9320007,9.95633359 72.792,9.905 C72.6519993,9.85366641 72.4140017,9.77200056 72.078,9.66 C71.7886652,9.5666662 71.5880006,9.4966669 71.476,9.45 L70.916,9.212 C70.6546654,9.10933282 70.4633339,9.01833373 70.342,8.939 C70.2206661,8.85966627 70.0713342,8.74766739 69.894,8.603 C69.7166658,8.45833261 69.5860004,8.31133408 69.502,8.162 C69.4179996,8.01266592 69.3433337,7.83300105 69.278,7.623 C69.2126663,7.41299895 69.18,7.18666788 69.18,6.944 C69.18,6.17866284 69.4693304,5.49733632 70.048,4.9 C70.6266696,4.30266368 71.517994,4.004 72.722,4.004 C73.3473365,4.004 73.9516637,4.08333254 74.535,4.242 C75.1183362,4.40066746 75.5546652,4.5733324 75.844,4.76 L75.662,6.594 C74.5886613,6.00599706 73.6320042,5.712 72.792,5.712 C72.3159976,5.712 71.8983351,5.79133254 71.539,5.95 C71.1796649,6.10866746 71,6.3746648 71,6.748 C71,7.10266844 71.1633317,7.37566571 71.49,7.567 C71.8166683,7.75833429 72.31133,7.95666564 72.974,8.162 C73.3193351,8.26466718 73.5829991,8.34866634 73.765,8.414 C73.9470009,8.47933366 74.1966651,8.57733268 74.514,8.708 C74.8313349,8.83866732 75.0786658,8.97633261 75.256,9.121 C75.4333342,9.26566739 75.6176657,9.44299895 75.809,9.653 C76.0003343,9.86300105 76.1403329,10.1103319 76.229,10.395 C76.3176671,10.6796681 76.362,10.9946649 76.362,11.34 C76.362,11.6013346 76.3386669,11.8463322 76.292,12.075 C76.2453331,12.3036678 76.1403342,12.553332 75.977,12.824 C75.8136659,13.094668 75.5990013,13.3256657 75.333,13.517 C75.0669987,13.7083343 74.6983357,13.8693327 74.227,14 C73.7556643,14.1306673 73.2026698,14.196 72.568,14.196 Z M79.638,14 L77.846,14 L77.846,4.2 L79.638,4.2 L79.638,14 Z M86.036,14.196 C84.6173262,14.196 83.4576712,13.7270047 82.557,12.789 C81.6563288,11.8509953 81.206,10.6213409 81.206,9.1 C81.206,7.57865906 81.6563288,6.34900469 82.557,5.411 C83.4576712,4.47299531 84.6173262,4.004 86.036,4.004 C87.4546738,4.004 88.6143288,4.47299531 89.515,5.411 C90.4156712,6.34900469 90.866,7.57865906 90.866,9.1 C90.866,10.6213409 90.4156712,11.8509953 89.515,12.789 C88.6143288,13.7270047 87.4546738,14.196 86.036,14.196 Z M86.036,5.726 C85.1119954,5.726 84.4026691,6.03399692 83.908,6.65 C83.4133309,7.26600308 83.166,8.08266158 83.166,9.1 C83.166,10.1173384 83.4133309,10.9339969 83.908,11.55 C84.4026691,12.1660031 85.1119954,12.474 86.036,12.474 C86.9600046,12.474 87.6693309,12.1660031 88.164,11.55 C88.6586691,10.9339969 88.906,10.1173384 88.906,9.1 C88.906,8.08266158 88.6586691,7.26600308 88.164,6.65 C87.6693309,6.03399692 86.9600046,5.726 86.036,5.726 Z M100.176,14 L98.706,14 L94.226,7.28 L94.226,14 L92.434,14 L92.434,4.2 L94.198,4.2 L98.384,10.528 L98.384,4.2 L100.176,4.2 L100.176,14 Z" id="INTELLIVISION-Copy" fill="#FFFFFF"></path>
        <g id="system" stroke="#867740" stroke-linecap="round">
            <path d="M0.5,17.5 L4.5,0.5" id="Shape"></path>
        </g>
    </g>
</svg>