<?xml version="1.0" encoding="utf-8"?>
<svg viewBox="0 0 100.17 18" xmlns="http://www.w3.org/2000/svg" xmlns:bx="https://boxy-svg.com">
  <path d="M 10.875 13.569 L 9.085 13.569 L 9.085 3.769 L 10.875 3.769 L 10.875 13.569 ZM 20.773 13.569 L 19.303 13.569 L 14.823 6.849 L 14.823 13.569 L 13.033 13.569 L 13.033 3.769 L 14.793 3.769 L 18.983 10.099 L 18.983 3.769 L 20.773 3.769 L 20.773 13.569 ZM 29.4 5.509 L 26.62 5.509 L 26.62 13.569 L 24.83 13.569 L 24.83 5.509 L 22.06 5.509 L 22.06 3.769 L 29.4 3.769 L 29.4 5.509 ZM 37.095 13.569 L 30.685 13.569 L 30.685 3.769 L 36.955 3.769 L 36.955 5.509 L 32.515 5.509 L 32.515 7.589 L 35.965 7.589 L 35.965 9.329 L 32.515 9.329 L 32.515 11.829 L 37.095 11.829 L 37.095 13.569 ZM 44.456 13.569 L 38.636 13.569 L 38.636 3.769 L 40.426 3.769 L 40.426 11.829 L 44.456 11.829 L 44.456 13.569 ZM 51.456 13.569 L 45.636 13.569 L 45.636 3.769 L 47.426 3.769 L 47.426 11.829 L 51.456 11.829 L 51.456 13.569 ZM 54.425 13.569 L 52.635 13.569 L 52.635 3.769 L 54.425 3.769 L 54.425 13.569 ZM 64.662 3.769 L 61.212 13.569 L 59.032 13.569 L 55.502 3.769 L 57.362 3.769 L 60.112 11.199 L 62.812 3.769 L 64.662 3.769 ZM 67.57 13.569 L 65.78 13.569 L 65.78 3.769 L 67.57 3.769 L 67.57 13.569 ZM 72.567 13.769 C 71.867 13.769 71.227 13.699 70.647 13.559 C 70.067 13.419 69.624 13.249 69.317 13.049 L 69.527 11.009 C 69.827 11.296 70.247 11.539 70.787 11.739 C 71.321 11.939 71.927 12.039 72.607 12.039 C 73.774 12.039 74.357 11.686 74.357 10.979 C 74.357 10.772 74.311 10.589 74.217 10.429 C 74.117 10.262 73.991 10.119 73.837 9.999 C 73.684 9.879 73.514 9.776 73.327 9.689 C 73.147 9.609 72.967 9.539 72.787 9.479 L 71.477 9.019 L 70.917 8.779 C 70.331 8.539 69.901 8.249 69.627 7.909 C 69.354 7.576 69.204 7.109 69.177 6.509 C 69.177 6.136 69.247 5.776 69.387 5.429 C 69.527 5.076 69.744 4.762 70.037 4.489 C 70.324 4.216 70.691 3.996 71.137 3.829 C 71.584 3.656 72.111 3.569 72.717 3.569 C 73.031 3.569 73.341 3.592 73.647 3.639 C 73.961 3.686 74.257 3.746 74.537 3.819 C 74.817 3.886 75.071 3.966 75.297 4.059 C 75.524 4.152 75.707 4.242 75.847 4.329 L 75.657 6.159 C 74.577 5.572 73.621 5.279 72.787 5.279 C 72.547 5.279 72.321 5.299 72.107 5.339 C 71.894 5.372 71.704 5.432 71.537 5.519 C 71.377 5.606 71.247 5.712 71.147 5.839 C 71.047 5.972 70.997 6.132 70.997 6.319 C 70.997 6.559 71.057 6.746 71.177 6.879 C 71.291 7.019 71.461 7.139 71.687 7.239 C 71.921 7.346 72.211 7.452 72.557 7.559 C 72.897 7.666 73.297 7.806 73.757 7.979 L 74.517 8.279 C 74.711 8.352 74.914 8.459 75.127 8.599 C 75.341 8.739 75.541 8.912 75.727 9.119 C 75.907 9.326 76.057 9.566 76.177 9.839 C 76.297 10.112 76.357 10.422 76.357 10.769 C 76.357 11.069 76.321 11.392 76.247 11.739 C 76.174 12.079 76.007 12.402 75.747 12.709 C 75.487 13.009 75.104 13.262 74.597 13.469 C 74.091 13.669 73.414 13.769 72.567 13.769 ZM 79.636 13.569 L 77.846 13.569 L 77.846 3.769 L 79.636 3.769 L 79.636 13.569 ZM 89.504 12.369 C 88.611 13.302 87.454 13.769 86.034 13.769 C 85.334 13.769 84.687 13.646 84.094 13.399 C 83.501 13.159 82.991 12.816 82.564 12.369 C 82.131 11.916 81.797 11.379 81.564 10.759 C 81.324 10.132 81.204 9.436 81.204 8.669 C 81.204 7.902 81.324 7.206 81.564 6.579 C 81.811 5.959 82.144 5.422 82.564 4.969 C 82.991 4.522 83.501 4.179 84.094 3.939 C 84.687 3.692 85.334 3.569 86.034 3.569 C 86.734 3.569 87.381 3.692 87.974 3.939 C 88.567 4.192 89.077 4.542 89.504 4.989 C 89.937 5.436 90.271 5.972 90.504 6.599 C 90.744 7.226 90.864 7.916 90.864 8.669 C 90.864 10.202 90.411 11.436 89.504 12.369 M 88.164 6.219 C 87.671 5.606 86.961 5.299 86.034 5.299 C 85.567 5.299 85.157 5.379 84.804 5.539 C 84.451 5.706 84.151 5.936 83.904 6.229 C 83.664 6.522 83.481 6.876 83.354 7.289 C 83.227 7.702 83.164 8.162 83.164 8.669 C 83.164 9.176 83.227 9.636 83.354 10.049 C 83.481 10.462 83.664 10.816 83.904 11.109 C 84.151 11.402 84.451 11.632 84.804 11.799 C 85.157 11.959 85.567 12.039 86.034 12.039 C 86.501 12.039 86.911 11.959 87.264 11.799 C 87.617 11.632 87.917 11.402 88.164 11.109 C 88.404 10.816 88.587 10.462 88.714 10.049 C 88.841 9.636 88.904 9.176 88.904 8.669 C 88.904 7.662 88.657 6.846 88.164 6.219 ZM 100.173 13.569 L 98.703 13.569 L 94.223 6.849 L 94.223 13.569 L 92.433 13.569 L 92.433 3.769 L 94.193 3.769 L 98.383 10.099 L 98.383 3.769 L 100.173 3.769 L 100.173 13.569 Z" transform="matrix(1, 0, 0, 1, 0, 0)" style="fill: rgb(255, 255, 255); white-space: pre;"/>
  <path d="M 0 18 L 3.869 0" style="fill: none; stroke-linecap: round; stroke: rgb(134, 119, 64);" bx:origin="0 0.5"/>
</svg>