<?xml version="1.0" encoding="UTF-8" standalone="no"?>
<svg width="37px" height="18px" viewBox="0 0 37 18" version="1.1" xmlns="http://www.w3.org/2000/svg" xmlns:xlink="http://www.w3.org/1999/xlink">
    <!-- Generator: Sketch 45 (43475) - http://www.bohemiancoding.com/sketch -->
    <title>system</title>
    <desc>Created with Sketch.</desc>
    <defs></defs>
    <g id="Page-1" stroke="none" stroke-width="1" fill="none" fill-rule="evenodd">
        <path d="M12.746,14 L9.078,14 L9.078,4.2 L12.746,4.2 C14.1740071,4.2 15.3359955,4.63866228 16.232,5.516 C17.1280045,6.39333772 17.576,7.58799244 17.576,9.1 C17.576,10.6120076 17.1280045,11.8066623 16.232,12.684 C15.3359955,13.5613377 14.1740071,14 12.746,14 Z M12.746,5.922 L10.87,5.922 L10.87,12.278 L12.746,12.278 C13.679338,12.278 14.3909976,11.9980028 14.881,11.438 C15.3710025,10.8779972 15.616,10.0986717 15.616,9.1 C15.616,8.10132834 15.3710025,7.3220028 14.881,6.762 C14.3909976,6.2019972 13.679338,5.922 12.746,5.922 Z M23.4,14.196 C21.9813262,14.196 20.8216712,13.7270047 19.921,12.789 C19.0203288,11.8509953 18.57,10.6213409 18.57,9.1 C18.57,7.57865906 19.0203288,6.34900469 19.921,5.411 C20.8216712,4.47299531 21.9813262,4.004 23.4,4.004 C24.8186738,4.004 25.9783288,4.47299531 26.879,5.411 C27.7796712,6.34900469 28.23,7.57865906 28.23,9.1 C28.23,10.6213409 27.7796712,11.8509953 26.879,12.789 C25.9783288,13.7270047 24.8186738,14.196 23.4,14.196 Z M23.4,5.726 C22.4759954,5.726 21.7666691,6.03399692 21.272,6.65 C20.7773309,7.26600308 20.53,8.08266158 20.53,9.1 C20.53,10.1173384 20.7773309,10.9339969 21.272,11.55 C21.7666691,12.1660031 22.4759954,12.474 23.4,12.474 C24.3240046,12.474 25.0333309,12.1660031 25.528,11.55 C26.0226691,10.9339969 26.27,10.1173384 26.27,9.1 C26.27,8.08266158 26.0226691,7.26600308 25.528,6.65 C25.0333309,6.03399692 24.3240046,5.726 23.4,5.726 Z M32.64,14.196 C31.9399965,14.196 31.3006696,14.1260007 30.722,13.986 C30.1433304,13.8459993 29.7000015,13.678001 29.392,13.482 L29.602,11.438 C29.9006682,11.7273348 30.3183307,11.9723323 30.855,12.173 C31.3916694,12.3736677 32.0006633,12.474 32.682,12.474 C33.8486725,12.474 34.432,12.1193369 34.432,11.41 C34.432,11.213999 34.3853338,11.0366675 34.292,10.878 C34.1986662,10.7193325 34.0983339,10.5886672 33.991,10.486 C33.8836661,10.3833328 33.7040013,10.2736672 33.452,10.157 C33.1999987,10.0403328 33.0040007,9.95633359 32.864,9.905 C32.7239993,9.85366641 32.4860017,9.77200056 32.15,9.66 C31.8606652,9.5666662 31.6600006,9.4966669 31.548,9.45 L30.988,9.212 C30.7266654,9.10933282 30.5353339,9.01833373 30.414,8.939 C30.2926661,8.85966627 30.1433342,8.74766739 29.966,8.603 C29.7886658,8.45833261 29.6580004,8.31133408 29.574,8.162 C29.4899996,8.01266592 29.4153337,7.83300105 29.35,7.623 C29.2846663,7.41299895 29.252,7.18666788 29.252,6.944 C29.252,6.17866284 29.5413304,5.49733632 30.12,4.9 C30.6986696,4.30266368 31.589994,4.004 32.794,4.004 C33.4193365,4.004 34.0236637,4.08333254 34.607,4.242 C35.1903363,4.40066746 35.6266652,4.5733324 35.916,4.76 L35.734,6.594 C34.6606613,6.00599706 33.7040042,5.712 32.864,5.712 C32.3879976,5.712 31.9703351,5.79133254 31.611,5.95 C31.2516649,6.10866746 31.072,6.3746648 31.072,6.748 C31.072,7.10266844 31.2353317,7.37566571 31.562,7.567 C31.8886683,7.75833429 32.38333,7.95666564 33.046,8.162 C33.3913351,8.26466718 33.6549991,8.34866634 33.837,8.414 C34.0190009,8.47933366 34.2686651,8.57733268 34.586,8.708 C34.9033349,8.83866732 35.1506658,8.97633261 35.328,9.121 C35.5053342,9.26566739 35.6896657,9.44299895 35.881,9.653 C36.0723343,9.86300105 36.2123329,10.1103319 36.301,10.395 C36.3896671,10.6796681 36.434,10.9946649 36.434,11.34 C36.434,11.6013346 36.4106669,11.8463322 36.364,12.075 C36.3173331,12.3036678 36.2123341,12.553332 36.049,12.824 C35.8856659,13.094668 35.6710013,13.3256657 35.405,13.517 C35.1389987,13.7083343 34.7703357,13.8693327 34.299,14 C33.8276643,14.1306673 33.2746698,14.196 32.64,14.196 Z" id="DOS-Copy" fill="#FFFFFF"></path>
        <g id="system" stroke="#867740" stroke-linecap="round">
            <path d="M0.5,17.5 L4.5,0.5" id="Shape"></path>
        </g>
    </g>
</svg>