<?xml version="1.0" encoding="utf-8"?>
<svg viewBox="0 0 36.83 18" xmlns="http://www.w3.org/2000/svg" xmlns:bx="https://boxy-svg.com">
  <path d="M 12.755 13.569 L 9.085 13.569 L 9.085 3.769 L 12.755 3.769 C 13.462 3.769 14.112 3.882 14.705 4.109 C 15.298 4.342 15.805 4.669 16.225 5.089 C 16.652 5.516 16.985 6.029 17.225 6.629 C 17.465 7.236 17.585 7.916 17.585 8.669 C 17.585 9.422 17.465 10.102 17.225 10.709 C 16.985 11.316 16.652 11.829 16.225 12.249 C 15.805 12.669 15.298 12.996 14.705 13.229 C 14.112 13.456 13.462 13.569 12.755 13.569 M 12.755 5.489 L 10.875 5.489 L 10.875 11.849 L 12.755 11.849 C 13.688 11.849 14.398 11.569 14.885 11.009 C 15.378 10.456 15.625 9.676 15.625 8.669 C 15.625 7.662 15.378 6.879 14.885 6.319 C 14.398 5.766 13.688 5.489 12.755 5.489 ZM 26.875 12.369 C 25.981 13.302 24.825 13.769 23.405 13.769 C 22.705 13.769 22.058 13.646 21.465 13.399 C 20.871 13.159 20.361 12.816 19.935 12.369 C 19.501 11.916 19.168 11.379 18.935 10.759 C 18.695 10.132 18.575 9.436 18.575 8.669 C 18.575 7.902 18.695 7.206 18.935 6.579 C 19.181 5.959 19.515 5.422 19.935 4.969 C 20.361 4.522 20.871 4.179 21.465 3.939 C 22.058 3.692 22.705 3.569 23.405 3.569 C 24.105 3.569 24.751 3.692 25.345 3.939 C 25.938 4.192 26.448 4.542 26.875 4.989 C 27.308 5.436 27.641 5.972 27.875 6.599 C 28.115 7.226 28.235 7.916 28.235 8.669 C 28.235 10.202 27.781 11.436 26.875 12.369 M 25.535 6.219 C 25.041 5.606 24.331 5.299 23.405 5.299 C 22.938 5.299 22.528 5.379 22.175 5.539 C 21.821 5.706 21.521 5.936 21.275 6.229 C 21.035 6.522 20.851 6.876 20.725 7.289 C 20.598 7.702 20.535 8.162 20.535 8.669 C 20.535 9.176 20.598 9.636 20.725 10.049 C 20.851 10.462 21.035 10.816 21.275 11.109 C 21.521 11.402 21.821 11.632 22.175 11.799 C 22.528 11.959 22.938 12.039 23.405 12.039 C 23.871 12.039 24.281 11.959 24.635 11.799 C 24.988 11.632 25.288 11.402 25.535 11.109 C 25.775 10.816 25.958 10.462 26.085 10.049 C 26.211 9.636 26.275 9.176 26.275 8.669 C 26.275 7.662 26.028 6.846 25.535 6.219 ZM 32.644 13.769 C 31.944 13.769 31.304 13.699 30.724 13.559 C 30.144 13.419 29.701 13.249 29.394 13.049 L 29.604 11.009 C 29.904 11.296 30.324 11.539 30.864 11.739 C 31.398 11.939 32.004 12.039 32.684 12.039 C 33.851 12.039 34.434 11.686 34.434 10.979 C 34.434 10.772 34.388 10.589 34.294 10.429 C 34.194 10.262 34.068 10.119 33.914 9.999 C 33.761 9.879 33.591 9.776 33.404 9.689 C 33.224 9.609 33.044 9.539 32.864 9.479 L 31.554 9.019 L 30.994 8.779 C 30.408 8.539 29.978 8.249 29.704 7.909 C 29.431 7.576 29.281 7.109 29.254 6.509 C 29.254 6.136 29.324 5.776 29.464 5.429 C 29.604 5.076 29.821 4.762 30.114 4.489 C 30.401 4.216 30.768 3.996 31.214 3.829 C 31.661 3.656 32.188 3.569 32.794 3.569 C 33.108 3.569 33.418 3.592 33.724 3.639 C 34.038 3.686 34.334 3.746 34.614 3.819 C 34.894 3.886 35.148 3.966 35.374 4.059 C 35.601 4.152 35.784 4.242 35.924 4.329 L 35.734 6.159 C 34.654 5.572 33.698 5.279 32.864 5.279 C 32.624 5.279 32.398 5.299 32.184 5.339 C 31.971 5.372 31.781 5.432 31.614 5.519 C 31.454 5.606 31.324 5.712 31.224 5.839 C 31.124 5.972 31.074 6.132 31.074 6.319 C 31.074 6.559 31.134 6.746 31.254 6.879 C 31.368 7.019 31.538 7.139 31.764 7.239 C 31.998 7.346 32.288 7.452 32.634 7.559 C 32.974 7.666 33.374 7.806 33.834 7.979 L 34.594 8.279 C 34.788 8.352 34.991 8.459 35.204 8.599 C 35.418 8.739 35.618 8.912 35.804 9.119 C 35.984 9.326 36.134 9.566 36.254 9.839 C 36.374 10.112 36.434 10.422 36.434 10.769 C 36.434 11.069 36.398 11.392 36.324 11.739 C 36.251 12.079 36.084 12.402 35.824 12.709 C 35.564 13.009 35.181 13.262 34.674 13.469 C 34.168 13.669 33.491 13.769 32.644 13.769 Z" transform="matrix(1, 0, 0, 1, 0, 0)" style="fill: rgb(255, 255, 255); white-space: pre;"/>
  <path d="M 0 18 L 3.869 0" style="fill: none; stroke-linecap: round; stroke: rgb(134, 119, 64);" bx:origin="0 0.5"/>
</svg>