<?xml version="1.0" encoding="utf-8"?>
<svg viewBox="0 0 121.22 18" xmlns="http://www.w3.org/2000/svg" xmlns:bx="https://boxy-svg.com">
  <path d="M 13.285 13.769 C 12.592 13.769 11.952 13.646 11.365 13.399 C 10.778 13.159 10.272 12.816 9.845 12.369 C 9.418 11.916 9.088 11.376 8.855 10.749 C 8.615 10.116 8.495 9.419 8.495 8.659 C 8.495 7.899 8.615 7.206 8.855 6.579 C 9.088 5.959 9.422 5.426 9.855 4.979 C 10.282 4.539 10.798 4.192 11.405 3.939 C 12.005 3.692 12.665 3.569 13.385 3.569 C 13.618 3.569 13.872 3.586 14.145 3.619 C 14.418 3.646 14.688 3.682 14.955 3.729 C 15.222 3.782 15.475 3.846 15.715 3.919 C 15.948 3.986 16.152 4.062 16.325 4.149 L 16.125 5.859 C 15.232 5.486 14.332 5.299 13.425 5.299 C 12.932 5.299 12.498 5.376 12.125 5.529 C 11.758 5.689 11.452 5.916 11.205 6.209 C 10.958 6.502 10.772 6.852 10.645 7.259 C 10.518 7.666 10.455 8.122 10.455 8.629 C 10.455 9.149 10.522 9.619 10.655 10.039 C 10.782 10.459 10.975 10.816 11.235 11.109 C 11.502 11.402 11.822 11.632 12.195 11.799 C 12.575 11.959 13.012 12.039 13.505 12.039 C 13.892 12.039 14.342 11.989 14.855 11.889 L 14.855 10.139 L 13.775 10.139 L 13.775 8.659 L 16.645 8.659 L 16.645 13.019 C 16.478 13.126 16.258 13.222 15.985 13.309 C 15.712 13.396 15.422 13.476 15.115 13.549 C 14.802 13.616 14.482 13.669 14.155 13.709 C 13.835 13.749 13.545 13.769 13.285 13.769 ZM 26.01 13.569 L 24.15 13.569 L 23.31 11.199 L 20.04 11.199 L 19.2 13.569 L 17.34 13.569 L 20.83 3.769 L 22.52 3.769 L 26.01 13.569 M 22.69 9.469 L 21.67 6.599 L 20.66 9.469 L 22.69 9.469 ZM 37.099 13.569 L 35.229 13.569 L 34.389 6.999 L 31.889 11.509 L 29.369 7.019 L 28.529 13.569 L 26.669 13.569 L 28.019 3.769 L 29.489 3.769 L 31.889 8.239 L 34.269 3.769 L 35.739 3.769 L 37.099 13.569 ZM 45.13 13.569 L 38.72 13.569 L 38.72 3.769 L 44.99 3.769 L 44.99 5.509 L 40.55 5.509 L 40.55 7.589 L 44 7.589 L 44 9.329 L 40.55 9.329 L 40.55 11.829 L 45.13 11.829 L 45.13 13.569 ZM 50.451 13.569 L 46.671 13.569 L 46.671 3.769 L 49.311 3.769 C 49.885 3.769 50.401 3.799 50.861 3.859 C 51.321 3.919 51.715 4.039 52.041 4.219 C 52.368 4.406 52.621 4.662 52.801 4.989 C 52.981 5.316 53.071 5.749 53.071 6.289 C 53.071 7.182 52.795 7.862 52.241 8.329 C 52.828 8.556 53.261 8.852 53.541 9.219 C 53.815 9.579 53.951 10.069 53.951 10.689 C 53.951 11.229 53.851 11.682 53.651 12.049 C 53.451 12.416 53.188 12.712 52.861 12.939 C 52.535 13.166 52.161 13.326 51.741 13.419 C 51.321 13.519 50.891 13.569 50.451 13.569 M 50.041 5.299 L 48.461 5.299 L 48.461 7.699 L 50.211 7.699 C 50.531 7.699 50.808 7.612 51.041 7.439 C 51.281 7.272 51.401 6.979 51.401 6.559 C 51.401 6.079 51.288 5.749 51.061 5.569 C 50.828 5.389 50.488 5.299 50.041 5.299 M 50.321 9.119 L 48.461 9.119 L 48.461 12.039 L 50.221 12.039 C 50.841 12.039 51.308 11.932 51.621 11.719 C 51.941 11.499 52.101 11.122 52.101 10.589 C 52.101 9.609 51.508 9.119 50.321 9.119 ZM 63.145 12.369 C 62.251 13.302 61.095 13.769 59.675 13.769 C 58.975 13.769 58.328 13.646 57.735 13.399 C 57.141 13.159 56.631 12.816 56.205 12.369 C 55.771 11.916 55.438 11.379 55.205 10.759 C 54.965 10.132 54.845 9.436 54.845 8.669 C 54.845 7.902 54.965 7.206 55.205 6.579 C 55.451 5.959 55.785 5.422 56.205 4.969 C 56.631 4.522 57.141 4.179 57.735 3.939 C 58.328 3.692 58.975 3.569 59.675 3.569 C 60.375 3.569 61.021 3.692 61.615 3.939 C 62.208 4.192 62.718 4.542 63.145 4.989 C 63.578 5.436 63.911 5.972 64.145 6.599 C 64.385 7.226 64.505 7.916 64.505 8.669 C 64.505 10.202 64.051 11.436 63.145 12.369 M 61.805 6.219 C 61.311 5.606 60.601 5.299 59.675 5.299 C 59.208 5.299 58.798 5.379 58.445 5.539 C 58.091 5.706 57.791 5.936 57.545 6.229 C 57.305 6.522 57.121 6.876 56.995 7.289 C 56.868 7.702 56.805 8.162 56.805 8.669 C 56.805 9.176 56.868 9.636 56.995 10.049 C 57.121 10.462 57.305 10.816 57.545 11.109 C 57.791 11.402 58.091 11.632 58.445 11.799 C 58.798 11.959 59.208 12.039 59.675 12.039 C 60.141 12.039 60.551 11.959 60.905 11.799 C 61.258 11.632 61.558 11.402 61.805 11.109 C 62.045 10.816 62.228 10.462 62.355 10.049 C 62.481 9.636 62.545 9.176 62.545 8.669 C 62.545 7.662 62.298 6.846 61.805 6.219 ZM 73.1 3.769 L 69.71 9.229 L 69.71 13.569 L 67.92 13.569 L 67.92 9.229 L 64.53 3.769 L 66.44 3.769 L 68.82 7.629 L 71.2 3.769 L 73.1 3.769 ZM 81.47 13.769 C 80.77 13.769 80.124 13.646 79.53 13.399 C 78.937 13.159 78.427 12.816 78 12.369 C 77.567 11.916 77.234 11.379 77 10.759 C 76.76 10.132 76.64 9.436 76.64 8.669 C 76.64 7.902 76.76 7.206 77 6.579 C 77.247 5.959 77.58 5.422 78 4.969 C 78.427 4.522 78.937 4.179 79.53 3.939 C 80.124 3.692 80.77 3.569 81.47 3.569 C 82.537 3.569 83.467 3.762 84.26 4.149 L 84.06 5.859 C 83.134 5.486 82.27 5.299 81.47 5.299 C 81.004 5.299 80.594 5.379 80.24 5.539 C 79.887 5.706 79.587 5.936 79.34 6.229 C 79.1 6.522 78.917 6.876 78.79 7.289 C 78.664 7.702 78.6 8.162 78.6 8.669 C 78.6 9.176 78.664 9.636 78.79 10.049 C 78.917 10.462 79.1 10.816 79.34 11.109 C 79.587 11.402 79.887 11.632 80.24 11.799 C 80.594 11.959 81.004 12.039 81.47 12.039 C 82.27 12.039 83.134 11.852 84.06 11.479 L 84.26 13.189 C 83.467 13.576 82.537 13.769 81.47 13.769 ZM 93.34 12.369 C 92.446 13.302 91.29 13.769 89.87 13.769 C 89.17 13.769 88.523 13.646 87.93 13.399 C 87.336 13.159 86.826 12.816 86.4 12.369 C 85.966 11.916 85.633 11.379 85.4 10.759 C 85.16 10.132 85.04 9.436 85.04 8.669 C 85.04 7.902 85.16 7.206 85.4 6.579 C 85.646 5.959 85.98 5.422 86.4 4.969 C 86.826 4.522 87.336 4.179 87.93 3.939 C 88.523 3.692 89.17 3.569 89.87 3.569 C 90.57 3.569 91.216 3.692 91.81 3.939 C 92.403 4.192 92.913 4.542 93.34 4.989 C 93.773 5.436 94.106 5.972 94.34 6.599 C 94.58 7.226 94.7 7.916 94.7 8.669 C 94.7 10.202 94.246 11.436 93.34 12.369 M 92 6.219 C 91.506 5.606 90.796 5.299 89.87 5.299 C 89.403 5.299 88.993 5.379 88.64 5.539 C 88.286 5.706 87.986 5.936 87.74 6.229 C 87.5 6.522 87.316 6.876 87.19 7.289 C 87.063 7.702 87 8.162 87 8.669 C 87 9.176 87.063 9.636 87.19 10.049 C 87.316 10.462 87.5 10.816 87.74 11.109 C 87.986 11.402 88.286 11.632 88.64 11.799 C 88.993 11.959 89.403 12.039 89.87 12.039 C 90.336 12.039 90.746 11.959 91.1 11.799 C 91.453 11.632 91.753 11.402 92 11.109 C 92.24 10.816 92.423 10.462 92.55 10.049 C 92.676 9.636 92.74 9.176 92.74 8.669 C 92.74 7.662 92.493 6.846 92 6.219 ZM 102.089 13.569 L 96.269 13.569 L 96.269 3.769 L 98.059 3.769 L 98.059 11.829 L 102.089 11.829 L 102.089 13.569 ZM 110.796 12.369 C 109.903 13.302 108.746 13.769 107.326 13.769 C 106.626 13.769 105.979 13.646 105.386 13.399 C 104.793 13.159 104.283 12.816 103.856 12.369 C 103.423 11.916 103.089 11.379 102.856 10.759 C 102.616 10.132 102.496 9.436 102.496 8.669 C 102.496 7.902 102.616 7.206 102.856 6.579 C 103.103 5.959 103.436 5.422 103.856 4.969 C 104.283 4.522 104.793 4.179 105.386 3.939 C 105.979 3.692 106.626 3.569 107.326 3.569 C 108.026 3.569 108.673 3.692 109.266 3.939 C 109.859 4.192 110.369 4.542 110.796 4.989 C 111.229 5.436 111.563 5.972 111.796 6.599 C 112.036 7.226 112.156 7.916 112.156 8.669 C 112.156 10.202 111.703 11.436 110.796 12.369 M 109.456 6.219 C 108.963 5.606 108.253 5.299 107.326 5.299 C 106.859 5.299 106.449 5.379 106.096 5.539 C 105.743 5.706 105.443 5.936 105.196 6.229 C 104.956 6.522 104.773 6.876 104.646 7.289 C 104.519 7.702 104.456 8.162 104.456 8.669 C 104.456 9.176 104.519 9.636 104.646 10.049 C 104.773 10.462 104.956 10.816 105.196 11.109 C 105.443 11.402 105.743 11.632 106.096 11.799 C 106.449 11.959 106.859 12.039 107.326 12.039 C 107.793 12.039 108.203 11.959 108.556 11.799 C 108.909 11.632 109.209 11.402 109.456 11.109 C 109.696 10.816 109.879 10.462 110.006 10.049 C 110.133 9.636 110.196 9.176 110.196 8.669 C 110.196 7.662 109.949 6.846 109.456 6.219 ZM 121.225 13.569 L 119.365 13.569 L 117.335 9.929 L 115.515 9.929 L 115.515 13.569 L 113.725 13.569 L 113.725 3.769 L 117.305 3.769 C 119.558 3.769 120.685 4.712 120.685 6.599 C 120.685 7.299 120.538 7.869 120.245 8.309 C 119.958 8.742 119.548 9.122 119.015 9.449 L 121.225 13.569 M 116.905 5.269 L 115.515 5.269 L 115.515 8.249 L 116.835 8.249 C 117.588 8.249 118.105 8.119 118.385 7.859 C 118.665 7.606 118.805 7.226 118.805 6.719 C 118.805 6.226 118.668 5.859 118.395 5.619 C 118.128 5.386 117.632 5.269 116.905 5.269 Z" transform="matrix(1, 0, 0, 1, 0, 0)" style="fill: rgb(255, 255, 255); white-space: pre;"/>
  <path d="M 0 18 L 3.869 0" style="fill: none; stroke-linecap: round; stroke: rgb(134, 119, 64);" bx:origin="0 0.5"/>
</svg>