<?xml version="1.0" encoding="UTF-8" standalone="no"?>
<svg width="48px" height="18px" viewBox="0 0 48 18" version="1.1" xmlns="http://www.w3.org/2000/svg" xmlns:xlink="http://www.w3.org/1999/xlink">
    <!-- Generator: Sketch 45 (43475) - http://www.bohemiancoding.com/sketch -->
    <title>system</title>
    <desc>Created with Sketch.</desc>
    <defs></defs>
    <g id="Page-1" stroke="none" stroke-width="1" fill="none" fill-rule="evenodd">
        <path d="M19.046,14 L17.184,14 L16.344,7.434 L13.838,11.942 L11.318,7.448 L10.478,14 L8.616,14 L9.974,4.2 L11.444,4.2 L13.838,8.666 L16.218,4.2 L17.688,4.2 L19.046,14 Z M28.37,14 L26.508,14 L25.668,11.634 L22.406,11.634 L21.566,14 L19.704,14 L23.19,4.2 L24.884,4.2 L28.37,14 Z M25.052,9.898 L24.03,7.028 L23.022,9.898 L25.052,9.898 Z M39.458,14 L37.596,14 L36.756,7.434 L34.25,11.942 L31.73,7.448 L30.89,14 L29.028,14 L30.386,4.2 L31.856,4.2 L34.25,8.666 L36.63,4.2 L38.1,4.2 L39.458,14 Z M47.494,14 L41.082,14 L41.082,4.2 L47.354,4.2 L47.354,5.936 L42.916,5.936 L42.916,8.022 L46.36,8.022 L46.36,9.758 L42.916,9.758 L42.916,12.264 L47.494,12.264 L47.494,14 Z" id="MAME-Copy" fill="#FFFFFF"></path>
        <g id="system" stroke="#867740" stroke-linecap="round">
            <path d="M0.5,17.5 L4.5,0.5" id="Shape"></path>
        </g>
    </g>
</svg>