<?xml version="1.0" encoding="utf-8"?>
<svg viewBox="0 0 115.65 18" xmlns="http://www.w3.org/2000/svg" xmlns:bx="https://boxy-svg.com">
  <path d="M 15.555 5.509 L 12.775 5.509 L 12.775 13.569 L 10.985 13.569 L 10.985 5.509 L 8.215 5.509 L 8.215 3.769 L 15.555 3.769 L 15.555 5.509 ZM 16.73 9.369 L 16.73 3.769 L 18.52 3.769 L 18.52 8.769 C 18.52 9.289 18.557 9.752 18.63 10.159 C 18.704 10.566 18.827 10.909 19 11.189 C 19.174 11.469 19.404 11.682 19.69 11.829 C 19.984 11.969 20.35 12.039 20.79 12.039 C 21.217 12.039 21.577 11.969 21.87 11.829 C 22.164 11.682 22.397 11.469 22.57 11.189 C 22.744 10.909 22.867 10.566 22.94 10.159 C 23.014 9.752 23.05 9.289 23.05 8.769 L 23.05 3.769 L 24.85 3.769 L 24.85 9.369 C 24.85 10.742 24.507 11.819 23.82 12.599 C 23.14 13.379 22.13 13.769 20.79 13.769 C 19.444 13.769 18.43 13.379 17.75 12.599 C 17.07 11.819 16.73 10.742 16.73 9.369 ZM 34.391 13.569 L 32.531 13.569 L 30.501 9.929 L 28.681 9.929 L 28.681 13.569 L 26.891 13.569 L 26.891 3.769 L 30.471 3.769 C 32.725 3.769 33.851 4.712 33.851 6.599 C 33.851 7.299 33.705 7.869 33.411 8.309 C 33.125 8.742 32.715 9.122 32.181 9.449 L 34.391 13.569 M 30.071 5.269 L 28.681 5.269 L 28.681 8.249 L 30.001 8.249 C 30.755 8.249 31.271 8.119 31.551 7.859 C 31.831 7.606 31.971 7.226 31.971 6.719 C 31.971 6.226 31.835 5.859 31.561 5.619 C 31.295 5.386 30.798 5.269 30.071 5.269 ZM 39.434 13.569 L 35.654 13.569 L 35.654 3.769 L 38.294 3.769 C 38.868 3.769 39.384 3.799 39.844 3.859 C 40.304 3.919 40.698 4.039 41.024 4.219 C 41.351 4.406 41.604 4.662 41.784 4.989 C 41.964 5.316 42.054 5.749 42.054 6.289 C 42.054 7.182 41.778 7.862 41.224 8.329 C 41.811 8.556 42.244 8.852 42.524 9.219 C 42.798 9.579 42.934 10.069 42.934 10.689 C 42.934 11.229 42.834 11.682 42.634 12.049 C 42.434 12.416 42.171 12.712 41.844 12.939 C 41.518 13.166 41.144 13.326 40.724 13.419 C 40.304 13.519 39.874 13.569 39.434 13.569 M 39.024 5.299 L 37.444 5.299 L 37.444 7.699 L 39.194 7.699 C 39.514 7.699 39.791 7.612 40.024 7.439 C 40.264 7.272 40.384 6.979 40.384 6.559 C 40.384 6.079 40.271 5.749 40.044 5.569 C 39.811 5.389 39.471 5.299 39.024 5.299 M 39.304 9.119 L 37.444 9.119 L 37.444 12.039 L 39.204 12.039 C 39.824 12.039 40.291 11.932 40.604 11.719 C 40.924 11.499 41.084 11.122 41.084 10.589 C 41.084 9.609 40.491 9.119 39.304 9.119 ZM 52.128 12.369 C 51.234 13.302 50.078 13.769 48.658 13.769 C 47.958 13.769 47.311 13.646 46.718 13.399 C 46.124 13.159 45.614 12.816 45.188 12.369 C 44.754 11.916 44.421 11.379 44.188 10.759 C 43.948 10.132 43.828 9.436 43.828 8.669 C 43.828 7.902 43.948 7.206 44.188 6.579 C 44.434 5.959 44.768 5.422 45.188 4.969 C 45.614 4.522 46.124 4.179 46.718 3.939 C 47.311 3.692 47.958 3.569 48.658 3.569 C 49.358 3.569 50.004 3.692 50.598 3.939 C 51.191 4.192 51.701 4.542 52.128 4.989 C 52.561 5.436 52.894 5.972 53.128 6.599 C 53.368 7.226 53.488 7.916 53.488 8.669 C 53.488 10.202 53.034 11.436 52.128 12.369 M 50.788 6.219 C 50.294 5.606 49.584 5.299 48.658 5.299 C 48.191 5.299 47.781 5.379 47.428 5.539 C 47.074 5.706 46.774 5.936 46.528 6.229 C 46.288 6.522 46.104 6.876 45.978 7.289 C 45.851 7.702 45.788 8.162 45.788 8.669 C 45.788 9.176 45.851 9.636 45.978 10.049 C 46.104 10.462 46.288 10.816 46.528 11.109 C 46.774 11.402 47.074 11.632 47.428 11.799 C 47.781 11.959 48.191 12.039 48.658 12.039 C 49.124 12.039 49.534 11.959 49.888 11.799 C 50.241 11.632 50.541 11.402 50.788 11.109 C 51.028 10.816 51.211 10.462 51.338 10.049 C 51.464 9.636 51.528 9.176 51.528 8.669 C 51.528 7.662 51.281 6.846 50.788 6.219 ZM 62.406 13.769 C 61.713 13.769 61.073 13.646 60.486 13.399 C 59.9 13.159 59.393 12.816 58.966 12.369 C 58.54 11.916 58.21 11.376 57.976 10.749 C 57.736 10.116 57.616 9.419 57.616 8.659 C 57.616 7.899 57.736 7.206 57.976 6.579 C 58.21 5.959 58.543 5.426 58.976 4.979 C 59.403 4.539 59.92 4.192 60.526 3.939 C 61.126 3.692 61.786 3.569 62.506 3.569 C 62.74 3.569 62.993 3.586 63.266 3.619 C 63.54 3.646 63.81 3.682 64.076 3.729 C 64.343 3.782 64.596 3.846 64.836 3.919 C 65.07 3.986 65.273 4.062 65.446 4.149 L 65.246 5.859 C 64.353 5.486 63.453 5.299 62.546 5.299 C 62.053 5.299 61.62 5.376 61.246 5.529 C 60.88 5.689 60.573 5.916 60.326 6.209 C 60.08 6.502 59.893 6.852 59.766 7.259 C 59.64 7.666 59.576 8.122 59.576 8.629 C 59.576 9.149 59.643 9.619 59.776 10.039 C 59.903 10.459 60.096 10.816 60.356 11.109 C 60.623 11.402 60.943 11.632 61.316 11.799 C 61.696 11.959 62.133 12.039 62.626 12.039 C 63.013 12.039 63.463 11.989 63.976 11.889 L 63.976 10.139 L 62.896 10.139 L 62.896 8.659 L 65.766 8.659 L 65.766 13.019 C 65.6 13.126 65.38 13.222 65.106 13.309 C 64.833 13.396 64.543 13.476 64.236 13.549 C 63.923 13.616 63.603 13.669 63.276 13.709 C 62.956 13.749 62.666 13.769 62.406 13.769 ZM 75.001 13.569 L 73.141 13.569 L 71.111 9.929 L 69.291 9.929 L 69.291 13.569 L 67.501 13.569 L 67.501 3.769 L 71.081 3.769 C 73.335 3.769 74.461 4.712 74.461 6.599 C 74.461 7.299 74.315 7.869 74.021 8.309 C 73.735 8.742 73.325 9.122 72.791 9.449 L 75.001 13.569 M 70.681 5.269 L 69.291 5.269 L 69.291 8.249 L 70.611 8.249 C 71.365 8.249 71.881 8.119 72.161 7.859 C 72.441 7.606 72.581 7.226 72.581 6.719 C 72.581 6.226 72.445 5.859 72.171 5.619 C 71.905 5.386 71.408 5.269 70.681 5.269 ZM 83.895 13.569 L 82.035 13.569 L 81.195 11.199 L 77.925 11.199 L 77.085 13.569 L 75.225 13.569 L 78.715 3.769 L 80.405 3.769 L 83.895 13.569 M 80.575 9.469 L 79.555 6.599 L 78.545 9.469 L 80.575 9.469 ZM 91.044 5.509 L 86.804 5.509 L 86.804 7.589 L 90.084 7.589 L 90.084 9.329 L 86.804 9.329 L 86.804 13.569 L 85.014 13.569 L 85.014 3.769 L 91.044 3.769 L 91.044 5.509 ZM 100.093 13.569 L 98.013 13.569 L 95.633 9.969 L 93.323 13.569 L 91.273 13.569 L 94.723 8.679 L 91.423 3.769 L 93.493 3.769 L 95.763 7.209 L 97.833 3.769 L 99.893 3.769 L 96.673 8.489 L 100.093 13.569 ZM 107.02 13.569 L 105.23 13.569 L 105.23 6.299 C 104.837 6.572 104.423 6.742 103.99 6.809 L 103.84 5.299 C 103.987 5.259 104.153 5.189 104.34 5.089 C 104.527 4.982 104.707 4.856 104.88 4.709 C 105.053 4.569 105.21 4.416 105.35 4.249 C 105.483 4.089 105.583 3.929 105.65 3.769 L 107.02 3.769 L 107.02 13.569 ZM 112.235 13.769 C 111.315 13.769 110.579 13.466 110.025 12.859 C 109.465 12.259 109.185 11.316 109.185 10.029 C 109.185 9.422 109.259 8.846 109.405 8.299 C 109.552 7.752 109.742 7.249 109.975 6.789 C 110.215 6.322 110.485 5.902 110.785 5.529 C 111.085 5.156 111.392 4.839 111.705 4.579 C 112.012 4.319 112.315 4.119 112.615 3.979 C 112.909 3.839 113.165 3.769 113.385 3.769 L 114.565 4.469 C 114.432 4.469 114.262 4.519 114.055 4.619 C 113.842 4.726 113.612 4.866 113.365 5.039 C 113.119 5.219 112.869 5.429 112.615 5.669 C 112.362 5.916 112.129 6.176 111.915 6.449 C 111.702 6.722 111.519 7.012 111.365 7.319 C 111.212 7.619 111.115 7.919 111.075 8.219 C 111.369 7.859 111.912 7.679 112.705 7.679 C 113.132 7.679 113.529 7.739 113.895 7.859 C 114.255 7.986 114.565 8.169 114.825 8.409 C 115.092 8.649 115.295 8.946 115.435 9.299 C 115.582 9.652 115.655 10.052 115.655 10.499 C 115.655 10.939 115.575 11.359 115.415 11.759 C 115.249 12.152 115.015 12.499 114.715 12.799 C 114.415 13.099 114.055 13.336 113.635 13.509 C 113.215 13.682 112.749 13.769 112.235 13.769 M 112.585 9.129 C 112.085 9.129 111.682 9.262 111.375 9.529 C 111.075 9.796 110.925 10.196 110.925 10.729 C 110.925 10.949 110.969 11.152 111.055 11.339 C 111.142 11.519 111.255 11.669 111.395 11.789 C 111.535 11.909 111.695 12.002 111.875 12.069 C 112.055 12.136 112.239 12.169 112.425 12.169 C 112.659 12.169 112.872 12.126 113.065 12.039 C 113.259 11.946 113.425 11.822 113.565 11.669 C 113.705 11.516 113.815 11.336 113.895 11.129 C 113.969 10.929 114.005 10.712 114.005 10.479 C 114.005 10.306 113.975 10.139 113.915 9.979 C 113.855 9.812 113.762 9.666 113.635 9.539 C 113.515 9.419 113.369 9.319 113.195 9.239 C 113.015 9.166 112.812 9.129 112.585 9.129 Z" transform="matrix(1, 0, 0, 1, 0, 0)" style="fill: rgb(255, 255, 255); white-space: pre;"/>
  <path d="M 0 18 L 3.869 0" style="fill: none; stroke-linecap: round; stroke: rgb(134, 119, 64);" bx:origin="0 0.5"/>
</svg>