<?xml version="1.0" encoding="UTF-8" standalone="no"?>
<svg width="116px" height="18px" viewBox="0 0 116 18" version="1.1" xmlns="http://www.w3.org/2000/svg" xmlns:xlink="http://www.w3.org/1999/xlink">
    <!-- Generator: Sketch 45 (43475) - http://www.bohemiancoding.com/sketch -->
    <title>system</title>
    <desc>Created with Sketch.</desc>
    <defs></defs>
    <g id="Page-1" stroke="none" stroke-width="1" fill="none" fill-rule="evenodd">
        <path d="M15.546,5.936 L12.774,5.936 L12.774,14 L10.982,14 L10.982,5.936 L8.21,5.936 L8.21,4.2 L15.546,4.2 L15.546,5.936 Z M20.782,14.196 C19.4379933,14.196 18.4253367,13.8063372 17.744,13.027 C17.0626633,12.2476628 16.722,11.1720069 16.722,9.8 L16.722,4.2 L18.514,4.2 L18.514,9.198 C18.514,10.2340052 18.6749984,11.0389971 18.997,11.613 C19.3190016,12.1870029 19.9139957,12.474 20.782,12.474 C21.6500043,12.474 22.2449984,12.1870029 22.567,11.613 C22.8890016,11.0389971 23.05,10.2340052 23.05,9.198 L23.05,4.2 L24.842,4.2 L24.842,9.8 C24.842,11.1720069 24.5013367,12.2476628 23.82,13.027 C23.1386633,13.8063372 22.1260067,14.196 20.782,14.196 Z M34.39,14 L32.528,14 L30.498,10.36 L28.678,10.36 L28.678,14 L26.886,14 L26.886,4.2 L30.47,4.2 C32.7193446,4.2 33.844,5.14265724 33.844,7.028 C33.844,7.7280035 33.6993348,8.29733114 33.41,8.736 C33.1206652,9.17466886 32.7100027,9.5573317 32.178,9.884 L34.39,14 Z M30.064,5.698 L28.678,5.698 L28.678,8.68 L29.994,8.68 C30.7500038,8.68 31.2679986,8.54933464 31.548,8.288 C31.8280014,8.02666536 31.968,7.64866914 31.968,7.154 C31.968,6.65933086 31.832668,6.29300119 31.562,6.055 C31.291332,5.81699881 30.7920036,5.698 30.064,5.698 Z M39.43,14 L35.65,14 L35.65,4.2 L38.296,4.2 C38.7906691,4.2 39.2129982,4.21866648 39.563,4.256 C39.9130018,4.29333352 40.253665,4.36333282 40.585,4.466 C40.916335,4.56866718 41.1823323,4.71099909 41.383,4.893 C41.5836677,5.07500091 41.7446661,5.31766515 41.866,5.621 C41.9873339,5.92433485 42.048,6.29066452 42.048,6.72 C42.048,7.62533786 41.7726694,8.30666438 41.222,8.764 C41.8006696,8.98800112 42.2299986,9.28433149 42.51,9.653 C42.7900014,10.0216685 42.93,10.5093303 42.93,11.116 C42.93,11.657336 42.8273344,12.123998 42.622,12.516 C42.4166656,12.908002 42.1390018,13.2066656 41.789,13.412 C41.4389983,13.6173344 41.0703353,13.7666662 40.683,13.86 C40.2956647,13.9533338 39.8780022,14 39.43,14 Z M39.024,5.726 L37.442,5.726 L37.442,8.134 L39.192,8.134 C39.5093349,8.134 39.7869988,8.04766753 40.025,7.875 C40.2630012,7.70233247 40.382,7.4060021 40.382,6.986 C40.382,6.50999762 40.2676678,6.18100091 40.039,5.999 C39.8103322,5.81699909 39.4720022,5.726 39.024,5.726 Z M39.304,9.548 L37.442,9.548 L37.442,12.474 L39.206,12.474 C39.8126697,12.474 40.2769984,12.3620011 40.599,12.138 C40.9210016,11.9139989 41.082,11.5406693 41.082,11.018 C41.082,10.0379951 40.4893393,9.548 39.304,9.548 Z M48.656,14.196 C47.2373262,14.196 46.0776712,13.7270047 45.177,12.789 C44.2763288,11.8509953 43.826,10.6213409 43.826,9.1 C43.826,7.57865906 44.2763288,6.34900469 45.177,5.411 C46.0776712,4.47299531 47.2373262,4.004 48.656,4.004 C50.0746738,4.004 51.2343288,4.47299531 52.135,5.411 C53.0356712,6.34900469 53.486,7.57865906 53.486,9.1 C53.486,10.6213409 53.0356712,11.8509953 52.135,12.789 C51.2343288,13.7270047 50.0746738,14.196 48.656,14.196 Z M48.656,5.726 C47.7319954,5.726 47.0226691,6.03399692 46.528,6.65 C46.0333309,7.26600308 45.786,8.08266158 45.786,9.1 C45.786,10.1173384 46.0333309,10.9339969 46.528,11.55 C47.0226691,12.1660031 47.7319954,12.474 48.656,12.474 C49.5800046,12.474 50.2893309,12.1660031 50.784,11.55 C51.2786691,10.9339969 51.526,10.1173384 51.526,9.1 C51.526,8.08266158 51.2786691,7.26600308 50.784,6.65 C50.2893309,6.03399692 49.5800046,5.726 48.656,5.726 Z M59.254,14.196 C57.8633264,14.196 56.7176712,13.7270047 55.817,12.789 C54.9163288,11.8509953 54.466,10.6166743 54.466,9.086 C54.466,7.56465906 54.9186621,6.337338 55.824,5.404 C56.7293379,4.470662 57.9053261,4.004 59.352,4.004 C59.8466691,4.004 60.3739972,4.05766613 60.934,4.165 C61.4940028,4.27233387 61.9466649,4.40999916 62.292,4.578 L62.096,6.286 C61.1813288,5.9126648 60.2806711,5.726 59.394,5.726 C58.4139951,5.726 57.6743358,6.03166361 57.175,6.643 C56.6756642,7.25433639 56.426,8.05932834 56.426,9.058 C56.426,10.0940052 56.6873307,10.9223302 57.21,11.543 C57.7326693,12.1636698 58.4886617,12.474 59.478,12.474 C59.8793353,12.474 60.3273309,12.4226672 60.822,12.32 L60.822,10.57 L59.744,10.57 L59.744,9.086 L62.614,9.086 L62.614,13.454 C62.2593316,13.6593344 61.75067,13.8343326 61.088,13.979 C60.42533,14.1236674 59.8140028,14.196 59.254,14.196 Z M71.854,14 L69.992,14 L67.962,10.36 L66.142,10.36 L66.142,14 L64.35,14 L64.35,4.2 L67.934,4.2 C70.1833446,4.2 71.308,5.14265724 71.308,7.028 C71.308,7.7280035 71.1633348,8.29733114 70.874,8.736 C70.5846652,9.17466886 70.1740027,9.5573317 69.642,9.884 L71.854,14 Z M67.528,5.698 L66.142,5.698 L66.142,8.68 L67.458,8.68 C68.2140038,8.68 68.7319986,8.54933464 69.012,8.288 C69.2920014,8.02666536 69.432,7.64866914 69.432,7.154 C69.432,6.65933086 69.296668,6.29300119 69.026,6.055 C68.755332,5.81699881 68.2560036,5.698 67.528,5.698 Z M80.744,14 L78.882,14 L78.042,11.634 L74.78,11.634 L73.94,14 L72.078,14 L75.564,4.2 L77.258,4.2 L80.744,14 Z M77.426,9.898 L76.404,7.028 L75.396,9.898 L77.426,9.898 Z M87.898,5.936 L83.656,5.936 L83.656,8.022 L86.932,8.022 L86.932,9.758 L83.656,9.758 L83.656,14 L81.864,14 L81.864,4.2 L87.898,4.2 L87.898,5.936 Z M96.942,14 L94.87,14 L92.49,10.402 L90.18,14 L88.122,14 L91.58,9.114 L88.276,4.2 L90.348,4.2 L92.616,7.644 L94.688,4.2 L96.746,4.2 L93.526,8.918 L96.942,14 Z M101.842,10.78 L97.502,10.78 L97.502,9.464 L101.842,9.464 L101.842,10.78 Z M106.406,14 L104.614,14 L104.614,6.734 C104.221998,6.99533464 103.811335,7.16333296 103.382,7.238 L103.228,5.726 C103.536002,5.66066634 103.881331,5.47166823 104.264,5.159 C104.646669,4.84633177 104.903333,4.5266683 105.034,4.2 L106.406,4.2 L106.406,14 Z M111.628,14.196 C110.703995,14.196 109.964336,13.895003 109.409,13.293 C108.853664,12.690997 108.576,11.7460064 108.576,10.458 C108.576,9.59932904 108.732332,8.76400406 109.045,7.952 C109.357668,7.13999594 109.735664,6.47033597 110.179,5.943 C110.622336,5.41566403 111.079664,4.99333492 111.551,4.676 C112.022336,4.35866508 112.430665,4.2 112.776,4.2 L113.952,4.9 C113.662665,4.9 113.256669,5.08899811 112.734,5.467 C112.211331,5.84500189 111.719002,6.3373303 111.257,6.944 C110.794998,7.5506697 110.531334,8.11999734 110.466,8.652 C110.755335,8.28799818 111.296663,8.106 112.09,8.106 C112.958004,8.106 113.667331,8.35099755 114.218,8.841 C114.768669,9.33100245 115.044,10.0286621 115.044,10.934 C115.044,11.8300045 114.729003,12.5976635 114.099,13.237 C113.468997,13.8763365 112.645338,14.196 111.628,14.196 Z M111.978,9.562 C111.483331,9.562 111.082002,9.69733198 110.774,9.968 C110.465998,10.238668 110.312,10.6353307 110.312,11.158 C110.312,11.6060022 110.468332,11.958332 110.781,12.215 C111.093668,12.471668 111.436665,12.6 111.81,12.6 C112.276669,12.6 112.656999,12.434335 112.951,12.103 C113.245001,11.771665 113.392,11.372669 113.392,10.906 C113.392,10.5606649 113.270668,10.2503347 113.028,9.975 C112.785332,9.69966529 112.435336,9.562 111.978,9.562 Z" id="TURBOGRAFX-16-Copy" fill="#FFFFFF"></path>
        <g id="system" stroke="#867740" stroke-linecap="round">
            <path d="M0.5,17.5 L4.5,0.5" id="Shape"></path>
        </g>
    </g>
</svg>