<?xml version="1.0" encoding="UTF-8" standalone="no"?>
<svg width="98px" height="18px" viewBox="0 0 98 18" version="1.1" xmlns="http://www.w3.org/2000/svg" xmlns:xlink="http://www.w3.org/1999/xlink">
    <!-- Generator: Sketch 45 (43475) - http://www.bohemiancoding.com/sketch -->
    <title>system</title>
    <desc>Created with Sketch.</desc>
    <defs></defs>
    <g id="Page-1" stroke="none" stroke-width="1" fill="none" fill-rule="evenodd">
        <path d="M16.82,14 L15.35,14 L10.87,7.28 L10.87,14 L9.078,14 L9.078,4.2 L10.842,4.2 L15.028,10.528 L15.028,4.2 L16.82,4.2 L16.82,14 Z M20.768,14 L18.976,14 L18.976,4.2 L20.768,4.2 L20.768,14 Z M30.666,14 L29.196,14 L24.716,7.28 L24.716,14 L22.924,14 L22.924,4.2 L24.688,4.2 L28.874,10.528 L28.874,4.2 L30.666,4.2 L30.666,14 Z M39.29,5.936 L36.518,5.936 L36.518,14 L34.726,14 L34.726,5.936 L31.954,5.936 L31.954,4.2 L39.29,4.2 L39.29,5.936 Z M46.99,14 L40.578,14 L40.578,4.2 L46.85,4.2 L46.85,5.936 L42.412,5.936 L42.412,8.022 L45.856,8.022 L45.856,9.758 L42.412,9.758 L42.412,12.264 L46.99,12.264 L46.99,14 Z M56.272,14 L54.802,14 L50.322,7.28 L50.322,14 L48.53,14 L48.53,4.2 L50.294,4.2 L54.48,10.528 L54.48,4.2 L56.272,4.2 L56.272,14 Z M62.096,14 L58.428,14 L58.428,4.2 L62.096,4.2 C63.5240071,4.2 64.6859955,4.63866228 65.582,5.516 C66.4780045,6.39333772 66.926,7.58799244 66.926,9.1 C66.926,10.6120076 66.4780045,11.8066623 65.582,12.684 C64.6859955,13.5613377 63.5240071,14 62.096,14 Z M62.096,5.922 L60.22,5.922 L60.22,12.278 L62.096,12.278 C63.029338,12.278 63.7409976,11.9980028 64.231,11.438 C64.7210024,10.8779972 64.966,10.0986717 64.966,9.1 C64.966,8.10132834 64.7210024,7.3220028 64.231,6.762 C63.7409976,6.2019972 63.029338,5.922 62.096,5.922 Z M72.75,14.196 C71.3313262,14.196 70.1716712,13.7270047 69.271,12.789 C68.3703288,11.8509953 67.92,10.6213409 67.92,9.1 C67.92,7.57865906 68.3703288,6.34900469 69.271,5.411 C70.1716712,4.47299531 71.3313262,4.004 72.75,4.004 C74.1686738,4.004 75.3283288,4.47299531 76.229,5.411 C77.1296712,6.34900469 77.58,7.57865906 77.58,9.1 C77.58,10.6213409 77.1296712,11.8509953 76.229,12.789 C75.3283288,13.7270047 74.1686738,14.196 72.75,14.196 Z M72.75,5.726 C71.8259954,5.726 71.1166691,6.03399692 70.622,6.65 C70.1273309,7.26600308 69.88,8.08266158 69.88,9.1 C69.88,10.1173384 70.1273309,10.9339969 70.622,11.55 C71.1166691,12.1660031 71.8259954,12.474 72.75,12.474 C73.6740046,12.474 74.3833309,12.1660031 74.878,11.55 C75.3726691,10.9339969 75.62,10.1173384 75.62,9.1 C75.62,8.08266158 75.3726691,7.26600308 74.878,6.65 C74.3833309,6.03399692 73.6740046,5.726 72.75,5.726 Z M85.084,14.196 C84.1599954,14.196 83.4203361,13.895003 82.865,13.293 C82.3096639,12.690997 82.032,11.7460064 82.032,10.458 C82.032,9.59932904 82.1883318,8.76400406 82.501,7.952 C82.8136682,7.13999594 83.1916644,6.47033597 83.635,5.943 C84.0783355,5.41566403 84.5356643,4.99333492 85.007,4.676 C85.4783357,4.35866508 85.8866649,4.2 86.232,4.2 L87.408,4.9 C87.1186652,4.9 86.7126693,5.08899811 86.19,5.467 C85.6673307,5.84500189 85.1750023,6.3373303 84.713,6.944 C84.2509977,7.5506697 83.9873337,8.11999734 83.922,8.652 C84.2113348,8.28799818 84.7526627,8.106 85.546,8.106 C86.4140043,8.106 87.1233306,8.35099755 87.674,8.841 C88.2246694,9.33100245 88.5,10.0286621 88.5,10.934 C88.5,11.8300045 88.1850031,12.5976635 87.555,13.237 C86.9249968,13.8763365 86.1013384,14.196 85.084,14.196 Z M85.434,9.562 C84.9393309,9.562 84.5380015,9.69733198 84.23,9.968 C83.9219985,10.238668 83.768,10.6353307 83.768,11.158 C83.768,11.6060022 83.9243318,11.958332 84.237,12.215 C84.5496682,12.471668 84.8926648,12.6 85.266,12.6 C85.732669,12.6 86.1129985,12.434335 86.407,12.103 C86.7010015,11.771665 86.848,11.372669 86.848,10.906 C86.848,10.5606649 86.7266679,10.2503347 86.484,9.975 C86.2413321,9.69966529 85.8913356,9.562 85.434,9.562 Z M96.424,11.34 L95.234,11.34 L95.234,14 L93.442,14 L93.442,11.34 L89.228,11.34 L93.736,4.2 L95.234,4.2 L95.234,9.884 L96.424,9.884 L96.424,11.34 Z M93.442,9.884 L93.442,6.944 L91.664,9.884 L93.442,9.884 Z" id="NINTENDO-64-Copy" fill="#FFFFFF"></path>
        <g id="system" stroke="#867740" stroke-linecap="round">
            <path d="M0.5,17.5 L4.5,0.5" id="Shape"></path>
        </g>
    </g>
</svg>