<?xml version="1.0" encoding="utf-8"?>
<svg viewBox="0 0 93.28 18" xmlns="http://www.w3.org/2000/svg" xmlns:bx="https://boxy-svg.com">
  <path d="M 16.825 13.569 L 15.355 13.569 L 10.875 6.849 L 10.875 13.569 L 9.085 13.569 L 9.085 3.769 L 10.845 3.769 L 15.035 10.099 L 15.035 3.769 L 16.825 3.769 L 16.825 13.569 ZM 20.772 13.569 L 18.982 13.569 L 18.982 3.769 L 20.772 3.769 L 20.772 13.569 ZM 30.67 13.569 L 29.2 13.569 L 24.72 6.849 L 24.72 13.569 L 22.93 13.569 L 22.93 3.769 L 24.69 3.769 L 28.88 10.099 L 28.88 3.769 L 30.67 3.769 L 30.67 13.569 ZM 39.297 5.509 L 36.517 5.509 L 36.517 13.569 L 34.727 13.569 L 34.727 5.509 L 31.957 5.509 L 31.957 3.769 L 39.297 3.769 L 39.297 5.509 ZM 46.993 13.569 L 40.583 13.569 L 40.583 3.769 L 46.853 3.769 L 46.853 5.509 L 42.413 5.509 L 42.413 7.589 L 45.863 7.589 L 45.863 9.329 L 42.413 9.329 L 42.413 11.829 L 46.993 11.829 L 46.993 13.569 ZM 56.274 13.569 L 54.804 13.569 L 50.324 6.849 L 50.324 13.569 L 48.534 13.569 L 48.534 3.769 L 50.294 3.769 L 54.484 10.099 L 54.484 3.769 L 56.274 3.769 L 56.274 13.569 ZM 62.102 13.569 L 58.432 13.569 L 58.432 3.769 L 62.102 3.769 C 62.809 3.769 63.459 3.882 64.052 4.109 C 64.645 4.342 65.152 4.669 65.572 5.089 C 65.999 5.516 66.332 6.029 66.572 6.629 C 66.812 7.236 66.932 7.916 66.932 8.669 C 66.932 9.422 66.812 10.102 66.572 10.709 C 66.332 11.316 65.999 11.829 65.572 12.249 C 65.152 12.669 64.645 12.996 64.052 13.229 C 63.459 13.456 62.809 13.569 62.102 13.569 M 62.102 5.489 L 60.222 5.489 L 60.222 11.849 L 62.102 11.849 C 63.035 11.849 63.745 11.569 64.232 11.009 C 64.725 10.456 64.972 9.676 64.972 8.669 C 64.972 7.662 64.725 6.879 64.232 6.319 C 63.745 5.766 63.035 5.489 62.102 5.489 ZM 76.221 12.369 C 75.328 13.302 74.171 13.769 72.751 13.769 C 72.051 13.769 71.405 13.646 70.811 13.399 C 70.218 13.159 69.708 12.816 69.281 12.369 C 68.848 11.916 68.515 11.379 68.281 10.759 C 68.041 10.132 67.921 9.436 67.921 8.669 C 67.921 7.902 68.041 7.206 68.281 6.579 C 68.528 5.959 68.861 5.422 69.281 4.969 C 69.708 4.522 70.218 4.179 70.811 3.939 C 71.405 3.692 72.051 3.569 72.751 3.569 C 73.451 3.569 74.098 3.692 74.691 3.939 C 75.285 4.192 75.795 4.542 76.221 4.989 C 76.655 5.436 76.988 5.972 77.221 6.599 C 77.461 7.226 77.581 7.916 77.581 8.669 C 77.581 10.202 77.128 11.436 76.221 12.369 M 74.881 6.219 C 74.388 5.606 73.678 5.299 72.751 5.299 C 72.285 5.299 71.875 5.379 71.521 5.539 C 71.168 5.706 70.868 5.936 70.621 6.229 C 70.381 6.522 70.198 6.876 70.071 7.289 C 69.945 7.702 69.881 8.162 69.881 8.669 C 69.881 9.176 69.945 9.636 70.071 10.049 C 70.198 10.462 70.381 10.816 70.621 11.109 C 70.868 11.402 71.168 11.632 71.521 11.799 C 71.875 11.959 72.285 12.039 72.751 12.039 C 73.218 12.039 73.628 11.959 73.981 11.799 C 74.335 11.632 74.635 11.402 74.881 11.109 C 75.121 10.816 75.305 10.462 75.431 10.049 C 75.558 9.636 75.621 9.176 75.621 8.669 C 75.621 7.662 75.375 6.846 74.881 6.219 ZM 81.931 13.769 C 81.011 13.769 80.274 13.466 79.721 12.859 C 79.161 12.259 78.881 11.316 78.881 10.029 C 78.881 9.422 78.954 8.846 79.101 8.299 C 79.247 7.752 79.437 7.249 79.671 6.789 C 79.911 6.322 80.181 5.902 80.481 5.529 C 80.781 5.156 81.087 4.839 81.401 4.579 C 81.707 4.319 82.011 4.119 82.311 3.979 C 82.604 3.839 82.861 3.769 83.081 3.769 L 84.261 4.469 C 84.127 4.469 83.957 4.519 83.751 4.619 C 83.537 4.726 83.307 4.866 83.061 5.039 C 82.814 5.219 82.564 5.429 82.311 5.669 C 82.057 5.916 81.824 6.176 81.611 6.449 C 81.397 6.722 81.214 7.012 81.061 7.319 C 80.907 7.619 80.811 7.919 80.771 8.219 C 81.064 7.859 81.607 7.679 82.401 7.679 C 82.827 7.679 83.224 7.739 83.591 7.859 C 83.951 7.986 84.261 8.169 84.521 8.409 C 84.787 8.649 84.991 8.946 85.131 9.299 C 85.277 9.652 85.351 10.052 85.351 10.499 C 85.351 10.939 85.271 11.359 85.111 11.759 C 84.944 12.152 84.711 12.499 84.411 12.799 C 84.111 13.099 83.751 13.336 83.331 13.509 C 82.911 13.682 82.444 13.769 81.931 13.769 M 82.281 9.129 C 81.781 9.129 81.377 9.262 81.071 9.529 C 80.771 9.796 80.621 10.196 80.621 10.729 C 80.621 10.949 80.664 11.152 80.751 11.339 C 80.837 11.519 80.951 11.669 81.091 11.789 C 81.231 11.909 81.391 12.002 81.571 12.069 C 81.751 12.136 81.934 12.169 82.121 12.169 C 82.354 12.169 82.567 12.126 82.761 12.039 C 82.954 11.946 83.121 11.822 83.261 11.669 C 83.401 11.516 83.511 11.336 83.591 11.129 C 83.664 10.929 83.701 10.712 83.701 10.479 C 83.701 10.306 83.671 10.139 83.611 9.979 C 83.551 9.812 83.457 9.666 83.331 9.539 C 83.211 9.419 83.064 9.319 82.891 9.239 C 82.711 9.166 82.507 9.129 82.281 9.129 ZM 93.278 10.909 L 92.088 10.909 L 92.088 13.569 L 90.288 13.569 L 90.288 10.909 L 86.078 10.909 L 90.588 3.769 L 92.088 3.769 L 92.088 9.449 L 93.278 9.449 L 93.278 10.909 M 90.288 9.449 L 90.288 6.509 L 88.518 9.449 L 90.288 9.449 Z" transform="matrix(1, 0, 0, 1, 0, 0)" style="fill: rgb(255, 255, 255); white-space: pre;"/>
  <path d="M 0 18 L 3.869 0" style="fill: none; stroke-linecap: round; stroke: rgb(134, 119, 64);" bx:origin="0 0.5"/>
</svg>