<svg clip-rule="evenodd" fill-rule="evenodd" height="250" stroke-linejoin="round" stroke-miterlimit="2" viewBox="0 0 564 250" width="564" xmlns="http://www.w3.org/2000/svg"><g stroke-miterlimit="4" transform="translate(.633545 -34.84499)"><g stroke-width="1.00954" transform="matrix(.996135 0 0 .984994 1.05099 66.693649)"><path d="m563.962 154.48c0 1.015-.835 1.85-1.85 1.85h-560.262c-1.015 0-1.85-.835-1.85-1.85v-152.63c0-1.015.835-1.85 1.85-1.85h560.262c1.015 0 1.85.835 1.85 1.85z" fill="none" stroke="#fff"/><path d="m38.564 38.681.168-2.219h.919l.185 2.219h2.267l-1.421-11.224h-2.93l-1.443 11.224zm.954-4.071h-.653l.331-4.362zm6.284-7.153h-3.159v11.224h2.161v-6.392l.894 6.392h1.403l.859-6.357v6.357h2.161v-11.224h-3.164l-.587 4.958zm4.712 1.366c-.001.774-.01 1.546-.004 2.32.004.127.012.253.019.344.016.192.031.25.063.374.057.229.17.44.33.614.068.075.159.162.255.244.197.171.412.302.628.416.471.261.94.518 1.414.782.064.04.131.074.198.139.163.157.163.339.16.513l.009.242.003 1.52c.005.116-.016.232-.063.338-.056.104-.166.17-.284.17-.084 0-.164-.032-.224-.09-.12-.116-.106-.28-.124-.421l-.001-2.287h-2.389l.003 2.561c.002.315.004.613.072.921.036.159.095.323.183.471.089.148.207.278.346.38s.298.175.424.218c.126.044.218.057.311.068s.185.023.278.023h2.427c.11 0 .22.005.356-.032s.296-.103.436-.192c.139-.089.256-.199.337-.317.081-.119.125-.245.164-.359.038-.114.07-.216.094-.352.024-.135.038-.305.047-.475.008-.17.004-.34.004-.51v-1.799l-.001-.144c-.001-.076-.002-.194-.008-.329-.005-.129-.012-.257-.023-.385-.011-.165-.05-.328-.118-.479-.045-.097-.097-.19-.156-.279-.067-.099-.144-.189-.232-.27-.091-.082-.188-.157-.29-.225-.229-.156-.464-.301-.706-.436l-1.012-.55c-.061-.033-.121-.069-.179-.106-.058-.038-.114-.08-.148-.105-.061-.047-.061-.052-.087-.08l-.036-.05c-.049-.079-.08-.166-.093-.258-.006-.049-.001-.098-.001-.146.001-.353-.002-.718.002-1.06-.005-.086.004-.173.029-.256.013-.041.031-.08.054-.116.115-.154.253-.176.405-.113.071.039.127.101.158.176.017.042.028.086.031.131.013.113.014.268.013.404v1.335h2.399c-.003-.689.008-1.378-.008-2.068-.006-.142-.015-.283-.028-.424-.01-.12-.032-.24-.065-.356-.055-.175-.136-.341-.241-.491-.078-.106-.173-.199-.282-.274-.103-.07-.214-.128-.331-.17-.203-.07-.357-.081-.534-.104-.087-.009-.173-.018-.26-.017l-2.077.016c-.244.006-.487.042-.723.107-.074.022-.146.052-.214.088-.142.073-.267.175-.366.3-.066.083-.124.172-.173.266-.104.199-.163.419-.171.644m5.868-1.366v1.81h1.196v9.413h2.399v-9.413h1.188v-1.81zm7.982 0h-2.554v11.224h2.396v-4.474c.157.006.314-.013.473.036.034.012.065.03.092.053.11.095.102.216.119.331.021.23.005.461.01.692v3.361h2.396l-.002-3.509c.001-.347-.033-.694-.102-1.034-.057-.21-.158-.405-.296-.572-.176-.204-.411-.35-.672-.418.063-.015.125-.035.186-.059.377-.143.66-.463.754-.855.026-.092.047-.185.064-.277.056-.378.076-.757.069-1.137v-1.175c.01-.344-.019-.687-.087-1.024-.032-.161-.091-.316-.175-.458-.041-.068-.087-.132-.138-.192-.244-.259-.575-.42-.929-.452-.535-.063-1.07-.045-1.604-.061m-.159 1.825.339.003c.054.005.11.018.163.043.156.103.164.233.178.359.01.141.01.283.014.425-.002.491.006.983-.006 1.475-.001.088-.009.176-.022.263-.008.083-.048.159-.112.212-.073.065-.169.068-.256.079-.099.01-.199.01-.299.004v-2.863m5.839 9.399.168-2.219h.919l.185 2.219h2.267l-1.421-11.224h-2.929l-1.443 11.224zm.954-4.071h-.653l.331-4.362zm8.29-6.461c-.082-.132-.188-.249-.312-.343-.113-.085-.238-.154-.369-.207-.078-.032-.159-.055-.242-.068-.068-.012-.137-.023-.206-.031-.1-.011-.201-.017-.302-.02-.164-.007-.423-.023-.682-.023l-3.106-.001v11.224l3.807-.006c.095 0 .188-.027.281-.044.196-.035.369-.073.554-.156.097-.044.201-.102.296-.173.095-.072.18-.157.261-.289.08-.131.156-.309.212-.526.055-.217.098-.474.098-.731l-.017-7.661c0-.175-.044-.348-.089-.508-.04-.154-.102-.301-.184-.437m-2.672 1.143c.051 0 .102-.004.152.002s.097.018.136.03.07.025.097.044l.071.069c.083.125.072.302.08.459v6.464c0 .048 0 .096-.007.142-.006.044-.017.088-.033.13-.026.073-.077.134-.145.172-.033.019-.068.041-.106.041h-.392v-7.552h.147m165.776 2.739v1.293h.855v-2.047h-3.666s-.978 0-.978.862v5.925s-.122.862.978.862h3.666v-2.046h-.855v1.293h-2.689s-.244 0-.244-.215v-5.71s0-.215.244-.215c.245-.002 2.689-.002 2.689-.002zm1.707-.754v.754h.611v6.14h-.611v.754h2.078v-.754h-.611v-2.801h2.811c.978 0 .978-.862.978-.862v-2.37c0-.862-.978-.862-.978-.862h-4.278zm1.466.754h2.689s.244 0 .244.215v2.154s0 .216-.244.216h-2.689zm8.437 0v1.293h.856v-2.047h-3.666s-.978 0-.978.862v5.925s-.122.862.978.862h3.666v-2.046h-.856v1.293h-2.689s-.244 0-.244-.215v-5.71s0-.215.244-.215c.245-.002 2.689-.002 2.689-.002zm6.717-.754-3.3 5.063v.754h3.544v1.831h.855v-1.831h.978v-.754h-.978v-5.063zm.245 1.077v3.986h-2.567zm3.624-1.077c-.187.012-.936.108-.936.862v5.925s0 .862.978.862h2.689s.978 0 .978-.862v-2.478s.122-.862-.978-.862h-2.811v-2.478s0-.215.244-.215h2.444s.245 0 .245.215v1.185h.855v-1.293s.122-.862-.978-.862h-2.73zm-.08 4.201h2.688s.245 0 .245.216v2.262s0 .215-.245.215h-2.444s-.244 0-.244-.215zm7.943-4.201-3.3 5.063v.754h3.544v1.831h.855v-1.831h.978v-.754h-.978v-5.063zm.245 1.077v3.986h-2.566z" fill="#fff" fill-rule="nonzero"/><path d="m429.271 34.675c0-.511.422-.925.942-.925h114.792c.52 0 .942.414.942.925v66.306c-.005.512-.43.929-.942.925h-114.792c-.512.004-.937-.413-.942-.925z" fill="none" stroke="#fff"/><path d="m489.645 84.529.061-10.28h-.462l-.061 10.28m-9.329-3.427.048-6.853h-.462l-.048 6.853m20.004 0 .023-6.517-.522-.005.036 6.522m-7.411 0v-1.795h-.463v1.795m2.421 0v-1.795h-.462v1.795m2.42 0v-1.795h-.462v1.795m2.421 0v-1.795h-.463v1.795m-15.081 0v-1.795h-.462v1.795m2.421 0v-1.795h-.463v1.795m2.421 0v-1.795h-.463v1.795m2.421 0v-1.795h-.463v1.795m-21.064-2.583h4.406v-.463h-4.406m41.653.463h4.406v-.463h-4.406" fill="#fff" fill-rule="nonzero" stroke="#fff"/><path d="m472.239 26.6h-25.04c-.642 0-1.165-.652-1.165-1.453v-7.824c0-.801.523-1.453 1.165-1.453h25.04c.642 0 1.165.652 1.165 1.453v7.824c0 .802-.522 1.453-1.165 1.453z" fill="none" stroke="#fff"/><path d="m85.906 36.283-.657.068c-.016-.126-.058-.22-.126-.28-.073-.062-.167-.094-.263-.09-.143 0-.265.06-.364.181s-.162.371-.187.752c.158-.182.39-.285.631-.28.284 0 .526.101.729.303.202.202.303.462.303.781 0 .339-.106.611-.319.815-.213.205-.486.307-.819.307-.358 0-.652-.13-.882-.39s-.346-.685-.346-1.277c0-.607.12-1.044.36-1.312s.552-.402.935-.402c.269 0 .492.07.668.211.177.141.289.345.337.613zm-1.539 1.385c0 .206.051.366.152.478.086.104.213.166.348.168.126 0 .23-.046.314-.138s.126-.242.126-.452c0-.215-.045-.373-.135-.473-.085-.098-.209-.153-.338-.15-.126-.002-.246.05-.331.143-.091.096-.136.237-.136.424zm3.055 1.115v-.666h-1.45v-.556l1.537-2.103h.57v2.101h.44v.558h-.44v.666zm0-1.224v-1.132l-.814 1.132zm1.314 1.224v-3.311h.715v1.471l1.445-1.471h.962l-1.334 1.29 1.407 2.021h-.926l-.974-1.553-.58.553v1zm8.888-1.217.694.205c-.106.361-.283.63-.531.805-.247.175-.561.263-.941.263-.47 0-.857-.15-1.16-.451-.303-.3-.454-.711-.454-1.232 0-.551.152-.979.457-1.284s.705-.457 1.201-.457c.433 0 .785.12 1.056.359.161.142.282.345.363.61l-.708.158c-.042-.172-.129-.307-.262-.407s-.294-.149-.485-.149c-.241-.009-.475.087-.639.264-.164.176-.245.462-.245.856 0 .419.081.717.242.894s.371.267.628.267c.19 0 .354-.057.491-.169.135-.112.233-.289.293-.532zm.895-.418c0-.337.054-.62.162-.849.162-.339.442-.606.788-.752.221-.087.475-.131.764-.131.522 0 .94.151 1.253.454s.47.723.47 1.262c0 .535-.156.953-.466 1.255-.311.302-.727.453-1.247.453-.527 0-.946-.15-1.257-.451-.312-.3-.467-.714-.467-1.241zm.737-.022c0 .375.093.659.278.853s.421.29.706.29c.264.009.52-.096.702-.288.183-.192.274-.48.274-.864 0-.379-.089-.662-.267-.849s-.414-.28-.709-.28-.532.095-.713.283c-.181.189-.271.474-.271.855zm3.01 1.657v-3.284h.715v2.727h1.779v.557zm2.591-1.635c0-.337.054-.62.162-.849.162-.339.442-.606.788-.752.221-.087.475-.131.764-.131.522 0 .94.151 1.253.454s.47.723.47 1.262c0 .535-.156.953-.466 1.255-.311.302-.727.453-1.247.453-.527 0-.946-.15-1.257-.451-.311-.3-.467-.714-.467-1.241zm.737-.022c0 .375.093.659.278.853.185.193.421.29.706.29.264.009.52-.096.702-.288.183-.192.274-.48.274-.864 0-.379-.089-.662-.267-.849s-.414-.28-.709-.28-.532.095-.713.283c-.18.189-.271.474-.271.855zm2.986-1.654h.715v1.793c0 .284.009.469.027.553.029.132.107.249.219.326.115.082.273.123.472.123.203 0 .356-.039.459-.116.096-.068.163-.17.186-.286.021-.113.031-.3.031-.562v-1.832h.715v1.739c0 .398-.019.678-.058.843-.034.155-.108.298-.214.416-.116.121-.259.213-.417.27-.174.067-.401.1-.681.1-.338 0-.595-.036-.77-.109-.158-.061-.3-.159-.414-.285-.095-.105-.164-.231-.201-.367-.047-.19-.07-.47-.07-.84v-1.766zm3.315 3.311v-3.311h1.506c.379 0 .654.03.825.089.169.057.314.168.412.317.104.154.158.336.155.522.008.228-.077.45-.234.615-.156.162-.39.264-.701.306.155.084.282.177.383.278s.236.28.407.538l.433.646h-.856l-.517-.72c-.115-.17-.241-.333-.377-.487-.06-.062-.134-.109-.215-.138-.118-.03-.239-.042-.36-.037h-.145v1.382zm.715-1.91h.529c.343 0 .557-.014.643-.041.08-.024.151-.073.201-.14.05-.073.076-.16.073-.248.004-.099-.03-.196-.095-.27-.072-.073-.167-.119-.269-.13-.174-.01-.348-.014-.522-.011h-.558v.84zm5.913 1.91v-3.311h1.148c.435 0 .719.017.851.05.203.05.373.158.51.324s.205.381.205.645c0 .203-.04.374-.118.513-.073.132-.176.244-.301.327-.113.075-.239.128-.371.157-.246.037-.494.053-.742.047h-.466v1.249h-.716zm.715-2.751v.94h.391c.282 0 .47-.017.566-.052.089-.031.167-.087.224-.163.054-.075.083-.166.081-.258.004-.111-.037-.218-.114-.298-.078-.079-.179-.13-.288-.147-.171-.02-.343-.027-.515-.023h-.345zm2.319 2.751v-3.311h2.627v.56h-1.912v.734h1.779v.558h-1.779v.902h1.979v.557zm3.036 0v-3.311h1.506c.379 0 .654.03.825.089s.309.165.412.317c.104.154.158.336.155.522.008.228-.077.45-.234.615-.156.162-.39.264-.701.306.155.084.282.177.383.278s.236.28.407.538l.433.646h-.856l-.517-.72c-.115-.17-.241-.333-.377-.487-.06-.062-.134-.109-.215-.138-.118-.03-.239-.042-.36-.037h-.145v1.382zm.716-1.91h.529c.343 0 .557-.014.643-.041.08-.024.151-.073.201-.14.05-.073.076-.16.073-.248.004-.099-.03-.196-.095-.27-.072-.073-.167-.119-.269-.13-.174-.01-.348-.014-.522-.011h-.558v.84zm2.408.833.696-.063c.042.218.127.379.255.481s.301.154.518.154c.23 0 .404-.045.521-.137.117-.091.175-.198.175-.32.002-.074-.025-.145-.074-.2-.072-.069-.161-.118-.257-.143-.19-.054-.381-.102-.573-.145-.384-.089-.653-.198-.807-.327-.206-.159-.327-.406-.326-.666 0-.169.051-.326.153-.473.11-.153.264-.27.442-.335.223-.082.459-.121.697-.115.445 0 .779.091 1.004.273.223.177.353.446.354.73l-.715.029c-.031-.17-.096-.293-.197-.367-.101-.075-.252-.112-.453-.112-.208 0-.371.04-.488.12-.072.044-.115.122-.114.206 0 .078.035.145.106.201.09.071.309.145.657.221.348.077.605.156.772.238.159.075.294.191.392.337.098.158.147.341.141.527 0 .19-.056.367-.169.533-.117.17-.285.299-.479.369-.247.088-.509.129-.771.121-.448 0-.792-.097-1.032-.29-.238-.195-.382-.476-.428-.847zm3.07-.558c0-.337.054-.62.162-.849.162-.339.442-.606.788-.752.221-.087.475-.131.764-.131.522 0 .94.151 1.253.454s.47.723.47 1.262c0 .535-.156.953-.466 1.255-.311.302-.727.453-1.247.453-.527 0-.946-.15-1.257-.451-.312-.3-.467-.714-.467-1.241zm.737-.022c0 .375.093.659.278.853.185.193.421.29.706.29.264.009.52-.096.702-.288.183-.192.274-.48.274-.864 0-.379-.089-.662-.267-.849s-.414-.28-.709-.28-.532.095-.713.283c-.181.189-.271.474-.271.855zm2.998 1.657v-3.311h.696l1.45 2.212v-2.212h.664v3.311h-.717l-1.429-2.159v2.159zm6.494 0h-.778l-.309-.752h-1.416l-.292.752h-.759l1.38-3.311h.756zm-1.317-1.309-.488-1.229-.479 1.229zm1.449 1.309v-3.284h.715v2.727h1.779v.557zm7.13-1.217.694.205c-.106.361-.283.63-.531.805-.247.175-.561.263-.941.263-.47 0-.857-.15-1.16-.451-.303-.3-.454-.711-.454-1.232 0-.551.152-.979.457-1.284s.705-.457 1.201-.457c.433 0 .785.12 1.056.359.161.142.282.345.363.61l-.708.158c-.042-.172-.129-.307-.262-.407s-.294-.149-.485-.149c-.241-.009-.475.087-.639.264-.164.176-.245.462-.245.856 0 .419.081.717.242.894.161.178.37.267.628.267.19 0 .354-.057.491-.169.135-.112.234-.289.293-.532zm.895-.418c0-.337.054-.62.162-.849.162-.339.442-.606.788-.752.221-.087.475-.131.764-.131.522 0 .94.151 1.253.454s.47.723.47 1.262c0 .535-.156.953-.466 1.255-.311.302-.727.453-1.247.453-.527 0-.946-.15-1.257-.451-.311-.3-.467-.714-.467-1.241zm.737-.022c0 .375.093.659.278.853s.421.29.706.29c.264.009.52-.096.702-.288.183-.192.274-.48.274-.864 0-.379-.089-.662-.267-.849s-.414-.28-.709-.28-.532.095-.713.283c-.18.189-.271.474-.271.855zm2.981 1.657v-3.311h1.071l.643 2.259.635-2.259h1.073v3.311h-.664v-2.606l-.704 2.606h-.689l-.7-2.606v2.606zm3.865 0v-3.311h1.148c.435 0 .719.017.851.05.203.05.373.158.51.324s.205.381.205.645c0 .203-.04.374-.118.513-.073.132-.176.244-.301.327-.113.075-.239.128-.371.157-.246.037-.494.053-.742.047h-.466v1.249h-.716zm.716-2.751v.94h.391c.282 0 .47-.017.566-.052.089-.031.167-.087.224-.163.054-.075.083-.166.081-.258.004-.111-.037-.218-.114-.298-.078-.079-.179-.13-.288-.147-.171-.02-.343-.027-.515-.023h-.345zm2.314-.56h.715v1.793c0 .284.009.469.027.553.029.132.107.249.219.326.115.082.273.123.472.123.203 0 .356-.039.459-.116.096-.068.163-.17.186-.286.021-.113.031-.3.031-.562v-1.832h.715v1.739c0 .398-.019.678-.058.843-.034.155-.108.298-.214.416-.116.121-.259.213-.417.27-.174.067-.401.1-.681.1-.338 0-.595-.036-.77-.109-.158-.062-.301-.159-.415-.285-.095-.105-.164-.231-.201-.367-.047-.19-.07-.47-.07-.84v-1.766zm4.109 3.311v-2.751h-1.051v-.56h2.815v.56h-1.049v2.751zm1.959 0v-3.311h2.627v.56h-1.912v.734h1.779v.558h-1.779v.902h1.979v.557zm3.036 0v-3.311h1.506c.379 0 .654.03.825.089s.309.165.412.317c.104.154.158.336.155.522.008.228-.077.45-.234.615-.156.162-.39.264-.701.306.155.084.282.177.383.278s.236.28.407.538l.433.646h-.856l-.517-.72c-.115-.17-.241-.333-.377-.487-.068-.067-.139-.113-.215-.138s-.196-.037-.36-.037h-.145v1.382zm.716-1.91h.529c.343 0 .557-.014.643-.041.08-.024.151-.073.201-.14.05-.073.076-.16.073-.248.004-.099-.03-.196-.095-.27-.072-.073-.167-.119-.269-.13-.174-.01-.348-.014-.522-.011h-.558v.84zm134.384.937.555.164c-.085.289-.227.504-.424.644-.198.14-.449.21-.753.21-.376 0-.686-.12-.928-.36-.243-.24-.364-.569-.364-.986 0-.441.122-.783.366-1.027.243-.244.564-.366.961-.366.347 0 .629.096.845.287.129.113.226.276.29.488l-.566.127c-.029-.13-.103-.245-.21-.325-.113-.082-.249-.124-.388-.119-.21 0-.381.07-.512.211s-.196.369-.196.685c0 .335.065.573.193.716.128.142.312.22.503.213.152 0 .283-.045.393-.136s.187-.232.235-.426zm.716-.335c0-.27.043-.496.13-.679.129-.271.353-.485.63-.602.177-.07.38-.105.611-.105.418 0 .752.121 1.002.363.251.242.376.579.376 1.01 0 .428-.125.762-.373 1.004-.249.242-.581.362-.998.362-.421 0-.757-.12-1.005-.36-.249-.24-.373-.571-.373-.993zm.59-.018c0 .3.074.527.222.682s.337.232.565.232.415-.077.562-.23.219-.384.219-.691c0-.304-.071-.53-.214-.679-.142-.149-.331-.224-.567-.224s-.426.076-.57.227c-.145.151-.217.378-.217.683zm2.408 1.326v-2.627h.572v2.181h1.423v.446zm2.073-1.308c0-.27.043-.496.129-.679.129-.271.354-.486.631-.602.177-.07.38-.105.611-.105.418 0 .752.121 1.003.363s.376.579.376 1.01c0 .428-.125.762-.374 1.004s-.581.362-.998.362c-.421 0-.757-.12-1.005-.36s-.373-.571-.373-.993zm.59-.018c0 .3.074.527.222.682s.336.232.564.232.416-.077.562-.23c.147-.154.22-.384.22-.691 0-.304-.071-.53-.214-.679-.142-.149-.332-.224-.568-.224s-.426.076-.57.227-.216.378-.216.683zm2.388-1.322h.572v1.435c0 .228.007.375.021.443.023.106.086.199.175.261.113.071.245.106.378.098.162 0 .285-.031.367-.093.077-.054.131-.136.149-.229.017-.09.025-.24.025-.45v-1.465h.572v1.391c0 .318-.016.543-.046.674-.027.124-.086.238-.171.332-.093.097-.207.17-.333.216-.139.054-.321.08-.545.08-.271 0-.476-.029-.616-.087-.127-.049-.241-.127-.332-.228-.076-.084-.131-.185-.16-.294-.044-.221-.063-.447-.056-.672zm2.652 2.648v-2.649h1.204c.303 0 .523.024.66.071.135.046.251.135.33.254.083.123.126.269.124.417.006.182-.061.36-.187.492-.125.129-.312.211-.561.245.124.067.226.142.307.222.081.081.189.224.326.43l.346.517h-.685l-.414-.576c-.092-.137-.192-.266-.302-.389-.048-.05-.107-.087-.172-.11-.094-.024-.191-.034-.288-.03h-.116v1.106zm.572-1.528h.424c.274 0 .446-.011.514-.033.064-.019.121-.058.161-.112.04-.058.061-.128.058-.199.003-.079-.024-.157-.077-.216-.058-.058-.134-.095-.215-.104-.139-.009-.279-.012-.418-.009h-.447zm-5.704-10.06c0-.27.043-.496.129-.679.064-.135.153-.256.264-.363.112-.107.234-.187.367-.239.177-.07.38-.105.611-.105.418 0 .752.121 1.002.363.251.242.376.579.376 1.01 0 .428-.124.762-.373 1.004s-.581.362-.998.362c-.421 0-.757-.12-1.005-.36-.249-.241-.373-.572-.373-.993zm.59-.019c0 .3.074.527.222.682.146.154.352.239.564.232.211.007.416-.077.562-.23.146-.154.22-.384.22-.691 0-.304-.071-.53-.214-.679-.148-.152-.355-.233-.567-.224-.236 0-.426.076-.57.227s-.217.379-.217.683zm2.398 1.327v-2.649h.557l1.16 1.769v-1.769h.531v2.649h-.574l-1.143-1.728v1.728z" fill="#fff" fill-rule="nonzero"/></g><path d="m299.713 105.59137h-20.263c-.506 0-.922-.412-.922-.911v-5.158c0-.503.413-.911.922-.911h20.263c.509 0 .922.408.922.911v5.158c0 .499-.416.911-.922.911zm-.378-3.106h-5.96v1.982h5.038c.506 0 .922-.411.922-.911zm-6.882 1.982v-1.983h-5.797v1.983zm-6.718-1.983h-5.852v1.071c0 .503.413.911.922.911h4.93zm12.679-2.732h-5.038v1.981h5.96v-1.07c0-.5-.416-.911-.922-.911zm-5.961 1.981v-1.982h-5.797v1.982zm-6.718-1.982h-4.93c-.506 0-.922.411-.922.911v1.07h5.852z" fill="#fff" fill-rule="nonzero"/><g fill="none" stroke="#fff" stroke-width="1.00954" transform="matrix(.996135 0 0 .984994 1.05099 66.693649)"><path d="m18.775 5.412c0 .255.207.463.463.463h2.665c.253 0 .462-.209.462-.462v-.001-5.412h-3.59zm5.874 0c0 .255.207.463.463.463h2.665c.253 0 .462-.209.462-.462v-.001-5.412h-3.59zm5.875 0c0 .255.207.463.463.463h2.665c.253 0 .462-.209.462-.462v-.001-5.412h-3.59zm5.875 0c0 .255.207.463.463.463h2.665c.253 0 .462-.209.462-.462v-.001-5.412h-3.59zm5.874 0c0 .255.207.463.463.463h2.665c.253 0 .462-.209.462-.462v-.001-5.412h-3.59zm5.875 0c0 .255.207.463.463.463h2.665c.253 0 .462-.209.462-.462v-.001-5.412h-3.59zm5.874 0c0 .255.207.463.463.463h2.665c.253 0 .462-.209.462-.462v-.001-5.412h-3.59zm5.875 0c0 .255.207.463.463.463h2.665c.253 0 .462-.209.462-.462v-.001-5.412h-3.59zm5.875 0c0 .255.207.463.463.463h2.665c.253 0 .462-.209.462-.462v-.001-5.412h-3.59zm5.874 0c0 .255.207.463.463.463h2.665c.253 0 .462-.209.462-.462v-.001-5.412h-3.59zm5.875 0c0 .255.207.463.463.463h2.665c.253 0 .462-.209.462-.462v-.001-5.412h-3.59zm5.874 0c0 .255.207.463.463.463h2.665c.253 0 .462-.209.462-.462v-.001-5.412h-3.59zm5.875 0c0 .255.207.463.463.463h2.665c.253 0 .462-.209.462-.462v-.001-5.412h-3.59zm5.875 0c0 .255.207.463.463.463h2.665c.253 0 .462-.209.462-.462v-.001-5.412h-3.59zm5.874 0c0 .255.207.463.463.463h2.665c.253 0 .462-.209.462-.462v-.001-5.412h-3.59zm6.02 0c0 .255.207.463.463.463h2.665c.253 0 .462-.209.462-.462v-.001-5.412h-3.59zm5.874 0c0 .255.207.463.463.463h2.665c.253 0 .462-.209.462-.462v-.001-5.412h-3.59zm5.875 0c0 .255.207.463.463.463h2.665c.253 0 .462-.209.462-.462v-.001-5.412h-3.59zm5.875 0c0 .255.207.463.463.463h2.665c.253 0 .462-.209.462-.462v-.001-5.412h-3.59zm5.874-5.412v5.412c0 .255.207.463.463.463h2.665c.253 0 .462-.209.462-.462v-.001-5.412zm5.875 5.412c0 .255.207.463.463.463h2.665c.253 0 .462-.209.462-.462v-.001-5.412h-3.59zm5.874 0c0 .255.207.463.463.463h2.665c.253 0 .462-.209.462-.462v-.001-5.412h-3.59zm5.875 0c0 .255.207.463.463.463h2.665c.253 0 .462-.209.462-.462v-.001-5.412h-3.59zm5.875 0c0 .255.207.463.463.463h2.665c.253 0 .462-.209.462-.462v-.001-5.412h-3.59zm5.874 0c0 .255.207.463.463.463h2.665c.253 0 .462-.209.462-.462v-.001-5.412h-3.59zm5.875 0c0 .255.207.463.463.463h2.665c.253 0 .462-.209.462-.462v-.001-5.412h-3.59zm5.874 0c0 .255.207.463.463.463h2.665c.253 0 .462-.209.462-.462v-.001-5.412h-3.59zm5.875 0c0 .255.207.463.463.463h2.665c.253 0 .462-.209.462-.462v-.001-5.412h-3.59zm5.875 0c0 .255.207.463.463.463h2.665c.253 0 .462-.209.462-.462v-.001-5.412h-3.59zm5.874 0c0 .255.207.463.463.463h2.665c.253 0 .462-.209.462-.462v-.001-5.412h-3.59zm5.875 0c0 .255.207.463.463.463h2.665c.253 0 .462-.209.462-.462v-.001-5.412h-3.59zm5.874 0c0 .255.207.463.463.463h2.665c.253 0 .462-.209.462-.462v-.001-5.412h-3.59zm5.875 0c0 .255.207.463.463.463h2.665c.253 0 .462-.209.462-.462v-.001-5.412h-3.59zm5.875 0c0 .255.207.463.463.463h2.665c.253 0 .462-.209.462-.462v-.001-5.412h-3.59zm5.874 0c0 .255.207.463.463.463h2.665c.253 0 .462-.209.462-.462v-.001-5.412h-3.59zm6.02 0c0 .255.207.463.463.463h2.665c.253 0 .462-.209.462-.462v-.001-5.412h-3.59zm5.874 0c0 .255.207.463.463.463h2.665c.253 0 .462-.209.462-.462v-.001-5.412h-3.59zm5.875 0c0 .255.207.463.463.463h2.665c.253 0 .462-.209.462-.462v-.001-5.412h-3.59zm5.875 0c0 .255.207.463.463.463h2.665c.253 0 .462-.209.462-.462v-.001-5.412h-3.59zm5.874-5.412v5.412c0 .255.207.463.463.463h2.665c.253 0 .462-.209.462-.462v-.001-5.412zm5.784 5.412c0 .255.207.463.462.463h2.665c.254 0 .463-.209.463-.463v-5.412h-3.59zm5.875 0c0 .255.207.463.462.463h2.665c.254 0 .463-.209.463-.463v-5.412h-3.59zm5.875 0c0 .255.207.463.462.463h2.665c.254 0 .463-.209.463-.463v-5.412h-3.59zm5.874 0c0 .255.207.463.462.463h2.665c.254 0 .463-.209.463-.463v-5.412h-3.59zm5.875 0c0 .255.207.463.462.463h2.665c.254 0 .463-.209.463-.463v-5.412h-3.59zm5.874 0c0 .255.207.463.462.463h2.665c.253 0 .462-.209.462-.462v-.001-5.412h-3.59v5.412zm5.875 0c0 .255.207.463.463.463h2.665c.253 0 .462-.209.462-.462v-.001-5.412h-3.59zm5.874 0c0 .255.207.463.463.463h2.665c.253 0 .462-.209.462-.462v-.001-5.412h-3.59zm5.875 0c0 .255.207.463.463.463h2.665c.253 0 .462-.209.462-.462v-.001-5.412h-3.59zm5.874 0c0 .255.207.463.463.463h2.665c.253 0 .462-.209.462-.462v-.001-5.412h-3.59zm5.875 0c0 .255.207.463.463.463h2.665c.253 0 .462-.209.462-.462v-.001-5.412h-3.59zm5.875 0c0 .255.207.463.463.463h2.665c.253 0 .462-.209.462-.462v-.001-5.412h-3.59zm5.874 0c0 .255.207.463.463.463h2.665c.253 0 .462-.209.462-.462v-.001-5.412h-3.59zm5.875 0c0 .255.207.463.463.463h2.665c.253 0 .462-.209.462-.462v-.001-5.412h-3.59zm5.874 0c0 .255.207.463.463.463h2.665c.253 0 .462-.209.462-.462v-.001-5.412h-3.59zm6.02 0c0 .255.207.463.462.463h2.665c.254 0 .463-.209.463-.463v-5.412h-3.59zm5.875 0c0 .255.207.463.462.463h2.665c.254 0 .463-.209.463-.463v-5.412h-3.59zm5.875 0c0 .255.207.463.462.463h2.665c.254 0 .463-.209.463-.463v-5.412h-3.59zm5.874 0c0 .255.207.463.462.463h2.665c.254 0 .463-.209.463-.463v-5.412h-3.59zm5.875-5.412v5.412c0 .255.207.463.462.463h2.665c.254 0 .463-.209.463-.463v-5.412zm5.874 5.412c0 .255.207.463.463.463h2.665c.253 0 .462-.209.462-.462v-.001-5.412h-3.59zm5.875 0c0 .255.207.463.463.463h2.665c.253 0 .462-.209.462-.462v-.001-5.412h-3.59zm5.875 0c0 .255.207.463.463.463h2.665c.253 0 .462-.209.462-.462v-.001-5.412h-3.59zm5.874 0c0 .255.207.463.463.463h2.665c.253 0 .462-.209.462-.462v-.001-5.412h-3.59zm5.875 0c0 .255.207.463.463.463h2.665c.253 0 .462-.209.462-.462v-.001-5.412h-3.59zm5.874 0c0 .255.207.463.463.463h2.665c.253 0 .462-.209.462-.462v-.001-5.412h-3.59zm5.875 0c0 .255.207.463.463.463h2.665c.253 0 .462-.209.462-.462v-.001-5.412h-3.59zm5.875 0c0 .255.207.463.463.463h2.665c.253 0 .462-.209.462-.462v-.001-5.412h-3.59zm5.874 0c0 .255.207.463.463.463h2.665c.253 0 .462-.209.462-.462v-.001-5.412h-3.59zm5.875 0c0 .255.207.463.463.463h2.665c.253 0 .462-.209.462-.462v-.001-5.412h-3.59zm5.874 0c0 .255.207.463.463.463h2.665c.253 0 .462-.209.462-.462v-.001-5.412h-3.59zm5.875 0c0 .255.207.463.463.463h2.665c.253 0 .462-.209.462-.462v-.001-5.412h-3.59zm5.875 0c0 .255.207.463.463.463h2.665c.253 0 .462-.209.462-.462v-.001-5.412h-3.59zm5.874 0c0 .255.207.463.463.463h2.665c.253 0 .462-.209.462-.462v-.001-5.412h-3.59zm5.875 0c0 .255.207.463.463.463h2.665c.253 0 .462-.209.462-.462v-.001-5.412h-3.59zm6.02 0c0 .255.207.463.462.463h2.665c.254 0 .463-.209.463-.463v-5.412h-3.59zm5.874 0c0 .255.207.463.462.463h2.665c.254 0 .463-.209.463-.463v-5.412h-3.59zm5.875 0c0 .255.207.463.462.463h2.665c.254 0 .463-.209.463-.463v-5.412h-3.59zm5.875 0c0 .255.207.463.462.463h2.665c.254 0 .463-.209.463-.463v-5.412h-3.59zm5.874-5.412v5.412c0 .255.207.463.462.463h2.665c.254 0 .463-.209.463-.463v-5.412zm5.222 5.412c0 .255.207.463.463.463h2.665c.253 0 .462-.209.462-.462v-.001-5.412h-3.59zm5.875 0c0 .255.207.463.463.463h2.665c.253 0 .462-.209.462-.462v-.001-5.412h-3.59zm5.874 0c0 .255.207.463.463.463h2.665c.253 0 .462-.209.462-.462v-.001-5.412h-3.59zm5.875 0c0 .255.207.463.463.463h2.665c.253 0 .462-.209.462-.462v-.001-5.412h-3.59zm6.02 0c0 .255.207.463.462.463h2.665c.254 0 .463-.209.463-.463v-5.412h-3.59zm5.874 0c0 .255.207.463.462.463h2.665c.254 0 .463-.209.463-.463v-5.412h-3.59zm5.875 0c0 .255.207.463.462.463h2.665c.254 0 .463-.209.463-.463v-5.412h-3.59zm5.875 0c0 .255.207.463.462.463h2.665c.254 0 .463-.209.463-.463v-5.412h-3.59zm5.874-5.412v5.412c0 .255.207.463.462.463h2.665c.254 0 .463-.209.463-.463v-5.412zm5.875 0v5.412c0 .255.207.463.462.463h2.665c.254 0 .463-.209.463-.463v-5.412z"/><path d="m34.16 69.271c-.254 0-.462-.208-.463-.462v-14.414c0-.255.207-.462.463-.462h14.413c.255 0 .463.207.463.462v14.413c0 .253-.209.462-.462.462h-.001-14.413z"/><path d="m53.415 69.271c-.254 0-.462-.208-.463-.462v-14.414c0-.255.207-.462.463-.462h14.413c.255 0 .463.207.463.462v14.413c0 .253-.209.462-.462.462h-.001-14.413z"/><path d="m72.671 69.271c-.254 0-.462-.208-.463-.462v-14.414c0-.255.207-.462.463-.462h14.413c.255 0 .463.207.463.462v14.413c0 .253-.209.462-.462.462h-.001-14.413z"/><path d="m91.927 69.271c-.254 0-.462-.208-.463-.462v-14.414c0-.255.207-.462.463-.462h14.413c.255 0 .463.207.463.462v14.413c0 .253-.209.462-.462.462h-.001-14.413z"/><path d="m111.182 69.271c-.254 0-.462-.208-.463-.462v-14.414c0-.255.207-.462.463-.462h14.413c.255 0 .463.207.463.462v14.413c0 .253-.209.462-.462.462h-.001-14.413z"/><path d="m130.438 69.271c-.254 0-.462-.208-.463-.462v-14.414c0-.255.207-.462.463-.462h14.413c.255 0 .463.207.463.462v14.413c0 .253-.209.462-.462.462h-.001-14.413z"/><path d="m149.694 69.271c-.254 0-.462-.208-.463-.462v-14.414c0-.255.207-.462.463-.462h14.413c.255 0 .463.207.463.462v14.413c0 .253-.209.462-.462.462h-.001-14.413z"/><path d="m188.205 69.271c-.254 0-.462-.208-.463-.462v-14.414c0-.255.207-.462.463-.462h14.413c.255 0 .463.207.463.462v14.413c0 .253-.209.462-.462.462h-.001-14.413z"/><path d="m207.46 69.271c-.254 0-.462-.208-.463-.462v-14.414c0-.255.207-.462.463-.462h14.413c.255 0 .463.207.463.462v14.413c0 .253-.209.462-.462.462h-.001-14.413z"/><path d="m226.716 69.271c-.254 0-.462-.208-.463-.462v-14.414c0-.255.207-.462.463-.462h14.413c.255 0 .463.207.463.462v14.413c0 .253-.209.462-.462.462h-.001-14.413z"/><path d="m245.972 69.271c-.254 0-.462-.208-.463-.462v-14.414c0-.255.207-.462.463-.462h14.413c.255 0 .463.207.463.462v14.413c0 .253-.209.462-.462.462h-.001-14.413z"/><path d="m265.227 69.271c-.254 0-.462-.208-.463-.462v-14.414c0-.255.207-.462.463-.462h14.413c.255 0 .463.207.463.462v14.413c0 .253-.209.462-.462.462h-.001-14.413z"/><path d="m284.483 69.271c-.254 0-.462-.208-.463-.462v-14.414c0-.255.207-.462.463-.462h14.412c.255 0 .463.207.463.462v14.413c0 .253-.209.462-.462.462h-.001-14.412z"/><path d="m303.739 69.271c-.254 0-.462-.208-.463-.462v-14.414c0-.255.207-.462.463-.462h23.841c.255 0 .463.207.463.462v14.413c0 .253-.209.462-.462.462h-.001-23.841z"/><path d="m34.16 88.037c-.254 0-.462-.208-.463-.462v-14.414c0-.255.208-.462.463-.462h23.841c.255 0 .463.207.463.462v14.413c-.001.254-.209.462-.463.462h-23.841z"/><path d="m34.161 106.803h-.001c-.254 0-.462-.208-.463-.462v-14.414c0-.255.208-.462.463-.462l28.517.033c.257 0 .464.207.464.462v14.413c0 .253-.209.462-.462.462z"/><path d="m34.16 125.604c-.254 0-.462-.208-.463-.462v-14.413c0-.255.208-.462.463-.462h38.699c.255 0 .463.207.463.462v14.413c-.001.254-.209.462-.463.462z"/><path d="m288.917 125.587h-.001c-.253 0-.462-.209-.462-.462v-14.413c0-.255.207-.462.463-.462l38.662.017c.256 0 .463.207.463.462v14.413c0 .253-.209.462-.462.462h-.001.001z"/><path d="m269.94 144.705c-.22 0-.398-.207-.398-.462v-14.413c0-.255.178-.462.397-.462l14.391.008c.22 0 .398.207.398.462v14.413c0 .255-.178.462-.397.462z"/><path d="m62.68 88.037c-.254 0-.462-.208-.463-.462v-14.414c0-.255.207-.462.463-.462h14.413c.255 0 .463.207.463.462v14.413c0 .253-.209.462-.462.462h-.001-14.413z"/><path d="m81.936 88.037c-.254 0-.462-.208-.463-.462v-14.414c0-.255.207-.462.463-.462h14.413c.255 0 .463.207.463.462v14.413c0 .253-.209.462-.462.462h-.001-14.413z"/><path d="m101.192 88.037c-.254 0-.462-.208-.463-.462v-14.414c0-.255.207-.462.463-.462h14.413c.255 0 .463.207.463.462v14.413c0 .253-.209.462-.462.462h-.001-14.413z"/><path d="m120.447 88.037c-.254 0-.462-.208-.463-.462v-14.414c0-.255.207-.462.463-.462h14.413c.255 0 .463.207.463.462v14.413c0 .253-.209.462-.462.462h-.001-14.413z"/><path d="m139.703 88.037c-.254 0-.462-.208-.463-.462v-14.414c0-.255.207-.462.463-.462h14.413c.255 0 .463.207.463.462v14.413c0 .253-.209.462-.462.462h-.001-14.413z"/><path d="m158.959 88.037c-.254 0-.462-.208-.463-.462v-14.414c0-.255.207-.462.463-.462h14.413c.255 0 .463.207.463.462v14.413c0 .253-.209.462-.462.462h-.001-14.413z"/><path d="m178.214 88.037c-.254 0-.462-.208-.463-.462v-14.414c0-.255.207-.462.463-.462h14.413c.255 0 .463.207.463.462v14.413c0 .253-.209.462-.462.462h-.001-14.413z"/><path d="m197.47 88.037c-.254 0-.462-.208-.463-.462v-14.414c0-.255.207-.462.463-.462h14.413c.255 0 .463.207.463.462v14.413c0 .253-.209.462-.462.462h-.001-14.413z"/><path d="m216.726 88.037c-.254 0-.462-.208-.463-.462v-14.414c0-.255.207-.462.463-.462h14.413c.255 0 .463.207.463.462v14.413c0 .253-.209.462-.462.462h-.001-14.413z"/><path d="m235.981 88.037c-.254 0-.462-.208-.463-.462v-14.414c0-.255.207-.462.463-.462h14.413c.255 0 .463.207.463.462v14.413c0 .253-.209.462-.462.462h-.001-14.413z"/><path d="m255.237 88.037c-.254 0-.462-.208-.463-.462v-14.414c0-.255.207-.462.463-.462h14.413c.255 0 .463.207.463.462v14.413c0 .253-.209.462-.462.462h-.001-14.413z"/><path d="m274.493 88.037c-.254 0-.462-.208-.463-.462v-14.414c0-.255.207-.462.463-.462h14.413c.255 0 .463.207.463.462v14.413c0 .253-.209.462-.462.462h-.001-14.413z"/><path d="m278.735 106.803c-.254 0-.462-.208-.463-.462v-14.414c0-.255.208-.462.463-.462h14.413c.255 0 .462.207.462.462v14.413c0 .253-.209.462-.462.462h-14.413z"/><path d="m297.91 106.838c-.254 0-.462-.208-.463-.462v-18.339h-3.862c-.254 0-.462-.208-.463-.462v-14.414c0-.255.207-.462.463-.462l33.996-.033c.254 0 .462.207.462.462v33.245c0 .253-.209.462-.462.462z"/><path d="m168.949 69.271c-.254 0-.462-.208-.463-.462v-14.414c0-.255.207-.462.463-.462h14.413c.255 0 .463.207.463.462v14.413c0 .253-.209.462-.462.462h-.001-14.413z"/><path d="m239.898 106.836c-.254 0-.462-.208-.463-.462v-14.413c0-.255.207-.462.463-.462h14.413c.255 0 .463.207.463.462v14.413c0 .253-.209.462-.462.462h-.001z"/><path d="m259.316 106.836c-.254 0-.462-.208-.463-.462v-14.413c0-.255.207-.462.463-.462h14.413c.255 0 .463.207.463.462v14.413c0 .253-.209.462-.462.462h-.001z"/><path d="m220.479 106.836c-.254 0-.462-.208-.463-.462v-14.413c0-.255.207-.462.463-.462h14.413c.255 0 .463.207.463.462v14.413c0 .253-.209.462-.462.462h-.001z"/><path d="m201.386 106.836c-.254 0-.462-.208-.463-.462v-14.413c0-.255.207-.462.463-.462h14.413c.255 0 .463.207.463.462v14.413c0 .253-.209.462-.462.462h-.001z"/><path d="m182.294 106.836c-.254 0-.462-.208-.463-.462v-14.413c0-.255.207-.462.463-.462h14.413c.255 0 .463.207.463.462v14.413c0 .253-.209.462-.462.462h-.001z"/><path d="m163.201 106.836c-.254 0-.462-.208-.463-.462v-14.413c0-.255.207-.462.463-.462h14.413c.255 0 .463.207.463.462v14.413c0 .253-.209.462-.462.462h-.001z"/><path d="m144.109 106.836c-.254 0-.462-.208-.463-.462v-14.413c0-.255.207-.462.463-.462h14.413c.255 0 .463.207.463.462v14.413c0 .253-.209.462-.462.462h-.001z"/><path d="m125.017 106.836c-.254 0-.462-.208-.463-.462v-14.413c0-.255.207-.462.463-.462h14.413c.255 0 .463.207.463.462v14.413c0 .253-.209.462-.462.462h-.001z"/><path d="m105.924 106.836c-.254 0-.462-.208-.463-.462v-14.413c0-.255.207-.462.463-.462h14.413c.255 0 .463.207.463.462v14.413c0 .253-.209.462-.462.462h-.001z"/><path d="m86.832 106.803c-.254 0-.462-.208-.463-.462v-14.414c0-.255.207-.462.463-.462h14.413c.255 0 .463.207.463.462v14.413c0 .253-.209.462-.462.462h-.001-14.413z"/><path d="m67.739 106.803c-.254 0-.462-.208-.463-.462v-14.414c0-.255.207-.462.463-.462h14.413c.255 0 .463.207.463.462v14.413c0 .253-.209.462-.462.462h-.001-14.413z"/><path d="m77.775 125.604c-.254 0-.462-.208-.463-.462v-14.413c0-.255.207-.462.463-.462h14.413c.255 0 .463.207.463.462v14.413c0 .253-.209.462-.462.462h-.001z"/><path d="m96.867 125.604c-.254 0-.462-.208-.463-.462v-14.413c0-.255.207-.462.463-.462h14.413c.255 0 .463.207.463.462v14.413c0 .253-.209.462-.462.462h-.001z"/><path d="m115.96 125.604c-.254 0-.462-.208-.463-.462v-14.413c0-.255.207-.462.463-.462h14.413c.255 0 .463.207.463.462v14.413c0 .253-.209.462-.462.462h-.001z"/><path d="m135.052 125.604c-.254 0-.462-.208-.463-.462v-14.413c0-.255.207-.462.463-.462h14.413c.255 0 .463.207.463.462v14.413c0 .253-.209.462-.462.462h-.001z"/><path d="m154.145 125.604c-.254 0-.462-.208-.463-.462v-14.413c0-.255.207-.462.463-.462h14.413c.255 0 .463.207.463.462v14.413c0 .253-.209.462-.462.462h-.001z"/><path d="m173.237 125.604c-.254 0-.462-.208-.463-.462v-14.413c0-.255.207-.462.463-.462h14.413c.255 0 .463.207.463.462v14.413c0 .253-.209.462-.462.462h-.001z"/><path d="m192.33 125.604c-.254 0-.462-.208-.463-.462v-14.413c0-.255.207-.462.463-.462h14.413c.255 0 .463.207.463.462v14.413c0 .253-.209.462-.462.462h-.001z"/><path d="m211.422 125.604c-.254 0-.462-.208-.463-.462v-14.413c0-.255.207-.462.463-.462h14.413c.255 0 .463.207.463.462v14.413c0 .253-.209.462-.462.462h-.001z"/><path d="m230.841 125.604c-.254 0-.462-.208-.463-.462v-14.413c0-.255.207-.462.463-.462h14.413c.255 0 .463.207.463.462v14.413c0 .253-.209.462-.462.462h-.001z"/><path d="m250.26 125.604c-.254 0-.462-.208-.463-.462v-14.413c0-.255.207-.462.463-.462h14.413c.255 0 .463.207.463.462v14.413c0 .253-.209.462-.462.462h-.001z"/><path d="m96.867 144.709c-.254 0-.462-.208-.463-.462v-14.413c0-.255.207-.462.463-.462h167.805c.255 0 .463.207.463.462v14.413c0 .253-.209.462-.462.462h-.001z"/><path d="m269.729 125.604c-.254 0-.462-.208-.463-.462v-14.413c0-.255.207-.462.463-.462h14.413c.255 0 .463.207.463.462v14.413c0 .253-.209.462-.462.462h-.001z"/><path d="m352.168 87.71c-.254 0-.462-.208-.463-.462v-14.413c0-.255.207-.462.463-.462h14.412c.255 0 .463.207.463.462v14.413c0 .253-.209.462-.462.462h-.001z"/><path d="m371.26 87.71c-.254 0-.462-.208-.463-.462v-14.413c0-.255.207-.462.463-.462h14.412c.255 0 .463.207.463.462v14.413c0 .253-.209.462-.462.462h-.001z"/><path d="m390.353 106.692c-.254 0-.462-.208-.463-.462v-14.413c0-.255.207-.462.463-.462h14.412c.255 0 .463.207.463.462v14.413c0 .253-.209.462-.462.462h-.001z"/><path d="m352.168 106.692c-.254 0-.462-.208-.463-.462v-14.413c0-.255.207-.462.463-.462h14.412c.255 0 .463.207.463.462v14.413c0 .253-.209.462-.462.462h-.001z"/><path d="m371.26 125.785c-.254 0-.462-.208-.463-.462v-14.413c0-.255.207-.462.463-.462h14.412c.255 0 .463.207.463.462v14.413c0 .253-.209.462-.462.462h-.001z"/><path d="m390.353 125.785c-.254 0-.462-.208-.463-.462v-14.413c0-.255.207-.462.463-.462h14.412c.255 0 .463.207.463.462v14.413c0 .253-.209.462-.462.462h-.001z"/><path d="m352.168 125.785c-.254 0-.462-.208-.463-.462v-14.413c0-.255.207-.462.463-.462h14.412c.255 0 .463.207.463.462v14.413c0 .253-.209.462-.462.462h-.001z"/><path d="m371.26 144.709c-.254 0-.462-.208-.463-.462v-14.413c0-.255.207-.462.463-.462h14.412c.255 0 .463.207.463.462v14.413c0 .253-.209.462-.462.462h-.001z"/><path d="m390.353 144.709c-.254 0-.462-.208-.463-.462v-14.413c0-.255.207-.462.463-.462h14.412c.255 0 .463.207.463.462v14.413c0 .253-.209.462-.462.462h-.001z"/><path d="m352.168 144.709c-.254 0-.462-.208-.463-.462v-14.413c0-.255.207-.462.463-.462h14.412c.255 0 .463.207.463.462v14.413c0 .253-.209.462-.462.462h-.001z"/><path d="m371.26 106.692c-.254 0-.462-.208-.463-.462v-14.413c0-.255.207-.462.463-.462h14.412c.255 0 .463.207.463.462v14.413c0 .253-.209.462-.462.462h-.001z"/><path d="m390.353 87.71c-.254 0-.462-.208-.463-.462v-14.413c0-.255.207-.462.463-.462h14.412c.255 0 .463.207.463.462v14.413c0 .253-.209.462-.462.462h-.001z"/><path d="m371.233 63.777c-.254 0-.462-.208-.463-.462v-14.414c0-.255.207-.462.463-.462h14.412c.255 0 .463.207.463.462v14.413c0 .253-.209.462-.462.462h-.001-14.412z"/><path d="m371.233 44.685c-.254 0-.462-.208-.463-.462v-14.414c0-.255.207-.462.463-.462h14.412c.255 0 .463.207.463.462v14.413c0 .253-.209.462-.462.462h-.001-14.412z"/><path d="m390.353 44.685c-.254 0-.462-.208-.463-.462v-14.414c0-.255.207-.462.463-.462h14.412c.255 0 .463.207.463.462v14.413c0 .253-.209.462-.462.462h-.001-14.412z"/><path d="m352.168 44.685c-.254 0-.462-.208-.463-.462v-14.414c0-.255.207-.462.463-.462h14.412c.255 0 .463.207.463.462v14.413c0 .253-.209.462-.462.462h-.001-14.412z"/><path d="m371.26 25.592c-.254 0-.462-.208-.463-.462v-14.413c0-.255.207-.462.463-.462h14.412c.255 0 .463.207.463.462v14.413c0 .253-.209.462-.462.462h-.001z"/><path d="m433.089 152.249c-.254 0-.462-.208-.463-.462v-14.413c0-.255.207-.462.463-.462h14.412c.255 0 .463.207.463.462v14.413c0 .253-.209.462-.462.462h-.001z"/><path d="m452.182 152.22c-.254 0-.462-.208-.463-.462v-14.413c0-.255.207-.462.463-.462h14.412c.255 0 .463.207.463.462v14.413c0 .253-.209.462-.462.462h-.001z"/><path d="m471.193 152.22c-.254 0-.462-.208-.463-.462v-14.413c0-.255.207-.462.463-.462h14.412c.255 0 .463.207.463.462v14.413c0 .253-.209.462-.462.462h-.001z"/><path d="m490.286 152.22c-.254 0-.462-.208-.463-.462v-14.413c0-.255.207-.462.463-.462h14.412c.255 0 .463.207.463.462v14.413c0 .253-.209.462-.462.462h-.001z"/><path d="m509.378 152.22c-.254 0-.462-.208-.463-.462v-14.413c0-.255.207-.462.463-.462h14.412c.255 0 .463.207.463.462v14.413c0 .253-.209.462-.462.462h-.001z"/><path d="m528.47 152.22c-.254 0-.462-.208-.463-.462v-14.413c0-.255.208-.462.463-.462h14.412c.255 0 .463.207.463.462v14.413c0 .253-.209.462-.462.462h-.001z"/><path d="m436.50699 37.341999h102.203v36.907001h-102.203z"/><path d="m475.953 56.108002h23.311v12.755h-23.311z"/><circle cx="465.85999" cy="62.988998" r="5.875"/><circle cx="509.35699" cy="62.988998" r="5.875"/></g></g></svg>