<?xml version="1.0" encoding="UTF-8" standalone="no"?>
<svg
   xmlns:dc="http://purl.org/dc/elements/1.1/"
   xmlns:cc="http://creativecommons.org/ns#"
   xmlns:rdf="http://www.w3.org/1999/02/22-rdf-syntax-ns#"
   xmlns:svg="http://www.w3.org/2000/svg"
   xmlns="http://www.w3.org/2000/svg"
   xmlns:sodipodi="http://sodipodi.sourceforge.net/DTD/sodipodi-0.dtd"
   xmlns:inkscape="http://www.inkscape.org/namespaces/inkscape"
   width="564"
   height="350"
   viewBox="0 0 564 350"
   version="1.1"
   xml:space="preserve"
   style="clip-rule:evenodd;fill-rule:evenodd;stroke-linejoin:round;stroke-miterlimit:2"
   id="svg376"
   sodipodi:docname="controller.svg"
   inkscape:version="1.0alpha2 (0c7b077, 2019-09-04)"><metadata
   id="metadata382">
  <rdf:RDF>
    <cc:Work
   rdf:about="">
      <dc:format>image/svg+xml</dc:format>

      <dc:type
   rdf:resource="http://purl.org/dc/dcmitype/StillImage" />

      <dc:title />

    </cc:Work>

  </rdf:RDF>

</metadata>

<defs
   id="defs380" />

<sodipodi:namedview
   pagecolor="#808080"
   bordercolor="#666666"
   inkscape:document-rotation="0"
   borderopacity="1"
   objecttolerance="10"
   gridtolerance="10"
   guidetolerance="10"
   inkscape:pageopacity="0"
   inkscape:pageshadow="2"
   inkscape:window-width="1656"
   inkscape:window-height="982"
   id="namedview378"
   showgrid="false"
   inkscape:zoom="1.4705635"
   inkscape:cx="288.83027"
   inkscape:cy="233.51858"
   inkscape:window-x="12"
   inkscape:window-y="34"
   inkscape:window-maximized="0"
   inkscape:current-layer="svg376" />


    <g
   transform="matrix(0.996135,0,0,0.984994,1.05099,66.693649)"
   id="g12"
   style="fill:none;stroke-width:1.00954;stroke-miterlimit:4;stroke-dasharray:none">
        <path
   d="m 563.962,154.48 c 0,1.015 -0.835,1.85 -1.85,1.85 H 1.85 C 0.835,156.33 0,155.495 0,154.48 V 1.85 C 0,0.835 0.835,0 1.85,0 h 560.262 c 1.015,0 1.85,0.835 1.85,1.85 z"
   style="fill:none;fill-rule:nonzero;stroke:#ffffff;stroke-width:1.00954;stroke-miterlimit:4;stroke-dasharray:none"
   id="path10"
   inkscape:connector-curvature="0" />


    </g>


    <g
   transform="matrix(0.996135,0,0,0.984994,1.05099,66.693649)"
   id="g16"
   style="stroke-width:1.00954;stroke-miterlimit:4;stroke-dasharray:none">
        <path
   d="m 38.564,38.681 0.168,-2.219 h 0.919 l 0.185,2.219 h 2.267 L 40.682,27.457 h -2.93 l -1.443,11.224 h 2.255 m 0.954,-4.071 h -0.653 l 0.331,-4.362 0.322,4.362 m 6.284,-7.153 h -3.159 v 11.224 h 2.161 v -6.392 l 0.894,6.392 h 1.403 l 0.859,-6.357 v 6.357 h 2.161 V 27.457 h -3.164 l -0.587,4.958 -0.568,-4.958 m 4.712,1.366 c -0.001,0.774 -0.01,1.546 -0.004,2.32 0.004,0.127 0.012,0.253 0.019,0.344 0.016,0.192 0.031,0.25 0.063,0.374 0.057,0.229 0.17,0.44 0.33,0.614 0.068,0.075 0.159,0.162 0.255,0.244 0.197,0.171 0.412,0.302 0.628,0.416 0.471,0.261 0.94,0.518 1.414,0.782 0.064,0.04 0.131,0.074 0.198,0.139 0.163,0.157 0.163,0.339 0.16,0.513 l 0.009,0.242 0.003,1.52 c 0.005,0.116 -0.016,0.232 -0.063,0.338 -0.056,0.104 -0.166,0.17 -0.284,0.17 -0.084,0 -0.164,-0.032 -0.224,-0.09 -0.12,-0.116 -0.106,-0.28 -0.124,-0.421 l -10e-4,-2.287 h -2.389 l 0.003,2.561 c 0.002,0.315 0.004,0.613 0.072,0.921 0.036,0.159 0.095,0.323 0.183,0.471 0.089,0.148 0.207,0.278 0.346,0.38 0.139,0.102 0.298,0.175 0.424,0.218 0.126,0.044 0.218,0.057 0.311,0.068 0.093,0.011 0.185,0.023 0.278,0.023 h 2.427 c 0.11,0 0.22,0.005 0.356,-0.032 0.136,-0.037 0.296,-0.103 0.436,-0.192 0.139,-0.089 0.256,-0.199 0.337,-0.317 0.081,-0.119 0.125,-0.245 0.164,-0.359 0.038,-0.114 0.07,-0.216 0.094,-0.352 0.024,-0.135 0.038,-0.305 0.047,-0.475 0.008,-0.17 0.004,-0.34 0.004,-0.51 V 34.647 L 55.985,34.503 C 55.984,34.427 55.983,34.309 55.977,34.174 55.972,34.045 55.965,33.917 55.954,33.789 55.943,33.624 55.904,33.461 55.836,33.31 55.791,33.213 55.739,33.12 55.68,33.031 55.613,32.932 55.536,32.842 55.448,32.761 55.357,32.679 55.26,32.604 55.158,32.536 54.929,32.38 54.694,32.235 54.452,32.1 L 53.44,31.55 c -0.061,-0.033 -0.121,-0.069 -0.179,-0.106 -0.058,-0.038 -0.114,-0.08 -0.148,-0.105 -0.061,-0.047 -0.061,-0.052 -0.087,-0.08 l -0.036,-0.05 c -0.049,-0.079 -0.08,-0.166 -0.093,-0.258 -0.006,-0.049 -10e-4,-0.098 -10e-4,-0.146 10e-4,-0.353 -0.002,-0.718 0.002,-1.06 -0.005,-0.086 0.004,-0.173 0.029,-0.256 0.013,-0.041 0.031,-0.08 0.054,-0.116 0.115,-0.154 0.253,-0.176 0.405,-0.113 0.071,0.039 0.127,0.101 0.158,0.176 0.017,0.042 0.028,0.086 0.031,0.131 0.013,0.113 0.014,0.268 0.013,0.404 v 1.335 h 2.399 c -0.003,-0.689 0.008,-1.378 -0.008,-2.068 -0.006,-0.142 -0.015,-0.283 -0.028,-0.424 -0.01,-0.12 -0.032,-0.24 -0.065,-0.356 -0.055,-0.175 -0.136,-0.341 -0.241,-0.491 -0.078,-0.106 -0.173,-0.199 -0.282,-0.274 -0.103,-0.07 -0.214,-0.128 -0.331,-0.17 -0.203,-0.07 -0.357,-0.081 -0.534,-0.104 -0.087,-0.009 -0.173,-0.018 -0.26,-0.017 l -2.077,0.016 c -0.244,0.006 -0.487,0.042 -0.723,0.107 -0.074,0.022 -0.146,0.052 -0.214,0.088 -0.142,0.073 -0.267,0.175 -0.366,0.3 -0.066,0.083 -0.124,0.172 -0.173,0.266 -0.104,0.199 -0.163,0.419 -0.171,0.644 m 5.868,-1.366 v 1.81 h 1.196 v 9.413 h 2.399 v -9.413 h 1.188 v -1.81 h -4.783 m 7.982,0 H 61.81 v 11.224 h 2.396 v -4.474 c 0.157,0.006 0.314,-0.013 0.473,0.036 0.034,0.012 0.065,0.03 0.092,0.053 0.11,0.095 0.102,0.216 0.119,0.331 0.021,0.23 0.005,0.461 0.01,0.692 v 3.361 h 2.396 l -0.002,-3.509 c 0.001,-0.347 -0.033,-0.694 -0.102,-1.034 -0.057,-0.21 -0.158,-0.405 -0.296,-0.572 -0.176,-0.204 -0.411,-0.35 -0.672,-0.418 0.063,-0.015 0.125,-0.035 0.186,-0.059 0.377,-0.143 0.66,-0.463 0.754,-0.855 0.026,-0.092 0.047,-0.185 0.064,-0.277 0.056,-0.378 0.076,-0.757 0.069,-1.137 V 29.644 C 67.307,29.3 67.278,28.957 67.21,28.62 67.178,28.459 67.119,28.304 67.035,28.162 66.994,28.094 66.948,28.03 66.897,27.97 66.653,27.711 66.322,27.55 65.968,27.518 65.433,27.455 64.898,27.473 64.364,27.457 m -0.159,1.825 0.339,0.003 c 0.054,0.005 0.11,0.018 0.163,0.043 0.156,0.103 0.164,0.233 0.178,0.359 0.01,0.141 0.01,0.283 0.014,0.425 -0.002,0.491 0.006,0.983 -0.006,1.475 -0.001,0.088 -0.009,0.176 -0.022,0.263 -0.008,0.083 -0.048,0.159 -0.112,0.212 -0.073,0.065 -0.169,0.068 -0.256,0.079 -0.099,0.01 -0.199,0.01 -0.299,0.004 v -2.863 m 5.839,9.399 0.168,-2.219 h 0.919 l 0.185,2.219 h 2.267 L 72.161,27.457 h -2.929 l -1.443,11.224 h 2.254 m 0.954,-4.071 h -0.653 l 0.331,-4.362 0.322,4.362 m 8.29,-6.461 C 79.205,28.017 79.099,27.9 78.975,27.806 78.862,27.721 78.737,27.652 78.606,27.599 78.528,27.567 78.447,27.544 78.364,27.531 78.296,27.519 78.227,27.508 78.158,27.5 78.058,27.489 77.957,27.483 77.856,27.48 77.692,27.473 77.433,27.457 77.174,27.457 L 74.068,27.456 V 38.68 l 3.807,-0.006 c 0.095,0 0.188,-0.027 0.281,-0.044 0.196,-0.035 0.369,-0.073 0.554,-0.156 0.097,-0.044 0.201,-0.102 0.296,-0.173 0.095,-0.072 0.18,-0.157 0.261,-0.289 0.08,-0.131 0.156,-0.309 0.212,-0.526 0.055,-0.217 0.098,-0.474 0.098,-0.731 L 79.56,29.094 c 0,-0.175 -0.044,-0.348 -0.089,-0.508 -0.04,-0.154 -0.102,-0.301 -0.184,-0.437 m -2.672,1.143 c 0.051,0 0.102,-0.004 0.152,0.002 0.05,0.006 0.097,0.018 0.136,0.03 0.039,0.012 0.07,0.025 0.097,0.044 l 0.071,0.069 c 0.083,0.125 0.072,0.302 0.08,0.459 v 6.464 c 0,0.048 0,0.096 -0.007,0.142 -0.006,0.044 -0.017,0.088 -0.033,0.13 -0.026,0.073 -0.077,0.134 -0.145,0.172 -0.033,0.019 -0.068,0.041 -0.106,0.041 h -0.392 v -7.552 h 0.147 m 165.776,2.739 v 1.293 h 0.855 v -2.047 h -3.666 c 0,0 -0.978,0 -0.978,0.862 v 5.925 c 0,0 -0.122,0.862 0.978,0.862 h 3.666 v -2.046 h -0.855 v 1.293 h -2.689 c 0,0 -0.244,0 -0.244,-0.215 v -5.71 c 0,0 0,-0.215 0.244,-0.215 0.245,-0.002 2.689,-0.002 2.689,-0.002 z m 1.707,-0.754 v 0.754 h 0.611 v 6.14 h -0.611 v 0.754 h 2.078 v -0.754 h -0.611 v -2.801 h 2.811 c 0.978,0 0.978,-0.862 0.978,-0.862 v -2.37 c 0,-0.862 -0.978,-0.862 -0.978,-0.862 h -4.278 z m 1.466,0.754 h 2.689 c 0,0 0.244,0 0.244,0.215 v 2.154 c 0,0 0,0.216 -0.244,0.216 h -2.689 z m 8.437,0 v 1.293 h 0.856 v -2.047 h -3.666 c 0,0 -0.978,0 -0.978,0.862 v 5.925 c 0,0 -0.122,0.862 0.978,0.862 h 3.666 v -2.046 h -0.856 v 1.293 h -2.689 c 0,0 -0.244,0 -0.244,-0.215 v -5.71 c 0,0 0,-0.215 0.244,-0.215 0.245,-0.002 2.689,-0.002 2.689,-0.002 z m 6.717,-0.754 -3.3,5.063 v 0.754 h 3.544 v 1.831 h 0.855 v -1.831 h 0.978 v -0.754 h -0.978 v -5.063 z m 0.245,1.077 v 3.986 h -2.567 z m 3.624,-1.077 c -0.187,0.012 -0.936,0.108 -0.936,0.862 v 5.925 c 0,0 0,0.862 0.978,0.862 h 2.689 c 0,0 0.978,0 0.978,-0.862 v -2.478 c 0,0 0.122,-0.862 -0.978,-0.862 h -2.811 v -2.478 c 0,0 0,-0.215 0.244,-0.215 h 2.444 c 0,0 0.245,0 0.245,0.215 v 1.185 h 0.855 v -1.293 c 0,0 0.122,-0.862 -0.978,-0.862 h -2.73 z m -0.08,4.201 h 2.688 c 0,0 0.245,0 0.245,0.216 v 2.262 c 0,0 0,0.215 -0.245,0.215 h -2.444 c 0,0 -0.244,0 -0.244,-0.215 z m 7.943,-4.201 -3.3,5.063 v 0.754 h 3.544 v 1.831 h 0.855 v -1.831 h 0.978 v -0.754 h -0.978 v -5.063 z m 0.245,1.077 v 3.986 h -2.566 z"
   style="fill:#ffffff;fill-rule:nonzero;stroke-width:1.00954;stroke-miterlimit:4;stroke-dasharray:none"
   id="path14"
   inkscape:connector-curvature="0" />


    </g>


    <g
   transform="matrix(0.996135,0,0,0.984994,1.05099,66.693649)"
   id="g20"
   style="stroke-width:1.00954;stroke-miterlimit:4;stroke-dasharray:none">
        <path
   d="m 429.271,34.675 c 0,-0.511 0.422,-0.925 0.942,-0.925 h 114.792 c 0.52,0 0.942,0.414 0.942,0.925 v 66.306 c -0.005,0.512 -0.43,0.929 -0.942,0.925 H 430.213 c -0.512,0.004 -0.937,-0.413 -0.942,-0.925 z"
   style="fill:none;fill-rule:nonzero;stroke:#ffffff;stroke-width:1.00954;stroke-miterlimit:4;stroke-dasharray:none"
   id="path18"
   inkscape:connector-curvature="0" />


    </g>


    <g
   transform="matrix(0.996135,0,0,0.984994,1.05099,66.693649)"
   id="g24"
   style="stroke-width:1.00954;stroke-miterlimit:4;stroke-dasharray:none">
        <path
   d="m 489.645,84.529 0.061,-10.28 h -0.462 l -0.061,10.28 m -9.329,-3.427 0.048,-6.853 h -0.462 l -0.048,6.853 m 20.004,0 0.023,-6.517 -0.522,-0.005 0.036,6.522 m -7.411,0 v -1.795 h -0.463 v 1.795 m 2.421,0 v -1.795 h -0.462 v 1.795 m 2.42,0 v -1.795 h -0.462 v 1.795 m 2.421,0 v -1.795 h -0.463 v 1.795 m -15.081,0 v -1.795 h -0.462 v 1.795 m 2.421,0 v -1.795 h -0.463 v 1.795 m 2.421,0 v -1.795 h -0.463 v 1.795 m 2.421,0 v -1.795 h -0.463 v 1.795 m -21.064,-2.583 h 4.406 v -0.463 h -4.406 m 41.653,0.463 h 4.406 v -0.463 h -4.406"
   style="fill:#ffffff;fill-rule:nonzero;stroke:#ffffff;stroke-width:1.00954;stroke-miterlimit:4;stroke-dasharray:none"
   id="path22"
   inkscape:connector-curvature="0" />


    </g>


    <g
   transform="matrix(0.996135,0,0,0.984994,1.05099,66.693649)"
   id="g28"
   style="stroke-width:1.00954;stroke-miterlimit:4;stroke-dasharray:none">
        <path
   d="m 472.239,26.6 h -25.04 c -0.642,0 -1.165,-0.652 -1.165,-1.453 v -7.824 c 0,-0.801 0.523,-1.453 1.165,-1.453 h 25.04 c 0.642,0 1.165,0.652 1.165,1.453 v 7.824 c 0,0.802 -0.522,1.453 -1.165,1.453 z"
   style="fill:none;fill-rule:nonzero;stroke:#ffffff;stroke-width:1.00954;stroke-miterlimit:4;stroke-dasharray:none"
   id="path26"
   inkscape:connector-curvature="0" />


    </g>


    <g
   transform="matrix(0.996135,0,0,0.984994,1.05099,66.693649)"
   id="g32"
   style="stroke-width:1.00954;stroke-miterlimit:4;stroke-dasharray:none">
        <path
   d="m 85.906,36.283 -0.657,0.068 c -0.016,-0.126 -0.058,-0.22 -0.126,-0.28 -0.073,-0.062 -0.167,-0.094 -0.263,-0.09 -0.143,0 -0.265,0.06 -0.364,0.181 -0.099,0.121 -0.162,0.371 -0.187,0.752 0.158,-0.182 0.39,-0.285 0.631,-0.28 0.284,0 0.526,0.101 0.729,0.303 0.202,0.202 0.303,0.462 0.303,0.781 0,0.339 -0.106,0.611 -0.319,0.815 -0.213,0.205 -0.486,0.307 -0.819,0.307 -0.358,0 -0.652,-0.13 -0.882,-0.39 -0.23,-0.26 -0.346,-0.685 -0.346,-1.277 0,-0.607 0.12,-1.044 0.36,-1.312 0.24,-0.268 0.552,-0.402 0.935,-0.402 0.269,0 0.492,0.07 0.668,0.211 0.177,0.141 0.289,0.345 0.337,0.613 z m -1.539,1.385 c 0,0.206 0.051,0.366 0.152,0.478 0.086,0.104 0.213,0.166 0.348,0.168 0.126,0 0.23,-0.046 0.314,-0.138 0.084,-0.092 0.126,-0.242 0.126,-0.452 0,-0.215 -0.045,-0.373 -0.135,-0.473 -0.085,-0.098 -0.209,-0.153 -0.338,-0.15 -0.126,-0.002 -0.246,0.05 -0.331,0.143 -0.091,0.096 -0.136,0.237 -0.136,0.424 z m 3.055,1.115 v -0.666 h -1.45 v -0.556 l 1.537,-2.103 h 0.57 v 2.101 h 0.44 v 0.558 h -0.44 v 0.666 z m 0,-1.224 v -1.132 l -0.814,1.132 z m 1.314,1.224 v -3.311 h 0.715 v 1.471 l 1.445,-1.471 h 0.962 l -1.334,1.29 1.407,2.021 h -0.926 l -0.974,-1.553 -0.58,0.553 v 1 z m 8.888,-1.217 0.694,0.205 c -0.106,0.361 -0.283,0.63 -0.531,0.805 -0.247,0.175 -0.561,0.263 -0.941,0.263 -0.47,0 -0.857,-0.15 -1.16,-0.451 -0.303,-0.3 -0.454,-0.711 -0.454,-1.232 0,-0.551 0.152,-0.979 0.457,-1.284 0.305,-0.305 0.705,-0.457 1.201,-0.457 0.433,0 0.785,0.12 1.056,0.359 0.161,0.142 0.282,0.345 0.363,0.61 l -0.708,0.158 c -0.042,-0.172 -0.129,-0.307 -0.262,-0.407 -0.133,-0.1 -0.294,-0.149 -0.485,-0.149 -0.241,-0.009 -0.475,0.087 -0.639,0.264 -0.164,0.176 -0.245,0.462 -0.245,0.856 0,0.419 0.081,0.717 0.242,0.894 0.161,0.177 0.371,0.267 0.628,0.267 0.19,0 0.354,-0.057 0.491,-0.169 0.135,-0.112 0.233,-0.289 0.293,-0.532 z m 0.895,-0.418 c 0,-0.337 0.054,-0.62 0.162,-0.849 0.162,-0.339 0.442,-0.606 0.788,-0.752 0.221,-0.087 0.475,-0.131 0.764,-0.131 0.522,0 0.94,0.151 1.253,0.454 0.313,0.303 0.47,0.723 0.47,1.262 0,0.535 -0.156,0.953 -0.466,1.255 -0.311,0.302 -0.727,0.453 -1.247,0.453 -0.527,0 -0.946,-0.15 -1.257,-0.451 -0.312,-0.3 -0.467,-0.714 -0.467,-1.241 z m 0.737,-0.022 c 0,0.375 0.093,0.659 0.278,0.853 0.185,0.194 0.421,0.29 0.706,0.29 0.264,0.009 0.52,-0.096 0.702,-0.288 0.183,-0.192 0.274,-0.48 0.274,-0.864 0,-0.379 -0.089,-0.662 -0.267,-0.849 -0.178,-0.187 -0.414,-0.28 -0.709,-0.28 -0.295,0 -0.532,0.095 -0.713,0.283 -0.181,0.189 -0.271,0.474 -0.271,0.855 z m 3.01,1.657 v -3.284 h 0.715 v 2.727 h 1.779 v 0.557 z m 2.591,-1.635 c 0,-0.337 0.054,-0.62 0.162,-0.849 0.162,-0.339 0.442,-0.606 0.788,-0.752 0.221,-0.087 0.475,-0.131 0.764,-0.131 0.522,0 0.94,0.151 1.253,0.454 0.313,0.303 0.47,0.723 0.47,1.262 0,0.535 -0.156,0.953 -0.466,1.255 -0.311,0.302 -0.727,0.453 -1.247,0.453 -0.527,0 -0.946,-0.15 -1.257,-0.451 -0.311,-0.3 -0.467,-0.714 -0.467,-1.241 z m 0.737,-0.022 c 0,0.375 0.093,0.659 0.278,0.853 0.185,0.193 0.421,0.29 0.706,0.29 0.264,0.009 0.52,-0.096 0.702,-0.288 0.183,-0.192 0.274,-0.48 0.274,-0.864 0,-0.379 -0.089,-0.662 -0.267,-0.849 -0.178,-0.187 -0.414,-0.28 -0.709,-0.28 -0.295,0 -0.532,0.095 -0.713,0.283 -0.18,0.189 -0.271,0.474 -0.271,0.855 z m 2.986,-1.654 h 0.715 v 1.793 c 0,0.284 0.009,0.469 0.027,0.553 0.029,0.132 0.107,0.249 0.219,0.326 0.115,0.082 0.273,0.123 0.472,0.123 0.203,0 0.356,-0.039 0.459,-0.116 0.096,-0.068 0.163,-0.17 0.186,-0.286 0.021,-0.113 0.031,-0.3 0.031,-0.562 v -1.832 h 0.715 v 1.739 c 0,0.398 -0.019,0.678 -0.058,0.843 -0.034,0.155 -0.108,0.298 -0.214,0.416 -0.116,0.121 -0.259,0.213 -0.417,0.27 -0.174,0.067 -0.401,0.1 -0.681,0.1 -0.338,0 -0.595,-0.036 -0.77,-0.109 -0.158,-0.061 -0.3,-0.159 -0.414,-0.285 -0.095,-0.105 -0.164,-0.231 -0.201,-0.367 -0.047,-0.19 -0.07,-0.47 -0.07,-0.84 v -1.766 z m 3.315,3.311 v -3.311 h 1.506 c 0.379,0 0.654,0.03 0.825,0.089 0.169,0.057 0.314,0.168 0.412,0.317 0.104,0.154 0.158,0.336 0.155,0.522 0.008,0.228 -0.077,0.45 -0.234,0.615 -0.156,0.162 -0.39,0.264 -0.701,0.306 0.155,0.084 0.282,0.177 0.383,0.278 0.101,0.101 0.236,0.28 0.407,0.538 l 0.433,0.646 h -0.856 l -0.517,-0.72 c -0.115,-0.17 -0.241,-0.333 -0.377,-0.487 -0.06,-0.062 -0.134,-0.109 -0.215,-0.138 -0.118,-0.03 -0.239,-0.042 -0.36,-0.037 h -0.145 v 1.382 z m 0.715,-1.91 h 0.529 c 0.343,0 0.557,-0.014 0.643,-0.041 0.08,-0.024 0.151,-0.073 0.201,-0.14 0.05,-0.073 0.076,-0.16 0.073,-0.248 0.004,-0.099 -0.03,-0.196 -0.095,-0.27 -0.072,-0.073 -0.167,-0.119 -0.269,-0.13 -0.174,-0.01 -0.348,-0.014 -0.522,-0.011 h -0.558 v 0.84 z m 5.913,1.91 v -3.311 h 1.148 c 0.435,0 0.719,0.017 0.851,0.05 0.203,0.05 0.373,0.158 0.51,0.324 0.137,0.166 0.205,0.381 0.205,0.645 0,0.203 -0.04,0.374 -0.118,0.513 -0.073,0.132 -0.176,0.244 -0.301,0.327 -0.113,0.075 -0.239,0.128 -0.371,0.157 -0.246,0.037 -0.494,0.053 -0.742,0.047 h -0.466 v 1.249 h -0.716 z m 0.715,-2.751 v 0.94 h 0.391 c 0.282,0 0.47,-0.017 0.566,-0.052 0.089,-0.031 0.167,-0.087 0.224,-0.163 0.054,-0.075 0.083,-0.166 0.081,-0.258 0.004,-0.111 -0.037,-0.218 -0.114,-0.298 -0.078,-0.079 -0.179,-0.13 -0.288,-0.147 -0.171,-0.02 -0.343,-0.027 -0.515,-0.023 h -0.345 z m 2.319,2.751 v -3.311 h 2.627 v 0.56 h -1.912 v 0.734 h 1.779 v 0.558 h -1.779 v 0.902 h 1.979 v 0.557 z m 3.036,0 v -3.311 h 1.506 c 0.379,0 0.654,0.03 0.825,0.089 0.171,0.059 0.309,0.165 0.412,0.317 0.104,0.154 0.158,0.336 0.155,0.522 0.008,0.228 -0.077,0.45 -0.234,0.615 -0.156,0.162 -0.39,0.264 -0.701,0.306 0.155,0.084 0.282,0.177 0.383,0.278 0.101,0.101 0.236,0.28 0.407,0.538 l 0.433,0.646 h -0.856 l -0.517,-0.72 c -0.115,-0.17 -0.241,-0.333 -0.377,-0.487 -0.06,-0.062 -0.134,-0.109 -0.215,-0.138 -0.118,-0.03 -0.239,-0.042 -0.36,-0.037 h -0.145 v 1.382 z m 0.716,-1.91 h 0.529 c 0.343,0 0.557,-0.014 0.643,-0.041 0.08,-0.024 0.151,-0.073 0.201,-0.14 0.05,-0.073 0.076,-0.16 0.073,-0.248 0.004,-0.099 -0.03,-0.196 -0.095,-0.27 -0.072,-0.073 -0.167,-0.119 -0.269,-0.13 -0.174,-0.01 -0.348,-0.014 -0.522,-0.011 h -0.558 v 0.84 z m 2.408,0.833 0.696,-0.063 c 0.042,0.218 0.127,0.379 0.255,0.481 0.128,0.102 0.301,0.154 0.518,0.154 0.23,0 0.404,-0.045 0.521,-0.137 0.117,-0.091 0.175,-0.198 0.175,-0.32 0.002,-0.074 -0.025,-0.145 -0.074,-0.2 -0.072,-0.069 -0.161,-0.118 -0.257,-0.143 -0.19,-0.054 -0.381,-0.102 -0.573,-0.145 -0.384,-0.089 -0.653,-0.198 -0.807,-0.327 -0.206,-0.159 -0.327,-0.406 -0.326,-0.666 0,-0.169 0.051,-0.326 0.153,-0.473 0.11,-0.153 0.264,-0.27 0.442,-0.335 0.223,-0.082 0.459,-0.121 0.697,-0.115 0.445,0 0.779,0.091 1.004,0.273 0.223,0.177 0.353,0.446 0.354,0.73 l -0.715,0.029 c -0.031,-0.17 -0.096,-0.293 -0.197,-0.367 -0.101,-0.075 -0.252,-0.112 -0.453,-0.112 -0.208,0 -0.371,0.04 -0.488,0.12 -0.072,0.044 -0.115,0.122 -0.114,0.206 0,0.078 0.035,0.145 0.106,0.201 0.09,0.071 0.309,0.145 0.657,0.221 0.348,0.077 0.605,0.156 0.772,0.238 0.159,0.075 0.294,0.191 0.392,0.337 0.098,0.158 0.147,0.341 0.141,0.527 0,0.19 -0.056,0.367 -0.169,0.533 -0.117,0.17 -0.285,0.299 -0.479,0.369 -0.247,0.088 -0.509,0.129 -0.771,0.121 -0.448,0 -0.792,-0.097 -1.032,-0.29 -0.238,-0.195 -0.382,-0.476 -0.428,-0.847 z m 3.07,-0.558 c 0,-0.337 0.054,-0.62 0.162,-0.849 0.162,-0.339 0.442,-0.606 0.788,-0.752 0.221,-0.087 0.475,-0.131 0.764,-0.131 0.522,0 0.94,0.151 1.253,0.454 0.313,0.303 0.47,0.723 0.47,1.262 0,0.535 -0.156,0.953 -0.466,1.255 -0.311,0.302 -0.727,0.453 -1.247,0.453 -0.527,0 -0.946,-0.15 -1.257,-0.451 -0.312,-0.3 -0.467,-0.714 -0.467,-1.241 z m 0.737,-0.022 c 0,0.375 0.093,0.659 0.278,0.853 0.185,0.193 0.421,0.29 0.706,0.29 0.264,0.009 0.52,-0.096 0.702,-0.288 0.183,-0.192 0.274,-0.48 0.274,-0.864 0,-0.379 -0.089,-0.662 -0.267,-0.849 -0.178,-0.187 -0.414,-0.28 -0.709,-0.28 -0.295,0 -0.532,0.095 -0.713,0.283 -0.181,0.189 -0.271,0.474 -0.271,0.855 z m 2.998,1.657 v -3.311 h 0.696 l 1.45,2.212 v -2.212 h 0.664 v 3.311 h -0.717 l -1.429,-2.159 v 2.159 z m 6.494,0 h -0.778 l -0.309,-0.752 h -1.416 l -0.292,0.752 h -0.759 l 1.38,-3.311 h 0.756 z m -1.317,-1.309 -0.488,-1.229 -0.479,1.229 z m 1.449,1.309 v -3.284 h 0.715 v 2.727 h 1.779 v 0.557 z m 7.13,-1.217 0.694,0.205 c -0.106,0.361 -0.283,0.63 -0.531,0.805 -0.247,0.175 -0.561,0.263 -0.941,0.263 -0.47,0 -0.857,-0.15 -1.16,-0.451 -0.303,-0.3 -0.454,-0.711 -0.454,-1.232 0,-0.551 0.152,-0.979 0.457,-1.284 0.305,-0.305 0.705,-0.457 1.201,-0.457 0.433,0 0.785,0.12 1.056,0.359 0.161,0.142 0.282,0.345 0.363,0.61 l -0.708,0.158 c -0.042,-0.172 -0.129,-0.307 -0.262,-0.407 -0.133,-0.1 -0.294,-0.149 -0.485,-0.149 -0.241,-0.009 -0.475,0.087 -0.639,0.264 -0.164,0.176 -0.245,0.462 -0.245,0.856 0,0.419 0.081,0.717 0.242,0.894 0.161,0.178 0.37,0.267 0.628,0.267 0.19,0 0.354,-0.057 0.491,-0.169 0.135,-0.112 0.234,-0.289 0.293,-0.532 z m 0.895,-0.418 c 0,-0.337 0.054,-0.62 0.162,-0.849 0.162,-0.339 0.442,-0.606 0.788,-0.752 0.221,-0.087 0.475,-0.131 0.764,-0.131 0.522,0 0.94,0.151 1.253,0.454 0.313,0.303 0.47,0.723 0.47,1.262 0,0.535 -0.156,0.953 -0.466,1.255 -0.311,0.302 -0.727,0.453 -1.247,0.453 -0.527,0 -0.946,-0.15 -1.257,-0.451 -0.311,-0.3 -0.467,-0.714 -0.467,-1.241 z m 0.737,-0.022 c 0,0.375 0.093,0.659 0.278,0.853 0.185,0.194 0.421,0.29 0.706,0.29 0.264,0.009 0.52,-0.096 0.702,-0.288 0.183,-0.192 0.274,-0.48 0.274,-0.864 0,-0.379 -0.089,-0.662 -0.267,-0.849 -0.178,-0.187 -0.414,-0.28 -0.709,-0.28 -0.295,0 -0.532,0.095 -0.713,0.283 -0.18,0.189 -0.271,0.474 -0.271,0.855 z m 2.981,1.657 v -3.311 h 1.071 l 0.643,2.259 0.635,-2.259 h 1.073 v 3.311 h -0.664 v -2.606 l -0.704,2.606 h -0.689 l -0.7,-2.606 v 2.606 z m 3.865,0 v -3.311 h 1.148 c 0.435,0 0.719,0.017 0.851,0.05 0.203,0.05 0.373,0.158 0.51,0.324 0.137,0.166 0.205,0.381 0.205,0.645 0,0.203 -0.04,0.374 -0.118,0.513 -0.073,0.132 -0.176,0.244 -0.301,0.327 -0.113,0.075 -0.239,0.128 -0.371,0.157 -0.246,0.037 -0.494,0.053 -0.742,0.047 h -0.466 v 1.249 h -0.716 z m 0.716,-2.751 v 0.94 h 0.391 c 0.282,0 0.47,-0.017 0.566,-0.052 0.089,-0.031 0.167,-0.087 0.224,-0.163 0.054,-0.075 0.083,-0.166 0.081,-0.258 0.004,-0.111 -0.037,-0.218 -0.114,-0.298 -0.078,-0.079 -0.179,-0.13 -0.288,-0.147 -0.171,-0.02 -0.343,-0.027 -0.515,-0.023 h -0.345 z m 2.314,-0.56 h 0.715 v 1.793 c 0,0.284 0.009,0.469 0.027,0.553 0.029,0.132 0.107,0.249 0.219,0.326 0.115,0.082 0.273,0.123 0.472,0.123 0.203,0 0.356,-0.039 0.459,-0.116 0.096,-0.068 0.163,-0.17 0.186,-0.286 0.021,-0.113 0.031,-0.3 0.031,-0.562 v -1.832 h 0.715 v 1.739 c 0,0.398 -0.019,0.678 -0.058,0.843 -0.034,0.155 -0.108,0.298 -0.214,0.416 -0.116,0.121 -0.259,0.213 -0.417,0.27 -0.174,0.067 -0.401,0.1 -0.681,0.1 -0.338,0 -0.595,-0.036 -0.77,-0.109 -0.158,-0.062 -0.301,-0.159 -0.415,-0.285 -0.095,-0.105 -0.164,-0.231 -0.201,-0.367 -0.047,-0.19 -0.07,-0.47 -0.07,-0.84 v -1.766 z m 4.109,3.311 v -2.751 h -1.051 v -0.56 h 2.815 v 0.56 h -1.049 v 2.751 z m 1.959,0 v -3.311 h 2.627 v 0.56 h -1.912 v 0.734 h 1.779 v 0.558 h -1.779 v 0.902 h 1.979 v 0.557 z m 3.036,0 v -3.311 h 1.506 c 0.379,0 0.654,0.03 0.825,0.089 0.171,0.059 0.309,0.165 0.412,0.317 0.104,0.154 0.158,0.336 0.155,0.522 0.008,0.228 -0.077,0.45 -0.234,0.615 -0.156,0.162 -0.39,0.264 -0.701,0.306 0.155,0.084 0.282,0.177 0.383,0.278 0.101,0.101 0.236,0.28 0.407,0.538 l 0.433,0.646 h -0.856 l -0.517,-0.72 c -0.115,-0.17 -0.241,-0.333 -0.377,-0.487 -0.068,-0.067 -0.139,-0.113 -0.215,-0.138 -0.076,-0.025 -0.196,-0.037 -0.36,-0.037 h -0.145 v 1.382 z m 0.716,-1.91 h 0.529 c 0.343,0 0.557,-0.014 0.643,-0.041 0.08,-0.024 0.151,-0.073 0.201,-0.14 0.05,-0.073 0.076,-0.16 0.073,-0.248 0.004,-0.099 -0.03,-0.196 -0.095,-0.27 -0.072,-0.073 -0.167,-0.119 -0.269,-0.13 -0.174,-0.01 -0.348,-0.014 -0.522,-0.011 h -0.558 v 0.84 z m 134.384,0.937 0.555,0.164 c -0.085,0.289 -0.227,0.504 -0.424,0.644 -0.198,0.14 -0.449,0.21 -0.753,0.21 -0.376,0 -0.686,-0.12 -0.928,-0.36 -0.243,-0.24 -0.364,-0.569 -0.364,-0.986 0,-0.441 0.122,-0.783 0.366,-1.027 0.243,-0.244 0.564,-0.366 0.961,-0.366 0.347,0 0.629,0.096 0.845,0.287 0.129,0.113 0.226,0.276 0.29,0.488 l -0.566,0.127 c -0.029,-0.13 -0.103,-0.245 -0.21,-0.325 -0.113,-0.082 -0.249,-0.124 -0.388,-0.119 -0.21,0 -0.381,0.07 -0.512,0.211 -0.131,0.141 -0.196,0.369 -0.196,0.685 0,0.335 0.065,0.573 0.193,0.716 0.128,0.142 0.312,0.22 0.503,0.213 0.152,0 0.283,-0.045 0.393,-0.136 0.11,-0.091 0.187,-0.232 0.235,-0.426 z m 0.716,-0.335 c 0,-0.27 0.043,-0.496 0.13,-0.679 0.129,-0.271 0.353,-0.485 0.63,-0.602 0.177,-0.07 0.38,-0.105 0.611,-0.105 0.418,0 0.752,0.121 1.002,0.363 0.251,0.242 0.376,0.579 0.376,1.01 0,0.428 -0.125,0.762 -0.373,1.004 -0.249,0.242 -0.581,0.362 -0.998,0.362 -0.421,0 -0.757,-0.12 -1.005,-0.36 -0.249,-0.24 -0.373,-0.571 -0.373,-0.993 z m 0.59,-0.018 c 0,0.3 0.074,0.527 0.222,0.682 0.148,0.155 0.337,0.232 0.565,0.232 0.228,0 0.415,-0.077 0.562,-0.23 0.147,-0.153 0.219,-0.384 0.219,-0.691 0,-0.304 -0.071,-0.53 -0.214,-0.679 -0.142,-0.149 -0.331,-0.224 -0.567,-0.224 -0.236,0 -0.426,0.076 -0.57,0.227 -0.145,0.151 -0.217,0.378 -0.217,0.683 z m 2.408,1.326 v -2.627 h 0.572 v 2.181 h 1.423 v 0.446 z m 2.073,-1.308 c 0,-0.27 0.043,-0.496 0.129,-0.679 0.129,-0.271 0.354,-0.486 0.631,-0.602 0.177,-0.07 0.38,-0.105 0.611,-0.105 0.418,0 0.752,0.121 1.003,0.363 0.251,0.242 0.376,0.579 0.376,1.01 0,0.428 -0.125,0.762 -0.374,1.004 -0.249,0.242 -0.581,0.362 -0.998,0.362 -0.421,0 -0.757,-0.12 -1.005,-0.36 -0.248,-0.24 -0.373,-0.571 -0.373,-0.993 z m 0.59,-0.018 c 0,0.3 0.074,0.527 0.222,0.682 0.148,0.155 0.336,0.232 0.564,0.232 0.228,0 0.416,-0.077 0.562,-0.23 0.147,-0.154 0.22,-0.384 0.22,-0.691 0,-0.304 -0.071,-0.53 -0.214,-0.679 -0.142,-0.149 -0.332,-0.224 -0.568,-0.224 -0.236,0 -0.426,0.076 -0.57,0.227 -0.144,0.151 -0.216,0.378 -0.216,0.683 z m 2.388,-1.322 h 0.572 v 1.435 c 0,0.228 0.007,0.375 0.021,0.443 0.023,0.106 0.086,0.199 0.175,0.261 0.113,0.071 0.245,0.106 0.378,0.098 0.162,0 0.285,-0.031 0.367,-0.093 0.077,-0.054 0.131,-0.136 0.149,-0.229 0.017,-0.09 0.025,-0.24 0.025,-0.45 v -1.465 h 0.572 v 1.391 c 0,0.318 -0.016,0.543 -0.046,0.674 -0.027,0.124 -0.086,0.238 -0.171,0.332 -0.093,0.097 -0.207,0.17 -0.333,0.216 -0.139,0.054 -0.321,0.08 -0.545,0.08 -0.271,0 -0.476,-0.029 -0.616,-0.087 -0.127,-0.049 -0.241,-0.127 -0.332,-0.228 -0.076,-0.084 -0.131,-0.185 -0.16,-0.294 -0.044,-0.221 -0.063,-0.447 -0.056,-0.672 z m 2.652,2.648 v -2.649 h 1.204 c 0.303,0 0.523,0.024 0.66,0.071 0.135,0.046 0.251,0.135 0.33,0.254 0.083,0.123 0.126,0.269 0.124,0.417 0.006,0.182 -0.061,0.36 -0.187,0.492 -0.125,0.129 -0.312,0.211 -0.561,0.245 0.124,0.067 0.226,0.142 0.307,0.222 0.081,0.081 0.189,0.224 0.326,0.43 l 0.346,0.517 h -0.685 l -0.414,-0.576 c -0.092,-0.137 -0.192,-0.266 -0.302,-0.389 -0.048,-0.05 -0.107,-0.087 -0.172,-0.11 -0.094,-0.024 -0.191,-0.034 -0.288,-0.03 h -0.116 v 1.106 z m 0.572,-1.528 h 0.424 c 0.274,0 0.446,-0.011 0.514,-0.033 0.064,-0.019 0.121,-0.058 0.161,-0.112 0.04,-0.058 0.061,-0.128 0.058,-0.199 0.003,-0.079 -0.024,-0.157 -0.077,-0.216 -0.058,-0.058 -0.134,-0.095 -0.215,-0.104 -0.139,-0.009 -0.279,-0.012 -0.418,-0.009 h -0.447 z m -5.704,-10.06 c 0,-0.27 0.043,-0.496 0.129,-0.679 0.064,-0.135 0.153,-0.256 0.264,-0.363 0.112,-0.107 0.234,-0.187 0.367,-0.239 0.177,-0.07 0.38,-0.105 0.611,-0.105 0.418,0 0.752,0.121 1.002,0.363 0.251,0.242 0.376,0.579 0.376,1.01 0,0.428 -0.124,0.762 -0.373,1.004 -0.249,0.242 -0.581,0.362 -0.998,0.362 -0.421,0 -0.757,-0.12 -1.005,-0.36 -0.249,-0.241 -0.373,-0.572 -0.373,-0.993 z m 0.59,-0.019 c 0,0.3 0.074,0.527 0.222,0.682 0.146,0.154 0.352,0.239 0.564,0.232 0.211,0.007 0.416,-0.077 0.562,-0.23 0.146,-0.154 0.22,-0.384 0.22,-0.691 0,-0.304 -0.071,-0.53 -0.214,-0.679 -0.148,-0.152 -0.355,-0.233 -0.567,-0.224 -0.236,0 -0.426,0.076 -0.57,0.227 -0.144,0.151 -0.217,0.379 -0.217,0.683 z m 2.398,1.327 v -2.649 h 0.557 l 1.16,1.769 v -1.769 h 0.531 v 2.649 h -0.574 l -1.143,-1.728 v 1.728 z"
   style="fill:#ffffff;fill-rule:nonzero;stroke-width:1.00954;stroke-miterlimit:4;stroke-dasharray:none"
   id="path30"
   inkscape:connector-curvature="0" />


    </g>


    <path
   d="M 299.713,105.59137 H 279.45 c -0.506,0 -0.922,-0.412 -0.922,-0.911 v -5.158 c 0,-0.503 0.413,-0.911 0.922,-0.911 h 20.263 c 0.509,0 0.922,0.408 0.922,0.911 v 5.158 c 0,0.499 -0.416,0.911 -0.922,0.911 z m -0.378,-3.106 h -5.96 v 1.982 h 5.038 c 0.506,0 0.922,-0.411 0.922,-0.911 z m -6.882,1.982 v -1.983 h -5.797 v 1.983 z m -6.718,-1.983 h -5.852 v 1.071 c 0,0.503 0.413,0.911 0.922,0.911 h 4.93 z m 12.679,-2.732 h -5.038 v 1.981 h 5.96 v -1.07 c 0,-0.5 -0.416,-0.911 -0.922,-0.911 z m -5.961,1.981 v -1.982 h -5.797 v 1.982 z m -6.718,-1.982 h -4.93 c -0.506,0 -0.922,0.411 -0.922,0.911 v 1.07 h 5.852 z"
   style="fill:#ffffff;fill-rule:nonzero;stroke-width:1;stroke-miterlimit:4;stroke-dasharray:none"
   id="path34"
   inkscape:connector-curvature="0" />


    <g
   transform="matrix(0.996135,0,0,0.984994,1.05099,66.693649)"
   id="g38"
   style="stroke-width:1.00954;stroke-miterlimit:4;stroke-dasharray:none">
        <path
   d="m 18.775,5.412 c 0,0.255 0.207,0.463 0.463,0.463 h 2.665 c 0.253,0 0.462,-0.209 0.462,-0.462 0,0 0,-0.001 0,-0.001 V 0 h -3.59 z m 5.874,0 c 0,0.255 0.207,0.463 0.463,0.463 h 2.665 c 0.253,0 0.462,-0.209 0.462,-0.462 0,0 0,-0.001 0,-0.001 V 0 h -3.59 z m 5.875,0 c 0,0.255 0.207,0.463 0.463,0.463 h 2.665 c 0.253,0 0.462,-0.209 0.462,-0.462 0,0 0,-0.001 0,-0.001 V 0 h -3.59 z m 5.875,0 c 0,0.255 0.207,0.463 0.463,0.463 h 2.665 c 0.253,0 0.462,-0.209 0.462,-0.462 0,0 0,-0.001 0,-0.001 V 0 h -3.59 z m 5.874,0 c 0,0.255 0.207,0.463 0.463,0.463 h 2.665 c 0.253,0 0.462,-0.209 0.462,-0.462 0,0 0,-0.001 0,-0.001 V 0 h -3.59 z m 5.875,0 c 0,0.255 0.207,0.463 0.463,0.463 h 2.665 c 0.253,0 0.462,-0.209 0.462,-0.462 0,0 0,-0.001 0,-0.001 V 0 h -3.59 z m 5.874,0 c 0,0.255 0.207,0.463 0.463,0.463 h 2.665 c 0.253,0 0.462,-0.209 0.462,-0.462 0,0 0,-0.001 0,-0.001 V 0 h -3.59 z m 5.875,0 c 0,0.255 0.207,0.463 0.463,0.463 h 2.665 c 0.253,0 0.462,-0.209 0.462,-0.462 0,0 0,-0.001 0,-0.001 V 0 h -3.59 z m 5.875,0 c 0,0.255 0.207,0.463 0.463,0.463 H 68.9 c 0.253,0 0.462,-0.209 0.462,-0.462 0,0 0,-0.001 0,-0.001 V 0 h -3.59 z m 5.874,0 c 0,0.255 0.207,0.463 0.463,0.463 h 2.665 c 0.253,0 0.462,-0.209 0.462,-0.462 0,0 0,-0.001 0,-0.001 V 0 h -3.59 z m 5.875,0 c 0,0.255 0.207,0.463 0.463,0.463 h 2.665 c 0.253,0 0.462,-0.209 0.462,-0.462 0,0 0,-0.001 0,-0.001 V 0 h -3.59 z m 5.874,0 c 0,0.255 0.207,0.463 0.463,0.463 h 2.665 c 0.253,0 0.462,-0.209 0.462,-0.462 0,0 0,-0.001 0,-0.001 V 0 h -3.59 z m 5.875,0 c 0,0.255 0.207,0.463 0.463,0.463 h 2.665 c 0.253,0 0.462,-0.209 0.462,-0.462 0,0 0,-0.001 0,-0.001 V 0 h -3.59 z m 5.875,0 c 0,0.255 0.207,0.463 0.463,0.463 h 2.665 c 0.253,0 0.462,-0.209 0.462,-0.462 0,0 0,-0.001 0,-0.001 V 0 h -3.59 z m 5.874,0 c 0,0.255 0.207,0.463 0.463,0.463 h 2.665 c 0.253,0 0.462,-0.209 0.462,-0.462 0,0 0,-0.001 0,-0.001 V 0 h -3.59 z m 6.02,0 c 0,0.255 0.207,0.463 0.463,0.463 h 2.665 c 0.253,0 0.462,-0.209 0.462,-0.462 0,0 0,-0.001 0,-0.001 V 0 h -3.59 z m 5.874,0 c 0,0.255 0.207,0.463 0.463,0.463 h 2.665 c 0.253,0 0.462,-0.209 0.462,-0.462 0,0 0,-0.001 0,-0.001 V 0 h -3.59 z m 5.875,0 c 0,0.255 0.207,0.463 0.463,0.463 h 2.665 c 0.253,0 0.462,-0.209 0.462,-0.462 0,0 0,-0.001 0,-0.001 V 0 h -3.59 z m 5.875,0 c 0,0.255 0.207,0.463 0.463,0.463 h 2.665 c 0.253,0 0.462,-0.209 0.462,-0.462 0,0 0,-0.001 0,-0.001 V 0 h -3.59 z M 130.537,0 v 5.412 c 0,0.255 0.207,0.463 0.463,0.463 h 2.665 c 0.253,0 0.462,-0.209 0.462,-0.462 0,0 0,-0.001 0,-0.001 V 0 Z m 5.875,5.412 c 0,0.255 0.207,0.463 0.463,0.463 h 2.665 c 0.253,0 0.462,-0.209 0.462,-0.462 0,0 0,-0.001 0,-0.001 V 0 h -3.59 z m 5.874,0 c 0,0.255 0.207,0.463 0.463,0.463 h 2.665 c 0.253,0 0.462,-0.209 0.462,-0.462 0,0 0,-0.001 0,-0.001 V 0 h -3.59 z m 5.875,0 c 0,0.255 0.207,0.463 0.463,0.463 h 2.665 c 0.253,0 0.462,-0.209 0.462,-0.462 0,0 0,-0.001 0,-0.001 V 0 h -3.59 z m 5.875,0 c 0,0.255 0.207,0.463 0.463,0.463 h 2.665 c 0.253,0 0.462,-0.209 0.462,-0.462 0,0 0,-0.001 0,-0.001 V 0 h -3.59 z m 5.874,0 c 0,0.255 0.207,0.463 0.463,0.463 h 2.665 c 0.253,0 0.462,-0.209 0.462,-0.462 0,0 0,-0.001 0,-0.001 V 0 h -3.59 z m 5.875,0 c 0,0.255 0.207,0.463 0.463,0.463 h 2.665 c 0.253,0 0.462,-0.209 0.462,-0.462 0,0 0,-0.001 0,-0.001 V 0 h -3.59 z m 5.874,0 c 0,0.255 0.207,0.463 0.463,0.463 h 2.665 c 0.253,0 0.462,-0.209 0.462,-0.462 0,0 0,-0.001 0,-0.001 V 0 h -3.59 z m 5.875,0 c 0,0.255 0.207,0.463 0.463,0.463 h 2.665 c 0.253,0 0.462,-0.209 0.462,-0.462 0,0 0,-0.001 0,-0.001 V 0 h -3.59 z m 5.875,0 c 0,0.255 0.207,0.463 0.463,0.463 h 2.665 c 0.253,0 0.462,-0.209 0.462,-0.462 0,0 0,-0.001 0,-0.001 V 0 h -3.59 z m 5.874,0 c 0,0.255 0.207,0.463 0.463,0.463 h 2.665 c 0.253,0 0.462,-0.209 0.462,-0.462 0,0 0,-0.001 0,-0.001 V 0 h -3.59 z m 5.875,0 c 0,0.255 0.207,0.463 0.463,0.463 h 2.665 c 0.253,0 0.462,-0.209 0.462,-0.462 0,0 0,-0.001 0,-0.001 V 0 h -3.59 z m 5.874,0 c 0,0.255 0.207,0.463 0.463,0.463 h 2.665 c 0.253,0 0.462,-0.209 0.462,-0.462 0,0 0,-0.001 0,-0.001 V 0 h -3.59 z m 5.875,0 c 0,0.255 0.207,0.463 0.463,0.463 h 2.665 c 0.253,0 0.462,-0.209 0.462,-0.462 0,0 0,-0.001 0,-0.001 V 0 h -3.59 z m 5.875,0 c 0,0.255 0.207,0.463 0.463,0.463 h 2.665 c 0.253,0 0.462,-0.209 0.462,-0.462 0,0 0,-0.001 0,-0.001 V 0 h -3.59 z m 5.874,0 c 0,0.255 0.207,0.463 0.463,0.463 h 2.665 c 0.253,0 0.462,-0.209 0.462,-0.462 0,0 0,-0.001 0,-0.001 V 0 h -3.59 z m 6.02,0 c 0,0.255 0.207,0.463 0.463,0.463 h 2.665 c 0.253,0 0.462,-0.209 0.462,-0.462 0,0 0,-0.001 0,-0.001 V 0 h -3.59 z m 5.874,0 c 0,0.255 0.207,0.463 0.463,0.463 h 2.665 c 0.253,0 0.462,-0.209 0.462,-0.462 0,0 0,-0.001 0,-0.001 V 0 h -3.59 z m 5.875,0 c 0,0.255 0.207,0.463 0.463,0.463 h 2.665 c 0.253,0 0.462,-0.209 0.462,-0.462 0,0 0,-0.001 0,-0.001 V 0 h -3.59 z m 5.875,0 c 0,0.255 0.207,0.463 0.463,0.463 h 2.665 c 0.253,0 0.462,-0.209 0.462,-0.462 0,0 0,-0.001 0,-0.001 V 0 H 242.3 Z M 248.174,0 v 5.412 c 0,0.255 0.207,0.463 0.463,0.463 h 2.665 c 0.253,0 0.462,-0.209 0.462,-0.462 0,0 0,-0.001 0,-0.001 V 0 Z m 5.784,5.412 c 0,0.255 0.207,0.463 0.462,0.463 h 2.665 c 0.254,0 0.463,-0.209 0.463,-0.463 V 0 h -3.59 z m 5.875,0 c 0,0.255 0.207,0.463 0.462,0.463 h 2.665 c 0.254,0 0.463,-0.209 0.463,-0.463 V 0 h -3.59 z m 5.875,0 c 0,0.255 0.207,0.463 0.462,0.463 h 2.665 c 0.254,0 0.463,-0.209 0.463,-0.463 V 0 h -3.59 z m 5.874,0 c 0,0.255 0.207,0.463 0.462,0.463 h 2.665 c 0.254,0 0.463,-0.209 0.463,-0.463 V 0 h -3.59 z m 5.875,0 c 0,0.255 0.207,0.463 0.462,0.463 h 2.665 c 0.254,0 0.463,-0.209 0.463,-0.463 V 0 h -3.59 z m 5.874,0 c 0,0.255 0.207,0.463 0.462,0.463 h 2.665 c 0.253,0 0.462,-0.209 0.462,-0.462 0,0 0,-0.001 0,-0.001 V 0 h -3.59 v 5.412 z m 5.875,0 c 0,0.255 0.207,0.463 0.463,0.463 h 2.665 c 0.253,0 0.462,-0.209 0.462,-0.462 0,0 0,-0.001 0,-0.001 V 0 h -3.59 z m 5.874,0 c 0,0.255 0.207,0.463 0.463,0.463 h 2.665 c 0.253,0 0.462,-0.209 0.462,-0.462 0,0 0,-0.001 0,-0.001 V 0 h -3.59 z m 5.875,0 c 0,0.255 0.207,0.463 0.463,0.463 h 2.665 c 0.253,0 0.462,-0.209 0.462,-0.462 0,0 0,-0.001 0,-0.001 V 0 h -3.59 z m 5.874,0 c 0,0.255 0.207,0.463 0.463,0.463 h 2.665 c 0.253,0 0.462,-0.209 0.462,-0.462 0,0 0,-0.001 0,-0.001 V 0 h -3.59 z m 5.875,0 c 0,0.255 0.207,0.463 0.463,0.463 h 2.665 c 0.253,0 0.462,-0.209 0.462,-0.462 0,0 0,-0.001 0,-0.001 V 0 h -3.59 z m 5.875,0 c 0,0.255 0.207,0.463 0.463,0.463 h 2.665 c 0.253,0 0.462,-0.209 0.462,-0.462 0,0 0,-0.001 0,-0.001 V 0 h -3.59 z m 5.874,0 c 0,0.255 0.207,0.463 0.463,0.463 h 2.665 c 0.253,0 0.462,-0.209 0.462,-0.462 0,0 0,-0.001 0,-0.001 V 0 h -3.59 z m 5.875,0 c 0,0.255 0.207,0.463 0.463,0.463 h 2.665 c 0.253,0 0.462,-0.209 0.462,-0.462 0,0 0,-0.001 0,-0.001 V 0 h -3.59 z m 5.874,0 c 0,0.255 0.207,0.463 0.463,0.463 h 2.665 c 0.253,0 0.462,-0.209 0.462,-0.462 0,0 0,-0.001 0,-0.001 V 0 h -3.59 z m 6.02,0 c 0,0.255 0.207,0.463 0.462,0.463 h 2.665 c 0.254,0 0.463,-0.209 0.463,-0.463 V 0 h -3.59 z m 5.875,0 c 0,0.255 0.207,0.463 0.462,0.463 h 2.665 c 0.254,0 0.463,-0.209 0.463,-0.463 V 0 h -3.59 z m 5.875,0 c 0,0.255 0.207,0.463 0.462,0.463 h 2.665 c 0.254,0 0.463,-0.209 0.463,-0.463 V 0 h -3.59 z m 5.874,0 c 0,0.255 0.207,0.463 0.462,0.463 h 2.665 c 0.254,0 0.463,-0.209 0.463,-0.463 V 0 h -3.59 z M 365.721,0 v 5.412 c 0,0.255 0.207,0.463 0.462,0.463 h 2.665 c 0.254,0 0.463,-0.209 0.463,-0.463 V 0 Z m 5.874,5.412 c 0,0.255 0.207,0.463 0.463,0.463 h 2.665 c 0.253,0 0.462,-0.209 0.462,-0.462 0,0 0,-0.001 0,-0.001 V 0 h -3.59 z m 5.875,0 c 0,0.255 0.207,0.463 0.463,0.463 h 2.665 c 0.253,0 0.462,-0.209 0.462,-0.462 0,0 0,-0.001 0,-0.001 V 0 h -3.59 z m 5.875,0 c 0,0.255 0.207,0.463 0.463,0.463 h 2.665 c 0.253,0 0.462,-0.209 0.462,-0.462 0,0 0,-0.001 0,-0.001 V 0 h -3.59 z m 5.874,0 c 0,0.255 0.207,0.463 0.463,0.463 h 2.665 c 0.253,0 0.462,-0.209 0.462,-0.462 0,0 0,-0.001 0,-0.001 V 0 h -3.59 z m 5.875,0 c 0,0.255 0.207,0.463 0.463,0.463 h 2.665 c 0.253,0 0.462,-0.209 0.462,-0.462 0,0 0,-0.001 0,-0.001 V 0 h -3.59 z m 5.874,0 c 0,0.255 0.207,0.463 0.463,0.463 h 2.665 c 0.253,0 0.462,-0.209 0.462,-0.462 0,0 0,-0.001 0,-0.001 V 0 h -3.59 z m 5.875,0 c 0,0.255 0.207,0.463 0.463,0.463 h 2.665 c 0.253,0 0.462,-0.209 0.462,-0.462 0,0 0,-0.001 0,-0.001 V 0 h -3.59 z m 5.875,0 c 0,0.255 0.207,0.463 0.463,0.463 h 2.665 c 0.253,0 0.462,-0.209 0.462,-0.462 0,0 0,-0.001 0,-0.001 V 0 h -3.59 z m 5.874,0 c 0,0.255 0.207,0.463 0.463,0.463 h 2.665 c 0.253,0 0.462,-0.209 0.462,-0.462 0,0 0,-0.001 0,-0.001 V 0 h -3.59 z m 5.875,0 c 0,0.255 0.207,0.463 0.463,0.463 h 2.665 c 0.253,0 0.462,-0.209 0.462,-0.462 0,0 0,-0.001 0,-0.001 V 0 h -3.59 z m 5.874,0 c 0,0.255 0.207,0.463 0.463,0.463 h 2.665 c 0.253,0 0.462,-0.209 0.462,-0.462 0,0 0,-0.001 0,-0.001 V 0 h -3.59 z m 5.875,0 c 0,0.255 0.207,0.463 0.463,0.463 h 2.665 c 0.253,0 0.462,-0.209 0.462,-0.462 0,0 0,-0.001 0,-0.001 V 0 h -3.59 z m 5.875,0 c 0,0.255 0.207,0.463 0.463,0.463 h 2.665 c 0.253,0 0.462,-0.209 0.462,-0.462 0,0 0,-0.001 0,-0.001 V 0 h -3.59 z m 5.874,0 c 0,0.255 0.207,0.463 0.463,0.463 h 2.665 c 0.253,0 0.462,-0.209 0.462,-0.462 0,0 0,-0.001 0,-0.001 V 0 h -3.59 z m 5.875,0 c 0,0.255 0.207,0.463 0.463,0.463 h 2.665 c 0.253,0 0.462,-0.209 0.462,-0.462 0,0 0,-0.001 0,-0.001 V 0 h -3.59 z m 6.02,0 c 0,0.255 0.207,0.463 0.462,0.463 h 2.665 c 0.254,0 0.463,-0.209 0.463,-0.463 V 0 h -3.59 z m 5.874,0 c 0,0.255 0.207,0.463 0.462,0.463 h 2.665 c 0.254,0 0.463,-0.209 0.463,-0.463 V 0 h -3.59 z m 5.875,0 c 0,0.255 0.207,0.463 0.462,0.463 h 2.665 c 0.254,0 0.463,-0.209 0.463,-0.463 V 0 h -3.59 z m 5.875,0 c 0,0.255 0.207,0.463 0.462,0.463 h 2.665 c 0.254,0 0.463,-0.209 0.463,-0.463 V 0 h -3.59 z M 483.358,0 v 5.412 c 0,0.255 0.207,0.463 0.462,0.463 h 2.665 c 0.254,0 0.463,-0.209 0.463,-0.463 V 0 Z m 5.222,5.412 c 0,0.255 0.207,0.463 0.463,0.463 h 2.665 c 0.253,0 0.462,-0.209 0.462,-0.462 0,0 0,-0.001 0,-0.001 V 0 h -3.59 z m 5.875,0 c 0,0.255 0.207,0.463 0.463,0.463 h 2.665 c 0.253,0 0.462,-0.209 0.462,-0.462 0,0 0,-0.001 0,-0.001 V 0 h -3.59 z m 5.874,0 c 0,0.255 0.207,0.463 0.463,0.463 h 2.665 c 0.253,0 0.462,-0.209 0.462,-0.462 0,0 0,-0.001 0,-0.001 V 0 h -3.59 z m 5.875,0 c 0,0.255 0.207,0.463 0.463,0.463 h 2.665 c 0.253,0 0.462,-0.209 0.462,-0.462 0,0 0,-0.001 0,-0.001 V 0 h -3.59 z m 6.02,0 c 0,0.255 0.207,0.463 0.462,0.463 h 2.665 c 0.254,0 0.463,-0.209 0.463,-0.463 V 0 h -3.59 z m 5.874,0 c 0,0.255 0.207,0.463 0.462,0.463 h 2.665 c 0.254,0 0.463,-0.209 0.463,-0.463 V 0 h -3.59 z m 5.875,0 c 0,0.255 0.207,0.463 0.462,0.463 h 2.665 c 0.254,0 0.463,-0.209 0.463,-0.463 V 0 h -3.59 z m 5.875,0 c 0,0.255 0.207,0.463 0.462,0.463 h 2.665 c 0.254,0 0.463,-0.209 0.463,-0.463 V 0 h -3.59 z M 535.722,0 v 5.412 c 0,0.255 0.207,0.463 0.462,0.463 h 2.665 c 0.254,0 0.463,-0.209 0.463,-0.463 V 0 Z m 5.875,0 v 5.412 c 0,0.255 0.207,0.463 0.462,0.463 h 2.665 c 0.254,0 0.463,-0.209 0.463,-0.463 V 0 Z"
   style="fill:none;fill-rule:nonzero;stroke:#ffffff;stroke-width:1.00954;stroke-miterlimit:4;stroke-dasharray:none"
   id="path36"
   inkscape:connector-curvature="0" />


    </g>


    <g
   transform="matrix(0.996135,0,0,0.984994,1.05099,66.693649)"
   id="g42"
   style="stroke-width:1.00954;stroke-miterlimit:4;stroke-dasharray:none">
        <path
   d="m 34.16,69.271 c -0.254,0 -0.462,-0.208 -0.463,-0.462 V 54.395 c 0,-0.255 0.207,-0.462 0.463,-0.462 h 14.413 c 0.255,0 0.463,0.207 0.463,0.462 v 14.413 c 0,0.253 -0.209,0.462 -0.462,0.462 0,0 -10e-4,0 -10e-4,0 H 34.16 Z"
   style="fill:none;fill-rule:nonzero;stroke:#ffffff;stroke-width:1.00954;stroke-miterlimit:4;stroke-dasharray:none"
   id="path40"
   inkscape:connector-curvature="0" />


    </g>


    <g
   transform="matrix(0.996135,0,0,0.984994,1.05099,66.693649)"
   id="g46"
   style="stroke-width:1.00954;stroke-miterlimit:4;stroke-dasharray:none">
        <path
   d="m 53.415,69.271 c -0.254,0 -0.462,-0.208 -0.463,-0.462 V 54.395 c 0,-0.255 0.207,-0.462 0.463,-0.462 h 14.413 c 0.255,0 0.463,0.207 0.463,0.462 v 14.413 c 0,0.253 -0.209,0.462 -0.462,0.462 0,0 -10e-4,0 -10e-4,0 H 53.415 Z"
   style="fill:none;fill-rule:nonzero;stroke:#ffffff;stroke-width:1.00954;stroke-miterlimit:4;stroke-dasharray:none"
   id="path44"
   inkscape:connector-curvature="0" />


    </g>


    <g
   transform="matrix(0.996135,0,0,0.984994,1.05099,66.693649)"
   id="g50"
   style="stroke-width:1.00954;stroke-miterlimit:4;stroke-dasharray:none">
        <path
   d="m 72.671,69.271 c -0.254,0 -0.462,-0.208 -0.463,-0.462 V 54.395 c 0,-0.255 0.207,-0.462 0.463,-0.462 h 14.413 c 0.255,0 0.463,0.207 0.463,0.462 v 14.413 c 0,0.253 -0.209,0.462 -0.462,0.462 0,0 -10e-4,0 -10e-4,0 H 72.671 Z"
   style="fill:none;fill-rule:nonzero;stroke:#ffffff;stroke-width:1.00954;stroke-miterlimit:4;stroke-dasharray:none"
   id="path48"
   inkscape:connector-curvature="0" />


    </g>


    <g
   transform="matrix(0.996135,0,0,0.984994,1.05099,66.693649)"
   id="g54"
   style="stroke-width:1.00954;stroke-miterlimit:4;stroke-dasharray:none">
        <path
   d="m 91.927,69.271 c -0.254,0 -0.462,-0.208 -0.463,-0.462 V 54.395 c 0,-0.255 0.207,-0.462 0.463,-0.462 h 14.413 c 0.255,0 0.463,0.207 0.463,0.462 v 14.413 c 0,0.253 -0.209,0.462 -0.462,0.462 0,0 -10e-4,0 -10e-4,0 H 91.927 Z"
   style="fill:none;fill-rule:nonzero;stroke:#ffffff;stroke-width:1.00954;stroke-miterlimit:4;stroke-dasharray:none"
   id="path52"
   inkscape:connector-curvature="0" />


    </g>


    <g
   transform="matrix(0.996135,0,0,0.984994,1.05099,66.693649)"
   id="g58"
   style="stroke-width:1.00954;stroke-miterlimit:4;stroke-dasharray:none">
        <path
   d="m 111.182,69.271 c -0.254,0 -0.462,-0.208 -0.463,-0.462 V 54.395 c 0,-0.255 0.207,-0.462 0.463,-0.462 h 14.413 c 0.255,0 0.463,0.207 0.463,0.462 v 14.413 c 0,0.253 -0.209,0.462 -0.462,0.462 0,0 -0.001,0 -0.001,0 h -14.413 z"
   style="fill:none;fill-rule:nonzero;stroke:#ffffff;stroke-width:1.00954;stroke-miterlimit:4;stroke-dasharray:none"
   id="path56"
   inkscape:connector-curvature="0" />


    </g>


    <g
   transform="matrix(0.996135,0,0,0.984994,1.05099,66.693649)"
   id="g62"
   style="stroke-width:1.00954;stroke-miterlimit:4;stroke-dasharray:none">
        <path
   d="m 130.438,69.271 c -0.254,0 -0.462,-0.208 -0.463,-0.462 V 54.395 c 0,-0.255 0.207,-0.462 0.463,-0.462 h 14.413 c 0.255,0 0.463,0.207 0.463,0.462 v 14.413 c 0,0.253 -0.209,0.462 -0.462,0.462 0,0 -0.001,0 -0.001,0 h -14.413 z"
   style="fill:none;fill-rule:nonzero;stroke:#ffffff;stroke-width:1.00954;stroke-miterlimit:4;stroke-dasharray:none"
   id="path60"
   inkscape:connector-curvature="0" />


    </g>


    <g
   transform="matrix(0.996135,0,0,0.984994,1.05099,66.693649)"
   id="g66"
   style="stroke-width:1.00954;stroke-miterlimit:4;stroke-dasharray:none">
        <path
   d="m 149.694,69.271 c -0.254,0 -0.462,-0.208 -0.463,-0.462 V 54.395 c 0,-0.255 0.207,-0.462 0.463,-0.462 h 14.413 c 0.255,0 0.463,0.207 0.463,0.462 v 14.413 c 0,0.253 -0.209,0.462 -0.462,0.462 0,0 -0.001,0 -0.001,0 h -14.413 z"
   style="fill:none;fill-rule:nonzero;stroke:#ffffff;stroke-width:1.00954;stroke-miterlimit:4;stroke-dasharray:none"
   id="path64"
   inkscape:connector-curvature="0" />


    </g>


    <g
   transform="matrix(0.996135,0,0,0.984994,1.05099,66.693649)"
   id="g70"
   style="stroke-width:1.00954;stroke-miterlimit:4;stroke-dasharray:none">
        <path
   d="m 188.205,69.271 c -0.254,0 -0.462,-0.208 -0.463,-0.462 V 54.395 c 0,-0.255 0.207,-0.462 0.463,-0.462 h 14.413 c 0.255,0 0.463,0.207 0.463,0.462 v 14.413 c 0,0.253 -0.209,0.462 -0.462,0.462 0,0 -0.001,0 -0.001,0 h -14.413 z"
   style="fill:none;fill-rule:nonzero;stroke:#ffffff;stroke-width:1.00954;stroke-miterlimit:4;stroke-dasharray:none"
   id="path68"
   inkscape:connector-curvature="0" />


    </g>


    <g
   transform="matrix(0.996135,0,0,0.984994,1.05099,66.693649)"
   id="g74"
   style="stroke-width:1.00954;stroke-miterlimit:4;stroke-dasharray:none">
        <path
   d="m 207.46,69.271 c -0.254,0 -0.462,-0.208 -0.463,-0.462 V 54.395 c 0,-0.255 0.207,-0.462 0.463,-0.462 h 14.413 c 0.255,0 0.463,0.207 0.463,0.462 v 14.413 c 0,0.253 -0.209,0.462 -0.462,0.462 0,0 -0.001,0 -0.001,0 H 207.46 Z"
   style="fill:none;fill-rule:nonzero;stroke:#ffffff;stroke-width:1.00954;stroke-miterlimit:4;stroke-dasharray:none"
   id="path72"
   inkscape:connector-curvature="0" />


    </g>


    <g
   transform="matrix(0.996135,0,0,0.984994,1.05099,66.693649)"
   id="g78"
   style="stroke-width:1.00954;stroke-miterlimit:4;stroke-dasharray:none">
        <path
   d="m 226.716,69.271 c -0.254,0 -0.462,-0.208 -0.463,-0.462 V 54.395 c 0,-0.255 0.207,-0.462 0.463,-0.462 h 14.413 c 0.255,0 0.463,0.207 0.463,0.462 v 14.413 c 0,0.253 -0.209,0.462 -0.462,0.462 0,0 -0.001,0 -0.001,0 h -14.413 z"
   style="fill:none;fill-rule:nonzero;stroke:#ffffff;stroke-width:1.00954;stroke-miterlimit:4;stroke-dasharray:none"
   id="path76"
   inkscape:connector-curvature="0" />


    </g>


    <g
   transform="matrix(0.996135,0,0,0.984994,1.05099,66.693649)"
   id="g82"
   style="stroke-width:1.00954;stroke-miterlimit:4;stroke-dasharray:none">
        <path
   d="m 245.972,69.271 c -0.254,0 -0.462,-0.208 -0.463,-0.462 V 54.395 c 0,-0.255 0.207,-0.462 0.463,-0.462 h 14.413 c 0.255,0 0.463,0.207 0.463,0.462 v 14.413 c 0,0.253 -0.209,0.462 -0.462,0.462 0,0 -0.001,0 -0.001,0 h -14.413 z"
   style="fill:none;fill-rule:nonzero;stroke:#ffffff;stroke-width:1.00954;stroke-miterlimit:4;stroke-dasharray:none"
   id="path80"
   inkscape:connector-curvature="0" />


    </g>


    <g
   transform="matrix(0.996135,0,0,0.984994,1.05099,66.693649)"
   id="g86"
   style="stroke-width:1.00954;stroke-miterlimit:4;stroke-dasharray:none">
        <path
   d="m 265.227,69.271 c -0.254,0 -0.462,-0.208 -0.463,-0.462 V 54.395 c 0,-0.255 0.207,-0.462 0.463,-0.462 h 14.413 c 0.255,0 0.463,0.207 0.463,0.462 v 14.413 c 0,0.253 -0.209,0.462 -0.462,0.462 0,0 -0.001,0 -0.001,0 h -14.413 z"
   style="fill:none;fill-rule:nonzero;stroke:#ffffff;stroke-width:1.00954;stroke-miterlimit:4;stroke-dasharray:none"
   id="path84"
   inkscape:connector-curvature="0" />


    </g>


    <g
   transform="matrix(0.996135,0,0,0.984994,1.05099,66.693649)"
   id="g90"
   style="stroke-width:1.00954;stroke-miterlimit:4;stroke-dasharray:none">
        <path
   d="m 284.483,69.271 c -0.254,0 -0.462,-0.208 -0.463,-0.462 V 54.395 c 0,-0.255 0.207,-0.462 0.463,-0.462 h 14.412 c 0.255,0 0.463,0.207 0.463,0.462 v 14.413 c 0,0.253 -0.209,0.462 -0.462,0.462 0,0 -0.001,0 -0.001,0 h -14.412 z"
   style="fill:none;fill-rule:nonzero;stroke:#ffffff;stroke-width:1.00954;stroke-miterlimit:4;stroke-dasharray:none"
   id="path88"
   inkscape:connector-curvature="0" />


    </g>


    <g
   transform="matrix(0.996135,0,0,0.984994,1.05099,66.693649)"
   id="g94"
   style="stroke-width:1.00954;stroke-miterlimit:4;stroke-dasharray:none">
        <path
   d="m 303.739,69.271 c -0.254,0 -0.462,-0.208 -0.463,-0.462 V 54.395 c 0,-0.255 0.207,-0.462 0.463,-0.462 h 23.841 c 0.255,0 0.463,0.207 0.463,0.462 v 14.413 c 0,0.253 -0.209,0.462 -0.462,0.462 0,0 -0.001,0 -0.001,0 h -23.841 z"
   style="fill:none;fill-rule:nonzero;stroke:#ffffff;stroke-width:1.00954;stroke-miterlimit:4;stroke-dasharray:none"
   id="path92"
   inkscape:connector-curvature="0" />


    </g>


    <g
   transform="matrix(0.996135,0,0,0.984994,1.05099,66.693649)"
   id="g98"
   style="stroke-width:1.00954;stroke-miterlimit:4;stroke-dasharray:none">
        <path
   d="m 34.16,88.037 c -0.254,0 -0.462,-0.208 -0.463,-0.462 V 73.161 c 0,-0.255 0.208,-0.462 0.463,-0.462 h 23.841 c 0.255,0 0.463,0.207 0.463,0.462 v 14.413 c -10e-4,0.254 -0.209,0.462 -0.463,0.462 H 34.16 Z"
   style="fill:none;fill-rule:nonzero;stroke:#ffffff;stroke-width:1.00954;stroke-miterlimit:4;stroke-dasharray:none"
   id="path96"
   inkscape:connector-curvature="0" />


    </g>


    <g
   transform="matrix(0.996135,0,0,0.984994,1.05099,66.693649)"
   id="g102"
   style="stroke-width:1.00954;stroke-miterlimit:4;stroke-dasharray:none">
        <path
   d="m 34.161,106.803 c 0,0 -0.001,0 -0.001,0 -0.254,0 -0.462,-0.208 -0.463,-0.462 V 91.927 c 0,-0.255 0.208,-0.462 0.463,-0.462 l 28.517,0.033 c 0.257,0 0.464,0.207 0.464,0.462 v 14.413 c 0,0.253 -0.209,0.462 -0.462,0.462 z"
   style="fill:none;fill-rule:nonzero;stroke:#ffffff;stroke-width:1.00954;stroke-miterlimit:4;stroke-dasharray:none"
   id="path100"
   inkscape:connector-curvature="0" />


    </g>


    <g
   transform="matrix(0.996135,0,0,0.984994,1.05099,66.693649)"
   id="g106"
   style="stroke-width:1.00954;stroke-miterlimit:4;stroke-dasharray:none">
        <path
   d="m 34.16,125.604 c -0.254,0 -0.462,-0.208 -0.463,-0.462 v -14.413 c 0,-0.255 0.208,-0.462 0.463,-0.462 h 38.699 c 0.255,0 0.463,0.207 0.463,0.462 v 14.413 c -0.001,0.254 -0.209,0.462 -0.463,0.462 z"
   style="fill:none;fill-rule:nonzero;stroke:#ffffff;stroke-width:1.00954;stroke-miterlimit:4;stroke-dasharray:none"
   id="path104"
   inkscape:connector-curvature="0" />


    </g>


    <g
   transform="matrix(0.996135,0,0,0.984994,1.05099,66.693649)"
   id="g110"
   style="stroke-width:1.00954;stroke-miterlimit:4;stroke-dasharray:none">
        <path
   d="m 288.917,125.587 c 0,0 -10e-4,0 -10e-4,0 -0.253,0 -0.462,-0.209 -0.462,-0.462 0,0 0,0 0,0 v -14.413 c 0,-0.255 0.207,-0.462 0.463,-0.462 l 38.662,0.017 c 0.256,0 0.463,0.207 0.463,0.462 v 14.413 c 0,0.253 -0.209,0.462 -0.462,0.462 0,0 -10e-4,0 -10e-4,0 h 10e-4 z"
   style="fill:none;fill-rule:nonzero;stroke:#ffffff;stroke-width:1.00954;stroke-miterlimit:4;stroke-dasharray:none"
   id="path108"
   inkscape:connector-curvature="0" />


    </g>


    <g
   transform="matrix(0.996135,0,0,0.984994,1.05099,66.693649)"
   id="g114"
   style="stroke-width:1.00954;stroke-miterlimit:4;stroke-dasharray:none">
        <path
   d="m 269.94,144.705 c -0.22,0 -0.398,-0.207 -0.398,-0.462 V 129.83 c 0,-0.255 0.178,-0.462 0.397,-0.462 l 14.391,0.008 c 0.22,0 0.398,0.207 0.398,0.462 v 14.413 c 0,0.255 -0.178,0.462 -0.397,0.462 z"
   style="fill:none;fill-rule:nonzero;stroke:#ffffff;stroke-width:1.00954;stroke-miterlimit:4;stroke-dasharray:none"
   id="path112"
   inkscape:connector-curvature="0" />


    </g>


    <g
   transform="matrix(0.996135,0,0,0.984994,1.05099,66.693649)"
   id="g118"
   style="stroke-width:1.00954;stroke-miterlimit:4;stroke-dasharray:none">
        <path
   d="m 62.68,88.037 c -0.254,0 -0.462,-0.208 -0.463,-0.462 V 73.161 c 0,-0.255 0.207,-0.462 0.463,-0.462 h 14.413 c 0.255,0 0.463,0.207 0.463,0.462 v 14.413 c 0,0.253 -0.209,0.462 -0.462,0.462 0,0 -10e-4,0 -10e-4,0 H 62.68 Z"
   style="fill:none;fill-rule:nonzero;stroke:#ffffff;stroke-width:1.00954;stroke-miterlimit:4;stroke-dasharray:none"
   id="path116"
   inkscape:connector-curvature="0" />


    </g>


    <g
   transform="matrix(0.996135,0,0,0.984994,1.05099,66.693649)"
   id="g122"
   style="stroke-width:1.00954;stroke-miterlimit:4;stroke-dasharray:none">
        <path
   d="m 81.936,88.037 c -0.254,0 -0.462,-0.208 -0.463,-0.462 V 73.161 c 0,-0.255 0.207,-0.462 0.463,-0.462 h 14.413 c 0.255,0 0.463,0.207 0.463,0.462 v 14.413 c 0,0.253 -0.209,0.462 -0.462,0.462 0,0 -10e-4,0 -10e-4,0 H 81.936 Z"
   style="fill:none;fill-rule:nonzero;stroke:#ffffff;stroke-width:1.00954;stroke-miterlimit:4;stroke-dasharray:none"
   id="path120"
   inkscape:connector-curvature="0" />


    </g>


    <g
   transform="matrix(0.996135,0,0,0.984994,1.05099,66.693649)"
   id="g126"
   style="stroke-width:1.00954;stroke-miterlimit:4;stroke-dasharray:none">
        <path
   d="m 101.192,88.037 c -0.254,0 -0.462,-0.208 -0.463,-0.462 V 73.161 c 0,-0.255 0.207,-0.462 0.463,-0.462 h 14.413 c 0.255,0 0.463,0.207 0.463,0.462 v 14.413 c 0,0.253 -0.209,0.462 -0.462,0.462 0,0 -10e-4,0 -10e-4,0 h -14.413 z"
   style="fill:none;fill-rule:nonzero;stroke:#ffffff;stroke-width:1.00954;stroke-miterlimit:4;stroke-dasharray:none"
   id="path124"
   inkscape:connector-curvature="0" />


    </g>


    <g
   transform="matrix(0.996135,0,0,0.984994,1.05099,66.693649)"
   id="g130"
   style="stroke-width:1.00954;stroke-miterlimit:4;stroke-dasharray:none">
        <path
   d="m 120.447,88.037 c -0.254,0 -0.462,-0.208 -0.463,-0.462 V 73.161 c 0,-0.255 0.207,-0.462 0.463,-0.462 h 14.413 c 0.255,0 0.463,0.207 0.463,0.462 v 14.413 c 0,0.253 -0.209,0.462 -0.462,0.462 0,0 -10e-4,0 -10e-4,0 h -14.413 z"
   style="fill:none;fill-rule:nonzero;stroke:#ffffff;stroke-width:1.00954;stroke-miterlimit:4;stroke-dasharray:none"
   id="path128"
   inkscape:connector-curvature="0" />


    </g>


    <g
   transform="matrix(0.996135,0,0,0.984994,1.05099,66.693649)"
   id="g134"
   style="stroke-width:1.00954;stroke-miterlimit:4;stroke-dasharray:none">
        <path
   d="m 139.703,88.037 c -0.254,0 -0.462,-0.208 -0.463,-0.462 V 73.161 c 0,-0.255 0.207,-0.462 0.463,-0.462 h 14.413 c 0.255,0 0.463,0.207 0.463,0.462 v 14.413 c 0,0.253 -0.209,0.462 -0.462,0.462 0,0 -10e-4,0 -10e-4,0 h -14.413 z"
   style="fill:none;fill-rule:nonzero;stroke:#ffffff;stroke-width:1.00954;stroke-miterlimit:4;stroke-dasharray:none"
   id="path132"
   inkscape:connector-curvature="0" />


    </g>


    <g
   transform="matrix(0.996135,0,0,0.984994,1.05099,66.693649)"
   id="g138"
   style="stroke-width:1.00954;stroke-miterlimit:4;stroke-dasharray:none">
        <path
   d="m 158.959,88.037 c -0.254,0 -0.462,-0.208 -0.463,-0.462 V 73.161 c 0,-0.255 0.207,-0.462 0.463,-0.462 h 14.413 c 0.255,0 0.463,0.207 0.463,0.462 v 14.413 c 0,0.253 -0.209,0.462 -0.462,0.462 0,0 -10e-4,0 -10e-4,0 h -14.413 z"
   style="fill:none;fill-rule:nonzero;stroke:#ffffff;stroke-width:1.00954;stroke-miterlimit:4;stroke-dasharray:none"
   id="path136"
   inkscape:connector-curvature="0" />


    </g>


    <g
   transform="matrix(0.996135,0,0,0.984994,1.05099,66.693649)"
   id="g142"
   style="stroke-width:1.00954;stroke-miterlimit:4;stroke-dasharray:none">
        <path
   d="m 178.214,88.037 c -0.254,0 -0.462,-0.208 -0.463,-0.462 V 73.161 c 0,-0.255 0.207,-0.462 0.463,-0.462 h 14.413 c 0.255,0 0.463,0.207 0.463,0.462 v 14.413 c 0,0.253 -0.209,0.462 -0.462,0.462 0,0 -10e-4,0 -10e-4,0 h -14.413 z"
   style="fill:none;fill-rule:nonzero;stroke:#ffffff;stroke-width:1.00954;stroke-miterlimit:4;stroke-dasharray:none"
   id="path140"
   inkscape:connector-curvature="0" />


    </g>


    <g
   transform="matrix(0.996135,0,0,0.984994,1.05099,66.693649)"
   id="g146"
   style="stroke-width:1.00954;stroke-miterlimit:4;stroke-dasharray:none">
        <path
   d="m 197.47,88.037 c -0.254,0 -0.462,-0.208 -0.463,-0.462 V 73.161 c 0,-0.255 0.207,-0.462 0.463,-0.462 h 14.413 c 0.255,0 0.463,0.207 0.463,0.462 v 14.413 c 0,0.253 -0.209,0.462 -0.462,0.462 0,0 -10e-4,0 -10e-4,0 H 197.47 Z"
   style="fill:none;fill-rule:nonzero;stroke:#ffffff;stroke-width:1.00954;stroke-miterlimit:4;stroke-dasharray:none"
   id="path144"
   inkscape:connector-curvature="0" />


    </g>


    <g
   transform="matrix(0.996135,0,0,0.984994,1.05099,66.693649)"
   id="g150"
   style="stroke-width:1.00954;stroke-miterlimit:4;stroke-dasharray:none">
        <path
   d="m 216.726,88.037 c -0.254,0 -0.462,-0.208 -0.463,-0.462 V 73.161 c 0,-0.255 0.207,-0.462 0.463,-0.462 h 14.413 c 0.255,0 0.463,0.207 0.463,0.462 v 14.413 c 0,0.253 -0.209,0.462 -0.462,0.462 0,0 -10e-4,0 -10e-4,0 h -14.413 z"
   style="fill:none;fill-rule:nonzero;stroke:#ffffff;stroke-width:1.00954;stroke-miterlimit:4;stroke-dasharray:none"
   id="path148"
   inkscape:connector-curvature="0" />


    </g>


    <g
   transform="matrix(0.996135,0,0,0.984994,1.05099,66.693649)"
   id="g154"
   style="stroke-width:1.00954;stroke-miterlimit:4;stroke-dasharray:none">
        <path
   d="m 235.981,88.037 c -0.254,0 -0.462,-0.208 -0.463,-0.462 V 73.161 c 0,-0.255 0.207,-0.462 0.463,-0.462 h 14.413 c 0.255,0 0.463,0.207 0.463,0.462 v 14.413 c 0,0.253 -0.209,0.462 -0.462,0.462 0,0 -0.001,0 -0.001,0 h -14.413 z"
   style="fill:none;fill-rule:nonzero;stroke:#ffffff;stroke-width:1.00954;stroke-miterlimit:4;stroke-dasharray:none"
   id="path152"
   inkscape:connector-curvature="0" />


    </g>


    <g
   transform="matrix(0.996135,0,0,0.984994,1.05099,66.693649)"
   id="g158"
   style="stroke-width:1.00954;stroke-miterlimit:4;stroke-dasharray:none">
        <path
   d="m 255.237,88.037 c -0.254,0 -0.462,-0.208 -0.463,-0.462 V 73.161 c 0,-0.255 0.207,-0.462 0.463,-0.462 h 14.413 c 0.255,0 0.463,0.207 0.463,0.462 v 14.413 c 0,0.253 -0.209,0.462 -0.462,0.462 0,0 -0.001,0 -0.001,0 h -14.413 z"
   style="fill:none;fill-rule:nonzero;stroke:#ffffff;stroke-width:1.00954;stroke-miterlimit:4;stroke-dasharray:none"
   id="path156"
   inkscape:connector-curvature="0" />


    </g>


    <g
   transform="matrix(0.996135,0,0,0.984994,1.05099,66.693649)"
   id="g162"
   style="stroke-width:1.00954;stroke-miterlimit:4;stroke-dasharray:none">
        <path
   d="m 274.493,88.037 c -0.254,0 -0.462,-0.208 -0.463,-0.462 V 73.161 c 0,-0.255 0.207,-0.462 0.463,-0.462 h 14.413 c 0.255,0 0.463,0.207 0.463,0.462 v 14.413 c 0,0.253 -0.209,0.462 -0.462,0.462 0,0 -10e-4,0 -10e-4,0 h -14.413 z"
   style="fill:none;fill-rule:nonzero;stroke:#ffffff;stroke-width:1.00954;stroke-miterlimit:4;stroke-dasharray:none"
   id="path160"
   inkscape:connector-curvature="0" />


    </g>


    <g
   transform="matrix(0.996135,0,0,0.984994,1.05099,66.693649)"
   id="g166"
   style="stroke-width:1.00954;stroke-miterlimit:4;stroke-dasharray:none">
        <path
   d="m 278.735,106.803 c -0.254,0 -0.462,-0.208 -0.463,-0.462 V 91.927 c 0,-0.255 0.208,-0.462 0.463,-0.462 h 14.413 c 0.255,0 0.462,0.207 0.462,0.462 v 14.413 c 0,0.253 -0.209,0.462 -0.462,0.462 h -14.413 z"
   style="fill:none;fill-rule:nonzero;stroke:#ffffff;stroke-width:1.00954;stroke-miterlimit:4;stroke-dasharray:none"
   id="path164"
   inkscape:connector-curvature="0" />


    </g>


    <g
   transform="matrix(0.996135,0,0,0.984994,1.05099,66.693649)"
   id="g170"
   style="stroke-width:1.00954;stroke-miterlimit:4;stroke-dasharray:none">
        <path
   d="m 297.91,106.838 c -0.254,0 -0.462,-0.208 -0.463,-0.462 V 88.037 h -3.862 c -0.254,0 -0.462,-0.208 -0.463,-0.462 V 73.161 c 0,-0.255 0.207,-0.462 0.463,-0.462 l 33.996,-0.033 c 0.254,0 0.462,0.207 0.462,0.462 v 33.245 c 0,0.253 -0.209,0.462 -0.462,0.462 z"
   style="fill:none;fill-rule:nonzero;stroke:#ffffff;stroke-width:1.00954;stroke-miterlimit:4;stroke-dasharray:none"
   id="path168"
   inkscape:connector-curvature="0" />


    </g>


    <g
   transform="matrix(0.996135,0,0,0.984994,1.05099,66.693649)"
   id="g174"
   style="stroke-width:1.00954;stroke-miterlimit:4;stroke-dasharray:none">
        <path
   d="m 168.949,69.271 c -0.254,0 -0.462,-0.208 -0.463,-0.462 V 54.395 c 0,-0.255 0.207,-0.462 0.463,-0.462 h 14.413 c 0.255,0 0.463,0.207 0.463,0.462 v 14.413 c 0,0.253 -0.209,0.462 -0.462,0.462 0,0 -0.001,0 -0.001,0 h -14.413 z"
   style="fill:none;fill-rule:nonzero;stroke:#ffffff;stroke-width:1.00954;stroke-miterlimit:4;stroke-dasharray:none"
   id="path172"
   inkscape:connector-curvature="0" />


    </g>


    <g
   transform="matrix(0.996135,0,0,0.984994,1.05099,66.693649)"
   id="g178"
   style="stroke-width:1.00954;stroke-miterlimit:4;stroke-dasharray:none">
        <path
   d="m 239.898,106.836 c -0.254,0 -0.462,-0.208 -0.463,-0.462 V 91.961 c 0,-0.255 0.207,-0.462 0.463,-0.462 h 14.413 c 0.255,0 0.463,0.207 0.463,0.462 v 14.413 c 0,0.253 -0.209,0.462 -0.462,0.462 0,0 -0.001,0 -0.001,0 z"
   style="fill:none;fill-rule:nonzero;stroke:#ffffff;stroke-width:1.00954;stroke-miterlimit:4;stroke-dasharray:none"
   id="path176"
   inkscape:connector-curvature="0" />


    </g>


    <g
   transform="matrix(0.996135,0,0,0.984994,1.05099,66.693649)"
   id="g182"
   style="stroke-width:1.00954;stroke-miterlimit:4;stroke-dasharray:none">
        <path
   d="m 259.316,106.836 c -0.254,0 -0.462,-0.208 -0.463,-0.462 V 91.961 c 0,-0.255 0.207,-0.462 0.463,-0.462 h 14.413 c 0.255,0 0.463,0.207 0.463,0.462 v 14.413 c 0,0.253 -0.209,0.462 -0.462,0.462 0,0 -0.001,0 -0.001,0 z"
   style="fill:none;fill-rule:nonzero;stroke:#ffffff;stroke-width:1.00954;stroke-miterlimit:4;stroke-dasharray:none"
   id="path180"
   inkscape:connector-curvature="0" />


    </g>


    <g
   transform="matrix(0.996135,0,0,0.984994,1.05099,66.693649)"
   id="g186"
   style="stroke-width:1.00954;stroke-miterlimit:4;stroke-dasharray:none">
        <path
   d="m 220.479,106.836 c -0.254,0 -0.462,-0.208 -0.463,-0.462 V 91.961 c 0,-0.255 0.207,-0.462 0.463,-0.462 h 14.413 c 0.255,0 0.463,0.207 0.463,0.462 v 14.413 c 0,0.253 -0.209,0.462 -0.462,0.462 0,0 -0.001,0 -0.001,0 z"
   style="fill:none;fill-rule:nonzero;stroke:#ffffff;stroke-width:1.00954;stroke-miterlimit:4;stroke-dasharray:none"
   id="path184"
   inkscape:connector-curvature="0" />


    </g>


    <g
   transform="matrix(0.996135,0,0,0.984994,1.05099,66.693649)"
   id="g190"
   style="stroke-width:1.00954;stroke-miterlimit:4;stroke-dasharray:none">
        <path
   d="m 201.386,106.836 c -0.254,0 -0.462,-0.208 -0.463,-0.462 V 91.961 c 0,-0.255 0.207,-0.462 0.463,-0.462 h 14.413 c 0.255,0 0.463,0.207 0.463,0.462 v 14.413 c 0,0.253 -0.209,0.462 -0.462,0.462 0,0 -0.001,0 -0.001,0 z"
   style="fill:none;fill-rule:nonzero;stroke:#ffffff;stroke-width:1.00954;stroke-miterlimit:4;stroke-dasharray:none"
   id="path188"
   inkscape:connector-curvature="0" />


    </g>


    <g
   transform="matrix(0.996135,0,0,0.984994,1.05099,66.693649)"
   id="g194"
   style="stroke-width:1.00954;stroke-miterlimit:4;stroke-dasharray:none">
        <path
   d="m 182.294,106.836 c -0.254,0 -0.462,-0.208 -0.463,-0.462 V 91.961 c 0,-0.255 0.207,-0.462 0.463,-0.462 h 14.413 c 0.255,0 0.463,0.207 0.463,0.462 v 14.413 c 0,0.253 -0.209,0.462 -0.462,0.462 0,0 -0.001,0 -0.001,0 z"
   style="fill:none;fill-rule:nonzero;stroke:#ffffff;stroke-width:1.00954;stroke-miterlimit:4;stroke-dasharray:none"
   id="path192"
   inkscape:connector-curvature="0" />


    </g>


    <g
   transform="matrix(0.996135,0,0,0.984994,1.05099,66.693649)"
   id="g198"
   style="stroke-width:1.00954;stroke-miterlimit:4;stroke-dasharray:none">
        <path
   d="m 163.201,106.836 c -0.254,0 -0.462,-0.208 -0.463,-0.462 V 91.961 c 0,-0.255 0.207,-0.462 0.463,-0.462 h 14.413 c 0.255,0 0.463,0.207 0.463,0.462 v 14.413 c 0,0.253 -0.209,0.462 -0.462,0.462 0,0 -0.001,0 -0.001,0 z"
   style="fill:none;fill-rule:nonzero;stroke:#ffffff;stroke-width:1.00954;stroke-miterlimit:4;stroke-dasharray:none"
   id="path196"
   inkscape:connector-curvature="0" />


    </g>


    <g
   transform="matrix(0.996135,0,0,0.984994,1.05099,66.693649)"
   id="g202"
   style="stroke-width:1.00954;stroke-miterlimit:4;stroke-dasharray:none">
        <path
   d="m 144.109,106.836 c -0.254,0 -0.462,-0.208 -0.463,-0.462 V 91.961 c 0,-0.255 0.207,-0.462 0.463,-0.462 h 14.413 c 0.255,0 0.463,0.207 0.463,0.462 v 14.413 c 0,0.253 -0.209,0.462 -0.462,0.462 0,0 -0.001,0 -0.001,0 z"
   style="fill:none;fill-rule:nonzero;stroke:#ffffff;stroke-width:1.00954;stroke-miterlimit:4;stroke-dasharray:none"
   id="path200"
   inkscape:connector-curvature="0" />


    </g>


    <g
   transform="matrix(0.996135,0,0,0.984994,1.05099,66.693649)"
   id="g206"
   style="stroke-width:1.00954;stroke-miterlimit:4;stroke-dasharray:none">
        <path
   d="m 125.017,106.836 c -0.254,0 -0.462,-0.208 -0.463,-0.462 V 91.961 c 0,-0.255 0.207,-0.462 0.463,-0.462 h 14.413 c 0.255,0 0.463,0.207 0.463,0.462 v 14.413 c 0,0.253 -0.209,0.462 -0.462,0.462 0,0 -0.001,0 -0.001,0 z"
   style="fill:none;fill-rule:nonzero;stroke:#ffffff;stroke-width:1.00954;stroke-miterlimit:4;stroke-dasharray:none"
   id="path204"
   inkscape:connector-curvature="0" />


    </g>


    <g
   transform="matrix(0.996135,0,0,0.984994,1.05099,66.693649)"
   id="g210"
   style="stroke-width:1.00954;stroke-miterlimit:4;stroke-dasharray:none">
        <path
   d="m 105.924,106.836 c -0.254,0 -0.462,-0.208 -0.463,-0.462 V 91.961 c 0,-0.255 0.207,-0.462 0.463,-0.462 h 14.413 c 0.255,0 0.463,0.207 0.463,0.462 v 14.413 c 0,0.253 -0.209,0.462 -0.462,0.462 0,0 -10e-4,0 -10e-4,0 z"
   style="fill:none;fill-rule:nonzero;stroke:#ffffff;stroke-width:1.00954;stroke-miterlimit:4;stroke-dasharray:none"
   id="path208"
   inkscape:connector-curvature="0" />


    </g>


    <g
   transform="matrix(0.996135,0,0,0.984994,1.05099,66.693649)"
   id="g214"
   style="stroke-width:1.00954;stroke-miterlimit:4;stroke-dasharray:none">
        <path
   d="m 86.832,106.803 c -0.254,0 -0.462,-0.208 -0.463,-0.462 V 91.927 c 0,-0.255 0.207,-0.462 0.463,-0.462 h 14.413 c 0.255,0 0.463,0.207 0.463,0.462 v 14.413 c 0,0.253 -0.209,0.462 -0.462,0.462 0,0 -10e-4,0 -10e-4,0 H 86.832 Z"
   style="fill:none;fill-rule:nonzero;stroke:#ffffff;stroke-width:1.00954;stroke-miterlimit:4;stroke-dasharray:none"
   id="path212"
   inkscape:connector-curvature="0" />


    </g>


    <g
   transform="matrix(0.996135,0,0,0.984994,1.05099,66.693649)"
   id="g218"
   style="stroke-width:1.00954;stroke-miterlimit:4;stroke-dasharray:none">
        <path
   d="m 67.739,106.803 c -0.254,0 -0.462,-0.208 -0.463,-0.462 V 91.927 c 0,-0.255 0.207,-0.462 0.463,-0.462 h 14.413 c 0.255,0 0.463,0.207 0.463,0.462 v 14.413 c 0,0.253 -0.209,0.462 -0.462,0.462 0,0 -0.001,0 -0.001,0 H 67.739 Z"
   style="fill:none;fill-rule:nonzero;stroke:#ffffff;stroke-width:1.00954;stroke-miterlimit:4;stroke-dasharray:none"
   id="path216"
   inkscape:connector-curvature="0" />


    </g>


    <g
   transform="matrix(0.996135,0,0,0.984994,1.05099,66.693649)"
   id="g222"
   style="stroke-width:1.00954;stroke-miterlimit:4;stroke-dasharray:none">
        <path
   d="m 77.775,125.604 c -0.254,0 -0.462,-0.208 -0.463,-0.462 v -14.413 c 0,-0.255 0.207,-0.462 0.463,-0.462 h 14.413 c 0.255,0 0.463,0.207 0.463,0.462 v 14.413 c 0,0.253 -0.209,0.462 -0.462,0.462 0,0 -10e-4,0 -10e-4,0 z"
   style="fill:none;fill-rule:nonzero;stroke:#ffffff;stroke-width:1.00954;stroke-miterlimit:4;stroke-dasharray:none"
   id="path220"
   inkscape:connector-curvature="0" />


    </g>


    <g
   transform="matrix(0.996135,0,0,0.984994,1.05099,66.693649)"
   id="g226"
   style="stroke-width:1.00954;stroke-miterlimit:4;stroke-dasharray:none">
        <path
   d="m 96.867,125.604 c -0.254,0 -0.462,-0.208 -0.463,-0.462 v -14.413 c 0,-0.255 0.207,-0.462 0.463,-0.462 h 14.413 c 0.255,0 0.463,0.207 0.463,0.462 v 14.413 c 0,0.253 -0.209,0.462 -0.462,0.462 0,0 -0.001,0 -0.001,0 z"
   style="fill:none;fill-rule:nonzero;stroke:#ffffff;stroke-width:1.00954;stroke-miterlimit:4;stroke-dasharray:none"
   id="path224"
   inkscape:connector-curvature="0" />


    </g>


    <g
   transform="matrix(0.996135,0,0,0.984994,1.05099,66.693649)"
   id="g230"
   style="stroke-width:1.00954;stroke-miterlimit:4;stroke-dasharray:none">
        <path
   d="m 115.96,125.604 c -0.254,0 -0.462,-0.208 -0.463,-0.462 v -14.413 c 0,-0.255 0.207,-0.462 0.463,-0.462 h 14.413 c 0.255,0 0.463,0.207 0.463,0.462 v 14.413 c 0,0.253 -0.209,0.462 -0.462,0.462 0,0 -0.001,0 -0.001,0 z"
   style="fill:none;fill-rule:nonzero;stroke:#ffffff;stroke-width:1.00954;stroke-miterlimit:4;stroke-dasharray:none"
   id="path228"
   inkscape:connector-curvature="0" />


    </g>


    <g
   transform="matrix(0.996135,0,0,0.984994,1.05099,66.693649)"
   id="g234"
   style="stroke-width:1.00954;stroke-miterlimit:4;stroke-dasharray:none">
        <path
   d="m 135.052,125.604 c -0.254,0 -0.462,-0.208 -0.463,-0.462 v -14.413 c 0,-0.255 0.207,-0.462 0.463,-0.462 h 14.413 c 0.255,0 0.463,0.207 0.463,0.462 v 14.413 c 0,0.253 -0.209,0.462 -0.462,0.462 0,0 -0.001,0 -0.001,0 z"
   style="fill:none;fill-rule:nonzero;stroke:#ffffff;stroke-width:1.00954;stroke-miterlimit:4;stroke-dasharray:none"
   id="path232"
   inkscape:connector-curvature="0" />


    </g>


    <g
   transform="matrix(0.996135,0,0,0.984994,1.05099,66.693649)"
   id="g238"
   style="stroke-width:1.00954;stroke-miterlimit:4;stroke-dasharray:none">
        <path
   d="m 154.145,125.604 c -0.254,0 -0.462,-0.208 -0.463,-0.462 v -14.413 c 0,-0.255 0.207,-0.462 0.463,-0.462 h 14.413 c 0.255,0 0.463,0.207 0.463,0.462 v 14.413 c 0,0.253 -0.209,0.462 -0.462,0.462 0,0 -0.001,0 -0.001,0 z"
   style="fill:none;fill-rule:nonzero;stroke:#ffffff;stroke-width:1.00954;stroke-miterlimit:4;stroke-dasharray:none"
   id="path236"
   inkscape:connector-curvature="0" />


    </g>


    <g
   transform="matrix(0.996135,0,0,0.984994,1.05099,66.693649)"
   id="g242"
   style="stroke-width:1.00954;stroke-miterlimit:4;stroke-dasharray:none">
        <path
   d="m 173.237,125.604 c -0.254,0 -0.462,-0.208 -0.463,-0.462 v -14.413 c 0,-0.255 0.207,-0.462 0.463,-0.462 h 14.413 c 0.255,0 0.463,0.207 0.463,0.462 v 14.413 c 0,0.253 -0.209,0.462 -0.462,0.462 0,0 -0.001,0 -0.001,0 z"
   style="fill:none;fill-rule:nonzero;stroke:#ffffff;stroke-width:1.00954;stroke-miterlimit:4;stroke-dasharray:none"
   id="path240"
   inkscape:connector-curvature="0" />


    </g>


    <g
   transform="matrix(0.996135,0,0,0.984994,1.05099,66.693649)"
   id="g246"
   style="stroke-width:1.00954;stroke-miterlimit:4;stroke-dasharray:none">
        <path
   d="m 192.33,125.604 c -0.254,0 -0.462,-0.208 -0.463,-0.462 v -14.413 c 0,-0.255 0.207,-0.462 0.463,-0.462 h 14.413 c 0.255,0 0.463,0.207 0.463,0.462 v 14.413 c 0,0.253 -0.209,0.462 -0.462,0.462 0,0 -0.001,0 -0.001,0 z"
   style="fill:none;fill-rule:nonzero;stroke:#ffffff;stroke-width:1.00954;stroke-miterlimit:4;stroke-dasharray:none"
   id="path244"
   inkscape:connector-curvature="0" />


    </g>


    <g
   transform="matrix(0.996135,0,0,0.984994,1.05099,66.693649)"
   id="g250"
   style="stroke-width:1.00954;stroke-miterlimit:4;stroke-dasharray:none">
        <path
   d="m 211.422,125.604 c -0.254,0 -0.462,-0.208 -0.463,-0.462 v -14.413 c 0,-0.255 0.207,-0.462 0.463,-0.462 h 14.413 c 0.255,0 0.463,0.207 0.463,0.462 v 14.413 c 0,0.253 -0.209,0.462 -0.462,0.462 0,0 -0.001,0 -0.001,0 z"
   style="fill:none;fill-rule:nonzero;stroke:#ffffff;stroke-width:1.00954;stroke-miterlimit:4;stroke-dasharray:none"
   id="path248"
   inkscape:connector-curvature="0" />


    </g>


    <g
   transform="matrix(0.996135,0,0,0.984994,1.05099,66.693649)"
   id="g254"
   style="stroke-width:1.00954;stroke-miterlimit:4;stroke-dasharray:none">
        <path
   d="m 230.841,125.604 c -0.254,0 -0.462,-0.208 -0.463,-0.462 v -14.413 c 0,-0.255 0.207,-0.462 0.463,-0.462 h 14.413 c 0.255,0 0.463,0.207 0.463,0.462 v 14.413 c 0,0.253 -0.209,0.462 -0.462,0.462 0,0 -0.001,0 -0.001,0 z"
   style="fill:none;fill-rule:nonzero;stroke:#ffffff;stroke-width:1.00954;stroke-miterlimit:4;stroke-dasharray:none"
   id="path252"
   inkscape:connector-curvature="0" />


    </g>


    <g
   transform="matrix(0.996135,0,0,0.984994,1.05099,66.693649)"
   id="g258"
   style="stroke-width:1.00954;stroke-miterlimit:4;stroke-dasharray:none">
        <path
   d="m 250.26,125.604 c -0.254,0 -0.462,-0.208 -0.463,-0.462 v -14.413 c 0,-0.255 0.207,-0.462 0.463,-0.462 h 14.413 c 0.255,0 0.463,0.207 0.463,0.462 v 14.413 c 0,0.253 -0.209,0.462 -0.462,0.462 0,0 -10e-4,0 -10e-4,0 z"
   style="fill:none;fill-rule:nonzero;stroke:#ffffff;stroke-width:1.00954;stroke-miterlimit:4;stroke-dasharray:none"
   id="path256"
   inkscape:connector-curvature="0" />


    </g>


    <g
   transform="matrix(0.996135,0,0,0.984994,1.05099,66.693649)"
   id="g262"
   style="stroke-width:1.00954;stroke-miterlimit:4;stroke-dasharray:none">
        <path
   d="m 96.867,144.709 c -0.254,0 -0.462,-0.208 -0.463,-0.462 v -14.413 c 0,-0.255 0.207,-0.462 0.463,-0.462 h 167.805 c 0.255,0 0.463,0.207 0.463,0.462 v 14.413 c 0,0.253 -0.209,0.462 -0.462,0.462 0,0 -10e-4,0 -10e-4,0 z"
   style="fill:none;fill-rule:nonzero;stroke:#ffffff;stroke-width:1.00954;stroke-miterlimit:4;stroke-dasharray:none"
   id="path260"
   inkscape:connector-curvature="0" />


    </g>


    <g
   transform="matrix(0.996135,0,0,0.984994,1.05099,66.693649)"
   id="g266"
   style="stroke-width:1.00954;stroke-miterlimit:4;stroke-dasharray:none">
        <path
   d="m 269.729,125.604 c -0.254,0 -0.462,-0.208 -0.463,-0.462 v -14.413 c 0,-0.255 0.207,-0.462 0.463,-0.462 h 14.413 c 0.255,0 0.463,0.207 0.463,0.462 v 14.413 c 0,0.253 -0.209,0.462 -0.462,0.462 0,0 -10e-4,0 -10e-4,0 z"
   style="fill:none;fill-rule:nonzero;stroke:#ffffff;stroke-width:1.00954;stroke-miterlimit:4;stroke-dasharray:none"
   id="path264"
   inkscape:connector-curvature="0" />


    </g>


    <g
   transform="matrix(0.996135,0,0,0.984994,1.05099,66.693649)"
   id="g270"
   style="stroke-width:1.00954;stroke-miterlimit:4;stroke-dasharray:none">
        <path
   d="m 352.168,87.71 c -0.254,0 -0.462,-0.208 -0.463,-0.462 V 72.835 c 0,-0.255 0.207,-0.462 0.463,-0.462 h 14.412 c 0.255,0 0.463,0.207 0.463,0.462 v 14.413 c 0,0.253 -0.209,0.462 -0.462,0.462 0,0 -0.001,0 -0.001,0 z"
   style="fill:none;fill-rule:nonzero;stroke:#ffffff;stroke-width:1.00954;stroke-miterlimit:4;stroke-dasharray:none"
   id="path268"
   inkscape:connector-curvature="0" />


    </g>


    <g
   transform="matrix(0.996135,0,0,0.984994,1.05099,66.693649)"
   id="g274"
   style="stroke-width:1.00954;stroke-miterlimit:4;stroke-dasharray:none">
        <path
   d="m 371.26,87.71 c -0.254,0 -0.462,-0.208 -0.463,-0.462 V 72.835 c 0,-0.255 0.207,-0.462 0.463,-0.462 h 14.412 c 0.255,0 0.463,0.207 0.463,0.462 v 14.413 c 0,0.253 -0.209,0.462 -0.462,0.462 0,0 -10e-4,0 -10e-4,0 z"
   style="fill:none;fill-rule:nonzero;stroke:#ffffff;stroke-width:1.00954;stroke-miterlimit:4;stroke-dasharray:none"
   id="path272"
   inkscape:connector-curvature="0" />


    </g>


    <g
   transform="matrix(0.996135,0,0,0.984994,1.05099,66.693649)"
   id="g278"
   style="stroke-width:1.00954;stroke-miterlimit:4;stroke-dasharray:none">
        <path
   d="m 390.353,106.692 c -0.254,0 -0.462,-0.208 -0.463,-0.462 V 91.817 c 0,-0.255 0.207,-0.462 0.463,-0.462 h 14.412 c 0.255,0 0.463,0.207 0.463,0.462 v 14.413 c 0,0.253 -0.209,0.462 -0.462,0.462 0,0 -0.001,0 -0.001,0 z"
   style="fill:none;fill-rule:nonzero;stroke:#ffffff;stroke-width:1.00954;stroke-miterlimit:4;stroke-dasharray:none"
   id="path276"
   inkscape:connector-curvature="0" />


    </g>


    <g
   transform="matrix(0.996135,0,0,0.984994,1.05099,66.693649)"
   id="g282"
   style="stroke-width:1.00954;stroke-miterlimit:4;stroke-dasharray:none">
        <path
   d="m 352.168,106.692 c -0.254,0 -0.462,-0.208 -0.463,-0.462 V 91.817 c 0,-0.255 0.207,-0.462 0.463,-0.462 h 14.412 c 0.255,0 0.463,0.207 0.463,0.462 v 14.413 c 0,0.253 -0.209,0.462 -0.462,0.462 0,0 -0.001,0 -0.001,0 z"
   style="fill:none;fill-rule:nonzero;stroke:#ffffff;stroke-width:1.00954;stroke-miterlimit:4;stroke-dasharray:none"
   id="path280"
   inkscape:connector-curvature="0" />


    </g>


    <g
   transform="matrix(0.996135,0,0,0.984994,1.05099,66.693649)"
   id="g286"
   style="stroke-width:1.00954;stroke-miterlimit:4;stroke-dasharray:none">
        <path
   d="m 371.26,125.785 c -0.254,0 -0.462,-0.208 -0.463,-0.462 V 110.91 c 0,-0.255 0.207,-0.462 0.463,-0.462 h 14.412 c 0.255,0 0.463,0.207 0.463,0.462 v 14.413 c 0,0.253 -0.209,0.462 -0.462,0.462 0,0 -10e-4,0 -10e-4,0 z"
   style="fill:none;fill-rule:nonzero;stroke:#ffffff;stroke-width:1.00954;stroke-miterlimit:4;stroke-dasharray:none"
   id="path284"
   inkscape:connector-curvature="0" />


    </g>


    <g
   transform="matrix(0.996135,0,0,0.984994,1.05099,66.693649)"
   id="g290"
   style="stroke-width:1.00954;stroke-miterlimit:4;stroke-dasharray:none">
        <path
   d="m 390.353,125.785 c -0.254,0 -0.462,-0.208 -0.463,-0.462 V 110.91 c 0,-0.255 0.207,-0.462 0.463,-0.462 h 14.412 c 0.255,0 0.463,0.207 0.463,0.462 v 14.413 c 0,0.253 -0.209,0.462 -0.462,0.462 0,0 -0.001,0 -0.001,0 z"
   style="fill:none;fill-rule:nonzero;stroke:#ffffff;stroke-width:1.00954;stroke-miterlimit:4;stroke-dasharray:none"
   id="path288"
   inkscape:connector-curvature="0" />


    </g>


    <g
   transform="matrix(0.996135,0,0,0.984994,1.05099,66.693649)"
   id="g294"
   style="stroke-width:1.00954;stroke-miterlimit:4;stroke-dasharray:none">
        <path
   d="m 352.168,125.785 c -0.254,0 -0.462,-0.208 -0.463,-0.462 V 110.91 c 0,-0.255 0.207,-0.462 0.463,-0.462 h 14.412 c 0.255,0 0.463,0.207 0.463,0.462 v 14.413 c 0,0.253 -0.209,0.462 -0.462,0.462 0,0 -0.001,0 -0.001,0 z"
   style="fill:none;fill-rule:nonzero;stroke:#ffffff;stroke-width:1.00954;stroke-miterlimit:4;stroke-dasharray:none"
   id="path292"
   inkscape:connector-curvature="0" />


    </g>


    <g
   transform="matrix(0.996135,0,0,0.984994,1.05099,66.693649)"
   id="g298"
   style="stroke-width:1.00954;stroke-miterlimit:4;stroke-dasharray:none">
        <path
   d="m 371.26,144.709 c -0.254,0 -0.462,-0.208 -0.463,-0.462 v -14.413 c 0,-0.255 0.207,-0.462 0.463,-0.462 h 14.412 c 0.255,0 0.463,0.207 0.463,0.462 v 14.413 c 0,0.253 -0.209,0.462 -0.462,0.462 0,0 -10e-4,0 -10e-4,0 z"
   style="fill:none;fill-rule:nonzero;stroke:#ffffff;stroke-width:1.00954;stroke-miterlimit:4;stroke-dasharray:none"
   id="path296"
   inkscape:connector-curvature="0" />


    </g>


    <g
   transform="matrix(0.996135,0,0,0.984994,1.05099,66.693649)"
   id="g302"
   style="stroke-width:1.00954;stroke-miterlimit:4;stroke-dasharray:none">
        <path
   d="m 390.353,144.709 c -0.254,0 -0.462,-0.208 -0.463,-0.462 v -14.413 c 0,-0.255 0.207,-0.462 0.463,-0.462 h 14.412 c 0.255,0 0.463,0.207 0.463,0.462 v 14.413 c 0,0.253 -0.209,0.462 -0.462,0.462 0,0 -0.001,0 -0.001,0 z"
   style="fill:none;fill-rule:nonzero;stroke:#ffffff;stroke-width:1.00954;stroke-miterlimit:4;stroke-dasharray:none"
   id="path300"
   inkscape:connector-curvature="0" />


    </g>


    <g
   transform="matrix(0.996135,0,0,0.984994,1.05099,66.693649)"
   id="g306"
   style="stroke-width:1.00954;stroke-miterlimit:4;stroke-dasharray:none">
        <path
   d="m 352.168,144.709 c -0.254,0 -0.462,-0.208 -0.463,-0.462 v -14.413 c 0,-0.255 0.207,-0.462 0.463,-0.462 h 14.412 c 0.255,0 0.463,0.207 0.463,0.462 v 14.413 c 0,0.253 -0.209,0.462 -0.462,0.462 0,0 -0.001,0 -0.001,0 z"
   style="fill:none;fill-rule:nonzero;stroke:#ffffff;stroke-width:1.00954;stroke-miterlimit:4;stroke-dasharray:none"
   id="path304"
   inkscape:connector-curvature="0" />


    </g>


    <g
   transform="matrix(0.996135,0,0,0.984994,1.05099,66.693649)"
   id="g310"
   style="stroke-width:1.00954;stroke-miterlimit:4;stroke-dasharray:none">
        <path
   d="m 371.26,106.692 c -0.254,0 -0.462,-0.208 -0.463,-0.462 V 91.817 c 0,-0.255 0.207,-0.462 0.463,-0.462 h 14.412 c 0.255,0 0.463,0.207 0.463,0.462 v 14.413 c 0,0.253 -0.209,0.462 -0.462,0.462 0,0 -10e-4,0 -10e-4,0 z"
   style="fill:none;fill-rule:nonzero;stroke:#ffffff;stroke-width:1.00954;stroke-miterlimit:4;stroke-dasharray:none"
   id="path308"
   inkscape:connector-curvature="0" />


    </g>


    <g
   transform="matrix(0.996135,0,0,0.984994,1.05099,66.693649)"
   id="g314"
   style="stroke-width:1.00954;stroke-miterlimit:4;stroke-dasharray:none">
        <path
   d="m 390.353,87.71 c -0.254,0 -0.462,-0.208 -0.463,-0.462 V 72.835 c 0,-0.255 0.207,-0.462 0.463,-0.462 h 14.412 c 0.255,0 0.463,0.207 0.463,0.462 v 14.413 c 0,0.253 -0.209,0.462 -0.462,0.462 0,0 -0.001,0 -0.001,0 z"
   style="fill:none;fill-rule:nonzero;stroke:#ffffff;stroke-width:1.00954;stroke-miterlimit:4;stroke-dasharray:none"
   id="path312"
   inkscape:connector-curvature="0" />


    </g>


    <g
   transform="matrix(0.996135,0,0,0.984994,1.05099,66.693649)"
   id="g318"
   style="stroke-width:1.00954;stroke-miterlimit:4;stroke-dasharray:none">
        <path
   d="m 371.233,63.777 c -0.254,0 -0.462,-0.208 -0.463,-0.462 V 48.901 c 0,-0.255 0.207,-0.462 0.463,-0.462 h 14.412 c 0.255,0 0.463,0.207 0.463,0.462 v 14.413 c 0,0.253 -0.209,0.462 -0.462,0.462 0,0 -0.001,0 -0.001,0 h -14.412 z"
   style="fill:none;fill-rule:nonzero;stroke:#ffffff;stroke-width:1.00954;stroke-miterlimit:4;stroke-dasharray:none"
   id="path316"
   inkscape:connector-curvature="0" />


    </g>


    <g
   transform="matrix(0.996135,0,0,0.984994,1.05099,66.693649)"
   id="g322"
   style="stroke-width:1.00954;stroke-miterlimit:4;stroke-dasharray:none">
        <path
   d="m 371.233,44.685 c -0.254,0 -0.462,-0.208 -0.463,-0.462 V 29.809 c 0,-0.255 0.207,-0.462 0.463,-0.462 h 14.412 c 0.255,0 0.463,0.207 0.463,0.462 v 14.413 c 0,0.253 -0.209,0.462 -0.462,0.462 0,0 -0.001,0 -0.001,0 h -14.412 z"
   style="fill:none;fill-rule:nonzero;stroke:#ffffff;stroke-width:1.00954;stroke-miterlimit:4;stroke-dasharray:none"
   id="path320"
   inkscape:connector-curvature="0" />


    </g>


    <g
   transform="matrix(0.996135,0,0,0.984994,1.05099,66.693649)"
   id="g326"
   style="stroke-width:1.00954;stroke-miterlimit:4;stroke-dasharray:none">
        <path
   d="m 390.353,44.685 c -0.254,0 -0.462,-0.208 -0.463,-0.462 V 29.809 c 0,-0.255 0.207,-0.462 0.463,-0.462 h 14.412 c 0.255,0 0.463,0.207 0.463,0.462 v 14.413 c 0,0.253 -0.209,0.462 -0.462,0.462 0,0 -0.001,0 -0.001,0 h -14.412 z"
   style="fill:none;fill-rule:nonzero;stroke:#ffffff;stroke-width:1.00954;stroke-miterlimit:4;stroke-dasharray:none"
   id="path324"
   inkscape:connector-curvature="0" />


    </g>


    <g
   transform="matrix(0.996135,0,0,0.984994,1.05099,66.693649)"
   id="g330"
   style="stroke-width:1.00954;stroke-miterlimit:4;stroke-dasharray:none">
        <path
   d="m 352.168,44.685 c -0.254,0 -0.462,-0.208 -0.463,-0.462 V 29.809 c 0,-0.255 0.207,-0.462 0.463,-0.462 h 14.412 c 0.255,0 0.463,0.207 0.463,0.462 v 14.413 c 0,0.253 -0.209,0.462 -0.462,0.462 0,0 -0.001,0 -0.001,0 h -14.412 z"
   style="fill:none;fill-rule:nonzero;stroke:#ffffff;stroke-width:1.00954;stroke-miterlimit:4;stroke-dasharray:none"
   id="path328"
   inkscape:connector-curvature="0" />


    </g>


    <g
   transform="matrix(0.996135,0,0,0.984994,1.05099,66.693649)"
   id="g334"
   style="stroke-width:1.00954;stroke-miterlimit:4;stroke-dasharray:none">
        <path
   d="m 371.26,25.592 c -0.254,0 -0.462,-0.208 -0.463,-0.462 V 10.717 c 0,-0.255 0.207,-0.462 0.463,-0.462 h 14.412 c 0.255,0 0.463,0.207 0.463,0.462 V 25.13 c 0,0.253 -0.209,0.462 -0.462,0.462 0,0 -10e-4,0 -10e-4,0 z"
   style="fill:none;fill-rule:nonzero;stroke:#ffffff;stroke-width:1.00954;stroke-miterlimit:4;stroke-dasharray:none"
   id="path332"
   inkscape:connector-curvature="0" />


    </g>


    <g
   transform="matrix(0.996135,0,0,0.984994,1.05099,66.693649)"
   id="g338"
   style="stroke-width:1.00954;stroke-miterlimit:4;stroke-dasharray:none">
        <path
   d="m 433.089,152.249 c -0.254,0 -0.462,-0.208 -0.463,-0.462 v -14.413 c 0,-0.255 0.207,-0.462 0.463,-0.462 h 14.412 c 0.255,0 0.463,0.207 0.463,0.462 v 14.413 c 0,0.253 -0.209,0.462 -0.462,0.462 0,0 -0.001,0 -0.001,0 z"
   style="fill:none;fill-rule:nonzero;stroke:#ffffff;stroke-width:1.00954;stroke-miterlimit:4;stroke-dasharray:none"
   id="path336"
   inkscape:connector-curvature="0" />


    </g>


    <g
   transform="matrix(0.996135,0,0,0.984994,1.05099,66.693649)"
   id="g342"
   style="stroke-width:1.00954;stroke-miterlimit:4;stroke-dasharray:none">
        <path
   d="m 452.182,152.22 c -0.254,0 -0.462,-0.208 -0.463,-0.462 v -14.413 c 0,-0.255 0.207,-0.462 0.463,-0.462 h 14.412 c 0.255,0 0.463,0.207 0.463,0.462 v 14.413 c 0,0.253 -0.209,0.462 -0.462,0.462 0,0 -0.001,0 -0.001,0 z"
   style="fill:none;fill-rule:nonzero;stroke:#ffffff;stroke-width:1.00954;stroke-miterlimit:4;stroke-dasharray:none"
   id="path340"
   inkscape:connector-curvature="0" />


    </g>


    <g
   transform="matrix(0.996135,0,0,0.984994,1.05099,66.693649)"
   id="g346"
   style="stroke-width:1.00954;stroke-miterlimit:4;stroke-dasharray:none">
        <path
   d="m 471.193,152.22 c -0.254,0 -0.462,-0.208 -0.463,-0.462 v -14.413 c 0,-0.255 0.207,-0.462 0.463,-0.462 h 14.412 c 0.255,0 0.463,0.207 0.463,0.462 v 14.413 c 0,0.253 -0.209,0.462 -0.462,0.462 0,0 -10e-4,0 -10e-4,0 z"
   style="fill:none;fill-rule:nonzero;stroke:#ffffff;stroke-width:1.00954;stroke-miterlimit:4;stroke-dasharray:none"
   id="path344"
   inkscape:connector-curvature="0" />


    </g>


    <g
   transform="matrix(0.996135,0,0,0.984994,1.05099,66.693649)"
   id="g350"
   style="stroke-width:1.00954;stroke-miterlimit:4;stroke-dasharray:none">
        <path
   d="m 490.286,152.22 c -0.254,0 -0.462,-0.208 -0.463,-0.462 v -14.413 c 0,-0.255 0.207,-0.462 0.463,-0.462 h 14.412 c 0.255,0 0.463,0.207 0.463,0.462 v 14.413 c 0,0.253 -0.209,0.462 -0.462,0.462 0,0 -0.001,0 -0.001,0 z"
   style="fill:none;fill-rule:nonzero;stroke:#ffffff;stroke-width:1.00954;stroke-miterlimit:4;stroke-dasharray:none"
   id="path348"
   inkscape:connector-curvature="0" />


    </g>


    <g
   transform="matrix(0.996135,0,0,0.984994,1.05099,66.693649)"
   id="g354"
   style="stroke-width:1.00954;stroke-miterlimit:4;stroke-dasharray:none">
        <path
   d="m 509.378,152.22 c -0.254,0 -0.462,-0.208 -0.463,-0.462 v -14.413 c 0,-0.255 0.207,-0.462 0.463,-0.462 h 14.412 c 0.255,0 0.463,0.207 0.463,0.462 v 14.413 c 0,0.253 -0.209,0.462 -0.462,0.462 0,0 -0.001,0 -0.001,0 z"
   style="fill:none;fill-rule:nonzero;stroke:#ffffff;stroke-width:1.00954;stroke-miterlimit:4;stroke-dasharray:none"
   id="path352"
   inkscape:connector-curvature="0" />


    </g>


    <g
   transform="matrix(0.996135,0,0,0.984994,1.05099,66.693649)"
   id="g358"
   style="stroke-width:1.00954;stroke-miterlimit:4;stroke-dasharray:none">
        <path
   d="m 528.47,152.22 c -0.254,0 -0.462,-0.208 -0.463,-0.462 v -14.413 c 0,-0.255 0.208,-0.462 0.463,-0.462 h 14.412 c 0.255,0 0.463,0.207 0.463,0.462 v 14.413 c 0,0.253 -0.209,0.462 -0.462,0.462 0,0 -0.001,0 -0.001,0 z"
   style="fill:none;fill-rule:nonzero;stroke:#ffffff;stroke-width:1.00954;stroke-miterlimit:4;stroke-dasharray:none"
   id="path356"
   inkscape:connector-curvature="0" />


    </g>


    <g
   transform="matrix(0.996135,0,0,0.984994,1.05099,66.693649)"
   id="g362"
   style="stroke-width:1.00954;stroke-miterlimit:4;stroke-dasharray:none">
        <rect
   x="436.50699"
   y="37.341999"
   width="102.203"
   height="36.907001"
   style="fill:none;fill-rule:nonzero;stroke:#ffffff;stroke-width:1.00954;stroke-miterlimit:4;stroke-dasharray:none"
   id="rect360" />


    </g>


    <g
   transform="matrix(0.996135,0,0,0.984994,1.05099,66.693649)"
   id="g366"
   style="stroke-width:1.00954;stroke-miterlimit:4;stroke-dasharray:none">
        <rect
   x="475.953"
   y="56.108002"
   width="23.311001"
   height="12.755"
   style="fill:none;fill-rule:nonzero;stroke:#ffffff;stroke-width:1.00954;stroke-miterlimit:4;stroke-dasharray:none"
   id="rect364" />


    </g>


    <g
   transform="matrix(0.996135,0,0,0.984994,1.05099,66.693649)"
   id="g370"
   style="stroke-width:1.00954;stroke-miterlimit:4;stroke-dasharray:none">
        <circle
   cx="465.85999"
   cy="62.988998"
   r="5.875"
   style="fill:none;stroke:#ffffff;stroke-width:1.00954;stroke-miterlimit:4;stroke-dasharray:none"
   id="circle368" />


    </g>


    <g
   transform="matrix(0.996135,0,0,0.984994,1.05099,66.693649)"
   id="g374"
   style="stroke-width:1.00954;stroke-miterlimit:4;stroke-dasharray:none">
        <circle
   cx="509.35699"
   cy="62.988998"
   r="5.875"
   style="fill:none;stroke:#ffffff;stroke-width:1.00954;stroke-miterlimit:4;stroke-dasharray:none"
   id="circle372" />


    </g>


</svg>
