<?xml version="1.0" encoding="UTF-8" standalone="no"?>
<svg
   xmlns:dc="http://purl.org/dc/elements/1.1/"
   xmlns:cc="http://creativecommons.org/ns#"
   xmlns:rdf="http://www.w3.org/1999/02/22-rdf-syntax-ns#"
   xmlns:svg="http://www.w3.org/2000/svg"
   xmlns="http://www.w3.org/2000/svg"
   xmlns:sodipodi="http://sodipodi.sourceforge.net/DTD/sodipodi-0.dtd"
   xmlns:inkscape="http://www.inkscape.org/namespaces/inkscape"
   inkscape:version="1.0alpha2 (0c7b077, 2019-09-04)"
   sodipodi:docname="system.svg"
   id="svg879"
   version="1.1"
   viewBox="0 0 100 18"
   height="18"
   width="100">
  <metadata
     id="metadata883">
    <rdf:RDF>
      <cc:Work
         rdf:about="">
        <dc:format>image/svg+xml</dc:format>
        <dc:type
           rdf:resource="http://purl.org/dc/dcmitype/StillImage" />
        <dc:title>system</dc:title>
      </cc:Work>
    </rdf:RDF>
  </metadata>
  <sodipodi:namedview
     inkscape:current-layer="svg879"
     inkscape:window-maximized="0"
     inkscape:window-y="34"
     inkscape:window-x="12"
     inkscape:cy="-20.440921"
     inkscape:cx="63.536784"
     inkscape:zoom="6.1157426"
     showgrid="false"
     id="namedview881"
     inkscape:window-height="982"
     inkscape:window-width="1656"
     inkscape:pageshadow="2"
     inkscape:pageopacity="0"
     guidetolerance="10"
     gridtolerance="10"
     objecttolerance="10"
     borderopacity="1"
     inkscape:document-rotation="0"
     bordercolor="#666666"
     pagecolor="#aaaaaa" />
  <!-- Generator: Sketch 45 (43475) - http://www.bohemiancoding.com/sketch -->
  <title
     id="title869">system</title>
  <desc
     id="desc871">Created with Sketch.</desc>
  <defs
     id="defs873" />
  <g
     id="system"
     stroke="#867740"
     stroke-linecap="round"
     style="opacity:1;fill:none;fill-rule:evenodd;stroke-width:1;stop-opacity:1">
    <path
       d="m 0.5,17.5 4,-17"
       id="Shape"
       inkscape:connector-curvature="0" />
  </g>
  <g
     style="font-style:normal;font-weight:normal;font-size:14px;font-family:sans-serif;fill:#000000;fill-opacity:1;stroke:none;stroke-width:0.35"
     id="text854"
     aria-label="AMSTRAD CPC">
    <path
       id="path967"
       style="font-style:normal;font-variant:normal;font-weight:bold;font-stretch:normal;font-size:14px;font-family:Cabin;-inkscape-font-specification:'Cabin Bold';font-variant-ligatures:normal;font-variant-caps:normal;font-variant-numeric:normal;font-variant-east-asian:normal;fill:#ffffff;fill-opacity:1;stroke-width:0.35"
       d="m 16.134,14 h -1.862 l -0.84,-2.366 H 10.17 L 9.3300001,14 h -1.862 L 10.954,4.2 h 1.694 z m -3.318,-4.102 -1.022,-2.87 -1.008,2.87 z" />
    <path
       id="path969"
       style="font-style:normal;font-variant:normal;font-weight:bold;font-stretch:normal;font-size:14px;font-family:Cabin;-inkscape-font-specification:'Cabin Bold';font-variant-ligatures:normal;font-variant-caps:normal;font-variant-numeric:normal;font-variant-east-asian:normal;fill:#ffffff;fill-opacity:1;stroke-width:0.35"
       d="M 27.222,14 H 25.36 L 24.52,7.434 22.014,11.942 19.494,7.448 18.654,14 H 16.792 L 18.15,4.2 h 1.47 l 2.394,4.466 2.38,-4.466 h 1.47 z" />
    <path
       id="path971"
       style="font-style:normal;font-variant:normal;font-weight:bold;font-stretch:normal;font-size:14px;font-family:Cabin;-inkscape-font-specification:'Cabin Bold';font-variant-ligatures:normal;font-variant-caps:normal;font-variant-numeric:normal;font-variant-east-asian:normal;fill:#ffffff;fill-opacity:1;stroke-width:0.35"
       d="m 31.771781,14.196 q -1.05,0 -1.918,-0.21 -0.868,-0.21 -1.33,-0.504 l 0.21,-2.044 q 0.448,0.434 1.246,0.742 0.812,0.294 1.834,0.294 1.75,0 1.75,-1.064 0,-0.294 -0.14,-0.532 -0.14,-0.238 -0.308,-0.392 -0.154,-0.154 -0.532,-0.322 -0.378,-0.182 -0.588,-0.252 -0.21,-0.084 -0.714,-0.252 -0.434,-0.14 -0.602,-0.21 l -0.56,-0.238 q -0.392,-0.154 -0.574,-0.266 -0.182,-0.126 -0.448,-0.336 -0.266,-0.224 -0.392,-0.448 -0.126,-0.224 -0.224,-0.532 -0.098,-0.322 -0.098,-0.686 0,-1.148 0.868,-2.044 0.868,-0.896 2.674,-0.896 0.938,0 1.806,0.238 0.882,0.238 1.316,0.518 l -0.182,1.834 q -1.61,-0.882 -2.87,-0.882 -0.714,0 -1.26,0.238 -0.532,0.238 -0.532,0.798 0,0.532 0.49,0.826 0.49,0.28 1.484,0.588 0.518,0.154 0.784,0.252 0.28,0.098 0.756,0.294 0.476,0.196 0.742,0.42 0.266,0.21 0.546,0.532 0.294,0.308 0.42,0.742 0.14,0.42 0.14,0.938 0,0.392 -0.07,0.742 -0.07,0.336 -0.322,0.742 -0.238,0.406 -0.644,0.7 -0.392,0.28 -1.106,0.476 -0.7,0.196 -1.652,0.196 z" />
    <path
       id="path973"
       style="font-style:normal;font-variant:normal;font-weight:bold;font-stretch:normal;font-size:14px;font-family:Cabin;-inkscape-font-specification:'Cabin Bold';font-variant-ligatures:normal;font-variant-caps:normal;font-variant-numeric:normal;font-variant-east-asian:normal;fill:#ffffff;fill-opacity:1;stroke-width:0.35"
       d="m 43.518875,5.936 h -2.772 V 14 h -1.792 V 5.936 h -2.772 V 4.2 h 7.336 z" />
    <path
       id="path975"
       style="font-style:normal;font-variant:normal;font-weight:bold;font-stretch:normal;font-size:14px;font-family:Cabin;-inkscape-font-specification:'Cabin Bold';font-variant-ligatures:normal;font-variant-caps:normal;font-variant-numeric:normal;font-variant-east-asian:normal;fill:#ffffff;fill-opacity:1;stroke-width:0.35"
       d="m 52.3205,14 h -1.862 l -2.03,-3.64 h -1.82 V 14 h -1.792 V 4.2 h 3.584 q 3.374,0 3.374,2.828 0,1.05 -0.434,1.708 -0.434,0.658 -1.232,1.148 z m -4.326,-8.302 h -1.386 V 8.68 h 1.316 q 1.134,0 1.554,-0.392 0.42,-0.392 0.42,-1.134 0,-0.742 -0.406,-1.092 -0.406,-0.364 -1.498,-0.364 z" />
    <path
       id="path977"
       style="font-style:normal;font-variant:normal;font-weight:bold;font-stretch:normal;font-size:14px;font-family:Cabin;-inkscape-font-specification:'Cabin Bold';font-variant-ligatures:normal;font-variant-caps:normal;font-variant-numeric:normal;font-variant-east-asian:normal;fill:#ffffff;fill-opacity:1;stroke-width:0.35"
       d="m 61.223844,14 h -1.862 l -0.84,-2.366 h -3.262 l -0.84,2.366 h -1.862 l 3.486,-9.8 h 1.694 z m -3.318,-4.102 -1.022,-2.87 -1.008,2.87 z" />
    <path
       id="path979"
       style="font-style:normal;font-variant:normal;font-weight:bold;font-stretch:normal;font-size:14px;font-family:Cabin;-inkscape-font-specification:'Cabin Bold';font-variant-ligatures:normal;font-variant-caps:normal;font-variant-numeric:normal;font-variant-east-asian:normal;fill:#ffffff;fill-opacity:1;stroke-width:0.35"
       d="m 66.011844,14 h -3.668 V 4.2 h 3.668 q 2.142,0 3.486,1.316 1.344,1.316 1.344,3.584 0,2.268 -1.344,3.584 -1.344,1.316 -3.486,1.316 z m 0,-8.078 h -1.876 v 6.356 h 1.876 q 1.4,0 2.128,-0.84 0.742,-0.84 0.742,-2.338 0,-1.498 -0.742,-2.338 -0.728,-0.84 -2.128,-0.84 z" />
    <path
       id="path981"
       style="font-style:normal;font-variant:normal;font-weight:bold;font-stretch:normal;font-size:14px;font-family:Cabin;-inkscape-font-specification:'Cabin Bold';font-variant-ligatures:normal;font-variant-caps:normal;font-variant-numeric:normal;font-variant-east-asian:normal;fill:#ffffff;fill-opacity:1;stroke-width:0.35"
       d="m 79.820219,14.196 q -2.128,0 -3.486,-1.4 -1.344,-1.414 -1.344,-3.696 0,-2.282 1.344,-3.682 1.358,-1.414 3.486,-1.414 1.61,0 2.786,0.574 l -0.196,1.708 q -1.414,-0.56 -2.59,-0.56 -1.386,0 -2.128,0.924 -0.742,0.924 -0.742,2.45 0,1.526 0.742,2.45 0.742,0.924 2.128,0.924 1.176,0 2.59,-0.56 l 0.196,1.708 q -1.176,0.574 -2.786,0.574 z" />
    <path
       id="path983"
       style="font-style:normal;font-variant:normal;font-weight:bold;font-stretch:normal;font-size:14px;font-family:Cabin;-inkscape-font-specification:'Cabin Bold';font-variant-ligatures:normal;font-variant-caps:normal;font-variant-numeric:normal;font-variant-east-asian:normal;fill:#ffffff;fill-opacity:1;stroke-width:0.35"
       d="m 87.651469,10.78 h -1.75 V 14 h -1.792 V 4.2 h 2.772 q 1.106,0 1.806,0.112 0.714,0.112 1.288,0.434 0.588,0.322 0.84,0.952 0.266,0.616 0.266,1.61 0,0.994 -0.336,1.722 -0.322,0.714 -0.868,1.078 -0.546,0.364 -1.092,0.518 -0.546,0.154 -1.134,0.154 z m -0.28,-5.082 h -1.47 V 9.1 h 1.512 q 0.994,0 1.414,-0.392 0.434,-0.406 0.434,-1.386 0,-0.868 -0.406,-1.246 -0.392,-0.378 -1.484,-0.378 z" />
    <path
       id="path985"
       style="font-style:normal;font-variant:normal;font-weight:bold;font-stretch:normal;font-size:14px;font-family:Cabin;-inkscape-font-specification:'Cabin Bold';font-variant-ligatures:normal;font-variant-caps:normal;font-variant-numeric:normal;font-variant-east-asian:normal;fill:#ffffff;fill-opacity:1;stroke-width:0.35"
       d="m 96.691313,14.196 q -2.128,0 -3.486,-1.4 -1.344,-1.414 -1.344,-3.696 0,-2.282 1.344,-3.682 1.358,-1.414 3.486,-1.414 1.61,0 2.786,0.574 l -0.196,1.708 q -1.414,-0.56 -2.59,-0.56 -1.386,0 -2.128,0.924 -0.742,0.924 -0.742,2.45 0,1.526 0.742,2.45 0.742,0.924 2.128,0.924 1.176,0 2.59,-0.56 l 0.196,1.708 q -1.176,0.574 -2.786,0.574 z" />
  </g>
</svg>
