<svg height="18" viewBox="0 0 100 18" width="100" xmlns="http://www.w3.org/2000/svg"><path d="m.5 17.5 4-17" fill="none" stroke="#867740" stroke-linecap="round"/><g fill="#fff" stroke-width=".35"><path d="m16.134 14h-1.862l-.84-2.366h-3.262l-.8399999 2.366h-1.862l3.4859999-9.8h1.694zm-3.318-4.102-1.022-2.87-1.008 2.87z"/><path d="m27.222 14h-1.862l-.84-6.566-2.506 4.508-2.52-4.494-.84 6.552h-1.862l1.358-9.8h1.47l2.394 4.466 2.38-4.466h1.47z"/><path d="m31.771781 14.196q-1.05 0-1.918-.21-.868-.21-1.33-.504l.21-2.044q.448.434 1.246.742.812.294 1.834.294 1.75 0 1.75-1.064 0-.294-.14-.532-.14-.238-.308-.392-.154-.154-.532-.322-.378-.182-.588-.252-.21-.084-.714-.252-.434-.14-.602-.21l-.56-.238q-.392-.154-.574-.266-.182-.126-.448-.336-.266-.224-.392-.448-.126-.224-.224-.532-.098-.322-.098-.686 0-1.148.868-2.044.868-.896 2.674-.896.938 0 1.806.238.882.238 1.316.518l-.182 1.834q-1.61-.882-2.87-.882-.714 0-1.26.238-.532.238-.532.798 0 .532.49.826.49.28 1.484.588.518.154.784.252.28.098.756.294.476.196.742.42.266.21.546.532.294.308.42.742.14.42.14.938 0 .392-.07.742-.07.336-.322.742-.238.406-.644.7-.392.28-1.106.476-.7.196-1.652.196z"/><path d="m43.518875 5.936h-2.772v8.064h-1.792v-8.064h-2.772v-1.736h7.336z"/><path d="m52.3205 14h-1.862l-2.03-3.64h-1.82v3.64h-1.792v-9.8h3.584q3.374 0 3.374 2.828 0 1.05-.434 1.708-.434.658-1.232 1.148zm-4.326-8.302h-1.386v2.982h1.316q1.134 0 1.554-.392.42-.392.42-1.134 0-.742-.406-1.092-.406-.364-1.498-.364z"/><path d="m61.223844 14h-1.862l-.84-2.366h-3.262l-.84 2.366h-1.862l3.486-9.8h1.694zm-3.318-4.102-1.022-2.87-1.008 2.87z"/><path d="m66.011844 14h-3.668v-9.8h3.668q2.142 0 3.486 1.316 1.344 1.316 1.344 3.584 0 2.268-1.344 3.584-1.344 1.316-3.486 1.316zm0-8.078h-1.876v6.356h1.876q1.4 0 2.128-.84.742-.84.742-2.338 0-1.498-.742-2.338-.728-.84-2.128-.84z"/><path d="m79.820219 14.196q-2.128 0-3.486-1.4-1.344-1.414-1.344-3.696 0-2.282 1.344-3.682 1.358-1.414 3.486-1.414 1.61 0 2.786.574l-.196 1.708q-1.414-.56-2.59-.56-1.386 0-2.128.924-.742.924-.742 2.45 0 1.526.742 2.45.742.924 2.128.924 1.176 0 2.59-.56l.196 1.708q-1.176.574-2.786.574z"/><path d="m87.651469 10.78h-1.75v3.22h-1.792v-9.8h2.772q1.106 0 1.806.112.714.112 1.288.434.588.322.84.952.266.616.266 1.61 0 .994-.336 1.722-.322.714-.868 1.078-.546.364-1.092.518-.546.154-1.134.154zm-.28-5.082h-1.47v3.402h1.512q.994 0 1.414-.392.434-.406.434-1.386 0-.868-.406-1.246-.392-.378-1.484-.378z"/><path d="m96.691313 14.196q-2.128 0-3.486-1.4-1.344-1.414-1.344-3.696 0-2.282 1.344-3.682 1.358-1.414 3.486-1.414 1.61 0 2.786.574l-.196 1.708q-1.414-.56-2.59-.56-1.386 0-2.128.924-.742.924-.742 2.45 0 1.526.742 2.45.742.924 2.128.924 1.176 0 2.59-.56l.196 1.708q-1.176.574-2.786.574z"/></g></svg>