<?xml version="1.0" encoding="utf-8"?>
<svg viewBox="0 0 82 18" xmlns="http://www.w3.org/2000/svg" xmlns:bx="https://boxy-svg.com">
  <path d="M 16.715 13.569 L 14.855 13.569 L 14.015 11.199 L 10.745 11.199 L 9.905 13.569 L 8.045 13.569 L 11.535 3.769 L 13.225 3.769 L 16.715 13.569 M 13.395 9.469 L 12.375 6.599 L 11.365 9.469 L 13.395 9.469 ZM 23.563 5.509 L 20.783 5.509 L 20.783 13.569 L 18.993 13.569 L 18.993 5.509 L 16.223 5.509 L 16.223 3.769 L 23.563 3.769 L 23.563 5.509 ZM 31.737 13.569 L 29.877 13.569 L 29.037 11.199 L 25.767 11.199 L 24.927 13.569 L 23.067 13.569 L 26.557 3.769 L 28.247 3.769 L 31.737 13.569 M 28.417 9.469 L 27.397 6.599 L 26.387 9.469 L 28.417 9.469 ZM 40.356 13.569 L 38.496 13.569 L 36.466 9.929 L 34.646 9.929 L 34.646 13.569 L 32.856 13.569 L 32.856 3.769 L 36.436 3.769 C 38.69 3.769 39.816 4.712 39.816 6.599 C 39.816 7.299 39.67 7.869 39.376 8.309 C 39.09 8.742 38.68 9.122 38.146 9.449 L 40.356 13.569 M 36.036 5.269 L 34.646 5.269 L 34.646 8.249 L 35.966 8.249 C 36.72 8.249 37.236 8.119 37.516 7.859 C 37.796 7.606 37.936 7.226 37.936 6.719 C 37.936 6.226 37.8 5.859 37.526 5.619 C 37.26 5.386 36.763 5.269 36.036 5.269 ZM 43.41 13.569 L 41.62 13.569 L 41.62 3.769 L 43.41 3.769 L 43.41 13.569 ZM 54.248 13.569 L 48.258 13.569 C 48.871 12.682 49.394 11.906 49.828 11.239 C 50.261 10.572 50.624 9.996 50.918 9.509 C 51.211 9.022 51.444 8.612 51.618 8.279 C 51.784 7.939 51.911 7.656 51.998 7.429 C 52.084 7.202 52.141 7.012 52.168 6.859 C 52.188 6.712 52.198 6.582 52.198 6.469 C 52.198 6.022 52.081 5.679 51.848 5.439 C 51.608 5.192 51.274 5.069 50.848 5.069 C 50.008 5.069 49.254 5.569 48.588 6.569 L 48.368 4.959 C 48.461 4.792 48.594 4.626 48.768 4.459 C 48.941 4.299 49.148 4.152 49.388 4.019 C 49.628 3.892 49.904 3.786 50.218 3.699 C 50.524 3.612 50.854 3.569 51.208 3.569 C 51.674 3.569 52.078 3.642 52.418 3.789 C 52.758 3.936 53.038 4.129 53.258 4.369 C 53.478 4.616 53.638 4.896 53.738 5.209 C 53.844 5.529 53.898 5.862 53.898 6.209 C 53.898 6.536 53.851 6.879 53.758 7.239 C 53.664 7.606 53.514 8.012 53.308 8.459 C 53.101 8.906 52.834 9.406 52.508 9.959 C 52.181 10.506 51.791 11.129 51.338 11.829 L 54.248 11.829 L 54.248 13.569 ZM 58.903 13.769 C 57.983 13.769 57.247 13.466 56.693 12.859 C 56.133 12.259 55.853 11.316 55.853 10.029 C 55.853 9.422 55.927 8.846 56.073 8.299 C 56.22 7.752 56.41 7.249 56.643 6.789 C 56.883 6.322 57.153 5.902 57.453 5.529 C 57.753 5.156 58.06 4.839 58.373 4.579 C 58.68 4.319 58.983 4.119 59.283 3.979 C 59.577 3.839 59.833 3.769 60.053 3.769 L 61.233 4.469 C 61.1 4.469 60.93 4.519 60.723 4.619 C 60.51 4.726 60.28 4.866 60.033 5.039 C 59.787 5.219 59.537 5.429 59.283 5.669 C 59.03 5.916 58.797 6.176 58.583 6.449 C 58.37 6.722 58.187 7.012 58.033 7.319 C 57.88 7.619 57.783 7.919 57.743 8.219 C 58.037 7.859 58.58 7.679 59.373 7.679 C 59.8 7.679 60.197 7.739 60.563 7.859 C 60.923 7.986 61.233 8.169 61.493 8.409 C 61.76 8.649 61.963 8.946 62.103 9.299 C 62.25 9.652 62.323 10.052 62.323 10.499 C 62.323 10.939 62.243 11.359 62.083 11.759 C 61.917 12.152 61.683 12.499 61.383 12.799 C 61.083 13.099 60.723 13.336 60.303 13.509 C 59.883 13.682 59.417 13.769 58.903 13.769 M 59.253 9.129 C 58.753 9.129 58.35 9.262 58.043 9.529 C 57.743 9.796 57.593 10.196 57.593 10.729 C 57.593 10.949 57.637 11.152 57.723 11.339 C 57.81 11.519 57.923 11.669 58.063 11.789 C 58.203 11.909 58.363 12.002 58.543 12.069 C 58.723 12.136 58.907 12.169 59.093 12.169 C 59.327 12.169 59.54 12.126 59.733 12.039 C 59.927 11.946 60.093 11.822 60.233 11.669 C 60.373 11.516 60.483 11.336 60.563 11.129 C 60.637 10.929 60.673 10.712 60.673 10.479 C 60.673 10.306 60.643 10.139 60.583 9.979 C 60.523 9.812 60.43 9.666 60.303 9.539 C 60.183 9.419 60.037 9.319 59.863 9.239 C 59.683 9.166 59.48 9.129 59.253 9.129 ZM 67.771 13.769 C 67.165 13.769 66.611 13.649 66.111 13.409 C 65.611 13.169 65.188 12.832 64.841 12.399 C 64.488 11.966 64.215 11.446 64.021 10.839 C 63.835 10.232 63.741 9.559 63.741 8.819 C 63.741 8.059 63.848 7.359 64.061 6.719 C 64.275 6.079 64.571 5.526 64.951 5.059 C 65.325 4.592 65.768 4.229 66.281 3.969 C 66.788 3.702 67.341 3.569 67.941 3.569 C 68.515 3.569 69.051 3.696 69.551 3.949 C 70.045 4.202 70.471 4.552 70.831 4.999 C 71.191 5.446 71.471 5.976 71.671 6.589 C 71.871 7.202 71.971 7.869 71.971 8.589 C 71.971 9.362 71.871 10.066 71.671 10.699 C 71.478 11.332 71.198 11.876 70.831 12.329 C 70.471 12.782 70.031 13.136 69.511 13.389 C 68.991 13.642 68.411 13.769 67.771 13.769 M 67.911 5.159 C 67.585 5.159 67.275 5.239 66.981 5.399 C 66.695 5.566 66.445 5.802 66.231 6.109 C 66.018 6.416 65.848 6.799 65.721 7.259 C 65.595 7.712 65.531 8.232 65.531 8.819 C 65.531 9.952 65.738 10.792 66.151 11.339 C 66.565 11.886 67.115 12.159 67.801 12.159 C 68.528 12.159 69.111 11.866 69.551 11.279 C 69.985 10.699 70.201 9.802 70.201 8.589 C 70.201 8.036 70.141 7.546 70.021 7.119 C 69.901 6.699 69.738 6.339 69.531 6.039 C 69.318 5.746 69.075 5.526 68.801 5.379 C 68.521 5.232 68.225 5.159 67.911 5.159 ZM 77.655 13.769 C 77.048 13.769 76.495 13.649 75.995 13.409 C 75.495 13.169 75.072 12.832 74.725 12.399 C 74.372 11.966 74.098 11.446 73.905 10.839 C 73.718 10.232 73.625 9.559 73.625 8.819 C 73.625 8.059 73.732 7.359 73.945 6.719 C 74.158 6.079 74.455 5.526 74.835 5.059 C 75.208 4.592 75.652 4.229 76.165 3.969 C 76.672 3.702 77.225 3.569 77.825 3.569 C 78.398 3.569 78.935 3.696 79.435 3.949 C 79.928 4.202 80.355 4.552 80.715 4.999 C 81.075 5.446 81.355 5.976 81.555 6.589 C 81.755 7.202 81.855 7.869 81.855 8.589 C 81.855 9.362 81.755 10.066 81.555 10.699 C 81.362 11.332 81.082 11.876 80.715 12.329 C 80.355 12.782 79.915 13.136 79.395 13.389 C 78.875 13.642 78.295 13.769 77.655 13.769 M 77.795 5.159 C 77.468 5.159 77.158 5.239 76.865 5.399 C 76.578 5.566 76.328 5.802 76.115 6.109 C 75.902 6.416 75.732 6.799 75.605 7.259 C 75.478 7.712 75.415 8.232 75.415 8.819 C 75.415 9.952 75.622 10.792 76.035 11.339 C 76.448 11.886 76.998 12.159 77.685 12.159 C 78.412 12.159 78.995 11.866 79.435 11.279 C 79.868 10.699 80.085 9.802 80.085 8.589 C 80.085 8.036 80.025 7.546 79.905 7.119 C 79.785 6.699 79.622 6.339 79.415 6.039 C 79.202 5.746 78.958 5.526 78.685 5.379 C 78.405 5.232 78.108 5.159 77.795 5.159 Z" transform="matrix(1, 0, 0, 1, 0, 0)" style="fill: rgb(255, 255, 255); white-space: pre;"/>
  <path d="M 0 18 L 3.869 0" style="fill: none; stroke-linecap: round; stroke: rgb(134, 119, 64);" bx:origin="0 0.5"/>
</svg>