<?xml version="1.0" encoding="UTF-8" standalone="no"?>
<svg width="83px" height="18px" viewBox="0 0 83 18" version="1.1" xmlns="http://www.w3.org/2000/svg" xmlns:xlink="http://www.w3.org/1999/xlink">
    <!-- Generator: Sketch 45 (43475) - http://www.bohemiancoding.com/sketch -->
    <title>system</title>
    <desc>Created with Sketch.</desc>
    <defs></defs>
    <g id="Page-1" stroke="none" stroke-width="1" fill="none" fill-rule="evenodd">
        <path d="M16.708,14 L14.846,14 L14.006,11.634 L10.744,11.634 L9.904,14 L8.042,14 L11.528,4.2 L13.222,4.2 L16.708,14 Z M13.39,9.898 L12.368,7.028 L11.36,9.898 L13.39,9.898 Z M23.554,5.936 L20.782,5.936 L20.782,14 L18.99,14 L18.99,5.936 L16.218,5.936 L16.218,4.2 L23.554,4.2 L23.554,5.936 Z M31.73,14 L29.868,14 L29.028,11.634 L25.766,11.634 L24.926,14 L23.064,14 L26.55,4.2 L28.244,4.2 L31.73,14 Z M28.412,9.898 L27.39,7.028 L26.382,9.898 L28.412,9.898 Z M40.354,14 L38.492,14 L36.462,10.36 L34.642,10.36 L34.642,14 L32.85,14 L32.85,4.2 L36.434,4.2 C38.6833446,4.2 39.808,5.14265724 39.808,7.028 C39.808,7.7280035 39.6633348,8.29733114 39.374,8.736 C39.0846652,9.17466886 38.6740027,9.5573317 38.142,9.884 L40.354,14 Z M36.028,5.698 L34.642,5.698 L34.642,8.68 L35.958,8.68 C36.7140038,8.68 37.2319986,8.54933464 37.512,8.288 C37.7920014,8.02666536 37.932,7.64866914 37.932,7.154 C37.932,6.65933086 37.796668,6.29300119 37.526,6.055 C37.255332,5.81699881 36.7560036,5.698 36.028,5.698 Z M43.406,14 L41.614,14 L41.614,4.2 L43.406,4.2 L43.406,14 Z M54.242,14 L48.25,14 C49.3886724,12.3573251 50.2636636,11.0203385 50.875,9.989 C51.4863364,8.95766151 51.859666,8.25766851 51.995,7.889 C52.130334,7.52033149 52.198,7.19133478 52.198,6.902 C52.198,6.46333114 52.0790012,6.12033457 51.841,5.873 C51.6029988,5.62566543 51.2693355,5.502 50.84,5.502 C49.9906624,5.502 49.2393366,6.00132834 48.586,7 L48.362,5.39 C48.5393342,5.0633317 48.8776642,4.75066816 49.377,4.452 C49.8763358,4.15333184 50.4853297,4.004 51.204,4.004 C52.137338,4.004 52.8186645,4.26766403 53.248,4.795 C53.6773355,5.32233597 53.892,5.9359965 53.892,6.636 C53.892,7.27066984 53.6936686,8.02199566 53.297,8.89 C52.9003314,9.75800434 52.2446712,10.8826598 51.33,12.264 L54.242,12.264 L54.242,14 Z M58.904,14.196 C57.9799954,14.196 57.2403361,13.895003 56.685,13.293 C56.1296639,12.690997 55.852,11.7460064 55.852,10.458 C55.852,9.59932904 56.0083318,8.76400406 56.321,7.952 C56.6336682,7.13999594 57.0116644,6.47033597 57.455,5.943 C57.8983355,5.41566403 58.3556643,4.99333492 58.827,4.676 C59.2983357,4.35866508 59.7066649,4.2 60.052,4.2 L61.228,4.9 C60.9386652,4.9 60.5326693,5.08899811 60.01,5.467 C59.4873307,5.84500189 58.9950023,6.3373303 58.533,6.944 C58.0709977,7.5506697 57.8073337,8.11999734 57.742,8.652 C58.0313348,8.28799818 58.5726627,8.106 59.366,8.106 C60.2340043,8.106 60.9433306,8.35099755 61.494,8.841 C62.0446694,9.33100245 62.32,10.0286621 62.32,10.934 C62.32,11.8300045 62.0050032,12.5976635 61.375,13.237 C60.7449968,13.8763365 59.9213384,14.196 58.904,14.196 Z M59.254,9.562 C58.7593309,9.562 58.3580015,9.69733198 58.05,9.968 C57.7419985,10.238668 57.588,10.6353307 57.588,11.158 C57.588,11.6060022 57.7443318,11.958332 58.057,12.215 C58.3696682,12.471668 58.7126648,12.6 59.086,12.6 C59.552669,12.6 59.9329985,12.434335 60.227,12.103 C60.5210015,11.771665 60.668,11.372669 60.668,10.906 C60.668,10.5606649 60.5466679,10.2503347 60.304,9.975 C60.0613321,9.69966529 59.7113356,9.562 59.254,9.562 Z M67.766,14.196 C66.5526606,14.196 65.577337,13.7433379 64.84,12.838 C64.102663,11.9326621 63.734,10.7380074 63.734,9.254 C63.734,7.7139923 64.1353293,6.4540049 64.938,5.474 C65.7406707,4.4939951 66.7393274,4.004 67.934,4.004 C69.1006725,4.004 70.0643295,4.47299531 70.825,5.411 C71.5856705,6.34900469 71.966,7.55065934 71.966,9.016 C71.966,10.5746745 71.5833372,11.8276619 70.818,12.775 C70.0526628,13.7223381 69.0353397,14.196 67.766,14.196 Z M67.906,5.586 C67.2526634,5.586 66.692669,5.90333016 66.226,6.538 C65.759331,7.17266984 65.526,8.07799412 65.526,9.254 C65.526,10.3740056 65.7336646,11.2093306 66.149,11.76 C66.5643354,12.3106694 67.1126633,12.586 67.794,12.586 C68.5220036,12.586 69.1053311,12.2943363 69.544,11.711 C69.9826689,11.1276637 70.202,10.2293394 70.202,9.016 C70.202,7.91466116 69.9803356,7.06766963 69.537,6.475 C69.0936645,5.88233037 68.5500032,5.586 67.906,5.586 Z M77.65,14.196 C76.4366606,14.196 75.461337,13.7433379 74.724,12.838 C73.986663,11.9326621 73.618,10.7380074 73.618,9.254 C73.618,7.7139923 74.0193293,6.4540049 74.822,5.474 C75.6246707,4.4939951 76.6233274,4.004 77.818,4.004 C78.9846725,4.004 79.9483295,4.47299531 80.709,5.411 C81.4696705,6.34900469 81.85,7.55065934 81.85,9.016 C81.85,10.5746745 81.4673372,11.8276619 80.702,12.775 C79.9366628,13.7223381 78.9193397,14.196 77.65,14.196 Z M77.79,5.586 C77.1366634,5.586 76.576669,5.90333016 76.11,6.538 C75.643331,7.17266984 75.41,8.07799412 75.41,9.254 C75.41,10.3740056 75.6176646,11.2093306 76.033,11.76 C76.4483354,12.3106694 76.9966633,12.586 77.678,12.586 C78.4060036,12.586 78.9893311,12.2943363 79.428,11.711 C79.8666689,11.1276637 80.086,10.2293394 80.086,9.016 C80.086,7.91466116 79.8643356,7.06766963 79.421,6.475 C78.9776645,5.88233037 78.4340032,5.586 77.79,5.586 Z" id="ATARI-2600-Copy" fill="#FFFFFF"></path>
        <g id="system" stroke="#867740" stroke-linecap="round">
            <path d="M0.5,17.5 L4.5,0.5" id="Shape"></path>
        </g>
    </g>
</svg>