<svg clip-rule="evenodd" fill-rule="evenodd" height="350" stroke-linejoin="round" stroke-miterlimit="2" viewBox="0 0 600 350" width="600" xmlns="http://www.w3.org/2000/svg"><path d="m582.3295 345.94957h-563.095712c-1.969631 0-3.647466-1.67784-3.647466-3.64746v-324.332629c0-1.969631 1.677835-3.647466 3.647466-3.647466h563.095712c1.96963 0 3.64747 1.677835 3.64747 3.647466v324.332629c0 2.11553-1.60489 3.64746-3.64747 3.64746z" fill="none" stroke="#fff" stroke-miterlimit="2"/><path d="m555.04646 127.83113h-504.225621c-3.063871 0-5.617096-2.55323-5.617096-5.69005v-111.612429c0-3.1368201 2.480275-5.6900459 5.617096-5.6900459h504.152671c3.06387 0 5.6171 2.5532258 5.6171 5.6900459v111.685389c0 3.06386-2.55323 5.61709-5.54415 5.61709z" fill="none" stroke="#fff" stroke-miterlimit="2"/><path d="m55.708442 65.094736h1.313088c.07295 0-.218848-.510646-.218848-.583595v-59.453688h-1.677834v59.453688c0 .07295.510645.583595.583594.583595zm11.525992 0h1.313087c.07295 0-.218848-.510646-.218848-.583595v-59.453688h-1.677833v59.453688c0 .07295.510644.583595.583594.583595zm12.328433 0h1.313087c.07295 0-.218848-.510646-.218848-.583595v-59.453688h-1.677833v59.453688c0 .07295.510644.583595.583594.583595zm11.525991 0h1.313087c.07295 0-.218847-.510646-.218847-.583595v-59.453688h-1.677834v59.453688c0 .07295.437695.583595.583594.583595zm11.453042 0h1.31309c.073 0-.21885-.510646-.21885-.583595v-59.453688h-1.67783v59.453688c0 .07295.51064.583595.58359.583595zm11.52598 0h1.31309c.0729 0-.21884-.510646-.21884-.583595v-59.453688h-1.67784v59.453688c0 .07295.51065.583595.58359.583595zm12.32844 0h1.31309c.0729 0-.21885-.510646-.21885-.583595v-59.453688h-1.67783v59.453688c0 .07295.51064.583595.58359.583595zm11.52599 0h1.31308c.073 0-.21884-.510646-.21884-.583595v-59.453688h-1.67784v59.453688c0 .07295.51065.583595.5836.583595zm11.52599 0h1.31309c.0729 0-.21885-.510646-.21885-.583595v-59.453688h-1.67784v59.453688c0 .07295.51065.583595.5836.583595zm11.52599 0h1.31309c.0729 0-.21885-.510646-.21885-.583595v-59.453688h-1.67783v59.453688c0 .07295.43769.583595.58359.583595zm12.32843 0h1.31309c.0729 0-.21885-.510646-.21885-.583595v-59.453688h-1.67783v59.453688c0 .07295.51064.583595.58359.583595zm11.45305 0h1.31308c.0729 0-.21884-.510646-.21884-.583595v-59.453688h-1.67784v59.453688c.073.07295.51064.583595.5836.583595zm11.52599 0h1.31309c.0729 0-.21885-.510646-.21885-.583595v-59.453688h-1.67784v59.453688c0 .07295.51065.583595.5836.583595zm11.52598 0h1.31309c.0729 0-.21884-.510646-.21884-.583595v-59.453688h-1.67784v59.453688c0 .07295.51065.583595.58359.583595zm12.32844 0h1.31309c.0729 0-.21885-.510646-.21885-.583595v-59.453688h-1.67783v59.453688c0 .07295.51064.583595.58359.583595zm11.52599 0h1.31309c.073 0-.21885-.510646-.21885-.583595v-59.453688h-1.67783v59.453688c0 .07295.51064.583595.58359.583595zm11.52599 0h1.31309c.0729 0-.21885-.510646-.21885-.583595v-59.453688h-1.67783v59.453688c0 .07295.51064.583595.58359.583595zm11.45304 0h1.31309c.0729 0-.21884-.510646-.21884-.583595v-59.453688h-1.67784v59.453688c.0729.07295.51064.583595.58359.583595zm12.32844 0h1.31309c.0729 0-.21886-.510646-.21886-.583595v-59.453688h-1.67782v59.453688c.0729.07295.51064.583595.58359.583595zm11.52599 0h1.31308c.073 0-.21884-.510646-.21884-.583595v-59.453688h-1.67784v59.453688c0 .07295.51065.583595.5836.583595zm11.52599 0h1.31309c.0729 0-.21885-.510646-.21885-.583595v-59.453688h-1.67784v59.453688c0 .07295.51065.583595.5836.583595zm11.52599 0h1.31309c.073 0-.21885-.510646-.21885-.583595v-59.453688h-1.67783v59.453688c0 .07295.51064.583595.58359.583595zm12.32843 0h1.31309c.0729 0-.21885-.510646-.21885-.583595v-59.453688h-1.67783v59.453688c0 .07295.51064.583595.58359.583595zm11.526 0h1.31308c.073 0-.21884-.510646-.21884-.583595v-59.453688h-1.67784v59.453688c0 .07295.51065.583595.5836.583595zm11.45304 0h1.31309c.0729 0-.21886-.510646-.21886-.583595v-59.453688h-1.67783v59.453688c.073.07295.51065.583595.5836.583595zm11.52598 0h1.31309c.0729 0-.21884-.510646-.21884-.583595v-59.453688h-1.67784v59.453688c0 .07295.51065.583595.58359.583595zm12.32844 0h1.31309c.0729 0-.21885-.510646-.21885-.583595v-59.453688h-1.67783v59.453688c0 .07295.51064.583595.58359.583595zm11.52599 0h1.31309c.073 0-.21885-.510646-.21885-.583595v-59.453688h-1.67783v59.453688c0 .07295.51064.583595.58359.583595zm11.52599 0h1.31309c.0729 0-.21885-.510646-.21885-.583595v-59.453688h-1.67784v59.453688c0 .07295.51065.583595.5836.583595zm11.526 0h1.31308c.073 0-.21884-.510646-.21884-.583595v-59.453688h-1.67784v59.453688c0 .07295.51064.583595.5836.583595zm12.32842 0h1.31309c.0729 0-.21885-.510646-.21885-.583595v-59.453688h-1.67782v59.453688c0 .07295.51064.583595.58358.583595zm11.526 0h1.31309c.0729 0-.21885-.510646-.21885-.583595v-59.453688h-1.67784v59.453688c0 .07295.43769.583595.5836.583595zm11.45304 0h1.31309c.0729 0-.21885-.510646-.21885-.583595v-59.453688h-1.67784v59.453688c0 .07295.51065.583595.5836.583595zm11.52599 0h1.31309c.0729 0-.21885-.510646-.21885-.583595v-59.453688h-1.67783v59.453688c0 .07295.51064.583595.58359.583595zm12.32843 0h1.31309c.073 0-.21885-.510646-.21885-.583595v-59.453688h-1.67783v59.453688c0 .07295.51064.583595.58359.583595zm11.526 0h1.31308c.073 0-.21884-.510646-.21884-.583595v-59.453688h-1.67784v59.453688c0 .07295.51065.583595.5836.583595zm11.52598 0h1.31309c.0729 0-.21885-.510646-.21885-.583595v-59.453688h-1.67782v59.453688c0 .07295.51064.583595.58358.583595zm11.526 0h1.31308c.073 0-.21884-.510646-.21884-.583595v-59.453688h-1.67784v59.453688c0 .07295.43769.583595.5836.583595zm12.32843 0h1.31309c.0729 0-.21886-.510646-.21886-.583595v-59.453688h-1.67782v59.453688c0 .07295.43769.583595.58359.583595zm11.45304 0h1.31308c.073 0-.21884-.510646-.21884-.583595v-59.453688h-1.67783v59.453688c0 .07295.51064.583595.58359.583595zm23.05199 0h1.31308c.0729 0-.21884-.510646-.21884-.583595v-59.453688h-1.67784v59.453688c0 .07295.51064.583595.5836.583595zm-11.526 0h1.31309c.0729 0-.21885-.510646-.21885-.583595v-59.453688h-1.67784v59.453688c0 .07295.51065.583595.5836.583595zm23.85442 0h1.31309c.0729 0-.21885-.510646-.21885-.583595v-59.453688h-1.67783v59.453688c0 .07295.51065.583595.58359.583595z" fill="#fff" fill-rule="nonzero" stroke="#fff" stroke-miterlimit="2"/><path d="m69.860609 93.034321h-6.492489v-17.288986h-9.848156v-5.690047h26.188802v5.690047h-9.848157zm-5.762995-.729493h5.033502v-17.288987h9.848157v-4.231059h-24.729817v4.231059h9.848158zm40.778666.218847h-15.684104c-3.720415 0-6.784285-3.06387-6.784285-6.784285v-8.535069c0-3.720415 3.06387-6.784286 6.784285-6.784286h15.684104c3.72041 0 6.78428 3.063871 6.78428 6.784286v8.535069c0 3.720415-3.06387 6.784285-6.78428 6.784285zm-15.684104-21.374147c-3.355668 0-6.054793 2.699124-6.054793 6.054793v8.535069c0 3.355668 2.699125 6.054793 6.054793 6.054793h15.684104c3.35566 0 6.05479-2.699125 6.05479-6.054793v-8.535069c0-3.355669-2.69913-6.054793-6.05479-6.054793z" fill="#fff" fill-rule="nonzero" stroke-width=".729493"/><path d="m102.396 88.219666h-10.796497c-1.823733 0-3.20977-1.458986-3.20977-3.209769v-7.076084c0-1.823732 1.458987-3.209769 3.20977-3.209769h10.796497c1.82373 0 3.20977 1.458986 3.20977 3.209769v7.076084c.0729 1.823733-1.38604 3.209769-3.20977 3.209769zm-10.796497-12.766129c-1.386037 0-2.480276 1.09424-2.480276 2.480276v7.076084c0 1.386037 1.094239 2.480276 2.480276 2.480276h10.796497c1.38604 0 2.48028-1.094239 2.48028-2.480276v-7.076084c0-1.386036-1.09424-2.480276-2.48028-2.480276zm41.070457 4.085162h-8.17032c-1.60489 0-2.91797-1.313087-2.91797-2.917973 0-1.604885 1.31308-2.917972 2.91797-2.917972h8.17032c1.60488 0 2.91797 1.313087 2.91797 2.917972 0 1.604886-1.31309 2.917973-2.91797 2.917973zm-8.17032-5.106452c-1.24015 0-2.18848.948341-2.18848 2.188479s.94833 2.18848 2.18848 2.18848h8.17032c1.24013 0 2.18848-.948342 2.18848-2.18848s-.94835-2.188479-2.18848-2.188479z" fill="#fff" fill-rule="nonzero" stroke-width=".729493"/><path d="m135.51498 91.794183h-14.00627c-3.13681 0-5.61709-2.553226-5.61709-5.617098 0-2.407326 1.53193-4.449907 3.64746-5.252349-2.11553-.802443-3.64746-2.845024-3.64746-5.25235 0-3.136821 2.55323-5.617098 5.61709-5.617098h14.00627c3.13682 0 5.6171 2.553226 5.6171 5.617098 0 2.407326-1.45898 4.449907-3.64747 5.25235 2.11553.802442 3.64747 2.845023 3.64747 5.252349 0 3.063872-2.48028 5.617098-5.6171 5.617098zm-13.93331-11.234194v.729493c-2.62618 0-4.88761 2.261429-4.88761 4.887603 0 2.626175 2.26143 4.887604 4.88761 4.887604h14.00626c2.62617 0 4.88761-2.261429 4.88761-4.887604 0-2.626174-2.26144-4.887603-4.88761-4.887603v-.729493c2.77208 0 4.88761-2.11553 4.88761-4.887603 0-2.626176-2.26144-4.887604-4.88761-4.887604h-14.00626c-2.62618 0-4.88761 2.261428-4.88761 4.887604 0 2.626175 2.18848 4.887603 4.88761 4.887603z" fill="#fff" fill-rule="nonzero" stroke-width=".729493"/><path d="m132.66996 88.146717h-8.17032c-1.60489 0-2.91797-1.313087-2.91797-2.917972s1.31308-2.917972 2.91797-2.917972h8.17032c1.60488 0 2.91797 1.313087 2.91797 2.917972s-1.31309 2.917972-2.91797 2.917972zm-8.17032-5.106452c-1.24015 0-2.18848.948342-2.18848 2.18848s.94833 2.188479 2.18848 2.188479h8.17032c1.24013 0 2.18848-.948341 2.18848-2.188479s-.94835-2.18848-2.18848-2.18848zm92.57267-13.787419h8.31622s.0729 0 .0729.07295v1.750784s0 .07295.073.07295h3.35567s.073 0 .073-.07295v-1.750784s0-.07295.0729-.07295h1.75079s.0729 0 .0729.07295v5.690046s0 .07295-.0729.07295h-1.75079s-.0729 0-.0729-.07295v-2.188477s0-.07295-.073-.07295h-3.35567s-.073 0-.073.07295v2.11553s0 .07295-.0729.07295h-1.75078s-.073 0-.073-.07295v-4.15811s0-.07295-.0729-.07295h-2.48027s-.073 0-.073.07295v4.15811s0 .07295-.073.07295h-1.67783s-.073 0-.073-.07295v-4.15811s0-.07295-.0729-.07295h-1.96963s-.073 0-.073-.07295l.073-1.386037m19.47746 5.690046h-3.64746c-1.09424 0-1.89668-.802443-1.89668-1.896682v-2.042581c0-1.09424.80244-1.896681 1.89668-1.896681h3.64746c1.09425 0 1.89669.802441 1.89669 1.896681v2.042581c0 1.094239-.80244 1.896682-1.89669 1.896682m.21885-2.407327v-1.094242c0-.510645-.43769-1.02129-1.02129-1.02129h-2.04258c-.51064 0-1.02128.437696-1.02128 1.02129v1.09424c0 .510645.43769 1.02129 1.02128 1.02129h2.04266c.51065-.07295 1.02129-.510645 1.02129-1.02129m23.85442 2.407327h-3.72041c-1.09423 0-1.89668-.802443-1.89668-1.896682v-2.11553c0-1.09424.80245-1.896682 1.89668-1.896682h3.72041c1.09424 0 1.89669.802442 1.89669 1.896682v2.11553c-.1459 1.094239-.94834 1.896682-1.89669 1.896682m.0729-2.334378v-1.167189c0-.510645-.43769-.875391-.87538-.875391h-2.18848c-.51065 0-.8754.437695-.8754.875391v1.167189c0 .510646.4377.875392.8754.875392h2.11553c.51064 0 .94833-.437696.94833-.875392m-21.81184 2.334378v-5.690046s0-.07295.0729-.07295h2.55322l1.82375 3.355668h.073l1.82373-3.355668h2.55323s.0729 0 .0729.07295v5.690046s0 .07295-.0729.07295h-1.53193s-.0729 0-.0729-.07295v-3.793364c0-.07295-.073-.07295-.073 0l-2.04257 3.866313h-1.1672l-2.11553-3.793364h-.073v3.793364s0 .07295-.0729.07295l-1.75079-.145899m23.85443-.07295v-5.690046s0-.07295.0729-.07295h2.62618l2.84503 3.866313h.0729v-3.866313s0-.07295.073-.07295h1.67784s.073 0 .073.07295v5.690046s0 .07295-.073.07295h-2.55323l-2.99083-3.939263h-.073v3.939263s0 .07295-.0729.07295l-1.67783-.07295m-7.87853-2.18848c-.0729-.802442-.5836-1.240138-1.09424-1.313087-.51064-.07295-1.16718-.07295-1.96963-.07295-.80244 0-1.75079-.07295-1.75079-.07295s-.21884-.07295-.21884-.437695c0-.364747.43769-.364747.43769-.364747h2.04259s.43769 0 .51064.145899c.073.07295.073.145898.073.218848 0 .145898.1459.364746.36475.364746h1.09424c.1459 0 .21884-.145899.21884-.364746v-.437696c0-.510646-.21884-.729494-.21884-.729494s-.36475-.364746-.8754-.437695c-.58359-.07295-1.45898-.07295-2.04258-.07295-.58359 0-1.53193.07295-1.89668.07295-.21885 0-1.02129.145898-1.16718.875391-.14591.802443-.0729 1.09424 0 1.458986.0729.437697.43769.656544.58358.729494.21886.145898.7295.145898.7295.145898l3.06387.145899c.1459 0 .51065.07295.43769.510645 0 .364747-.43769.437696-.43769.437696h-2.04258s-.4377 0-.51064-.145899c-.0729-.07295-.0729-.07295-.0729-.145898 0-.145899-.1459-.218848-.36475-.218848h-1.09423c-.14591 0-.21886.07295-.21886.218848v.437695c0 .510645.21886.729494.21886.729494s.36474.364746.87538.437696c.5836.07295 1.45899.07295 2.04259.07295.58358 0 1.53193-.07295 1.89667-.07295.21886 0 1.0213-.145899 1.16719-1.021291.2918-.729493.2918-.729493.21885-1.09424m25.38637-2.772074-4.08517-1.458986-4.08516 1.458986v1.677834l.87539-.218847v1.677834l-.87539-.218848v1.750784l4.08516 1.531935 4.08517-1.531935v-1.750784l-.80245.218848v-1.677834l.80245.218847zm-4.37697 5.617097-3.64746-1.386037v-1.240142l3.64746 1.458987zm1.82373-1.969631-1.53193.656544-1.53193-.656544v-2.917972l1.53193-.583595 1.53193.583595zm2.18849-2.334378-3.72042-1.313088v-1.240142l3.72042 1.313088z" fill="#fff" fill-rule="nonzero" stroke-width=".729493"/><path d="m36.449825 293.28017h-5.981844c-.218848 0-.437695-.1459-.437695-.4377v-2.04258c0-.21885.145898-.4377.437695-.4377h5.981844c.218848 0 .437696.14591.437696.4377v2.04258c0 .1459-.145899.4377-.437696.4377z" fill="#fff" fill-rule="nonzero" stroke-miterlimit="2"/><g fill="none"><path d="m405.93808 153.0716c.58358 0 1.09424-.51065 1.09424-1.09424v-146.9928563" stroke="#fff" stroke-miterlimit="2"/><path d="m291.34638 5.057453-.23052 146.919907c0 .58359.51065 1.09424 1.09424 1.09424h113.72798" stroke="#fff" stroke-miterlimit="2"/><path d="m430.21195 213.82743h-18.8428c-.59089 0-1.11613-.52524-1.11613-1.11613v-18.97411c0-.5909.52524-1.11613 1.11613-1.11613h18.97411c.59089 0 1.11613.52523 1.11613 1.11613v18.97411c-.13131.59089-.59089 1.11613-1.24744 1.11613" stroke="#fff" stroke-miterlimit="2"/><path d="m405.3946 213.82743h-18.97411c-.59089 0-1.11613-.52524-1.11613-1.11613v-18.97411c0-.5909.52524-1.11613 1.11613-1.11613h18.97411c.59089 0 1.11613.52523 1.11613 1.11613v18.97411c0 .59089-.52524 1.11613-1.11613 1.11613" stroke="#fff" stroke-miterlimit="2"/><path d="m380.00824 213.82743h-18.97411c-.5909 0-1.11613-.52524-1.11613-1.11613v-18.97411c0-.5909.52523-1.11613 1.11613-1.11613h18.97411c.59089 0 1.11613.52523 1.11613 1.11613v18.97411c0 .59089-.45959 1.11613-1.11613 1.11613" stroke="#fff" stroke-miterlimit="2"/><path d="m354.69482 213.82743h-18.9741c-.5909 0-1.11613-.52524-1.11613-1.11613v-18.97411c0-.5909.52523-1.11613 1.11613-1.11613h18.9741c.5909 0 1.11614.52523 1.11614 1.11613v18.97411c-.0656.59089-.52524 1.11613-1.11614 1.11613" stroke="#fff" stroke-miterlimit="2"/><path d="m361.26027 290.05946h-18.97412c-.59089 0-1.11612-.52524-1.11612-1.11614v-18.9741c0-.5909.52523-1.11613 1.11612-1.11613h18.97412c.59089 0 1.11612.52523 1.11612 1.11613v18.9741c0 .5909-.52523 1.11614-1.11612 1.11614" stroke="#fff" stroke-miterlimit="2"/><path d="m335.94685 290.05946h-18.97411c-.59089 0-1.11612-.52524-1.11612-1.11614v-18.9741c0-.5909.52523-1.11613 1.11612-1.11613h18.97411c.5909 0 1.11613.52523 1.11613 1.11613v18.9741c0 .5909-.52523 1.11614-1.11613 1.11614" stroke="#fff" stroke-miterlimit="2"/><path d="m310.48755 290.05946h-18.97412c-.59089 0-1.11612-.52524-1.11612-1.11614v-18.9741c0-.5909.52523-1.11613 1.11612-1.11613h18.97412c.59089 0 1.11612.52523 1.11612 1.11613v18.9741c0 .5909-.45958 1.11614-1.11612 1.11614" stroke="#fff" stroke-miterlimit="2"/><path d="m285.17413 290.05946h-18.97411c-.59089 0-1.11612-.52524-1.11612-1.11614v-18.9741c0-.5909.52523-1.11613 1.11612-1.11613h18.97411c.5909 0 1.11613.52523 1.11613 1.11613v18.9741c0 .5909-.52523 1.11614-1.11613 1.11614" stroke="#fff" stroke-miterlimit="2"/><path d="m259.86072 290.05946h-18.9741c-.5909 0-1.11614-.52524-1.11614-1.11614v-18.9741c0-.5909.52524-1.11613 1.11614-1.11613h18.9741c.5909 0 1.11614.52523 1.11614 1.11613v18.9741c0 .5909-.52524 1.11614-1.11614 1.11614" stroke="#fff" stroke-miterlimit="2"/><path d="m234.47437 290.05946h-18.97412c-.59089 0-1.11612-.52524-1.11612-1.11614v-18.9741c0-.5909.52523-1.11613 1.11612-1.11613h18.97412c.59088 0 1.11612.52523 1.11612 1.11613v18.9741c0 .5909-.45958 1.11614-1.11612 1.11614" stroke="#fff" stroke-miterlimit="2"/><path d="m209.16095 290.05946h-18.9741c-.5909 0-1.11614-.52524-1.11614-1.11614v-18.9741c0-.5909.52524-1.11613 1.11614-1.11613h18.9741c.5909 0 1.11614.52523 1.11614 1.11613v18.9741c0 .5909-.52524 1.11614-1.11614 1.11614" stroke="#fff" stroke-miterlimit="2"/><path d="m183.84754 290.05946h-18.9741c-.5909 0-1.11614-.52524-1.11614-1.11614v-18.9741c0-.5909.52524-1.11613 1.11614-1.11613h18.9741c.5909 0 1.11613.52523 1.11613 1.11613v18.9741c-.0656.5909-.52523 1.11614-1.11613 1.11614" stroke="#fff" stroke-miterlimit="2"/><path d="m158.38823 290.05946h-18.9741c-.5909 0-1.11614-.52524-1.11614-1.11614v-18.9741c0-.5909.52524-1.11613 1.11614-1.11613h18.9741c.5909 0 1.11614.52523 1.11614 1.11613v18.9741c0 .5909-.45959 1.11614-1.11614 1.11614" stroke="#fff" stroke-miterlimit="2"/><path d="m133.07483 290.05946h-18.97411c-.59089 0-1.11613-.52524-1.11613-1.11614v-18.9741c0-.5909.52524-1.11613 1.11613-1.11613h18.97411c.59089 0 1.11612.52523 1.11612 1.11613v18.9741c0 .5909-.52523 1.11614-1.11612 1.11614" stroke="#fff" stroke-miterlimit="2"/><path d="m348.56709 264.16245h-18.97411c-.5909 0-1.11613-.52524-1.11613-1.11613v-18.97411c0-.59089.52523-1.11613 1.11613-1.11613h18.97411c.59089 0 1.11612.52524 1.11612 1.11613v18.97411c0 .59089-.52523 1.11613-1.11612 1.11613" stroke="#fff" stroke-miterlimit="2"/><path d="m323.18072 264.16245h-18.97411c-.59089 0-1.11612-.52524-1.11612-1.11613v-18.97411c0-.59089.52523-1.11613 1.11612-1.11613h18.97411c.5909 0 1.11613.52524 1.11613 1.11613v18.97411c0 .59089-.45958 1.11613-1.11613 1.11613" stroke="#fff" stroke-miterlimit="2"/><path d="m297.86731 264.16245h-18.9741c-.5909 0-1.11614-.52524-1.11614-1.11613v-18.97411c0-.59089.52524-1.11613 1.11614-1.11613h18.9741c.5909 0 1.11614.52524 1.11614 1.11613v18.97411c0 .59089-.52524 1.11613-1.11614 1.11613" stroke="#fff" stroke-miterlimit="2"/><path d="m272.55391 264.16245h-18.97412c-.59089 0-1.11612-.52524-1.11612-1.11613v-18.97411c0-.59089.52523-1.11613 1.11612-1.11613h18.97412c.59089 0 1.11612.52524 1.11612 1.11613v18.97411c0 .59089-.52523 1.11613-1.11612 1.11613" stroke="#fff" stroke-miterlimit="2"/><path d="m247.09459 264.16245h-18.9741c-.5909 0-1.11614-.52524-1.11614-1.11613v-18.97411c0-.59089.52524-1.11613 1.11614-1.11613h18.9741c.5909 0 1.11614.52524 1.11614 1.11613v18.97411c0 .59089-.39394 1.11613-1.11614 1.11613" stroke="#fff" stroke-miterlimit="2"/><path d="m221.78119 264.16245h-18.97412c-.59088 0-1.11612-.52524-1.11612-1.11613v-18.97411c0-.59089.52524-1.11613 1.11612-1.11613h18.97412c.59089 0 1.11612.52524 1.11612 1.11613v18.97411c0 .59089-.52523 1.11613-1.11612 1.11613" stroke="#fff" stroke-miterlimit="2"/><path d="m196.46778 264.16245h-18.97412c-.59089 0-1.11612-.52524-1.11612-1.11613v-18.97411c0-.59089.52523-1.11613 1.11612-1.11613h18.97412c.59088 0 1.11612.52524 1.11612 1.11613v18.97411c0 .59089-.52524 1.11613-1.11612 1.11613" stroke="#fff" stroke-miterlimit="2"/><path d="m171.08141 264.16245h-18.9741c-.5909 0-1.11614-.52524-1.11614-1.11613v-18.97411c0-.59089.52524-1.11613 1.11614-1.11613h18.9741c.5909 0 1.11614.52524 1.11614 1.11613v18.97411c0 .59089-.45959 1.11613-1.11614 1.11613" stroke="#fff" stroke-miterlimit="2"/><path d="m145.76801 264.16245h-18.97412c-.59089 0-1.11612-.52524-1.11612-1.11613v-18.97411c0-.59089.52523-1.11613 1.11612-1.11613h18.97412c.59089 0 1.11612.52524 1.11612 1.11613v18.97411c0 .59089-.52523 1.11613-1.11612 1.11613" stroke="#fff" stroke-miterlimit="2"/><path d="m70.49162 289.54881h-18.908461c-.590889 0-1.116124-.52523-1.116124-1.11613v-18.97411c0-.59089.525235-1.11613 1.116124-1.11613h18.974116c.590889 0 1.116124.52524 1.116124 1.11613v18.97411c-.06566.5909-.590889 1.11613-1.181779 1.11613" stroke="#fff" stroke-miterlimit="2"/><path d="m70.49162 264.16245h-18.908461c-.590889 0-1.116124-.52524-1.116124-1.11613v-18.97411c0-.59089.525235-1.11613 1.116124-1.11613h18.974116c.590889 0 1.116124.52524 1.116124 1.11613v18.97411c-.06566.59089-.590889 1.11613-1.181779 1.11613" stroke="#fff" stroke-miterlimit="2"/><path d="m95.214141 264.16245h-18.974115c-.590889 0-1.116125-.52524-1.116125-1.11613v-18.97411c0-.59089.525236-1.11613 1.116125-1.11613h18.974115c.59089 0 1.116125.52524 1.116125 1.11613v18.97411c0 .59089-.45958 1.11613-1.116125 1.11613" stroke="#fff" stroke-miterlimit="2"/><path d="m120.45459 264.16245h-18.9741c-.59089 0-1.11613-.52524-1.11613-1.11613v-18.97411c0-.59089.52524-1.11613 1.11613-1.11613h18.9741c.5909 0 1.11613.52524 1.11613 1.11613v18.97411c0 .59089-.52523 1.11613-1.11613 1.11613" stroke="#fff" stroke-miterlimit="2"/><path d="m373.4428 264.16245h-18.97411c-.59089 0-1.11613-.52524-1.11613-1.11613v-18.97411c0-.59089.52524-1.11613 1.11613-1.11613h18.97411c.59089 0 1.11613.52524 1.11613 1.11613v18.97411c-.0657.59089-.52524 1.11613-1.11613 1.11613" stroke="#fff" stroke-miterlimit="2"/><path d="m367.8257 238.99494h-18.97411c-.59089 0-1.11613-.52524-1.11613-1.11613v-18.97411c0-.5909.52524-1.11612 1.11613-1.11612h18.97411c.5909 0 1.11613.52522 1.11613 1.11612v18.97411c0 .59089-.45959 1.11613-1.11613 1.11613" stroke="#fff" stroke-miterlimit="2"/><path d="m342.80409 238.99494h-18.97411c-.5909 0-1.11613-.52524-1.11613-1.11613v-18.97411c0-.5909.52523-1.11612 1.11613-1.11612h18.97411c.5909 0 1.11613.52522 1.11613 1.11612v18.97411c0 .59089-.52523 1.11613-1.11613 1.11613" stroke="#fff" stroke-miterlimit="2"/><path d="m317.41773 238.99494h-18.97411c-.59089 0-1.11613-.52524-1.11613-1.11613v-18.97411c0-.5909.52524-1.11612 1.11613-1.11612h18.97411c.59089 0 1.11613.52522 1.11613 1.11612v18.97411c0 .59089-.45959 1.11613-1.11613 1.11613" stroke="#fff" stroke-miterlimit="2"/><path d="m292.10432 238.99494h-18.97411c-.59089 0-1.11613-.52524-1.11613-1.11613v-18.97411c0-.5909.52524-1.11612 1.11613-1.11612h18.97411c.5909 0 1.11612.52522 1.11612 1.11612v18.97411c0 .59089-.52522 1.11613-1.11612 1.11613" stroke="#fff" stroke-miterlimit="2"/><path d="m266.79091 238.99494h-18.97411c-.5909 0-1.11613-.52524-1.11613-1.11613v-18.97411c0-.5909.52523-1.11612 1.11613-1.11612h18.97411c.59089 0 1.11613.52522 1.11613 1.11612v18.97411c0 .59089-.52524 1.11613-1.11613 1.11613" stroke="#fff" stroke-miterlimit="2"/><path d="m241.3316 238.99494h-18.97411c-.59089 0-1.11613-.52524-1.11613-1.11613v-18.97411c0-.5909.52524-1.11612 1.11613-1.11612h18.97411c.5909 0 1.11612.52522 1.11612 1.11612v18.97411c0 .59089-.39392 1.11613-1.11612 1.11613" stroke="#fff" stroke-miterlimit="2"/><path d="m216.01819 238.99494h-18.97411c-.5909 0-1.11613-.52524-1.11613-1.11613v-18.97411c0-.5909.52523-1.11612 1.11613-1.11612h18.97411c.59089 0 1.11613.52522 1.11613 1.11612v18.97411c0 .59089-.52524 1.11613-1.11613 1.11613" stroke="#fff" stroke-miterlimit="2"/><path d="m190.70478 238.99494h-18.97411c-.5909 0-1.11613-.52524-1.11613-1.11613v-18.97411c0-.5909.52523-1.11612 1.11613-1.11612h18.97411c.59089 0 1.11613.52522 1.11613 1.11612v18.97411c0 .59089-.52524 1.11613-1.11613 1.11613" stroke="#fff" stroke-miterlimit="2"/><path d="m165.31842 238.99494h-18.97411c-.59089 0-1.11613-.52524-1.11613-1.11613v-18.97411c0-.5909.52524-1.11612 1.11613-1.11612h18.97411c.5909 0 1.11613.52522 1.11613 1.11612v18.97411c0 .59089-.45959 1.11613-1.11613 1.11613" stroke="#fff" stroke-miterlimit="2"/><path d="m140.005 238.99494h-18.9741c-.5909 0-1.11613-.52524-1.11613-1.11613v-18.97411c0-.5909.52523-1.11612 1.11613-1.11612h18.9741c.5909 0 1.11614.52522 1.11614 1.11612v18.97411c0 .59089-.52524 1.11613-1.11614 1.11613" stroke="#fff" stroke-miterlimit="2"/><path d="m114.6916 238.99494h-18.974109c-.590889 0-1.116124-.52524-1.116124-1.11613v-18.97411c0-.5909.525235-1.11612 1.116124-1.11612h18.974109c.59089 0 1.11613.52522 1.11613 1.11612v18.97411c0 .59089-.52524 1.11613-1.11613 1.11613" stroke="#fff" stroke-miterlimit="2"/><path d="m329.30847 213.82743h-18.97412c-.59089 0-1.11612-.52524-1.11612-1.11613v-18.97411c0-.5909.52523-1.11613 1.11612-1.11613h18.97412c.5909 0 1.11612.52523 1.11612 1.11613v18.97411c0 .59089-.52522 1.11613-1.11612 1.11613" stroke="#fff" stroke-miterlimit="2"/><path d="m303.92211 213.82743h-18.97411c-.5909 0-1.11613-.52524-1.11613-1.11613v-18.97411c0-.5909.52523-1.11613 1.11613-1.11613h18.97411c.59089 0 1.11613.52523 1.11613 1.11613v18.97411c0 .59089-.45959 1.11613-1.11613 1.11613" stroke="#fff" stroke-miterlimit="2"/><path d="m278.6087 213.82743h-18.97411c-.59089 0-1.11613-.52524-1.11613-1.11613v-18.97411c0-.5909.52524-1.11613 1.11613-1.11613h18.97411c.59089 0 1.11612.52523 1.11612 1.11613v18.97411c0 .59089-.52523 1.11613-1.11612 1.11613" stroke="#fff" stroke-miterlimit="2"/><path d="m253.29529 213.82743h-18.97412c-.59089 0-1.11612-.52524-1.11612-1.11613v-18.97411c0-.5909.52523-1.11613 1.11612-1.11613h18.97412c.59089 0 1.11612.52523 1.11612 1.11613v18.97411c0 .59089-.52523 1.11613-1.11612 1.11613" stroke="#fff" stroke-miterlimit="2"/><path d="m227.90893 213.82743h-18.97411c-.5909 0-1.11613-.52524-1.11613-1.11613v-18.97411c0-.5909.52523-1.11613 1.11613-1.11613h18.97411c.59089 0 1.11613.52523 1.11613 1.11613v18.97411c0 .59089-.45959 1.11613-1.11613 1.11613" stroke="#fff" stroke-miterlimit="2"/><path d="m202.59552 213.82743h-18.97412c-.59088 0-1.11612-.52524-1.11612-1.11613v-18.97411c0-.5909.52524-1.11613 1.11612-1.11613h18.97412c.59089 0 1.11612.52523 1.11612 1.11613v18.97411c-.0656.59089-.52523 1.11613-1.11612 1.11613" stroke="#fff" stroke-miterlimit="2"/><path d="m177.20915 213.82743h-18.9741c-.5909 0-1.11614-.52524-1.11614-1.11613v-18.97411c0-.5909.52524-1.11613 1.11614-1.11613h18.9741c.5909 0 1.11614.52523 1.11614 1.11613v18.97411c0 .59089-.52524 1.11613-1.11614 1.11613" stroke="#fff" stroke-miterlimit="2"/><path d="m151.8228 213.82743h-18.97412c-.59088 0-1.11612-.52524-1.11612-1.11613v-18.97411c0-.5909.52524-1.11613 1.11612-1.11613h18.97412c.59089 0 1.11612.52523 1.11612 1.11613v18.97411c0 .59089-.45958 1.11613-1.11612 1.11613" stroke="#fff" stroke-miterlimit="2"/><path d="m126.50938 213.82743h-18.9741c-.59089 0-1.11613-.52524-1.11613-1.11613v-18.97411c0-.5909.52524-1.11613 1.11613-1.11613h18.9741c.5909 0 1.11614.52523 1.11614 1.11613v18.97411c0 .59089-.52524 1.11613-1.11614 1.11613" stroke="#fff" stroke-miterlimit="2"/><path d="m101.19598 213.82743h-18.974111c-.590889 0-1.116124-.52524-1.116124-1.11613v-18.97411c0-.5909.525235-1.11613 1.116124-1.11613h18.974111c.5909 0 1.11613.52523 1.11613 1.11613v18.97411c0 .59089-.52523 1.11613-1.11613 1.11613" stroke="#fff" stroke-miterlimit="2"/><path d="m399.35805 289.49045h-30.46365c-.59087 0-1.11611-.52524-1.11611-1.11612v-18.7115c0-.5909.52524-1.11612 1.11611-1.11612h30.46365c.59089 0 1.11611.52522 1.11611 1.11612v18.7115c-.0656.59088-.52522 1.11612-1.11611 1.11612" stroke="#fff" stroke-miterlimit="2"/><path d="m405.70464 238.93293h-30.46364c-.59088 0-1.11612-.52524-1.11612-1.11613v-18.77715c0-.59088.52524-1.11612 1.11612-1.11612h30.46364c.59089 0 1.11611.52524 1.11611 1.11612v18.7115c0 .65654-.52522 1.18178-1.11611 1.18178" stroke="#fff" stroke-miterlimit="2"/><path d="m107.62676 289.92814h-30.529286c-.590888 0-1.116124-.52522-1.116124-1.11612v-18.7115c0-.59089.525236-1.11612 1.116124-1.11612h30.463626c.5909 0 1.11613.52523 1.11613 1.11612v18.7115c.0657.65654-.45958 1.11612-1.05047 1.11612" stroke="#fff" stroke-miterlimit="2"/><path d="m479.83937 213.25842h-41.95315c-.59088 0-1.11612-.52523-1.11612-1.11612v-18.7115c0-.5909.52524-1.11613 1.11612-1.11613h41.95315c.59089 0 1.11613.52523 1.11613 1.11613v18.7115c0 .65654-.52524 1.11612-1.11613 1.11612" stroke="#fff" stroke-miterlimit="2"/><path d="m324.97528 314.90234h-175.75677c-1.37874 0-2.49487-1.11612-2.49487-2.49486v-15.49444c0-1.37874 1.11613-2.49486 2.49487-2.49486h175.75677c1.37874 0 2.49487 1.11612 2.49487 2.49486v15.49444c0 1.37874-1.05046 2.49486-2.49487 2.49486z" stroke="#fff" stroke-miterlimit="2"/><path d="m88.692801 239.12989h-36.503836c-.590888 0-1.116124-.52523-1.116124-1.11612v-19.17108c0-.59089.525236-1.11613 1.116124-1.11613h36.438181c.590889 0 1.116125.52524 1.116125 1.11613v19.17108c.06566.59089-.459582 1.11612-1.05047 1.11612z" stroke="#fff" stroke-miterlimit="2"/><path d="m430.88342 289.49045h-24.94866c-.5909 0-1.11613-.52524-1.11613-1.11612v-18.7115c0-.5909.52523-1.11612 1.11613-1.11612h24.88301c.59087 0 1.11611.52522 1.11611 1.11612v18.7115c.0656.59088-.45957 1.11612-1.05046 1.11612z" stroke="#fff" stroke-miterlimit="2"/><path d="m76.495676 213.76907h-24.948665c-.590888 0-1.116124-.52524-1.116124-1.11613v-18.71149c0-.5909.525236-1.11613 1.116124-1.11613h24.88301c.59089 0 1.116125.52523 1.116125 1.11613v18.71149c.06566.59089-.459581 1.11613-1.05047 1.11613z" stroke="#fff" stroke-miterlimit="2"/><path d="m431.15301 262.88584h-18.84281c-.59089 0-1.11613-.52524-1.11613-1.11613v-41.95315c0-.59089.52524-1.11612 1.11613-1.11612h18.84281c.59087 0 1.11611.52523 1.11611 1.11612v41.95315c0 .59089-.52524 1.11613-1.11611 1.11613z" stroke="#fff" stroke-miterlimit="2"/><path d="m405.50402 264.17704h-24.88301c-.59088 0-1.11612-.52524-1.11612-1.11613v-18.71149c0-.59089.52524-1.11613 1.11612-1.11613h24.88301c.5909 0 1.11613.52524 1.11613 1.11613v18.71149c-.0656.59089-.52523 1.11613-1.11613 1.11613z" stroke="#fff" stroke-miterlimit="2"/><path d="m234.38865 169.65844h-32.22535c-.41582 0-.62373-.3465-.62373-.62371v-8.80134c0-.41581.34652-.62372.62373-.62372h32.22535c.41581 0 .62373.34651.62373.62372v8.80134c0 .3465-.27721.62371-.62373.62371" stroke="#fff" stroke-width=".693018"/><path d="m196.6009 169.65844h-32.22534c-.41581 0-.62373-.3465-.62373-.62371v-8.80134c0-.41581.34652-.62372.62373-.62372h32.22534c.41583 0 .62373.34651.62373.62372v8.80134c0 .3465-.27721.62371-.62373.62371" stroke="#fff" stroke-width=".693018"/><path d="m158.81316 169.65844h-32.22535c-.41581 0-.62372-.3465-.62372-.62371v-8.80134c0-.41581.34651-.62372.62372-.62372h32.22535c.41582 0 .62373.34651.62373.62372v8.80134c0 .3465-.34652.62371-.62373.62371" stroke="#fff" stroke-width=".693018"/><path d="m120.95247 169.65844h-32.225346c-.415812 0-.623717-.3465-.623717-.62371v-8.80134c0-.41581.346509-.62372.623717-.62372h32.225346c.41581 0 .62372.34651.62372.62372v8.80134c0 .3465-.2772.62371-.62372.62371" stroke="#fff" stroke-width=".693018"/><path d="m83.158203 169.65844-32.918376-.62371c-.415811 0 0 .27721 0 0v-8.80134c0-.41581.346509-.62372.623716-.62372h32.29466c.415811 0 .623716.34651.623716.62372v8.80134c0 .3465-.346509.62371-.623716.62371" stroke="#fff" stroke-width=".693018"/><path d="m505.92604 213.38973h-18.90846c-.59089 0-1.11612-.52523-1.11612-1.11613v-18.97411c0-.59089.52523-1.11613 1.11612-1.11613h18.97411c.5909 0 1.11613.52524 1.11613 1.11613v18.97411c-.0656.5909-.65654 1.11613-1.18178 1.11613" stroke="#fff" stroke-miterlimit="2"/><path d="m505.92604 238.77609h-18.90846c-.59089 0-1.11612-.52523-1.11612-1.11613v-18.97411c0-.59089.52523-1.11613 1.11612-1.11613h18.97411c.5909 0 1.11613.52524 1.11613 1.11613v18.97411c-.0656.65655-.65654 1.11613-1.18178 1.11613" stroke="#fff" stroke-miterlimit="2"/><path d="m480.89714 238.77609h-18.97412c-.5909 0-1.11612-.52523-1.11612-1.11613v-18.97411c0-.59089.52522-1.11613 1.11612-1.11613h18.97412c.59089 0 1.11612.52524 1.11612 1.11613v18.97411c-.0656.65655-.52523 1.11613-1.11612 1.11613" stroke="#fff" stroke-miterlimit="2"/><path d="m455.94846 238.77609h-18.9741c-.5909 0-1.11613-.52523-1.11613-1.11613v-18.97411c0-.59089.52523-1.11613 1.11613-1.11613h18.9741c.5909 0 1.11614.52524 1.11614 1.11613v18.97411c0 .65655-.52524 1.11613-1.11614 1.11613" stroke="#fff" stroke-miterlimit="2"/><path d="m480.89714 289.54881h-18.97412c-.5909 0-1.11612-.52523-1.11612-1.11613v-18.97411c0-.59089.52522-1.11613 1.11612-1.11613h18.97412c.59089 0 1.11612.52524 1.11612 1.11613v18.97411c-.0656.5909-.52523 1.11613-1.11612 1.11613" stroke="#fff" stroke-miterlimit="2"/><path d="m455.94846 289.54881h-18.9741c-.5909 0-1.11613-.52523-1.11613-1.11613v-18.97411c0-.59089.52523-1.11613 1.11613-1.11613h18.9741c.5909 0 1.11614.52524 1.11614 1.11613v18.97411c0 .5909-.52524 1.11613-1.11614 1.11613" stroke="#fff" stroke-miterlimit="2"/><path d="m505.92604 289.54881h-18.90846c-.59089 0-1.11612-.52523-1.11612-1.11613v-18.97411c0-.59089.52523-1.11613 1.11612-1.11613h18.97411c.5909 0 1.11613.52524 1.11613 1.11613v18.97411c-.0656.5909-.65654 1.11613-1.18178 1.11613" stroke="#fff" stroke-miterlimit="2"/><path d="m531.08654 213.38973h-18.97411c-.5909 0-1.11613-.52523-1.11613-1.11613v-18.97411c0-.59089.52523-1.11613 1.11613-1.11613h18.97411c.59089 0 1.11613.52524 1.11613 1.11613v18.97411c.0656.5909-.52524 1.11613-1.11613 1.11613" stroke="#fff" stroke-miterlimit="2"/><path d="m531.08659 238.77609h-18.97412c-.59089 0-1.11613-.52523-1.11613-1.11613v-18.97411c0-.59089.52524-1.11613 1.11613-1.11613h18.97412c.59088 0 1.11612.52524 1.11612 1.11613v18.97411c.0656.65655-.39393 1.11613-1.11612 1.11613" stroke="#fff" stroke-miterlimit="2"/><path d="m531.08659 264.16245h-18.97412c-.59089 0-1.11613-.52524-1.11613-1.11613v-18.97411c0-.59089.52524-1.11613 1.11613-1.11613h18.97412c.59088 0 1.11612.52524 1.11612 1.11613v18.97411c.0656.65654-.39393 1.11613-1.11612 1.11613" stroke="#fff" stroke-miterlimit="2"/><path d="m531.08658 289.54881h-18.97411c-.5909 0-1.11613-.52523-1.11613-1.11613v-18.97411c0-.59089.52523-1.11613 1.11613-1.11613h18.97411c.59089 0 1.11613.52524 1.11613 1.11613v18.97411c.0656.5909-.39393 1.11613-1.11613 1.11613" stroke="#fff" stroke-miterlimit="2"/><path d="m556.47262 213.38973h-18.97412c-.59089 0-1.11612-.52523-1.11612-1.11613v-18.97411c0-.59089.52523-1.11613 1.11612-1.11613h18.97412c.59089 0 1.11612.52524 1.11612 1.11613v18.97411c0 .5909-.59089 1.11613-1.11612 1.11613" stroke="#fff" stroke-miterlimit="2"/><path d="m556.47262 238.77609h-18.97412c-.59089 0-1.11612-.52523-1.11612-1.11613v-18.97411c0-.59089.52523-1.11613 1.11612-1.11613h18.97412c.59089 0 1.11612.52524 1.11612 1.11613v18.97411c0 .65655-.59089 1.11613-1.11612 1.11613" stroke="#fff" stroke-miterlimit="2"/><path d="m556.47262 264.16245h-18.97412c-.59089 0-1.11612-.52524-1.11612-1.11613v-18.97411c0-.59089.52523-1.11613 1.11612-1.11613h18.97412c.59089 0 1.11612.52524 1.11612 1.11613v18.97411c0 .65654-.59089 1.11613-1.11612 1.11613" stroke="#fff" stroke-miterlimit="2"/><path d="m556.47262 289.54881h-18.97412c-.59089 0-1.11612-.52523-1.11612-1.11613v-18.97411c0-.59089.52523-1.11613 1.11612-1.11613h18.97412c.59089 0 1.11612.52524 1.11612 1.11613v18.97411c0 .5909-.59089 1.11613-1.11612 1.11613" stroke="#fff" stroke-miterlimit="2"/><path d="m673.8 356.9h-28.8c-.9 0-1.7-.8-1.7-1.7v-28.9c0-.9.8-1.7 1.7-1.7h28.9c.9 0 1.7.8 1.7 1.7v28.9c-.1 1-1 1.7-1.8 1.7" stroke="#fff" stroke-miterlimit="2" stroke-width="1.523128" transform="matrix(.65654379 0 0 .65654379 63.546846 29.841981)"/><path d="m639.8 356.9h-63.9c-.9 0-1.7-.8-1.7-1.7v-28.5c0-.9.8-1.7 1.7-1.7h63.9c.9 0 1.7.8 1.7 1.7v28.5c0 .9-.8 1.7-1.7 1.7" stroke="#fff" stroke-miterlimit="2" stroke-width="1.523128" transform="matrix(.65654379 0 0 .65654379 59.782662 29.856571)"/></g></svg>