<?xml version="1.0" encoding="UTF-8" standalone="no"?>
<svg
   xmlns:dc="http://purl.org/dc/elements/1.1/"
   xmlns:cc="http://creativecommons.org/ns#"
   xmlns:rdf="http://www.w3.org/1999/02/22-rdf-syntax-ns#"
   xmlns:svg="http://www.w3.org/2000/svg"
   xmlns="http://www.w3.org/2000/svg"
   xmlns:sodipodi="http://sodipodi.sourceforge.net/DTD/sodipodi-0.dtd"
   xmlns:inkscape="http://www.inkscape.org/namespaces/inkscape"
   inkscape:version="1.0alpha2 (0c7b077, 2019-09-04)"
   sodipodi:docname="controller.svg"
   id="svg1239"
   version="1.1"
   width="600"
   viewBox="0 0 600 375"
   stroke-miterlimit="2"
   stroke-linejoin="round"
   height="375"
   fill-rule="evenodd"
   clip-rule="evenodd">
  <metadata
     id="metadata1245">
    <rdf:RDF>
      <cc:Work
         rdf:about="">
        <dc:format>image/svg+xml</dc:format>
        <dc:type
           rdf:resource="http://purl.org/dc/dcmitype/StillImage" />
        <dc:title></dc:title>
      </cc:Work>
    </rdf:RDF>
  </metadata>
  <defs
     id="defs1243" />
  <sodipodi:namedview
     inkscape:current-layer="svg1239"
     inkscape:window-maximized="0"
     inkscape:window-y="34"
     inkscape:window-x="12"
     inkscape:cy="175"
     inkscape:cx="300"
     inkscape:zoom="0.77714286"
     showgrid="false"
     id="namedview1241"
     inkscape:window-height="982"
     inkscape:window-width="1656"
     inkscape:pageshadow="2"
     inkscape:pageopacity="0"
     guidetolerance="10"
     gridtolerance="10"
     objecttolerance="10"
     borderopacity="1"
     inkscape:document-rotation="0"
     bordercolor="#666666"
     pagecolor="#a9a9a9" />
  <path
     inkscape:connector-curvature="0"
     id="path1055"
     stroke-miterlimit="2"
     stroke="#fff"
     fill="none"
     d="M 582.3295,345.94957 H 19.233788 c -1.969631,0 -3.647466,-1.67784 -3.647466,-3.64746 V 17.969481 c 0,-1.969631 1.677835,-3.647466 3.647466,-3.647466 H 582.3295 c 1.96963,0 3.64747,1.677835 3.64747,3.647466 V 342.30211 c 0,2.11553 -1.60489,3.64746 -3.64747,3.64746 z" />
  <path
     inkscape:connector-curvature="0"
     id="path1057"
     stroke-miterlimit="2"
     stroke="#fff"
     fill="none"
     d="M 555.04646,127.83113 H 50.820839 c -3.063871,0 -5.617096,-2.55323 -5.617096,-5.69005 V 10.528651 c 0,-3.1368201 2.480275,-5.6900459 5.617096,-5.6900459 H 554.97351 c 3.06387,0 5.6171,2.5532258 5.6171,5.6900459 V 122.21404 c 0,3.06386 -2.55323,5.61709 -5.54415,5.61709 z" />
  <path
     inkscape:connector-curvature="0"
     id="path1059"
     stroke-miterlimit="2"
     stroke="#fff"
     fill-rule="nonzero"
     fill="#fff"
     d="m 55.708442,65.094736 h 1.313088 c 0.07295,0 -0.218848,-0.510646 -0.218848,-0.583595 V 5.057453 h -1.677834 v 59.453688 c 0,0.07295 0.510645,0.583595 0.583594,0.583595 z m 11.525992,0 h 1.313087 c 0.07295,0 -0.218848,-0.510646 -0.218848,-0.583595 V 5.057453 H 66.65084 v 59.453688 c 0,0.07295 0.510644,0.583595 0.583594,0.583595 z m 12.328433,0 h 1.313087 c 0.07295,0 -0.218848,-0.510646 -0.218848,-0.583595 V 5.057453 h -1.677833 v 59.453688 c 0,0.07295 0.510644,0.583595 0.583594,0.583595 z m 11.525991,0 h 1.313087 c 0.07295,0 -0.218847,-0.510646 -0.218847,-0.583595 V 5.057453 h -1.677834 v 59.453688 c 0,0.07295 0.437695,0.583595 0.583594,0.583595 z m 11.453042,0 h 1.31309 c 0.073,0 -0.21885,-0.510646 -0.21885,-0.583595 V 5.057453 h -1.67783 v 59.453688 c 0,0.07295 0.51064,0.583595 0.58359,0.583595 z m 11.52598,0 h 1.31309 c 0.0729,0 -0.21884,-0.510646 -0.21884,-0.583595 V 5.057453 h -1.67784 v 59.453688 c 0,0.07295 0.51065,0.583595 0.58359,0.583595 z m 12.32844,0 h 1.31309 c 0.0729,0 -0.21885,-0.510646 -0.21885,-0.583595 V 5.057453 h -1.67783 v 59.453688 c 0,0.07295 0.51064,0.583595 0.58359,0.583595 z m 11.52599,0 h 1.31308 c 0.073,0 -0.21884,-0.510646 -0.21884,-0.583595 V 5.057453 h -1.67784 v 59.453688 c 0,0.07295 0.51065,0.583595 0.5836,0.583595 z m 11.52599,0 h 1.31309 c 0.0729,0 -0.21885,-0.510646 -0.21885,-0.583595 V 5.057453 h -1.67784 v 59.453688 c 0,0.07295 0.51065,0.583595 0.5836,0.583595 z m 11.52599,0 h 1.31309 c 0.0729,0 -0.21885,-0.510646 -0.21885,-0.583595 V 5.057453 h -1.67783 v 59.453688 c 0,0.07295 0.43769,0.583595 0.58359,0.583595 z m 12.32843,0 h 1.31309 c 0.0729,0 -0.21885,-0.510646 -0.21885,-0.583595 V 5.057453 h -1.67783 v 59.453688 c 0,0.07295 0.51064,0.583595 0.58359,0.583595 z m 11.45305,0 h 1.31308 c 0.0729,0 -0.21884,-0.510646 -0.21884,-0.583595 V 5.057453 h -1.67784 v 59.453688 c 0.073,0.07295 0.51064,0.583595 0.5836,0.583595 z m 11.52599,0 h 1.31309 c 0.0729,0 -0.21885,-0.510646 -0.21885,-0.583595 V 5.057453 h -1.67784 v 59.453688 c 0,0.07295 0.51065,0.583595 0.5836,0.583595 z m 11.52598,0 h 1.31309 c 0.0729,0 -0.21884,-0.510646 -0.21884,-0.583595 V 5.057453 h -1.67784 v 59.453688 c 0,0.07295 0.51065,0.583595 0.58359,0.583595 z m 12.32844,0 h 1.31309 c 0.0729,0 -0.21885,-0.510646 -0.21885,-0.583595 V 5.057453 h -1.67783 v 59.453688 c 0,0.07295 0.51064,0.583595 0.58359,0.583595 z m 11.52599,0 h 1.31309 c 0.073,0 -0.21885,-0.510646 -0.21885,-0.583595 V 5.057453 h -1.67783 v 59.453688 c 0,0.07295 0.51064,0.583595 0.58359,0.583595 z m 11.52599,0 h 1.31309 c 0.0729,0 -0.21885,-0.510646 -0.21885,-0.583595 V 5.057453 h -1.67783 v 59.453688 c 0,0.07295 0.51064,0.583595 0.58359,0.583595 z m 11.45304,0 h 1.31309 c 0.0729,0 -0.21884,-0.510646 -0.21884,-0.583595 V 5.057453 h -1.67784 v 59.453688 c 0.0729,0.07295 0.51064,0.583595 0.58359,0.583595 z m 12.32844,0 h 1.31309 c 0.0729,0 -0.21886,-0.510646 -0.21886,-0.583595 V 5.057453 h -1.67782 v 59.453688 c 0.0729,0.07295 0.51064,0.583595 0.58359,0.583595 z m 11.52599,0 h 1.31308 c 0.073,0 -0.21884,-0.510646 -0.21884,-0.583595 V 5.057453 h -1.67784 v 59.453688 c 0,0.07295 0.51065,0.583595 0.5836,0.583595 z m 11.52599,0 h 1.31309 c 0.0729,0 -0.21885,-0.510646 -0.21885,-0.583595 V 5.057453 h -1.67784 v 59.453688 c 0,0.07295 0.51065,0.583595 0.5836,0.583595 z m 11.52599,0 h 1.31309 c 0.073,0 -0.21885,-0.510646 -0.21885,-0.583595 V 5.057453 h -1.67783 v 59.453688 c 0,0.07295 0.51064,0.583595 0.58359,0.583595 z m 12.32843,0 h 1.31309 c 0.0729,0 -0.21885,-0.510646 -0.21885,-0.583595 V 5.057453 h -1.67783 v 59.453688 c 0,0.07295 0.51064,0.583595 0.58359,0.583595 z m 11.526,0 h 1.31308 c 0.073,0 -0.21884,-0.510646 -0.21884,-0.583595 V 5.057453 h -1.67784 v 59.453688 c 0,0.07295 0.51065,0.583595 0.5836,0.583595 z m 11.45304,0 h 1.31309 c 0.0729,0 -0.21886,-0.510646 -0.21886,-0.583595 V 5.057453 h -1.67783 v 59.453688 c 0.073,0.07295 0.51065,0.583595 0.5836,0.583595 z m 11.52598,0 h 1.31309 c 0.0729,0 -0.21884,-0.510646 -0.21884,-0.583595 V 5.057453 h -1.67784 v 59.453688 c 0,0.07295 0.51065,0.583595 0.58359,0.583595 z m 12.32844,0 h 1.31309 c 0.0729,0 -0.21885,-0.510646 -0.21885,-0.583595 V 5.057453 h -1.67783 v 59.453688 c 0,0.07295 0.51064,0.583595 0.58359,0.583595 z m 11.52599,0 h 1.31309 c 0.073,0 -0.21885,-0.510646 -0.21885,-0.583595 V 5.057453 h -1.67783 v 59.453688 c 0,0.07295 0.51064,0.583595 0.58359,0.583595 z m 11.52599,0 h 1.31309 c 0.0729,0 -0.21885,-0.510646 -0.21885,-0.583595 V 5.057453 h -1.67784 v 59.453688 c 0,0.07295 0.51065,0.583595 0.5836,0.583595 z m 11.526,0 h 1.31308 c 0.073,0 -0.21884,-0.510646 -0.21884,-0.583595 V 5.057453 h -1.67784 v 59.453688 c 0,0.07295 0.51064,0.583595 0.5836,0.583595 z m 12.32842,0 h 1.31309 c 0.0729,0 -0.21885,-0.510646 -0.21885,-0.583595 V 5.057453 h -1.67782 v 59.453688 c 0,0.07295 0.51064,0.583595 0.58358,0.583595 z m 11.526,0 h 1.31309 c 0.0729,0 -0.21885,-0.510646 -0.21885,-0.583595 V 5.057453 h -1.67784 v 59.453688 c 0,0.07295 0.43769,0.583595 0.5836,0.583595 z m 11.45304,0 h 1.31309 c 0.0729,0 -0.21885,-0.510646 -0.21885,-0.583595 V 5.057453 h -1.67784 v 59.453688 c 0,0.07295 0.51065,0.583595 0.5836,0.583595 z m 11.52599,0 h 1.31309 c 0.0729,0 -0.21885,-0.510646 -0.21885,-0.583595 V 5.057453 h -1.67783 v 59.453688 c 0,0.07295 0.51064,0.583595 0.58359,0.583595 z m 12.32843,0 h 1.31309 c 0.073,0 -0.21885,-0.510646 -0.21885,-0.583595 V 5.057453 h -1.67783 v 59.453688 c 0,0.07295 0.51064,0.583595 0.58359,0.583595 z m 11.526,0 h 1.31308 c 0.073,0 -0.21884,-0.510646 -0.21884,-0.583595 V 5.057453 h -1.67784 v 59.453688 c 0,0.07295 0.51065,0.583595 0.5836,0.583595 z m 11.52598,0 h 1.31309 c 0.0729,0 -0.21885,-0.510646 -0.21885,-0.583595 V 5.057453 h -1.67782 v 59.453688 c 0,0.07295 0.51064,0.583595 0.58358,0.583595 z m 11.526,0 h 1.31308 c 0.073,0 -0.21884,-0.510646 -0.21884,-0.583595 V 5.057453 h -1.67784 v 59.453688 c 0,0.07295 0.43769,0.583595 0.5836,0.583595 z m 12.32843,0 h 1.31309 c 0.0729,0 -0.21886,-0.510646 -0.21886,-0.583595 V 5.057453 h -1.67782 v 59.453688 c 0,0.07295 0.43769,0.583595 0.58359,0.583595 z m 11.45304,0 h 1.31308 c 0.073,0 -0.21884,-0.510646 -0.21884,-0.583595 V 5.057453 h -1.67783 v 59.453688 c 0,0.07295 0.51064,0.583595 0.58359,0.583595 z m 23.05199,0 h 1.31308 c 0.0729,0 -0.21884,-0.510646 -0.21884,-0.583595 V 5.057453 h -1.67784 v 59.453688 c 0,0.07295 0.51064,0.583595 0.5836,0.583595 z m -11.526,0 h 1.31309 c 0.0729,0 -0.21885,-0.510646 -0.21885,-0.583595 V 5.057453 h -1.67784 v 59.453688 c 0,0.07295 0.51065,0.583595 0.5836,0.583595 z m 23.85442,0 h 1.31309 c 0.0729,0 -0.21885,-0.510646 -0.21885,-0.583595 V 5.057453 h -1.67783 v 59.453688 c 0,0.07295 0.51065,0.583595 0.58359,0.583595 z" />
  <path
     inkscape:connector-curvature="0"
     id="path1061"
     stroke-width=".729493"
     fill-rule="nonzero"
     fill="#fff"
     d="M 69.860609,93.034321 H 63.36812 V 75.745335 h -9.848156 v -5.690047 h 26.188802 v 5.690047 h -9.848157 z m -5.762995,-0.729493 h 5.033502 V 75.015841 h 9.848157 V 70.784782 H 54.249456 v 4.231059 h 9.848158 z m 40.778666,0.218847 H 89.192176 c -3.720415,0 -6.784285,-3.06387 -6.784285,-6.784285 v -8.535069 c 0,-3.720415 3.06387,-6.784286 6.784285,-6.784286 h 15.684104 c 3.72041,0 6.78428,3.063871 6.78428,6.784286 v 8.535069 c 0,3.720415 -3.06387,6.784285 -6.78428,6.784285 z M 89.192176,71.149528 c -3.355668,0 -6.054793,2.699124 -6.054793,6.054793 v 8.535069 c 0,3.355668 2.699125,6.054793 6.054793,6.054793 h 15.684104 c 3.35566,0 6.05479,-2.699125 6.05479,-6.054793 v -8.535069 c 0,-3.355669 -2.69913,-6.054793 -6.05479,-6.054793 z" />
  <path
     inkscape:connector-curvature="0"
     id="path1063"
     stroke-width=".729493"
     fill-rule="nonzero"
     fill="#fff"
     d="M 102.396,88.219666 H 91.599503 c -1.823733,0 -3.20977,-1.458986 -3.20977,-3.209769 v -7.076084 c 0,-1.823732 1.458987,-3.209769 3.20977,-3.209769 H 102.396 c 1.82373,0 3.20977,1.458986 3.20977,3.209769 v 7.076084 c 0.0729,1.823733 -1.38604,3.209769 -3.20977,3.209769 z M 91.599503,75.453537 c -1.386037,0 -2.480276,1.09424 -2.480276,2.480276 v 7.076084 c 0,1.386037 1.094239,2.480276 2.480276,2.480276 H 102.396 c 1.38604,0 2.48028,-1.094239 2.48028,-2.480276 v -7.076084 c 0,-1.386036 -1.09424,-2.480276 -2.48028,-2.480276 z m 41.070457,4.085162 h -8.17032 c -1.60489,0 -2.91797,-1.313087 -2.91797,-2.917973 0,-1.604885 1.31308,-2.917972 2.91797,-2.917972 h 8.17032 c 1.60488,0 2.91797,1.313087 2.91797,2.917972 0,1.604886 -1.31309,2.917973 -2.91797,2.917973 z m -8.17032,-5.106452 c -1.24015,0 -2.18848,0.948341 -2.18848,2.188479 0,1.240138 0.94833,2.18848 2.18848,2.18848 h 8.17032 c 1.24013,0 2.18848,-0.948342 2.18848,-2.18848 0,-1.240138 -0.94835,-2.188479 -2.18848,-2.188479 z" />
  <path
     inkscape:connector-curvature="0"
     id="path1065"
     stroke-width=".729493"
     fill-rule="nonzero"
     fill="#fff"
     d="m 135.51498,91.794183 h -14.00627 c -3.13681,0 -5.61709,-2.553226 -5.61709,-5.617098 0,-2.407326 1.53193,-4.449907 3.64746,-5.252349 -2.11553,-0.802443 -3.64746,-2.845024 -3.64746,-5.25235 0,-3.136821 2.55323,-5.617098 5.61709,-5.617098 h 14.00627 c 3.13682,0 5.6171,2.553226 5.6171,5.617098 0,2.407326 -1.45898,4.449907 -3.64747,5.25235 2.11553,0.802442 3.64747,2.845023 3.64747,5.252349 0,3.063872 -2.48028,5.617098 -5.6171,5.617098 z M 121.58167,80.559989 v 0.729493 c -2.62618,0 -4.88761,2.261429 -4.88761,4.887603 0,2.626175 2.26143,4.887604 4.88761,4.887604 h 14.00626 c 2.62617,0 4.88761,-2.261429 4.88761,-4.887604 0,-2.626174 -2.26144,-4.887603 -4.88761,-4.887603 v -0.729493 c 2.77208,0 4.88761,-2.11553 4.88761,-4.887603 0,-2.626176 -2.26144,-4.887604 -4.88761,-4.887604 h -14.00626 c -2.62618,0 -4.88761,2.261428 -4.88761,4.887604 0,2.626175 2.18848,4.887603 4.88761,4.887603 z" />
  <path
     inkscape:connector-curvature="0"
     id="path1067"
     stroke-width=".729493"
     fill-rule="nonzero"
     fill="#fff"
     d="m 132.66996,88.146717 h -8.17032 c -1.60489,0 -2.91797,-1.313087 -2.91797,-2.917972 0,-1.604885 1.31308,-2.917972 2.91797,-2.917972 h 8.17032 c 1.60488,0 2.91797,1.313087 2.91797,2.917972 0,1.604885 -1.31309,2.917972 -2.91797,2.917972 z m -8.17032,-5.106452 c -1.24015,0 -2.18848,0.948342 -2.18848,2.18848 0,1.240138 0.94833,2.188479 2.18848,2.188479 h 8.17032 c 1.24013,0 2.18848,-0.948341 2.18848,-2.188479 0,-1.240138 -0.94835,-2.18848 -2.18848,-2.18848 z m 92.57267,-13.787419 h 8.31622 c 0,0 0.0729,0 0.0729,0.07295 v 1.750784 c 0,0 0,0.07295 0.073,0.07295 h 3.35567 c 0,0 0.073,0 0.073,-0.07295 v -1.750784 c 0,0 0,-0.07295 0.0729,-0.07295 h 1.75079 c 0,0 0.0729,0 0.0729,0.07295 v 5.690046 c 0,0 0,0.07295 -0.0729,0.07295 H 229.036 c 0,0 -0.0729,0 -0.0729,-0.07295 v -2.188477 c 0,0 0,-0.07295 -0.073,-0.07295 h -3.35567 c 0,0 -0.073,0 -0.073,0.07295 v 2.11553 c 0,0 0,0.07295 -0.0729,0.07295 h -1.75078 c 0,0 -0.073,0 -0.073,-0.07295 v -4.15811 c 0,0 0,-0.07295 -0.0729,-0.07295 h -2.48027 c 0,0 -0.073,0 -0.073,0.07295 v 4.15811 c 0,0 0,0.07295 -0.073,0.07295 h -1.67783 c 0,0 -0.073,0 -0.073,-0.07295 v -4.15811 c 0,0 0,-0.07295 -0.0729,-0.07295 h -1.96963 c 0,0 -0.073,0 -0.073,-0.07295 l 0.073,-1.386037 m 19.47746,5.690046 h -3.64746 c -1.09424,0 -1.89668,-0.802443 -1.89668,-1.896682 v -2.042581 c 0,-1.09424 0.80244,-1.896681 1.89668,-1.896681 h 3.64746 c 1.09425,0 1.89669,0.802441 1.89669,1.896681 v 2.042581 c 0,1.094239 -0.80244,1.896682 -1.89669,1.896682 m 0.21885,-2.407327 v -1.094242 c 0,-0.510645 -0.43769,-1.02129 -1.02129,-1.02129 h -2.04258 c -0.51064,0 -1.02128,0.437696 -1.02128,1.02129 v 1.09424 c 0,0.510645 0.43769,1.02129 1.02128,1.02129 h 2.04266 c 0.51065,-0.07295 1.02129,-0.510645 1.02129,-1.02129 m 23.85442,2.407327 h -3.72041 c -1.09423,0 -1.89668,-0.802443 -1.89668,-1.896682 v -2.11553 c 0,-1.09424 0.80245,-1.896682 1.89668,-1.896682 h 3.72041 c 1.09424,0 1.89669,0.802442 1.89669,1.896682 v 2.11553 c -0.1459,1.094239 -0.94834,1.896682 -1.89669,1.896682 m 0.0729,-2.334378 v -1.167189 c 0,-0.510645 -0.43769,-0.875391 -0.87538,-0.875391 h -2.18848 c -0.51065,0 -0.8754,0.437695 -0.8754,0.875391 v 1.167189 c 0,0.510646 0.4377,0.875392 0.8754,0.875392 h 2.11553 c 0.51064,0 0.94833,-0.437696 0.94833,-0.875392 m -21.81184,2.334378 v -5.690046 c 0,0 0,-0.07295 0.0729,-0.07295 h 2.55322 l 1.82375,3.355668 h 0.073 l 1.82373,-3.355668 h 2.55323 c 0,0 0.0729,0 0.0729,0.07295 v 5.690046 c 0,0 0,0.07295 -0.0729,0.07295 h -1.53193 c 0,0 -0.0729,0 -0.0729,-0.07295 v -3.793364 c 0,-0.07295 -0.073,-0.07295 -0.073,0 l -2.04257,3.866313 h -1.1672 l -2.11553,-3.793364 h -0.073 v 3.793364 c 0,0 0,0.07295 -0.0729,0.07295 l -1.75079,-0.145899 m 23.85443,-0.07295 v -5.690046 c 0,0 0,-0.07295 0.0729,-0.07295 h 2.62618 l 2.84503,3.866313 h 0.0729 v -3.866313 c 0,0 0,-0.07295 0.073,-0.07295 h 1.67784 c 0,0 0.073,0 0.073,0.07295 v 5.690046 c 0,0 0,0.07295 -0.073,0.07295 h -2.55323 l -2.99083,-3.939263 h -0.073 v 3.939263 c 0,0 0,0.07295 -0.0729,0.07295 l -1.67783,-0.07295 m -7.87853,-2.18848 c -0.0729,-0.802442 -0.5836,-1.240138 -1.09424,-1.313087 -0.51064,-0.07295 -1.16718,-0.07295 -1.96963,-0.07295 -0.80244,0 -1.75079,-0.07295 -1.75079,-0.07295 0,0 -0.21884,-0.07295 -0.21884,-0.437695 0,-0.364747 0.43769,-0.364747 0.43769,-0.364747 h 2.04259 c 0,0 0.43769,0 0.51064,0.145899 0.073,0.07295 0.073,0.145898 0.073,0.218848 0,0.145898 0.1459,0.364746 0.36475,0.364746 h 1.09424 c 0.1459,0 0.21884,-0.145899 0.21884,-0.364746 v -0.437696 c 0,-0.510646 -0.21884,-0.729494 -0.21884,-0.729494 0,0 -0.36475,-0.364746 -0.8754,-0.437695 -0.58359,-0.07295 -1.45898,-0.07295 -2.04258,-0.07295 -0.58359,0 -1.53193,0.07295 -1.89668,0.07295 -0.21885,0 -1.02129,0.145898 -1.16718,0.875391 -0.14591,0.802443 -0.0729,1.09424 0,1.458986 0.0729,0.437697 0.43769,0.656544 0.58358,0.729494 0.21886,0.145898 0.7295,0.145898 0.7295,0.145898 l 3.06387,0.145899 c 0.1459,0 0.51065,0.07295 0.43769,0.510645 0,0.364747 -0.43769,0.437696 -0.43769,0.437696 H 250.702 c 0,0 -0.4377,0 -0.51064,-0.145899 -0.0729,-0.07295 -0.0729,-0.07295 -0.0729,-0.145898 0,-0.145899 -0.1459,-0.218848 -0.36475,-0.218848 h -1.09423 c -0.14591,0 -0.21886,0.07295 -0.21886,0.218848 v 0.437695 c 0,0.510645 0.21886,0.729494 0.21886,0.729494 0,0 0.36474,0.364746 0.87538,0.437696 0.5836,0.07295 1.45899,0.07295 2.04259,0.07295 0.58358,0 1.53193,-0.07295 1.89667,-0.07295 0.21886,0 1.0213,-0.145899 1.16719,-1.021291 0.2918,-0.729493 0.2918,-0.729493 0.21885,-1.09424 m 25.38637,-2.772074 -4.08517,-1.458986 -4.08516,1.458986 v 1.677834 l 0.87539,-0.218847 v 1.677834 L 272.0762,72.82736 v 1.750784 l 4.08516,1.531935 4.08517,-1.531935 V 72.82736 l -0.80245,0.218848 v -1.677834 l 0.80245,0.218847 z m -4.37697,5.617097 -3.64746,-1.386037 v -1.240142 l 3.64746,1.458987 z m 1.82373,-1.969631 -1.53193,0.656544 -1.53193,-0.656544 v -2.917972 l 1.53193,-0.583595 1.53193,0.583595 z m 2.18849,-2.334378 -3.72042,-1.313088 v -1.240142 l 3.72042,1.313088 z" />
  <path
     inkscape:connector-curvature="0"
     id="path1069"
     stroke-miterlimit="2"
     fill-rule="nonzero"
     fill="#fff"
     d="m 36.449825,293.28017 h -5.981844 c -0.218848,0 -0.437695,-0.1459 -0.437695,-0.4377 v -2.04258 c 0,-0.21885 0.145898,-0.4377 0.437695,-0.4377 h 5.981844 c 0.218848,0 0.437696,0.14591 0.437696,0.4377 v 2.04258 c 0,0.1459 -0.145899,0.4377 -0.437696,0.4377 z" />
  <g
     id="g1237"
     fill="none">
    <path
       inkscape:connector-curvature="0"
       id="path1071"
       stroke-miterlimit="2"
       stroke="#fff"
       d="m 405.93808,153.0716 c 0.58358,0 1.09424,-0.51065 1.09424,-1.09424 V 4.9845037" />
    <path
       inkscape:connector-curvature="0"
       id="path1073"
       stroke-miterlimit="2"
       stroke="#fff"
       d="m 291.34638,5.057453 -0.23052,146.919907 c 0,0.58359 0.51065,1.09424 1.09424,1.09424 h 113.72798" />
    <path
       inkscape:connector-curvature="0"
       id="path1075"
       stroke-miterlimit="2"
       stroke="#fff"
       d="m 430.21195,213.82743 h -18.8428 c -0.59089,0 -1.11613,-0.52524 -1.11613,-1.11613 v -18.97411 c 0,-0.5909 0.52524,-1.11613 1.11613,-1.11613 h 18.97411 c 0.59089,0 1.11613,0.52523 1.11613,1.11613 v 18.97411 c -0.13131,0.59089 -0.59089,1.11613 -1.24744,1.11613" />
    <path
       inkscape:connector-curvature="0"
       id="path1077"
       stroke-miterlimit="2"
       stroke="#fff"
       d="m 405.3946,213.82743 h -18.97411 c -0.59089,0 -1.11613,-0.52524 -1.11613,-1.11613 v -18.97411 c 0,-0.5909 0.52524,-1.11613 1.11613,-1.11613 h 18.97411 c 0.59089,0 1.11613,0.52523 1.11613,1.11613 v 18.97411 c 0,0.59089 -0.52524,1.11613 -1.11613,1.11613" />
    <path
       inkscape:connector-curvature="0"
       id="path1079"
       stroke-miterlimit="2"
       stroke="#fff"
       d="m 380.00824,213.82743 h -18.97411 c -0.5909,0 -1.11613,-0.52524 -1.11613,-1.11613 v -18.97411 c 0,-0.5909 0.52523,-1.11613 1.11613,-1.11613 h 18.97411 c 0.59089,0 1.11613,0.52523 1.11613,1.11613 v 18.97411 c 0,0.59089 -0.45959,1.11613 -1.11613,1.11613" />
    <path
       inkscape:connector-curvature="0"
       id="path1081"
       stroke-miterlimit="2"
       stroke="#fff"
       d="m 354.69482,213.82743 h -18.9741 c -0.5909,0 -1.11613,-0.52524 -1.11613,-1.11613 v -18.97411 c 0,-0.5909 0.52523,-1.11613 1.11613,-1.11613 h 18.9741 c 0.5909,0 1.11614,0.52523 1.11614,1.11613 v 18.97411 c -0.0656,0.59089 -0.52524,1.11613 -1.11614,1.11613" />
    <path
       inkscape:connector-curvature="0"
       id="path1083"
       stroke-miterlimit="2"
       stroke="#fff"
       d="m 361.26027,290.05946 h -18.97412 c -0.59089,0 -1.11612,-0.52524 -1.11612,-1.11614 v -18.9741 c 0,-0.5909 0.52523,-1.11613 1.11612,-1.11613 h 18.97412 c 0.59089,0 1.11612,0.52523 1.11612,1.11613 v 18.9741 c 0,0.5909 -0.52523,1.11614 -1.11612,1.11614" />
    <path
       inkscape:connector-curvature="0"
       id="path1085"
       stroke-miterlimit="2"
       stroke="#fff"
       d="m 335.94685,290.05946 h -18.97411 c -0.59089,0 -1.11612,-0.52524 -1.11612,-1.11614 v -18.9741 c 0,-0.5909 0.52523,-1.11613 1.11612,-1.11613 h 18.97411 c 0.5909,0 1.11613,0.52523 1.11613,1.11613 v 18.9741 c 0,0.5909 -0.52523,1.11614 -1.11613,1.11614" />
    <path
       inkscape:connector-curvature="0"
       id="path1087"
       stroke-miterlimit="2"
       stroke="#fff"
       d="m 310.48755,290.05946 h -18.97412 c -0.59089,0 -1.11612,-0.52524 -1.11612,-1.11614 v -18.9741 c 0,-0.5909 0.52523,-1.11613 1.11612,-1.11613 h 18.97412 c 0.59089,0 1.11612,0.52523 1.11612,1.11613 v 18.9741 c 0,0.5909 -0.45958,1.11614 -1.11612,1.11614" />
    <path
       inkscape:connector-curvature="0"
       id="path1089"
       stroke-miterlimit="2"
       stroke="#fff"
       d="m 285.17413,290.05946 h -18.97411 c -0.59089,0 -1.11612,-0.52524 -1.11612,-1.11614 v -18.9741 c 0,-0.5909 0.52523,-1.11613 1.11612,-1.11613 h 18.97411 c 0.5909,0 1.11613,0.52523 1.11613,1.11613 v 18.9741 c 0,0.5909 -0.52523,1.11614 -1.11613,1.11614" />
    <path
       inkscape:connector-curvature="0"
       id="path1091"
       stroke-miterlimit="2"
       stroke="#fff"
       d="m 259.86072,290.05946 h -18.9741 c -0.5909,0 -1.11614,-0.52524 -1.11614,-1.11614 v -18.9741 c 0,-0.5909 0.52524,-1.11613 1.11614,-1.11613 h 18.9741 c 0.5909,0 1.11614,0.52523 1.11614,1.11613 v 18.9741 c 0,0.5909 -0.52524,1.11614 -1.11614,1.11614" />
    <path
       inkscape:connector-curvature="0"
       id="path1093"
       stroke-miterlimit="2"
       stroke="#fff"
       d="m 234.47437,290.05946 h -18.97412 c -0.59089,0 -1.11612,-0.52524 -1.11612,-1.11614 v -18.9741 c 0,-0.5909 0.52523,-1.11613 1.11612,-1.11613 h 18.97412 c 0.59088,0 1.11612,0.52523 1.11612,1.11613 v 18.9741 c 0,0.5909 -0.45958,1.11614 -1.11612,1.11614" />
    <path
       inkscape:connector-curvature="0"
       id="path1095"
       stroke-miterlimit="2"
       stroke="#fff"
       d="m 209.16095,290.05946 h -18.9741 c -0.5909,0 -1.11614,-0.52524 -1.11614,-1.11614 v -18.9741 c 0,-0.5909 0.52524,-1.11613 1.11614,-1.11613 h 18.9741 c 0.5909,0 1.11614,0.52523 1.11614,1.11613 v 18.9741 c 0,0.5909 -0.52524,1.11614 -1.11614,1.11614" />
    <path
       inkscape:connector-curvature="0"
       id="path1097"
       stroke-miterlimit="2"
       stroke="#fff"
       d="m 183.84754,290.05946 h -18.9741 c -0.5909,0 -1.11614,-0.52524 -1.11614,-1.11614 v -18.9741 c 0,-0.5909 0.52524,-1.11613 1.11614,-1.11613 h 18.9741 c 0.5909,0 1.11613,0.52523 1.11613,1.11613 v 18.9741 c -0.0656,0.5909 -0.52523,1.11614 -1.11613,1.11614" />
    <path
       inkscape:connector-curvature="0"
       id="path1099"
       stroke-miterlimit="2"
       stroke="#fff"
       d="m 158.38823,290.05946 h -18.9741 c -0.5909,0 -1.11614,-0.52524 -1.11614,-1.11614 v -18.9741 c 0,-0.5909 0.52524,-1.11613 1.11614,-1.11613 h 18.9741 c 0.5909,0 1.11614,0.52523 1.11614,1.11613 v 18.9741 c 0,0.5909 -0.45959,1.11614 -1.11614,1.11614" />
    <path
       inkscape:connector-curvature="0"
       id="path1101"
       stroke-miterlimit="2"
       stroke="#fff"
       d="m 133.07483,290.05946 h -18.97411 c -0.59089,0 -1.11613,-0.52524 -1.11613,-1.11614 v -18.9741 c 0,-0.5909 0.52524,-1.11613 1.11613,-1.11613 h 18.97411 c 0.59089,0 1.11612,0.52523 1.11612,1.11613 v 18.9741 c 0,0.5909 -0.52523,1.11614 -1.11612,1.11614" />
    <path
       inkscape:connector-curvature="0"
       id="path1103"
       stroke-miterlimit="2"
       stroke="#fff"
       d="m 348.56709,264.16245 h -18.97411 c -0.5909,0 -1.11613,-0.52524 -1.11613,-1.11613 v -18.97411 c 0,-0.59089 0.52523,-1.11613 1.11613,-1.11613 h 18.97411 c 0.59089,0 1.11612,0.52524 1.11612,1.11613 v 18.97411 c 0,0.59089 -0.52523,1.11613 -1.11612,1.11613" />
    <path
       inkscape:connector-curvature="0"
       id="path1105"
       stroke-miterlimit="2"
       stroke="#fff"
       d="m 323.18072,264.16245 h -18.97411 c -0.59089,0 -1.11612,-0.52524 -1.11612,-1.11613 v -18.97411 c 0,-0.59089 0.52523,-1.11613 1.11612,-1.11613 h 18.97411 c 0.5909,0 1.11613,0.52524 1.11613,1.11613 v 18.97411 c 0,0.59089 -0.45958,1.11613 -1.11613,1.11613" />
    <path
       inkscape:connector-curvature="0"
       id="path1107"
       stroke-miterlimit="2"
       stroke="#fff"
       d="m 297.86731,264.16245 h -18.9741 c -0.5909,0 -1.11614,-0.52524 -1.11614,-1.11613 v -18.97411 c 0,-0.59089 0.52524,-1.11613 1.11614,-1.11613 h 18.9741 c 0.5909,0 1.11614,0.52524 1.11614,1.11613 v 18.97411 c 0,0.59089 -0.52524,1.11613 -1.11614,1.11613" />
    <path
       inkscape:connector-curvature="0"
       id="path1109"
       stroke-miterlimit="2"
       stroke="#fff"
       d="m 272.55391,264.16245 h -18.97412 c -0.59089,0 -1.11612,-0.52524 -1.11612,-1.11613 v -18.97411 c 0,-0.59089 0.52523,-1.11613 1.11612,-1.11613 h 18.97412 c 0.59089,0 1.11612,0.52524 1.11612,1.11613 v 18.97411 c 0,0.59089 -0.52523,1.11613 -1.11612,1.11613" />
    <path
       inkscape:connector-curvature="0"
       id="path1111"
       stroke-miterlimit="2"
       stroke="#fff"
       d="m 247.09459,264.16245 h -18.9741 c -0.5909,0 -1.11614,-0.52524 -1.11614,-1.11613 v -18.97411 c 0,-0.59089 0.52524,-1.11613 1.11614,-1.11613 h 18.9741 c 0.5909,0 1.11614,0.52524 1.11614,1.11613 v 18.97411 c 0,0.59089 -0.39394,1.11613 -1.11614,1.11613" />
    <path
       inkscape:connector-curvature="0"
       id="path1113"
       stroke-miterlimit="2"
       stroke="#fff"
       d="m 221.78119,264.16245 h -18.97412 c -0.59088,0 -1.11612,-0.52524 -1.11612,-1.11613 v -18.97411 c 0,-0.59089 0.52524,-1.11613 1.11612,-1.11613 h 18.97412 c 0.59089,0 1.11612,0.52524 1.11612,1.11613 v 18.97411 c 0,0.59089 -0.52523,1.11613 -1.11612,1.11613" />
    <path
       inkscape:connector-curvature="0"
       id="path1115"
       stroke-miterlimit="2"
       stroke="#fff"
       d="m 196.46778,264.16245 h -18.97412 c -0.59089,0 -1.11612,-0.52524 -1.11612,-1.11613 v -18.97411 c 0,-0.59089 0.52523,-1.11613 1.11612,-1.11613 h 18.97412 c 0.59088,0 1.11612,0.52524 1.11612,1.11613 v 18.97411 c 0,0.59089 -0.52524,1.11613 -1.11612,1.11613" />
    <path
       inkscape:connector-curvature="0"
       id="path1117"
       stroke-miterlimit="2"
       stroke="#fff"
       d="m 171.08141,264.16245 h -18.9741 c -0.5909,0 -1.11614,-0.52524 -1.11614,-1.11613 v -18.97411 c 0,-0.59089 0.52524,-1.11613 1.11614,-1.11613 h 18.9741 c 0.5909,0 1.11614,0.52524 1.11614,1.11613 v 18.97411 c 0,0.59089 -0.45959,1.11613 -1.11614,1.11613" />
    <path
       inkscape:connector-curvature="0"
       id="path1119"
       stroke-miterlimit="2"
       stroke="#fff"
       d="m 145.76801,264.16245 h -18.97412 c -0.59089,0 -1.11612,-0.52524 -1.11612,-1.11613 v -18.97411 c 0,-0.59089 0.52523,-1.11613 1.11612,-1.11613 h 18.97412 c 0.59089,0 1.11612,0.52524 1.11612,1.11613 v 18.97411 c 0,0.59089 -0.52523,1.11613 -1.11612,1.11613" />
    <path
       inkscape:connector-curvature="0"
       id="path1121"
       stroke-miterlimit="2"
       stroke="#fff"
       d="M 70.49162,289.54881 H 51.583159 c -0.590889,0 -1.116124,-0.52523 -1.116124,-1.11613 v -18.97411 c 0,-0.59089 0.525235,-1.11613 1.116124,-1.11613 h 18.974116 c 0.590889,0 1.116124,0.52524 1.116124,1.11613 v 18.97411 c -0.06566,0.5909 -0.590889,1.11613 -1.181779,1.11613" />
    <path
       inkscape:connector-curvature="0"
       id="path1123"
       stroke-miterlimit="2"
       stroke="#fff"
       d="M 70.49162,264.16245 H 51.583159 c -0.590889,0 -1.116124,-0.52524 -1.116124,-1.11613 v -18.97411 c 0,-0.59089 0.525235,-1.11613 1.116124,-1.11613 h 18.974116 c 0.590889,0 1.116124,0.52524 1.116124,1.11613 v 18.97411 c -0.06566,0.59089 -0.590889,1.11613 -1.181779,1.11613" />
    <path
       inkscape:connector-curvature="0"
       id="path1125"
       stroke-miterlimit="2"
       stroke="#fff"
       d="M 95.214141,264.16245 H 76.240026 c -0.590889,0 -1.116125,-0.52524 -1.116125,-1.11613 v -18.97411 c 0,-0.59089 0.525236,-1.11613 1.116125,-1.11613 h 18.974115 c 0.59089,0 1.116125,0.52524 1.116125,1.11613 v 18.97411 c 0,0.59089 -0.45958,1.11613 -1.116125,1.11613" />
    <path
       inkscape:connector-curvature="0"
       id="path1127"
       stroke-miterlimit="2"
       stroke="#fff"
       d="m 120.45459,264.16245 h -18.9741 c -0.59089,0 -1.11613,-0.52524 -1.11613,-1.11613 v -18.97411 c 0,-0.59089 0.52524,-1.11613 1.11613,-1.11613 h 18.9741 c 0.5909,0 1.11613,0.52524 1.11613,1.11613 v 18.97411 c 0,0.59089 -0.52523,1.11613 -1.11613,1.11613" />
    <path
       inkscape:connector-curvature="0"
       id="path1129"
       stroke-miterlimit="2"
       stroke="#fff"
       d="m 373.4428,264.16245 h -18.97411 c -0.59089,0 -1.11613,-0.52524 -1.11613,-1.11613 v -18.97411 c 0,-0.59089 0.52524,-1.11613 1.11613,-1.11613 h 18.97411 c 0.59089,0 1.11613,0.52524 1.11613,1.11613 v 18.97411 c -0.0657,0.59089 -0.52524,1.11613 -1.11613,1.11613" />
    <path
       inkscape:connector-curvature="0"
       id="path1131"
       stroke-miterlimit="2"
       stroke="#fff"
       d="m 367.8257,238.99494 h -18.97411 c -0.59089,0 -1.11613,-0.52524 -1.11613,-1.11613 V 218.9047 c 0,-0.5909 0.52524,-1.11612 1.11613,-1.11612 h 18.97411 c 0.5909,0 1.11613,0.52522 1.11613,1.11612 v 18.97411 c 0,0.59089 -0.45959,1.11613 -1.11613,1.11613" />
    <path
       inkscape:connector-curvature="0"
       id="path1133"
       stroke-miterlimit="2"
       stroke="#fff"
       d="m 342.80409,238.99494 h -18.97411 c -0.5909,0 -1.11613,-0.52524 -1.11613,-1.11613 V 218.9047 c 0,-0.5909 0.52523,-1.11612 1.11613,-1.11612 h 18.97411 c 0.5909,0 1.11613,0.52522 1.11613,1.11612 v 18.97411 c 0,0.59089 -0.52523,1.11613 -1.11613,1.11613" />
    <path
       inkscape:connector-curvature="0"
       id="path1135"
       stroke-miterlimit="2"
       stroke="#fff"
       d="m 317.41773,238.99494 h -18.97411 c -0.59089,0 -1.11613,-0.52524 -1.11613,-1.11613 V 218.9047 c 0,-0.5909 0.52524,-1.11612 1.11613,-1.11612 h 18.97411 c 0.59089,0 1.11613,0.52522 1.11613,1.11612 v 18.97411 c 0,0.59089 -0.45959,1.11613 -1.11613,1.11613" />
    <path
       inkscape:connector-curvature="0"
       id="path1137"
       stroke-miterlimit="2"
       stroke="#fff"
       d="m 292.10432,238.99494 h -18.97411 c -0.59089,0 -1.11613,-0.52524 -1.11613,-1.11613 V 218.9047 c 0,-0.5909 0.52524,-1.11612 1.11613,-1.11612 h 18.97411 c 0.5909,0 1.11612,0.52522 1.11612,1.11612 v 18.97411 c 0,0.59089 -0.52522,1.11613 -1.11612,1.11613" />
    <path
       inkscape:connector-curvature="0"
       id="path1139"
       stroke-miterlimit="2"
       stroke="#fff"
       d="M 266.79091,238.99494 H 247.8168 c -0.5909,0 -1.11613,-0.52524 -1.11613,-1.11613 V 218.9047 c 0,-0.5909 0.52523,-1.11612 1.11613,-1.11612 h 18.97411 c 0.59089,0 1.11613,0.52522 1.11613,1.11612 v 18.97411 c 0,0.59089 -0.52524,1.11613 -1.11613,1.11613" />
    <path
       inkscape:connector-curvature="0"
       id="path1141"
       stroke-miterlimit="2"
       stroke="#fff"
       d="m 241.3316,238.99494 h -18.97411 c -0.59089,0 -1.11613,-0.52524 -1.11613,-1.11613 V 218.9047 c 0,-0.5909 0.52524,-1.11612 1.11613,-1.11612 h 18.97411 c 0.5909,0 1.11612,0.52522 1.11612,1.11612 v 18.97411 c 0,0.59089 -0.39392,1.11613 -1.11612,1.11613" />
    <path
       inkscape:connector-curvature="0"
       id="path1143"
       stroke-miterlimit="2"
       stroke="#fff"
       d="m 216.01819,238.99494 h -18.97411 c -0.5909,0 -1.11613,-0.52524 -1.11613,-1.11613 V 218.9047 c 0,-0.5909 0.52523,-1.11612 1.11613,-1.11612 h 18.97411 c 0.59089,0 1.11613,0.52522 1.11613,1.11612 v 18.97411 c 0,0.59089 -0.52524,1.11613 -1.11613,1.11613" />
    <path
       inkscape:connector-curvature="0"
       id="path1145"
       stroke-miterlimit="2"
       stroke="#fff"
       d="m 190.70478,238.99494 h -18.97411 c -0.5909,0 -1.11613,-0.52524 -1.11613,-1.11613 V 218.9047 c 0,-0.5909 0.52523,-1.11612 1.11613,-1.11612 h 18.97411 c 0.59089,0 1.11613,0.52522 1.11613,1.11612 v 18.97411 c 0,0.59089 -0.52524,1.11613 -1.11613,1.11613" />
    <path
       inkscape:connector-curvature="0"
       id="path1147"
       stroke-miterlimit="2"
       stroke="#fff"
       d="m 165.31842,238.99494 h -18.97411 c -0.59089,0 -1.11613,-0.52524 -1.11613,-1.11613 V 218.9047 c 0,-0.5909 0.52524,-1.11612 1.11613,-1.11612 h 18.97411 c 0.5909,0 1.11613,0.52522 1.11613,1.11612 v 18.97411 c 0,0.59089 -0.45959,1.11613 -1.11613,1.11613" />
    <path
       inkscape:connector-curvature="0"
       id="path1149"
       stroke-miterlimit="2"
       stroke="#fff"
       d="m 140.005,238.99494 h -18.9741 c -0.5909,0 -1.11613,-0.52524 -1.11613,-1.11613 V 218.9047 c 0,-0.5909 0.52523,-1.11612 1.11613,-1.11612 h 18.9741 c 0.5909,0 1.11614,0.52522 1.11614,1.11612 v 18.97411 c 0,0.59089 -0.52524,1.11613 -1.11614,1.11613" />
    <path
       inkscape:connector-curvature="0"
       id="path1151"
       stroke-miterlimit="2"
       stroke="#fff"
       d="M 114.6916,238.99494 H 95.717491 c -0.590889,0 -1.116124,-0.52524 -1.116124,-1.11613 V 218.9047 c 0,-0.5909 0.525235,-1.11612 1.116124,-1.11612 H 114.6916 c 0.59089,0 1.11613,0.52522 1.11613,1.11612 v 18.97411 c 0,0.59089 -0.52524,1.11613 -1.11613,1.11613" />
    <path
       inkscape:connector-curvature="0"
       id="path1153"
       stroke-miterlimit="2"
       stroke="#fff"
       d="m 329.30847,213.82743 h -18.97412 c -0.59089,0 -1.11612,-0.52524 -1.11612,-1.11613 v -18.97411 c 0,-0.5909 0.52523,-1.11613 1.11612,-1.11613 h 18.97412 c 0.5909,0 1.11612,0.52523 1.11612,1.11613 v 18.97411 c 0,0.59089 -0.52522,1.11613 -1.11612,1.11613" />
    <path
       inkscape:connector-curvature="0"
       id="path1155"
       stroke-miterlimit="2"
       stroke="#fff"
       d="M 303.92211,213.82743 H 284.948 c -0.5909,0 -1.11613,-0.52524 -1.11613,-1.11613 v -18.97411 c 0,-0.5909 0.52523,-1.11613 1.11613,-1.11613 h 18.97411 c 0.59089,0 1.11613,0.52523 1.11613,1.11613 v 18.97411 c 0,0.59089 -0.45959,1.11613 -1.11613,1.11613" />
    <path
       inkscape:connector-curvature="0"
       id="path1157"
       stroke-miterlimit="2"
       stroke="#fff"
       d="m 278.6087,213.82743 h -18.97411 c -0.59089,0 -1.11613,-0.52524 -1.11613,-1.11613 v -18.97411 c 0,-0.5909 0.52524,-1.11613 1.11613,-1.11613 h 18.97411 c 0.59089,0 1.11612,0.52523 1.11612,1.11613 v 18.97411 c 0,0.59089 -0.52523,1.11613 -1.11612,1.11613" />
    <path
       inkscape:connector-curvature="0"
       id="path1159"
       stroke-miterlimit="2"
       stroke="#fff"
       d="m 253.29529,213.82743 h -18.97412 c -0.59089,0 -1.11612,-0.52524 -1.11612,-1.11613 v -18.97411 c 0,-0.5909 0.52523,-1.11613 1.11612,-1.11613 h 18.97412 c 0.59089,0 1.11612,0.52523 1.11612,1.11613 v 18.97411 c 0,0.59089 -0.52523,1.11613 -1.11612,1.11613" />
    <path
       inkscape:connector-curvature="0"
       id="path1161"
       stroke-miterlimit="2"
       stroke="#fff"
       d="m 227.90893,213.82743 h -18.97411 c -0.5909,0 -1.11613,-0.52524 -1.11613,-1.11613 v -18.97411 c 0,-0.5909 0.52523,-1.11613 1.11613,-1.11613 h 18.97411 c 0.59089,0 1.11613,0.52523 1.11613,1.11613 v 18.97411 c 0,0.59089 -0.45959,1.11613 -1.11613,1.11613" />
    <path
       inkscape:connector-curvature="0"
       id="path1163"
       stroke-miterlimit="2"
       stroke="#fff"
       d="M 202.59552,213.82743 H 183.6214 c -0.59088,0 -1.11612,-0.52524 -1.11612,-1.11613 v -18.97411 c 0,-0.5909 0.52524,-1.11613 1.11612,-1.11613 h 18.97412 c 0.59089,0 1.11612,0.52523 1.11612,1.11613 v 18.97411 c -0.0656,0.59089 -0.52523,1.11613 -1.11612,1.11613" />
    <path
       inkscape:connector-curvature="0"
       id="path1165"
       stroke-miterlimit="2"
       stroke="#fff"
       d="m 177.20915,213.82743 h -18.9741 c -0.5909,0 -1.11614,-0.52524 -1.11614,-1.11613 v -18.97411 c 0,-0.5909 0.52524,-1.11613 1.11614,-1.11613 h 18.9741 c 0.5909,0 1.11614,0.52523 1.11614,1.11613 v 18.97411 c 0,0.59089 -0.52524,1.11613 -1.11614,1.11613" />
    <path
       inkscape:connector-curvature="0"
       id="path1167"
       stroke-miterlimit="2"
       stroke="#fff"
       d="m 151.8228,213.82743 h -18.97412 c -0.59088,0 -1.11612,-0.52524 -1.11612,-1.11613 v -18.97411 c 0,-0.5909 0.52524,-1.11613 1.11612,-1.11613 h 18.97412 c 0.59089,0 1.11612,0.52523 1.11612,1.11613 v 18.97411 c 0,0.59089 -0.45958,1.11613 -1.11612,1.11613" />
    <path
       inkscape:connector-curvature="0"
       id="path1169"
       stroke-miterlimit="2"
       stroke="#fff"
       d="m 126.50938,213.82743 h -18.9741 c -0.59089,0 -1.11613,-0.52524 -1.11613,-1.11613 v -18.97411 c 0,-0.5909 0.52524,-1.11613 1.11613,-1.11613 h 18.9741 c 0.5909,0 1.11614,0.52523 1.11614,1.11613 v 18.97411 c 0,0.59089 -0.52524,1.11613 -1.11614,1.11613" />
    <path
       inkscape:connector-curvature="0"
       id="path1171"
       stroke-miterlimit="2"
       stroke="#fff"
       d="M 101.19598,213.82743 H 82.221869 c -0.590889,0 -1.116124,-0.52524 -1.116124,-1.11613 v -18.97411 c 0,-0.5909 0.525235,-1.11613 1.116124,-1.11613 h 18.974111 c 0.5909,0 1.11613,0.52523 1.11613,1.11613 v 18.97411 c 0,0.59089 -0.52523,1.11613 -1.11613,1.11613" />
    <path
       inkscape:connector-curvature="0"
       id="path1173"
       stroke-miterlimit="2"
       stroke="#fff"
       d="M 399.35805,289.49045 H 368.8944 c -0.59087,0 -1.11611,-0.52524 -1.11611,-1.11612 v -18.7115 c 0,-0.5909 0.52524,-1.11612 1.11611,-1.11612 h 30.46365 c 0.59089,0 1.11611,0.52522 1.11611,1.11612 v 18.7115 c -0.0656,0.59088 -0.52522,1.11612 -1.11611,1.11612" />
    <path
       inkscape:connector-curvature="0"
       id="path1175"
       stroke-miterlimit="2"
       stroke="#fff"
       d="M 405.70464,238.93293 H 375.241 c -0.59088,0 -1.11612,-0.52524 -1.11612,-1.11613 v -18.77715 c 0,-0.59088 0.52524,-1.11612 1.11612,-1.11612 h 30.46364 c 0.59089,0 1.11611,0.52524 1.11611,1.11612 v 18.7115 c 0,0.65654 -0.52522,1.18178 -1.11611,1.18178" />
    <path
       inkscape:connector-curvature="0"
       id="path1177"
       stroke-miterlimit="2"
       stroke="#fff"
       d="M 107.62676,289.92814 H 77.097474 c -0.590888,0 -1.116124,-0.52522 -1.116124,-1.11612 v -18.7115 c 0,-0.59089 0.525236,-1.11612 1.116124,-1.11612 H 107.5611 c 0.5909,0 1.11613,0.52523 1.11613,1.11612 v 18.7115 c 0.0657,0.65654 -0.45958,1.11612 -1.05047,1.11612" />
    <path
       inkscape:connector-curvature="0"
       id="path1179"
       stroke-miterlimit="2"
       stroke="#fff"
       d="m 479.83937,213.25842 h -41.95315 c -0.59088,0 -1.11612,-0.52523 -1.11612,-1.11612 v -18.7115 c 0,-0.5909 0.52524,-1.11613 1.11612,-1.11613 h 41.95315 c 0.59089,0 1.11613,0.52523 1.11613,1.11613 v 18.7115 c 0,0.65654 -0.52524,1.11612 -1.11613,1.11612" />
    <path
       inkscape:connector-curvature="0"
       id="path1181"
       stroke-miterlimit="2"
       stroke="#fff"
       d="M 324.97528,314.90234 H 149.21851 c -1.37874,0 -2.49487,-1.11612 -2.49487,-2.49486 v -15.49444 c 0,-1.37874 1.11613,-2.49486 2.49487,-2.49486 h 175.75677 c 1.37874,0 2.49487,1.11612 2.49487,2.49486 v 15.49444 c 0,1.37874 -1.05046,2.49486 -2.49487,2.49486 z" />
    <path
       inkscape:connector-curvature="0"
       id="path1183"
       stroke-miterlimit="2"
       stroke="#fff"
       d="M 88.692801,239.12989 H 52.188965 c -0.590888,0 -1.116124,-0.52523 -1.116124,-1.11612 v -19.17108 c 0,-0.59089 0.525236,-1.11613 1.116124,-1.11613 h 36.438181 c 0.590889,0 1.116125,0.52524 1.116125,1.11613 v 19.17108 c 0.06566,0.59089 -0.459582,1.11612 -1.05047,1.11612 z" />
    <path
       inkscape:connector-curvature="0"
       id="path1185"
       stroke-miterlimit="2"
       stroke="#fff"
       d="m 430.88342,289.49045 h -24.94866 c -0.5909,0 -1.11613,-0.52524 -1.11613,-1.11612 v -18.7115 c 0,-0.5909 0.52523,-1.11612 1.11613,-1.11612 h 24.88301 c 0.59087,0 1.11611,0.52522 1.11611,1.11612 v 18.7115 c 0.0656,0.59088 -0.45957,1.11612 -1.05046,1.11612 z" />
    <path
       inkscape:connector-curvature="0"
       id="path1187"
       stroke-miterlimit="2"
       stroke="#fff"
       d="M 76.495676,213.76907 H 51.547011 c -0.590888,0 -1.116124,-0.52524 -1.116124,-1.11613 v -18.71149 c 0,-0.5909 0.525236,-1.11613 1.116124,-1.11613 h 24.88301 c 0.59089,0 1.116125,0.52523 1.116125,1.11613 v 18.71149 c 0.06566,0.59089 -0.459581,1.11613 -1.05047,1.11613 z" />
    <path
       inkscape:connector-curvature="0"
       id="path1189"
       stroke-miterlimit="2"
       stroke="#fff"
       d="M 431.15301,262.88584 H 412.3102 c -0.59089,0 -1.11613,-0.52524 -1.11613,-1.11613 v -41.95315 c 0,-0.59089 0.52524,-1.11612 1.11613,-1.11612 h 18.84281 c 0.59087,0 1.11611,0.52523 1.11611,1.11612 v 41.95315 c 0,0.59089 -0.52524,1.11613 -1.11611,1.11613 z" />
    <path
       inkscape:connector-curvature="0"
       id="path1191"
       stroke-miterlimit="2"
       stroke="#fff"
       d="m 405.50402,264.17704 h -24.88301 c -0.59088,0 -1.11612,-0.52524 -1.11612,-1.11613 v -18.71149 c 0,-0.59089 0.52524,-1.11613 1.11612,-1.11613 h 24.88301 c 0.5909,0 1.11613,0.52524 1.11613,1.11613 v 18.71149 c -0.0656,0.59089 -0.52523,1.11613 -1.11613,1.11613 z" />
    <path
       inkscape:connector-curvature="0"
       id="path1193"
       stroke-width=".693018"
       stroke="#fff"
       d="M 234.38865,169.65844 H 202.1633 c -0.41582,0 -0.62373,-0.3465 -0.62373,-0.62371 v -8.80134 c 0,-0.41581 0.34652,-0.62372 0.62373,-0.62372 h 32.22535 c 0.41581,0 0.62373,0.34651 0.62373,0.62372 v 8.80134 c 0,0.3465 -0.27721,0.62371 -0.62373,0.62371" />
    <path
       inkscape:connector-curvature="0"
       id="path1195"
       stroke-width=".693018"
       stroke="#fff"
       d="m 196.6009,169.65844 h -32.22534 c -0.41581,0 -0.62373,-0.3465 -0.62373,-0.62371 v -8.80134 c 0,-0.41581 0.34652,-0.62372 0.62373,-0.62372 h 32.22534 c 0.41583,0 0.62373,0.34651 0.62373,0.62372 v 8.80134 c 0,0.3465 -0.27721,0.62371 -0.62373,0.62371" />
    <path
       inkscape:connector-curvature="0"
       id="path1197"
       stroke-width=".693018"
       stroke="#fff"
       d="m 158.81316,169.65844 h -32.22535 c -0.41581,0 -0.62372,-0.3465 -0.62372,-0.62371 v -8.80134 c 0,-0.41581 0.34651,-0.62372 0.62372,-0.62372 h 32.22535 c 0.41582,0 0.62373,0.34651 0.62373,0.62372 v 8.80134 c 0,0.3465 -0.34652,0.62371 -0.62373,0.62371" />
    <path
       inkscape:connector-curvature="0"
       id="path1199"
       stroke-width=".693018"
       stroke="#fff"
       d="M 120.95247,169.65844 H 88.727124 c -0.415812,0 -0.623717,-0.3465 -0.623717,-0.62371 v -8.80134 c 0,-0.41581 0.346509,-0.62372 0.623717,-0.62372 h 32.225346 c 0.41581,0 0.62372,0.34651 0.62372,0.62372 v 8.80134 c 0,0.3465 -0.2772,0.62371 -0.62372,0.62371" />
    <path
       inkscape:connector-curvature="0"
       id="path1201"
       stroke-width=".693018"
       stroke="#fff"
       d="m 83.158203,169.65844 -32.918376,-0.62371 c -0.415811,0 0,0.27721 0,0 v -8.80134 c 0,-0.41581 0.346509,-0.62372 0.623716,-0.62372 h 32.29466 c 0.415811,0 0.623716,0.34651 0.623716,0.62372 v 8.80134 c 0,0.3465 -0.346509,0.62371 -0.623716,0.62371" />
    <path
       inkscape:connector-curvature="0"
       id="path1203"
       stroke-miterlimit="2"
       stroke="#fff"
       d="m 505.92604,213.38973 h -18.90846 c -0.59089,0 -1.11612,-0.52523 -1.11612,-1.11613 v -18.97411 c 0,-0.59089 0.52523,-1.11613 1.11612,-1.11613 h 18.97411 c 0.5909,0 1.11613,0.52524 1.11613,1.11613 v 18.97411 c -0.0656,0.5909 -0.65654,1.11613 -1.18178,1.11613" />
    <path
       inkscape:connector-curvature="0"
       id="path1205"
       stroke-miterlimit="2"
       stroke="#fff"
       d="m 505.92604,238.77609 h -18.90846 c -0.59089,0 -1.11612,-0.52523 -1.11612,-1.11613 v -18.97411 c 0,-0.59089 0.52523,-1.11613 1.11612,-1.11613 h 18.97411 c 0.5909,0 1.11613,0.52524 1.11613,1.11613 v 18.97411 c -0.0656,0.65655 -0.65654,1.11613 -1.18178,1.11613" />
    <path
       inkscape:connector-curvature="0"
       id="path1207"
       stroke-miterlimit="2"
       stroke="#fff"
       d="m 480.89714,238.77609 h -18.97412 c -0.5909,0 -1.11612,-0.52523 -1.11612,-1.11613 v -18.97411 c 0,-0.59089 0.52522,-1.11613 1.11612,-1.11613 h 18.97412 c 0.59089,0 1.11612,0.52524 1.11612,1.11613 v 18.97411 c -0.0656,0.65655 -0.52523,1.11613 -1.11612,1.11613" />
    <path
       inkscape:connector-curvature="0"
       id="path1209"
       stroke-miterlimit="2"
       stroke="#fff"
       d="m 455.94846,238.77609 h -18.9741 c -0.5909,0 -1.11613,-0.52523 -1.11613,-1.11613 v -18.97411 c 0,-0.59089 0.52523,-1.11613 1.11613,-1.11613 h 18.9741 c 0.5909,0 1.11614,0.52524 1.11614,1.11613 v 18.97411 c 0,0.65655 -0.52524,1.11613 -1.11614,1.11613" />
    <path
       inkscape:connector-curvature="0"
       id="path1211"
       stroke-miterlimit="2"
       stroke="#fff"
       d="m 480.89714,289.54881 h -18.97412 c -0.5909,0 -1.11612,-0.52523 -1.11612,-1.11613 v -18.97411 c 0,-0.59089 0.52522,-1.11613 1.11612,-1.11613 h 18.97412 c 0.59089,0 1.11612,0.52524 1.11612,1.11613 v 18.97411 c -0.0656,0.5909 -0.52523,1.11613 -1.11612,1.11613" />
    <path
       inkscape:connector-curvature="0"
       id="path1213"
       stroke-miterlimit="2"
       stroke="#fff"
       d="m 455.94846,289.54881 h -18.9741 c -0.5909,0 -1.11613,-0.52523 -1.11613,-1.11613 v -18.97411 c 0,-0.59089 0.52523,-1.11613 1.11613,-1.11613 h 18.9741 c 0.5909,0 1.11614,0.52524 1.11614,1.11613 v 18.97411 c 0,0.5909 -0.52524,1.11613 -1.11614,1.11613" />
    <path
       inkscape:connector-curvature="0"
       id="path1215"
       stroke-miterlimit="2"
       stroke="#fff"
       d="m 505.92604,289.54881 h -18.90846 c -0.59089,0 -1.11612,-0.52523 -1.11612,-1.11613 v -18.97411 c 0,-0.59089 0.52523,-1.11613 1.11612,-1.11613 h 18.97411 c 0.5909,0 1.11613,0.52524 1.11613,1.11613 v 18.97411 c -0.0656,0.5909 -0.65654,1.11613 -1.18178,1.11613" />
    <path
       inkscape:connector-curvature="0"
       id="path1217"
       stroke-miterlimit="2"
       stroke="#fff"
       d="m 531.08654,213.38973 h -18.97411 c -0.5909,0 -1.11613,-0.52523 -1.11613,-1.11613 v -18.97411 c 0,-0.59089 0.52523,-1.11613 1.11613,-1.11613 h 18.97411 c 0.59089,0 1.11613,0.52524 1.11613,1.11613 v 18.97411 c 0.0656,0.5909 -0.52524,1.11613 -1.11613,1.11613" />
    <path
       inkscape:connector-curvature="0"
       id="path1219"
       stroke-miterlimit="2"
       stroke="#fff"
       d="m 531.08659,238.77609 h -18.97412 c -0.59089,0 -1.11613,-0.52523 -1.11613,-1.11613 v -18.97411 c 0,-0.59089 0.52524,-1.11613 1.11613,-1.11613 h 18.97412 c 0.59088,0 1.11612,0.52524 1.11612,1.11613 v 18.97411 c 0.0656,0.65655 -0.39393,1.11613 -1.11612,1.11613" />
    <path
       inkscape:connector-curvature="0"
       id="path1221"
       stroke-miterlimit="2"
       stroke="#fff"
       d="m 531.08659,264.16245 h -18.97412 c -0.59089,0 -1.11613,-0.52524 -1.11613,-1.11613 v -18.97411 c 0,-0.59089 0.52524,-1.11613 1.11613,-1.11613 h 18.97412 c 0.59088,0 1.11612,0.52524 1.11612,1.11613 v 18.97411 c 0.0656,0.65654 -0.39393,1.11613 -1.11612,1.11613" />
    <path
       inkscape:connector-curvature="0"
       id="path1223"
       stroke-miterlimit="2"
       stroke="#fff"
       d="m 531.08658,289.54881 h -18.97411 c -0.5909,0 -1.11613,-0.52523 -1.11613,-1.11613 v -18.97411 c 0,-0.59089 0.52523,-1.11613 1.11613,-1.11613 h 18.97411 c 0.59089,0 1.11613,0.52524 1.11613,1.11613 v 18.97411 c 0.0656,0.5909 -0.39393,1.11613 -1.11613,1.11613" />
    <path
       inkscape:connector-curvature="0"
       id="path1225"
       stroke-miterlimit="2"
       stroke="#fff"
       d="M 556.47262,213.38973 H 537.4985 c -0.59089,0 -1.11612,-0.52523 -1.11612,-1.11613 v -18.97411 c 0,-0.59089 0.52523,-1.11613 1.11612,-1.11613 h 18.97412 c 0.59089,0 1.11612,0.52524 1.11612,1.11613 v 18.97411 c 0,0.5909 -0.59089,1.11613 -1.11612,1.11613" />
    <path
       inkscape:connector-curvature="0"
       id="path1227"
       stroke-miterlimit="2"
       stroke="#fff"
       d="M 556.47262,238.77609 H 537.4985 c -0.59089,0 -1.11612,-0.52523 -1.11612,-1.11613 v -18.97411 c 0,-0.59089 0.52523,-1.11613 1.11612,-1.11613 h 18.97412 c 0.59089,0 1.11612,0.52524 1.11612,1.11613 v 18.97411 c 0,0.65655 -0.59089,1.11613 -1.11612,1.11613" />
    <path
       inkscape:connector-curvature="0"
       id="path1229"
       stroke-miterlimit="2"
       stroke="#fff"
       d="M 556.47262,264.16245 H 537.4985 c -0.59089,0 -1.11612,-0.52524 -1.11612,-1.11613 v -18.97411 c 0,-0.59089 0.52523,-1.11613 1.11612,-1.11613 h 18.97412 c 0.59089,0 1.11612,0.52524 1.11612,1.11613 v 18.97411 c 0,0.65654 -0.59089,1.11613 -1.11612,1.11613" />
    <path
       inkscape:connector-curvature="0"
       id="path1231"
       stroke-miterlimit="2"
       stroke="#fff"
       d="M 556.47262,289.54881 H 537.4985 c -0.59089,0 -1.11612,-0.52523 -1.11612,-1.11613 v -18.97411 c 0,-0.59089 0.52523,-1.11613 1.11612,-1.11613 h 18.97412 c 0.59089,0 1.11612,0.52524 1.11612,1.11613 v 18.97411 c 0,0.5909 -0.59089,1.11613 -1.11612,1.11613" />
    <path
       inkscape:connector-curvature="0"
       id="path1233"
       transform="matrix(0.65654379,0,0,0.65654379,63.546846,29.841981)"
       stroke-width="1.523128"
       stroke-miterlimit="2"
       stroke="#fff"
       d="M 673.8,356.9 H 645 c -0.9,0 -1.7,-0.8 -1.7,-1.7 v -28.9 c 0,-0.9 0.8,-1.7 1.7,-1.7 h 28.9 c 0.9,0 1.7,0.8 1.7,1.7 v 28.9 c -0.1,1 -1,1.7 -1.8,1.7" />
    <path
       inkscape:connector-curvature="0"
       id="path1235"
       transform="matrix(0.65654379,0,0,0.65654379,59.782662,29.856571)"
       stroke-width="1.523128"
       stroke-miterlimit="2"
       stroke="#fff"
       d="m 639.8,356.9 h -63.9 c -0.9,0 -1.7,-0.8 -1.7,-1.7 v -28.5 c 0,-0.9 0.8,-1.7 1.7,-1.7 h 63.9 c 0.9,0 1.7,0.8 1.7,1.7 v 28.5 c 0,0.9 -0.8,1.7 -1.7,1.7" />
  </g>
</svg>
