<?xml version="1.0" encoding="UTF-8" standalone="no"?>
<svg
   xmlns:dc="http://purl.org/dc/elements/1.1/"
   xmlns:cc="http://creativecommons.org/ns#"
   xmlns:rdf="http://www.w3.org/1999/02/22-rdf-syntax-ns#"
   xmlns:svg="http://www.w3.org/2000/svg"
   xmlns="http://www.w3.org/2000/svg"
   xmlns:sodipodi="http://sodipodi.sourceforge.net/DTD/sodipodi-0.dtd"
   xmlns:inkscape="http://www.inkscape.org/namespaces/inkscape"
   inkscape:version="1.0alpha2 (0c7b077, 2019-09-04)"
   sodipodi:docname="system.svg"
   id="svg916"
   version="1.1"
   viewBox="0 0 106 18"
   height="18"
   width="106">
  <metadata
     id="metadata920">
    <rdf:RDF>
      <cc:Work
         rdf:about="">
        <dc:format>image/svg+xml</dc:format>
        <dc:type
           rdf:resource="http://purl.org/dc/dcmitype/StillImage" />
        <dc:title>system</dc:title>
      </cc:Work>
    </rdf:RDF>
  </metadata>
  <sodipodi:namedview
     inkscape:current-layer="svg916"
     inkscape:window-maximized="0"
     inkscape:window-y="34"
     inkscape:window-x="12"
     inkscape:cy="-25.680412"
     inkscape:cx="38.507216"
     inkscape:zoom="4.1810345"
     showgrid="false"
     id="namedview918"
     inkscape:window-height="982"
     inkscape:window-width="1656"
     inkscape:pageshadow="2"
     inkscape:pageopacity="0"
     guidetolerance="10"
     gridtolerance="10"
     objecttolerance="10"
     borderopacity="1"
     inkscape:document-rotation="0"
     bordercolor="#666666"
     pagecolor="#989898" />
  <!-- Generator: Sketch 45 (43475) - http://www.bohemiancoding.com/sketch -->
  <title
     id="title906">system</title>
  <desc
     id="desc908">Created with Sketch.</desc>
  <defs
     id="defs910" />
  <g
     id="system"
     stroke="#867740"
     stroke-linecap="round"
     style="opacity:1;fill:none;fill-rule:evenodd;stroke-width:1;stop-opacity:1">
    <path
       d="m 0.5,17.5 4,-17"
       id="Shape"
       inkscape:connector-curvature="0" />
  </g>
  <g
     style="font-style:normal;font-weight:normal;font-size:14px;font-family:sans-serif;fill:#000000;fill-opacity:1;stroke:none;stroke-width:0.35"
     id="text854"
     aria-label="THOMSON TO8">
    <path
       id="path933"
       style="font-style:normal;font-variant:normal;font-weight:bold;font-stretch:normal;font-size:14px;font-family:Cabin;-inkscape-font-specification:'Cabin Bold';font-variant-ligatures:normal;font-variant-caps:normal;font-variant-numeric:normal;font-variant-east-asian:normal;fill:#ffffff;fill-opacity:1;stroke-width:0.35"
       d="M 14.678,5.936 H 11.906 V 14 H 10.114 V 5.936 H 7.342 V 4.2 h 7.336 z" />
    <path
       id="path935"
       style="font-style:normal;font-variant:normal;font-weight:bold;font-stretch:normal;font-size:14px;font-family:Cabin;-inkscape-font-specification:'Cabin Bold';font-variant-ligatures:normal;font-variant-caps:normal;font-variant-numeric:normal;font-variant-east-asian:normal;fill:#ffffff;fill-opacity:1;stroke-width:0.35"
       d="m 24.179625,14 h -1.792 V 9.758 h -4.62 V 14 h -1.792 V 4.2 h 1.792 v 3.822 h 4.62 V 4.2 h 1.792 z" />
    <path
       id="path937"
       style="font-style:normal;font-variant:normal;font-weight:bold;font-stretch:normal;font-size:14px;font-family:Cabin;-inkscape-font-specification:'Cabin Bold';font-variant-ligatures:normal;font-variant-caps:normal;font-variant-numeric:normal;font-variant-east-asian:normal;fill:#ffffff;fill-opacity:1;stroke-width:0.35"
       d="m 34.052906,12.796 q -1.344,1.4 -3.472,1.4 -2.128,0 -3.486,-1.4 -1.344,-1.414 -1.344,-3.696 0,-2.282 1.344,-3.682 1.358,-1.414 3.486,-1.414 2.128,0 3.472,1.414 1.358,1.4 1.358,3.682 0,2.282 -1.358,3.696 z m -1.344,-6.146 q -0.742,-0.924 -2.128,-0.924 -1.386,0 -2.128,0.924 -0.742,0.924 -0.742,2.45 0,1.526 0.742,2.45 0.742,0.924 2.128,0.924 1.386,0 2.128,-0.924 0.742,-0.924 0.742,-2.45 0,-1.526 -0.742,-2.45 z" />
    <path
       id="path939"
       style="font-style:normal;font-variant:normal;font-weight:bold;font-stretch:normal;font-size:14px;font-family:Cabin;-inkscape-font-specification:'Cabin Bold';font-variant-ligatures:normal;font-variant-caps:normal;font-variant-numeric:normal;font-variant-east-asian:normal;fill:#ffffff;fill-opacity:1;stroke-width:0.35"
       d="m 46.861594,14 h -1.862 l -0.84,-6.566 -2.506,4.508 -2.52,-4.494 -0.84,6.552 h -1.862 l 1.358,-9.8 h 1.47 l 2.394,4.466 2.38,-4.466 h 1.47 z" />
    <path
       id="path941"
       style="font-style:normal;font-variant:normal;font-weight:bold;font-stretch:normal;font-size:14px;font-family:Cabin;-inkscape-font-specification:'Cabin Bold';font-variant-ligatures:normal;font-variant-caps:normal;font-variant-numeric:normal;font-variant-east-asian:normal;fill:#ffffff;fill-opacity:1;stroke-width:0.35"
       d="m 51.411375,14.196 q -1.05,0 -1.918,-0.21 -0.868,-0.21 -1.33,-0.504 l 0.21,-2.044 q 0.448,0.434 1.246,0.742 0.812,0.294 1.834,0.294 1.75,0 1.75,-1.064 0,-0.294 -0.14,-0.532 -0.14,-0.238 -0.308,-0.392 -0.154,-0.154 -0.532,-0.322 -0.378,-0.182 -0.588,-0.252 -0.21,-0.084 -0.714,-0.252 -0.434,-0.14 -0.602,-0.21 l -0.56,-0.238 q -0.392,-0.154 -0.574,-0.266 -0.182,-0.126 -0.448,-0.336 -0.266,-0.224 -0.392,-0.448 -0.126,-0.224 -0.224,-0.532 -0.098,-0.322 -0.098,-0.686 0,-1.148 0.868,-2.044 0.868,-0.896 2.674,-0.896 0.938,0 1.806,0.238 0.882,0.238 1.316,0.518 l -0.182,1.834 q -1.61,-0.882 -2.87,-0.882 -0.714,0 -1.26,0.238 -0.532,0.238 -0.532,0.798 0,0.532 0.49,0.826 0.49,0.28 1.484,0.588 0.518,0.154 0.784,0.252 0.28,0.098 0.756,0.294 0.476,0.196 0.742,0.42 0.266,0.21 0.546,0.532 0.294,0.308 0.42,0.742 0.14,0.42 0.14,0.938 0,0.392 -0.07,0.742 -0.07,0.336 -0.322,0.742 -0.238,0.406 -0.644,0.7 -0.392,0.28 -1.106,0.476 -0.7,0.196 -1.652,0.196 z" />
    <path
       id="path943"
       style="font-style:normal;font-variant:normal;font-weight:bold;font-stretch:normal;font-size:14px;font-family:Cabin;-inkscape-font-specification:'Cabin Bold';font-variant-ligatures:normal;font-variant-caps:normal;font-variant-numeric:normal;font-variant-east-asian:normal;fill:#ffffff;fill-opacity:1;stroke-width:0.35"
       d="m 64.404469,12.796 q -1.344,1.4 -3.472,1.4 -2.128,0 -3.486,-1.4 -1.344,-1.414 -1.344,-3.696 0,-2.282 1.344,-3.682 1.358,-1.414 3.486,-1.414 2.128,0 3.472,1.414 1.358,1.4 1.358,3.682 0,2.282 -1.358,3.696 z m -1.344,-6.146 q -0.742,-0.924 -2.128,-0.924 -1.386,0 -2.128,0.924 -0.742,0.924 -0.742,2.45 0,1.526 0.742,2.45 0.742,0.924 2.128,0.924 1.386,0 2.128,-0.924 0.742,-0.924 0.742,-2.45 0,-1.526 -0.742,-2.45 z" />
    <path
       id="path945"
       style="font-style:normal;font-variant:normal;font-weight:bold;font-stretch:normal;font-size:14px;font-family:Cabin;-inkscape-font-specification:'Cabin Bold';font-variant-ligatures:normal;font-variant-caps:normal;font-variant-numeric:normal;font-variant-east-asian:normal;fill:#ffffff;fill-opacity:1;stroke-width:0.35"
       d="m 75.069187,14 h -1.47 l -4.48,-6.72 V 14 h -1.792 V 4.2 h 1.764 l 4.186,6.328 V 4.2 h 1.792 z" />
    <path
       id="path947"
       style="font-style:normal;font-variant:normal;font-weight:bold;font-stretch:normal;font-size:14px;font-family:Cabin;-inkscape-font-specification:'Cabin Bold';font-variant-ligatures:normal;font-variant-caps:normal;font-variant-numeric:normal;font-variant-east-asian:normal;fill:#ffffff;fill-opacity:1;stroke-width:0.35"
       d="m 86.838156,5.936 h -2.772 V 14 h -1.792 V 5.936 h -2.772 V 4.2 h 7.336 z" />
    <path
       id="path949"
       style="font-style:normal;font-variant:normal;font-weight:bold;font-stretch:normal;font-size:14px;font-family:Cabin;-inkscape-font-specification:'Cabin Bold';font-variant-ligatures:normal;font-variant-caps:normal;font-variant-numeric:normal;font-variant-east-asian:normal;fill:#ffffff;fill-opacity:1;stroke-width:0.35"
       d="m 95.658375,12.796 q -1.344,1.4 -3.472,1.4 -2.128,0 -3.486,-1.4 -1.344,-1.414 -1.344,-3.696 0,-2.282 1.344,-3.682 1.358,-1.414 3.486,-1.414 2.128,0 3.472,1.414 1.358,1.4 1.358,3.682 0,2.282 -1.358,3.696 z m -1.344,-6.146 q -0.742,-0.924 -2.128,-0.924 -1.386,0 -2.128,0.924 -0.742,0.924 -0.742,2.45 0,1.526 0.742,2.45 0.742,0.924 2.128,0.924 1.386,0 2.128,-0.924 0.742,-0.924 0.742,-2.45 0,-1.526 -0.742,-2.45 z" />
    <path
       id="path951"
       style="font-style:normal;font-variant:normal;font-weight:bold;font-stretch:normal;font-size:14px;font-family:Cabin;-inkscape-font-specification:'Cabin Bold';font-variant-ligatures:normal;font-variant-caps:normal;font-variant-numeric:normal;font-variant-east-asian:normal;fill:#ffffff;fill-opacity:1;stroke-width:0.35"
       d="m 101.57709,14.196 q -1.609996,0 -2.449996,-0.812 -0.84,-0.812 -0.84,-1.974 0,-1.582 1.512,-2.688 -0.966,-0.77 -0.966,-2.24 0,-1.078 0.686,-1.778 0.699996,-0.7 2.253996,-0.7 1.484,0 2.156,0.644 0.686,0.63 0.686,1.624 0,1.316 -1.204,2.324 0.784,0.364 1.26,1.036 0.476,0.672 0.476,1.512 0,1.19 -0.924,2.128 -0.91,0.924 -2.646,0.924 z m 0.126,-8.792 q -0.686,0 -0.994,0.35 -0.308,0.336 -0.308,0.896 0,1.064 1.232,1.4 1.33,-0.364 1.33,-1.47 0,-0.518 -0.308,-0.84 -0.294,-0.336 -0.952,-0.336 z m 0.056,3.948 q -0.714,0.112 -1.246,0.616 -0.517996,0.504 -0.517996,1.302 0,0.714 0.433996,1.106 0.448,0.392 1.218,0.392 0.812,0 1.274,-0.42 0.462,-0.434 0.462,-1.148 0,-0.742 -0.462,-1.218 -0.462,-0.476 -1.162,-0.63 z" />
  </g>
</svg>
