<svg height="18" viewBox="0 0 106 18" width="106" xmlns="http://www.w3.org/2000/svg"><path d="m.5 17.5 4-17" fill="none" stroke="#867740" stroke-linecap="round"/><g fill="#fff" stroke-width=".35"><path d="m14.678 5.936h-2.772v8.064h-1.792v-8.064h-2.772v-1.736h7.336z"/><path d="m24.179625 14h-1.792v-4.242h-4.62v4.242h-1.792v-9.8h1.792v3.822h4.62v-3.822h1.792z"/><path d="m34.052906 12.796q-1.344 1.4-3.472 1.4-2.128 0-3.486-1.4-1.344-1.414-1.344-3.696 0-2.282 1.344-3.682 1.358-1.414 3.486-1.414 2.128 0 3.472 1.414 1.358 1.4 1.358 3.682 0 2.282-1.358 3.696zm-1.344-6.146q-.742-.924-2.128-.924-1.386 0-2.128.924-.742.924-.742 2.45 0 1.526.742 2.45.742.924 2.128.924 1.386 0 2.128-.924.742-.924.742-2.45 0-1.526-.742-2.45z"/><path d="m46.861594 14h-1.862l-.84-6.566-2.506 4.508-2.52-4.494-.84 6.552h-1.862l1.358-9.8h1.47l2.394 4.466 2.38-4.466h1.47z"/><path d="m51.411375 14.196q-1.05 0-1.918-.21-.868-.21-1.33-.504l.21-2.044q.448.434 1.246.742.812.294 1.834.294 1.75 0 1.75-1.064 0-.294-.14-.532-.14-.238-.308-.392-.154-.154-.532-.322-.378-.182-.588-.252-.21-.084-.714-.252-.434-.14-.602-.21l-.56-.238q-.392-.154-.574-.266-.182-.126-.448-.336-.266-.224-.392-.448-.126-.224-.224-.532-.098-.322-.098-.686 0-1.148.868-2.044.868-.896 2.674-.896.938 0 1.806.238.882.238 1.316.518l-.182 1.834q-1.61-.882-2.87-.882-.714 0-1.26.238-.532.238-.532.798 0 .532.49.826.49.28 1.484.588.518.154.784.252.28.098.756.294.476.196.742.42.266.21.546.532.294.308.42.742.14.42.14.938 0 .392-.07.742-.07.336-.322.742-.238.406-.644.7-.392.28-1.106.476-.7.196-1.652.196z"/><path d="m64.404469 12.796q-1.344 1.4-3.472 1.4-2.128 0-3.486-1.4-1.344-1.414-1.344-3.696 0-2.282 1.344-3.682 1.358-1.414 3.486-1.414 2.128 0 3.472 1.414 1.358 1.4 1.358 3.682 0 2.282-1.358 3.696zm-1.344-6.146q-.742-.924-2.128-.924-1.386 0-2.128.924-.742.924-.742 2.45 0 1.526.742 2.45.742.924 2.128.924 1.386 0 2.128-.924.742-.924.742-2.45 0-1.526-.742-2.45z"/><path d="m75.069187 14h-1.47l-4.48-6.72v6.72h-1.792v-9.8h1.764l4.186 6.328v-6.328h1.792z"/><path d="m86.838156 5.936h-2.772v8.064h-1.792v-8.064h-2.772v-1.736h7.336z"/><path d="m95.658375 12.796q-1.344 1.4-3.472 1.4-2.128 0-3.486-1.4-1.344-1.414-1.344-3.696 0-2.282 1.344-3.682 1.358-1.414 3.486-1.414 2.128 0 3.472 1.414 1.358 1.4 1.358 3.682 0 2.282-1.358 3.696zm-1.344-6.146q-.742-.924-2.128-.924-1.386 0-2.128.924-.742.924-.742 2.45 0 1.526.742 2.45.742.924 2.128.924 1.386 0 2.128-.924.742-.924.742-2.45 0-1.526-.742-2.45z"/><path d="m101.57709 14.196q-1.609996 0-2.449996-.812-.84-.812-.84-1.974 0-1.582 1.512-2.688-.966-.77-.966-2.24 0-1.078.686-1.778.699996-.7 2.253996-.7 1.484 0 2.156.644.686.63.686 1.624 0 1.316-1.204 2.324.784.364 1.26 1.036.476.672.476 1.512 0 1.19-.924 2.128-.91.924-2.646.924zm.126-8.792q-.686 0-.994.35-.308.336-.308.896 0 1.064 1.232 1.4 1.33-.364 1.33-1.47 0-.518-.308-.84-.294-.336-.952-.336zm.056 3.948q-.714.112-1.246.616-.517996.504-.517996 1.302 0 .714.433996 1.106.448.392 1.218.392.812 0 1.274-.42.462-.434.462-1.148 0-.742-.462-1.218-.462-.476-1.162-.63z"/></g></svg>