<?xml version="1.0" encoding="UTF-8" standalone="no"?>
<svg width="91px" height="18px" viewBox="0 0 91 18" version="1.1" xmlns="http://www.w3.org/2000/svg" xmlns:xlink="http://www.w3.org/1999/xlink">
    <!-- Generator: Sketch 45 (43475) - http://www.bohemiancoding.com/sketch -->
    <title>system</title>
    <desc>Created with Sketch.</desc>
    <defs></defs>
    <g id="Page-1" stroke="none" stroke-width="1" fill="none" fill-rule="evenodd">
        <path d="M17.156,4.2 L13.712,14 L11.528,14 L8,4.2 L9.862,4.2 L12.606,11.634 L15.308,4.2 L17.156,4.2 Z M20.068,14 L18.276,14 L18.276,4.2 L20.068,4.2 L20.068,14 Z M29.728,14 L27.866,14 L25.836,10.36 L24.016,10.36 L24.016,14 L22.224,14 L22.224,4.2 L25.808,4.2 C28.0573446,4.2 29.182,5.14265724 29.182,7.028 C29.182,7.7280035 29.0373348,8.29733114 28.748,8.736 C28.4586652,9.17466886 28.0480027,9.5573317 27.516,9.884 L29.728,14 Z M25.402,5.698 L24.016,5.698 L24.016,8.68 L25.332,8.68 C26.0880038,8.68 26.6059986,8.54933464 26.886,8.288 C27.1660014,8.02666536 27.306,7.64866914 27.306,7.154 C27.306,6.65933086 27.170668,6.29300119 26.9,6.055 C26.629332,5.81699881 26.1300036,5.698 25.402,5.698 Z M37.358,5.936 L34.586,5.936 L34.586,14 L32.794,14 L32.794,5.936 L30.022,5.936 L30.022,4.2 L37.358,4.2 L37.358,5.936 Z M42.594,14.196 C41.2499933,14.196 40.2373367,13.8063372 39.556,13.027 C38.8746633,12.2476628 38.534,11.1720069 38.534,9.8 L38.534,4.2 L40.326,4.2 L40.326,9.198 C40.326,10.2340052 40.4869984,11.0389971 40.809,11.613 C41.1310016,12.1870029 41.7259957,12.474 42.594,12.474 C43.4620043,12.474 44.0569984,12.1870029 44.379,11.613 C44.7010016,11.0389971 44.862,10.2340052 44.862,9.198 L44.862,4.2 L46.654,4.2 L46.654,9.8 C46.654,11.1720069 46.3133367,12.2476628 45.632,13.027 C44.9506633,13.8063372 43.9380067,14.196 42.594,14.196 Z M56.09,14 L54.228,14 L53.388,11.634 L50.126,11.634 L49.286,14 L47.424,14 L50.91,4.2 L52.604,4.2 L56.09,14 Z M52.772,9.898 L51.75,7.028 L50.742,9.898 L52.772,9.898 Z M63.034,14 L57.21,14 L57.21,4.2 L59.002,4.2 L59.002,12.264 L63.034,12.264 L63.034,14 Z M67.99,14 L64.21,14 L64.21,4.2 L66.856,4.2 C67.3506691,4.2 67.7729983,4.21866648 68.123,4.256 C68.4730017,4.29333352 68.813665,4.36333282 69.145,4.466 C69.476335,4.56866718 69.7423323,4.71099909 69.943,4.893 C70.1436677,5.07500091 70.3046661,5.31766515 70.426,5.621 C70.5473339,5.92433485 70.608,6.29066452 70.608,6.72 C70.608,7.62533786 70.3326694,8.30666438 69.782,8.764 C70.3606696,8.98800112 70.7899986,9.28433149 71.07,9.653 C71.3500014,10.0216685 71.49,10.5093303 71.49,11.116 C71.49,11.657336 71.3873344,12.123998 71.182,12.516 C70.9766656,12.908002 70.6990017,13.2066656 70.349,13.412 C69.9989982,13.6173344 69.6303353,13.7666662 69.243,13.86 C68.8556647,13.9533338 68.4380022,14 67.99,14 Z M67.584,5.726 L66.002,5.726 L66.002,8.134 L67.752,8.134 C68.0693349,8.134 68.3469988,8.04766753 68.585,7.875 C68.8230012,7.70233247 68.942,7.4060021 68.942,6.986 C68.942,6.50999762 68.8276678,6.18100091 68.599,5.999 C68.3703322,5.81699909 68.0320022,5.726 67.584,5.726 Z M67.864,9.548 L66.002,9.548 L66.002,12.474 L67.766,12.474 C68.3726697,12.474 68.8369984,12.3620011 69.159,12.138 C69.4810016,11.9139989 69.642,11.5406693 69.642,11.018 C69.642,10.0379951 69.0493393,9.548 67.864,9.548 Z M77.216,14.196 C75.7973262,14.196 74.6376712,13.7270047 73.737,12.789 C72.8363288,11.8509953 72.386,10.6213409 72.386,9.1 C72.386,7.57865906 72.8363288,6.34900469 73.737,5.411 C74.6376712,4.47299531 75.7973262,4.004 77.216,4.004 C78.6346738,4.004 79.7943288,4.47299531 80.695,5.411 C81.5956712,6.34900469 82.046,7.57865906 82.046,9.1 C82.046,10.6213409 81.5956712,11.8509953 80.695,12.789 C79.7943288,13.7270047 78.6346738,14.196 77.216,14.196 Z M77.216,5.726 C76.2919954,5.726 75.5826691,6.03399692 75.088,6.65 C74.5933309,7.26600308 74.346,8.08266158 74.346,9.1 C74.346,10.1173384 74.5933309,10.9339969 75.088,11.55 C75.5826691,12.1660031 76.2919954,12.474 77.216,12.474 C78.1400046,12.474 78.8493309,12.1660031 79.344,11.55 C79.8386691,10.9339969 80.086,10.1173384 80.086,9.1 C80.086,8.08266158 79.8386691,7.26600308 79.344,6.65 C78.8493309,6.03399692 78.1400046,5.726 77.216,5.726 Z M90.642,4.2 L87.254,9.66 L87.254,14 L85.462,14 L85.462,9.66 L82.074,4.2 L83.978,4.2 L86.358,8.064 L88.738,4.2 L90.642,4.2 Z" id="VIRTUALBOY-Copy" fill="#FFFFFF"></path>
        <g id="system" stroke="#867740" stroke-linecap="round">
            <path d="M0.5,17.5 L4.5,0.5" id="Shape"></path>
        </g>
    </g>
</svg>