<?xml version="1.0" encoding="utf-8"?>
<svg viewBox="0 0 93.79 18" xmlns="http://www.w3.org/2000/svg" xmlns:bx="https://boxy-svg.com">
  <path d="M 17.165 3.769 L 13.715 13.569 L 11.535 13.569 L 8.005 3.769 L 9.865 3.769 L 12.615 11.199 L 15.315 3.769 L 17.165 3.769 ZM 20.072 13.569 L 18.282 13.569 L 18.282 3.769 L 20.072 3.769 L 20.072 13.569 ZM 29.73 13.569 L 27.87 13.569 L 25.84 9.929 L 24.02 9.929 L 24.02 13.569 L 22.23 13.569 L 22.23 3.769 L 25.81 3.769 C 28.063 3.769 29.19 4.712 29.19 6.599 C 29.19 7.299 29.043 7.869 28.75 8.309 C 28.463 8.742 28.053 9.122 27.52 9.449 L 29.73 13.569 M 25.41 5.269 L 24.02 5.269 L 24.02 8.249 L 25.34 8.249 C 26.093 8.249 26.61 8.119 26.89 7.859 C 27.17 7.606 27.31 7.226 27.31 6.719 C 27.31 6.226 27.173 5.859 26.9 5.619 C 26.633 5.386 26.136 5.269 25.41 5.269 ZM 37.365 5.509 L 34.585 5.509 L 34.585 13.569 L 32.795 13.569 L 32.795 5.509 L 30.025 5.509 L 30.025 3.769 L 37.365 3.769 L 37.365 5.509 ZM 38.54 9.369 L 38.54 3.769 L 40.33 3.769 L 40.33 8.769 C 40.33 9.289 40.367 9.752 40.44 10.159 C 40.514 10.566 40.637 10.909 40.81 11.189 C 40.984 11.469 41.214 11.682 41.5 11.829 C 41.794 11.969 42.16 12.039 42.6 12.039 C 43.027 12.039 43.387 11.969 43.68 11.829 C 43.974 11.682 44.207 11.469 44.38 11.189 C 44.554 10.909 44.677 10.566 44.75 10.159 C 44.824 9.752 44.86 9.289 44.86 8.769 L 44.86 3.769 L 46.66 3.769 L 46.66 9.369 C 46.66 10.742 46.317 11.819 45.63 12.599 C 44.95 13.379 43.94 13.769 42.6 13.769 C 41.254 13.769 40.24 13.379 39.56 12.599 C 38.88 11.819 38.54 10.742 38.54 9.369 ZM 56.093 13.569 L 54.233 13.569 L 53.393 11.199 L 50.123 11.199 L 49.283 13.569 L 47.423 13.569 L 50.913 3.769 L 52.603 3.769 L 56.093 13.569 M 52.773 9.469 L 51.753 6.599 L 50.743 9.469 L 52.773 9.469 ZM 63.032 13.569 L 57.212 13.569 L 57.212 3.769 L 59.002 3.769 L 59.002 11.829 L 63.032 11.829 L 63.032 13.569 ZM 71.141 13.569 L 67.361 13.569 L 67.361 3.769 L 70.001 3.769 C 70.575 3.769 71.091 3.799 71.551 3.859 C 72.011 3.919 72.405 4.039 72.731 4.219 C 73.058 4.406 73.311 4.662 73.491 4.989 C 73.671 5.316 73.761 5.749 73.761 6.289 C 73.761 7.182 73.485 7.862 72.931 8.329 C 73.518 8.556 73.951 8.852 74.231 9.219 C 74.505 9.579 74.641 10.069 74.641 10.689 C 74.641 11.229 74.541 11.682 74.341 12.049 C 74.141 12.416 73.878 12.712 73.551 12.939 C 73.225 13.166 72.851 13.326 72.431 13.419 C 72.011 13.519 71.581 13.569 71.141 13.569 M 70.731 5.299 L 69.151 5.299 L 69.151 7.699 L 70.901 7.699 C 71.221 7.699 71.498 7.612 71.731 7.439 C 71.971 7.272 72.091 6.979 72.091 6.559 C 72.091 6.079 71.978 5.749 71.751 5.569 C 71.518 5.389 71.178 5.299 70.731 5.299 M 71.011 9.119 L 69.151 9.119 L 69.151 12.039 L 70.911 12.039 C 71.531 12.039 71.998 11.932 72.311 11.719 C 72.631 11.499 72.791 11.122 72.791 10.589 C 72.791 9.609 72.198 9.119 71.011 9.119 ZM 83.835 12.369 C 82.941 13.302 81.785 13.769 80.365 13.769 C 79.665 13.769 79.018 13.646 78.425 13.399 C 77.831 13.159 77.321 12.816 76.895 12.369 C 76.461 11.916 76.128 11.379 75.895 10.759 C 75.655 10.132 75.535 9.436 75.535 8.669 C 75.535 7.902 75.655 7.206 75.895 6.579 C 76.141 5.959 76.475 5.422 76.895 4.969 C 77.321 4.522 77.831 4.179 78.425 3.939 C 79.018 3.692 79.665 3.569 80.365 3.569 C 81.065 3.569 81.711 3.692 82.305 3.939 C 82.898 4.192 83.408 4.542 83.835 4.989 C 84.268 5.436 84.601 5.972 84.835 6.599 C 85.075 7.226 85.195 7.916 85.195 8.669 C 85.195 10.202 84.741 11.436 83.835 12.369 M 82.495 6.219 C 82.001 5.606 81.291 5.299 80.365 5.299 C 79.898 5.299 79.488 5.379 79.135 5.539 C 78.781 5.706 78.481 5.936 78.235 6.229 C 77.995 6.522 77.811 6.876 77.685 7.289 C 77.558 7.702 77.495 8.162 77.495 8.669 C 77.495 9.176 77.558 9.636 77.685 10.049 C 77.811 10.462 77.995 10.816 78.235 11.109 C 78.481 11.402 78.781 11.632 79.135 11.799 C 79.488 11.959 79.898 12.039 80.365 12.039 C 80.831 12.039 81.241 11.959 81.595 11.799 C 81.948 11.632 82.248 11.402 82.495 11.109 C 82.735 10.816 82.918 10.462 83.045 10.049 C 83.171 9.636 83.235 9.176 83.235 8.669 C 83.235 7.662 82.988 6.846 82.495 6.219 ZM 93.79 3.769 L 90.4 9.229 L 90.4 13.569 L 88.61 13.569 L 88.61 9.229 L 85.22 3.769 L 87.13 3.769 L 89.51 7.629 L 91.89 3.769 L 93.79 3.769 Z" transform="matrix(1, 0, 0, 1, 0, 0)" style="fill: rgb(255, 255, 255); white-space: pre;"/>
  <path d="M 0 18 L 3.869 0" style="fill: none; stroke-linecap: round; stroke: rgb(134, 119, 64);" bx:origin="0 0.5"/>
</svg>