<?xml version="1.0" encoding="UTF-8" standalone="no"?>
<svg width="99px" height="18px" viewBox="0 0 99 18" version="1.1" xmlns="http://www.w3.org/2000/svg" xmlns:xlink="http://www.w3.org/1999/xlink">
    <!-- Generator: Sketch 45 (43475) - http://www.bohemiancoding.com/sketch -->
    <title>system</title>
    <desc>Created with Sketch.</desc>
    <defs></defs>
    <g id="Page-1" stroke="none" stroke-width="1" fill="none" fill-rule="evenodd">
        <path d="M15.574,4.2 L11.066,12.264 L14.944,12.264 L14.944,14 L8.112,14 L12.62,5.936 L8.742,5.936 L8.742,4.2 L15.574,4.2 Z M24.478,14 L22.406,14 L20.026,10.402 L17.716,14 L15.658,14 L19.116,9.114 L15.812,4.2 L17.884,4.2 L20.152,7.644 L22.224,4.2 L24.282,4.2 L21.062,8.918 L24.478,14 Z M31.52,14.196 C30.8199965,14.196 30.1806696,14.1260007 29.602,13.986 C29.0233304,13.8459993 28.5800015,13.678001 28.272,13.482 L28.482,11.438 C28.7806682,11.7273348 29.1983307,11.9723323 29.735,12.173 C30.2716694,12.3736677 30.8806633,12.474 31.562,12.474 C32.7286725,12.474 33.312,12.1193369 33.312,11.41 C33.312,11.213999 33.2653338,11.0366675 33.172,10.878 C33.0786662,10.7193325 32.9783339,10.5886672 32.871,10.486 C32.7636661,10.3833328 32.5840013,10.2736672 32.332,10.157 C32.0799987,10.0403328 31.8840007,9.95633359 31.744,9.905 C31.6039993,9.85366641 31.3660017,9.77200056 31.03,9.66 C30.7406652,9.5666662 30.5400006,9.4966669 30.428,9.45 L29.868,9.212 C29.6066654,9.10933282 29.4153339,9.01833373 29.294,8.939 C29.1726661,8.85966627 29.0233342,8.74766739 28.846,8.603 C28.6686658,8.45833261 28.5380004,8.31133408 28.454,8.162 C28.3699996,8.01266592 28.2953337,7.83300105 28.23,7.623 C28.1646663,7.41299895 28.132,7.18666788 28.132,6.944 C28.132,6.17866284 28.4213304,5.49733632 29,4.9 C29.5786696,4.30266368 30.469994,4.004 31.674,4.004 C32.2993365,4.004 32.9036637,4.08333254 33.487,4.242 C34.0703363,4.40066746 34.5066652,4.5733324 34.796,4.76 L34.614,6.594 C33.5406613,6.00599706 32.5840042,5.712 31.744,5.712 C31.2679976,5.712 30.8503351,5.79133254 30.491,5.95 C30.1316649,6.10866746 29.952,6.3746648 29.952,6.748 C29.952,7.10266844 30.1153317,7.37566571 30.442,7.567 C30.7686683,7.75833429 31.26333,7.95666564 31.926,8.162 C32.2713351,8.26466718 32.5349991,8.34866634 32.717,8.414 C32.8990009,8.47933366 33.1486651,8.57733268 33.466,8.708 C33.7833349,8.83866732 34.0306658,8.97633261 34.208,9.121 C34.3853342,9.26566739 34.5696657,9.44299895 34.761,9.653 C34.9523343,9.86300105 35.0923329,10.1103319 35.181,10.395 C35.2696671,10.6796681 35.314,10.9946649 35.314,11.34 C35.314,11.6013346 35.2906669,11.8463322 35.244,12.075 C35.1973331,12.3036678 35.0923341,12.553332 34.929,12.824 C34.7656659,13.094668 34.5510013,13.3256657 34.285,13.517 C34.0189987,13.7083343 33.6503357,13.8693327 33.179,14 C32.7076643,14.1306673 32.1546698,14.196 31.52,14.196 Z M40.34,10.78 L38.59,10.78 L38.59,14 L36.798,14 L36.798,4.2 L39.57,4.2 C40.307337,4.2 40.9116643,4.23733296 41.383,4.312 C41.8543357,4.38666704 42.2836647,4.53133226 42.671,4.746 C43.0583353,4.96066774 43.3383325,5.27566459 43.511,5.691 C43.6836675,6.10633541 43.77,6.64533002 43.77,7.308 C43.77,7.97066998 43.6603344,8.54233093 43.441,9.023 C43.2216656,9.50366907 42.9300018,9.86533212 42.566,10.108 C42.2019982,10.3506679 41.8380018,10.5233328 41.474,10.626 C41.1099982,10.7286672 40.732002,10.78 40.34,10.78 Z M40.06,5.698 L38.59,5.698 L38.59,9.1 L40.102,9.1 C40.76467,9.1 41.2383319,8.96700133 41.523,8.701 C41.8076681,8.43499867 41.95,7.9753366 41.95,7.322 C41.95,6.74333044 41.8170013,6.32800126 41.551,6.076 C41.2849987,5.82399874 40.7880036,5.698 40.06,5.698 Z M51.554,14 L45.142,14 L45.142,4.2 L51.414,4.2 L51.414,5.936 L46.976,5.936 L46.976,8.022 L50.42,8.022 L50.42,9.758 L46.976,9.758 L46.976,12.264 L51.554,12.264 L51.554,14 Z M57.21,14.196 C55.7913262,14.196 54.6316712,13.7270047 53.731,12.789 C52.8303288,11.8509953 52.38,10.6213409 52.38,9.1 C52.38,7.57865906 52.8303288,6.34900469 53.731,5.411 C54.6316712,4.47299531 55.7913262,4.004 57.21,4.004 C58.2833387,4.004 59.2119961,4.19533142 59.996,4.578 L59.8,6.286 C58.8573286,5.9126648 57.9940039,5.726 57.21,5.726 C56.2859954,5.726 55.5766691,6.03399692 55.082,6.65 C54.5873309,7.26600308 54.34,8.08266158 54.34,9.1 C54.34,10.1173384 54.5873309,10.9339969 55.082,11.55 C55.5766691,12.1660031 56.2859954,12.474 57.21,12.474 C57.9940039,12.474 58.8573286,12.2873352 59.8,11.914 L59.996,13.622 C59.2119961,14.0046686 58.2833387,14.196 57.21,14.196 Z M67.962,5.936 L65.19,5.936 L65.19,14 L63.398,14 L63.398,5.936 L60.626,5.936 L60.626,4.2 L67.962,4.2 L67.962,5.936 Z M76.754,14 L74.892,14 L72.862,10.36 L71.042,10.36 L71.042,14 L69.25,14 L69.25,4.2 L72.834,4.2 C75.0833446,4.2 76.208,5.14265724 76.208,7.028 C76.208,7.7280035 76.0633348,8.29733114 75.774,8.736 C75.4846652,9.17466886 75.0740027,9.5573317 74.542,9.884 L76.754,14 Z M72.428,5.698 L71.042,5.698 L71.042,8.68 L72.358,8.68 C73.1140038,8.68 73.6319986,8.54933464 73.912,8.288 C74.1920014,8.02666536 74.332,7.64866914 74.332,7.154 C74.332,6.65933086 74.196668,6.29300119 73.926,6.055 C73.655332,5.81699881 73.1560036,5.698 72.428,5.698 Z M81.962,14.196 C80.6179933,14.196 79.6053367,13.8063372 78.924,13.027 C78.2426633,12.2476628 77.902,11.1720069 77.902,9.8 L77.902,4.2 L79.694,4.2 L79.694,9.198 C79.694,10.2340052 79.8549984,11.0389971 80.177,11.613 C80.4990016,12.1870029 81.0939957,12.474 81.962,12.474 C82.8300043,12.474 83.4249984,12.1870029 83.747,11.613 C84.0690016,11.0389971 84.23,10.2340052 84.23,9.198 L84.23,4.2 L86.022,4.2 L86.022,9.8 C86.022,11.1720069 85.6813367,12.2476628 85,13.027 C84.3186633,13.8063372 83.3060067,14.196 81.962,14.196 Z M97.908,14 L96.046,14 L95.206,7.434 L92.7,11.942 L90.18,7.448 L89.34,14 L87.478,14 L88.836,4.2 L90.306,4.2 L92.7,8.666 L95.08,4.2 L96.55,4.2 L97.908,14 Z" id="ZX-SPECTRUM-Copy" fill="#FFFFFF"></path>
        <g id="system" stroke="#867740" stroke-linecap="round">
            <path d="M0.5,17.5 L4.5,0.5" id="Shape"></path>
        </g>
    </g>
</svg>