<?xml version="1.0" encoding="utf-8"?>
<svg viewBox="0 0 123.56 18" xmlns="http://www.w3.org/2000/svg" xmlns:bx="https://boxy-svg.com">
  <path d="M 15.575 3.769 L 11.075 11.829 L 14.945 11.829 L 14.945 13.569 L 8.115 13.569 L 12.625 5.509 L 8.745 5.509 L 8.745 3.769 L 15.575 3.769 ZM 24.486 13.569 L 22.406 13.569 L 20.026 9.969 L 17.716 13.569 L 15.666 13.569 L 19.116 8.679 L 15.816 3.769 L 17.886 3.769 L 20.156 7.209 L 22.226 3.769 L 24.286 3.769 L 21.066 8.489 L 24.486 13.569 ZM 31.523 13.769 C 30.823 13.769 30.183 13.699 29.603 13.559 C 29.023 13.419 28.58 13.249 28.273 13.049 L 28.483 11.009 C 28.783 11.296 29.203 11.539 29.743 11.739 C 30.276 11.939 30.883 12.039 31.563 12.039 C 32.73 12.039 33.313 11.686 33.313 10.979 C 33.313 10.772 33.266 10.589 33.173 10.429 C 33.073 10.262 32.946 10.119 32.793 9.999 C 32.64 9.879 32.47 9.776 32.283 9.689 C 32.103 9.609 31.923 9.539 31.743 9.479 L 30.433 9.019 L 29.873 8.779 C 29.286 8.539 28.856 8.249 28.583 7.909 C 28.31 7.576 28.16 7.109 28.133 6.509 C 28.133 6.136 28.203 5.776 28.343 5.429 C 28.483 5.076 28.7 4.762 28.993 4.489 C 29.28 4.216 29.646 3.996 30.093 3.829 C 30.54 3.656 31.066 3.569 31.673 3.569 C 31.986 3.569 32.296 3.592 32.603 3.639 C 32.916 3.686 33.213 3.746 33.493 3.819 C 33.773 3.886 34.026 3.966 34.253 4.059 C 34.48 4.152 34.663 4.242 34.803 4.329 L 34.613 6.159 C 33.533 5.572 32.576 5.279 31.743 5.279 C 31.503 5.279 31.276 5.299 31.063 5.339 C 30.85 5.372 30.66 5.432 30.493 5.519 C 30.333 5.606 30.203 5.712 30.103 5.839 C 30.003 5.972 29.953 6.132 29.953 6.319 C 29.953 6.559 30.013 6.746 30.133 6.879 C 30.246 7.019 30.416 7.139 30.643 7.239 C 30.876 7.346 31.166 7.452 31.513 7.559 C 31.853 7.666 32.253 7.806 32.713 7.979 L 33.473 8.279 C 33.666 8.352 33.87 8.459 34.083 8.599 C 34.296 8.739 34.496 8.912 34.683 9.119 C 34.863 9.326 35.013 9.566 35.133 9.839 C 35.253 10.112 35.313 10.422 35.313 10.769 C 35.313 11.069 35.276 11.392 35.203 11.739 C 35.13 12.079 34.963 12.402 34.703 12.709 C 34.443 13.009 34.06 13.262 33.553 13.469 C 33.046 13.669 32.37 13.769 31.523 13.769 ZM 40.342 10.349 L 38.592 10.349 L 38.592 13.569 L 36.802 13.569 L 36.802 3.769 L 39.572 3.769 C 40.279 3.769 40.899 3.809 41.432 3.889 C 41.959 3.969 42.392 4.122 42.732 4.349 C 43.079 4.576 43.339 4.892 43.512 5.299 C 43.686 5.706 43.772 6.232 43.772 6.879 C 43.772 7.559 43.666 8.122 43.452 8.569 C 43.239 9.009 42.962 9.362 42.622 9.629 C 42.289 9.896 41.919 10.082 41.512 10.189 C 41.106 10.296 40.716 10.349 40.342 10.349 M 40.062 5.269 L 38.592 5.269 L 38.592 8.669 L 40.102 8.669 C 40.769 8.669 41.242 8.536 41.522 8.269 C 41.809 8.002 41.952 7.542 41.952 6.889 C 41.952 6.602 41.922 6.356 41.862 6.149 C 41.802 5.942 41.699 5.776 41.552 5.649 C 41.406 5.516 41.212 5.419 40.972 5.359 C 40.732 5.299 40.429 5.269 40.062 5.269 ZM 51.556 13.569 L 45.146 13.569 L 45.146 3.769 L 51.416 3.769 L 51.416 5.509 L 46.976 5.509 L 46.976 7.589 L 50.426 7.589 L 50.426 9.329 L 46.976 9.329 L 46.976 11.829 L 51.556 11.829 L 51.556 13.569 ZM 57.211 13.769 C 56.511 13.769 55.864 13.646 55.271 13.399 C 54.677 13.159 54.167 12.816 53.741 12.369 C 53.307 11.916 52.974 11.379 52.741 10.759 C 52.501 10.132 52.381 9.436 52.381 8.669 C 52.381 7.902 52.501 7.206 52.741 6.579 C 52.987 5.959 53.321 5.422 53.741 4.969 C 54.167 4.522 54.677 4.179 55.271 3.939 C 55.864 3.692 56.511 3.569 57.211 3.569 C 58.277 3.569 59.207 3.762 60.001 4.149 L 59.801 5.859 C 58.874 5.486 58.011 5.299 57.211 5.299 C 56.744 5.299 56.334 5.379 55.981 5.539 C 55.627 5.706 55.327 5.936 55.081 6.229 C 54.841 6.522 54.657 6.876 54.531 7.289 C 54.404 7.702 54.341 8.162 54.341 8.669 C 54.341 9.176 54.404 9.636 54.531 10.049 C 54.657 10.462 54.841 10.816 55.081 11.109 C 55.327 11.402 55.627 11.632 55.981 11.799 C 56.334 11.959 56.744 12.039 57.211 12.039 C 58.011 12.039 58.874 11.852 59.801 11.479 L 60.001 13.189 C 59.207 13.576 58.277 13.769 57.211 13.769 ZM 67.966 5.509 L 65.186 5.509 L 65.186 13.569 L 63.396 13.569 L 63.396 5.509 L 60.626 5.509 L 60.626 3.769 L 67.966 3.769 L 67.966 5.509 ZM 76.751 13.569 L 74.891 13.569 L 72.861 9.929 L 71.041 9.929 L 71.041 13.569 L 69.251 13.569 L 69.251 3.769 L 72.831 3.769 C 75.085 3.769 76.211 4.712 76.211 6.599 C 76.211 7.299 76.065 7.869 75.771 8.309 C 75.485 8.742 75.075 9.122 74.541 9.449 L 76.751 13.569 M 72.431 5.269 L 71.041 5.269 L 71.041 8.249 L 72.361 8.249 C 73.115 8.249 73.631 8.119 73.911 7.859 C 74.191 7.606 74.331 7.226 74.331 6.719 C 74.331 6.226 74.195 5.859 73.921 5.619 C 73.655 5.386 73.158 5.269 72.431 5.269 ZM 77.904 9.369 L 77.904 3.769 L 79.694 3.769 L 79.694 8.769 C 79.694 9.289 79.731 9.752 79.804 10.159 C 79.878 10.566 80.001 10.909 80.174 11.189 C 80.348 11.469 80.578 11.682 80.864 11.829 C 81.158 11.969 81.524 12.039 81.964 12.039 C 82.391 12.039 82.751 11.969 83.044 11.829 C 83.338 11.682 83.571 11.469 83.744 11.189 C 83.918 10.909 84.041 10.566 84.114 10.159 C 84.188 9.752 84.224 9.289 84.224 8.769 L 84.224 3.769 L 86.024 3.769 L 86.024 9.369 C 86.024 10.742 85.681 11.819 84.994 12.599 C 84.314 13.379 83.304 13.769 81.964 13.769 C 80.618 13.769 79.604 13.379 78.924 12.599 C 78.244 11.819 77.904 10.742 77.904 9.369 ZM 97.909 13.569 L 96.039 13.569 L 95.199 6.999 L 92.699 11.509 L 90.179 7.019 L 89.339 13.569 L 87.479 13.569 L 88.829 3.769 L 90.299 3.769 L 92.699 8.239 L 95.079 3.769 L 96.549 3.769 L 97.909 13.569 Z" transform="matrix(1, 0, 0, 1, 0, 0)" style="fill: rgb(255, 255, 255); white-space: pre;"/>
  <path d="M 0 18 L 3.869 0" style="fill: none; stroke-linecap: round; stroke: rgb(134, 119, 64);" bx:origin="0 0.5"/>
  <polygon fill="#CA2825" points="108.496 5.694 101.885 12.307 105.648 12.307 112.26 5.694"/>
  <polygon fill="#FDC601" points="112.268 5.694 105.656 12.307 109.419 12.307 116.031 5.694"/>
  <polygon fill="#009C37" points="116.037 5.694 109.425 12.307 113.188 12.307 119.8 5.694"/>
  <polygon fill="#02559C" points="119.801 5.694 113.189 12.307 116.952 12.307 123.564 5.694"/>
</svg>