<?xml version="1.0" encoding="utf-8"?>
<svg viewBox="0 0 93.8 18" xmlns="http://www.w3.org/2000/svg" xmlns:bx="https://boxy-svg.com">
  <path d="M 12.625 10.349 L 10.875 10.349 L 10.875 13.569 L 9.085 13.569 L 9.085 3.769 L 11.855 3.769 C 12.562 3.769 13.182 3.809 13.715 3.889 C 14.242 3.969 14.675 4.122 15.015 4.349 C 15.362 4.576 15.622 4.892 15.795 5.299 C 15.968 5.706 16.055 6.232 16.055 6.879 C 16.055 7.559 15.948 8.122 15.735 8.569 C 15.522 9.009 15.245 9.362 14.905 9.629 C 14.572 9.896 14.202 10.082 13.795 10.189 C 13.388 10.296 12.998 10.349 12.625 10.349 M 12.345 5.269 L 10.875 5.269 L 10.875 8.669 L 12.385 8.669 C 13.052 8.669 13.525 8.536 13.805 8.269 C 14.092 8.002 14.235 7.542 14.235 6.889 C 14.235 6.602 14.205 6.356 14.145 6.149 C 14.085 5.942 13.982 5.776 13.835 5.649 C 13.688 5.516 13.495 5.419 13.255 5.359 C 13.015 5.299 12.712 5.269 12.345 5.269 ZM 23.248 13.569 L 17.428 13.569 L 17.428 3.769 L 19.218 3.769 L 19.218 11.829 L 23.248 11.829 L 23.248 13.569 ZM 32.058 13.569 L 30.198 13.569 L 29.358 11.199 L 26.088 11.199 L 25.248 13.569 L 23.388 13.569 L 26.878 3.769 L 28.568 3.769 L 32.058 13.569 M 28.738 9.469 L 27.718 6.599 L 26.708 9.469 L 28.738 9.469 ZM 39.671 3.769 L 36.281 9.229 L 36.281 13.569 L 34.491 13.569 L 34.491 9.229 L 31.101 3.769 L 33.011 3.769 L 35.391 7.629 L 37.771 3.769 L 39.671 3.769 ZM 43.422 13.769 C 42.722 13.769 42.082 13.699 41.502 13.559 C 40.922 13.419 40.479 13.249 40.172 13.049 L 40.382 11.009 C 40.682 11.296 41.102 11.539 41.642 11.739 C 42.175 11.939 42.782 12.039 43.462 12.039 C 44.629 12.039 45.212 11.686 45.212 10.979 C 45.212 10.772 45.165 10.589 45.072 10.429 C 44.972 10.262 44.845 10.119 44.692 9.999 C 44.539 9.879 44.369 9.776 44.182 9.689 C 44.002 9.609 43.822 9.539 43.642 9.479 L 42.332 9.019 L 41.772 8.779 C 41.185 8.539 40.755 8.249 40.482 7.909 C 40.209 7.576 40.059 7.109 40.032 6.509 C 40.032 6.136 40.102 5.776 40.242 5.429 C 40.382 5.076 40.599 4.762 40.892 4.489 C 41.179 4.216 41.545 3.996 41.992 3.829 C 42.439 3.656 42.965 3.569 43.572 3.569 C 43.885 3.569 44.195 3.592 44.502 3.639 C 44.815 3.686 45.112 3.746 45.392 3.819 C 45.672 3.886 45.925 3.966 46.152 4.059 C 46.379 4.152 46.562 4.242 46.702 4.329 L 46.512 6.159 C 45.432 5.572 44.475 5.279 43.642 5.279 C 43.402 5.279 43.175 5.299 42.962 5.339 C 42.749 5.372 42.559 5.432 42.392 5.519 C 42.232 5.606 42.102 5.712 42.002 5.839 C 41.902 5.972 41.852 6.132 41.852 6.319 C 41.852 6.559 41.912 6.746 42.032 6.879 C 42.145 7.019 42.315 7.139 42.542 7.239 C 42.775 7.346 43.065 7.452 43.412 7.559 C 43.752 7.666 44.152 7.806 44.612 7.979 L 45.372 8.279 C 45.565 8.352 45.769 8.459 45.982 8.599 C 46.195 8.739 46.395 8.912 46.582 9.119 C 46.762 9.326 46.912 9.566 47.032 9.839 C 47.152 10.112 47.212 10.422 47.212 10.769 C 47.212 11.069 47.175 11.392 47.102 11.739 C 47.029 12.079 46.862 12.402 46.602 12.709 C 46.342 13.009 45.959 13.262 45.452 13.469 C 44.945 13.669 44.269 13.769 43.422 13.769 ZM 55.171 5.509 L 52.391 5.509 L 52.391 13.569 L 50.601 13.569 L 50.601 5.509 L 47.831 5.509 L 47.831 3.769 L 55.171 3.769 L 55.171 5.509 ZM 63.345 13.569 L 61.485 13.569 L 60.645 11.199 L 57.375 11.199 L 56.535 13.569 L 54.675 13.569 L 58.165 3.769 L 59.855 3.769 L 63.345 13.569 M 60.025 9.469 L 59.005 6.599 L 57.995 9.469 L 60.025 9.469 ZM 70.192 5.509 L 67.412 5.509 L 67.412 13.569 L 65.622 13.569 L 65.622 5.509 L 62.852 5.509 L 62.852 3.769 L 70.192 3.769 L 70.192 5.509 ZM 73.267 13.569 L 71.477 13.569 L 71.477 3.769 L 73.267 3.769 L 73.267 13.569 ZM 83.135 12.369 C 82.241 13.302 81.085 13.769 79.665 13.769 C 78.965 13.769 78.318 13.646 77.725 13.399 C 77.131 13.159 76.621 12.816 76.195 12.369 C 75.761 11.916 75.428 11.379 75.195 10.759 C 74.955 10.132 74.835 9.436 74.835 8.669 C 74.835 7.902 74.955 7.206 75.195 6.579 C 75.441 5.959 75.775 5.422 76.195 4.969 C 76.621 4.522 77.131 4.179 77.725 3.939 C 78.318 3.692 78.965 3.569 79.665 3.569 C 80.365 3.569 81.011 3.692 81.605 3.939 C 82.198 4.192 82.708 4.542 83.135 4.989 C 83.568 5.436 83.901 5.972 84.135 6.599 C 84.375 7.226 84.495 7.916 84.495 8.669 C 84.495 10.202 84.041 11.436 83.135 12.369 M 81.795 6.219 C 81.301 5.606 80.591 5.299 79.665 5.299 C 79.198 5.299 78.788 5.379 78.435 5.539 C 78.081 5.706 77.781 5.936 77.535 6.229 C 77.295 6.522 77.111 6.876 76.985 7.289 C 76.858 7.702 76.795 8.162 76.795 8.669 C 76.795 9.176 76.858 9.636 76.985 10.049 C 77.111 10.462 77.295 10.816 77.535 11.109 C 77.781 11.402 78.081 11.632 78.435 11.799 C 78.788 11.959 79.198 12.039 79.665 12.039 C 80.131 12.039 80.541 11.959 80.895 11.799 C 81.248 11.632 81.548 11.402 81.795 11.109 C 82.035 10.816 82.218 10.462 82.345 10.049 C 82.471 9.636 82.535 9.176 82.535 8.669 C 82.535 7.662 82.288 6.846 81.795 6.219 ZM 93.804 13.569 L 92.334 13.569 L 87.854 6.849 L 87.854 13.569 L 86.064 13.569 L 86.064 3.769 L 87.824 3.769 L 92.014 10.099 L 92.014 3.769 L 93.804 3.769 L 93.804 13.569 Z" transform="matrix(1, 0, 0, 1, 0, 0)" style="fill: rgb(255, 255, 255); white-space: pre;"/>
  <path d="M 0 18 L 3.869 0" style="fill: none; stroke-linecap: round; stroke: rgb(134, 119, 64);" bx:origin="0 0.5"/>
</svg>