<?xml version="1.0" encoding="UTF-8" standalone="no"?>
<svg width="95px" height="18px" viewBox="0 0 95 18" version="1.1" xmlns="http://www.w3.org/2000/svg" xmlns:xlink="http://www.w3.org/1999/xlink">
    <!-- Generator: Sketch 45 (43475) - http://www.bohemiancoding.com/sketch -->
    <title>system</title>
    <desc>Created with Sketch.</desc>
    <defs></defs>
    <g id="Page-1" stroke="none" stroke-width="1" fill="none" fill-rule="evenodd">
        <path d="M12.62,10.78 L10.87,10.78 L10.87,14 L9.078,14 L9.078,4.2 L11.85,4.2 C12.587337,4.2 13.1916643,4.23733296 13.663,4.312 C14.1343357,4.38666704 14.5636647,4.53133226 14.951,4.746 C15.3383353,4.96066774 15.6183325,5.27566459 15.791,5.691 C15.9636675,6.10633541 16.05,6.64533002 16.05,7.308 C16.05,7.97066998 15.9403344,8.54233093 15.721,9.023 C15.5016656,9.50366907 15.2100018,9.86533212 14.846,10.108 C14.4819982,10.3506679 14.1180018,10.5233328 13.754,10.626 C13.3899982,10.7286672 13.012002,10.78 12.62,10.78 Z M12.34,5.698 L10.87,5.698 L10.87,9.1 L12.382,9.1 C13.04467,9.1 13.5183319,8.96700133 13.803,8.701 C14.0876681,8.43499867 14.23,7.9753366 14.23,7.322 C14.23,6.74333044 14.0970013,6.32800126 13.831,6.076 C13.5649987,5.82399874 13.0680036,5.698 12.34,5.698 Z M23.246,14 L17.422,14 L17.422,4.2 L19.214,4.2 L19.214,12.264 L23.246,12.264 L23.246,14 Z M32.052,14 L30.19,14 L29.35,11.634 L26.088,11.634 L25.248,14 L23.386,14 L26.872,4.2 L28.566,4.2 L32.052,14 Z M28.734,9.898 L27.712,7.028 L26.704,9.898 L28.734,9.898 Z M39.668,4.2 L36.28,9.66 L36.28,14 L34.488,14 L34.488,9.66 L31.1,4.2 L33.004,4.2 L35.384,8.064 L37.764,4.2 L39.668,4.2 Z M43.42,14.196 C42.7199965,14.196 42.0806696,14.1260007 41.502,13.986 C40.9233304,13.8459993 40.4800015,13.678001 40.172,13.482 L40.382,11.438 C40.6806682,11.7273348 41.0983307,11.9723323 41.635,12.173 C42.1716694,12.3736677 42.7806633,12.474 43.462,12.474 C44.6286725,12.474 45.212,12.1193369 45.212,11.41 C45.212,11.213999 45.1653338,11.0366675 45.072,10.878 C44.9786662,10.7193325 44.8783339,10.5886672 44.771,10.486 C44.6636661,10.3833328 44.4840013,10.2736672 44.232,10.157 C43.9799987,10.0403328 43.7840007,9.95633359 43.644,9.905 C43.5039993,9.85366641 43.2660017,9.77200056 42.93,9.66 C42.6406652,9.5666662 42.4400006,9.4966669 42.328,9.45 L41.768,9.212 C41.5066654,9.10933282 41.3153339,9.01833373 41.194,8.939 C41.0726661,8.85966627 40.9233342,8.74766739 40.746,8.603 C40.5686658,8.45833261 40.4380004,8.31133408 40.354,8.162 C40.2699996,8.01266592 40.1953337,7.83300105 40.13,7.623 C40.0646663,7.41299895 40.032,7.18666788 40.032,6.944 C40.032,6.17866284 40.3213304,5.49733632 40.9,4.9 C41.4786696,4.30266368 42.369994,4.004 43.574,4.004 C44.1993365,4.004 44.8036637,4.08333254 45.387,4.242 C45.9703363,4.40066746 46.4066652,4.5733324 46.696,4.76 L46.514,6.594 C45.4406613,6.00599706 44.4840042,5.712 43.644,5.712 C43.1679976,5.712 42.7503351,5.79133254 42.391,5.95 C42.0316649,6.10866746 41.852,6.3746648 41.852,6.748 C41.852,7.10266844 42.0153317,7.37566571 42.342,7.567 C42.6686683,7.75833429 43.16333,7.95666564 43.826,8.162 C44.1713351,8.26466718 44.4349991,8.34866634 44.617,8.414 C44.7990009,8.47933366 45.0486651,8.57733268 45.366,8.708 C45.6833349,8.83866732 45.9306658,8.97633261 46.108,9.121 C46.2853342,9.26566739 46.4696657,9.44299895 46.661,9.653 C46.8523343,9.86300105 46.9923329,10.1103319 47.081,10.395 C47.1696671,10.6796681 47.214,10.9946649 47.214,11.34 C47.214,11.6013346 47.1906669,11.8463322 47.144,12.075 C47.0973331,12.3036678 46.9923342,12.553332 46.829,12.824 C46.6656659,13.094668 46.4510013,13.3256657 46.185,13.517 C45.9189987,13.7083343 45.5503357,13.8693327 45.079,14 C44.6076643,14.1306673 44.0546698,14.196 43.42,14.196 Z M55.166,5.936 L52.394,5.936 L52.394,14 L50.602,14 L50.602,5.936 L47.83,5.936 L47.83,4.2 L55.166,4.2 L55.166,5.936 Z M63.342,14 L61.48,14 L60.64,11.634 L57.378,11.634 L56.538,14 L54.676,14 L58.162,4.2 L59.856,4.2 L63.342,14 Z M60.024,9.898 L59.002,7.028 L57.994,9.898 L60.024,9.898 Z M70.188,5.936 L67.416,5.936 L67.416,14 L65.624,14 L65.624,5.936 L62.852,5.936 L62.852,4.2 L70.188,4.2 L70.188,5.936 Z M73.268,14 L71.476,14 L71.476,4.2 L73.268,4.2 L73.268,14 Z M79.666,14.196 C78.2473262,14.196 77.0876712,13.7270047 76.187,12.789 C75.2863288,11.8509953 74.836,10.6213409 74.836,9.1 C74.836,7.57865906 75.2863288,6.34900469 76.187,5.411 C77.0876712,4.47299531 78.2473262,4.004 79.666,4.004 C81.0846738,4.004 82.2443288,4.47299531 83.145,5.411 C84.0456712,6.34900469 84.496,7.57865906 84.496,9.1 C84.496,10.6213409 84.0456712,11.8509953 83.145,12.789 C82.2443288,13.7270047 81.0846738,14.196 79.666,14.196 Z M79.666,5.726 C78.7419954,5.726 78.0326691,6.03399692 77.538,6.65 C77.0433309,7.26600308 76.796,8.08266158 76.796,9.1 C76.796,10.1173384 77.0433309,10.9339969 77.538,11.55 C78.0326691,12.1660031 78.7419954,12.474 79.666,12.474 C80.5900046,12.474 81.2993309,12.1660031 81.794,11.55 C82.2886691,10.9339969 82.536,10.1173384 82.536,9.1 C82.536,8.08266158 82.2886691,7.26600308 81.794,6.65 C81.2993309,6.03399692 80.5900046,5.726 79.666,5.726 Z M93.806,14 L92.336,14 L87.856,7.28 L87.856,14 L86.064,14 L86.064,4.2 L87.828,4.2 L92.014,10.528 L92.014,4.2 L93.806,4.2 L93.806,14 Z" id="PLAYSTATION-Copy" fill="#FFFFFF"></path>
        <g id="system" stroke="#867740" stroke-linecap="round">
            <path d="M0.5,17.5 L4.5,0.5" id="Shape"></path>
        </g>
    </g>
</svg>