<?xml version="1.0" encoding="utf-8"?>
<svg viewBox="0 0 100 18" xmlns="http://www.w3.org/2000/svg" xmlns:bx="https://boxy-svg.com">
  <path d="M 11.925 13.769 C 11.225 13.769 10.585 13.699 10.005 13.559 C 9.425 13.419 8.982 13.249 8.675 13.049 L 8.885 11.009 C 9.185 11.296 9.605 11.539 10.145 11.739 C 10.678 11.939 11.285 12.039 11.965 12.039 C 13.132 12.039 13.715 11.686 13.715 10.979 C 13.715 10.772 13.668 10.589 13.575 10.429 C 13.475 10.262 13.348 10.119 13.195 9.999 C 13.042 9.879 12.872 9.776 12.685 9.689 C 12.505 9.609 12.325 9.539 12.145 9.479 L 10.835 9.019 L 10.275 8.779 C 9.688 8.539 9.258 8.249 8.985 7.909 C 8.712 7.576 8.562 7.109 8.535 6.509 C 8.535 6.136 8.605 5.776 8.745 5.429 C 8.885 5.076 9.102 4.762 9.395 4.489 C 9.682 4.216 10.048 3.996 10.495 3.829 C 10.942 3.656 11.468 3.569 12.075 3.569 C 12.388 3.569 12.698 3.592 13.005 3.639 C 13.318 3.686 13.615 3.746 13.895 3.819 C 14.175 3.886 14.428 3.966 14.655 4.059 C 14.882 4.152 15.065 4.242 15.205 4.329 L 15.015 6.159 C 13.935 5.572 12.978 5.279 12.145 5.279 C 11.905 5.279 11.678 5.299 11.465 5.339 C 11.252 5.372 11.062 5.432 10.895 5.519 C 10.735 5.606 10.605 5.712 10.505 5.839 C 10.405 5.972 10.355 6.132 10.355 6.319 C 10.355 6.559 10.415 6.746 10.535 6.879 C 10.648 7.019 10.818 7.139 11.045 7.239 C 11.278 7.346 11.568 7.452 11.915 7.559 C 12.255 7.666 12.655 7.806 13.115 7.979 L 13.875 8.279 C 14.068 8.352 14.272 8.459 14.485 8.599 C 14.698 8.739 14.898 8.912 15.085 9.119 C 15.265 9.326 15.415 9.566 15.535 9.839 C 15.655 10.112 15.715 10.422 15.715 10.769 C 15.715 11.069 15.678 11.392 15.605 11.739 C 15.532 12.079 15.365 12.402 15.105 12.709 C 14.845 13.009 14.462 13.262 13.955 13.469 C 13.448 13.669 12.772 13.769 11.925 13.769 ZM 23.612 13.569 L 17.202 13.569 L 17.202 3.769 L 23.472 3.769 L 23.472 5.509 L 19.032 5.509 L 19.032 7.589 L 22.482 7.589 L 22.482 9.329 L 19.032 9.329 L 19.032 11.829 L 23.612 11.829 L 23.612 13.569 ZM 29.225 13.769 C 28.531 13.769 27.891 13.646 27.305 13.399 C 26.718 13.159 26.211 12.816 25.785 12.369 C 25.358 11.916 25.028 11.376 24.795 10.749 C 24.555 10.116 24.435 9.419 24.435 8.659 C 24.435 7.899 24.555 7.206 24.795 6.579 C 25.028 5.959 25.361 5.426 25.795 4.979 C 26.221 4.539 26.738 4.192 27.345 3.939 C 27.945 3.692 28.605 3.569 29.325 3.569 C 29.558 3.569 29.811 3.586 30.085 3.619 C 30.358 3.646 30.628 3.682 30.895 3.729 C 31.161 3.782 31.415 3.846 31.655 3.919 C 31.888 3.986 32.091 4.062 32.265 4.149 L 32.065 5.859 C 31.171 5.486 30.271 5.299 29.365 5.299 C 28.871 5.299 28.438 5.376 28.065 5.529 C 27.698 5.689 27.391 5.916 27.145 6.209 C 26.898 6.502 26.711 6.852 26.585 7.259 C 26.458 7.666 26.395 8.122 26.395 8.629 C 26.395 9.149 26.461 9.619 26.595 10.039 C 26.721 10.459 26.915 10.816 27.175 11.109 C 27.441 11.402 27.761 11.632 28.135 11.799 C 28.515 11.959 28.951 12.039 29.445 12.039 C 29.831 12.039 30.281 11.989 30.795 11.889 L 30.795 10.139 L 29.715 10.139 L 29.715 8.659 L 32.585 8.659 L 32.585 13.019 C 32.418 13.126 32.198 13.222 31.925 13.309 C 31.651 13.396 31.361 13.476 31.055 13.549 C 30.741 13.616 30.421 13.669 30.095 13.709 C 29.775 13.749 29.485 13.769 29.225 13.769 ZM 41.947 13.569 L 40.087 13.569 L 39.247 11.199 L 35.977 11.199 L 35.137 13.569 L 33.277 13.569 L 36.767 3.769 L 38.457 3.769 L 41.947 13.569 M 38.627 9.469 L 37.607 6.599 L 36.597 9.469 L 38.627 9.469 ZM 50.412 13.769 C 49.719 13.769 49.079 13.646 48.492 13.399 C 47.906 13.159 47.399 12.816 46.972 12.369 C 46.546 11.916 46.216 11.376 45.982 10.749 C 45.742 10.116 45.622 9.419 45.622 8.659 C 45.622 7.899 45.742 7.206 45.982 6.579 C 46.216 5.959 46.549 5.426 46.982 4.979 C 47.409 4.539 47.926 4.192 48.532 3.939 C 49.132 3.692 49.792 3.569 50.512 3.569 C 50.746 3.569 50.999 3.586 51.272 3.619 C 51.546 3.646 51.816 3.682 52.082 3.729 C 52.349 3.782 52.602 3.846 52.842 3.919 C 53.076 3.986 53.279 4.062 53.452 4.149 L 53.252 5.859 C 52.359 5.486 51.459 5.299 50.552 5.299 C 50.059 5.299 49.626 5.376 49.252 5.529 C 48.886 5.689 48.579 5.916 48.332 6.209 C 48.086 6.502 47.899 6.852 47.772 7.259 C 47.646 7.666 47.582 8.122 47.582 8.629 C 47.582 9.149 47.649 9.619 47.782 10.039 C 47.909 10.459 48.102 10.816 48.362 11.109 C 48.629 11.402 48.949 11.632 49.322 11.799 C 49.702 11.959 50.139 12.039 50.632 12.039 C 51.019 12.039 51.469 11.989 51.982 11.889 L 51.982 10.139 L 50.902 10.139 L 50.902 8.659 L 53.772 8.659 L 53.772 13.019 C 53.606 13.126 53.386 13.222 53.112 13.309 C 52.839 13.396 52.549 13.476 52.242 13.549 C 51.929 13.616 51.609 13.669 51.282 13.709 C 50.962 13.749 50.672 13.769 50.412 13.769 ZM 61.915 13.569 L 55.505 13.569 L 55.505 3.769 L 61.775 3.769 L 61.775 5.509 L 57.335 5.509 L 57.335 7.589 L 60.785 7.589 L 60.785 9.329 L 57.335 9.329 L 57.335 11.829 L 61.915 11.829 L 61.915 13.569 ZM 71.194 13.569 L 69.724 13.569 L 65.244 6.849 L 65.244 13.569 L 63.454 13.569 L 63.454 3.769 L 65.214 3.769 L 69.404 10.099 L 69.404 3.769 L 71.194 3.769 L 71.194 13.569 ZM 79.758 13.569 L 73.348 13.569 L 73.348 3.769 L 79.618 3.769 L 79.618 5.509 L 75.178 5.509 L 75.178 7.589 L 78.628 7.589 L 78.628 9.329 L 75.178 9.329 L 75.178 11.829 L 79.758 11.829 L 79.758 13.569 ZM 84.137 13.769 C 83.437 13.769 82.797 13.699 82.217 13.559 C 81.637 13.419 81.193 13.249 80.887 13.049 L 81.097 11.009 C 81.397 11.296 81.817 11.539 82.357 11.739 C 82.89 11.939 83.497 12.039 84.177 12.039 C 85.343 12.039 85.927 11.686 85.927 10.979 C 85.927 10.772 85.88 10.589 85.787 10.429 C 85.687 10.262 85.56 10.119 85.407 9.999 C 85.253 9.879 85.083 9.776 84.897 9.689 C 84.717 9.609 84.537 9.539 84.357 9.479 L 83.047 9.019 L 82.487 8.779 C 81.9 8.539 81.47 8.249 81.197 7.909 C 80.923 7.576 80.773 7.109 80.747 6.509 C 80.747 6.136 80.817 5.776 80.957 5.429 C 81.097 5.076 81.313 4.762 81.607 4.489 C 81.893 4.216 82.26 3.996 82.707 3.829 C 83.153 3.656 83.68 3.569 84.287 3.569 C 84.6 3.569 84.91 3.592 85.217 3.639 C 85.53 3.686 85.827 3.746 86.107 3.819 C 86.387 3.886 86.64 3.966 86.867 4.059 C 87.093 4.152 87.277 4.242 87.417 4.329 L 87.227 6.159 C 86.147 5.572 85.19 5.279 84.357 5.279 C 84.117 5.279 83.89 5.299 83.677 5.339 C 83.463 5.372 83.273 5.432 83.107 5.519 C 82.947 5.606 82.817 5.712 82.717 5.839 C 82.617 5.972 82.567 6.132 82.567 6.319 C 82.567 6.559 82.627 6.746 82.747 6.879 C 82.86 7.019 83.03 7.139 83.257 7.239 C 83.49 7.346 83.78 7.452 84.127 7.559 C 84.467 7.666 84.867 7.806 85.327 7.979 L 86.087 8.279 C 86.28 8.352 86.483 8.459 86.697 8.599 C 86.91 8.739 87.11 8.912 87.297 9.119 C 87.477 9.326 87.627 9.566 87.747 9.839 C 87.867 10.112 87.927 10.422 87.927 10.769 C 87.927 11.069 87.89 11.392 87.817 11.739 C 87.743 12.079 87.577 12.402 87.317 12.709 C 87.057 13.009 86.673 13.262 86.167 13.469 C 85.66 13.669 84.983 13.769 84.137 13.769 ZM 91.203 13.569 L 89.413 13.569 L 89.413 3.769 L 91.203 3.769 L 91.203 13.569 ZM 96.2 13.769 C 95.5 13.769 94.86 13.699 94.28 13.559 C 93.7 13.419 93.257 13.249 92.95 13.049 L 93.16 11.009 C 93.46 11.296 93.88 11.539 94.42 11.739 C 94.953 11.939 95.56 12.039 96.24 12.039 C 97.407 12.039 97.99 11.686 97.99 10.979 C 97.99 10.772 97.943 10.589 97.85 10.429 C 97.75 10.262 97.623 10.119 97.47 9.999 C 97.317 9.879 97.147 9.776 96.96 9.689 C 96.78 9.609 96.6 9.539 96.42 9.479 L 95.11 9.019 L 94.55 8.779 C 93.963 8.539 93.533 8.249 93.26 7.909 C 92.987 7.576 92.837 7.109 92.81 6.509 C 92.81 6.136 92.88 5.776 93.02 5.429 C 93.16 5.076 93.377 4.762 93.67 4.489 C 93.957 4.216 94.323 3.996 94.77 3.829 C 95.217 3.656 95.743 3.569 96.35 3.569 C 96.663 3.569 96.973 3.592 97.28 3.639 C 97.593 3.686 97.89 3.746 98.17 3.819 C 98.45 3.886 98.703 3.966 98.93 4.059 C 99.157 4.152 99.34 4.242 99.48 4.329 L 99.29 6.159 C 98.21 5.572 97.253 5.279 96.42 5.279 C 96.18 5.279 95.953 5.299 95.74 5.339 C 95.527 5.372 95.337 5.432 95.17 5.519 C 95.01 5.606 94.88 5.712 94.78 5.839 C 94.68 5.972 94.63 6.132 94.63 6.319 C 94.63 6.559 94.69 6.746 94.81 6.879 C 94.923 7.019 95.093 7.139 95.32 7.239 C 95.553 7.346 95.843 7.452 96.19 7.559 C 96.53 7.666 96.93 7.806 97.39 7.979 L 98.15 8.279 C 98.343 8.352 98.547 8.459 98.76 8.599 C 98.973 8.739 99.173 8.912 99.36 9.119 C 99.54 9.326 99.69 9.566 99.81 9.839 C 99.93 10.112 99.99 10.422 99.99 10.769 C 99.99 11.069 99.953 11.392 99.88 11.739 C 99.807 12.079 99.64 12.402 99.38 12.709 C 99.12 13.009 98.737 13.262 98.23 13.469 C 97.723 13.669 97.047 13.769 96.2 13.769 Z" transform="matrix(1, 0, 0, 1, 0, 0)" style="white-space: pre; fill: rgb(255, 255, 255);"/>
  <path d="M 0 18 L 3.869 0" style="fill: none; stroke-linecap: round; stroke: rgb(134, 119, 64);" bx:origin="0 0.5"/>
  <path d="M -291.325 -38.966 Z" style="stroke: black; fill: none;"/>
  <path d="M -258.185 -57.571 Z" style="stroke: black; fill: none;"/>
  <path d="M 70.311 26.152 Z" style="stroke: black; fill: none;"/>
  <path d="M 117.406 27.314 Z" style="stroke: black; fill: none;"/>
  <path d="M -339.582 -122.689 Z" style="stroke: black; fill: none;"/>
</svg>