<?xml version="1.0" encoding="UTF-8" standalone="no"?>
<svg width="64px" height="18px" viewBox="0 0 64 18" version="1.1" xmlns="http://www.w3.org/2000/svg" xmlns:xlink="http://www.w3.org/1999/xlink">
    <!-- Generator: Sketch 45 (43475) - http://www.bohemiancoding.com/sketch -->
    <title>system</title>
    <desc>Created with Sketch.</desc>
    <defs></defs>
    <g id="Page-1" stroke="none" stroke-width="1" fill="none" fill-rule="evenodd">
        <path d="M13.278,14.196 C11.8873264,14.196 10.7416712,13.7270047 9.841,12.789 C8.94032883,11.8509953 8.49,10.6166743 8.49,9.086 C8.49,7.56465906 8.94266214,6.337338 9.848,5.404 C10.7533379,4.470662 11.9293261,4.004 13.376,4.004 C13.8706691,4.004 14.3979972,4.05766613 14.958,4.165 C15.5180028,4.27233387 15.9706649,4.40999916 16.316,4.578 L16.12,6.286 C15.2053288,5.9126648 14.3046711,5.726 13.418,5.726 C12.4379951,5.726 11.6983358,6.03166361 11.199,6.643 C10.6996642,7.25433639 10.45,8.05932834 10.45,9.058 C10.45,10.0940052 10.7113307,10.9223302 11.234,11.543 C11.7566693,12.1636698 12.5126617,12.474 13.502,12.474 C13.9033353,12.474 14.3513309,12.4226672 14.846,12.32 L14.846,10.57 L13.768,10.57 L13.768,9.086 L16.638,9.086 L16.638,13.454 C16.2833316,13.6593344 15.77467,13.8343326 15.112,13.979 C14.44933,14.1236674 13.8380028,14.196 13.278,14.196 Z M24.786,14 L18.374,14 L18.374,4.2 L24.646,4.2 L24.646,5.936 L20.208,5.936 L20.208,8.022 L23.652,8.022 L23.652,9.758 L20.208,9.758 L20.208,12.264 L24.786,12.264 L24.786,14 Z M34.068,14 L32.598,14 L28.118,7.28 L28.118,14 L26.326,14 L26.326,4.2 L28.09,4.2 L32.276,10.528 L32.276,4.2 L34.068,4.2 L34.068,14 Z M42.636,14 L36.224,14 L36.224,4.2 L42.496,4.2 L42.496,5.936 L38.058,5.936 L38.058,8.022 L41.502,8.022 L41.502,9.758 L38.058,9.758 L38.058,12.264 L42.636,12.264 L42.636,14 Z M47.018,14.196 C46.3179965,14.196 45.6786696,14.1260007 45.1,13.986 C44.5213304,13.8459993 44.0780015,13.678001 43.77,13.482 L43.98,11.438 C44.2786682,11.7273348 44.6963306,11.9723323 45.233,12.173 C45.7696694,12.3736677 46.3786633,12.474 47.06,12.474 C48.2266725,12.474 48.81,12.1193369 48.81,11.41 C48.81,11.213999 48.7633338,11.0366675 48.67,10.878 C48.5766662,10.7193325 48.4763339,10.5886672 48.369,10.486 C48.2616661,10.3833328 48.0820013,10.2736672 47.83,10.157 C47.5779987,10.0403328 47.3820007,9.95633359 47.242,9.905 C47.1019993,9.85366641 46.8640017,9.77200056 46.528,9.66 C46.2386652,9.5666662 46.0380006,9.4966669 45.926,9.45 L45.366,9.212 C45.1046654,9.10933282 44.9133339,9.01833373 44.792,8.939 C44.6706661,8.85966627 44.5213342,8.74766739 44.344,8.603 C44.1666658,8.45833261 44.0360004,8.31133408 43.952,8.162 C43.8679996,8.01266592 43.7933337,7.83300105 43.728,7.623 C43.6626663,7.41299895 43.63,7.18666788 43.63,6.944 C43.63,6.17866284 43.9193304,5.49733632 44.498,4.9 C45.0766696,4.30266368 45.967994,4.004 47.172,4.004 C47.7973365,4.004 48.4016637,4.08333254 48.985,4.242 C49.5683363,4.40066746 50.0046652,4.5733324 50.294,4.76 L50.112,6.594 C49.0386613,6.00599706 48.0820042,5.712 47.242,5.712 C46.7659976,5.712 46.3483351,5.79133254 45.989,5.95 C45.6296649,6.10866746 45.45,6.3746648 45.45,6.748 C45.45,7.10266844 45.6133317,7.37566571 45.94,7.567 C46.2666683,7.75833429 46.76133,7.95666564 47.424,8.162 C47.7693351,8.26466718 48.0329991,8.34866634 48.215,8.414 C48.3970009,8.47933366 48.6466651,8.57733268 48.964,8.708 C49.2813349,8.83866732 49.5286658,8.97633261 49.706,9.121 C49.8833342,9.26566739 50.0676657,9.44299895 50.259,9.653 C50.4503343,9.86300105 50.5903329,10.1103319 50.679,10.395 C50.7676671,10.6796681 50.812,10.9946649 50.812,11.34 C50.812,11.6013346 50.7886669,11.8463322 50.742,12.075 C50.6953331,12.3036678 50.5903341,12.553332 50.427,12.824 C50.2636659,13.094668 50.0490013,13.3256657 49.783,13.517 C49.5169987,13.7083343 49.1483357,13.8693327 48.677,14 C48.2056643,14.1306673 47.6526698,14.196 47.018,14.196 Z M54.088,14 L52.296,14 L52.296,4.2 L54.088,4.2 L54.088,14 Z M59.086,14.196 C58.3859965,14.196 57.7466696,14.1260007 57.168,13.986 C56.5893304,13.8459993 56.1460015,13.678001 55.838,13.482 L56.048,11.438 C56.3466682,11.7273348 56.7643307,11.9723323 57.301,12.173 C57.8376694,12.3736677 58.4466633,12.474 59.128,12.474 C60.2946725,12.474 60.878,12.1193369 60.878,11.41 C60.878,11.213999 60.8313338,11.0366675 60.738,10.878 C60.6446662,10.7193325 60.5443339,10.5886672 60.437,10.486 C60.3296661,10.3833328 60.1500013,10.2736672 59.898,10.157 C59.6459987,10.0403328 59.4500007,9.95633359 59.31,9.905 C59.1699993,9.85366641 58.9320017,9.77200056 58.596,9.66 C58.3066652,9.5666662 58.1060006,9.4966669 57.994,9.45 L57.434,9.212 C57.1726654,9.10933282 56.9813339,9.01833373 56.86,8.939 C56.7386661,8.85966627 56.5893342,8.74766739 56.412,8.603 C56.2346658,8.45833261 56.1040004,8.31133408 56.02,8.162 C55.9359996,8.01266592 55.8613337,7.83300105 55.796,7.623 C55.7306663,7.41299895 55.698,7.18666788 55.698,6.944 C55.698,6.17866284 55.9873304,5.49733632 56.566,4.9 C57.1446696,4.30266368 58.035994,4.004 59.24,4.004 C59.8653365,4.004 60.4696638,4.08333254 61.053,4.242 C61.6363363,4.40066746 62.0726652,4.5733324 62.362,4.76 L62.18,6.594 C61.1066613,6.00599706 60.1500042,5.712 59.31,5.712 C58.8339976,5.712 58.4163351,5.79133254 58.057,5.95 C57.6976649,6.10866746 57.518,6.3746648 57.518,6.748 C57.518,7.10266844 57.6813317,7.37566571 58.008,7.567 C58.3346683,7.75833429 58.82933,7.95666564 59.492,8.162 C59.8373351,8.26466718 60.1009991,8.34866634 60.283,8.414 C60.4650009,8.47933366 60.7146651,8.57733268 61.032,8.708 C61.3493349,8.83866732 61.5966658,8.97633261 61.774,9.121 C61.9513342,9.26566739 62.1356657,9.44299895 62.327,9.653 C62.5183343,9.86300105 62.6583329,10.1103319 62.747,10.395 C62.8356671,10.6796681 62.88,10.9946649 62.88,11.34 C62.88,11.6013346 62.8566669,11.8463322 62.81,12.075 C62.7633331,12.3036678 62.6583342,12.553332 62.495,12.824 C62.3316659,13.094668 62.1170013,13.3256657 61.851,13.517 C61.5849987,13.7083343 61.2163357,13.8693327 60.745,14 C60.2736643,14.1306673 59.7206698,14.196 59.086,14.196 Z" id="GENESIS-Copy" fill="#FFFFFF"></path>
        <g id="system" stroke="#867740" stroke-linecap="round">
            <path d="M0.5,17.5 L4.5,0.5" id="Shape"></path>
        </g>
    </g>
</svg>