<?xml version="1.0" encoding="utf-8"?>
<svg viewBox="0 0 88.07 18" xmlns="http://www.w3.org/2000/svg" xmlns:bx="https://boxy-svg.com">
  <path d="M 12.755 13.569 L 9.085 13.569 L 9.085 3.769 L 12.755 3.769 C 13.462 3.769 14.112 3.882 14.705 4.109 C 15.298 4.342 15.805 4.669 16.225 5.089 C 16.652 5.516 16.985 6.029 17.225 6.629 C 17.465 7.236 17.585 7.916 17.585 8.669 C 17.585 9.422 17.465 10.102 17.225 10.709 C 16.985 11.316 16.652 11.829 16.225 12.249 C 15.805 12.669 15.298 12.996 14.705 13.229 C 14.112 13.456 13.462 13.569 12.755 13.569 M 12.755 5.489 L 10.875 5.489 L 10.875 11.849 L 12.755 11.849 C 13.688 11.849 14.398 11.569 14.885 11.009 C 15.378 10.456 15.625 9.676 15.625 8.669 C 15.625 7.662 15.378 6.879 14.885 6.319 C 14.398 5.766 13.688 5.489 12.755 5.489 ZM 26.665 13.569 L 24.805 13.569 L 22.775 9.929 L 20.955 9.929 L 20.955 13.569 L 19.165 13.569 L 19.165 3.769 L 22.745 3.769 C 24.998 3.769 26.125 4.712 26.125 6.599 C 26.125 7.299 25.978 7.869 25.685 8.309 C 25.398 8.742 24.988 9.122 24.455 9.449 L 26.665 13.569 M 22.345 5.269 L 20.955 5.269 L 20.955 8.249 L 22.275 8.249 C 23.028 8.249 23.545 8.119 23.825 7.859 C 24.105 7.606 24.245 7.226 24.245 6.719 C 24.245 6.226 24.108 5.859 23.835 5.619 C 23.568 5.386 23.071 5.269 22.345 5.269 ZM 34.338 13.569 L 27.928 13.569 L 27.928 3.769 L 34.198 3.769 L 34.198 5.509 L 29.758 5.509 L 29.758 7.589 L 33.208 7.589 L 33.208 9.329 L 29.758 9.329 L 29.758 11.829 L 34.338 11.829 L 34.338 13.569 ZM 43.51 13.569 L 41.65 13.569 L 40.81 11.199 L 37.54 11.199 L 36.7 13.569 L 34.84 13.569 L 38.33 3.769 L 40.02 3.769 L 43.51 13.569 M 40.19 9.469 L 39.17 6.599 L 38.16 9.469 L 40.19 9.469 ZM 54.6 13.569 L 52.73 13.569 L 51.89 6.999 L 49.39 11.509 L 46.87 7.019 L 46.03 13.569 L 44.17 13.569 L 45.52 3.769 L 46.99 3.769 L 49.39 8.239 L 51.77 3.769 L 53.24 3.769 L 54.6 13.569 ZM 60.448 13.769 C 59.748 13.769 59.101 13.646 58.508 13.399 C 57.914 13.159 57.404 12.816 56.978 12.369 C 56.544 11.916 56.211 11.379 55.978 10.759 C 55.738 10.132 55.618 9.436 55.618 8.669 C 55.618 7.902 55.738 7.206 55.978 6.579 C 56.224 5.959 56.558 5.422 56.978 4.969 C 57.404 4.522 57.914 4.179 58.508 3.939 C 59.101 3.692 59.748 3.569 60.448 3.569 C 61.514 3.569 62.444 3.762 63.238 4.149 L 63.038 5.859 C 62.111 5.486 61.248 5.299 60.448 5.299 C 59.981 5.299 59.571 5.379 59.218 5.539 C 58.864 5.706 58.564 5.936 58.318 6.229 C 58.078 6.522 57.894 6.876 57.768 7.289 C 57.641 7.702 57.578 8.162 57.578 8.669 C 57.578 9.176 57.641 9.636 57.768 10.049 C 57.894 10.462 58.078 10.816 58.318 11.109 C 58.564 11.402 58.864 11.632 59.218 11.799 C 59.571 11.959 59.981 12.039 60.448 12.039 C 61.248 12.039 62.111 11.852 63.038 11.479 L 63.238 13.189 C 62.444 13.576 61.514 13.769 60.448 13.769 ZM 72.364 13.569 L 70.504 13.569 L 69.664 11.199 L 66.394 11.199 L 65.554 13.569 L 63.694 13.569 L 67.184 3.769 L 68.874 3.769 L 72.364 13.569 M 69.044 9.469 L 68.024 6.599 L 67.014 9.469 L 69.044 9.469 ZM 76.323 13.769 C 75.623 13.769 74.983 13.699 74.403 13.559 C 73.823 13.419 73.38 13.249 73.073 13.049 L 73.283 11.009 C 73.583 11.296 74.003 11.539 74.543 11.739 C 75.077 11.939 75.683 12.039 76.363 12.039 C 77.53 12.039 78.113 11.686 78.113 10.979 C 78.113 10.772 78.067 10.589 77.973 10.429 C 77.873 10.262 77.747 10.119 77.593 9.999 C 77.44 9.879 77.27 9.776 77.083 9.689 C 76.903 9.609 76.723 9.539 76.543 9.479 L 75.233 9.019 L 74.673 8.779 C 74.087 8.539 73.657 8.249 73.383 7.909 C 73.11 7.576 72.96 7.109 72.933 6.509 C 72.933 6.136 73.003 5.776 73.143 5.429 C 73.283 5.076 73.5 4.762 73.793 4.489 C 74.08 4.216 74.447 3.996 74.893 3.829 C 75.34 3.656 75.867 3.569 76.473 3.569 C 76.787 3.569 77.097 3.592 77.403 3.639 C 77.717 3.686 78.013 3.746 78.293 3.819 C 78.573 3.886 78.827 3.966 79.053 4.059 C 79.28 4.152 79.463 4.242 79.603 4.329 L 79.413 6.159 C 78.333 5.572 77.377 5.279 76.543 5.279 C 76.303 5.279 76.077 5.299 75.863 5.339 C 75.65 5.372 75.46 5.432 75.293 5.519 C 75.133 5.606 75.003 5.712 74.903 5.839 C 74.803 5.972 74.753 6.132 74.753 6.319 C 74.753 6.559 74.813 6.746 74.933 6.879 C 75.047 7.019 75.217 7.139 75.443 7.239 C 75.677 7.346 75.967 7.452 76.313 7.559 C 76.653 7.666 77.053 7.806 77.513 7.979 L 78.273 8.279 C 78.467 8.352 78.67 8.459 78.883 8.599 C 79.097 8.739 79.297 8.912 79.483 9.119 C 79.663 9.326 79.813 9.566 79.933 9.839 C 80.053 10.112 80.113 10.422 80.113 10.769 C 80.113 11.069 80.077 11.392 80.003 11.739 C 79.93 12.079 79.763 12.402 79.503 12.709 C 79.243 13.009 78.86 13.262 78.353 13.469 C 77.847 13.669 77.17 13.769 76.323 13.769 ZM 88.073 5.509 L 85.293 5.509 L 85.293 13.569 L 83.503 13.569 L 83.503 5.509 L 80.733 5.509 L 80.733 3.769 L 88.073 3.769 L 88.073 5.509 Z" transform="matrix(1, 0, 0, 1, 0, 0)" style="fill: rgb(255, 255, 255); white-space: pre;"/>
  <path d="M 0 18 L 3.869 0" style="fill: none; stroke-linecap: round; stroke: rgb(134, 119, 64);" bx:origin="0 0.5"/>
</svg>