<?xml version="1.0" encoding="UTF-8" standalone="no"?>
<svg width="89px" height="18px" viewBox="0 0 89 18" version="1.1" xmlns="http://www.w3.org/2000/svg" xmlns:xlink="http://www.w3.org/1999/xlink">
    <!-- Generator: Sketch 45 (43475) - http://www.bohemiancoding.com/sketch -->
    <title>system</title>
    <desc>Created with Sketch.</desc>
    <defs></defs>
    <g id="Page-1" stroke="none" stroke-width="1" fill="none" fill-rule="evenodd">
        <path d="M12.746,14 L9.078,14 L9.078,4.2 L12.746,4.2 C14.1740071,4.2 15.3359955,4.63866228 16.232,5.516 C17.1280045,6.39333772 17.576,7.58799244 17.576,9.1 C17.576,10.6120076 17.1280045,11.8066623 16.232,12.684 C15.3359955,13.5613377 14.1740071,14 12.746,14 Z M12.746,5.922 L10.87,5.922 L10.87,12.278 L12.746,12.278 C13.679338,12.278 14.3909975,11.9980028 14.881,11.438 C15.3710025,10.8779972 15.616,10.0986717 15.616,9.1 C15.616,8.10132834 15.3710025,7.3220028 14.881,6.762 C14.3909975,6.2019972 13.679338,5.922 12.746,5.922 Z M26.662,14 L24.8,14 L22.77,10.36 L20.95,10.36 L20.95,14 L19.158,14 L19.158,4.2 L22.742,4.2 C24.9913446,4.2 26.116,5.14265724 26.116,7.028 C26.116,7.7280035 25.9713348,8.29733114 25.682,8.736 C25.3926652,9.17466886 24.9820027,9.5573317 24.45,9.884 L26.662,14 Z M22.336,5.698 L20.95,5.698 L20.95,8.68 L22.266,8.68 C23.0220038,8.68 23.5399986,8.54933464 23.82,8.288 C24.1000014,8.02666536 24.24,7.64866914 24.24,7.154 C24.24,6.65933086 24.104668,6.29300119 23.834,6.055 C23.563332,5.81699881 23.0640036,5.698 22.336,5.698 Z M34.334,14 L27.922,14 L27.922,4.2 L34.194,4.2 L34.194,5.936 L29.756,5.936 L29.756,8.022 L33.2,8.022 L33.2,9.758 L29.756,9.758 L29.756,12.264 L34.334,12.264 L34.334,14 Z M43.504,14 L41.642,14 L40.802,11.634 L37.54,11.634 L36.7,14 L34.838,14 L38.324,4.2 L40.018,4.2 L43.504,14 Z M40.186,9.898 L39.164,7.028 L38.156,9.898 L40.186,9.898 Z M54.592,14 L52.73,14 L51.89,7.434 L49.384,11.942 L46.864,7.448 L46.024,14 L44.162,14 L45.52,4.2 L46.99,4.2 L49.384,8.666 L51.764,4.2 L53.234,4.2 L54.592,14 Z M60.444,14.196 C59.0253262,14.196 57.8656712,13.7270047 56.965,12.789 C56.0643288,11.8509953 55.614,10.6213409 55.614,9.1 C55.614,7.57865906 56.0643288,6.34900469 56.965,5.411 C57.8656712,4.47299531 59.0253262,4.004 60.444,4.004 C61.5173387,4.004 62.4459961,4.19533142 63.23,4.578 L63.034,6.286 C62.0913286,5.9126648 61.2280039,5.726 60.444,5.726 C59.5199954,5.726 58.8106691,6.03399692 58.316,6.65 C57.8213309,7.26600308 57.574,8.08266158 57.574,9.1 C57.574,10.1173384 57.8213309,10.9339969 58.316,11.55 C58.8106691,12.1660031 59.5199954,12.474 60.444,12.474 C61.2280039,12.474 62.0913286,12.2873352 63.034,11.914 L63.23,13.622 C62.4459961,14.0046686 61.5173387,14.196 60.444,14.196 Z M72.358,14 L70.496,14 L69.656,11.634 L66.394,11.634 L65.554,14 L63.692,14 L67.178,4.2 L68.872,4.2 L72.358,14 Z M69.04,9.898 L68.018,7.028 L67.01,9.898 L69.04,9.898 Z M76.32,14.196 C75.6199965,14.196 74.9806696,14.1260007 74.402,13.986 C73.8233304,13.8459993 73.3800015,13.678001 73.072,13.482 L73.282,11.438 C73.5806682,11.7273348 73.9983307,11.9723323 74.535,12.173 C75.0716694,12.3736677 75.6806633,12.474 76.362,12.474 C77.5286725,12.474 78.112,12.1193369 78.112,11.41 C78.112,11.213999 78.0653338,11.0366675 77.972,10.878 C77.8786662,10.7193325 77.7783339,10.5886672 77.671,10.486 C77.5636661,10.3833328 77.3840013,10.2736672 77.132,10.157 C76.8799987,10.0403328 76.6840007,9.95633359 76.544,9.905 C76.4039993,9.85366641 76.1660017,9.77200056 75.83,9.66 C75.5406652,9.5666662 75.3400006,9.4966669 75.228,9.45 L74.668,9.212 C74.4066654,9.10933282 74.2153339,9.01833373 74.094,8.939 C73.9726661,8.85966627 73.8233342,8.74766739 73.646,8.603 C73.4686658,8.45833261 73.3380004,8.31133408 73.254,8.162 C73.1699996,8.01266592 73.0953337,7.83300105 73.03,7.623 C72.9646663,7.41299895 72.932,7.18666788 72.932,6.944 C72.932,6.17866284 73.2213304,5.49733632 73.8,4.9 C74.3786696,4.30266368 75.269994,4.004 76.474,4.004 C77.0993365,4.004 77.7036638,4.08333254 78.287,4.242 C78.8703363,4.40066746 79.3066652,4.5733324 79.596,4.76 L79.414,6.594 C78.3406613,6.00599706 77.3840042,5.712 76.544,5.712 C76.0679976,5.712 75.6503351,5.79133254 75.291,5.95 C74.9316649,6.10866746 74.752,6.3746648 74.752,6.748 C74.752,7.10266844 74.9153317,7.37566571 75.242,7.567 C75.5686683,7.75833429 76.06333,7.95666564 76.726,8.162 C77.0713351,8.26466718 77.3349991,8.34866634 77.517,8.414 C77.6990009,8.47933366 77.9486651,8.57733268 78.266,8.708 C78.5833349,8.83866732 78.8306658,8.97633261 79.008,9.121 C79.1853342,9.26566739 79.3696657,9.44299895 79.561,9.653 C79.7523343,9.86300105 79.8923329,10.1103319 79.981,10.395 C80.0696671,10.6796681 80.114,10.9946649 80.114,11.34 C80.114,11.6013346 80.0906669,11.8463322 80.044,12.075 C79.9973331,12.3036678 79.8923341,12.553332 79.729,12.824 C79.5656658,13.094668 79.3510013,13.3256657 79.085,13.517 C78.8189987,13.7083343 78.4503357,13.8693327 77.979,14 C77.5076643,14.1306673 76.9546698,14.196 76.32,14.196 Z M88.066,5.936 L85.294,5.936 L85.294,14 L83.502,14 L83.502,5.936 L80.73,5.936 L80.73,4.2 L88.066,4.2 L88.066,5.936 Z" id="DREAMCAST-Copy" fill="#FFFFFF"></path>
        <g id="system" stroke="#867740" stroke-linecap="round">
            <path d="M0.5,17.5 L4.5,0.5" id="Shape"></path>
        </g>
    </g>
</svg>