<?xml version="1.0" encoding="UTF-8" standalone="no"?>
<svg width="64px" height="18px" viewBox="0 0 64 18" version="1.1" xmlns="http://www.w3.org/2000/svg" xmlns:xlink="http://www.w3.org/1999/xlink">
    <!-- Generator: Sketch 45 (43475) - http://www.bohemiancoding.com/sketch -->
    <title>system</title>
    <desc>Created with Sketch.</desc>
    <defs></defs>
    <g id="Page-1" stroke="none" stroke-width="1" fill="none" fill-rule="evenodd">
        <path d="M11.92,14.196 C11.2199965,14.196 10.5806696,14.1260007 10.002,13.986 C9.42333044,13.8459993 8.98000154,13.678001 8.672,13.482 L8.882,11.438 C9.18066816,11.7273348 9.59833065,11.9723323 10.135,12.173 C10.6716694,12.3736677 11.2806633,12.474 11.962,12.474 C13.1286725,12.474 13.712,12.1193369 13.712,11.41 C13.712,11.213999 13.6653338,11.0366675 13.572,10.878 C13.4786662,10.7193325 13.3783339,10.5886672 13.271,10.486 C13.1636661,10.3833328 12.9840013,10.2736672 12.732,10.157 C12.4799987,10.0403328 12.2840007,9.95633359 12.144,9.905 C12.0039993,9.85366641 11.7660017,9.77200056 11.43,9.66 C11.1406652,9.5666662 10.9400006,9.4966669 10.828,9.45 L10.268,9.212 C10.0066654,9.10933282 9.81533394,9.01833373 9.694,8.939 C9.57266606,8.85966627 9.42333422,8.74766739 9.246,8.603 C9.06866578,8.45833261 8.93800042,8.31133408 8.854,8.162 C8.76999958,8.01266592 8.69533366,7.83300105 8.63,7.623 C8.56466634,7.41299895 8.532,7.18666788 8.532,6.944 C8.532,6.17866284 8.82133044,5.49733632 9.4,4.9 C9.97866956,4.30266368 10.869994,4.004 12.074,4.004 C12.6993365,4.004 13.3036637,4.08333254 13.887,4.242 C14.4703362,4.40066746 14.9066652,4.5733324 15.196,4.76 L15.014,6.594 C13.9406613,6.00599706 12.9840042,5.712 12.144,5.712 C11.6679976,5.712 11.2503351,5.79133254 10.891,5.95 C10.5316649,6.10866746 10.352,6.3746648 10.352,6.748 C10.352,7.10266844 10.5153317,7.37566571 10.842,7.567 C11.1686683,7.75833429 11.66333,7.95666564 12.326,8.162 C12.6713351,8.26466718 12.9349991,8.34866634 13.117,8.414 C13.2990009,8.47933366 13.5486651,8.57733268 13.866,8.708 C14.1833349,8.83866732 14.4306658,8.97633261 14.608,9.121 C14.7853342,9.26566739 14.9696657,9.44299895 15.161,9.653 C15.3523343,9.86300105 15.4923329,10.1103319 15.581,10.395 C15.6696671,10.6796681 15.714,10.9946649 15.714,11.34 C15.714,11.6013346 15.6906669,11.8463322 15.644,12.075 C15.5973331,12.3036678 15.4923341,12.553332 15.329,12.824 C15.1656658,13.094668 14.9510013,13.3256657 14.685,13.517 C14.4189987,13.7083343 14.0503357,13.8693327 13.579,14 C13.1076643,14.1306673 12.5546698,14.196 11.92,14.196 Z M23.61,14 L17.198,14 L17.198,4.2 L23.47,4.2 L23.47,5.936 L19.032,5.936 L19.032,8.022 L22.476,8.022 L22.476,9.758 L19.032,9.758 L19.032,12.264 L23.61,12.264 L23.61,14 Z M29.224,14.196 C27.8333264,14.196 26.6876712,13.7270047 25.787,12.789 C24.8863288,11.8509953 24.436,10.6166743 24.436,9.086 C24.436,7.56465906 24.8886621,6.337338 25.794,5.404 C26.6993379,4.470662 27.8753261,4.004 29.322,4.004 C29.8166691,4.004 30.3439972,4.05766613 30.904,4.165 C31.4640028,4.27233387 31.9166649,4.40999916 32.262,4.578 L32.066,6.286 C31.1513288,5.9126648 30.2506711,5.726 29.364,5.726 C28.3839951,5.726 27.6443358,6.03166361 27.145,6.643 C26.6456642,7.25433639 26.396,8.05932834 26.396,9.058 C26.396,10.0940052 26.6573307,10.9223302 27.18,11.543 C27.7026693,12.1636698 28.4586617,12.474 29.448,12.474 C29.8493353,12.474 30.2973309,12.4226672 30.792,12.32 L30.792,10.57 L29.714,10.57 L29.714,9.086 L32.584,9.086 L32.584,13.454 C32.2293316,13.6593344 31.72067,13.8343326 31.058,13.979 C30.39533,14.1236674 29.7840028,14.196 29.224,14.196 Z M41.95,14 L40.088,14 L39.248,11.634 L35.986,11.634 L35.146,14 L33.284,14 L36.77,4.2 L38.464,4.2 L41.95,14 Z M38.632,9.898 L37.61,7.028 L36.602,9.898 L38.632,9.898 Z M50.462,14.196 C49.0433262,14.196 47.8836712,13.7270047 46.983,12.789 C46.0823288,11.8509953 45.632,10.6213409 45.632,9.1 C45.632,7.57865906 46.0823288,6.34900469 46.983,5.411 C47.8836712,4.47299531 49.0433262,4.004 50.462,4.004 C51.5353387,4.004 52.4639961,4.19533142 53.248,4.578 L53.052,6.286 C52.1093286,5.9126648 51.2460039,5.726 50.462,5.726 C49.5379954,5.726 48.8286691,6.03399692 48.334,6.65 C47.8393309,7.26600308 47.592,8.08266158 47.592,9.1 C47.592,10.1173384 47.8393309,10.9339969 48.334,11.55 C48.8286691,12.1660031 49.5379954,12.474 50.462,12.474 C51.2460039,12.474 52.1093286,12.2873352 53.052,11.914 L53.248,13.622 C52.4639961,14.0046686 51.5353387,14.196 50.462,14.196 Z M58.414,14 L54.746,14 L54.746,4.2 L58.414,4.2 C59.8420071,4.2 61.0039955,4.63866228 61.9,5.516 C62.7960045,6.39333772 63.244,7.58799244 63.244,9.1 C63.244,10.6120076 62.7960045,11.8066623 61.9,12.684 C61.0039955,13.5613377 59.8420071,14 58.414,14 Z M58.414,5.922 L56.538,5.922 L56.538,12.278 L58.414,12.278 C59.347338,12.278 60.0589976,11.9980028 60.549,11.438 C61.0390024,10.8779972 61.284,10.0986717 61.284,9.1 C61.284,8.10132834 61.0390024,7.3220028 60.549,6.762 C60.0589976,6.2019972 59.347338,5.922 58.414,5.922 Z" id="SEGA-CD-Copy" fill="#FFFFFF"></path>
        <g id="system" stroke="#867740" stroke-linecap="round">
            <path d="M0.5,17.5 L4.5,0.5" id="Shape"></path>
        </g>
    </g>
</svg>