<?xml version="1.0" encoding="utf-8"?>
<svg viewBox="0 0 63.25 18" xmlns="http://www.w3.org/2000/svg" xmlns:bx="https://boxy-svg.com">
  <path d="M 11.925 13.769 C 11.225 13.769 10.585 13.699 10.005 13.559 C 9.425 13.419 8.982 13.249 8.675 13.049 L 8.885 11.009 C 9.185 11.296 9.605 11.539 10.145 11.739 C 10.678 11.939 11.285 12.039 11.965 12.039 C 13.132 12.039 13.715 11.686 13.715 10.979 C 13.715 10.772 13.668 10.589 13.575 10.429 C 13.475 10.262 13.348 10.119 13.195 9.999 C 13.042 9.879 12.872 9.776 12.685 9.689 C 12.505 9.609 12.325 9.539 12.145 9.479 L 10.835 9.019 L 10.275 8.779 C 9.688 8.539 9.258 8.249 8.985 7.909 C 8.712 7.576 8.562 7.109 8.535 6.509 C 8.535 6.136 8.605 5.776 8.745 5.429 C 8.885 5.076 9.102 4.762 9.395 4.489 C 9.682 4.216 10.048 3.996 10.495 3.829 C 10.942 3.656 11.468 3.569 12.075 3.569 C 12.388 3.569 12.698 3.592 13.005 3.639 C 13.318 3.686 13.615 3.746 13.895 3.819 C 14.175 3.886 14.428 3.966 14.655 4.059 C 14.882 4.152 15.065 4.242 15.205 4.329 L 15.015 6.159 C 13.935 5.572 12.978 5.279 12.145 5.279 C 11.905 5.279 11.678 5.299 11.465 5.339 C 11.252 5.372 11.062 5.432 10.895 5.519 C 10.735 5.606 10.605 5.712 10.505 5.839 C 10.405 5.972 10.355 6.132 10.355 6.319 C 10.355 6.559 10.415 6.746 10.535 6.879 C 10.648 7.019 10.818 7.139 11.045 7.239 C 11.278 7.346 11.568 7.452 11.915 7.559 C 12.255 7.666 12.655 7.806 13.115 7.979 L 13.875 8.279 C 14.068 8.352 14.272 8.459 14.485 8.599 C 14.698 8.739 14.898 8.912 15.085 9.119 C 15.265 9.326 15.415 9.566 15.535 9.839 C 15.655 10.112 15.715 10.422 15.715 10.769 C 15.715 11.069 15.678 11.392 15.605 11.739 C 15.532 12.079 15.365 12.402 15.105 12.709 C 14.845 13.009 14.462 13.262 13.955 13.469 C 13.448 13.669 12.772 13.769 11.925 13.769 ZM 23.614 13.569 L 17.204 13.569 L 17.204 3.769 L 23.474 3.769 L 23.474 5.509 L 19.034 5.509 L 19.034 7.589 L 22.484 7.589 L 22.484 9.329 L 19.034 9.329 L 19.034 11.829 L 23.614 11.829 L 23.614 13.569 ZM 29.229 13.769 C 28.536 13.769 27.896 13.646 27.309 13.399 C 26.723 13.159 26.216 12.816 25.789 12.369 C 25.363 11.916 25.033 11.376 24.799 10.749 C 24.559 10.116 24.439 9.419 24.439 8.659 C 24.439 7.899 24.559 7.206 24.799 6.579 C 25.033 5.959 25.366 5.426 25.799 4.979 C 26.226 4.539 26.743 4.192 27.349 3.939 C 27.949 3.692 28.609 3.569 29.329 3.569 C 29.563 3.569 29.816 3.586 30.089 3.619 C 30.363 3.646 30.633 3.682 30.899 3.729 C 31.166 3.782 31.419 3.846 31.659 3.919 C 31.893 3.986 32.096 4.062 32.269 4.149 L 32.069 5.859 C 31.176 5.486 30.276 5.299 29.369 5.299 C 28.876 5.299 28.443 5.376 28.069 5.529 C 27.703 5.689 27.396 5.916 27.149 6.209 C 26.903 6.502 26.716 6.852 26.589 7.259 C 26.463 7.666 26.399 8.122 26.399 8.629 C 26.399 9.149 26.466 9.619 26.599 10.039 C 26.726 10.459 26.919 10.816 27.179 11.109 C 27.446 11.402 27.766 11.632 28.139 11.799 C 28.519 11.959 28.956 12.039 29.449 12.039 C 29.836 12.039 30.286 11.989 30.799 11.889 L 30.799 10.139 L 29.719 10.139 L 29.719 8.659 L 32.589 8.659 L 32.589 13.019 C 32.423 13.126 32.203 13.222 31.929 13.309 C 31.656 13.396 31.366 13.476 31.059 13.549 C 30.746 13.616 30.426 13.669 30.099 13.709 C 29.779 13.749 29.489 13.769 29.229 13.769 ZM 41.955 13.569 L 40.095 13.569 L 39.255 11.199 L 35.985 11.199 L 35.145 13.569 L 33.285 13.569 L 36.775 3.769 L 38.465 3.769 L 41.955 13.569 M 38.635 9.469 L 37.615 6.599 L 36.605 9.469 L 38.635 9.469 ZM 50.463 13.769 C 49.763 13.769 49.117 13.646 48.523 13.399 C 47.93 13.159 47.42 12.816 46.993 12.369 C 46.56 11.916 46.227 11.379 45.993 10.759 C 45.753 10.132 45.633 9.436 45.633 8.669 C 45.633 7.902 45.753 7.206 45.993 6.579 C 46.24 5.959 46.573 5.422 46.993 4.969 C 47.42 4.522 47.93 4.179 48.523 3.939 C 49.117 3.692 49.763 3.569 50.463 3.569 C 51.53 3.569 52.46 3.762 53.253 4.149 L 53.053 5.859 C 52.127 5.486 51.263 5.299 50.463 5.299 C 49.997 5.299 49.587 5.379 49.233 5.539 C 48.88 5.706 48.58 5.936 48.333 6.229 C 48.093 6.522 47.91 6.876 47.783 7.289 C 47.657 7.702 47.593 8.162 47.593 8.669 C 47.593 9.176 47.657 9.636 47.783 10.049 C 47.91 10.462 48.093 10.816 48.333 11.109 C 48.58 11.402 48.88 11.632 49.233 11.799 C 49.587 11.959 49.997 12.039 50.463 12.039 C 51.263 12.039 52.127 11.852 53.053 11.479 L 53.253 13.189 C 52.46 13.576 51.53 13.769 50.463 13.769 ZM 58.419 13.569 L 54.749 13.569 L 54.749 3.769 L 58.419 3.769 C 59.125 3.769 59.775 3.882 60.369 4.109 C 60.962 4.342 61.469 4.669 61.889 5.089 C 62.315 5.516 62.649 6.029 62.889 6.629 C 63.129 7.236 63.249 7.916 63.249 8.669 C 63.249 9.422 63.129 10.102 62.889 10.709 C 62.649 11.316 62.315 11.829 61.889 12.249 C 61.469 12.669 60.962 12.996 60.369 13.229 C 59.775 13.456 59.125 13.569 58.419 13.569 M 58.419 5.489 L 56.539 5.489 L 56.539 11.849 L 58.419 11.849 C 59.352 11.849 60.062 11.569 60.549 11.009 C 61.042 10.456 61.289 9.676 61.289 8.669 C 61.289 7.662 61.042 6.879 60.549 6.319 C 60.062 5.766 59.352 5.489 58.419 5.489 Z" transform="matrix(1, 0, 0, 1, 0, 0)" style="fill: rgb(255, 255, 255); white-space: pre;"/>
  <path d="M 0 18 L 3.869 0" style="fill: none; stroke-linecap: round; stroke: rgb(134, 119, 64);" bx:origin="0 0.5"/>
</svg>