<?xml version="1.0" encoding="utf-8"?>
<svg viewBox="0 0 174 18" xmlns="http://www.w3.org/2000/svg" xmlns:bx="https://boxy-svg.com">
  <path d="M 15.115 5.509 L 10.875 5.509 L 10.875 7.589 L 14.155 7.589 L 14.155 9.329 L 10.875 9.329 L 10.875 13.569 L 9.085 13.569 L 9.085 3.769 L 15.115 3.769 L 15.115 5.509 ZM 23.323 13.569 L 21.463 13.569 L 20.623 11.199 L 17.353 11.199 L 16.513 13.569 L 14.653 13.569 L 18.143 3.769 L 19.833 3.769 L 23.323 13.569 M 20.003 9.469 L 18.983 6.599 L 17.973 9.469 L 20.003 9.469 ZM 34.413 13.569 L 32.543 13.569 L 31.703 6.999 L 29.203 11.509 L 26.683 7.019 L 25.843 13.569 L 23.983 13.569 L 25.333 3.769 L 26.803 3.769 L 29.203 8.239 L 31.583 3.769 L 33.053 3.769 L 34.413 13.569 ZM 37.824 13.569 L 36.034 13.569 L 36.034 3.769 L 37.824 3.769 L 37.824 13.569 ZM 44.222 13.769 C 43.522 13.769 42.876 13.646 42.282 13.399 C 41.689 13.159 41.179 12.816 40.752 12.369 C 40.319 11.916 39.986 11.379 39.752 10.759 C 39.512 10.132 39.392 9.436 39.392 8.669 C 39.392 7.902 39.512 7.206 39.752 6.579 C 39.999 5.959 40.332 5.422 40.752 4.969 C 41.179 4.522 41.689 4.179 42.282 3.939 C 42.876 3.692 43.522 3.569 44.222 3.569 C 45.289 3.569 46.219 3.762 47.012 4.149 L 46.812 5.859 C 45.886 5.486 45.022 5.299 44.222 5.299 C 43.756 5.299 43.346 5.379 42.992 5.539 C 42.639 5.706 42.339 5.936 42.092 6.229 C 41.852 6.522 41.669 6.876 41.542 7.289 C 41.416 7.702 41.352 8.162 41.352 8.669 C 41.352 9.176 41.416 9.636 41.542 10.049 C 41.669 10.462 41.852 10.816 42.092 11.109 C 42.339 11.402 42.639 11.632 42.992 11.799 C 43.346 11.959 43.756 12.039 44.222 12.039 C 45.022 12.039 45.886 11.852 46.812 11.479 L 47.012 13.189 C 46.219 13.576 45.289 13.769 44.222 13.769 ZM 56.092 12.369 C 55.199 13.302 54.042 13.769 52.622 13.769 C 51.922 13.769 51.275 13.646 50.682 13.399 C 50.089 13.159 49.579 12.816 49.152 12.369 C 48.719 11.916 48.385 11.379 48.152 10.759 C 47.912 10.132 47.792 9.436 47.792 8.669 C 47.792 7.902 47.912 7.206 48.152 6.579 C 48.399 5.959 48.732 5.422 49.152 4.969 C 49.579 4.522 50.089 4.179 50.682 3.939 C 51.275 3.692 51.922 3.569 52.622 3.569 C 53.322 3.569 53.969 3.692 54.562 3.939 C 55.155 4.192 55.665 4.542 56.092 4.989 C 56.525 5.436 56.859 5.972 57.092 6.599 C 57.332 7.226 57.452 7.916 57.452 8.669 C 57.452 10.202 56.999 11.436 56.092 12.369 M 54.752 6.219 C 54.259 5.606 53.549 5.299 52.622 5.299 C 52.155 5.299 51.745 5.379 51.392 5.539 C 51.039 5.706 50.739 5.936 50.492 6.229 C 50.252 6.522 50.069 6.876 49.942 7.289 C 49.815 7.702 49.752 8.162 49.752 8.669 C 49.752 9.176 49.815 9.636 49.942 10.049 C 50.069 10.462 50.252 10.816 50.492 11.109 C 50.739 11.402 51.039 11.632 51.392 11.799 C 51.745 11.959 52.155 12.039 52.622 12.039 C 53.089 12.039 53.499 11.959 53.852 11.799 C 54.205 11.632 54.505 11.402 54.752 11.109 C 54.992 10.816 55.175 10.462 55.302 10.049 C 55.429 9.636 55.492 9.176 55.492 8.669 C 55.492 7.662 55.245 6.846 54.752 6.219 ZM 68.908 13.569 L 67.038 13.569 L 66.198 6.999 L 63.698 11.509 L 61.178 7.019 L 60.338 13.569 L 58.478 13.569 L 59.828 3.769 L 61.298 3.769 L 63.698 8.239 L 66.078 3.769 L 67.548 3.769 L 68.908 13.569 ZM 77.419 13.569 L 73.749 13.569 L 73.749 3.769 L 77.419 3.769 C 78.126 3.769 78.776 3.882 79.369 4.109 C 79.963 4.342 80.469 4.669 80.889 5.089 C 81.316 5.516 81.649 6.029 81.889 6.629 C 82.129 7.236 82.249 7.916 82.249 8.669 C 82.249 9.422 82.129 10.102 81.889 10.709 C 81.649 11.316 81.316 11.829 80.889 12.249 C 80.469 12.669 79.963 12.996 79.369 13.229 C 78.776 13.456 78.126 13.569 77.419 13.569 M 77.419 5.489 L 75.539 5.489 L 75.539 11.849 L 77.419 11.849 C 78.353 11.849 79.063 11.569 79.549 11.009 C 80.043 10.456 80.289 9.676 80.289 8.669 C 80.289 7.662 80.043 6.879 79.549 6.319 C 79.063 5.766 78.353 5.489 77.419 5.489 ZM 85.619 13.569 L 83.829 13.569 L 83.829 3.769 L 85.619 3.769 L 85.619 13.569 ZM 90.617 13.769 C 89.917 13.769 89.277 13.699 88.697 13.559 C 88.117 13.419 87.674 13.249 87.367 13.049 L 87.577 11.009 C 87.877 11.296 88.297 11.539 88.837 11.739 C 89.37 11.939 89.977 12.039 90.657 12.039 C 91.824 12.039 92.407 11.686 92.407 10.979 C 92.407 10.772 92.36 10.589 92.267 10.429 C 92.167 10.262 92.04 10.119 91.887 9.999 C 91.734 9.879 91.564 9.776 91.377 9.689 C 91.197 9.609 91.017 9.539 90.837 9.479 L 89.527 9.019 L 88.967 8.779 C 88.38 8.539 87.95 8.249 87.677 7.909 C 87.404 7.576 87.254 7.109 87.227 6.509 C 87.227 6.136 87.297 5.776 87.437 5.429 C 87.577 5.076 87.794 4.762 88.087 4.489 C 88.374 4.216 88.74 3.996 89.187 3.829 C 89.634 3.656 90.16 3.569 90.767 3.569 C 91.08 3.569 91.39 3.592 91.697 3.639 C 92.01 3.686 92.307 3.746 92.587 3.819 C 92.867 3.886 93.12 3.966 93.347 4.059 C 93.574 4.152 93.757 4.242 93.897 4.329 L 93.707 6.159 C 92.627 5.572 91.67 5.279 90.837 5.279 C 90.597 5.279 90.37 5.299 90.157 5.339 C 89.944 5.372 89.754 5.432 89.587 5.519 C 89.427 5.606 89.297 5.712 89.197 5.839 C 89.097 5.972 89.047 6.132 89.047 6.319 C 89.047 6.559 89.107 6.746 89.227 6.879 C 89.34 7.019 89.51 7.139 89.737 7.239 C 89.97 7.346 90.26 7.452 90.607 7.559 C 90.947 7.666 91.347 7.806 91.807 7.979 L 92.567 8.279 C 92.76 8.352 92.964 8.459 93.177 8.599 C 93.39 8.739 93.59 8.912 93.777 9.119 C 93.957 9.326 94.107 9.566 94.227 9.839 C 94.347 10.112 94.407 10.422 94.407 10.769 C 94.407 11.069 94.37 11.392 94.297 11.739 C 94.224 12.079 94.057 12.402 93.797 12.709 C 93.537 13.009 93.154 13.262 92.647 13.469 C 92.14 13.669 91.464 13.769 90.617 13.769 ZM 103.467 13.569 L 101.457 13.569 L 98.037 8.389 L 101.457 3.769 L 103.467 3.769 L 100.057 8.389 L 103.467 13.569 M 97.687 13.569 L 95.897 13.569 L 95.897 3.769 L 97.687 3.769 L 97.687 13.569 ZM 110.58 13.769 C 109.88 13.769 109.24 13.699 108.66 13.559 C 108.08 13.419 107.637 13.249 107.33 13.049 L 107.54 11.009 C 107.84 11.296 108.26 11.539 108.8 11.739 C 109.334 11.939 109.94 12.039 110.62 12.039 C 111.787 12.039 112.37 11.686 112.37 10.979 C 112.37 10.772 112.324 10.589 112.23 10.429 C 112.13 10.262 112.004 10.119 111.85 9.999 C 111.697 9.879 111.527 9.776 111.34 9.689 C 111.16 9.609 110.98 9.539 110.8 9.479 L 109.49 9.019 L 108.93 8.779 C 108.344 8.539 107.914 8.249 107.64 7.909 C 107.367 7.576 107.217 7.109 107.19 6.509 C 107.19 6.136 107.26 5.776 107.4 5.429 C 107.54 5.076 107.757 4.762 108.05 4.489 C 108.337 4.216 108.704 3.996 109.15 3.829 C 109.597 3.656 110.124 3.569 110.73 3.569 C 111.044 3.569 111.354 3.592 111.66 3.639 C 111.974 3.686 112.27 3.746 112.55 3.819 C 112.83 3.886 113.084 3.966 113.31 4.059 C 113.537 4.152 113.72 4.242 113.86 4.329 L 113.67 6.159 C 112.59 5.572 111.634 5.279 110.8 5.279 C 110.56 5.279 110.334 5.299 110.12 5.339 C 109.907 5.372 109.717 5.432 109.55 5.519 C 109.39 5.606 109.26 5.712 109.16 5.839 C 109.06 5.972 109.01 6.132 109.01 6.319 C 109.01 6.559 109.07 6.746 109.19 6.879 C 109.304 7.019 109.474 7.139 109.7 7.239 C 109.934 7.346 110.224 7.452 110.57 7.559 C 110.91 7.666 111.31 7.806 111.77 7.979 L 112.53 8.279 C 112.724 8.352 112.927 8.459 113.14 8.599 C 113.354 8.739 113.554 8.912 113.74 9.119 C 113.92 9.326 114.07 9.566 114.19 9.839 C 114.31 10.112 114.37 10.422 114.37 10.769 C 114.37 11.069 114.334 11.392 114.26 11.739 C 114.187 12.079 114.02 12.402 113.76 12.709 C 113.5 13.009 113.117 13.262 112.61 13.469 C 112.104 13.669 111.427 13.769 110.58 13.769 ZM 123.25 3.769 L 119.86 9.229 L 119.86 13.569 L 118.07 13.569 L 118.07 9.229 L 114.68 3.769 L 116.59 3.769 L 118.97 7.629 L 121.35 3.769 L 123.25 3.769 ZM 127.002 13.769 C 126.302 13.769 125.662 13.699 125.082 13.559 C 124.502 13.419 124.059 13.249 123.752 13.049 L 123.962 11.009 C 124.262 11.296 124.682 11.539 125.222 11.739 C 125.755 11.939 126.362 12.039 127.042 12.039 C 128.209 12.039 128.792 11.686 128.792 10.979 C 128.792 10.772 128.745 10.589 128.652 10.429 C 128.552 10.262 128.425 10.119 128.272 9.999 C 128.119 9.879 127.949 9.776 127.762 9.689 C 127.582 9.609 127.402 9.539 127.222 9.479 L 125.912 9.019 L 125.352 8.779 C 124.765 8.539 124.335 8.249 124.062 7.909 C 123.789 7.576 123.639 7.109 123.612 6.509 C 123.612 6.136 123.682 5.776 123.822 5.429 C 123.962 5.076 124.179 4.762 124.472 4.489 C 124.759 4.216 125.125 3.996 125.572 3.829 C 126.019 3.656 126.545 3.569 127.152 3.569 C 127.465 3.569 127.775 3.592 128.082 3.639 C 128.395 3.686 128.692 3.746 128.972 3.819 C 129.252 3.886 129.505 3.966 129.732 4.059 C 129.959 4.152 130.142 4.242 130.282 4.329 L 130.092 6.159 C 129.012 5.572 128.055 5.279 127.222 5.279 C 126.982 5.279 126.755 5.299 126.542 5.339 C 126.329 5.372 126.139 5.432 125.972 5.519 C 125.812 5.606 125.682 5.712 125.582 5.839 C 125.482 5.972 125.432 6.132 125.432 6.319 C 125.432 6.559 125.492 6.746 125.612 6.879 C 125.725 7.019 125.895 7.139 126.122 7.239 C 126.355 7.346 126.645 7.452 126.992 7.559 C 127.332 7.666 127.732 7.806 128.192 7.979 L 128.952 8.279 C 129.145 8.352 129.349 8.459 129.562 8.599 C 129.775 8.739 129.975 8.912 130.162 9.119 C 130.342 9.326 130.492 9.566 130.612 9.839 C 130.732 10.112 130.792 10.422 130.792 10.769 C 130.792 11.069 130.755 11.392 130.682 11.739 C 130.609 12.079 130.442 12.402 130.182 12.709 C 129.922 13.009 129.539 13.262 129.032 13.469 C 128.525 13.669 127.849 13.769 127.002 13.769 ZM 138.752 5.509 L 135.972 5.509 L 135.972 13.569 L 134.182 13.569 L 134.182 5.509 L 131.412 5.509 L 131.412 3.769 L 138.752 3.769 L 138.752 5.509 ZM 146.448 13.569 L 140.038 13.569 L 140.038 3.769 L 146.308 3.769 L 146.308 5.509 L 141.868 5.509 L 141.868 7.589 L 145.318 7.589 L 145.318 9.329 L 141.868 9.329 L 141.868 11.829 L 146.448 11.829 L 146.448 13.569 ZM 157.959 13.569 L 156.089 13.569 L 155.249 6.999 L 152.749 11.509 L 150.229 7.019 L 149.389 13.569 L 147.529 13.569 L 148.879 3.769 L 150.349 3.769 L 152.749 8.239 L 155.129 3.769 L 156.599 3.769 L 157.959 13.569 Z" transform="matrix(1, 0, 0, 1, 0, 0)" style="white-space: pre; fill: rgb(255, 255, 255);"/>
  <path d="M 0 18 L 3.869 0" style="fill: none; stroke-linecap: round; stroke: rgb(134, 119, 64);" bx:origin="0 0.5"/>
  <g transform="matrix(0.108253, 0, 0, 0.108253, 159.166595, -9.346495)">
    <g>
      <path fill="#FDBC1C" d="M71.735,203.853c6.338,0,11.477,5.137,11.477,11.475h30.341c4.949,0,8.961-4.012,8.961-8.959&#10;&#9;&#9;&#9;c0-4.068-2.712-7.506-6.426-8.6l-0.021-0.039c0-2.811,0-5.877,0-9.313l0.045-0.097c5.534-2.48,9.388-8.038,9.388-14.495&#10;&#9;&#9;&#9;c0-6.424-3.816-11.959-9.306-14.458l-0.127-0.083c0-14.469,0-27.019,0-29.32c0-5.644-4.575-10.219-10.218-10.219H37.516&#10;&#9;&#9;&#9;c-5.644,0-10.219,4.575-10.219,10.219c0,2.301,0,14.851,0,29.32l-0.126,0.083c-5.49,2.499-9.307,8.034-9.307,14.458&#10;&#9;&#9;&#9;c0,6.457,3.854,12.015,9.388,14.495l0.045,0.097c0,3.437,0,6.503,0,9.313l-0.02,0.039c-3.714,1.094-6.426,4.531-6.426,8.6&#10;&#9;&#9;&#9;c0,4.947,4.013,8.959,8.961,8.959h30.341c0-6.338,5.138-11.475,11.477-11.475H71.735z"/>
      <path d="M18.335,206.369c0.005-4.535,2.627-8.455,6.445-10.319l0,0c0-1.921,0-3.964,0-6.157l0,0&#10;&#9;&#9;&#9;c-5.626-3.145-9.43-9.164-9.432-16.067l0,0c0.002-6.903,3.806-12.923,9.432-16.066l0,0c0-13.82,0-25.576,0-27.795l0,0&#10;&#9;&#9;&#9;c0.003-7.034,5.701-12.733,12.734-12.734l0,0h68.333c7.034,0.001,12.733,5.701,12.734,12.734l0,0c0,2.219,0,13.977,0,27.795l0,0&#10;&#9;&#9;&#9;c5.626,3.143,9.43,9.163,9.432,16.066l0,0c-0.002,6.903-3.805,12.923-9.432,16.067l0,0c0,2.193,0,4.236,0,6.157l0,0&#10;&#9;&#9;&#9;c3.819,1.864,6.442,5.784,6.445,10.319l0,0c-0.001,6.338-5.136,11.473-11.476,11.475l0,0H80.696v-2.516&#10;&#9;&#9;&#9;c-0.009-4.947-4.013-8.951-8.96-8.961l0,0v-2.516v-2.516c6.869,0.002,12.58,4.951,13.765,11.479l0,0h28.052&#10;&#9;&#9;&#9;c3.558-0.008,6.439-2.889,6.444-6.445l0,0c0.005-2.928-1.956-5.398-4.62-6.186l0,0l-1.042-0.307l-0.783-1.545v-0.602&#10;&#9;&#9;&#9;c-0.001-2.812-0.001-5.879-0.001-9.314l0,0v-0.56l0.679-1.45l0.854-0.381c4.657-2.092,7.903-6.764,7.901-12.2l0,0&#10;&#9;&#9;&#9;c0.002-5.41-3.213-10.062-7.833-12.169l0,0l-0.183-0.083l-1.418-0.937v-1.352c0-14.47,0-27.019,0-29.32l0,0&#10;&#9;&#9;&#9;c-0.008-4.254-3.449-7.695-7.703-7.704l0,0H37.515c-4.254,0.008-7.695,3.45-7.703,7.704l0,0c0,2.301,0,14.851,0,29.32l0,0v1.352&#10;&#9;&#9;&#9;l-1.129,0.746l-0.291,0.192l-0.18,0.082c-4.621,2.108-7.835,6.76-7.833,12.169l0,0c-0.003,5.437,3.244,10.108,7.901,12.2l0,0&#10;&#9;&#9;&#9;l0.852,0.381l0.679,1.45v0.56c0,3.436,0,6.503,0,9.314l0,0v0.602l-0.784,1.545l-1.042,0.307c-2.665,0.787-4.625,3.258-4.62,6.186&#10;&#9;&#9;&#9;l0,0c0.005,3.557,2.886,6.438,6.445,6.445l0,0h28.051c1.187-6.527,6.897-11.477,13.767-11.479l0,0h0.105v2.516v2.516H71.63&#10;&#9;&#9;&#9;c-4.949,0.01-8.952,4.014-8.961,8.961l0,0v2.516H29.813C23.474,217.841,18.337,212.707,18.335,206.369L18.335,206.369z"/>
    </g>
    <path fill="#EC1C4E" d="M27.297,208.673"/>
    <path d="M31.96,155.326c0.001-10.448,8.47-18.916,18.918-18.917l0,0c10.448,0.001,18.917,8.469,18.917,18.917l0,0&#10;&#9;&#9;c-0.001,10.448-8.47,18.916-18.917,18.916l0,0C40.431,174.242,31.962,165.774,31.96,155.326L31.96,155.326z M35.105,155.326&#10;&#9;&#9;c0.015,8.712,7.062,15.757,15.773,15.772l0,0c8.711-0.015,15.758-7.061,15.773-15.772l0,0c-0.016-8.71-7.063-15.757-15.773-15.773&#10;&#9;&#9;l0,0C42.167,139.569,35.12,146.616,35.105,155.326L35.105,155.326z"/>
    <circle cx="63.089" cy="155.38" r="4.402"/>
    <path d="M73.569,155.326L73.569,155.326c0-10.448,8.469-18.916,18.917-18.917l0,0c10.447,0.001,18.916,8.469,18.917,18.917l0,0&#10;&#9;&#9;c-0.001,10.448-8.47,18.916-18.917,18.916l0,0C82.038,174.242,73.569,165.774,73.569,155.326L73.569,155.326z M92.486,171.099&#10;&#9;&#9;c8.71-0.015,15.757-7.061,15.772-15.772l0,0c-0.016-8.71-7.062-15.757-15.772-15.773l0,0c-8.71,0.016-15.759,7.063-15.774,15.773&#10;&#9;&#9;l0,0C76.728,164.038,83.776,171.083,92.486,171.099L92.486,171.099z"/>
    <circle cx="80.276" cy="155.38" r="4.402"/>
  </g>
</svg>