<?xml version="1.0" encoding="UTF-8" standalone="no"?>
<svg width="159px" height="18px" viewBox="0 0 159 18" version="1.1" xmlns="http://www.w3.org/2000/svg" xmlns:xlink="http://www.w3.org/1999/xlink">
    <!-- Generator: Sketch 45 (43475) - http://www.bohemiancoding.com/sketch -->
    <title>system</title>
    <desc>Created with Sketch.</desc>
    <defs></defs>
    <g id="Page-1" stroke="none" stroke-width="1" fill="none" fill-rule="evenodd">
        <path d="M15.112,5.936 L10.87,5.936 L10.87,8.022 L14.146,8.022 L14.146,9.758 L10.87,9.758 L10.87,14 L9.078,14 L9.078,4.2 L15.112,4.2 L15.112,5.936 Z M23.316,14 L21.454,14 L20.614,11.634 L17.352,11.634 L16.512,14 L14.65,14 L18.136,4.2 L19.83,4.2 L23.316,14 Z M19.998,9.898 L18.976,7.028 L17.968,9.898 L19.998,9.898 Z M34.404,14 L32.542,14 L31.702,7.434 L29.196,11.942 L26.676,7.448 L25.836,14 L23.974,14 L25.332,4.2 L26.802,4.2 L29.196,8.666 L31.576,4.2 L33.046,4.2 L34.404,14 Z M37.82,14 L36.028,14 L36.028,4.2 L37.82,4.2 L37.82,14 Z M44.218,14.196 C42.7993262,14.196 41.6396712,13.7270047 40.739,12.789 C39.8383288,11.8509953 39.388,10.6213409 39.388,9.1 C39.388,7.57865906 39.8383288,6.34900469 40.739,5.411 C41.6396712,4.47299531 42.7993262,4.004 44.218,4.004 C45.2913387,4.004 46.2199961,4.19533142 47.004,4.578 L46.808,6.286 C45.8653286,5.9126648 45.0020039,5.726 44.218,5.726 C43.2939954,5.726 42.5846691,6.03399692 42.09,6.65 C41.5953309,7.26600308 41.348,8.08266158 41.348,9.1 C41.348,10.1173384 41.5953309,10.9339969 42.09,11.55 C42.5846691,12.1660031 43.2939954,12.474 44.218,12.474 C45.0020039,12.474 45.8653286,12.2873352 46.808,11.914 L47.004,13.622 C46.2199961,14.0046686 45.2913387,14.196 44.218,14.196 Z M52.618,14.196 C51.1993262,14.196 50.0396712,13.7270047 49.139,12.789 C48.2383288,11.8509953 47.788,10.6213409 47.788,9.1 C47.788,7.57865906 48.2383288,6.34900469 49.139,5.411 C50.0396712,4.47299531 51.1993262,4.004 52.618,4.004 C54.0366738,4.004 55.1963288,4.47299531 56.097,5.411 C56.9976712,6.34900469 57.448,7.57865906 57.448,9.1 C57.448,10.6213409 56.9976712,11.8509953 56.097,12.789 C55.1963288,13.7270047 54.0366738,14.196 52.618,14.196 Z M52.618,5.726 C51.6939954,5.726 50.9846691,6.03399692 50.49,6.65 C49.9953309,7.26600308 49.748,8.08266158 49.748,9.1 C49.748,10.1173384 49.9953309,10.9339969 50.49,11.55 C50.9846691,12.1660031 51.6939954,12.474 52.618,12.474 C53.5420046,12.474 54.2513309,12.1660031 54.746,11.55 C55.2406691,10.9339969 55.488,10.1173384 55.488,9.1 C55.488,8.08266158 55.2406691,7.26600308 54.746,6.65 C54.2513309,6.03399692 53.5420046,5.726 52.618,5.726 Z M68.9,14 L67.038,14 L66.198,7.434 L63.692,11.942 L61.172,7.448 L60.332,14 L58.47,14 L59.828,4.2 L61.298,4.2 L63.692,8.666 L66.072,4.2 L67.542,4.2 L68.9,14 Z M77.412,14 L73.744,14 L73.744,4.2 L77.412,4.2 C78.8400071,4.2 80.0019955,4.63866228 80.898,5.516 C81.7940045,6.39333772 82.242,7.58799244 82.242,9.1 C82.242,10.6120076 81.7940045,11.8066623 80.898,12.684 C80.0019955,13.5613377 78.8400071,14 77.412,14 Z M77.412,5.922 L75.536,5.922 L75.536,12.278 L77.412,12.278 C78.345338,12.278 79.0569975,11.9980028 79.547,11.438 C80.0370025,10.8779972 80.282,10.0986717 80.282,9.1 C80.282,8.10132834 80.0370025,7.3220028 79.547,6.762 C79.0569975,6.2019972 78.345338,5.922 77.412,5.922 Z M85.616,14 L83.824,14 L83.824,4.2 L85.616,4.2 L85.616,14 Z M90.614,14.196 C89.9139965,14.196 89.2746696,14.1260007 88.696,13.986 C88.1173304,13.8459993 87.6740015,13.678001 87.366,13.482 L87.576,11.438 C87.8746682,11.7273348 88.2923306,11.9723323 88.829,12.173 C89.3656693,12.3736677 89.9746633,12.474 90.656,12.474 C91.8226725,12.474 92.406,12.1193369 92.406,11.41 C92.406,11.213999 92.3593338,11.0366675 92.266,10.878 C92.1726662,10.7193325 92.0723339,10.5886672 91.965,10.486 C91.8576661,10.3833328 91.6780013,10.2736672 91.426,10.157 C91.1739987,10.0403328 90.9780007,9.95633359 90.838,9.905 C90.6979993,9.85366641 90.4600017,9.77200056 90.124,9.66 C89.8346652,9.5666662 89.6340006,9.4966669 89.522,9.45 L88.962,9.212 C88.7006654,9.10933282 88.5093339,9.01833373 88.388,8.939 C88.2666661,8.85966627 88.1173342,8.74766739 87.94,8.603 C87.7626658,8.45833261 87.6320004,8.31133408 87.548,8.162 C87.4639996,8.01266592 87.3893337,7.83300105 87.324,7.623 C87.2586663,7.41299895 87.226,7.18666788 87.226,6.944 C87.226,6.17866284 87.5153304,5.49733632 88.094,4.9 C88.6726696,4.30266368 89.563994,4.004 90.768,4.004 C91.3933365,4.004 91.9976637,4.08333254 92.581,4.242 C93.1643362,4.40066746 93.6006652,4.5733324 93.89,4.76 L93.708,6.594 C92.6346613,6.00599706 91.6780042,5.712 90.838,5.712 C90.3619976,5.712 89.9443351,5.79133254 89.585,5.95 C89.2256649,6.10866746 89.046,6.3746648 89.046,6.748 C89.046,7.10266844 89.2093317,7.37566571 89.536,7.567 C89.8626683,7.75833429 90.35733,7.95666564 91.02,8.162 C91.3653351,8.26466718 91.6289991,8.34866634 91.811,8.414 C91.9930009,8.47933366 92.2426651,8.57733268 92.56,8.708 C92.8773349,8.83866732 93.1246658,8.97633261 93.302,9.121 C93.4793342,9.26566739 93.6636657,9.44299895 93.855,9.653 C94.0463343,9.86300105 94.1863329,10.1103319 94.275,10.395 C94.3636671,10.6796681 94.408,10.9946649 94.408,11.34 C94.408,11.6013346 94.3846669,11.8463322 94.338,12.075 C94.2913331,12.3036678 94.1863341,12.553332 94.023,12.824 C93.8596658,13.094668 93.6450013,13.3256657 93.379,13.517 C93.1129987,13.7083343 92.7443357,13.8693327 92.273,14 C91.8016643,14.1306673 91.2486698,14.196 90.614,14.196 Z M103.466,14 L101.45,14 L98.034,8.82 L101.45,4.2 L103.466,4.2 L100.05,8.82 L103.466,14 Z M97.684,14 L95.892,14 L95.892,4.2 L97.684,4.2 L97.684,14 Z M110.578,14.196 C109.877997,14.196 109.23867,14.1260007 108.66,13.986 C108.08133,13.8459993 107.638002,13.678001 107.33,13.482 L107.54,11.438 C107.838668,11.7273348 108.256331,11.9723323 108.793,12.173 C109.329669,12.3736677 109.938663,12.474 110.62,12.474 C111.786673,12.474 112.37,12.1193369 112.37,11.41 C112.37,11.213999 112.323334,11.0366675 112.23,10.878 C112.136666,10.7193325 112.036334,10.5886672 111.929,10.486 C111.821666,10.3833328 111.642001,10.2736672 111.39,10.157 C111.137999,10.0403328 110.942001,9.95633359 110.802,9.905 C110.661999,9.85366641 110.424002,9.77200056 110.088,9.66 C109.798665,9.5666662 109.598001,9.4966669 109.486,9.45 L108.926,9.212 C108.664665,9.10933282 108.473334,9.01833373 108.352,8.939 C108.230666,8.85966627 108.081334,8.74766739 107.904,8.603 C107.726666,8.45833261 107.596,8.31133408 107.512,8.162 C107.428,8.01266592 107.353334,7.83300105 107.288,7.623 C107.222666,7.41299895 107.19,7.18666788 107.19,6.944 C107.19,6.17866284 107.47933,5.49733632 108.058,4.9 C108.63667,4.30266368 109.527994,4.004 110.732,4.004 C111.357336,4.004 111.961664,4.08333254 112.545,4.242 C113.128336,4.40066746 113.564665,4.5733324 113.854,4.76 L113.672,6.594 C112.598661,6.00599706 111.642004,5.712 110.802,5.712 C110.325998,5.712 109.908335,5.79133254 109.549,5.95 C109.189665,6.10866746 109.01,6.3746648 109.01,6.748 C109.01,7.10266844 109.173332,7.37566571 109.5,7.567 C109.826668,7.75833429 110.32133,7.95666564 110.984,8.162 C111.329335,8.26466718 111.592999,8.34866634 111.775,8.414 C111.957001,8.47933366 112.206665,8.57733268 112.524,8.708 C112.841335,8.83866732 113.088666,8.97633261 113.266,9.121 C113.443334,9.26566739 113.627666,9.44299895 113.819,9.653 C114.010334,9.86300105 114.150333,10.1103319 114.239,10.395 C114.327667,10.6796681 114.372,10.9946649 114.372,11.34 C114.372,11.6013346 114.348667,11.8463322 114.302,12.075 C114.255333,12.3036678 114.150334,12.553332 113.987,12.824 C113.823666,13.094668 113.609001,13.3256657 113.343,13.517 C113.076999,13.7083343 112.708336,13.8693327 112.237,14 C111.765664,14.1306673 111.21267,14.196 110.578,14.196 Z M123.248,4.2 L119.86,9.66 L119.86,14 L118.068,14 L118.068,9.66 L114.68,4.2 L116.584,4.2 L118.964,8.064 L121.344,4.2 L123.248,4.2 Z M127,14.196 C126.299997,14.196 125.66067,14.1260007 125.082,13.986 C124.50333,13.8459993 124.060002,13.678001 123.752,13.482 L123.962,11.438 C124.260668,11.7273348 124.678331,11.9723323 125.215,12.173 C125.751669,12.3736677 126.360663,12.474 127.042,12.474 C128.208673,12.474 128.792,12.1193369 128.792,11.41 C128.792,11.213999 128.745334,11.0366675 128.652,10.878 C128.558666,10.7193325 128.458334,10.5886672 128.351,10.486 C128.243666,10.3833328 128.064001,10.2736672 127.812,10.157 C127.559999,10.0403328 127.364001,9.95633359 127.224,9.905 C127.083999,9.85366641 126.846002,9.77200056 126.51,9.66 C126.220665,9.5666662 126.020001,9.4966669 125.908,9.45 L125.348,9.212 C125.086665,9.10933282 124.895334,9.01833373 124.774,8.939 C124.652666,8.85966627 124.503334,8.74766739 124.326,8.603 C124.148666,8.45833261 124.018,8.31133408 123.934,8.162 C123.85,8.01266592 123.775334,7.83300105 123.71,7.623 C123.644666,7.41299895 123.612,7.18666788 123.612,6.944 C123.612,6.17866284 123.90133,5.49733632 124.48,4.9 C125.05867,4.30266368 125.949994,4.004 127.154,4.004 C127.779336,4.004 128.383664,4.08333254 128.967,4.242 C129.550336,4.40066746 129.986665,4.5733324 130.276,4.76 L130.094,6.594 C129.020661,6.00599706 128.064004,5.712 127.224,5.712 C126.747998,5.712 126.330335,5.79133254 125.971,5.95 C125.611665,6.10866746 125.432,6.3746648 125.432,6.748 C125.432,7.10266844 125.595332,7.37566571 125.922,7.567 C126.248668,7.75833429 126.74333,7.95666564 127.406,8.162 C127.751335,8.26466718 128.014999,8.34866634 128.197,8.414 C128.379001,8.47933366 128.628665,8.57733268 128.946,8.708 C129.263335,8.83866732 129.510666,8.97633261 129.688,9.121 C129.865334,9.26566739 130.049666,9.44299895 130.241,9.653 C130.432334,9.86300105 130.572333,10.1103319 130.661,10.395 C130.749667,10.6796681 130.794,10.9946649 130.794,11.34 C130.794,11.6013346 130.770667,11.8463322 130.724,12.075 C130.677333,12.3036678 130.572334,12.553332 130.409,12.824 C130.245666,13.094668 130.031001,13.3256657 129.765,13.517 C129.498999,13.7083343 129.130336,13.8693327 128.659,14 C128.187664,14.1306673 127.63467,14.196 127,14.196 Z M138.746,5.936 L135.974,5.936 L135.974,14 L134.182,14 L134.182,5.936 L131.41,5.936 L131.41,4.2 L138.746,4.2 L138.746,5.936 Z M146.446,14 L140.034,14 L140.034,4.2 L146.306,4.2 L146.306,5.936 L141.868,5.936 L141.868,8.022 L145.312,8.022 L145.312,9.758 L141.868,9.758 L141.868,12.264 L146.446,12.264 L146.446,14 Z M157.954,14 L156.092,14 L155.252,7.434 L152.746,11.942 L150.226,7.448 L149.386,14 L147.524,14 L148.882,4.2 L150.352,4.2 L152.746,8.666 L155.126,4.2 L156.596,4.2 L157.954,14 Z" id="FAMICOM-DISK-SYSTEM-Copy" fill="#FFFFFF"></path>
        <g id="system" stroke="#867740" stroke-linecap="round">
            <path d="M0.5,17.5 L4.5,0.5" id="Shape"></path>
        </g>
    </g>
</svg>