<?xml version="1.0" encoding="utf-8"?>
<svg viewBox="0 0 67 18" xmlns="http://www.w3.org/2000/svg" xmlns:bx="https://boxy-svg.com">
  <path d="M 16.825 13.569 L 15.355 13.569 L 10.875 6.849 L 10.875 13.569 L 9.085 13.569 L 9.085 3.769 L 10.845 3.769 L 15.035 10.099 L 15.035 3.769 L 16.825 3.769 L 16.825 13.569 ZM 25.393 13.569 L 18.983 13.569 L 18.983 3.769 L 25.253 3.769 L 25.253 5.509 L 20.813 5.509 L 20.813 7.589 L 24.263 7.589 L 24.263 9.329 L 20.813 9.329 L 20.813 11.829 L 25.393 11.829 L 25.393 13.569 ZM 34.518 12.369 C 33.625 13.302 32.468 13.769 31.048 13.769 C 30.348 13.769 29.702 13.646 29.108 13.399 C 28.515 13.159 28.005 12.816 27.578 12.369 C 27.145 11.916 26.812 11.379 26.578 10.759 C 26.338 10.132 26.218 9.436 26.218 8.669 C 26.218 7.902 26.338 7.206 26.578 6.579 C 26.825 5.959 27.158 5.422 27.578 4.969 C 28.005 4.522 28.515 4.179 29.108 3.939 C 29.702 3.692 30.348 3.569 31.048 3.569 C 31.748 3.569 32.395 3.692 32.988 3.939 C 33.582 4.192 34.092 4.542 34.518 4.989 C 34.952 5.436 35.285 5.972 35.518 6.599 C 35.758 7.226 35.878 7.916 35.878 8.669 C 35.878 10.202 35.425 11.436 34.518 12.369 M 33.178 6.219 C 32.685 5.606 31.975 5.299 31.048 5.299 C 30.582 5.299 30.172 5.379 29.818 5.539 C 29.465 5.706 29.165 5.936 28.918 6.229 C 28.678 6.522 28.495 6.876 28.368 7.289 C 28.242 7.702 28.178 8.162 28.178 8.669 C 28.178 9.176 28.242 9.636 28.368 10.049 C 28.495 10.462 28.678 10.816 28.918 11.109 C 29.165 11.402 29.465 11.632 29.818 11.799 C 30.172 11.959 30.582 12.039 31.048 12.039 C 31.515 12.039 31.925 11.959 32.278 11.799 C 32.632 11.632 32.932 11.402 33.178 11.109 C 33.418 10.816 33.602 10.462 33.728 10.049 C 33.855 9.636 33.918 9.176 33.918 8.669 C 33.918 7.662 33.672 6.846 33.178 6.219 ZM 44.798 13.769 C 44.105 13.769 43.465 13.646 42.878 13.399 C 42.291 13.159 41.785 12.816 41.358 12.369 C 40.931 11.916 40.601 11.376 40.368 10.749 C 40.128 10.116 40.008 9.419 40.008 8.659 C 40.008 7.899 40.128 7.206 40.368 6.579 C 40.601 5.959 40.935 5.426 41.368 4.979 C 41.795 4.539 42.311 4.192 42.918 3.939 C 43.518 3.692 44.178 3.569 44.898 3.569 C 45.131 3.569 45.385 3.586 45.658 3.619 C 45.931 3.646 46.201 3.682 46.468 3.729 C 46.735 3.782 46.988 3.846 47.228 3.919 C 47.461 3.986 47.665 4.062 47.838 4.149 L 47.638 5.859 C 46.745 5.486 45.845 5.299 44.938 5.299 C 44.445 5.299 44.011 5.376 43.638 5.529 C 43.271 5.689 42.965 5.916 42.718 6.209 C 42.471 6.502 42.285 6.852 42.158 7.259 C 42.031 7.666 41.968 8.122 41.968 8.629 C 41.968 9.149 42.035 9.619 42.168 10.039 C 42.295 10.459 42.488 10.816 42.748 11.109 C 43.015 11.402 43.335 11.632 43.708 11.799 C 44.088 11.959 44.525 12.039 45.018 12.039 C 45.405 12.039 45.855 11.989 46.368 11.889 L 46.368 10.139 L 45.288 10.139 L 45.288 8.659 L 48.158 8.659 L 48.158 13.019 C 47.991 13.126 47.771 13.222 47.498 13.309 C 47.225 13.396 46.935 13.476 46.628 13.549 C 46.315 13.616 45.995 13.669 45.668 13.709 C 45.348 13.749 45.058 13.769 44.798 13.769 ZM 56.304 13.569 L 49.894 13.569 L 49.894 3.769 L 56.164 3.769 L 56.164 5.509 L 51.724 5.509 L 51.724 7.589 L 55.174 7.589 L 55.174 9.329 L 51.724 9.329 L 51.724 11.829 L 56.304 11.829 L 56.304 13.569 ZM 65.429 12.369 C 64.536 13.302 63.379 13.769 61.959 13.769 C 61.259 13.769 60.613 13.646 60.019 13.399 C 59.426 13.159 58.916 12.816 58.489 12.369 C 58.056 11.916 57.723 11.379 57.489 10.759 C 57.249 10.132 57.129 9.436 57.129 8.669 C 57.129 7.902 57.249 7.206 57.489 6.579 C 57.736 5.959 58.069 5.422 58.489 4.969 C 58.916 4.522 59.426 4.179 60.019 3.939 C 60.613 3.692 61.259 3.569 61.959 3.569 C 62.659 3.569 63.306 3.692 63.899 3.939 C 64.493 4.192 65.003 4.542 65.429 4.989 C 65.863 5.436 66.196 5.972 66.429 6.599 C 66.669 7.226 66.789 7.916 66.789 8.669 C 66.789 10.202 66.336 11.436 65.429 12.369 M 64.089 6.219 C 63.596 5.606 62.886 5.299 61.959 5.299 C 61.493 5.299 61.083 5.379 60.729 5.539 C 60.376 5.706 60.076 5.936 59.829 6.229 C 59.589 6.522 59.406 6.876 59.279 7.289 C 59.153 7.702 59.089 8.162 59.089 8.669 C 59.089 9.176 59.153 9.636 59.279 10.049 C 59.406 10.462 59.589 10.816 59.829 11.109 C 60.076 11.402 60.376 11.632 60.729 11.799 C 61.083 11.959 61.493 12.039 61.959 12.039 C 62.426 12.039 62.836 11.959 63.189 11.799 C 63.543 11.632 63.843 11.402 64.089 11.109 C 64.329 10.816 64.513 10.462 64.639 10.049 C 64.766 9.636 64.829 9.176 64.829 8.669 C 64.829 7.662 64.583 6.846 64.089 6.219 Z" transform="matrix(1, 0, 0, 1, 0, 0)" style="fill: rgb(255, 255, 255); white-space: pre;"/>
  <path d="M 0 18 L 3.869 0" style="fill: none; stroke-linecap: round; stroke: rgb(134, 119, 64);" bx:origin="0 0.5"/>
</svg>