<?xml version="1.0" encoding="UTF-8" standalone="no"?>
<svg width="68px" height="18px" viewBox="0 0 68 18" version="1.1" xmlns="http://www.w3.org/2000/svg" xmlns:xlink="http://www.w3.org/1999/xlink">
    <!-- Generator: Sketch 45 (43475) - http://www.bohemiancoding.com/sketch -->
    <title>system</title>
    <desc>Created with Sketch.</desc>
    <defs></defs>
    <g id="Page-1" stroke="none" stroke-width="1" fill="none" fill-rule="evenodd">
        <path d="M16.82,14 L15.35,14 L10.87,7.28 L10.87,14 L9.078,14 L9.078,4.2 L10.842,4.2 L15.028,10.528 L15.028,4.2 L16.82,4.2 L16.82,14 Z M25.388,14 L18.976,14 L18.976,4.2 L25.248,4.2 L25.248,5.936 L20.81,5.936 L20.81,8.022 L24.254,8.022 L24.254,9.758 L20.81,9.758 L20.81,12.264 L25.388,12.264 L25.388,14 Z M31.044,14.196 C29.6253262,14.196 28.4656712,13.7270047 27.565,12.789 C26.6643288,11.8509953 26.214,10.6213409 26.214,9.1 C26.214,7.57865906 26.6643288,6.34900469 27.565,5.411 C28.4656712,4.47299531 29.6253262,4.004 31.044,4.004 C32.4626738,4.004 33.6223288,4.47299531 34.523,5.411 C35.4236712,6.34900469 35.874,7.57865906 35.874,9.1 C35.874,10.6213409 35.4236712,11.8509953 34.523,12.789 C33.6223288,13.7270047 32.4626738,14.196 31.044,14.196 Z M31.044,5.726 C30.1199954,5.726 29.4106691,6.03399692 28.916,6.65 C28.4213309,7.26600308 28.174,8.08266158 28.174,9.1 C28.174,10.1173384 28.4213309,10.9339969 28.916,11.55 C29.4106691,12.1660031 30.1199954,12.474 31.044,12.474 C31.9680046,12.474 32.6773309,12.1660031 33.172,11.55 C33.6666691,10.9339969 33.914,10.1173384 33.914,9.1 C33.914,8.08266158 33.6666691,7.26600308 33.172,6.65 C32.6773309,6.03399692 31.9680046,5.726 31.044,5.726 Z M44.792,14.196 C43.4013264,14.196 42.2556712,13.7270047 41.355,12.789 C40.4543288,11.8509953 40.004,10.6166743 40.004,9.086 C40.004,7.56465906 40.4566621,6.337338 41.362,5.404 C42.2673379,4.470662 43.4433261,4.004 44.89,4.004 C45.3846691,4.004 45.9119972,4.05766613 46.472,4.165 C47.0320028,4.27233387 47.4846649,4.40999916 47.83,4.578 L47.634,6.286 C46.7193288,5.9126648 45.8186711,5.726 44.932,5.726 C43.9519951,5.726 43.2123358,6.03166361 42.713,6.643 C42.2136642,7.25433639 41.964,8.05932834 41.964,9.058 C41.964,10.0940052 42.2253307,10.9223302 42.748,11.543 C43.2706693,12.1636698 44.0266617,12.474 45.016,12.474 C45.4173353,12.474 45.8653309,12.4226672 46.36,12.32 L46.36,10.57 L45.282,10.57 L45.282,9.086 L48.152,9.086 L48.152,13.454 C47.7973316,13.6593344 47.28867,13.8343326 46.626,13.979 C45.96333,14.1236674 45.3520028,14.196 44.792,14.196 Z M56.3,14 L49.888,14 L49.888,4.2 L56.16,4.2 L56.16,5.936 L51.722,5.936 L51.722,8.022 L55.166,8.022 L55.166,9.758 L51.722,9.758 L51.722,12.264 L56.3,12.264 L56.3,14 Z M61.956,14.196 C60.5373262,14.196 59.3776712,13.7270047 58.477,12.789 C57.5763288,11.8509953 57.126,10.6213409 57.126,9.1 C57.126,7.57865906 57.5763288,6.34900469 58.477,5.411 C59.3776712,4.47299531 60.5373262,4.004 61.956,4.004 C63.3746738,4.004 64.5343288,4.47299531 65.435,5.411 C66.3356712,6.34900469 66.786,7.57865906 66.786,9.1 C66.786,10.6213409 66.3356712,11.8509953 65.435,12.789 C64.5343288,13.7270047 63.3746738,14.196 61.956,14.196 Z M61.956,5.726 C61.0319954,5.726 60.3226691,6.03399692 59.828,6.65 C59.3333309,7.26600308 59.086,8.08266158 59.086,9.1 C59.086,10.1173384 59.3333309,10.9339969 59.828,11.55 C60.3226691,12.1660031 61.0319954,12.474 61.956,12.474 C62.8800046,12.474 63.5893309,12.1660031 64.084,11.55 C64.5786691,10.9339969 64.826,10.1173384 64.826,9.1 C64.826,8.08266158 64.5786691,7.26600308 64.084,6.65 C63.5893309,6.03399692 62.8800046,5.726 61.956,5.726 Z" id="NEO-GEO-Copy" fill="#FFFFFF"></path>
        <g id="system" stroke="#867740" stroke-linecap="round">
            <path d="M0.5,17.5 L4.5,0.5" id="Shape"></path>
        </g>
    </g>
</svg>