<?xml version="1.0" encoding="utf-8"?>
<svg viewBox="0 0 81 18" xmlns="http://www.w3.org/2000/svg" xmlns:bx="https://boxy-svg.com">
  <path d="M 16.715 13.569 L 14.855 13.569 L 14.015 11.199 L 10.745 11.199 L 9.905 13.569 L 8.045 13.569 L 11.535 3.769 L 13.225 3.769 L 16.715 13.569 M 13.395 9.469 L 12.375 6.599 L 11.365 9.469 L 13.395 9.469 ZM 23.563 5.509 L 20.783 5.509 L 20.783 13.569 L 18.993 13.569 L 18.993 5.509 L 16.223 5.509 L 16.223 3.769 L 23.563 3.769 L 23.563 5.509 ZM 31.737 13.569 L 29.877 13.569 L 29.037 11.199 L 25.767 11.199 L 24.927 13.569 L 23.067 13.569 L 26.557 3.769 L 28.247 3.769 L 31.737 13.569 M 28.417 9.469 L 27.397 6.599 L 26.387 9.469 L 28.417 9.469 ZM 40.356 13.569 L 38.496 13.569 L 36.466 9.929 L 34.646 9.929 L 34.646 13.569 L 32.856 13.569 L 32.856 3.769 L 36.436 3.769 C 38.69 3.769 39.816 4.712 39.816 6.599 C 39.816 7.299 39.67 7.869 39.376 8.309 C 39.09 8.742 38.68 9.122 38.146 9.449 L 40.356 13.569 M 36.036 5.269 L 34.646 5.269 L 34.646 8.249 L 35.966 8.249 C 36.72 8.249 37.236 8.119 37.516 7.859 C 37.796 7.606 37.936 7.226 37.936 6.719 C 37.936 6.226 37.8 5.859 37.526 5.619 C 37.26 5.386 36.763 5.269 36.036 5.269 ZM 43.41 13.569 L 41.62 13.569 L 41.62 3.769 L 43.41 3.769 L 43.41 13.569 ZM 54.538 13.569 L 48.718 13.569 L 48.718 3.769 L 50.508 3.769 L 50.508 11.829 L 54.538 11.829 L 54.538 13.569 ZM 61.722 3.769 L 58.332 9.229 L 58.332 13.569 L 56.542 13.569 L 56.542 9.229 L 53.152 3.769 L 55.062 3.769 L 57.442 7.629 L 59.822 3.769 L 61.722 3.769 ZM 70.443 13.569 L 68.973 13.569 L 64.493 6.849 L 64.493 13.569 L 62.703 13.569 L 62.703 3.769 L 64.463 3.769 L 68.653 10.099 L 68.653 3.769 L 70.443 3.769 L 70.443 13.569 ZM 80.331 13.569 L 78.251 13.569 L 75.871 9.969 L 73.561 13.569 L 71.511 13.569 L 74.961 8.679 L 71.661 3.769 L 73.731 3.769 L 76.001 7.209 L 78.071 3.769 L 80.131 3.769 L 76.911 8.489 L 80.331 13.569 Z" transform="matrix(1, 0, 0, 1, 0, 0)" style="fill: rgb(255, 255, 255); white-space: pre;"/>
  <path d="M 0 18 L 3.869 0" style="fill: none; stroke-linecap: round; stroke: rgb(134, 119, 64);" bx:origin="0 0.5"/>
</svg>