<?xml version="1.0" encoding="UTF-8" standalone="no"?>
<svg width="81px" height="18px" viewBox="0 0 81 18" version="1.1" xmlns="http://www.w3.org/2000/svg" xmlns:xlink="http://www.w3.org/1999/xlink">
    <!-- Generator: Sketch 45 (43475) - http://www.bohemiancoding.com/sketch -->
    <title>system</title>
    <desc>Created with Sketch.</desc>
    <defs></defs>
    <g id="Page-1" stroke="none" stroke-width="1" fill="none" fill-rule="evenodd">
        <path d="M16.708,14 L14.846,14 L14.006,11.634 L10.744,11.634 L9.904,14 L8.042,14 L11.528,4.2 L13.222,4.2 L16.708,14 Z M13.39,9.898 L12.368,7.028 L11.36,9.898 L13.39,9.898 Z M23.554,5.936 L20.782,5.936 L20.782,14 L18.99,14 L18.99,5.936 L16.218,5.936 L16.218,4.2 L23.554,4.2 L23.554,5.936 Z M31.73,14 L29.868,14 L29.028,11.634 L25.766,11.634 L24.926,14 L23.064,14 L26.55,4.2 L28.244,4.2 L31.73,14 Z M28.412,9.898 L27.39,7.028 L26.382,9.898 L28.412,9.898 Z M40.354,14 L38.492,14 L36.462,10.36 L34.642,10.36 L34.642,14 L32.85,14 L32.85,4.2 L36.434,4.2 C38.6833446,4.2 39.808,5.14265724 39.808,7.028 C39.808,7.7280035 39.6633348,8.29733114 39.374,8.736 C39.0846652,9.17466886 38.6740027,9.5573317 38.142,9.884 L40.354,14 Z M36.028,5.698 L34.642,5.698 L34.642,8.68 L35.958,8.68 C36.7140038,8.68 37.2319986,8.54933464 37.512,8.288 C37.7920014,8.02666536 37.932,7.64866914 37.932,7.154 C37.932,6.65933086 37.796668,6.29300119 37.526,6.055 C37.255332,5.81699881 36.7560036,5.698 36.028,5.698 Z M43.406,14 L41.614,14 L41.614,4.2 L43.406,4.2 L43.406,14 Z M54.536,14 L48.712,14 L48.712,4.2 L50.504,4.2 L50.504,12.264 L54.536,12.264 L54.536,14 Z M61.718,4.2 L58.33,9.66 L58.33,14 L56.538,14 L56.538,9.66 L53.15,4.2 L55.054,4.2 L57.434,8.064 L59.814,4.2 L61.718,4.2 Z M70.44,14 L68.97,14 L64.49,7.28 L64.49,14 L62.698,14 L62.698,4.2 L64.462,4.2 L68.648,10.528 L68.648,4.2 L70.44,4.2 L70.44,14 Z M80.324,14 L78.252,14 L75.872,10.402 L73.562,14 L71.504,14 L74.962,9.114 L71.658,4.2 L73.73,4.2 L75.998,7.644 L78.07,4.2 L80.128,4.2 L76.908,8.918 L80.324,14 Z" id="ATARI-LYNX-Copy" fill="#FFFFFF"></path>
        <g id="system" stroke="#867740" stroke-linecap="round">
            <path d="M0.5,17.5 L4.5,0.5" id="Shape"></path>
        </g>
    </g>
</svg>