<?xml version="1.0" encoding="UTF-8" standalone="no"?>
<svg width="86px" height="18px" viewBox="0 0 86 18" version="1.1" xmlns="http://www.w3.org/2000/svg" xmlns:xlink="http://www.w3.org/1999/xlink">
    <!-- Generator: Sketch 45 (43475) - http://www.bohemiancoding.com/sketch -->
    <title>system</title>
    <desc>Created with Sketch.</desc>
    <defs></defs>
    <g id="Page-1" stroke="none" stroke-width="1" fill="none" fill-rule="evenodd">
        <path d="M19.046,14 L17.184,14 L16.344,7.434 L13.838,11.942 L11.318,7.448 L10.478,14 L8.616,14 L9.974,4.2 L11.444,4.2 L13.838,8.666 L16.218,4.2 L17.688,4.2 L19.046,14 Z M27.082,14 L20.67,14 L20.67,4.2 L26.942,4.2 L26.942,5.936 L22.504,5.936 L22.504,8.022 L25.948,8.022 L25.948,9.758 L22.504,9.758 L22.504,12.264 L27.082,12.264 L27.082,14 Z M32.696,14.196 C31.3053264,14.196 30.1596712,13.7270047 29.259,12.789 C28.3583288,11.8509953 27.908,10.6166743 27.908,9.086 C27.908,7.56465906 28.3606621,6.337338 29.266,5.404 C30.1713379,4.470662 31.3473261,4.004 32.794,4.004 C33.2886691,4.004 33.8159972,4.05766613 34.376,4.165 C34.9360028,4.27233387 35.3886649,4.40999916 35.734,4.578 L35.538,6.286 C34.6233288,5.9126648 33.7226711,5.726 32.836,5.726 C31.8559951,5.726 31.1163358,6.03166361 30.617,6.643 C30.1176642,7.25433639 29.868,8.05932834 29.868,9.058 C29.868,10.0940052 30.1293307,10.9223302 30.652,11.543 C31.1746693,12.1636698 31.9306617,12.474 32.92,12.474 C33.3213353,12.474 33.7693309,12.4226672 34.264,12.32 L34.264,10.57 L33.186,10.57 L33.186,9.086 L36.056,9.086 L36.056,13.454 C35.7013316,13.6593344 35.19267,13.8343326 34.53,13.979 C33.86733,14.1236674 33.2560028,14.196 32.696,14.196 Z M45.422,14 L43.56,14 L42.72,11.634 L39.458,11.634 L38.618,14 L36.756,14 L40.242,4.2 L41.936,4.2 L45.422,14 Z M42.104,9.898 L41.082,7.028 L40.074,9.898 L42.104,9.898 Z M50.21,14 L46.542,14 L46.542,4.2 L50.21,4.2 C51.6380071,4.2 52.7999955,4.63866228 53.696,5.516 C54.5920045,6.39333772 55.04,7.58799244 55.04,9.1 C55.04,10.6120076 54.5920045,11.8066623 53.696,12.684 C52.7999955,13.5613377 51.6380071,14 50.21,14 Z M50.21,5.922 L48.334,5.922 L48.334,12.278 L50.21,12.278 C51.143338,12.278 51.8549975,11.9980028 52.345,11.438 C52.8350024,10.8779972 53.08,10.0986717 53.08,9.1 C53.08,8.10132834 52.8350024,7.3220028 52.345,6.762 C51.8549975,6.2019972 51.143338,5.922 50.21,5.922 Z M64.126,14 L62.264,14 L60.234,10.36 L58.414,10.36 L58.414,14 L56.622,14 L56.622,4.2 L60.206,4.2 C62.4553446,4.2 63.58,5.14265724 63.58,7.028 C63.58,7.7280035 63.4353348,8.29733114 63.146,8.736 C62.8566652,9.17466886 62.4460027,9.5573317 61.914,9.884 L64.126,14 Z M59.8,5.698 L58.414,5.698 L58.414,8.68 L59.73,8.68 C60.4860038,8.68 61.0039986,8.54933464 61.284,8.288 C61.5640014,8.02666536 61.704,7.64866914 61.704,7.154 C61.704,6.65933086 61.568668,6.29300119 61.298,6.055 C61.027332,5.81699881 60.5280036,5.698 59.8,5.698 Z M67.178,14 L65.386,14 L65.386,4.2 L67.178,4.2 L67.178,14 Z M77.412,4.2 L73.968,14 L71.784,14 L68.256,4.2 L70.118,4.2 L72.862,11.634 L75.564,4.2 L77.412,4.2 Z M84.944,14 L78.532,14 L78.532,4.2 L84.804,4.2 L84.804,5.936 L80.366,5.936 L80.366,8.022 L83.81,8.022 L83.81,9.758 L80.366,9.758 L80.366,12.264 L84.944,12.264 L84.944,14 Z" id="MEGADRIVE-Copy" fill="#FFFFFF"></path>
        <g id="system" stroke="#867740" stroke-linecap="round">
            <path d="M0.5,17.5 L4.5,0.5" id="Shape"></path>
        </g>
    </g>
</svg>