<?xml version="1.0" encoding="utf-8"?>
<svg viewBox="0 0 84.94 18" xmlns="http://www.w3.org/2000/svg" xmlns:bx="https://boxy-svg.com">
  <path d="M 19.055 13.569 L 17.185 13.569 L 16.345 6.999 L 13.845 11.509 L 11.325 7.019 L 10.485 13.569 L 8.625 13.569 L 9.975 3.769 L 11.445 3.769 L 13.845 8.239 L 16.225 3.769 L 17.695 3.769 L 19.055 13.569 ZM 27.086 13.569 L 20.676 13.569 L 20.676 3.769 L 26.946 3.769 L 26.946 5.509 L 22.506 5.509 L 22.506 7.589 L 25.956 7.589 L 25.956 9.329 L 22.506 9.329 L 22.506 11.829 L 27.086 11.829 L 27.086 13.569 ZM 32.701 13.769 C 32.008 13.769 31.368 13.646 30.781 13.399 C 30.194 13.159 29.688 12.816 29.261 12.369 C 28.834 11.916 28.504 11.376 28.271 10.749 C 28.031 10.116 27.911 9.419 27.911 8.659 C 27.911 7.899 28.031 7.206 28.271 6.579 C 28.504 5.959 28.838 5.426 29.271 4.979 C 29.698 4.539 30.214 4.192 30.821 3.939 C 31.421 3.692 32.081 3.569 32.801 3.569 C 33.034 3.569 33.288 3.586 33.561 3.619 C 33.834 3.646 34.104 3.682 34.371 3.729 C 34.638 3.782 34.891 3.846 35.131 3.919 C 35.364 3.986 35.568 4.062 35.741 4.149 L 35.541 5.859 C 34.648 5.486 33.748 5.299 32.841 5.299 C 32.348 5.299 31.914 5.376 31.541 5.529 C 31.174 5.689 30.868 5.916 30.621 6.209 C 30.374 6.502 30.188 6.852 30.061 7.259 C 29.934 7.666 29.871 8.122 29.871 8.629 C 29.871 9.149 29.938 9.619 30.071 10.039 C 30.198 10.459 30.391 10.816 30.651 11.109 C 30.918 11.402 31.238 11.632 31.611 11.799 C 31.991 11.959 32.428 12.039 32.921 12.039 C 33.308 12.039 33.758 11.989 34.271 11.889 L 34.271 10.139 L 33.191 10.139 L 33.191 8.659 L 36.061 8.659 L 36.061 13.019 C 35.894 13.126 35.674 13.222 35.401 13.309 C 35.128 13.396 34.838 13.476 34.531 13.549 C 34.218 13.616 33.898 13.669 33.571 13.709 C 33.251 13.749 32.961 13.769 32.701 13.769 ZM 45.426 13.569 L 43.566 13.569 L 42.726 11.199 L 39.456 11.199 L 38.616 13.569 L 36.756 13.569 L 40.246 3.769 L 41.936 3.769 L 45.426 13.569 M 42.106 9.469 L 41.086 6.599 L 40.076 9.469 L 42.106 9.469 ZM 50.215 13.569 L 46.545 13.569 L 46.545 3.769 L 50.215 3.769 C 50.922 3.769 51.572 3.882 52.165 4.109 C 52.759 4.342 53.265 4.669 53.685 5.089 C 54.112 5.516 54.445 6.029 54.685 6.629 C 54.925 7.236 55.045 7.916 55.045 8.669 C 55.045 9.422 54.925 10.102 54.685 10.709 C 54.445 11.316 54.112 11.829 53.685 12.249 C 53.265 12.669 52.759 12.996 52.165 13.229 C 51.572 13.456 50.922 13.569 50.215 13.569 M 50.215 5.489 L 48.335 5.489 L 48.335 11.849 L 50.215 11.849 C 51.149 11.849 51.859 11.569 52.345 11.009 C 52.839 10.456 53.085 9.676 53.085 8.669 C 53.085 7.662 52.839 6.879 52.345 6.319 C 51.859 5.766 51.149 5.489 50.215 5.489 ZM 64.124 13.569 L 62.264 13.569 L 60.234 9.929 L 58.414 9.929 L 58.414 13.569 L 56.624 13.569 L 56.624 3.769 L 60.204 3.769 C 62.458 3.769 63.584 4.712 63.584 6.599 C 63.584 7.299 63.438 7.869 63.144 8.309 C 62.858 8.742 62.448 9.122 61.914 9.449 L 64.124 13.569 M 59.804 5.269 L 58.414 5.269 L 58.414 8.249 L 59.734 8.249 C 60.488 8.249 61.004 8.119 61.284 7.859 C 61.564 7.606 61.704 7.226 61.704 6.719 C 61.704 6.226 61.568 5.859 61.294 5.619 C 61.028 5.386 60.531 5.269 59.804 5.269 ZM 67.178 13.569 L 65.388 13.569 L 65.388 3.769 L 67.178 3.769 L 67.178 13.569 ZM 77.415 3.769 L 73.965 13.569 L 71.785 13.569 L 68.255 3.769 L 70.115 3.769 L 72.865 11.199 L 75.565 3.769 L 77.415 3.769 ZM 84.942 13.569 L 78.532 13.569 L 78.532 3.769 L 84.802 3.769 L 84.802 5.509 L 80.362 5.509 L 80.362 7.589 L 83.812 7.589 L 83.812 9.329 L 80.362 9.329 L 80.362 11.829 L 84.942 11.829 L 84.942 13.569 Z" transform="matrix(1, 0, 0, 1, 0, 0)" style="fill: rgb(255, 255, 255); white-space: pre;"/>
  <path d="M 0 18 L 3.869 0" style="fill: none; stroke-linecap: round; stroke: rgb(134, 119, 64);" bx:origin="0 0.5"/>
</svg>