<?xml version="1.0" encoding="UTF-8" standalone="no"?>
<svg width="171px" height="18px" viewBox="0 0 171 18" version="1.1" xmlns="http://www.w3.org/2000/svg" xmlns:xlink="http://www.w3.org/1999/xlink">
    <!-- Generator: Sketch 45 (43475) - http://www.bohemiancoding.com/sketch -->
    <title>system</title>
    <desc>Created with Sketch.</desc>
    <defs></defs>
    <g id="Page-1" stroke="none" stroke-width="1" fill="none" fill-rule="evenodd">
        <path d="M16.82,14 L15.35,14 L10.87,7.28 L10.87,14 L9.078,14 L9.078,4.2 L10.842,4.2 L15.028,10.528 L15.028,4.2 L16.82,4.2 L16.82,14 Z M25.388,14 L18.976,14 L18.976,4.2 L25.248,4.2 L25.248,5.936 L20.81,5.936 L20.81,8.022 L24.254,8.022 L24.254,9.758 L20.81,9.758 L20.81,12.264 L25.388,12.264 L25.388,14 Z M31.044,14.196 C29.6253262,14.196 28.4656712,13.7270047 27.565,12.789 C26.6643288,11.8509953 26.214,10.6213409 26.214,9.1 C26.214,7.57865906 26.6643288,6.34900469 27.565,5.411 C28.4656712,4.47299531 29.6253262,4.004 31.044,4.004 C32.4626738,4.004 33.6223288,4.47299531 34.523,5.411 C35.4236712,6.34900469 35.874,7.57865906 35.874,9.1 C35.874,10.6213409 35.4236712,11.8509953 34.523,12.789 C33.6223288,13.7270047 32.4626738,14.196 31.044,14.196 Z M31.044,5.726 C30.1199954,5.726 29.4106691,6.03399692 28.916,6.65 C28.4213309,7.26600308 28.174,8.08266158 28.174,9.1 C28.174,10.1173384 28.4213309,10.9339969 28.916,11.55 C29.4106691,12.1660031 30.1199954,12.474 31.044,12.474 C31.9680046,12.474 32.6773309,12.1660031 33.172,11.55 C33.6666691,10.9339969 33.914,10.1173384 33.914,9.1 C33.914,8.08266158 33.6666691,7.26600308 33.172,6.65 C32.6773309,6.03399692 31.9680046,5.726 31.044,5.726 Z M44.792,14.196 C43.4013264,14.196 42.2556712,13.7270047 41.355,12.789 C40.4543288,11.8509953 40.004,10.6166743 40.004,9.086 C40.004,7.56465906 40.4566621,6.337338 41.362,5.404 C42.2673379,4.470662 43.4433261,4.004 44.89,4.004 C45.3846691,4.004 45.9119972,4.05766613 46.472,4.165 C47.0320028,4.27233387 47.4846649,4.40999916 47.83,4.578 L47.634,6.286 C46.7193288,5.9126648 45.8186711,5.726 44.932,5.726 C43.9519951,5.726 43.2123358,6.03166361 42.713,6.643 C42.2136642,7.25433639 41.964,8.05932834 41.964,9.058 C41.964,10.0940052 42.2253307,10.9223302 42.748,11.543 C43.2706693,12.1636698 44.0266617,12.474 45.016,12.474 C45.4173353,12.474 45.8653309,12.4226672 46.36,12.32 L46.36,10.57 L45.282,10.57 L45.282,9.086 L48.152,9.086 L48.152,13.454 C47.7973316,13.6593344 47.28867,13.8343326 46.626,13.979 C45.96333,14.1236674 45.3520028,14.196 44.792,14.196 Z M56.3,14 L49.888,14 L49.888,4.2 L56.16,4.2 L56.16,5.936 L51.722,5.936 L51.722,8.022 L55.166,8.022 L55.166,9.758 L51.722,9.758 L51.722,12.264 L56.3,12.264 L56.3,14 Z M61.956,14.196 C60.5373262,14.196 59.3776712,13.7270047 58.477,12.789 C57.5763288,11.8509953 57.126,10.6213409 57.126,9.1 C57.126,7.57865906 57.5763288,6.34900469 58.477,5.411 C59.3776712,4.47299531 60.5373262,4.004 61.956,4.004 C63.3746738,4.004 64.5343288,4.47299531 65.435,5.411 C66.3356712,6.34900469 66.786,7.57865906 66.786,9.1 C66.786,10.6213409 66.3356712,11.8509953 65.435,12.789 C64.5343288,13.7270047 63.3746738,14.196 61.956,14.196 Z M61.956,5.726 C61.0319954,5.726 60.3226691,6.03399692 59.828,6.65 C59.3333309,7.26600308 59.086,8.08266158 59.086,9.1 C59.086,10.1173384 59.3333309,10.9339969 59.828,11.55 C60.3226691,12.1660031 61.0319954,12.474 61.956,12.474 C62.8800046,12.474 63.5893309,12.1660031 64.084,11.55 C64.5786691,10.9339969 64.826,10.1173384 64.826,9.1 C64.826,8.08266158 64.5786691,7.26600308 64.084,6.65 C63.5893309,6.03399692 62.8800046,5.726 61.956,5.726 Z M75.046,10.78 L73.296,10.78 L73.296,14 L71.504,14 L71.504,4.2 L74.276,4.2 C75.013337,4.2 75.6176643,4.23733296 76.089,4.312 C76.5603357,4.38666704 76.9896647,4.53133226 77.377,4.746 C77.7643353,4.96066774 78.0443325,5.27566459 78.217,5.691 C78.3896675,6.10633541 78.476,6.64533002 78.476,7.308 C78.476,7.97066998 78.3663344,8.54233093 78.147,9.023 C77.9276656,9.50366907 77.6360018,9.86533212 77.272,10.108 C76.9079982,10.3506679 76.5440018,10.5233328 76.18,10.626 C75.8159982,10.7286672 75.438002,10.78 75.046,10.78 Z M74.766,5.698 L73.296,5.698 L73.296,9.1 L74.808,9.1 C75.47067,9.1 75.9443319,8.96700133 76.229,8.701 C76.5136681,8.43499867 76.656,7.9753366 76.656,7.322 C76.656,6.74333044 76.5230013,6.32800126 76.257,6.076 C75.9909987,5.82399874 75.4940036,5.698 74.766,5.698 Z M84.09,14.196 C82.6713262,14.196 81.5116712,13.7270047 80.611,12.789 C79.7103288,11.8509953 79.26,10.6213409 79.26,9.1 C79.26,7.57865906 79.7103288,6.34900469 80.611,5.411 C81.5116712,4.47299531 82.6713262,4.004 84.09,4.004 C85.5086738,4.004 86.6683288,4.47299531 87.569,5.411 C88.4696712,6.34900469 88.92,7.57865906 88.92,9.1 C88.92,10.6213409 88.4696712,11.8509953 87.569,12.789 C86.6683288,13.7270047 85.5086738,14.196 84.09,14.196 Z M84.09,5.726 C83.1659954,5.726 82.4566691,6.03399692 81.962,6.65 C81.4673309,7.26600308 81.22,8.08266158 81.22,9.1 C81.22,10.1173384 81.4673309,10.9339969 81.962,11.55 C82.4566691,12.1660031 83.1659954,12.474 84.09,12.474 C85.0140046,12.474 85.7233309,12.1660031 86.218,11.55 C86.7126691,10.9339969 86.96,10.1173384 86.96,9.1 C86.96,8.08266158 86.7126691,7.26600308 86.218,6.65 C85.7233309,6.03399692 85.0140046,5.726 84.09,5.726 Z M94.73,14.196 C93.3113262,14.196 92.1516712,13.7270047 91.251,12.789 C90.3503288,11.8509953 89.9,10.6213409 89.9,9.1 C89.9,7.57865906 90.3503288,6.34900469 91.251,5.411 C92.1516712,4.47299531 93.3113262,4.004 94.73,4.004 C95.8033387,4.004 96.7319961,4.19533142 97.516,4.578 L97.32,6.286 C96.3773286,5.9126648 95.5140039,5.726 94.73,5.726 C93.8059954,5.726 93.0966691,6.03399692 92.602,6.65 C92.1073309,7.26600308 91.86,8.08266158 91.86,9.1 C91.86,10.1173384 92.1073309,10.9339969 92.602,11.55 C93.0966691,12.1660031 93.8059954,12.474 94.73,12.474 C95.5140039,12.474 96.3773286,12.2873352 97.32,11.914 L97.516,13.622 C96.7319961,14.0046686 95.8033387,14.196 94.73,14.196 Z M106.588,14 L104.572,14 L101.156,8.82 L104.572,4.2 L106.588,4.2 L103.172,8.82 L106.588,14 Z M100.806,14 L99.014,14 L99.014,4.2 L100.806,4.2 L100.806,14 Z M114.12,14 L107.708,14 L107.708,4.2 L113.98,4.2 L113.98,5.936 L109.542,5.936 L109.542,8.022 L112.986,8.022 L112.986,9.758 L109.542,9.758 L109.542,12.264 L114.12,12.264 L114.12,14 Z M122.128,5.936 L119.356,5.936 L119.356,14 L117.564,14 L117.564,5.936 L114.792,5.936 L114.792,4.2 L122.128,4.2 L122.128,5.936 Z M130.808,14.196 C129.389326,14.196 128.229671,13.7270047 127.329,12.789 C126.428329,11.8509953 125.978,10.6213409 125.978,9.1 C125.978,7.57865906 126.428329,6.34900469 127.329,5.411 C128.229671,4.47299531 129.389326,4.004 130.808,4.004 C131.881339,4.004 132.809996,4.19533142 133.594,4.578 L133.398,6.286 C132.455329,5.9126648 131.592004,5.726 130.808,5.726 C129.883995,5.726 129.174669,6.03399692 128.68,6.65 C128.185331,7.26600308 127.938,8.08266158 127.938,9.1 C127.938,10.1173384 128.185331,10.9339969 128.68,11.55 C129.174669,12.1660031 129.883995,12.474 130.808,12.474 C131.592004,12.474 132.455329,12.2873352 133.398,11.914 L133.594,13.622 C132.809996,14.0046686 131.881339,14.196 130.808,14.196 Z M139.208,14.196 C137.789326,14.196 136.629671,13.7270047 135.729,12.789 C134.828329,11.8509953 134.378,10.6213409 134.378,9.1 C134.378,7.57865906 134.828329,6.34900469 135.729,5.411 C136.629671,4.47299531 137.789326,4.004 139.208,4.004 C140.626674,4.004 141.786329,4.47299531 142.687,5.411 C143.587671,6.34900469 144.038,7.57865906 144.038,9.1 C144.038,10.6213409 143.587671,11.8509953 142.687,12.789 C141.786329,13.7270047 140.626674,14.196 139.208,14.196 Z M139.208,5.726 C138.283995,5.726 137.574669,6.03399692 137.08,6.65 C136.585331,7.26600308 136.338,8.08266158 136.338,9.1 C136.338,10.1173384 136.585331,10.9339969 137.08,11.55 C137.574669,12.1660031 138.283995,12.474 139.208,12.474 C140.132005,12.474 140.841331,12.1660031 141.336,11.55 C141.830669,10.9339969 142.078,10.1173384 142.078,9.1 C142.078,8.08266158 141.830669,7.26600308 141.336,6.65 C140.841331,6.03399692 140.132005,5.726 139.208,5.726 Z M151.43,14 L145.606,14 L145.606,4.2 L147.398,4.2 L147.398,12.264 L151.43,12.264 L151.43,14 Z M156.666,14.196 C155.247326,14.196 154.087671,13.7270047 153.187,12.789 C152.286329,11.8509953 151.836,10.6213409 151.836,9.1 C151.836,7.57865906 152.286329,6.34900469 153.187,5.411 C154.087671,4.47299531 155.247326,4.004 156.666,4.004 C158.084674,4.004 159.244329,4.47299531 160.145,5.411 C161.045671,6.34900469 161.496,7.57865906 161.496,9.1 C161.496,10.6213409 161.045671,11.8509953 160.145,12.789 C159.244329,13.7270047 158.084674,14.196 156.666,14.196 Z M156.666,5.726 C155.741995,5.726 155.032669,6.03399692 154.538,6.65 C154.043331,7.26600308 153.796,8.08266158 153.796,9.1 C153.796,10.1173384 154.043331,10.9339969 154.538,11.55 C155.032669,12.1660031 155.741995,12.474 156.666,12.474 C157.590005,12.474 158.299331,12.1660031 158.794,11.55 C159.288669,10.9339969 159.536,10.1173384 159.536,9.1 C159.536,8.08266158 159.288669,7.26600308 158.794,6.65 C158.299331,6.03399692 157.590005,5.726 156.666,5.726 Z M170.568,14 L168.706,14 L166.676,10.36 L164.856,10.36 L164.856,14 L163.064,14 L163.064,4.2 L166.648,4.2 C168.897345,4.2 170.022,5.14265724 170.022,7.028 C170.022,7.7280035 169.877335,8.29733114 169.588,8.736 C169.298665,9.17466886 168.888003,9.5573317 168.356,9.884 L170.568,14 Z M166.242,5.698 L164.856,5.698 L164.856,8.68 L166.172,8.68 C166.928004,8.68 167.445999,8.54933464 167.726,8.288 C168.006001,8.02666536 168.146,7.64866914 168.146,7.154 C168.146,6.65933086 168.010668,6.29300119 167.74,6.055 C167.469332,5.81699881 166.970004,5.698 166.242,5.698 Z" id="NEO-GEO-POCKET-COLOR-Copy" fill="#FFFFFF"></path>
        <g id="system" stroke="#867740" stroke-linecap="round">
            <path d="M0.5,17.5 L4.5,0.5" id="Shape"></path>
        </g>
    </g>
</svg>