<?xml version="1.0" encoding="utf-8"?>
<svg viewBox="0 0 170.56 18" xmlns="http://www.w3.org/2000/svg" xmlns:bx="https://boxy-svg.com">
  <path d="M 16.825 13.569 L 15.355 13.569 L 10.875 6.849 L 10.875 13.569 L 9.085 13.569 L 9.085 3.769 L 10.845 3.769 L 15.035 10.099 L 15.035 3.769 L 16.825 3.769 L 16.825 13.569 ZM 25.392 13.569 L 18.982 13.569 L 18.982 3.769 L 25.252 3.769 L 25.252 5.509 L 20.812 5.509 L 20.812 7.589 L 24.262 7.589 L 24.262 9.329 L 20.812 9.329 L 20.812 11.829 L 25.392 11.829 L 25.392 13.569 ZM 34.517 12.369 C 33.624 13.302 32.467 13.769 31.047 13.769 C 30.347 13.769 29.701 13.646 29.107 13.399 C 28.514 13.159 28.004 12.816 27.577 12.369 C 27.144 11.916 26.811 11.379 26.577 10.759 C 26.337 10.132 26.217 9.436 26.217 8.669 C 26.217 7.902 26.337 7.206 26.577 6.579 C 26.824 5.959 27.157 5.422 27.577 4.969 C 28.004 4.522 28.514 4.179 29.107 3.939 C 29.701 3.692 30.347 3.569 31.047 3.569 C 31.747 3.569 32.394 3.692 32.987 3.939 C 33.581 4.192 34.091 4.542 34.517 4.989 C 34.951 5.436 35.284 5.972 35.517 6.599 C 35.757 7.226 35.877 7.916 35.877 8.669 C 35.877 10.202 35.424 11.436 34.517 12.369 M 33.177 6.219 C 32.684 5.606 31.974 5.299 31.047 5.299 C 30.581 5.299 30.171 5.379 29.817 5.539 C 29.464 5.706 29.164 5.936 28.917 6.229 C 28.677 6.522 28.494 6.876 28.367 7.289 C 28.241 7.702 28.177 8.162 28.177 8.669 C 28.177 9.176 28.241 9.636 28.367 10.049 C 28.494 10.462 28.677 10.816 28.917 11.109 C 29.164 11.402 29.464 11.632 29.817 11.799 C 30.171 11.959 30.581 12.039 31.047 12.039 C 31.514 12.039 31.924 11.959 32.277 11.799 C 32.631 11.632 32.931 11.402 33.177 11.109 C 33.417 10.816 33.601 10.462 33.727 10.049 C 33.854 9.636 33.917 9.176 33.917 8.669 C 33.917 7.662 33.671 6.846 33.177 6.219 ZM 44.796 13.769 C 44.103 13.769 43.463 13.646 42.876 13.399 C 42.289 13.159 41.783 12.816 41.356 12.369 C 40.929 11.916 40.599 11.376 40.366 10.749 C 40.126 10.116 40.006 9.419 40.006 8.659 C 40.006 7.899 40.126 7.206 40.366 6.579 C 40.599 5.959 40.933 5.426 41.366 4.979 C 41.793 4.539 42.309 4.192 42.916 3.939 C 43.516 3.692 44.176 3.569 44.896 3.569 C 45.129 3.569 45.383 3.586 45.656 3.619 C 45.929 3.646 46.199 3.682 46.466 3.729 C 46.733 3.782 46.986 3.846 47.226 3.919 C 47.459 3.986 47.663 4.062 47.836 4.149 L 47.636 5.859 C 46.743 5.486 45.843 5.299 44.936 5.299 C 44.443 5.299 44.009 5.376 43.636 5.529 C 43.269 5.689 42.963 5.916 42.716 6.209 C 42.469 6.502 42.283 6.852 42.156 7.259 C 42.029 7.666 41.966 8.122 41.966 8.629 C 41.966 9.149 42.033 9.619 42.166 10.039 C 42.293 10.459 42.486 10.816 42.746 11.109 C 43.013 11.402 43.333 11.632 43.706 11.799 C 44.086 11.959 44.523 12.039 45.016 12.039 C 45.403 12.039 45.853 11.989 46.366 11.889 L 46.366 10.139 L 45.286 10.139 L 45.286 8.659 L 48.156 8.659 L 48.156 13.019 C 47.989 13.126 47.769 13.222 47.496 13.309 C 47.223 13.396 46.933 13.476 46.626 13.549 C 46.313 13.616 45.993 13.669 45.666 13.709 C 45.346 13.749 45.056 13.769 44.796 13.769 ZM 56.301 13.569 L 49.891 13.569 L 49.891 3.769 L 56.161 3.769 L 56.161 5.509 L 51.721 5.509 L 51.721 7.589 L 55.171 7.589 L 55.171 9.329 L 51.721 9.329 L 51.721 11.829 L 56.301 11.829 L 56.301 13.569 ZM 65.426 12.369 C 64.533 13.302 63.376 13.769 61.956 13.769 C 61.256 13.769 60.61 13.646 60.016 13.399 C 59.423 13.159 58.913 12.816 58.486 12.369 C 58.053 11.916 57.72 11.379 57.486 10.759 C 57.246 10.132 57.126 9.436 57.126 8.669 C 57.126 7.902 57.246 7.206 57.486 6.579 C 57.733 5.959 58.066 5.422 58.486 4.969 C 58.913 4.522 59.423 4.179 60.016 3.939 C 60.61 3.692 61.256 3.569 61.956 3.569 C 62.656 3.569 63.303 3.692 63.896 3.939 C 64.49 4.192 65 4.542 65.426 4.989 C 65.86 5.436 66.193 5.972 66.426 6.599 C 66.666 7.226 66.786 7.916 66.786 8.669 C 66.786 10.202 66.333 11.436 65.426 12.369 M 64.086 6.219 C 63.593 5.606 62.883 5.299 61.956 5.299 C 61.49 5.299 61.08 5.379 60.726 5.539 C 60.373 5.706 60.073 5.936 59.826 6.229 C 59.586 6.522 59.403 6.876 59.276 7.289 C 59.15 7.702 59.086 8.162 59.086 8.669 C 59.086 9.176 59.15 9.636 59.276 10.049 C 59.403 10.462 59.586 10.816 59.826 11.109 C 60.073 11.402 60.373 11.632 60.726 11.799 C 61.08 11.959 61.49 12.039 61.956 12.039 C 62.423 12.039 62.833 11.959 63.186 11.799 C 63.54 11.632 63.84 11.402 64.086 11.109 C 64.326 10.816 64.51 10.462 64.636 10.049 C 64.763 9.636 64.826 9.176 64.826 8.669 C 64.826 7.662 64.58 6.846 64.086 6.219 ZM 75.045 10.349 L 73.295 10.349 L 73.295 13.569 L 71.505 13.569 L 71.505 3.769 L 74.275 3.769 C 74.982 3.769 75.602 3.809 76.135 3.889 C 76.662 3.969 77.095 4.122 77.435 4.349 C 77.782 4.576 78.042 4.892 78.215 5.299 C 78.388 5.706 78.475 6.232 78.475 6.879 C 78.475 7.559 78.368 8.122 78.155 8.569 C 77.942 9.009 77.665 9.362 77.325 9.629 C 76.992 9.896 76.622 10.082 76.215 10.189 C 75.808 10.296 75.418 10.349 75.045 10.349 M 74.765 5.269 L 73.295 5.269 L 73.295 8.669 L 74.805 8.669 C 75.472 8.669 75.945 8.536 76.225 8.269 C 76.512 8.002 76.655 7.542 76.655 6.889 C 76.655 6.602 76.625 6.356 76.565 6.149 C 76.505 5.942 76.402 5.776 76.255 5.649 C 76.108 5.516 75.915 5.419 75.675 5.359 C 75.435 5.299 75.132 5.269 74.765 5.269 ZM 87.558 12.369 C 86.665 13.302 85.508 13.769 84.088 13.769 C 83.388 13.769 82.742 13.646 82.148 13.399 C 81.555 13.159 81.045 12.816 80.618 12.369 C 80.185 11.916 79.852 11.379 79.618 10.759 C 79.378 10.132 79.258 9.436 79.258 8.669 C 79.258 7.902 79.378 7.206 79.618 6.579 C 79.865 5.959 80.198 5.422 80.618 4.969 C 81.045 4.522 81.555 4.179 82.148 3.939 C 82.742 3.692 83.388 3.569 84.088 3.569 C 84.788 3.569 85.435 3.692 86.028 3.939 C 86.622 4.192 87.132 4.542 87.558 4.989 C 87.992 5.436 88.325 5.972 88.558 6.599 C 88.798 7.226 88.918 7.916 88.918 8.669 C 88.918 10.202 88.465 11.436 87.558 12.369 M 86.218 6.219 C 85.725 5.606 85.015 5.299 84.088 5.299 C 83.622 5.299 83.212 5.379 82.858 5.539 C 82.505 5.706 82.205 5.936 81.958 6.229 C 81.718 6.522 81.535 6.876 81.408 7.289 C 81.282 7.702 81.218 8.162 81.218 8.669 C 81.218 9.176 81.282 9.636 81.408 10.049 C 81.535 10.462 81.718 10.816 81.958 11.109 C 82.205 11.402 82.505 11.632 82.858 11.799 C 83.212 11.959 83.622 12.039 84.088 12.039 C 84.555 12.039 84.965 11.959 85.318 11.799 C 85.672 11.632 85.972 11.402 86.218 11.109 C 86.458 10.816 86.642 10.462 86.768 10.049 C 86.895 9.636 86.958 9.176 86.958 8.669 C 86.958 7.662 86.712 6.846 86.218 6.219 ZM 94.727 13.769 C 94.027 13.769 93.381 13.646 92.787 13.399 C 92.194 13.159 91.684 12.816 91.257 12.369 C 90.824 11.916 90.491 11.379 90.257 10.759 C 90.017 10.132 89.897 9.436 89.897 8.669 C 89.897 7.902 90.017 7.206 90.257 6.579 C 90.504 5.959 90.837 5.422 91.257 4.969 C 91.684 4.522 92.194 4.179 92.787 3.939 C 93.381 3.692 94.027 3.569 94.727 3.569 C 95.794 3.569 96.724 3.762 97.517 4.149 L 97.317 5.859 C 96.391 5.486 95.527 5.299 94.727 5.299 C 94.261 5.299 93.851 5.379 93.497 5.539 C 93.144 5.706 92.844 5.936 92.597 6.229 C 92.357 6.522 92.174 6.876 92.047 7.289 C 91.921 7.702 91.857 8.162 91.857 8.669 C 91.857 9.176 91.921 9.636 92.047 10.049 C 92.174 10.462 92.357 10.816 92.597 11.109 C 92.844 11.402 93.144 11.632 93.497 11.799 C 93.851 11.959 94.261 12.039 94.727 12.039 C 95.527 12.039 96.391 11.852 97.317 11.479 L 97.517 13.189 C 96.724 13.576 95.794 13.769 94.727 13.769 ZM 106.582 13.569 L 104.572 13.569 L 101.152 8.389 L 104.572 3.769 L 106.582 3.769 L 103.172 8.389 L 106.582 13.569 M 100.802 13.569 L 99.012 13.569 L 99.012 3.769 L 100.802 3.769 L 100.802 13.569 ZM 114.116 13.569 L 107.706 13.569 L 107.706 3.769 L 113.976 3.769 L 113.976 5.509 L 109.536 5.509 L 109.536 7.589 L 112.986 7.589 L 112.986 9.329 L 109.536 9.329 L 109.536 11.829 L 114.116 11.829 L 114.116 13.569 ZM 122.127 5.509 L 119.347 5.509 L 119.347 13.569 L 117.557 13.569 L 117.557 5.509 L 114.787 5.509 L 114.787 3.769 L 122.127 3.769 L 122.127 5.509 ZM 130.802 13.769 C 130.102 13.769 129.455 13.646 128.862 13.399 C 128.268 13.159 127.758 12.816 127.332 12.369 C 126.898 11.916 126.565 11.379 126.332 10.759 C 126.092 10.132 125.972 9.436 125.972 8.669 C 125.972 7.902 126.092 7.206 126.332 6.579 C 126.578 5.959 126.912 5.422 127.332 4.969 C 127.758 4.522 128.268 4.179 128.862 3.939 C 129.455 3.692 130.102 3.569 130.802 3.569 C 131.868 3.569 132.798 3.762 133.592 4.149 L 133.392 5.859 C 132.465 5.486 131.602 5.299 130.802 5.299 C 130.335 5.299 129.925 5.379 129.572 5.539 C 129.218 5.706 128.918 5.936 128.672 6.229 C 128.432 6.522 128.248 6.876 128.122 7.289 C 127.995 7.702 127.932 8.162 127.932 8.669 C 127.932 9.176 127.995 9.636 128.122 10.049 C 128.248 10.462 128.432 10.816 128.672 11.109 C 128.918 11.402 129.218 11.632 129.572 11.799 C 129.925 11.959 130.335 12.039 130.802 12.039 C 131.602 12.039 132.465 11.852 133.392 11.479 L 133.592 13.189 C 132.798 13.576 131.868 13.769 130.802 13.769 ZM 142.671 12.369 C 141.778 13.302 140.621 13.769 139.201 13.769 C 138.501 13.769 137.854 13.646 137.261 13.399 C 136.668 13.159 136.158 12.816 135.731 12.369 C 135.298 11.916 134.964 11.379 134.731 10.759 C 134.491 10.132 134.371 9.436 134.371 8.669 C 134.371 7.902 134.491 7.206 134.731 6.579 C 134.978 5.959 135.311 5.422 135.731 4.969 C 136.158 4.522 136.668 4.179 137.261 3.939 C 137.854 3.692 138.501 3.569 139.201 3.569 C 139.901 3.569 140.548 3.692 141.141 3.939 C 141.734 4.192 142.244 4.542 142.671 4.989 C 143.104 5.436 143.438 5.972 143.671 6.599 C 143.911 7.226 144.031 7.916 144.031 8.669 C 144.031 10.202 143.578 11.436 142.671 12.369 M 141.331 6.219 C 140.838 5.606 140.128 5.299 139.201 5.299 C 138.734 5.299 138.324 5.379 137.971 5.539 C 137.618 5.706 137.318 5.936 137.071 6.229 C 136.831 6.522 136.648 6.876 136.521 7.289 C 136.394 7.702 136.331 8.162 136.331 8.669 C 136.331 9.176 136.394 9.636 136.521 10.049 C 136.648 10.462 136.831 10.816 137.071 11.109 C 137.318 11.402 137.618 11.632 137.971 11.799 C 138.324 11.959 138.734 12.039 139.201 12.039 C 139.668 12.039 140.078 11.959 140.431 11.799 C 140.784 11.632 141.084 11.402 141.331 11.109 C 141.571 10.816 141.754 10.462 141.881 10.049 C 142.008 9.636 142.071 9.176 142.071 8.669 C 142.071 7.662 141.824 6.846 141.331 6.219 ZM 151.42 13.569 L 145.6 13.569 L 145.6 3.769 L 147.39 3.769 L 147.39 11.829 L 151.42 11.829 L 151.42 13.569 ZM 160.127 12.369 C 159.234 13.302 158.077 13.769 156.657 13.769 C 155.957 13.769 155.311 13.646 154.717 13.399 C 154.124 13.159 153.614 12.816 153.187 12.369 C 152.754 11.916 152.421 11.379 152.187 10.759 C 151.947 10.132 151.827 9.436 151.827 8.669 C 151.827 7.902 151.947 7.206 152.187 6.579 C 152.434 5.959 152.767 5.422 153.187 4.969 C 153.614 4.522 154.124 4.179 154.717 3.939 C 155.311 3.692 155.957 3.569 156.657 3.569 C 157.357 3.569 158.004 3.692 158.597 3.939 C 159.191 4.192 159.701 4.542 160.127 4.989 C 160.561 5.436 160.894 5.972 161.127 6.599 C 161.367 7.226 161.487 7.916 161.487 8.669 C 161.487 10.202 161.034 11.436 160.127 12.369 M 158.787 6.219 C 158.294 5.606 157.584 5.299 156.657 5.299 C 156.191 5.299 155.781 5.379 155.427 5.539 C 155.074 5.706 154.774 5.936 154.527 6.229 C 154.287 6.522 154.104 6.876 153.977 7.289 C 153.851 7.702 153.787 8.162 153.787 8.669 C 153.787 9.176 153.851 9.636 153.977 10.049 C 154.104 10.462 154.287 10.816 154.527 11.109 C 154.774 11.402 155.074 11.632 155.427 11.799 C 155.781 11.959 156.191 12.039 156.657 12.039 C 157.124 12.039 157.534 11.959 157.887 11.799 C 158.241 11.632 158.541 11.402 158.787 11.109 C 159.027 10.816 159.211 10.462 159.337 10.049 C 159.464 9.636 159.527 9.176 159.527 8.669 C 159.527 7.662 159.281 6.846 158.787 6.219 ZM 170.556 13.569 L 168.696 13.569 L 166.666 9.929 L 164.846 9.929 L 164.846 13.569 L 163.056 13.569 L 163.056 3.769 L 166.636 3.769 C 168.89 3.769 170.016 4.712 170.016 6.599 C 170.016 7.299 169.87 7.869 169.576 8.309 C 169.29 8.742 168.88 9.122 168.346 9.449 L 170.556 13.569 M 166.236 5.269 L 164.846 5.269 L 164.846 8.249 L 166.166 8.249 C 166.92 8.249 167.436 8.119 167.716 7.859 C 167.996 7.606 168.136 7.226 168.136 6.719 C 168.136 6.226 168 5.859 167.726 5.619 C 167.46 5.386 166.963 5.269 166.236 5.269 Z" transform="matrix(1, 0, 0, 1, 0, 0)" style="fill: rgb(255, 255, 255); white-space: pre;"/>
  <path d="M 0 18 L 3.869 0" style="fill: none; stroke-linecap: round; stroke: rgb(134, 119, 64);" bx:origin="0 0.5"/>
</svg>