<?xml version="1.0" encoding="utf-8"?>
<svg id="Layer_3" x="0px" y="0px" viewBox="0 0 184.8 305.53" xmlns="http://www.w3.org/2000/svg" xmlns:bx="https://boxy-svg.com">
  <path id="path3" fill="#F4F4F4" d="M 31.308 183.895 C 29.573 183.895 28.15 185.319 28.15 187.053 L 28.15 198.263 C 28.15 198.302 28.152 198.261 28.15 198.284 L 16.92 198.284 C 15.185 198.284 13.762 199.707 13.762 201.442 L 13.762 213.508 C 13.762 215.243 15.185 216.666 16.92 216.666 L 28.15 216.666 C 28.154 216.697 28.15 216.654 28.15 216.708 L 28.15 227.897 C 28.15 229.632 29.573 231.055 31.308 231.055 L 43.374 231.055 C 45.108 231.055 46.533 229.632 46.533 227.897 L 46.533 216.708 C 46.533 216.632 46.528 216.692 46.533 216.666 L 57.762 216.666 C 59.498 216.666 60.921 215.243 60.921 213.508 L 60.921 201.442 C 60.921 199.707 59.498 198.284 57.762 198.284 L 46.553 198.284 C 46.521 198.284 46.553 198.287 46.532 198.284 L 46.532 187.054 C 46.532 185.32 45.108 183.896 43.374 183.896 L 31.308 183.896 L 31.308 183.895 Z M 31.308 185.234 L 43.374 185.234 C 44.385 185.234 45.194 186.043 45.194 187.053 L 45.194 198.325 C 45.194 198.716 45.357 199.138 45.674 199.371 C 45.992 199.602 46.308 199.622 46.553 199.622 L 57.762 199.622 C 58.775 199.622 59.582 200.43 59.582 201.441 L 59.582 213.508 C 59.582 214.52 58.774 215.327 57.762 215.327 L 46.533 215.327 C 46.179 215.326 45.759 215.401 45.487 215.724 C 45.215 216.047 45.194 216.403 45.194 216.707 L 45.194 227.895 C 45.194 228.908 44.385 229.714 43.374 229.714 L 31.308 229.714 C 30.297 229.714 29.488 228.907 29.488 227.895 L 29.488 216.707 C 29.488 216.455 29.517 216.149 29.279 215.807 C 29.043 215.466 28.601 215.326 28.214 215.326 L 16.92 215.326 C 15.908 215.326 15.101 214.518 15.101 213.507 L 15.101 201.44 C 15.101 200.428 15.908 199.621 16.92 199.621 L 28.213 199.621 C 28.51 199.621 28.869 199.561 29.154 199.266 C 29.439 198.971 29.489 198.603 29.489 198.262 L 29.489 187.053 C 29.49 186.041 30.298 185.233 31.308 185.234 L 31.308 185.234 Z" bx:origin="-0.292 -3.899"/>
  <path id="path5" fill="#F4F4F4" d="M 32.73 185.321 C 30.995 185.321 29.572 186.744 29.572 188.479 L 29.572 199.688 C 29.572 199.726 29.574 199.687 29.572 199.709 L 18.342 199.709 C 16.608 199.709 15.184 201.133 15.184 202.867 L 15.184 212.09 C 15.184 213.824 16.608 215.248 18.342 215.248 L 29.572 215.248 C 29.576 215.279 29.572 215.236 29.572 215.29 L 29.572 226.478 C 29.572 228.212 30.995 229.636 32.73 229.636 L 41.973 229.636 C 43.707 229.636 45.11 228.212 45.11 226.478 L 45.11 215.29 C 45.11 215.213 45.106 215.272 45.11 215.248 L 56.34 215.248 C 58.075 215.248 59.499 213.824 59.499 212.09 L 59.499 202.867 C 59.499 201.132 58.075 199.709 56.34 199.709 L 45.131 199.709 C 45.098 199.709 45.13 199.712 45.11 199.709 L 45.11 188.479 C 45.11 186.744 43.708 185.321 41.973 185.321 L 32.73 185.321 L 32.73 185.321 Z M 32.73 186.659 L 41.973 186.659 C 42.984 186.659 43.772 187.467 43.772 188.479 L 43.772 199.751 C 43.772 200.141 43.934 200.564 44.252 200.796 C 44.571 201.028 44.888 201.048 45.131 201.048 L 56.34 201.048 C 57.352 201.048 58.16 201.856 58.16 202.867 L 58.16 212.09 C 58.16 213.101 57.351 213.909 56.34 213.909 L 45.111 213.909 C 44.757 213.909 44.337 213.983 44.066 214.306 C 43.795 214.629 43.772 214.984 43.772 215.289 L 43.772 226.477 C 43.772 227.488 42.984 228.296 41.973 228.296 L 32.73 228.296 C 31.719 228.296 30.91 227.487 30.91 226.477 L 30.91 215.289 C 30.91 215.037 30.939 214.731 30.701 214.39 C 30.463 214.048 30.001 213.909 29.614 213.909 L 18.342 213.909 C 17.33 213.909 16.523 213.101 16.523 212.09 L 16.523 202.867 C 16.523 201.855 17.331 201.048 18.342 201.048 L 29.614 201.048 C 29.911 201.048 30.29 200.988 30.576 200.693 C 30.861 200.396 30.91 200.03 30.91 199.688 L 30.91 188.479 C 30.91 187.466 31.719 186.659 32.73 186.659 L 32.73 186.659 Z" bx:origin="-0.343 -4.181"/>
  <path id="path7" fill="#F4F4F4" d="M 73.971 244.835 C 73.503 244.856 73.038 244.957 72.59 245.17 L 57.281 252.472 C 55.494 253.324 54.734 255.493 55.587 257.283 C 56.44 259.068 58.589 259.828 60.376 258.976 L 75.685 251.677 C 77.471 250.825 78.251 248.676 77.401 246.888 C 76.761 245.548 75.372 244.778 73.97 244.838 L 73.971 244.835 Z M 74.034 246.174 C 74.914 246.133 75.783 246.6 76.188 247.449 C 76.728 248.584 76.255 249.921 75.122 250.462 L 59.813 257.76 C 58.678 258.301 57.342 257.827 56.8 256.694 C 56.259 255.559 56.733 254.224 57.867 253.683 L 73.176 246.383 C 73.459 246.248 73.741 246.188 74.034 246.174 L 74.034 246.174 Z" bx:origin="-2.327 -16.263"/>
  <path id="path9" fill="#F4F4F4" d="M 73.87 242.393 C 73.047 242.41 72.221 242.581 71.423 242.937 L 56.386 249.65 C 53.198 251.075 51.762 254.827 53.186 258.014 C 54.611 261.202 58.384 262.64 61.573 261.214 L 76.589 254.502 C 79.777 253.076 81.214 249.324 79.789 246.136 C 78.72 243.745 76.339 242.345 73.87 242.393 L 73.87 242.393 Z M 73.911 243.732 C 75.859 243.691 77.729 244.786 78.575 246.681 C 79.705 249.208 78.573 252.16 76.045 253.289 L 61.026 259.994 C 58.497 261.124 55.547 259.99 54.418 257.464 C 53.289 254.936 54.421 251.985 56.948 250.856 L 71.964 244.143 C 72.597 243.861 73.261 243.738 73.909 243.724 L 73.911 243.732 Z" bx:origin="-1.758 -11.94"/>
  <path id="path11" fill="#F4F4F4" d="M 105.76 244.835 C 105.292 244.856 104.826 244.957 104.38 245.17 L 89.07 252.469 C 87.284 253.322 86.524 255.491 87.377 257.28 C 88.229 259.065 90.379 259.825 92.165 258.974 L 107.475 251.675 C 109.262 250.821 110.02 248.672 109.169 246.885 C 108.53 245.545 107.161 244.776 105.76 244.835 L 105.76 244.835 Z M 105.823 246.174 C 106.703 246.133 107.572 246.6 107.977 247.449 C 108.517 248.583 108.044 249.921 106.911 250.462 L 91.601 257.76 C 90.467 258.301 89.13 257.827 88.59 256.694 C 88.048 255.559 88.522 254.224 89.656 253.683 L 104.965 246.383 C 105.248 246.248 105.53 246.188 105.823 246.174 L 105.823 246.174 Z" bx:origin="-3.683 -16.264"/>
  <path id="path13" fill="#F4F4F4" d="M 105.66 242.393 C 104.837 242.41 104.011 242.581 103.213 242.937 L 88.175 249.65 C 84.987 251.075 83.552 254.827 84.976 258.014 C 86.401 261.202 90.154 262.64 93.342 261.214 L 108.378 254.502 C 111.566 253.076 113.002 249.324 111.578 246.136 C 110.509 243.745 108.128 242.345 105.66 242.393 L 105.66 242.393 Z M 105.681 243.732 C 107.628 243.691 109.497 244.786 110.344 246.681 C 111.474 249.208 110.362 252.16 107.833 253.289 L 92.796 259.994 C 90.27 261.124 87.338 259.99 86.209 257.464 C 85.079 254.936 86.189 251.985 88.719 250.856 L 103.755 244.143 C 104.388 243.861 105.03 243.738 105.68 243.724 L 105.681 243.732 Z" bx:origin="-2.837 -11.94"/>
  <path id="path15" fill="#F4F4F4" d="M 115.551 270.936 C 115.189 270.972 114.822 271.085 114.484 271.271 C 113.135 272.009 112.635 273.728 113.377 275.077 L 126.072 298.187 C 126.811 299.536 128.508 300.035 129.857 299.294 C 131.206 298.555 131.706 296.857 130.964 295.509 L 118.282 272.38 C 117.728 271.367 116.629 270.829 115.542 270.938 L 115.551 270.936 Z M 116.242 272.317 C 116.598 272.421 116.925 272.671 117.119 273.028 L 129.795 296.143 C 130.188 296.858 129.943 297.739 129.231 298.13 C 128.516 298.523 127.636 298.279 127.245 297.565 L 114.571 274.435 C 114.178 273.722 114.421 272.839 115.135 272.449 C 115.491 272.253 115.886 272.22 116.242 272.323 L 116.242 272.317 Z" bx:origin="-5.906 -9.272"/>
  <path id="path17" fill="#F4F4F4" d="M 124.665 265.944 C 124.304 265.98 123.936 266.093 123.599 266.279 C 122.249 267.017 121.749 268.736 122.491 270.085 L 135.165 293.194 C 135.905 294.544 137.623 295.064 138.972 294.324 C 140.322 293.585 140.821 291.867 140.08 290.518 L 127.406 267.387 C 126.851 266.375 125.751 265.835 124.665 265.944 L 124.665 265.944 Z M 125.357 267.324 C 125.713 267.428 126.039 267.678 126.234 268.035 L 138.908 291.166 C 139.301 291.88 139.037 292.741 138.323 293.133 C 137.608 293.525 136.727 293.282 136.336 292.568 L 123.663 269.437 C 123.27 268.724 123.534 267.841 124.248 267.451 C 124.605 267.253 124.998 267.219 125.357 267.324 L 125.357 267.324 Z" bx:origin="-6.384 -9.094"/>
  <path id="path19" fill="#F4F4F4" d="M 133.767 260.964 C 133.406 261 133.038 261.093 132.701 261.278 C 131.352 262.016 130.852 263.734 131.593 265.084 L 144.287 288.215 C 145.024 289.558 146.726 290.05 148.072 289.322 C 148.082 289.318 148.085 289.306 148.093 289.301 C 149.423 288.554 149.938 286.857 149.201 285.516 L 136.507 262.385 C 135.953 261.375 134.854 260.856 133.767 260.964 L 133.767 260.964 Z M 134.457 262.324 C 134.815 262.428 135.14 262.678 135.336 263.035 L 148.01 286.166 C 148.403 286.881 148.16 287.762 147.445 288.152 C 146.732 288.545 145.849 288.28 145.459 287.567 L 132.785 264.436 C 132.392 263.722 132.636 262.84 133.349 262.45 C 133.707 262.252 134.101 262.22 134.457 262.324 L 134.457 262.324 Z" bx:origin="-6.856 -8.935"/>
  <path id="path21" fill="#F4F4F4" d="M 142.882 255.965 C 142.521 256.001 142.153 256.094 141.816 256.278 C 140.467 257.018 139.967 258.737 140.708 260.085 L 153.382 283.216 C 154.121 284.564 155.84 285.065 157.189 284.324 C 158.54 283.585 159.038 281.867 158.298 280.517 L 145.615 257.402 C 145.059 256.389 143.961 255.85 142.875 255.959 L 142.882 255.965 Z M 143.573 257.346 C 143.93 257.45 144.256 257.679 144.452 258.035 L 157.126 281.166 C 157.519 281.881 157.255 282.761 156.541 283.152 C 155.826 283.544 154.945 283.281 154.554 282.566 L 141.885 259.438 C 141.493 258.724 141.757 257.864 142.47 257.472 C 142.828 257.276 143.221 257.242 143.579 257.346 L 143.573 257.346 Z" bx:origin="-7.339 -8.757"/>
  <path id="path23" fill="#F4F4F4" d="M 151.978 250.966 C 151.622 251.001 151.263 251.121 150.932 251.301 C 150.926 251.304 150.916 251.297 150.911 251.301 L 150.911 251.322 C 149.582 252.068 149.067 253.746 149.803 255.087 L 162.498 278.217 C 163.237 279.567 164.955 280.066 166.305 279.325 C 167.653 278.585 168.153 276.868 167.413 275.518 L 154.717 252.41 C 154.161 251.398 153.062 250.858 151.978 250.966 L 151.978 250.966 Z M 152.689 252.346 C 153.046 252.45 153.35 252.679 153.546 253.036 L 166.22 276.167 C 166.613 276.882 166.37 277.761 165.656 278.154 C 164.941 278.545 164.06 278.282 163.669 277.568 L 150.994 254.465 C 150.601 253.75 150.844 252.869 151.558 252.478 C 151.914 252.283 152.329 252.249 152.687 252.353 L 152.689 252.346 Z" bx:origin="-7.81 -8.588"/>
  <path id="path25" fill="#F4F4F4" d="M 161.099 245.967 C 160.738 246.003 160.37 246.116 160.033 246.301 C 158.684 247.041 158.183 248.759 158.925 250.108 L 171.6 273.217 C 172.338 274.566 174.056 275.066 175.406 274.325 C 176.755 273.587 177.256 271.868 176.514 270.518 L 163.831 247.411 C 163.277 246.397 162.178 245.859 161.092 245.968 L 161.099 245.967 Z M 161.788 247.347 C 162.147 247.451 162.472 247.701 162.667 248.059 L 175.343 271.174 C 175.736 271.888 175.472 272.769 174.758 273.161 C 174.042 273.553 173.161 273.29 172.771 272.575 L 160.102 249.466 C 159.709 248.753 159.973 247.871 160.687 247.48 C 161.045 247.283 161.438 247.25 161.796 247.354 L 161.788 247.347 Z" bx:origin="-8.294 -8.417"/>
  <path id="path27" fill="#F4F4F4" d="M 84.867 299.024 C 84.635 299.024 84.388 299.101 84.177 299.275 C 83.964 299.45 83.822 299.746 83.822 300.028 L 83.822 304.086 C 83.822 304.349 83.78 304.564 83.885 304.881 C 83.938 305.04 84.071 305.235 84.262 305.361 C 84.452 305.488 84.66 305.529 84.826 305.529 L 86.039 305.529 C 86.222 305.529 86.478 305.456 86.645 305.299 C 86.812 305.143 86.862 304.955 86.896 304.818 C 86.965 304.544 86.959 304.341 86.959 304.087 L 86.959 300.029 C 86.959 299.846 86.926 299.588 86.73 299.36 C 86.532 299.132 86.217 299.025 85.957 299.025 L 84.867 299.025 L 84.867 299.024 Z M 85.16 300.363 L 85.62 300.363 L 85.62 304.086 C 85.619 304.151 85.622 304.138 85.62 304.19 L 85.16 304.19 C 85.156 304.134 85.16 304.159 85.16 304.086 L 85.16 300.363 Z" bx:origin="-26.305 -45.965"/>
  <path id="path29" fill="#F4F4F4" d="M 88.989 299.024 C 88.417 299.024 87.965 299.463 87.965 300.028 L 87.965 304.086 C 87.965 304.381 87.956 304.602 88.048 304.881 C 88.094 305.02 88.175 305.185 88.341 305.319 C 88.508 305.456 88.739 305.529 88.906 305.529 L 90.243 305.529 C 90.457 305.529 90.716 305.399 90.85 305.236 C 90.986 305.072 91.033 304.919 91.059 304.797 C 91.111 304.553 91.101 304.348 91.101 304.086 L 91.101 300.028 C 91.101 299.788 91.014 299.533 90.829 299.339 C 90.645 299.144 90.377 299.026 90.118 299.026 L 88.989 299.024 L 88.989 299.024 Z M 89.302 300.363 L 89.762 300.363 L 89.762 304.086 C 89.762 304.143 89.764 304.143 89.762 304.19 L 89.302 304.19 C 89.299 304.137 89.302 304.155 89.302 304.086 L 89.302 300.363 Z" bx:origin="-27.878 -45.965"/>
  <path id="path31" fill="#F4F4F4" d="M 1.296 16.753 C 0.858 16.753 0.419 17.025 0.23 17.36 C 0.041 17.693 0 18.041 0 18.364 L 0 298.227 C 0 302.249 3.276 305.526 7.299 305.526 L 81.524 305.526 C 81.879 305.526 82.226 305.297 82.403 305.023 C 82.578 304.75 82.632 304.436 82.632 304.083 L 82.632 300.025 C 82.632 299.796 82.559 299.496 82.339 299.294 C 82.119 299.092 81.829 299.023 81.587 299.023 L 70.962 299.023 C 69.052 299.023 67.511 297.502 67.511 295.592 C 67.511 293.682 69.052 292.142 70.962 292.142 L 92.231 292.142 C 94.142 292.142 95.682 293.683 95.682 295.592 C 95.682 297.209 94.581 298.539 93.089 298.918 L 93.089 298.939 C 92.779 299.02 92.583 299.264 92.503 299.461 C 92.423 299.658 92.399 299.838 92.399 300.025 L 92.399 304.083 C 92.4 304.305 92.376 304.51 92.462 304.815 C 92.506 304.966 92.591 305.169 92.776 305.317 C 92.96 305.463 93.195 305.526 93.382 305.526 L 142.821 305.526 C 166.001 305.526 184.796 286.71 184.796 263.53 L 184.796 18.147 C 184.796 17.822 184.704 17.504 184.483 17.227 C 184.261 16.949 183.881 16.746 183.479 16.746 L 1.298 16.746 L 1.296 16.753 Z M 1.38 18.092 L 183.433 18.092 C 183.439 18.105 183.454 18.114 183.454 18.155 L 183.454 263.538 C 183.454 285.994 165.274 304.195 142.818 304.195 L 93.733 304.195 C 93.731 304.142 93.734 304.155 93.733 304.091 L 93.733 300.096 C 95.634 299.46 97.017 297.705 97.017 295.599 C 97.017 292.967 94.861 290.81 92.227 290.81 L 70.958 290.81 C 68.324 290.81 66.169 292.967 66.169 295.599 C 66.169 298.233 68.324 300.368 70.958 300.368 L 81.289 300.368 L 81.289 304.091 C 81.289 304.178 81.278 304.16 81.268 304.195 L 7.297 304.195 C 3.996 304.202 1.335 301.538 1.335 298.239 L 1.335 18.375 C 1.335 18.222 1.363 18.146 1.377 18.103 L 1.38 18.092 Z" bx:origin="0 -0.058"/>
  <path id="circle33" fill="#F4F4F4" d="M 129.27 199.308 C 122.453 199.308 116.911 204.85 116.911 211.667 C 116.911 218.485 122.453 224.027 129.27 224.027 C 136.088 224.027 141.63 218.485 141.63 211.667 C 141.63 204.85 136.088 199.308 129.27 199.308 Z M 129.27 200.646 C 135.365 200.646 140.291 205.573 140.291 211.667 C 140.291 217.761 135.364 222.689 129.27 222.689 C 123.176 222.689 118.249 217.762 118.249 211.667 C 118.248 205.573 123.175 200.646 129.27 200.646 Z" bx:origin="-4.73 -8.062"/>
  <path id="circle35" fill="#F4F4F4" d="M 129.27 200.165 C 122.926 200.165 117.767 205.323 117.767 211.668 C 117.767 218.012 122.925 223.171 129.27 223.171 C 135.615 223.171 140.773 218.012 140.773 211.668 C 140.773 205.324 135.615 200.165 129.27 200.165 Z M 129.27 201.502 C 134.891 201.502 139.434 206.046 139.434 211.667 C 139.434 217.287 134.892 221.831 129.27 221.831 C 123.65 221.831 119.106 217.288 119.106 211.667 C 119.106 206.046 123.649 201.502 129.27 201.502 Z" bx:origin="-5.119 -8.7"/>
  <path id="circle37" fill="#F4F4F4" d="M 159.761 185.34 C 152.943 185.34 147.401 190.882 147.401 197.7 C 147.401 204.519 152.943 210.06 159.761 210.06 C 166.579 210.06 172.121 204.519 172.121 197.7 C 172.121 190.882 166.579 185.34 159.761 185.34 Z M 159.761 186.678 C 165.856 186.678 170.782 191.606 170.782 197.7 C 170.782 203.794 165.855 208.721 159.761 208.721 C 153.667 208.721 148.739 203.794 148.739 197.7 C 148.739 191.607 153.666 186.678 159.761 186.678 Z" bx:origin="-5.963 -7.497"/>
  <path id="circle39" fill="#F4F4F4" d="M 159.761 186.197 C 153.416 186.197 148.257 191.356 148.257 197.701 C 148.257 204.045 153.416 209.203 159.761 209.203 C 166.105 209.203 171.263 204.046 171.263 197.701 C 171.263 191.356 166.105 186.197 159.761 186.197 Z M 159.761 187.536 C 165.381 187.536 169.925 192.08 169.925 197.701 C 169.925 203.321 165.381 207.865 159.761 207.865 C 154.14 207.865 149.596 203.321 149.596 197.701 C 149.596 192.08 154.14 187.536 159.761 187.536 Z" bx:origin="-6.444 -8.093"/>
  <path id="path41" fill="#F4F4F4" d="M 20.579 25.265 C 16.687 25.265 13.531 28.442 13.531 32.334 L 13.531 137.217 C 13.531 141.11 16.687 144.285 20.579 144.285 L 146.73 144.285 C 152.708 144.285 158.666 141.257 163.148 136.736 C 167.632 132.218 170.657 126.175 170.657 120.051 L 170.657 32.334 C 170.657 28.441 167.478 25.266 163.591 25.266 L 20.579 25.265 L 20.579 25.265 Z M 20.579 26.603 L 163.589 26.603 C 166.758 26.603 169.319 29.165 169.319 32.333 L 169.319 120.043 C 169.319 125.725 166.462 131.479 162.187 135.791 C 157.913 140.103 152.252 142.944 146.732 142.944 L 20.581 142.944 C 17.412 142.944 14.872 140.383 14.872 137.214 L 14.872 32.332 C 14.872 29.163 17.413 26.601 20.581 26.601 L 20.579 26.603 Z" bx:origin="-0.086 -0.212"/>
  <path id="path43" fill="#F4F4F4" d="M 44.149 38.776 C 43.199 38.776 42.414 39.562 42.414 40.512 L 42.414 128.578 C 42.414 129.528 43.199 130.313 44.149 130.313 L 140.981 130.313 C 141.931 130.313 142.717 129.527 142.717 128.578 L 142.717 40.512 C 142.717 39.562 141.931 38.776 140.981 38.776 L 44.149 38.776 Z M 44.149 40.114 L 140.981 40.114 C 141.208 40.114 141.378 40.285 141.378 40.511 L 141.378 128.577 C 141.378 128.804 141.207 128.975 140.981 128.975 L 44.149 128.975 C 43.922 128.975 43.752 128.804 43.752 128.577 L 43.752 40.512 C 43.751 40.285 43.922 40.114 44.149 40.114 Z" bx:origin="-0.423 -0.423"/>
  <path id="circle45" fill="#F4F4F4" d="M 26.394 66.717 C 24.528 66.717 23.006 68.239 23.006 70.105 C 23.006 71.971 24.528 73.493 26.394 73.493 C 28.259 73.493 29.782 71.971 29.782 70.105 C 29.782 68.239 28.259 66.717 26.394 66.717 Z" bx:origin="-3.395 -9.843"/>
  <path id="path47" fill="#F4F4F4" d="M 27.815 0.001 C 27.594 0.001 27.343 0.112 27.208 0.252 C 27.074 0.392 27.016 0.533 26.978 0.649 C 26.904 0.882 26.895 1.08 26.895 1.255 L 26.895 4.246 C 26.895 4.486 26.982 4.741 27.167 4.936 C 27.352 5.131 27.641 5.229 27.899 5.229 L 29.008 5.229 C 29.58 5.229 30.053 4.812 30.053 4.246 L 30.053 1.255 C 30.053 1.037 30.052 0.799 29.907 0.523 C 29.761 0.247 29.358 0 29.028 0 L 27.815 0 L 27.815 0.001 Z M 28.233 1.34 L 28.714 1.34 L 28.714 3.891 L 28.233 3.891 L 28.233 1.34 Z" bx:origin="-8.516 0.003"/>
  <path id="path49" fill="#F4F4F4" d="M 31.893 0.001 C 31.687 0.001 31.439 0.126 31.308 0.273 C 31.177 0.42 31.126 0.539 31.099 0.649 C 31.042 0.87 31.036 1.06 31.036 1.255 L 31.036 4.246 C 31.036 4.427 31.09 4.666 31.287 4.894 C 31.484 5.122 31.799 5.229 32.061 5.229 L 33.149 5.229 C 33.38 5.229 33.626 5.172 33.838 4.999 C 34.05 4.826 34.193 4.53 34.193 4.247 L 34.193 1.256 C 34.193 1.074 34.18 0.846 34.068 0.587 C 33.956 0.327 33.584 0.001 33.19 0.001 L 31.893 0.001 L 31.893 0.001 Z M 32.374 1.34 L 32.854 1.34 L 32.854 3.891 L 32.374 3.891 L 32.374 1.34 Z" bx:origin="-9.831 0.003"/>
  <path id="path51" fill="#F4F4F4" d="M 17.567 0.001 C 17.121 0.001 16.722 0.247 16.501 0.524 C 16.281 0.801 16.189 1.093 16.188 1.423 L 16.188 14.389 C 16.188 14.996 16.689 15.497 17.296 15.497 L 167.392 15.497 C 167.832 15.497 168.091 15.157 168.208 14.891 C 168.325 14.625 168.375 14.349 168.375 13.992 L 168.375 1.507 C 168.375 1.07 168.25 0.641 167.957 0.357 C 167.67 0.073 167.296 0.002 167.001 0.002 L 36.459 0.002 C 36.171 0.002 35.756 0.138 35.559 0.441 C 35.363 0.745 35.372 1.016 35.372 1.257 L 35.372 4.248 C 35.372 4.476 35.465 4.756 35.685 4.959 C 35.905 5.162 36.174 5.23 36.416 5.23 L 52.729 5.23 C 54.639 5.23 56.18 6.771 56.18 8.681 C 56.18 10.592 54.639 12.132 52.729 12.132 L 25.771 12.132 C 23.861 12.132 22.321 10.592 22.321 8.681 C 22.321 7.064 23.444 5.711 24.935 5.335 C 25.242 5.252 25.44 5.009 25.519 4.813 C 25.599 4.616 25.603 4.436 25.603 4.248 L 25.603 1.257 C 25.603 0.975 25.536 0.686 25.352 0.441 C 25.167 0.197 24.835 0.002 24.473 0.002 L 17.572 0.002 L 17.567 0.002 Z M 167.036 1.319 C 167.002 1.287 167.036 1.293 167.036 1.507 L 167.036 13.992 C 167.036 14.096 167.025 14.097 167.015 14.159 L 17.52 14.159 L 17.52 1.424 C 17.52 1.443 17.522 1.363 17.541 1.34 C 17.56 1.317 17.541 1.34 17.562 1.34 L 24.254 1.34 L 24.254 4.184 C 22.361 4.823 20.97 6.58 20.97 8.681 C 20.97 11.315 23.126 13.471 25.76 13.471 L 52.718 13.471 C 55.352 13.471 57.508 11.316 57.508 8.681 C 57.508 6.047 55.352 3.891 52.718 3.891 L 36.698 3.891 L 36.698 1.34 L 166.992 1.34 C 167.081 1.34 167.067 1.352 167.033 1.319 L 167.036 1.319 Z" bx:origin="-0.106 0.001"/>
  <path id="path53" fill="#F4F4F4" d="M 8.219 0.001 C 3.689 0.001 0 3.69 0 8.22 L 0 14.347 C 0 14.629 0.12 15 0.397 15.225 C 0.675 15.451 0.999 15.497 1.317 15.497 L 13.614 15.497 C 14.22 15.497 14.722 14.996 14.722 14.389 L 14.722 1.424 C 14.722 1.078 14.618 0.77 14.409 0.504 C 14.2 0.238 13.841 0.002 13.425 0.002 L 8.219 0.002 L 8.219 0.001 Z M 8.219 1.34 L 13.343 1.34 C 13.356 1.364 13.385 1.398 13.385 1.424 L 13.385 14.16 L 1.339 14.16 L 1.339 8.221 C 1.338 4.414 4.413 1.34 8.219 1.34 L 8.219 1.34 Z" bx:origin="0 0.001"/>
  <path id="path55" fill="#F4F4F4" d="M 171.366 0.001 C 170.951 0.001 170.613 0.236 170.404 0.503 C 170.195 0.77 170.069 1.077 170.069 1.423 L 170.069 14.389 C 170.069 14.996 170.591 15.497 171.199 15.497 L 183.496 15.497 C 183.814 15.497 184.138 15.451 184.416 15.225 C 184.694 15 184.793 14.629 184.793 14.347 L 184.793 8.22 C 184.793 3.69 181.126 0 176.602 0 L 171.373 0 L 171.366 0.001 Z M 171.449 1.34 L 176.595 1.34 C 180.402 1.34 183.454 4.414 183.454 8.221 L 183.454 14.16 L 171.408 14.16 L 171.408 1.424 C 171.408 1.398 171.437 1.364 171.449 1.34 Z" bx:origin="-11.55 0.001"/>
  <path id="line57" fill="#F4F4F4" d="M 0.376 14.788 L 0.376 17.402 L 1.714 17.402 L 1.714 14.788 L 0.376 14.788 Z" bx:origin="-0.281 -5.65"/>
  <path id="line59" fill="#F4F4F4" d="M 14.033 1.026 L 14.033 2.365 L 16.878 2.365 L 16.878 1.026 L 14.033 1.026 Z" bx:origin="-4.933 -0.753"/>
  <path id="line61" fill="#F4F4F4" d="M 24.866 1.026 L 24.866 2.365 L 27.711 2.365 L 27.711 1.026 L 24.866 1.026 Z" bx:origin="-8.74 -0.753"/>
  <path id="line63" fill="#F4F4F4" d="M 29.321 1.026 L 29.321 2.365 L 31.81 2.365 L 31.81 1.026 L 29.321 1.026 Z" bx:origin="-11.78 -0.753"/>
  <path id="line65" fill="#F4F4F4" d="M 33.546 1.026 L 33.546 2.365 L 36.034 2.365 L 36.034 1.026 L 33.546 1.026 Z" bx:origin="-13.483 -0.753"/>
  <path id="line67" fill="#F4F4F4" d="M 167.918 1.026 L 167.918 2.365 L 170.763 2.365 L 170.763 1.026 L 167.918 1.026 Z" bx:origin="-59.022 -0.753"/>
  <path id="line69" fill="#F4F4F4" d="M 182.83 14.83 L 182.83 17.318 L 184.167 17.318 L 184.167 14.83 L 182.83 14.83 Z" bx:origin="-136.746 -5.953"/>
  <path id="polygon71" fill="#F4F4F4" d="M 28.129 6.276 L 27.627 6.547 L 24.469 8.283 L 23.946 8.576 L 24.469 8.868 L 27.627 10.604 L 28.129 10.876 L 28.129 10.312 L 28.129 6.84 L 28.129 6.276 L 28.129 6.276 Z" bx:origin="-5.725 -1.36"/>
  <path id="polygon73" fill="#F4F4F4" d="M 50.632 6.276 L 50.632 6.84 L 50.632 10.312 L 50.632 10.876 L 51.112 10.604 L 54.27 8.868 L 54.814 8.575 L 54.27 8.283 L 51.112 6.547 L 50.632 6.276 Z" bx:origin="-12.107 -1.36"/>
  <path id="circle75" fill="#F4F4F4" d="M 37.352 201.001 C 33.787 201.001 30.869 203.897 30.869 207.463 C 30.869 211.029 33.787 213.946 37.352 213.946 C 40.917 213.946 43.815 211.028 43.815 207.463 C 43.815 203.898 40.917 201.001 37.352 201.001 Z M 37.352 202.339 C 40.194 202.339 42.476 204.621 42.476 207.463 C 42.476 210.306 40.194 212.608 37.352 212.608 C 34.51 212.608 32.207 210.306 32.207 207.463 C 32.207 204.622 34.51 202.339 37.352 202.339 Z" bx:origin="-2.384 -15.526"/>
</svg>