<?xml version="1.0" encoding="UTF-8" standalone="no"?>
<svg width="74px" height="18px" viewBox="0 0 74 18" version="1.1" xmlns="http://www.w3.org/2000/svg" xmlns:xlink="http://www.w3.org/1999/xlink">
    <!-- Generator: Sketch 45 (43475) - http://www.bohemiancoding.com/sketch -->
    <title>system</title>
    <desc>Created with Sketch.</desc>
    <defs></defs>
    <g id="Page-1" stroke="none" stroke-width="1" fill="none" fill-rule="evenodd">
        <path d="M13.278,14.196 C11.8873264,14.196 10.7416712,13.7270047 9.841,12.789 C8.94032883,11.8509953 8.49,10.6166743 8.49,9.086 C8.49,7.56465906 8.94266214,6.337338 9.848,5.404 C10.7533379,4.470662 11.9293261,4.004 13.376,4.004 C13.8706691,4.004 14.3979972,4.05766613 14.958,4.165 C15.5180028,4.27233387 15.9706649,4.40999916 16.316,4.578 L16.12,6.286 C15.2053288,5.9126648 14.3046711,5.726 13.418,5.726 C12.4379951,5.726 11.6983358,6.03166361 11.199,6.643 C10.6996642,7.25433639 10.45,8.05932834 10.45,9.058 C10.45,10.0940052 10.7113307,10.9223302 11.234,11.543 C11.7566693,12.1636698 12.5126617,12.474 13.502,12.474 C13.9033353,12.474 14.3513309,12.4226672 14.846,12.32 L14.846,10.57 L13.768,10.57 L13.768,9.086 L16.638,9.086 L16.638,13.454 C16.2833316,13.6593344 15.77467,13.8343326 15.112,13.979 C14.44933,14.1236674 13.8380028,14.196 13.278,14.196 Z M26.004,14 L24.142,14 L23.302,11.634 L20.04,11.634 L19.2,14 L17.338,14 L20.824,4.2 L22.518,4.2 L26.004,14 Z M22.686,9.898 L21.664,7.028 L20.656,9.898 L22.686,9.898 Z M37.092,14 L35.23,14 L34.39,7.434 L31.884,11.942 L29.364,7.448 L28.524,14 L26.662,14 L28.02,4.2 L29.49,4.2 L31.884,8.666 L34.264,4.2 L35.734,4.2 L37.092,14 Z M45.128,14 L38.716,14 L38.716,4.2 L44.988,4.2 L44.988,5.936 L40.55,5.936 L40.55,8.022 L43.994,8.022 L43.994,9.758 L40.55,9.758 L40.55,12.264 L45.128,12.264 L45.128,14 Z M50.448,14 L46.668,14 L46.668,4.2 L49.314,4.2 C49.8086691,4.2 50.2309982,4.21866648 50.581,4.256 C50.9310017,4.29333352 51.271665,4.36333282 51.603,4.466 C51.934335,4.56866718 52.2003323,4.71099909 52.401,4.893 C52.6016677,5.07500091 52.7626661,5.31766515 52.884,5.621 C53.0053339,5.92433485 53.066,6.29066452 53.066,6.72 C53.066,7.62533786 52.7906694,8.30666438 52.24,8.764 C52.8186696,8.98800112 53.2479986,9.28433149 53.528,9.653 C53.8080014,10.0216685 53.948,10.5093303 53.948,11.116 C53.948,11.657336 53.8453344,12.123998 53.64,12.516 C53.4346656,12.908002 53.1570017,13.2066656 52.807,13.412 C52.4569982,13.6173344 52.0883353,13.7666662 51.701,13.86 C51.3136647,13.9533338 50.8960022,14 50.448,14 Z M50.042,5.726 L48.46,5.726 L48.46,8.134 L50.21,8.134 C50.5273349,8.134 50.8049988,8.04766753 51.043,7.875 C51.2810012,7.70233247 51.4,7.4060021 51.4,6.986 C51.4,6.50999762 51.2856678,6.18100091 51.057,5.999 C50.8283322,5.81699909 50.4900022,5.726 50.042,5.726 Z M50.322,9.548 L48.46,9.548 L48.46,12.474 L50.224,12.474 C50.8306697,12.474 51.2949984,12.3620011 51.617,12.138 C51.9390016,11.9139989 52.1,11.5406693 52.1,11.018 C52.1,10.0379951 51.5073393,9.548 50.322,9.548 Z M59.674,14.196 C58.2553262,14.196 57.0956712,13.7270047 56.195,12.789 C55.2943288,11.8509953 54.844,10.6213409 54.844,9.1 C54.844,7.57865906 55.2943288,6.34900469 56.195,5.411 C57.0956712,4.47299531 58.2553262,4.004 59.674,4.004 C61.0926738,4.004 62.2523288,4.47299531 63.153,5.411 C64.0536712,6.34900469 64.504,7.57865906 64.504,9.1 C64.504,10.6213409 64.0536712,11.8509953 63.153,12.789 C62.2523288,13.7270047 61.0926738,14.196 59.674,14.196 Z M59.674,5.726 C58.7499954,5.726 58.0406691,6.03399692 57.546,6.65 C57.0513309,7.26600308 56.804,8.08266158 56.804,9.1 C56.804,10.1173384 57.0513309,10.9339969 57.546,11.55 C58.0406691,12.1660031 58.7499954,12.474 59.674,12.474 C60.5980046,12.474 61.3073309,12.1660031 61.802,11.55 C62.2966691,10.9339969 62.544,10.1173384 62.544,9.1 C62.544,8.08266158 62.2966691,7.26600308 61.802,6.65 C61.3073309,6.03399692 60.5980046,5.726 59.674,5.726 Z M73.1,4.2 L69.712,9.66 L69.712,14 L67.92,14 L67.92,9.66 L64.532,4.2 L66.436,4.2 L68.816,8.064 L71.196,4.2 L73.1,4.2 Z" id="GAMEBOY-Copy" fill="#FFFFFF"></path>
        <g id="system" stroke="#867740" stroke-linecap="round">
            <path d="M0.5,17.5 L4.5,0.5" id="Shape"></path>
        </g>
    </g>
</svg>