<?xml version="1.0" encoding="utf-8"?>
<svg viewBox="0 0 73.1 18" xmlns="http://www.w3.org/2000/svg" xmlns:bx="https://boxy-svg.com">
  <path d="M 13.285 13.769 C 12.592 13.769 11.952 13.646 11.365 13.399 C 10.778 13.159 10.272 12.816 9.845 12.369 C 9.418 11.916 9.088 11.376 8.855 10.749 C 8.615 10.116 8.495 9.419 8.495 8.659 C 8.495 7.899 8.615 7.206 8.855 6.579 C 9.088 5.959 9.422 5.426 9.855 4.979 C 10.282 4.539 10.798 4.192 11.405 3.939 C 12.005 3.692 12.665 3.569 13.385 3.569 C 13.618 3.569 13.872 3.586 14.145 3.619 C 14.418 3.646 14.688 3.682 14.955 3.729 C 15.222 3.782 15.475 3.846 15.715 3.919 C 15.948 3.986 16.152 4.062 16.325 4.149 L 16.125 5.859 C 15.232 5.486 14.332 5.299 13.425 5.299 C 12.932 5.299 12.498 5.376 12.125 5.529 C 11.758 5.689 11.452 5.916 11.205 6.209 C 10.958 6.502 10.772 6.852 10.645 7.259 C 10.518 7.666 10.455 8.122 10.455 8.629 C 10.455 9.149 10.522 9.619 10.655 10.039 C 10.782 10.459 10.975 10.816 11.235 11.109 C 11.502 11.402 11.822 11.632 12.195 11.799 C 12.575 11.959 13.012 12.039 13.505 12.039 C 13.892 12.039 14.342 11.989 14.855 11.889 L 14.855 10.139 L 13.775 10.139 L 13.775 8.659 L 16.645 8.659 L 16.645 13.019 C 16.478 13.126 16.258 13.222 15.985 13.309 C 15.712 13.396 15.422 13.476 15.115 13.549 C 14.802 13.616 14.482 13.669 14.155 13.709 C 13.835 13.749 13.545 13.769 13.285 13.769 ZM 26.01 13.569 L 24.15 13.569 L 23.31 11.199 L 20.04 11.199 L 19.2 13.569 L 17.34 13.569 L 20.83 3.769 L 22.52 3.769 L 26.01 13.569 M 22.69 9.469 L 21.67 6.599 L 20.66 9.469 L 22.69 9.469 ZM 37.099 13.569 L 35.229 13.569 L 34.389 6.999 L 31.889 11.509 L 29.369 7.019 L 28.529 13.569 L 26.669 13.569 L 28.019 3.769 L 29.489 3.769 L 31.889 8.239 L 34.269 3.769 L 35.739 3.769 L 37.099 13.569 ZM 45.13 13.569 L 38.72 13.569 L 38.72 3.769 L 44.99 3.769 L 44.99 5.509 L 40.55 5.509 L 40.55 7.589 L 44 7.589 L 44 9.329 L 40.55 9.329 L 40.55 11.829 L 45.13 11.829 L 45.13 13.569 ZM 50.451 13.569 L 46.671 13.569 L 46.671 3.769 L 49.311 3.769 C 49.885 3.769 50.401 3.799 50.861 3.859 C 51.321 3.919 51.715 4.039 52.041 4.219 C 52.368 4.406 52.621 4.662 52.801 4.989 C 52.981 5.316 53.071 5.749 53.071 6.289 C 53.071 7.182 52.795 7.862 52.241 8.329 C 52.828 8.556 53.261 8.852 53.541 9.219 C 53.815 9.579 53.951 10.069 53.951 10.689 C 53.951 11.229 53.851 11.682 53.651 12.049 C 53.451 12.416 53.188 12.712 52.861 12.939 C 52.535 13.166 52.161 13.326 51.741 13.419 C 51.321 13.519 50.891 13.569 50.451 13.569 M 50.041 5.299 L 48.461 5.299 L 48.461 7.699 L 50.211 7.699 C 50.531 7.699 50.808 7.612 51.041 7.439 C 51.281 7.272 51.401 6.979 51.401 6.559 C 51.401 6.079 51.288 5.749 51.061 5.569 C 50.828 5.389 50.488 5.299 50.041 5.299 M 50.321 9.119 L 48.461 9.119 L 48.461 12.039 L 50.221 12.039 C 50.841 12.039 51.308 11.932 51.621 11.719 C 51.941 11.499 52.101 11.122 52.101 10.589 C 52.101 9.609 51.508 9.119 50.321 9.119 ZM 63.145 12.369 C 62.251 13.302 61.095 13.769 59.675 13.769 C 58.975 13.769 58.328 13.646 57.735 13.399 C 57.141 13.159 56.631 12.816 56.205 12.369 C 55.771 11.916 55.438 11.379 55.205 10.759 C 54.965 10.132 54.845 9.436 54.845 8.669 C 54.845 7.902 54.965 7.206 55.205 6.579 C 55.451 5.959 55.785 5.422 56.205 4.969 C 56.631 4.522 57.141 4.179 57.735 3.939 C 58.328 3.692 58.975 3.569 59.675 3.569 C 60.375 3.569 61.021 3.692 61.615 3.939 C 62.208 4.192 62.718 4.542 63.145 4.989 C 63.578 5.436 63.911 5.972 64.145 6.599 C 64.385 7.226 64.505 7.916 64.505 8.669 C 64.505 10.202 64.051 11.436 63.145 12.369 M 61.805 6.219 C 61.311 5.606 60.601 5.299 59.675 5.299 C 59.208 5.299 58.798 5.379 58.445 5.539 C 58.091 5.706 57.791 5.936 57.545 6.229 C 57.305 6.522 57.121 6.876 56.995 7.289 C 56.868 7.702 56.805 8.162 56.805 8.669 C 56.805 9.176 56.868 9.636 56.995 10.049 C 57.121 10.462 57.305 10.816 57.545 11.109 C 57.791 11.402 58.091 11.632 58.445 11.799 C 58.798 11.959 59.208 12.039 59.675 12.039 C 60.141 12.039 60.551 11.959 60.905 11.799 C 61.258 11.632 61.558 11.402 61.805 11.109 C 62.045 10.816 62.228 10.462 62.355 10.049 C 62.481 9.636 62.545 9.176 62.545 8.669 C 62.545 7.662 62.298 6.846 61.805 6.219 ZM 73.1 3.769 L 69.71 9.229 L 69.71 13.569 L 67.92 13.569 L 67.92 9.229 L 64.53 3.769 L 66.44 3.769 L 68.82 7.629 L 71.2 3.769 L 73.1 3.769 Z" transform="matrix(1, 0, 0, 1, 0, 0)" style="fill: rgb(255, 255, 255); white-space: pre;"/>
  <path d="M 0 18 L 3.869 0" style="fill: none; stroke-linecap: round; stroke: rgb(134, 119, 64);" bx:origin="0 0.5"/>
</svg>