<?xml version="1.0" encoding="utf-8"?>
<svg viewBox="0 0 97.35 18" xmlns="http://www.w3.org/2000/svg" xmlns:bx="https://boxy-svg.com">
  <path d="M 11.925 13.769 C 11.225 13.769 10.585 13.699 10.005 13.559 C 9.425 13.419 8.982 13.249 8.675 13.049 L 8.885 11.009 C 9.185 11.296 9.605 11.539 10.145 11.739 C 10.678 11.939 11.285 12.039 11.965 12.039 C 13.132 12.039 13.715 11.686 13.715 10.979 C 13.715 10.772 13.668 10.589 13.575 10.429 C 13.475 10.262 13.348 10.119 13.195 9.999 C 13.042 9.879 12.872 9.776 12.685 9.689 C 12.505 9.609 12.325 9.539 12.145 9.479 L 10.835 9.019 L 10.275 8.779 C 9.688 8.539 9.258 8.249 8.985 7.909 C 8.712 7.576 8.562 7.109 8.535 6.509 C 8.535 6.136 8.605 5.776 8.745 5.429 C 8.885 5.076 9.102 4.762 9.395 4.489 C 9.682 4.216 10.048 3.996 10.495 3.829 C 10.942 3.656 11.468 3.569 12.075 3.569 C 12.388 3.569 12.698 3.592 13.005 3.639 C 13.318 3.686 13.615 3.746 13.895 3.819 C 14.175 3.886 14.428 3.966 14.655 4.059 C 14.882 4.152 15.065 4.242 15.205 4.329 L 15.015 6.159 C 13.935 5.572 12.978 5.279 12.145 5.279 C 11.905 5.279 11.678 5.299 11.465 5.339 C 11.252 5.372 11.062 5.432 10.895 5.519 C 10.735 5.606 10.605 5.712 10.505 5.839 C 10.405 5.972 10.355 6.132 10.355 6.319 C 10.355 6.559 10.415 6.746 10.535 6.879 C 10.648 7.019 10.818 7.139 11.045 7.239 C 11.278 7.346 11.568 7.452 11.915 7.559 C 12.255 7.666 12.655 7.806 13.115 7.979 L 13.875 8.279 C 14.068 8.352 14.272 8.459 14.485 8.599 C 14.698 8.739 14.898 8.912 15.085 9.119 C 15.265 9.326 15.415 9.566 15.535 9.839 C 15.655 10.112 15.715 10.422 15.715 10.769 C 15.715 11.069 15.678 11.392 15.605 11.739 C 15.532 12.079 15.365 12.402 15.105 12.709 C 14.845 13.009 14.462 13.262 13.955 13.469 C 13.448 13.669 12.772 13.769 11.925 13.769 ZM 17.094 9.369 L 17.094 3.769 L 18.884 3.769 L 18.884 8.769 C 18.884 9.289 18.921 9.752 18.994 10.159 C 19.068 10.566 19.191 10.909 19.364 11.189 C 19.538 11.469 19.768 11.682 20.054 11.829 C 20.348 11.969 20.714 12.039 21.154 12.039 C 21.581 12.039 21.941 11.969 22.234 11.829 C 22.528 11.682 22.761 11.469 22.934 11.189 C 23.108 10.909 23.231 10.566 23.304 10.159 C 23.378 9.752 23.414 9.289 23.414 8.769 L 23.414 3.769 L 25.214 3.769 L 25.214 9.369 C 25.214 10.742 24.871 11.819 24.184 12.599 C 23.504 13.379 22.494 13.769 21.154 13.769 C 19.808 13.769 18.794 13.379 18.114 12.599 C 17.434 11.819 17.094 10.742 17.094 9.369 ZM 30.795 10.349 L 29.045 10.349 L 29.045 13.569 L 27.255 13.569 L 27.255 3.769 L 30.025 3.769 C 30.732 3.769 31.352 3.809 31.885 3.889 C 32.412 3.969 32.845 4.122 33.185 4.349 C 33.532 4.576 33.792 4.892 33.965 5.299 C 34.139 5.706 34.225 6.232 34.225 6.879 C 34.225 7.559 34.119 8.122 33.905 8.569 C 33.692 9.009 33.415 9.362 33.075 9.629 C 32.742 9.896 32.372 10.082 31.965 10.189 C 31.559 10.296 31.169 10.349 30.795 10.349 M 30.515 5.269 L 29.045 5.269 L 29.045 8.669 L 30.555 8.669 C 31.222 8.669 31.695 8.536 31.975 8.269 C 32.262 8.002 32.405 7.542 32.405 6.889 C 32.405 6.602 32.375 6.356 32.315 6.149 C 32.255 5.942 32.152 5.776 32.005 5.649 C 31.859 5.516 31.665 5.419 31.425 5.359 C 31.185 5.299 30.882 5.269 30.515 5.269 ZM 42.008 13.569 L 35.598 13.569 L 35.598 3.769 L 41.868 3.769 L 41.868 5.509 L 37.428 5.509 L 37.428 7.589 L 40.878 7.589 L 40.878 9.329 L 37.428 9.329 L 37.428 11.829 L 42.008 11.829 L 42.008 13.569 ZM 51.05 13.569 L 49.19 13.569 L 47.16 9.929 L 45.34 9.929 L 45.34 13.569 L 43.55 13.569 L 43.55 3.769 L 47.13 3.769 C 49.383 3.769 50.51 4.712 50.51 6.599 C 50.51 7.299 50.363 7.869 50.07 8.309 C 49.783 8.742 49.373 9.122 48.84 9.449 L 51.05 13.569 M 46.73 5.269 L 45.34 5.269 L 45.34 8.249 L 46.66 8.249 C 47.413 8.249 47.93 8.119 48.21 7.859 C 48.49 7.606 48.63 7.226 48.63 6.719 C 48.63 6.226 48.493 5.859 48.22 5.619 C 47.953 5.386 47.456 5.269 46.73 5.269 ZM 59.663 13.769 C 58.969 13.769 58.329 13.646 57.743 13.399 C 57.156 13.159 56.649 12.816 56.223 12.369 C 55.796 11.916 55.466 11.376 55.233 10.749 C 54.993 10.116 54.873 9.419 54.873 8.659 C 54.873 7.899 54.993 7.206 55.233 6.579 C 55.466 5.959 55.799 5.426 56.233 4.979 C 56.659 4.539 57.176 4.192 57.783 3.939 C 58.383 3.692 59.043 3.569 59.763 3.569 C 59.996 3.569 60.249 3.586 60.523 3.619 C 60.796 3.646 61.066 3.682 61.333 3.729 C 61.599 3.782 61.853 3.846 62.093 3.919 C 62.326 3.986 62.529 4.062 62.703 4.149 L 62.503 5.859 C 61.609 5.486 60.709 5.299 59.803 5.299 C 59.309 5.299 58.876 5.376 58.503 5.529 C 58.136 5.689 57.829 5.916 57.583 6.209 C 57.336 6.502 57.149 6.852 57.023 7.259 C 56.896 7.666 56.833 8.122 56.833 8.629 C 56.833 9.149 56.899 9.619 57.033 10.039 C 57.159 10.459 57.353 10.816 57.613 11.109 C 57.879 11.402 58.199 11.632 58.573 11.799 C 58.953 11.959 59.389 12.039 59.883 12.039 C 60.269 12.039 60.719 11.989 61.233 11.889 L 61.233 10.139 L 60.153 10.139 L 60.153 8.659 L 63.023 8.659 L 63.023 13.019 C 62.856 13.126 62.636 13.222 62.363 13.309 C 62.089 13.396 61.799 13.476 61.493 13.549 C 61.179 13.616 60.859 13.669 60.533 13.709 C 60.213 13.749 59.923 13.769 59.663 13.769 ZM 72.258 13.569 L 70.398 13.569 L 68.368 9.929 L 66.548 9.929 L 66.548 13.569 L 64.758 13.569 L 64.758 3.769 L 68.338 3.769 C 70.591 3.769 71.718 4.712 71.718 6.599 C 71.718 7.299 71.571 7.869 71.278 8.309 C 70.991 8.742 70.581 9.122 70.048 9.449 L 72.258 13.569 M 67.938 5.269 L 66.548 5.269 L 66.548 8.249 L 67.868 8.249 C 68.621 8.249 69.138 8.119 69.418 7.859 C 69.698 7.606 69.838 7.226 69.838 6.719 C 69.838 6.226 69.701 5.859 69.428 5.619 C 69.161 5.386 68.664 5.269 67.938 5.269 ZM 81.151 13.569 L 79.291 13.569 L 78.451 11.199 L 75.181 11.199 L 74.341 13.569 L 72.481 13.569 L 75.971 3.769 L 77.661 3.769 L 81.151 13.569 M 77.831 9.469 L 76.811 6.599 L 75.801 9.469 L 77.831 9.469 ZM 88.3 5.509 L 84.06 5.509 L 84.06 7.589 L 87.34 7.589 L 87.34 9.329 L 84.06 9.329 L 84.06 13.569 L 82.27 13.569 L 82.27 3.769 L 88.3 3.769 L 88.3 5.509 ZM 97.349 13.569 L 95.269 13.569 L 92.889 9.969 L 90.579 13.569 L 88.529 13.569 L 91.979 8.679 L 88.679 3.769 L 90.749 3.769 L 93.019 7.209 L 95.089 3.769 L 97.149 3.769 L 93.929 8.489 L 97.349 13.569 Z" transform="matrix(1, 0, 0, 1, 0, 0)" style="fill: rgb(255, 255, 255); white-space: pre;"/>
  <path d="M 0 18 L 3.869 0" style="fill: none; stroke-linecap: round; stroke: rgb(134, 119, 64);" bx:origin="0 0.5"/>
</svg>