<svg height="267.56485" width="400" xmlns="http://www.w3.org/2000/svg"><g fill="none" stroke="#f6f6f6"><path d="m396.43724 234.09377c.008-.0584.01-.12135.01-.18279 0-.21735-.0438-.42241-.12672-.61057l-5.05199-23.0473v-195.130554l3.2103-9.6316493c.15514-.4600396.0768-.9676961-.20737-1.3616867-.28416-.3955266-.74113-.6290025-1.22651-.6290025h-40.45201c-.6313 0-1.19656.3924545-1.41544.9830564l-20.10506 14.1606201-5.52125-14.1798204c-.22503-.5806177-.78568-.9638561-1.40853-.9638561h-43.02639c-.38938 0-.75726.1505305-1.03221.4070468l-5.75779 3.293239-3.14655-3.2579104c-.28339-.2833968-.66663-.4423754-1.06907-.4423754h-60.75903c-.42778 0-.8356.183555-1.12207.4984403l-13.98628 14.2788942h-.33793l-14.92863-14.3111507c-.28416-.297989-.67969-.4661838-1.09134-.4661838h-60.75827c-.42932 0-.83636.183555-1.12283.4984403l-12.68297 14.0630832-2.87313-1.819423c-.0899-.09139-.1897-.172803-.30337-.242692l-20.280912-12.2805249c-.23578-.1420823-.506889-.2188836-.783373-.2188836h-74.0640856c-.5783137 0-1.1067065.3302455-1.3578467.8501902-.2542122.5207127-.1889311 1.137427.1658908 1.5936266l8.0272705 10.2714037v195.651272l-5.9367396 14.24049-.043777.0676c-.1559066.24499-.2288678.52148-.2265638.79796-.027649.48999.2027554.97154.6136422 1.28796.086785.0645.178179.12134.2741806.16512l11.4664316 8.80757c.548361.42318 1.318678.41934 1.862431-.0146l92.912661-73.84059 34.81786 27.80667c.51226.41089 1.23112.44007 1.77871.0791l44.52632-29.48862 38.95822 29.43486c.53223.40321 1.26722.40705 1.80175.0154l38.94593-28.40572 36.55204 26.90272c.56449.41627 1.34556.38862 1.87856-.0676l9.38051-8.01959 5.77238 11.30361c.19968.39169.55988.67662.98459.78184.42625.10137.87707.0184 1.2365-.23578l9.52951-6.747c.59444-.0253 1.12206-.39475 1.34325-.95003l3.7264-2.63735v20.86614l-4.22791 6.1057c-.46311.66894-.31489 1.58364.33639 2.07133l17.9738 13.4817 24.25922 18.49375c.26958.20736.59368.31027.91701.31027.31105 0 .61902-.0945.88322-.2857l11.72294-8.44276c.52917-.38094.74575-1.05064.56603-1.65737"/><path d="m19.764964 237.31934 92.912656-73.84059 34.81786 27.80667c.51227.41012 1.23113.44007 1.77872.0791l44.52554-29.48862 38.95899 29.43409c.53223.4032 1.26722.40781 1.80176.0161l38.94593-28.40573 36.55203 26.90273c.56449.41626 1.34556.38861 1.87856-.0676l6.79308-5.5512-41.21388-30.20978-44.03017 31.58683-39.6863-31.43092-45.30891 32.01307-39.92515-31.08455-97.220441 76.99175c-.543753.43393 6.557294 5.26319 6.557294 5.26319l1.78947.0338c.02381-.0169.04992-.0299.07296-.0484m371.408317 1.86672-33.18123-25.26993-14.08228-10.56248v.76417l-4.22791 6.10494c-.46234.66971-.31489 1.58364.33716 2.07133l17.97303 13.4817s23.50888 17.76413 24.35599 18.3939c.50766.3771 1.12514.66971 2.42462-.40244z"/><path d="m48.861053 138.08625v-95.453244h12.380367v86.113434zm18.108207-101.181084h-23.835279v112.684374l23.835279-18.2618z"/><path d="m175.5907 10.739583 10.46571 11.072441v120.166356l-41.69542 30.75047-34.73799-27.74139v-123.023369l9.97726-11.224508z"/><path d="m77.465153 10.739583 16.210447 9.878949v130.046848l-74.542557 59.73987v-196.829395l-2.205733-2.836272z"/><path d="m140.70364 123.11991v-80.217409h12.38036v90.642409zm18.1082-85.94448h-23.83527v88.42439l23.83527 20.43068zm74.11677 96.36979v-90.642411h12.38037v80.217401zm18.10821-96.369483h-23.83451v108.855063l23.83451-20.43144z"/><path d="m267.8156 10.739583 10.46724 10.467247v120.77155l-41.69618 30.75047-34.73876-29.8588v-120.905959l9.97726-11.224508z"/><path d="m361.69111 195.11174v-94.86802l-22.14027 66.50146-23.58721-95.248179v96.335689l-21.85918-16.33717.288-.28723v-136.187112l-2.6051-4.281672h28.43721l18.6343 47.880224 17.77335-47.880224h28.47254l-1.03451 3.109684v197.27178l2.08592 9.08789-11.55783-8.40513-16.1275-12.09467z"/></g></svg>