<?xml version="1.0" encoding="UTF-8" standalone="no"?>
<svg
   xmlns:dc="http://purl.org/dc/elements/1.1/"
   xmlns:cc="http://creativecommons.org/ns#"
   xmlns:rdf="http://www.w3.org/1999/02/22-rdf-syntax-ns#"
   xmlns:svg="http://www.w3.org/2000/svg"
   xmlns="http://www.w3.org/2000/svg"
   xmlns:sodipodi="http://sodipodi.sourceforge.net/DTD/sodipodi-0.dtd"
   xmlns:inkscape="http://www.inkscape.org/namespaces/inkscape"
   inkscape:version="1.0alpha2 (0c7b077, 2019-09-04)"
   sodipodi:docname="controller.svg"
   id="svg2057"
   version="1.1"
   height="267.56485"
   width="400">
  <metadata
     id="metadata2061">
    <rdf:RDF>
      <cc:Work
         rdf:about="">
        <dc:format>image/svg+xml</dc:format>
        <dc:type
           rdf:resource="http://purl.org/dc/dcmitype/StillImage" />
        <dc:title></dc:title>
      </cc:Work>
    </rdf:RDF>
  </metadata>
  <sodipodi:namedview
     inkscape:current-layer="svg2057"
     inkscape:window-maximized="0"
     inkscape:window-y="34"
     inkscape:window-x="12"
     inkscape:cy="133.78242"
     inkscape:cx="200"
     inkscape:zoom="1.8796303"
     showgrid="false"
     id="namedview2059"
     inkscape:window-height="982"
     inkscape:window-width="1656"
     inkscape:pageshadow="2"
     inkscape:pageopacity="0"
     guidetolerance="10"
     gridtolerance="10"
     objecttolerance="10"
     borderopacity="1"
     inkscape:document-rotation="0"
     bordercolor="#666666"
     pagecolor="#898989" />
  <defs
     id="defs1939">
    <clipPath
       id="a">
      <path
         id="path1927"
         d="M0 348.386h520.825V0H0v348.386z" />
    </clipPath>
    <clipPath
       id="b">
      <path
         id="path1930"
         d="M19.073 205.947l1.339-30.125 485.333-8.032-1.339 21.422-132.546 98.001-121.166-93.316-119.157 95.727-112.464-83.677z" />
    </clipPath>
    <clipPath
       id="c">
      <path
         id="path1933"
         d="M19.073 229.892l1.339-49.502 485.333-8.034-1.339 40.801-132.546 97.066-121.166-92.381-119.157 95.728-112.464-83.678z" />
    </clipPath>
    <clipPath
       id="d">
      <path
         id="path1936"
         d="M0 348.386h520.825V0H0v348.386z" />
    </clipPath>
  </defs>
  <path
     fill="#d37112"
     d="m 396.43724,234.09377 c 0.008,-0.0584 0.01,-0.12135 0.01,-0.18279 0,-0.21735 -0.0438,-0.42241 -0.12672,-0.61057 l -5.05199,-23.0473 V 15.122556 l 3.2103,-9.6316493 c 0.15514,-0.4600396 0.0768,-0.9676961 -0.20737,-1.3616867 -0.28416,-0.3955266 -0.74113,-0.6290025 -1.22651,-0.6290025 h -40.45201 c -0.6313,0 -1.19656,0.3924545 -1.41544,0.9830564 L 331.07244,18.643894 325.55119,4.4640736 c -0.22503,-0.5806177 -0.78568,-0.9638561 -1.40853,-0.9638561 h -43.02639 c -0.38938,0 -0.75726,0.1505305 -1.03221,0.4070468 l -5.75779,3.293239 -3.14655,-3.2579104 c -0.28339,-0.2833968 -0.66663,-0.4423754 -1.06907,-0.4423754 h -60.75903 c -0.42778,0 -0.8356,0.183555 -1.12207,0.4984403 L 194.24327,18.277552 h -0.33793 L 178.97671,3.9664013 c -0.28416,-0.297989 -0.67969,-0.4661838 -1.09134,-0.4661838 H 117.1271 c -0.42932,0 -0.83636,0.183555 -1.12283,0.4984403 L 103.3213,18.061741 100.44817,16.242318 c -0.0899,-0.09139 -0.1897,-0.172803 -0.30337,-0.242692 L 79.863888,3.7191011 C 79.628108,3.5770188 79.356999,3.5002175 79.080515,3.5002175 H 5.0164294 c -0.5783137,0 -1.1067065,0.3302455 -1.3578467,0.8501902 -0.2542122,0.5207127 -0.1889311,1.137427 0.1658908,1.5936266 L 11.851744,16.215438 V 211.86671 l -5.9367396,14.24049 -0.043777,0.0676 c -0.1559066,0.24499 -0.2288678,0.52148 -0.2265638,0.79796 -0.027649,0.48999 0.2027554,0.97154 0.6136422,1.28796 0.086785,0.0645 0.178179,0.12134 0.2741806,0.16512 l 11.4664316,8.80757 c 0.548361,0.42318 1.318678,0.41934 1.862431,-0.0146 l 92.912661,-73.84059 34.81786,27.80667 c 0.51226,0.41089 1.23112,0.44007 1.77871,0.0791 l 44.52632,-29.48862 38.95822,29.43486 c 0.53223,0.40321 1.26722,0.40705 1.80175,0.0154 l 38.94593,-28.40572 36.55204,26.90272 c 0.56449,0.41627 1.34556,0.38862 1.87856,-0.0676 l 9.38051,-8.01959 5.77238,11.30361 c 0.19968,0.39169 0.55988,0.67662 0.98459,0.78184 0.42625,0.10137 0.87707,0.0184 1.2365,-0.23578 l 9.52951,-6.747 c 0.59444,-0.0253 1.12206,-0.39475 1.34325,-0.95003 l 3.7264,-2.63735 v 20.86614 l -4.22791,6.1057 c -0.46311,0.66894 -0.31489,1.58364 0.33639,2.07133 l 17.9738,13.4817 24.25922,18.49375 c 0.26958,0.20736 0.59368,0.31027 0.91701,0.31027 0.31105,0 0.61902,-0.0945 0.88322,-0.2857 l 11.72294,-8.44276 c 0.52917,-0.38094 0.74575,-1.05064 0.56603,-1.65737"
     id="path1943"
     inkscape:connector-curvature="0"
     style="opacity:1;stroke-width:1;stop-opacity:1;fill:none;stroke:#f6f6f6;stroke-opacity:1;stroke-miterlimit:4;stroke-dasharray:none" />
  <path
     fill="#cf5517"
     d="m 19.764964,237.31934 92.912656,-73.84059 34.81786,27.80667 c 0.51227,0.41012 1.23113,0.44007 1.77872,0.0791 l 44.52554,-29.48862 38.95899,29.43409 c 0.53223,0.4032 1.26722,0.40781 1.80176,0.0161 l 38.94593,-28.40573 36.55203,26.90273 c 0.56449,0.41626 1.34556,0.38861 1.87856,-0.0676 l 6.79308,-5.5512 -41.21388,-30.20978 -44.03017,31.58683 -39.6863,-31.43092 -45.30891,32.01307 -39.92515,-31.08455 -97.220441,76.99175 c -0.543753,0.43393 6.557294,5.26319 6.557294,5.26319 l 1.78947,0.0338 c 0.02381,-0.0169 0.04992,-0.0299 0.07296,-0.0484 M 391.17328,239.186 357.99205,213.91607 343.90977,203.35359 v 0.76417 l -4.22791,6.10494 c -0.46234,0.66971 -0.31489,1.58364 0.33716,2.07133 l 17.97303,13.4817 c 0,0 23.50888,17.76413 24.35599,18.3939 0.50766,0.3771 1.12514,0.66971 2.42462,-0.40244 z"
     id="path1945"
     inkscape:connector-curvature="0"
     style="opacity:1;stroke-width:1;stop-opacity:1;fill:none;stroke:#f6f6f6;stroke-opacity:1;stroke-miterlimit:4;stroke-dasharray:none" />
  <path
     fill="#f7c657"
     d="M 48.861053,138.08625 V 42.633006 H 61.24142 V 128.74644 Z M 66.96926,36.905166 H 43.133981 V 149.58954 l 23.835279,-18.2618 z"
     id="path1963"
     inkscape:connector-curvature="0"
     style="opacity:1;stroke-width:1;stop-opacity:1;fill:none;stroke:#f6f6f6;stroke-opacity:1;stroke-miterlimit:4;stroke-dasharray:none" />
  <path
     id="path2680"
     d="m 175.5907,10.739583 10.46571,11.072441 V 141.97838 L 144.36099,172.72885 109.623,144.98746 V 21.964091 l 9.97726,-11.224508 z"
     style="opacity:1;stroke-width:1;stop-opacity:1;fill:none;stroke:#f6f6f6;stroke-opacity:1;stroke-miterlimit:4;stroke-dasharray:none" />
  <path
     id="path1965"
     d="M 77.465153,10.739583 93.6756,20.618532 V 150.66538 L 19.133043,210.40525 V 13.575855 L 16.92731,10.739583 Z"
     style="opacity:1;stroke-width:1;stop-opacity:1;fill:none;stroke:#f6f6f6;stroke-opacity:1;stroke-miterlimit:4;stroke-dasharray:none" />
  <path
     fill="#f7c657"
     d="M 140.70364,123.11991 V 42.902501 H 153.084 v 90.642409 z m 18.1082,-85.94448 h -23.83527 v 88.42439 l 23.83527,20.43068 z m 74.11677,96.36979 V 42.902809 h 12.38037 V 123.12021 Z M 251.03682,37.175737 H 227.20231 V 146.0308 l 23.83451,-20.43144 z"
     id="path1967"
     inkscape:connector-curvature="0"
     style="opacity:1;stroke-width:1;stop-opacity:1;fill:none;stroke:#f6f6f6;stroke-opacity:1;stroke-miterlimit:4;stroke-dasharray:none" />
  <path
     id="path1969"
     d="m 267.8156,10.739583 10.46724,10.467247 v 120.77155 l -41.69618,30.75047 -34.73876,-29.8588 V 21.964091 l 9.97726,-11.224508 z"
     style="opacity:1;stroke-width:1;stop-opacity:1;fill:none;stroke:#f6f6f6;stroke-opacity:1;stroke-miterlimit:4;stroke-dasharray:none" />
  <path
     id="path1971"
     d="m 361.69111,195.11174 v -94.86802 l -22.14027,66.50146 -23.58721,-95.248179 v 96.335689 l -21.85918,-16.33717 0.288,-0.28723 V 15.021178 l -2.6051,-4.281672 h 28.43721 l 18.6343,47.880224 17.77335,-47.880224 h 28.47254 l -1.03451,3.109684 v 197.27178 l 2.08592,9.08789 -11.55783,-8.40513 -16.1275,-12.09467 z"
     style="opacity:1;stroke-width:1;stop-opacity:1;fill:none;stroke:#f6f6f6;stroke-opacity:1;stroke-miterlimit:4;stroke-dasharray:none" />
</svg>
