<svg height="18" viewBox="0 0 67 18" width="67" xmlns="http://www.w3.org/2000/svg"><path d="m.5 17.5 4-17" fill="none" stroke="#867740" stroke-linecap="round"/><g fill="#fff" stroke-width=".35"><path d="m12.62 10.78h-1.75v3.22h-1.792v-9.8h2.772q1.106 0 1.806.112.714.112 1.288.434.588.322.84.952.266.616.266 1.61 0 .994-.336 1.722-.322.714-.868 1.078-.546.364-1.092.518-.546.154-1.134.154zm-.28-5.082h-1.47v3.402h1.512q.994 0 1.414-.392.434-.406.434-1.386 0-.868-.406-1.246-.392-.378-1.484-.378z"/><path d="m24.921844 14h-1.862l-2.03-3.64h-1.82v3.64h-1.792v-9.8h3.584q3.374 0 3.374 2.828 0 1.05-.434 1.708-.434.658-1.232 1.148zm-4.326-8.302h-1.386v2.982h1.316q1.134 0 1.554-.392.42-.392.42-1.134 0-.742-.406-1.092-.406-.364-1.498-.364z"/><path d="m29.975187 14h-3.78v-9.8h2.646q.742 0 1.260001.056.531999.056 1.021999.21.504001.154.798001.434.308.266.489999.728.182.448.182 1.092 0 1.358-.826 2.044.868.336 1.288001.896.42.546.42 1.456 0 .812-.308001 1.4-.307999.588-.84.896-.518.308-1.106.448-.574.14-1.246.14zm-.406-8.274h-1.582v2.408h1.75q.476 0 .826-.252.364001-.266.364001-.896 0-.714-.350001-.98-.336-.28-1.008-.28zm.28 3.822h-1.862v2.926h1.764q.91 0 1.386-.336.490001-.336.490001-1.12 0-1.47-1.778001-1.47z"/><path d="m42.686531 12.796q-1.344 1.4-3.472 1.4-2.128 0-3.486-1.4-1.344-1.414-1.344-3.696 0-2.282 1.344-3.682 1.358-1.414 3.486-1.414 2.128 0 3.472 1.414 1.358 1.4 1.358 3.682 0 2.282-1.358 3.696zm-1.344-6.146q-.742-.924-2.128-.924-1.386 0-2.128.924-.742.924-.742 2.45 0 1.526.742 2.45.742.924 2.128.924 1.386 0 2.128-.924.742-.924.742-2.45 0-1.526-.742-2.45z"/><path d="m53.32325 12.796q-1.344 1.4-3.472 1.4-2.128 0-3.486-1.4-1.344-1.414-1.344-3.696 0-2.282 1.344-3.682 1.358-1.414 3.486-1.414 2.128 0 3.472 1.414 1.358 1.4 1.358 3.682 0 2.282-1.358 3.696zm-1.344-6.146q-.742-.924-2.128-.924-1.386 0-2.128.924-.742.924-.742 2.45 0 1.526.742 2.45.742.924 2.128.924 1.386 0 2.128-.924.742-.924.742-2.45 0-1.526-.742-2.45z"/><path d="m66.131938 14h-1.862001l-.84-6.566-2.506 4.508-2.52-4.494-.839999 6.552h-1.862001l1.358001-9.8h1.47l2.393999 4.466 2.380001-4.466h1.47z"/></g></svg>