<?xml version="1.0" encoding="UTF-8" standalone="no"?>
<svg
   xmlns:dc="http://purl.org/dc/elements/1.1/"
   xmlns:cc="http://creativecommons.org/ns#"
   xmlns:rdf="http://www.w3.org/1999/02/22-rdf-syntax-ns#"
   xmlns:svg="http://www.w3.org/2000/svg"
   xmlns="http://www.w3.org/2000/svg"
   xmlns:sodipodi="http://sodipodi.sourceforge.net/DTD/sodipodi-0.dtd"
   xmlns:inkscape="http://www.inkscape.org/namespaces/inkscape"
   inkscape:version="1.0alpha2 (0c7b077, 2019-09-04)"
   sodipodi:docname="system.svg"
   id="svg20"
   version="1.1"
   viewBox="0 0 67 18"
   height="18"
   width="67">
  <metadata
     id="metadata24">
    <rdf:RDF>
      <cc:Work
         rdf:about="">
        <dc:format>image/svg+xml</dc:format>
        <dc:type
           rdf:resource="http://purl.org/dc/dcmitype/StillImage" />
        <dc:title>system</dc:title>
      </cc:Work>
    </rdf:RDF>
  </metadata>
  <sodipodi:namedview
     inkscape:current-layer="svg20"
     inkscape:window-maximized="0"
     inkscape:window-y="34"
     inkscape:window-x="12"
     inkscape:cy="19.032356"
     inkscape:cx="38.498423"
     inkscape:zoom="7.8624051"
     showgrid="false"
     id="namedview22"
     inkscape:window-height="982"
     inkscape:window-width="1656"
     inkscape:pageshadow="2"
     inkscape:pageopacity="0"
     guidetolerance="10"
     gridtolerance="10"
     objecttolerance="10"
     borderopacity="1"
     inkscape:document-rotation="0"
     bordercolor="#666666"
     pagecolor="#9b9b9b" />
  <!-- Generator: Sketch 45 (43475) - http://www.bohemiancoding.com/sketch -->
  <title
     id="title10">system</title>
  <desc
     id="desc12">Created with Sketch.</desc>
  <defs
     id="defs14" />
  <g
     id="system"
     stroke="#867740"
     stroke-linecap="round"
     style="opacity:1;fill:none;fill-rule:evenodd;stroke-width:1;stop-opacity:1">
    <path
       d="m 0.5,17.5 4,-17"
       id="Shape"
       inkscape:connector-curvature="0" />
  </g>
  <g
     style="font-style:normal;font-weight:normal;font-size:14px;font-family:sans-serif;fill:#000000;fill-opacity:1;stroke:none;stroke-width:0.35"
     id="text854"
     aria-label="PRBOOM">
    <path
       id="path954"
       style="font-style:normal;font-variant:normal;font-weight:bold;font-stretch:normal;font-size:14px;font-family:Cabin;-inkscape-font-specification:'Cabin Bold';font-variant-ligatures:normal;font-variant-caps:normal;font-variant-numeric:normal;font-variant-east-asian:normal;fill:#ffffff;fill-opacity:1;stroke-width:0.35"
       d="M 12.62,10.78 H 10.87 V 14 H 9.078 V 4.2 h 2.772 q 1.106,0 1.806,0.112 0.714,0.112 1.288,0.434 0.588,0.322 0.84,0.952 0.266,0.616 0.266,1.61 0,0.994 -0.336,1.722 -0.322,0.714 -0.868,1.078 -0.546,0.364 -1.092,0.518 -0.546,0.154 -1.134,0.154 z M 12.34,5.698 H 10.87 V 9.1 h 1.512 q 0.994,0 1.414,-0.392 Q 14.23,8.302 14.23,7.322 14.23,6.454 13.824,6.076 13.432,5.698 12.34,5.698 Z" />
    <path
       id="path956"
       style="font-style:normal;font-variant:normal;font-weight:bold;font-stretch:normal;font-size:14px;font-family:Cabin;-inkscape-font-specification:'Cabin Bold';font-variant-ligatures:normal;font-variant-caps:normal;font-variant-numeric:normal;font-variant-east-asian:normal;fill:#ffffff;fill-opacity:1;stroke-width:0.35"
       d="m 24.921844,14 h -1.862 l -2.03,-3.64 h -1.82 V 14 h -1.792 V 4.2 h 3.584 q 3.374,0 3.374,2.828 0,1.05 -0.434,1.708 -0.434,0.658 -1.232,1.148 z m -4.326,-8.302 h -1.386 V 8.68 h 1.316 q 1.134,0 1.554,-0.392 0.42,-0.392 0.42,-1.134 0,-0.742 -0.406,-1.092 -0.406,-0.364 -1.498,-0.364 z" />
    <path
       id="path958"
       style="font-style:normal;font-variant:normal;font-weight:bold;font-stretch:normal;font-size:14px;font-family:Cabin;-inkscape-font-specification:'Cabin Bold';font-variant-ligatures:normal;font-variant-caps:normal;font-variant-numeric:normal;font-variant-east-asian:normal;fill:#ffffff;fill-opacity:1;stroke-width:0.35"
       d="m 29.975187,14 h -3.78 V 4.2 h 2.646 q 0.742,0 1.260001,0.056 0.531999,0.056 1.021999,0.21 0.504001,0.154 0.798001,0.434 0.308,0.266 0.489999,0.728 0.182,0.448 0.182,1.092 0,1.358 -0.826,2.044 0.868,0.336 1.288001,0.896 0.42,0.546 0.42,1.456 0,0.812 -0.308001,1.4 -0.307999,0.588 -0.84,0.896 -0.518,0.308 -1.106,0.448 -0.574,0.14 -1.246,0.14 z m -0.406,-8.274 h -1.582 v 2.408 h 1.75 q 0.476,0 0.826,-0.252 0.364001,-0.266 0.364001,-0.896 0,-0.714 -0.350001,-0.98 -0.336,-0.28 -1.008,-0.28 z m 0.28,3.822 h -1.862 v 2.926 h 1.764 q 0.91,0 1.386,-0.336 0.490001,-0.336 0.490001,-1.12 0,-1.47 -1.778001,-1.47 z" />
    <path
       id="path960"
       style="font-style:normal;font-variant:normal;font-weight:bold;font-stretch:normal;font-size:14px;font-family:Cabin;-inkscape-font-specification:'Cabin Bold';font-variant-ligatures:normal;font-variant-caps:normal;font-variant-numeric:normal;font-variant-east-asian:normal;fill:#ffffff;fill-opacity:1;stroke-width:0.35"
       d="m 42.686531,12.796 q -1.344,1.4 -3.472,1.4 -2.128,0 -3.486,-1.4 -1.344,-1.414 -1.344,-3.696 0,-2.282 1.344,-3.682 1.358,-1.414 3.486,-1.414 2.128,0 3.472,1.414 1.358,1.4 1.358,3.682 0,2.282 -1.358,3.696 z m -1.344,-6.146 q -0.742,-0.924 -2.128,-0.924 -1.386,0 -2.128,0.924 -0.742,0.924 -0.742,2.45 0,1.526 0.742,2.45 0.742,0.924 2.128,0.924 1.386,0 2.128,-0.924 0.742,-0.924 0.742,-2.45 0,-1.526 -0.742,-2.45 z" />
    <path
       id="path962"
       style="font-style:normal;font-variant:normal;font-weight:bold;font-stretch:normal;font-size:14px;font-family:Cabin;-inkscape-font-specification:'Cabin Bold';font-variant-ligatures:normal;font-variant-caps:normal;font-variant-numeric:normal;font-variant-east-asian:normal;fill:#ffffff;fill-opacity:1;stroke-width:0.35"
       d="m 53.32325,12.796 q -1.344,1.4 -3.472,1.4 -2.128,0 -3.486,-1.4 -1.344,-1.414 -1.344,-3.696 0,-2.282 1.344,-3.682 1.358,-1.414 3.486,-1.414 2.128,0 3.472,1.414 1.358,1.4 1.358,3.682 0,2.282 -1.358,3.696 z m -1.344,-6.146 q -0.742,-0.924 -2.128,-0.924 -1.386,0 -2.128,0.924 -0.742,0.924 -0.742,2.45 0,1.526 0.742,2.45 0.742,0.924 2.128,0.924 1.386,0 2.128,-0.924 0.742,-0.924 0.742,-2.45 0,-1.526 -0.742,-2.45 z" />
    <path
       id="path964"
       style="font-style:normal;font-variant:normal;font-weight:bold;font-stretch:normal;font-size:14px;font-family:Cabin;-inkscape-font-specification:'Cabin Bold';font-variant-ligatures:normal;font-variant-caps:normal;font-variant-numeric:normal;font-variant-east-asian:normal;fill:#ffffff;fill-opacity:1;stroke-width:0.35"
       d="m 66.131938,14 h -1.862001 l -0.84,-6.566 -2.506,4.508 -2.52,-4.494 L 57.563938,14 h -1.862001 l 1.358001,-9.8 h 1.47 L 60.923937,8.666 63.303938,4.2 h 1.47 z" />
  </g>
</svg>
