<?xml version="1.0" encoding="utf-8"?>
<svg width="300px" height="300px" viewBox="0 0 300 300" version="1.1" xmlns="http://www.w3.org/2000/svg">
  <title>Artboard</title>
  <desc>Created with Sketch.</desc>
  <g id="Page-1" stroke="none" stroke-width="1" fill="none" fill-rule="evenodd">
    <g id="Artboard" fill-rule="nonzero" fill="#F4F4F4">
      <g id="folder">
        <g id="circle_13_"/>
        <g id="Rounded_Rectangle_8" transform="translate(75.000000, 131.250000)">
          <path d="M140.625,0 L9.375,0 C4.2,0 0,4.2 0,9.375 L18.75,60.9375 C18.75,66.1125 22.95,70.3125 28.125,70.3125 L121.875,70.3125 C127.05,70.3125 131.25,66.1125 131.25,60.9375 L150,9.375 C150,4.2 145.8,0 140.625,0 Z M121.875,60.9375 L28.125,60.9375 L9.375,9.375 L140.625,9.375 L121.875,60.9375 Z" id="Shape"/>
        </g>
        <g id="Rounded_Rectangle_9" transform="translate(84.375000, 98.437500)">
          <path d="M121.875,14.0625 L60.9375,14.0625 L60.9375,9.375 C60.9375,4.2 56.7375,0 51.5625,0 L9.375,0 C4.2,0 0,4.2 0,9.375 L0,32.8125 C0,37.9875 4.2,42.1875 9.375,42.1875 L42.1875,42.1875 C43.003125,42.1875 43.7765625,42.0515625 44.53125,41.859375 C45.2859375,42.0515625 46.059375,42.1875 46.875,42.1875 L121.875,42.1875 C127.05,42.1875 131.25,37.9875 131.25,32.8125 L131.25,23.4375 C131.25,18.2625 127.05,14.0625 121.875,14.0625 Z M121.875,37.5 L9.375,37.5 L9.375,9.375 L51.5625,9.375 L51.5625,23.4375 L121.875,23.4375 L121.875,37.5 Z" id="Shape"/>
        </g>
      </g>
    </g>
  </g>
</svg>