<?xml version="1.0" encoding="UTF-8" standalone="no"?>
<svg width="157px" height="18px" viewBox="0 0 157 18" version="1.1" xmlns="http://www.w3.org/2000/svg" xmlns:xlink="http://www.w3.org/1999/xlink">
    <!-- Generator: Sketch 45 (43475) - http://www.bohemiancoding.com/sketch -->
    <title>system</title>
    <desc>Created with Sketch.</desc>
    <defs></defs>
    <g id="Page-1" stroke="none" stroke-width="1" fill="none" fill-rule="evenodd">
        <path d="M21.398,4.2 L18.528,14 L16.946,14 L14.762,7.462 L12.592,14 L10.898,14 L8.14,4.2 L10.002,4.2 L11.962,11.158 L14.146,4.2 L15.392,4.2 L17.66,10.976 L19.536,4.2 L21.398,4.2 Z M26.704,14.196 C25.2853262,14.196 24.1256712,13.7270047 23.225,12.789 C22.3243288,11.8509953 21.874,10.6213409 21.874,9.1 C21.874,7.57865906 22.3243288,6.34900469 23.225,5.411 C24.1256712,4.47299531 25.2853262,4.004 26.704,4.004 C28.1226738,4.004 29.2823288,4.47299531 30.183,5.411 C31.0836712,6.34900469 31.534,7.57865906 31.534,9.1 C31.534,10.6213409 31.0836712,11.8509953 30.183,12.789 C29.2823288,13.7270047 28.1226738,14.196 26.704,14.196 Z M26.704,5.726 C25.7799954,5.726 25.0706691,6.03399692 24.576,6.65 C24.0813309,7.26600308 23.834,8.08266158 23.834,9.1 C23.834,10.1173384 24.0813309,10.9339969 24.576,11.55 C25.0706691,12.1660031 25.7799954,12.474 26.704,12.474 C27.6280046,12.474 28.3373309,12.1660031 28.832,11.55 C29.3266691,10.9339969 29.574,10.1173384 29.574,9.1 C29.574,8.08266158 29.3266691,7.26600308 28.832,6.65 C28.3373309,6.03399692 27.6280046,5.726 26.704,5.726 Z M40.844,14 L39.374,14 L34.894,7.28 L34.894,14 L33.102,14 L33.102,4.2 L34.866,4.2 L39.052,10.528 L39.052,4.2 L40.844,4.2 L40.844,14 Z M46.668,14 L43,14 L43,4.2 L46.668,4.2 C48.0960071,4.2 49.2579955,4.63866228 50.154,5.516 C51.0500045,6.39333772 51.498,7.58799244 51.498,9.1 C51.498,10.6120076 51.0500045,11.8066623 50.154,12.684 C49.2579955,13.5613377 48.0960071,14 46.668,14 Z M46.668,5.922 L44.792,5.922 L44.792,12.278 L46.668,12.278 C47.601338,12.278 48.3129975,11.9980028 48.803,11.438 C49.2930024,10.8779972 49.538,10.0986717 49.538,9.1 C49.538,8.10132834 49.2930024,7.3220028 48.803,6.762 C48.3129975,6.2019972 47.601338,5.922 46.668,5.922 Z M59.492,14 L53.08,14 L53.08,4.2 L59.352,4.2 L59.352,5.936 L54.914,5.936 L54.914,8.022 L58.358,8.022 L58.358,9.758 L54.914,9.758 L54.914,12.264 L59.492,12.264 L59.492,14 Z M68.536,14 L66.674,14 L64.644,10.36 L62.824,10.36 L62.824,14 L61.032,14 L61.032,4.2 L64.616,4.2 C66.8653446,4.2 67.99,5.14265724 67.99,7.028 C67.99,7.7280035 67.8453348,8.29733114 67.556,8.736 C67.2666652,9.17466886 66.8560027,9.5573317 66.324,9.884 L68.536,14 Z M64.21,5.698 L62.824,5.698 L62.824,8.68 L64.14,8.68 C64.8960038,8.68 65.4139986,8.54933464 65.694,8.288 C65.9740014,8.02666536 66.114,7.64866914 66.114,7.154 C66.114,6.65933086 65.978668,6.29300119 65.708,6.055 C65.437332,5.81699881 64.9380036,5.698 64.21,5.698 Z M72.638,14.196 C71.9379965,14.196 71.2986696,14.1260007 70.72,13.986 C70.1413304,13.8459993 69.6980015,13.678001 69.39,13.482 L69.6,11.438 C69.8986682,11.7273348 70.3163306,11.9723323 70.853,12.173 C71.3896693,12.3736677 71.9986633,12.474 72.68,12.474 C73.8466725,12.474 74.43,12.1193369 74.43,11.41 C74.43,11.213999 74.3833338,11.0366675 74.29,10.878 C74.1966662,10.7193325 74.0963339,10.5886672 73.989,10.486 C73.8816661,10.3833328 73.7020013,10.2736672 73.45,10.157 C73.1979987,10.0403328 73.0020007,9.95633359 72.862,9.905 C72.7219993,9.85366641 72.4840017,9.77200056 72.148,9.66 C71.8586652,9.5666662 71.6580006,9.4966669 71.546,9.45 L70.986,9.212 C70.7246654,9.10933282 70.5333339,9.01833373 70.412,8.939 C70.2906661,8.85966627 70.1413342,8.74766739 69.964,8.603 C69.7866658,8.45833261 69.6560004,8.31133408 69.572,8.162 C69.4879996,8.01266592 69.4133337,7.83300105 69.348,7.623 C69.2826663,7.41299895 69.25,7.18666788 69.25,6.944 C69.25,6.17866284 69.5393304,5.49733632 70.118,4.9 C70.6966696,4.30266368 71.587994,4.004 72.792,4.004 C73.4173365,4.004 74.0216637,4.08333254 74.605,4.242 C75.1883362,4.40066746 75.6246652,4.5733324 75.914,4.76 L75.732,6.594 C74.6586613,6.00599706 73.7020042,5.712 72.862,5.712 C72.3859976,5.712 71.9683351,5.79133254 71.609,5.95 C71.2496649,6.10866746 71.07,6.3746648 71.07,6.748 C71.07,7.10266844 71.2333317,7.37566571 71.56,7.567 C71.8866683,7.75833429 72.38133,7.95666564 73.044,8.162 C73.3893351,8.26466718 73.6529991,8.34866634 73.835,8.414 C74.0170009,8.47933366 74.2666651,8.57733268 74.584,8.708 C74.9013349,8.83866732 75.1486658,8.97633261 75.326,9.121 C75.5033342,9.26566739 75.6876657,9.44299895 75.879,9.653 C76.0703343,9.86300105 76.2103329,10.1103319 76.299,10.395 C76.3876671,10.6796681 76.432,10.9946649 76.432,11.34 C76.432,11.6013346 76.4086669,11.8463322 76.362,12.075 C76.3153331,12.3036678 76.2103341,12.553332 76.047,12.824 C75.8836658,13.094668 75.6690013,13.3256657 75.403,13.517 C75.1369987,13.7083343 74.7683357,13.8693327 74.297,14 C73.8256643,14.1306673 73.2726698,14.196 72.638,14.196 Z M90.236,4.2 L87.366,14 L85.784,14 L83.6,7.462 L81.43,14 L79.736,14 L76.978,4.2 L78.84,4.2 L80.8,11.158 L82.984,4.2 L84.23,4.2 L86.498,10.976 L88.374,4.2 L90.236,4.2 Z M98.524,14 L96.662,14 L95.822,11.634 L92.56,11.634 L91.72,14 L89.858,14 L93.344,4.2 L95.038,4.2 L98.524,14 Z M95.206,9.898 L94.184,7.028 L93.176,9.898 L95.206,9.898 Z M107.386,14 L105.916,14 L101.436,7.28 L101.436,14 L99.644,14 L99.644,4.2 L101.408,4.2 L105.594,10.528 L105.594,4.2 L107.386,4.2 L107.386,14 Z M116.934,14.196 C115.515326,14.196 114.355671,13.7270047 113.455,12.789 C112.554329,11.8509953 112.104,10.6213409 112.104,9.1 C112.104,7.57865906 112.554329,6.34900469 113.455,5.411 C114.355671,4.47299531 115.515326,4.004 116.934,4.004 C118.007339,4.004 118.935996,4.19533142 119.72,4.578 L119.524,6.286 C118.581329,5.9126648 117.718004,5.726 116.934,5.726 C116.009995,5.726 115.300669,6.03399692 114.806,6.65 C114.311331,7.26600308 114.064,8.08266158 114.064,9.1 C114.064,10.1173384 114.311331,10.9339969 114.806,11.55 C115.300669,12.1660031 116.009995,12.474 116.934,12.474 C117.718004,12.474 118.581329,12.2873352 119.524,11.914 L119.72,13.622 C118.935996,14.0046686 118.007339,14.196 116.934,14.196 Z M125.334,14.196 C123.915326,14.196 122.755671,13.7270047 121.855,12.789 C120.954329,11.8509953 120.504,10.6213409 120.504,9.1 C120.504,7.57865906 120.954329,6.34900469 121.855,5.411 C122.755671,4.47299531 123.915326,4.004 125.334,4.004 C126.752674,4.004 127.912329,4.47299531 128.813,5.411 C129.713671,6.34900469 130.164,7.57865906 130.164,9.1 C130.164,10.6213409 129.713671,11.8509953 128.813,12.789 C127.912329,13.7270047 126.752674,14.196 125.334,14.196 Z M125.334,5.726 C124.409995,5.726 123.700669,6.03399692 123.206,6.65 C122.711331,7.26600308 122.464,8.08266158 122.464,9.1 C122.464,10.1173384 122.711331,10.9339969 123.206,11.55 C123.700669,12.1660031 124.409995,12.474 125.334,12.474 C126.258005,12.474 126.967331,12.1660031 127.462,11.55 C127.956669,10.9339969 128.204,10.1173384 128.204,9.1 C128.204,8.08266158 127.956669,7.26600308 127.462,6.65 C126.967331,6.03399692 126.258005,5.726 125.334,5.726 Z M137.556,14 L131.732,14 L131.732,4.2 L133.524,4.2 L133.524,12.264 L137.556,12.264 L137.556,14 Z M142.792,14.196 C141.373326,14.196 140.213671,13.7270047 139.313,12.789 C138.412329,11.8509953 137.962,10.6213409 137.962,9.1 C137.962,7.57865906 138.412329,6.34900469 139.313,5.411 C140.213671,4.47299531 141.373326,4.004 142.792,4.004 C144.210674,4.004 145.370329,4.47299531 146.271,5.411 C147.171671,6.34900469 147.622,7.57865906 147.622,9.1 C147.622,10.6213409 147.171671,11.8509953 146.271,12.789 C145.370329,13.7270047 144.210674,14.196 142.792,14.196 Z M142.792,5.726 C141.867995,5.726 141.158669,6.03399692 140.664,6.65 C140.169331,7.26600308 139.922,8.08266158 139.922,9.1 C139.922,10.1173384 140.169331,10.9339969 140.664,11.55 C141.158669,12.1660031 141.867995,12.474 142.792,12.474 C143.716005,12.474 144.425331,12.1660031 144.92,11.55 C145.414669,10.9339969 145.662,10.1173384 145.662,9.1 C145.662,8.08266158 145.414669,7.26600308 144.92,6.65 C144.425331,6.03399692 143.716005,5.726 142.792,5.726 Z M156.694,14 L154.832,14 L152.802,10.36 L150.982,10.36 L150.982,14 L149.19,14 L149.19,4.2 L152.774,4.2 C155.023345,4.2 156.148,5.14265724 156.148,7.028 C156.148,7.7280035 156.003335,8.29733114 155.714,8.736 C155.424665,9.17466886 155.014003,9.5573317 154.482,9.884 L156.694,14 Z M152.368,5.698 L150.982,5.698 L150.982,8.68 L152.298,8.68 C153.054004,8.68 153.571999,8.54933464 153.852,8.288 C154.132001,8.02666536 154.272,7.64866914 154.272,7.154 C154.272,6.65933086 154.136668,6.29300119 153.866,6.055 C153.595332,5.81699881 153.096004,5.698 152.368,5.698 Z" id="WONDERSWAN-COLOR-Copy" fill="#FFFFFF"></path>
        <g id="system" stroke="#867740" stroke-linecap="round">
            <path d="M0.5,17.5 L4.5,0.5" id="Shape"></path>
        </g>
    </g>
</svg>