<?xml version="1.0" encoding="utf-8"?>
<svg viewBox="0 0 156.68 18" xmlns="http://www.w3.org/2000/svg" xmlns:bx="https://boxy-svg.com">
  <path d="M 21.405 3.769 L 18.535 13.569 L 16.955 13.569 L 14.765 7.029 L 12.595 13.569 L 10.905 13.569 L 8.145 3.769 L 10.005 3.769 L 11.965 10.729 L 14.155 3.769 L 15.395 3.769 L 17.665 10.549 L 19.545 3.769 L 21.405 3.769 ZM 30.178 12.369 C 29.284 13.302 28.128 13.769 26.708 13.769 C 26.008 13.769 25.361 13.646 24.768 13.399 C 24.174 13.159 23.664 12.816 23.238 12.369 C 22.804 11.916 22.471 11.379 22.238 10.759 C 21.998 10.132 21.878 9.436 21.878 8.669 C 21.878 7.902 21.998 7.206 22.238 6.579 C 22.484 5.959 22.818 5.422 23.238 4.969 C 23.664 4.522 24.174 4.179 24.768 3.939 C 25.361 3.692 26.008 3.569 26.708 3.569 C 27.408 3.569 28.054 3.692 28.648 3.939 C 29.241 4.192 29.751 4.542 30.178 4.989 C 30.611 5.436 30.944 5.972 31.178 6.599 C 31.418 7.226 31.538 7.916 31.538 8.669 C 31.538 10.202 31.084 11.436 30.178 12.369 M 28.838 6.219 C 28.344 5.606 27.634 5.299 26.708 5.299 C 26.241 5.299 25.831 5.379 25.478 5.539 C 25.124 5.706 24.824 5.936 24.578 6.229 C 24.338 6.522 24.154 6.876 24.028 7.289 C 23.901 7.702 23.838 8.162 23.838 8.669 C 23.838 9.176 23.901 9.636 24.028 10.049 C 24.154 10.462 24.338 10.816 24.578 11.109 C 24.824 11.402 25.124 11.632 25.478 11.799 C 25.831 11.959 26.241 12.039 26.708 12.039 C 27.174 12.039 27.584 11.959 27.938 11.799 C 28.291 11.632 28.591 11.402 28.838 11.109 C 29.078 10.816 29.261 10.462 29.388 10.049 C 29.514 9.636 29.578 9.176 29.578 8.669 C 29.578 7.662 29.331 6.846 28.838 6.219 ZM 40.847 13.569 L 39.377 13.569 L 34.897 6.849 L 34.897 13.569 L 33.107 13.569 L 33.107 3.769 L 34.867 3.769 L 39.057 10.099 L 39.057 3.769 L 40.847 3.769 L 40.847 13.569 ZM 46.674 13.569 L 43.004 13.569 L 43.004 3.769 L 46.674 3.769 C 47.38 3.769 48.03 3.882 48.624 4.109 C 49.217 4.342 49.724 4.669 50.144 5.089 C 50.57 5.516 50.904 6.029 51.144 6.629 C 51.384 7.236 51.504 7.916 51.504 8.669 C 51.504 9.422 51.384 10.102 51.144 10.709 C 50.904 11.316 50.57 11.829 50.144 12.249 C 49.724 12.669 49.217 12.996 48.624 13.229 C 48.03 13.456 47.38 13.569 46.674 13.569 M 46.674 5.489 L 44.794 5.489 L 44.794 11.849 L 46.674 11.849 C 47.607 11.849 48.317 11.569 48.804 11.009 C 49.297 10.456 49.544 9.676 49.544 8.669 C 49.544 7.662 49.297 6.879 48.804 6.319 C 48.317 5.766 47.607 5.489 46.674 5.489 ZM 59.493 13.569 L 53.083 13.569 L 53.083 3.769 L 59.353 3.769 L 59.353 5.509 L 54.913 5.509 L 54.913 7.589 L 58.363 7.589 L 58.363 9.329 L 54.913 9.329 L 54.913 11.829 L 59.493 11.829 L 59.493 13.569 ZM 68.534 13.569 L 66.674 13.569 L 64.644 9.929 L 62.824 9.929 L 62.824 13.569 L 61.034 13.569 L 61.034 3.769 L 64.614 3.769 C 66.867 3.769 67.994 4.712 67.994 6.599 C 67.994 7.299 67.847 7.869 67.554 8.309 C 67.267 8.742 66.857 9.122 66.324 9.449 L 68.534 13.569 M 64.214 5.269 L 62.824 5.269 L 62.824 8.249 L 64.144 8.249 C 64.897 8.249 65.414 8.119 65.694 7.859 C 65.974 7.606 66.114 7.226 66.114 6.719 C 66.114 6.226 65.977 5.859 65.704 5.619 C 65.437 5.386 64.941 5.269 64.214 5.269 ZM 72.637 13.769 C 71.937 13.769 71.297 13.699 70.717 13.559 C 70.137 13.419 69.694 13.249 69.387 13.049 L 69.597 11.009 C 69.897 11.296 70.317 11.539 70.857 11.739 C 71.391 11.939 71.997 12.039 72.677 12.039 C 73.844 12.039 74.427 11.686 74.427 10.979 C 74.427 10.772 74.381 10.589 74.287 10.429 C 74.187 10.262 74.061 10.119 73.907 9.999 C 73.754 9.879 73.584 9.776 73.397 9.689 C 73.217 9.609 73.037 9.539 72.857 9.479 L 71.547 9.019 L 70.987 8.779 C 70.401 8.539 69.971 8.249 69.697 7.909 C 69.424 7.576 69.274 7.109 69.247 6.509 C 69.247 6.136 69.317 5.776 69.457 5.429 C 69.597 5.076 69.814 4.762 70.107 4.489 C 70.394 4.216 70.761 3.996 71.207 3.829 C 71.654 3.656 72.181 3.569 72.787 3.569 C 73.101 3.569 73.411 3.592 73.717 3.639 C 74.031 3.686 74.327 3.746 74.607 3.819 C 74.887 3.886 75.141 3.966 75.367 4.059 C 75.594 4.152 75.777 4.242 75.917 4.329 L 75.727 6.159 C 74.647 5.572 73.691 5.279 72.857 5.279 C 72.617 5.279 72.391 5.299 72.177 5.339 C 71.964 5.372 71.774 5.432 71.607 5.519 C 71.447 5.606 71.317 5.712 71.217 5.839 C 71.117 5.972 71.067 6.132 71.067 6.319 C 71.067 6.559 71.127 6.746 71.247 6.879 C 71.361 7.019 71.531 7.139 71.757 7.239 C 71.991 7.346 72.281 7.452 72.627 7.559 C 72.967 7.666 73.367 7.806 73.827 7.979 L 74.587 8.279 C 74.781 8.352 74.984 8.459 75.197 8.599 C 75.411 8.739 75.611 8.912 75.797 9.119 C 75.977 9.326 76.127 9.566 76.247 9.839 C 76.367 10.112 76.427 10.422 76.427 10.769 C 76.427 11.069 76.391 11.392 76.317 11.739 C 76.244 12.079 76.077 12.402 75.817 12.709 C 75.557 13.009 75.174 13.262 74.667 13.469 C 74.161 13.669 73.484 13.769 72.637 13.769 ZM 90.236 3.769 L 87.366 13.569 L 85.786 13.569 L 83.596 7.029 L 81.426 13.569 L 79.736 13.569 L 76.976 3.769 L 78.836 3.769 L 80.796 10.729 L 82.986 3.769 L 84.226 3.769 L 86.496 10.549 L 88.376 3.769 L 90.236 3.769 ZM 98.523 13.569 L 96.663 13.569 L 95.823 11.199 L 92.553 11.199 L 91.713 13.569 L 89.853 13.569 L 93.343 3.769 L 95.033 3.769 L 98.523 13.569 M 95.203 9.469 L 94.183 6.599 L 93.173 9.469 L 95.203 9.469 ZM 107.382 13.569 L 105.912 13.569 L 101.432 6.849 L 101.432 13.569 L 99.642 13.569 L 99.642 3.769 L 101.402 3.769 L 105.592 10.099 L 105.592 3.769 L 107.382 3.769 L 107.382 13.569 ZM 116.929 13.769 C 116.229 13.769 115.582 13.646 114.989 13.399 C 114.396 13.159 113.886 12.816 113.459 12.369 C 113.026 11.916 112.692 11.379 112.459 10.759 C 112.219 10.132 112.099 9.436 112.099 8.669 C 112.099 7.902 112.219 7.206 112.459 6.579 C 112.706 5.959 113.039 5.422 113.459 4.969 C 113.886 4.522 114.396 4.179 114.989 3.939 C 115.582 3.692 116.229 3.569 116.929 3.569 C 117.996 3.569 118.926 3.762 119.719 4.149 L 119.519 5.859 C 118.592 5.486 117.729 5.299 116.929 5.299 C 116.462 5.299 116.052 5.379 115.699 5.539 C 115.346 5.706 115.046 5.936 114.799 6.229 C 114.559 6.522 114.376 6.876 114.249 7.289 C 114.122 7.702 114.059 8.162 114.059 8.669 C 114.059 9.176 114.122 9.636 114.249 10.049 C 114.376 10.462 114.559 10.816 114.799 11.109 C 115.046 11.402 115.346 11.632 115.699 11.799 C 116.052 11.959 116.462 12.039 116.929 12.039 C 117.729 12.039 118.592 11.852 119.519 11.479 L 119.719 13.189 C 118.926 13.576 117.996 13.769 116.929 13.769 ZM 128.798 12.369 C 127.905 13.302 126.748 13.769 125.328 13.769 C 124.628 13.769 123.982 13.646 123.388 13.399 C 122.795 13.159 122.285 12.816 121.858 12.369 C 121.425 11.916 121.092 11.379 120.858 10.759 C 120.618 10.132 120.498 9.436 120.498 8.669 C 120.498 7.902 120.618 7.206 120.858 6.579 C 121.105 5.959 121.438 5.422 121.858 4.969 C 122.285 4.522 122.795 4.179 123.388 3.939 C 123.982 3.692 124.628 3.569 125.328 3.569 C 126.028 3.569 126.675 3.692 127.268 3.939 C 127.862 4.192 128.372 4.542 128.798 4.989 C 129.232 5.436 129.565 5.972 129.798 6.599 C 130.038 7.226 130.158 7.916 130.158 8.669 C 130.158 10.202 129.705 11.436 128.798 12.369 M 127.458 6.219 C 126.965 5.606 126.255 5.299 125.328 5.299 C 124.862 5.299 124.452 5.379 124.098 5.539 C 123.745 5.706 123.445 5.936 123.198 6.229 C 122.958 6.522 122.775 6.876 122.648 7.289 C 122.522 7.702 122.458 8.162 122.458 8.669 C 122.458 9.176 122.522 9.636 122.648 10.049 C 122.775 10.462 122.958 10.816 123.198 11.109 C 123.445 11.402 123.745 11.632 124.098 11.799 C 124.452 11.959 124.862 12.039 125.328 12.039 C 125.795 12.039 126.205 11.959 126.558 11.799 C 126.912 11.632 127.212 11.402 127.458 11.109 C 127.698 10.816 127.882 10.462 128.008 10.049 C 128.135 9.636 128.198 9.176 128.198 8.669 C 128.198 7.662 127.952 6.846 127.458 6.219 ZM 137.547 13.569 L 131.727 13.569 L 131.727 3.769 L 133.517 3.769 L 133.517 11.829 L 137.547 11.829 L 137.547 13.569 ZM 146.255 12.369 C 145.361 13.302 144.205 13.769 142.785 13.769 C 142.085 13.769 141.438 13.646 140.845 13.399 C 140.251 13.159 139.741 12.816 139.315 12.369 C 138.881 11.916 138.548 11.379 138.315 10.759 C 138.075 10.132 137.955 9.436 137.955 8.669 C 137.955 7.902 138.075 7.206 138.315 6.579 C 138.561 5.959 138.895 5.422 139.315 4.969 C 139.741 4.522 140.251 4.179 140.845 3.939 C 141.438 3.692 142.085 3.569 142.785 3.569 C 143.485 3.569 144.131 3.692 144.725 3.939 C 145.318 4.192 145.828 4.542 146.255 4.989 C 146.688 5.436 147.021 5.972 147.255 6.599 C 147.495 7.226 147.615 7.916 147.615 8.669 C 147.615 10.202 147.161 11.436 146.255 12.369 M 144.915 6.219 C 144.421 5.606 143.711 5.299 142.785 5.299 C 142.318 5.299 141.908 5.379 141.555 5.539 C 141.201 5.706 140.901 5.936 140.655 6.229 C 140.415 6.522 140.231 6.876 140.105 7.289 C 139.978 7.702 139.915 8.162 139.915 8.669 C 139.915 9.176 139.978 9.636 140.105 10.049 C 140.231 10.462 140.415 10.816 140.655 11.109 C 140.901 11.402 141.201 11.632 141.555 11.799 C 141.908 11.959 142.318 12.039 142.785 12.039 C 143.251 12.039 143.661 11.959 144.015 11.799 C 144.368 11.632 144.668 11.402 144.915 11.109 C 145.155 10.816 145.338 10.462 145.465 10.049 C 145.591 9.636 145.655 9.176 145.655 8.669 C 145.655 7.662 145.408 6.846 144.915 6.219 ZM 156.684 13.569 L 154.824 13.569 L 152.794 9.929 L 150.974 9.929 L 150.974 13.569 L 149.184 13.569 L 149.184 3.769 L 152.764 3.769 C 155.017 3.769 156.144 4.712 156.144 6.599 C 156.144 7.299 155.997 7.869 155.704 8.309 C 155.417 8.742 155.007 9.122 154.474 9.449 L 156.684 13.569 M 152.364 5.269 L 150.974 5.269 L 150.974 8.249 L 152.294 8.249 C 153.047 8.249 153.564 8.119 153.844 7.859 C 154.124 7.606 154.264 7.226 154.264 6.719 C 154.264 6.226 154.127 5.859 153.854 5.619 C 153.587 5.386 153.09 5.269 152.364 5.269 Z" transform="matrix(1, 0, 0, 1, 0, 0)" style="fill: rgb(255, 255, 255); white-space: pre;"/>
  <path d="M 0 18 L 3.869 0" style="fill: none; stroke-linecap: round; stroke: rgb(134, 119, 64);" bx:origin="0 0.5"/>
</svg>