<?xml version="1.0" encoding="utf-8"?>
<svg viewBox="0 0 130 18" xmlns="http://www.w3.org/2000/svg" xmlns:bx="https://boxy-svg.com">
  <path d="M 15.115 5.509 L 10.875 5.509 L 10.875 7.589 L 14.155 7.589 L 14.155 9.329 L 10.875 9.329 L 10.875 13.569 L 9.085 13.569 L 9.085 3.769 L 15.115 3.769 L 15.115 5.509 ZM 23.323 13.569 L 21.463 13.569 L 20.623 11.199 L 17.353 11.199 L 16.513 13.569 L 14.653 13.569 L 18.143 3.769 L 19.833 3.769 L 23.323 13.569 M 20.003 9.469 L 18.983 6.599 L 17.973 9.469 L 20.003 9.469 ZM 34.412 13.569 L 32.542 13.569 L 31.702 6.999 L 29.202 11.509 L 26.682 7.019 L 25.842 13.569 L 23.982 13.569 L 25.332 3.769 L 26.802 3.769 L 29.202 8.239 L 31.582 3.769 L 33.052 3.769 L 34.412 13.569 ZM 37.824 13.569 L 36.034 13.569 L 36.034 3.769 L 37.824 3.769 L 37.824 13.569 ZM 45.802 13.569 L 39.982 13.569 L 39.982 3.769 L 41.772 3.769 L 41.772 11.829 L 45.802 11.829 L 45.802 13.569 ZM 52.986 3.769 L 49.596 9.229 L 49.596 13.569 L 47.806 13.569 L 47.806 9.229 L 44.416 3.769 L 46.326 3.769 L 48.706 7.629 L 51.086 3.769 L 52.986 3.769 ZM 61.357 13.769 C 60.657 13.769 60.011 13.646 59.417 13.399 C 58.824 13.159 58.314 12.816 57.887 12.369 C 57.454 11.916 57.121 11.379 56.887 10.759 C 56.647 10.132 56.527 9.436 56.527 8.669 C 56.527 7.902 56.647 7.206 56.887 6.579 C 57.134 5.959 57.467 5.422 57.887 4.969 C 58.314 4.522 58.824 4.179 59.417 3.939 C 60.011 3.692 60.657 3.569 61.357 3.569 C 62.424 3.569 63.354 3.762 64.147 4.149 L 63.947 5.859 C 63.021 5.486 62.157 5.299 61.357 5.299 C 60.891 5.299 60.481 5.379 60.127 5.539 C 59.774 5.706 59.474 5.936 59.227 6.229 C 58.987 6.522 58.804 6.876 58.677 7.289 C 58.551 7.702 58.487 8.162 58.487 8.669 C 58.487 9.176 58.551 9.636 58.677 10.049 C 58.804 10.462 58.987 10.816 59.227 11.109 C 59.474 11.402 59.774 11.632 60.127 11.799 C 60.481 11.959 60.891 12.039 61.357 12.039 C 62.157 12.039 63.021 11.852 63.947 11.479 L 64.147 13.189 C 63.354 13.576 62.424 13.769 61.357 13.769 ZM 73.227 12.369 C 72.334 13.302 71.177 13.769 69.757 13.769 C 69.057 13.769 68.41 13.646 67.817 13.399 C 67.224 13.159 66.714 12.816 66.287 12.369 C 65.854 11.916 65.52 11.379 65.287 10.759 C 65.047 10.132 64.927 9.436 64.927 8.669 C 64.927 7.902 65.047 7.206 65.287 6.579 C 65.534 5.959 65.867 5.422 66.287 4.969 C 66.714 4.522 67.224 4.179 67.817 3.939 C 68.41 3.692 69.057 3.569 69.757 3.569 C 70.457 3.569 71.104 3.692 71.697 3.939 C 72.29 4.192 72.8 4.542 73.227 4.989 C 73.66 5.436 73.994 5.972 74.227 6.599 C 74.467 7.226 74.587 7.916 74.587 8.669 C 74.587 10.202 74.134 11.436 73.227 12.369 M 71.887 6.219 C 71.394 5.606 70.684 5.299 69.757 5.299 C 69.29 5.299 68.88 5.379 68.527 5.539 C 68.174 5.706 67.874 5.936 67.627 6.229 C 67.387 6.522 67.204 6.876 67.077 7.289 C 66.95 7.702 66.887 8.162 66.887 8.669 C 66.887 9.176 66.95 9.636 67.077 10.049 C 67.204 10.462 67.387 10.816 67.627 11.109 C 67.874 11.402 68.174 11.632 68.527 11.799 C 68.88 11.959 69.29 12.039 69.757 12.039 C 70.224 12.039 70.634 11.959 70.987 11.799 C 71.34 11.632 71.64 11.402 71.887 11.109 C 72.127 10.816 72.31 10.462 72.437 10.049 C 72.564 9.636 72.627 9.176 72.627 8.669 C 72.627 7.662 72.38 6.846 71.887 6.219 ZM 86.043 13.569 L 84.173 13.569 L 83.333 6.999 L 80.833 11.509 L 78.313 7.019 L 77.473 13.569 L 75.613 13.569 L 76.963 3.769 L 78.433 3.769 L 80.833 8.239 L 83.213 3.769 L 84.683 3.769 L 86.043 13.569 ZM 91.204 10.349 L 89.454 10.349 L 89.454 13.569 L 87.664 13.569 L 87.664 3.769 L 90.434 3.769 C 91.141 3.769 91.761 3.809 92.294 3.889 C 92.821 3.969 93.254 4.122 93.594 4.349 C 93.941 4.576 94.201 4.892 94.374 5.299 C 94.548 5.706 94.634 6.232 94.634 6.879 C 94.634 7.559 94.528 8.122 94.314 8.569 C 94.101 9.009 93.824 9.362 93.484 9.629 C 93.151 9.896 92.781 10.082 92.374 10.189 C 91.968 10.296 91.578 10.349 91.204 10.349 M 90.924 5.269 L 89.454 5.269 L 89.454 8.669 L 90.964 8.669 C 91.631 8.669 92.104 8.536 92.384 8.269 C 92.671 8.002 92.814 7.542 92.814 6.889 C 92.814 6.602 92.784 6.356 92.724 6.149 C 92.664 5.942 92.561 5.776 92.414 5.649 C 92.268 5.516 92.074 5.419 91.834 5.359 C 91.594 5.299 91.291 5.269 90.924 5.269 ZM 95.898 9.369 L 95.898 3.769 L 97.688 3.769 L 97.688 8.769 C 97.688 9.289 97.725 9.752 97.798 10.159 C 97.871 10.566 97.995 10.909 98.168 11.189 C 98.341 11.469 98.571 11.682 98.858 11.829 C 99.151 11.969 99.518 12.039 99.958 12.039 C 100.385 12.039 100.745 11.969 101.038 11.829 C 101.331 11.682 101.565 11.469 101.738 11.189 C 101.911 10.909 102.035 10.566 102.108 10.159 C 102.181 9.752 102.218 9.289 102.218 8.769 L 102.218 3.769 L 104.018 3.769 L 104.018 9.369 C 104.018 10.742 103.675 11.819 102.988 12.599 C 102.308 13.379 101.298 13.769 99.958 13.769 C 98.611 13.769 97.598 13.379 96.918 12.599 C 96.238 11.819 95.898 10.742 95.898 9.369 ZM 112.53 5.509 L 109.75 5.509 L 109.75 13.569 L 107.96 13.569 L 107.96 5.509 L 105.19 5.509 L 105.19 3.769 L 112.53 3.769 L 112.53 5.509 ZM 120.226 13.569 L 113.816 13.569 L 113.816 3.769 L 120.086 3.769 L 120.086 5.509 L 115.646 5.509 L 115.646 7.589 L 119.096 7.589 L 119.096 9.329 L 115.646 9.329 L 115.646 11.829 L 120.226 11.829 L 120.226 13.569 ZM 129.267 13.569 L 127.407 13.569 L 125.377 9.929 L 123.557 9.929 L 123.557 13.569 L 121.767 13.569 L 121.767 3.769 L 125.347 3.769 C 127.601 3.769 128.727 4.712 128.727 6.599 C 128.727 7.299 128.581 7.869 128.287 8.309 C 128.001 8.742 127.591 9.122 127.057 9.449 L 129.267 13.569 M 124.947 5.269 L 123.557 5.269 L 123.557 8.249 L 124.877 8.249 C 125.631 8.249 126.147 8.119 126.427 7.859 C 126.707 7.606 126.847 7.226 126.847 6.719 C 126.847 6.226 126.711 5.859 126.437 5.619 C 126.171 5.386 125.674 5.269 124.947 5.269 Z" transform="matrix(1, 0, 0, 1, 0, 0)" style="fill: rgb(255, 255, 255); white-space: pre;"/>
  <path d="M 0 18 L 3.869 0" style="fill: none; stroke-linecap: round; stroke: rgb(134, 119, 64);" bx:origin="0 0.5"/>
</svg>