<?xml version="1.0" encoding="UTF-8" standalone="no"?>
<svg width="70px" height="18px" viewBox="0 0 70 18" version="1.1" xmlns="http://www.w3.org/2000/svg" xmlns:xlink="http://www.w3.org/1999/xlink">
    <!-- Generator: Sketch 45 (43475) - http://www.bohemiancoding.com/sketch -->
    <title>system</title>
    <desc>Created with Sketch.</desc>
    <defs></defs>
    <g id="Page-1" stroke="none" stroke-width="1" fill="none" fill-rule="evenodd">
        <path d="M15.112,5.936 L10.87,5.936 L10.87,8.022 L14.146,8.022 L14.146,9.758 L10.87,9.758 L10.87,14 L9.078,14 L9.078,4.2 L15.112,4.2 L15.112,5.936 Z M23.316,14 L21.454,14 L20.614,11.634 L17.352,11.634 L16.512,14 L14.65,14 L18.136,4.2 L19.83,4.2 L23.316,14 Z M19.998,9.898 L18.976,7.028 L17.968,9.898 L19.998,9.898 Z M34.404,14 L32.542,14 L31.702,7.434 L29.196,11.942 L26.676,7.448 L25.836,14 L23.974,14 L25.332,4.2 L26.802,4.2 L29.196,8.666 L31.576,4.2 L33.046,4.2 L34.404,14 Z M37.82,14 L36.028,14 L36.028,4.2 L37.82,4.2 L37.82,14 Z M44.218,14.196 C42.7993262,14.196 41.6396712,13.7270047 40.739,12.789 C39.8383288,11.8509953 39.388,10.6213409 39.388,9.1 C39.388,7.57865906 39.8383288,6.34900469 40.739,5.411 C41.6396712,4.47299531 42.7993262,4.004 44.218,4.004 C45.2913387,4.004 46.2199961,4.19533142 47.004,4.578 L46.808,6.286 C45.8653286,5.9126648 45.0020039,5.726 44.218,5.726 C43.2939954,5.726 42.5846691,6.03399692 42.09,6.65 C41.5953309,7.26600308 41.348,8.08266158 41.348,9.1 C41.348,10.1173384 41.5953309,10.9339969 42.09,11.55 C42.5846691,12.1660031 43.2939954,12.474 44.218,12.474 C45.0020039,12.474 45.8653286,12.2873352 46.808,11.914 L47.004,13.622 C46.2199961,14.0046686 45.2913387,14.196 44.218,14.196 Z M52.618,14.196 C51.1993262,14.196 50.0396712,13.7270047 49.139,12.789 C48.2383288,11.8509953 47.788,10.6213409 47.788,9.1 C47.788,7.57865906 48.2383288,6.34900469 49.139,5.411 C50.0396712,4.47299531 51.1993262,4.004 52.618,4.004 C54.0366738,4.004 55.1963288,4.47299531 56.097,5.411 C56.9976712,6.34900469 57.448,7.57865906 57.448,9.1 C57.448,10.6213409 56.9976712,11.8509953 56.097,12.789 C55.1963288,13.7270047 54.0366738,14.196 52.618,14.196 Z M52.618,5.726 C51.6939954,5.726 50.9846691,6.03399692 50.49,6.65 C49.9953309,7.26600308 49.748,8.08266158 49.748,9.1 C49.748,10.1173384 49.9953309,10.9339969 50.49,11.55 C50.9846691,12.1660031 51.6939954,12.474 52.618,12.474 C53.5420046,12.474 54.2513309,12.1660031 54.746,11.55 C55.2406691,10.9339969 55.488,10.1173384 55.488,9.1 C55.488,8.08266158 55.2406691,7.26600308 54.746,6.65 C54.2513309,6.03399692 53.5420046,5.726 52.618,5.726 Z M68.9,14 L67.038,14 L66.198,7.434 L63.692,11.942 L61.172,7.448 L60.332,14 L58.47,14 L59.828,4.2 L61.298,4.2 L63.692,8.666 L66.072,4.2 L67.542,4.2 L68.9,14 Z" id="FAMICOM-Copy" fill="#FFFFFF"></path>
        <g id="system" stroke="#867740" stroke-linecap="round">
            <path d="M0.5,17.5 L4.5,0.5" id="Shape"></path>
        </g>
    </g>
</svg>