<svg height="250" viewBox="0 0 349.99999 250" width="350" xmlns="http://www.w3.org/2000/svg"><g fill="none" stroke="#f4f4f4" transform="translate(-23.588713 -22.465441)"><path d="m134.39453 202.53125c-.19683-6.76355-5.72825-12.1875-12.53906-12.1875-6.81038 0-12.34224 5.42395-12.53906 12.1875"/><path d="m187.86914 106.62695v60.84375m22.96289 0v-60.84375"/><circle cx="199.35011" cy="69.891731" r="38.489388"/><path d="m219.10837 86.890742c-.72141 0-1.45103-.208529-2.09441-.642471-1.71569-1.159003-2.16652-3.488872-1.00797-5.203648 2.2418-3.319129 3.42727-7.201332 3.42727-11.2259 0-7.738854-4.52559-14.873565-11.52934-18.176267-1.8722-.882941-2.67438-3.116531-1.79098-4.988274.88249-1.873113 3.11516-2.674377 4.98828-1.791435 9.6147 4.534256 15.82814 14.330567 15.82814 24.956432 0 5.526709-1.62945 10.859034-4.71221 15.422494-.72369 1.07048-1.90597 1.649069-3.10878 1.649069z"/><path d="m238.80469 180.61914-4.42383-10.95898c-.53387-1.32282-1.8158-2.18946-3.24219-2.18946h-63.57617c-1.42685 0-2.71027.86619-3.24414 2.18946l-4.42188 10.95898"/><path d="m254.26562 202.53125c-.0425-.27806-.11773-.55279-.22851-.81836l-7.9082-18.94336c-.54436-1.30183-1.81718-2.15039-3.22852-2.15039h-87.09961c-1.41134 0-2.68414.84811-3.22851 2.15039l-8.20277 19.53248"/><path d="m125.61618 223.44271h148.63928 29.5783c5.77539 0 10.45658-4.68118 10.45658-10.45657-.00092-5.77357-4.6821-10.45567-10.45749-10.45567h-29.5783-149.80887-29.577838c-5.775393 0-10.456578 4.6821-10.456578 10.45567 0 5.77539 4.681185 10.45657 10.456578 10.45657h23.040548"/><path d="m274.13819 239.0418h-7.32316-24.82046-111.16798c-2.8966 0-5.25339-2.35634-5.25339-5.25202v-16.81923c0-2.07023-1.67781-3.74805-3.74805-3.74805-2.07023 0-3.74805 1.67782-3.74805 3.74805v16.81923c0 7.02931 5.71881 12.74812 12.74903 12.74812h111.16799 24.82045 7.32362c2.8966 0 5.25339 2.35633 5.25339 5.25201v9.49014c0 2.07023 1.67781 3.74805 3.74805 3.74805 2.07023 0 3.74805-1.67782 3.74805-3.74805v-9.49014c-.00046-7.02976-5.71927-12.74811-12.74949-12.74811z"/></g></svg>