<?xml version="1.0" encoding="UTF-8" standalone="no"?>
<svg
   xmlns:dc="http://purl.org/dc/elements/1.1/"
   xmlns:cc="http://creativecommons.org/ns#"
   xmlns:rdf="http://www.w3.org/1999/02/22-rdf-syntax-ns#"
   xmlns:svg="http://www.w3.org/2000/svg"
   xmlns="http://www.w3.org/2000/svg"
   xmlns:sodipodi="http://sodipodi.sourceforge.net/DTD/sodipodi-0.dtd"
   xmlns:inkscape="http://www.inkscape.org/namespaces/inkscape"
   inkscape:version="1.0alpha2 (0c7b077, 2019-09-04)"
   sodipodi:docname="controller.svg"
   id="svg224"
   version="1.1"
   width="350"
   viewBox="0 0 349.99999 250"
   height="250">
  <metadata
     id="metadata230">
    <rdf:RDF>
      <cc:Work
         rdf:about="">
        <dc:format>image/svg+xml</dc:format>
        <dc:type
           rdf:resource="http://purl.org/dc/dcmitype/StillImage" />
        <dc:title></dc:title>
      </cc:Work>
    </rdf:RDF>
  </metadata>
  <defs
     id="defs228" />
  <sodipodi:namedview
     inkscape:current-layer="svg224"
     inkscape:window-maximized="0"
     inkscape:window-y="34"
     inkscape:window-x="12"
     inkscape:cy="154.89466"
     inkscape:cx="230.85174"
     inkscape:zoom="1.7044849"
     showgrid="false"
     id="namedview226"
     inkscape:window-height="982"
     inkscape:window-width="1656"
     inkscape:pageshadow="2"
     inkscape:pageopacity="0"
     guidetolerance="10"
     gridtolerance="10"
     objecttolerance="10"
     borderopacity="1"
     inkscape:document-rotation="0"
     bordercolor="#666666"
     pagecolor="#a9a9a9" />
  <g
     style="stroke-width:1;stroke-miterlimit:4;stroke-dasharray:none"
     transform="translate(-23.588713,-22.465441)"
     id="g222"
     stroke="#f4f4f4"
     fill="none">
    <path
       style="stroke-width:1;stroke-miterlimit:4;stroke-dasharray:none"
       inkscape:connector-curvature="0"
       id="path206"
       d="m 134.39453,202.53125 c -0.19683,-6.76355 -5.72825,-12.1875 -12.53906,-12.1875 -6.81038,0 -12.34224,5.42395 -12.53906,12.1875" />
    <path
       style="stroke-width:1;stroke-miterlimit:4;stroke-dasharray:none"
       inkscape:connector-curvature="0"
       id="path208"
       d="m 187.86914,106.62695 v 60.84375 m 22.96289,0 v -60.84375" />
    <circle
       style="stroke-width:1;stroke-miterlimit:4;stroke-dasharray:none"
       id="circle210"
       r="38.489388"
       cy="69.891731"
       cx="199.35011" />
    <path
       style="stroke-width:1;stroke-miterlimit:4;stroke-dasharray:none"
       inkscape:connector-curvature="0"
       id="path212"
       d="m 219.10837,86.890742 c -0.72141,0 -1.45103,-0.208529 -2.09441,-0.642471 -1.71569,-1.159003 -2.16652,-3.488872 -1.00797,-5.203648 2.2418,-3.319129 3.42727,-7.201332 3.42727,-11.2259 0,-7.738854 -4.52559,-14.873565 -11.52934,-18.176267 -1.8722,-0.882941 -2.67438,-3.116531 -1.79098,-4.988274 0.88249,-1.873113 3.11516,-2.674377 4.98828,-1.791435 9.6147,4.534256 15.82814,14.330567 15.82814,24.956432 0,5.526709 -1.62945,10.859034 -4.71221,15.422494 -0.72369,1.07048 -1.90597,1.649069 -3.10878,1.649069 z" />
    <path
       style="stroke-width:1;stroke-miterlimit:4;stroke-dasharray:none"
       inkscape:connector-curvature="0"
       id="path214"
       d="m 238.80469,180.61914 -4.42383,-10.95898 c -0.53387,-1.32282 -1.8158,-2.18946 -3.24219,-2.18946 H 167.5625 c -1.42685,0 -2.71027,0.86619 -3.24414,2.18946 l -4.42188,10.95898" />
    <path
       style="stroke-width:1;stroke-miterlimit:4;stroke-dasharray:none"
       inkscape:connector-curvature="0"
       id="path216"
       d="m 254.26562,202.53125 c -0.0425,-0.27806 -0.11773,-0.55279 -0.22851,-0.81836 l -7.9082,-18.94336 c -0.54436,-1.30183 -1.81718,-2.15039 -3.22852,-2.15039 h -87.09961 c -1.41134,0 -2.68414,0.84811 -3.22851,2.15039 l -8.20277,19.53248" />
    <path
       style="stroke-width:1;stroke-miterlimit:4;stroke-dasharray:none"
       inkscape:connector-curvature="0"
       id="path218"
       d="m 125.61618,223.44271 h 148.63928 29.5783 c 5.77539,0 10.45658,-4.68118 10.45658,-10.45657 -9.2e-4,-5.77357 -4.6821,-10.45567 -10.45749,-10.45567 H 274.25455 124.44568 94.867842 c -5.775393,0 -10.456578,4.6821 -10.456578,10.45567 0,5.77539 4.681185,10.45657 10.456578,10.45657 h 23.040548" />
    <path
       style="stroke-width:1;stroke-miterlimit:4;stroke-dasharray:none"
       inkscape:connector-curvature="0"
       id="path220"
       d="m 274.13819,239.0418 h -7.32316 -24.82046 -111.16798 c -2.8966,0 -5.25339,-2.35634 -5.25339,-5.25202 v -16.81923 c 0,-2.07023 -1.67781,-3.74805 -3.74805,-3.74805 -2.07023,0 -3.74805,1.67782 -3.74805,3.74805 v 16.81923 c 0,7.02931 5.71881,12.74812 12.74903,12.74812 h 111.16799 24.82045 7.32362 c 2.8966,0 5.25339,2.35633 5.25339,5.25201 v 9.49014 c 0,2.07023 1.67781,3.74805 3.74805,3.74805 2.07023,0 3.74805,-1.67782 3.74805,-3.74805 v -9.49014 c -4.6e-4,-7.02976 -5.71927,-12.74811 -12.74949,-12.74811 z" />
  </g>
</svg>
