<?xml version="1.0" encoding="UTF-8" standalone="no"?>
<svg
   xmlns:dc="http://purl.org/dc/elements/1.1/"
   xmlns:cc="http://creativecommons.org/ns#"
   xmlns:rdf="http://www.w3.org/1999/02/22-rdf-syntax-ns#"
   xmlns:svg="http://www.w3.org/2000/svg"
   xmlns="http://www.w3.org/2000/svg"
   xmlns:sodipodi="http://sodipodi.sourceforge.net/DTD/sodipodi-0.dtd"
   xmlns:inkscape="http://www.inkscape.org/namespaces/inkscape"
   inkscape:version="1.0alpha2 (0c7b077, 2019-09-04)"
   sodipodi:docname="system.svg"
   id="svg906"
   version="1.1"
   viewBox="0 0 78 18"
   height="18"
   width="78">
  <metadata
     id="metadata910">
    <rdf:RDF>
      <cc:Work
         rdf:about="">
        <dc:format>image/svg+xml</dc:format>
        <dc:type
           rdf:resource="http://purl.org/dc/dcmitype/StillImage" />
        <dc:title>system</dc:title>
      </cc:Work>
    </rdf:RDF>
  </metadata>
  <sodipodi:namedview
     inkscape:current-layer="svg906"
     inkscape:window-maximized="0"
     inkscape:window-y="34"
     inkscape:window-x="12"
     inkscape:cy="9"
     inkscape:cx="18.004124"
     inkscape:zoom="6.5540541"
     showgrid="false"
     id="namedview908"
     inkscape:window-height="982"
     inkscape:window-width="1656"
     inkscape:pageshadow="2"
     inkscape:pageopacity="0"
     guidetolerance="10"
     gridtolerance="10"
     objecttolerance="10"
     borderopacity="1"
     inkscape:document-rotation="0"
     bordercolor="#666666"
     pagecolor="#999999" />
  <!-- Generator: Sketch 45 (43475) - http://www.bohemiancoding.com/sketch -->
  <title
     id="title896">system</title>
  <desc
     id="desc898">Created with Sketch.</desc>
  <defs
     id="defs900" />
  <g
     id="system"
     stroke="#867740"
     stroke-linecap="round"
     style="opacity:1;fill:none;fill-rule:evenodd;stroke-width:1;stop-opacity:1">
    <path
       d="m 0.5,17.5 4,-17"
       id="Shape"
       inkscape:connector-curvature="0" />
  </g>
  <g
     style="font-style:normal;font-weight:normal;font-size:14px;font-family:sans-serif;fill:#000000;fill-opacity:1;stroke:none;stroke-width:0.35"
     id="text854"
     aria-label="FAVORITES">
    <path
       id="path923"
       style="font-style:normal;font-variant:normal;font-weight:bold;font-stretch:normal;font-size:14px;font-family:Cabin;-inkscape-font-specification:'Cabin Bold';font-variant-ligatures:normal;font-variant-caps:normal;font-variant-numeric:normal;font-variant-east-asian:normal;fill:#ffffff;fill-opacity:1;stroke-width:0.35"
       d="m 14.524,5.936 h -4.242 v 2.086 h 3.276 V 9.758 H 10.282 V 14 H 8.4900002 V 4.2 H 14.524 Z" />
    <path
       id="path925"
       style="font-style:normal;font-variant:normal;font-weight:bold;font-stretch:normal;font-size:14px;font-family:Cabin;-inkscape-font-specification:'Cabin Bold';font-variant-ligatures:normal;font-variant-caps:normal;font-variant-numeric:normal;font-variant-east-asian:normal;fill:#ffffff;fill-opacity:1;stroke-width:0.35"
       d="m 22.737188,14 h -1.862 l -0.84,-2.366 h -3.262 l -0.84,2.366 h -1.862 l 3.486,-9.8 h 1.694 z m -3.318,-4.102 -1.022,-2.87 -1.008,2.87 z" />
    <path
       id="path927"
       style="font-style:normal;font-variant:normal;font-weight:bold;font-stretch:normal;font-size:14px;font-family:Cabin;-inkscape-font-specification:'Cabin Bold';font-variant-ligatures:normal;font-variant-caps:normal;font-variant-numeric:normal;font-variant-east-asian:normal;fill:#ffffff;fill-opacity:1;stroke-width:0.35"
       d="m 31.306281,4.2 -3.444,9.8 h -2.184 l -3.528,-9.8 h 1.862 l 2.744,7.434 2.702,-7.434 z" />
    <path
       id="path929"
       style="font-style:normal;font-variant:normal;font-weight:bold;font-stretch:normal;font-size:14px;font-family:Cabin;-inkscape-font-specification:'Cabin Bold';font-variant-ligatures:normal;font-variant-caps:normal;font-variant-numeric:normal;font-variant-east-asian:normal;fill:#ffffff;fill-opacity:1;stroke-width:0.35"
       d="m 39.965719,12.796 q -1.344,1.4 -3.472,1.4 -2.128,0 -3.486,-1.4 -1.344,-1.414 -1.344,-3.696 0,-2.282 1.344,-3.682 1.358,-1.414 3.486,-1.414 2.128,0 3.472,1.414 1.358,1.4 1.358,3.682 0,2.282 -1.358,3.696 z m -1.344,-6.146 q -0.742,-0.924 -2.128,-0.924 -1.386,0 -2.128,0.924 -0.742,0.924 -0.742,2.45 0,1.526 0.742,2.45 0.742,0.924 2.128,0.924 1.386,0 2.128,-0.924 0.742,-0.924 0.742,-2.45 0,-1.526 -0.742,-2.45 z" />
    <path
       id="path931"
       style="font-style:normal;font-variant:normal;font-weight:bold;font-stretch:normal;font-size:14px;font-family:Cabin;-inkscape-font-specification:'Cabin Bold';font-variant-ligatures:normal;font-variant-caps:normal;font-variant-numeric:normal;font-variant-east-asian:normal;fill:#ffffff;fill-opacity:1;stroke-width:0.35"
       d="m 50.392438,14 h -1.862 l -2.03,-3.64 h -1.82 V 14 h -1.792 V 4.2 h 3.584 q 3.374,0 3.374,2.828 0,1.05 -0.434,1.708 -0.434,0.658 -1.232,1.148 z m -4.326,-8.302 h -1.386 V 8.68 h 1.316 q 1.134,0 1.554,-0.392 0.42,-0.392 0.42,-1.134 0,-0.742 -0.406,-1.092 -0.406,-0.364 -1.498,-0.364 z" />
    <path
       id="path933"
       style="font-style:normal;font-variant:normal;font-weight:bold;font-stretch:normal;font-size:14px;font-family:Cabin;-inkscape-font-specification:'Cabin Bold';font-variant-ligatures:normal;font-variant-caps:normal;font-variant-numeric:normal;font-variant-east-asian:normal;fill:#ffffff;fill-opacity:1;stroke-width:0.35"
       d="m 53.457781,14 h -1.792 V 4.2 h 1.792 z" />
    <path
       id="path935"
       style="font-style:normal;font-variant:normal;font-weight:bold;font-stretch:normal;font-size:14px;font-family:Cabin;-inkscape-font-specification:'Cabin Bold';font-variant-ligatures:normal;font-variant-caps:normal;font-variant-numeric:normal;font-variant-east-asian:normal;fill:#ffffff;fill-opacity:1;stroke-width:0.35"
       d="m 62.071281,5.936 h -2.772 V 14 h -1.792 V 5.936 h -2.772 V 4.2 h 7.336 z" />
    <path
       id="path937"
       style="font-style:normal;font-variant:normal;font-weight:bold;font-stretch:normal;font-size:14px;font-family:Cabin;-inkscape-font-specification:'Cabin Bold';font-variant-ligatures:normal;font-variant-caps:normal;font-variant-numeric:normal;font-variant-east-asian:normal;fill:#ffffff;fill-opacity:1;stroke-width:0.35"
       d="m 69.780906,14 h -6.412 V 4.2 h 6.272 v 1.736 h -4.438 v 2.086 h 3.444 v 1.736 h -3.444 v 2.506 h 4.578 z" />
    <path
       id="path939"
       style="font-style:normal;font-variant:normal;font-weight:bold;font-stretch:normal;font-size:14px;font-family:Cabin;-inkscape-font-specification:'Cabin Bold';font-variant-ligatures:normal;font-variant-caps:normal;font-variant-numeric:normal;font-variant-east-asian:normal;fill:#ffffff;fill-opacity:1;stroke-width:0.35"
       d="m 74.167938,14.196 q -1.05,0 -1.918,-0.21 -0.868,-0.21 -1.33,-0.504 l 0.21,-2.044 q 0.448,0.434 1.246,0.742 0.812,0.294 1.834,0.294 1.75,0 1.75,-1.064 0,-0.294 -0.14,-0.532 -0.14,-0.238 -0.308,-0.392 -0.154,-0.154 -0.532,-0.322 -0.378,-0.182 -0.588,-0.252 -0.21,-0.084 -0.714,-0.252 -0.434,-0.14 -0.602,-0.21 l -0.56,-0.238 q -0.392,-0.154 -0.574,-0.266 -0.182,-0.126 -0.448,-0.336 -0.266,-0.224 -0.392,-0.448 -0.126,-0.224 -0.224,-0.532 -0.098,-0.322 -0.098,-0.686 0,-1.148 0.868,-2.044 0.868,-0.896 2.674,-0.896 0.938,0 1.806,0.238 0.882,0.238 1.316,0.518 l -0.182,1.834 q -1.61,-0.882 -2.87,-0.882 -0.714,0 -1.26,0.238 -0.532,0.238 -0.532,0.798 0,0.532 0.49,0.826 0.49,0.28 1.484,0.588 0.518,0.154 0.784,0.252 0.28,0.098 0.756,0.294 0.476,0.196 0.742,0.42 0.266,0.21 0.546,0.532 0.294,0.308 0.42,0.742 0.14,0.42 0.14,0.938 0,0.392 -0.07,0.742 -0.07,0.336 -0.322,0.742 -0.238,0.406 -0.644,0.7 -0.392,0.28 -1.106,0.476 -0.7,0.196 -1.652,0.196 z" />
  </g>
</svg>
