<svg height="18" viewBox="0 0 78 18" width="78" xmlns="http://www.w3.org/2000/svg"><path d="m.5 17.5 4-17" fill="none" stroke="#867740" stroke-linecap="round"/><g fill="#fff" stroke-width=".35"><path d="m14.524 5.936h-4.242v2.086h3.276v1.736h-3.276v4.242h-1.7919998v-9.8h6.0339998z"/><path d="m22.737188 14h-1.862l-.84-2.366h-3.262l-.84 2.366h-1.862l3.486-9.8h1.694zm-3.318-4.102-1.022-2.87-1.008 2.87z"/><path d="m31.306281 4.2-3.444 9.8h-2.184l-3.528-9.8h1.862l2.744 7.434 2.702-7.434z"/><path d="m39.965719 12.796q-1.344 1.4-3.472 1.4-2.128 0-3.486-1.4-1.344-1.414-1.344-3.696 0-2.282 1.344-3.682 1.358-1.414 3.486-1.414 2.128 0 3.472 1.414 1.358 1.4 1.358 3.682 0 2.282-1.358 3.696zm-1.344-6.146q-.742-.924-2.128-.924-1.386 0-2.128.924-.742.924-.742 2.45 0 1.526.742 2.45.742.924 2.128.924 1.386 0 2.128-.924.742-.924.742-2.45 0-1.526-.742-2.45z"/><path d="m50.392438 14h-1.862l-2.03-3.64h-1.82v3.64h-1.792v-9.8h3.584q3.374 0 3.374 2.828 0 1.05-.434 1.708-.434.658-1.232 1.148zm-4.326-8.302h-1.386v2.982h1.316q1.134 0 1.554-.392.42-.392.42-1.134 0-.742-.406-1.092-.406-.364-1.498-.364z"/><path d="m53.457781 14h-1.792v-9.8h1.792z"/><path d="m62.071281 5.936h-2.772v8.064h-1.792v-8.064h-2.772v-1.736h7.336z"/><path d="m69.780906 14h-6.412v-9.8h6.272v1.736h-4.438v2.086h3.444v1.736h-3.444v2.506h4.578z"/><path d="m74.167938 14.196q-1.05 0-1.918-.21-.868-.21-1.33-.504l.21-2.044q.448.434 1.246.742.812.294 1.834.294 1.75 0 1.75-1.064 0-.294-.14-.532-.14-.238-.308-.392-.154-.154-.532-.322-.378-.182-.588-.252-.21-.084-.714-.252-.434-.14-.602-.21l-.56-.238q-.392-.154-.574-.266-.182-.126-.448-.336-.266-.224-.392-.448-.126-.224-.224-.532-.098-.322-.098-.686 0-1.148.868-2.044.868-.896 2.674-.896.938 0 1.806.238.882.238 1.316.518l-.182 1.834q-1.61-.882-2.87-.882-.714 0-1.26.238-.532.238-.532.798 0 .532.49.826.49.28 1.484.588.518.154.784.252.28.098.756.294.476.196.742.42.266.21.546.532.294.308.42.742.14.42.14.938 0 .392-.07.742-.07.336-.322.742-.238.406-.644.7-.392.28-1.106.476-.7.196-1.652.196z"/></g></svg>